solid AssimpScene
 facet normal -0.358837 -0.816337 -0.452581
  outer loop
  vertex -0.762664 0.535968 -0.362052
  vertex 0 0 0
  vertex -0.778175 0.529399 -0.337905
  endloop
 endfacet

 facet normal -0.602021 -0.782043 0.161183
  outer loop
  vertex -0.778175 0.529399 -0.337905
  vertex 0 0 0
  vertex -0.791314 0.55735 -0.251364
  endloop
 endfacet

 facet normal -0.605336 -0.771987 0.193919
  outer loop
  vertex -0.791314 0.55735 -0.251364
  vertex 0 0 0
  vertex -0.795951 0.588759 -0.140802
  endloop
 endfacet

 facet normal -0.536942 -0.579216 0.613353
  outer loop
  vertex -0.795951 0.588759 -0.140802
  vertex 0 0 0
  vertex -0.753482 0.656258 -0.039881
  endloop
 endfacet

 facet normal -0.609041 -0.673848 0.418328
  outer loop
  vertex -0.753482 0.656258 -0.039881
  vertex 0 0 0
  vertex -0.746593 0.665097 -0.0156129
  endloop
 endfacet

 facet normal -0.653641 -0.7377 -0.168973
  outer loop
  vertex -0.746593 0.665097 -0.0156129
  vertex 0 0 0
  vertex -0.748829 0.662755 0.00326342
  endloop
 endfacet

 facet normal -0.647012 -0.732091 0.213114
  outer loop
  vertex -0.748829 0.662755 0.00326342
  vertex 0 0 0
  vertex -0.739858 0.670372 0.0566699
  endloop
 endfacet

 facet normal -0.643265 -0.680235 -0.351412
  outer loop
  vertex -0.739858 0.670372 0.0566699
  vertex 0 0 0
  vertex -0.751854 0.647931 0.122071
  endloop
 endfacet

 facet normal -0.652098 -0.703407 -0.282818
  outer loop
  vertex -0.751854 0.647931 0.122071
  vertex 0 0 0
  vertex -0.757774 0.616241 0.214536
  endloop
 endfacet

 facet normal -0.619143 -0.782846 0.0617683
  outer loop
  vertex -0.757774 0.616241 0.214536
  vertex 0 0 0
  vertex -0.723992 0.599517 0.341197
  endloop
 endfacet

 facet normal -0.572339 -0.798172 0.188012
  outer loop
  vertex -0.723992 0.599517 0.341197
  vertex 0 0 0
  vertex -0.68473 0.591337 0.425989
  endloop
 endfacet

 facet normal -0.723073 -0.62433 -0.295597
  outer loop
  vertex -0.68473 0.591337 0.425989
  vertex 0 0 0
  vertex -0.672805 0.539565 0.506165
  endloop
 endfacet

 facet normal -0.732921 -0.579332 -0.356653
  outer loop
  vertex -0.672805 0.539565 0.506165
  vertex 0 0 0
  vertex -0.671436 0.531571 0.516338
  endloop
 endfacet

 facet normal -0.663325 -0.120446 -0.738575
  outer loop
  vertex -0.671436 0.531571 0.516338
  vertex 0 0 0
  vertex -0.679241 0.511111 0.526684
  endloop
 endfacet

 facet normal -0.723918 -0.584636 -0.366255
  outer loop
  vertex -0.679241 0.511111 0.526684
  vertex 0 0 0
  vertex -0.677518 0.502403 0.537178
  endloop
 endfacet

 facet normal -0.705647 -0.649992 -0.282086
  outer loop
  vertex -0.677518 0.502403 0.537178
  vertex 0 0 0
  vertex -0.67371 0.492153 0.551271
  endloop
 endfacet

 facet normal -0.690211 -0.152511 -0.707353
  outer loop
  vertex -0.67371 0.492153 0.551271
  vertex 0 0 0
  vertex -0.677855 0.478357 0.55829
  endloop
 endfacet

 facet normal -0.442135 0.341472 -0.829405
  outer loop
  vertex -0.677855 0.478357 0.55829
  vertex 0 0 0
  vertex -0.688511 0.463442 0.55783
  endloop
 endfacet

 facet normal -0.697423 -0.212179 -0.68453
  outer loop
  vertex -0.688511 0.463442 0.55783
  vertex 0 0 0
  vertex -0.690841 0.453118 0.563403
  endloop
 endfacet

 facet normal -0.700101 -0.613837 -0.364778
  outer loop
  vertex -0.690841 0.453118 0.563403
  vertex 0 0 0
  vertex -0.689378 0.447944 0.569302
  endloop
 endfacet

 facet normal -0.71018 -0.572882 -0.409207
  outer loop
  vertex -0.689378 0.447944 0.569302
  vertex 0 0 0
  vertex -0.682117 0.416055 0.601345
  endloop
 endfacet

 facet normal -0.636022 -0.743348 -0.207148
  outer loop
  vertex -0.682117 0.416055 0.601345
  vertex 0 0 0
  vertex -0.672824 0.402748 0.620566
  endloop
 endfacet

 facet normal -0.619804 -0.764857 -0.175606
  outer loop
  vertex -0.672824 0.402748 0.620566
  vertex 0 0 0
  vertex -0.644045 0.367915 0.670705
  endloop
 endfacet

 facet normal -0.26945 -0.929667 0.251229
  outer loop
  vertex -0.644045 0.367915 0.670705
  vertex 0 0 0
  vertex -0.611608 0.366711 0.701041
  endloop
 endfacet

 facet normal -0.750494 -0.549346 -0.367392
  outer loop
  vertex -0.611608 0.366711 0.701041
  vertex 0 0 0
  vertex -0.608009 0.356067 0.709606
  endloop
 endfacet

 facet normal -0.463369 -0.884918 0.0470091
  outer loop
  vertex -0.608009 0.356067 0.709606
  vertex 0 0 0
  vertex -0.58581 0.345687 0.733026
  endloop
 endfacet

 facet normal -0.632968 -0.76001 -0.147434
  outer loop
  vertex -0.58581 0.345687 0.733026
  vertex 0 0 0
  vertex -0.571392 0.330124 0.751352
  endloop
 endfacet

 facet normal -0.777587 -0.51054 -0.367025
  outer loop
  vertex -0.571392 0.330124 0.751352
  vertex 0 0 0
  vertex -0.566964 0.316922 0.760337
  endloop
 endfacet

 facet normal -0.690818 -0.685701 -0.229314
  outer loop
  vertex -0.566964 0.316922 0.760337
  vertex 0 0 0
  vertex -0.562175 0.309956 0.766738
  endloop
 endfacet

 facet normal -0.826904 -0.226092 -0.51489
  outer loop
  vertex -0.562175 0.309956 0.766738
  vertex 0 0 0
  vertex -0.561592 0.284714 0.776886
  endloop
 endfacet

 facet normal -0.713333 -0.642356 -0.280241
  outer loop
  vertex -0.561592 0.284714 0.776886
  vertex 0 0 0
  vertex -0.547953 0.261904 0.794452
  endloop
 endfacet

 facet normal -0.45372 -0.890937 -0.0192306
  outer loop
  vertex -0.547953 0.261904 0.794452
  vertex 0 0 0
  vertex -0.532937 0.253983 0.807137
  endloop
 endfacet

 facet normal -0.209416 -0.963804 0.165008
  outer loop
  vertex -0.532937 0.253983 0.807137
  vertex 0 0 0
  vertex -0.520852 0.252766 0.815367
  endloop
 endfacet

 facet normal -0.0816367 -0.965528 0.247167
  outer loop
  vertex -0.520852 0.252766 0.815367
  vertex 0 0 0
  vertex -0.511901 0.253405 0.820819
  endloop
 endfacet

 facet normal -0.538518 -0.839107 -0.0767941
  outer loop
  vertex -0.511901 0.253405 0.820819
  vertex 0 0 0
  vertex -0.501266 0.245771 0.829656
  endloop
 endfacet

 facet normal -0.644677 -0.745625 -0.168626
  outer loop
  vertex -0.501266 0.245771 0.829656
  vertex 0 0 0
  vertex -0.495847 0.239968 0.834597
  endloop
 endfacet

 facet normal -0.500677 -0.864248 -0.0489668
  outer loop
  vertex -0.495847 0.239968 0.834597
  vertex 0 0 0
  vertex -0.458904 0.217038 0.86157
  endloop
 endfacet

 facet normal -0.733416 -0.639885 -0.229451
  outer loop
  vertex -0.458904 0.217038 0.86157
  vertex 0 0 0
  vertex -0.441273 0.191396 0.876725
  endloop
 endfacet

 facet normal -0.252262 -0.96405 0.083491
  outer loop
  vertex -0.441273 0.191396 0.876725
  vertex 0 0 0
  vertex -0.40213 0.18292 0.897124
  endloop
 endfacet

 facet normal -0.620564 -0.774894 -0.120166
  outer loop
  vertex -0.40213 0.18292 0.897124
  vertex 0 0 0
  vertex -0.381235 0.164224 0.909775
  endloop
 endfacet

 facet normal -0.165053 -0.980375 0.107804
  outer loop
  vertex -0.381235 0.164224 0.909775
  vertex 0 0 0
  vertex -0.372053 0.163117 0.913767
  endloop
 endfacet

 facet normal -0.620688 -0.775688 -0.114253
  outer loop
  vertex -0.372053 0.163117 0.913767
  vertex 0 0 0
  vertex -0.360553 0.152981 0.920108
  endloop
 endfacet

 facet normal -0.785623 -0.581556 -0.211162
  outer loop
  vertex -0.360553 0.152981 0.920108
  vertex 0 0 0
  vertex -0.353093 0.141173 0.924876
  endloop
 endfacet

 facet normal -0.40523 -0.914088 -0.0151801
  outer loop
  vertex -0.353093 0.141173 0.924876
  vertex 0 0 0
  vertex -0.340775 0.135622 0.930311
  endloop
 endfacet

 facet normal -0.936483 0.0382786 -0.348617
  outer loop
  vertex -0.340775 0.135622 0.930311
  vertex 0 0 0
  vertex -0.345715 0.0664472 0.935984
  endloop
 endfacet

 facet normal -0.773131 0.54509 -0.32426
  outer loop
  vertex -0.345715 0.0664472 0.935984
  vertex 0 0 0
  vertex -0.367836 0.031136 0.929369
  endloop
 endfacet

 facet normal -0.874368 -0.351761 -0.334282
  outer loop
  vertex -0.367836 0.031136 0.929369
  vertex 0 0 0
  vertex -0.347306 -0.0274798 0.937349
  endloop
 endfacet

 facet normal -0.859531 -0.390335 -0.329916
  outer loop
  vertex -0.347306 -0.0274798 0.937349
  vertex 0 0 0
  vertex -0.296129 -0.14576 0.943961
  endloop
 endfacet

 facet normal -0.936186 0.240242 -0.256593
  outer loop
  vertex -0.296129 -0.14576 0.943961
  vertex 0 0 0
  vertex -0.301096 -0.171419 0.93806
  endloop
 endfacet

 facet normal -0.882002 -0.323897 -0.342291
  outer loop
  vertex -0.301096 -0.171419 0.93806
  vertex 0 0 0
  vertex -0.2789 -0.226703 0.933178
  endloop
 endfacet

 facet normal -0.681215 -0.638218 -0.358642
  outer loop
  vertex -0.2789 -0.226703 0.933178
  vertex 0 0 0
  vertex -0.272926 -0.233175 0.933349
  endloop
 endfacet

 facet normal -0.858494 -0.37881 -0.345674
  outer loop
  vertex -0.272926 -0.233175 0.933349
  vertex 0 0 0
  vertex -0.263583 -0.252268 0.931067
  endloop
 endfacet

 facet normal -0.548433 -0.754838 -0.35978
  outer loop
  vertex -0.263583 -0.252268 0.931067
  vertex 0 0 0
  vertex -0.187242 -0.308475 0.932622
  endloop
 endfacet

 facet normal -0.857308 -0.412167 -0.30845
  outer loop
  vertex -0.187242 -0.308475 0.932622
  vertex 0 0 0
  vertex -0.138525 -0.392368 0.909318
  endloop
 endfacet

 facet normal -0.3836 -0.825239 -0.414525
  outer loop
  vertex -0.138525 -0.392368 0.909318
  vertex 0 0 0
  vertex -0.0994613 -0.409335 0.906947
  endloop
 endfacet

 facet normal -0.484372 -0.776268 -0.403475
  outer loop
  vertex -0.0994613 -0.409335 0.906947
  vertex 0 0 0
  vertex -0.0619118 -0.429615 0.900887
  endloop
 endfacet

 facet normal -0.779452 -0.542957 -0.312492
  outer loop
  vertex -0.0619118 -0.429615 0.900887
  vertex 0 0 0
  vertex -0.0541993 -0.438504 0.897094
  endloop
 endfacet

 facet normal -0.996667 0.0786136 -0.0217885
  outer loop
  vertex -0.0541993 -0.438504 0.897094
  vertex 0 0 0
  vertex -0.0558984 -0.463595 0.884282
  endloop
 endfacet

 facet normal -0.947858 -0.253676 -0.19291
  outer loop
  vertex -0.0558984 -0.463595 0.884282
  vertex 0 0 0
  vertex -0.0500334 -0.479357 0.876193
  endloop
 endfacet

 facet normal -0.854424 -0.433727 -0.286078
  outer loop
  vertex -0.0500334 -0.479357 0.876193
  vertex 0 0 0
  vertex -0.0268394 -0.51302 0.857957
  endloop
 endfacet

 facet normal -0.99329 -0.0828991 -0.0806431
  outer loop
  vertex -0.0268394 -0.51302 0.857957
  vertex 0 0 0
  vertex -0.0254694 -0.523372 0.851724
  endloop
 endfacet

 facet normal -0.824398 -0.470913 -0.314022
  outer loop
  vertex -0.0254694 -0.523372 0.851724
  vertex 0 0 0
  vertex -0.00876572 -0.544109 0.838969
  endloop
 endfacet

 facet normal -0.977208 -0.173301 -0.122603
  outer loop
  vertex -0.00876572 -0.544109 0.838969
  vertex 0 0 0
  vertex -0.00417493 -0.561742 0.827302
  endloop
 endfacet

 facet normal -0.752694 -0.542905 -0.372433
  outer loop
  vertex -0.00417493 -0.561742 0.827302
  vertex 0 0 0
  vertex 0.0112719 -0.576233 0.817208
  endloop
 endfacet

 facet normal -0.149776 -0.809013 -0.568388
  outer loop
  vertex 0.0112719 -0.576233 0.817208
  vertex 0 0 0
  vertex 0.0345018 -0.578799 0.81474
  endloop
 endfacet

 facet normal -0.527907 -0.702768 -0.476898
  outer loop
  vertex 0.0345018 -0.578799 0.81474
  vertex 0 0 0
  vertex 0.0534896 -0.587914 0.807153
  endloop
 endfacet

 facet normal -0.905903 -0.368622 -0.208463
  outer loop
  vertex 0.0534896 -0.587914 0.807153
  vertex 0 0 0
  vertex 0.0588599 -0.597079 0.80002
  endloop
 endfacet

 facet normal -0.780397 -0.527272 -0.336102
  outer loop
  vertex 0.0588599 -0.597079 0.80002
  vertex 0 0 0
  vertex 0.0662285 -0.604197 0.794078
  endloop
 endfacet

 facet normal -0.988795 -0.146445 -0.0289581
  outer loop
  vertex 0.0662285 -0.604197 0.794078
  vertex 0 0 0
  vertex 0.0668896 -0.608065 0.791065
  endloop
 endfacet

 facet normal -0.818504 -0.486846 -0.305012
  outer loop
  vertex 0.0668896 -0.608065 0.791065
  vertex 0 0 0
  vertex 0.0709655 -0.61253 0.787255
  endloop
 endfacet

 facet normal -0.98019 -0.189129 -0.0587965
  outer loop
  vertex 0.0709655 -0.61253 0.787255
  vertex 0 0 0
  vertex 0.0728644 -0.620395 0.780897
  endloop
 endfacet

 facet normal -0.996958 -0.0670305 0.0397714
  outer loop
  vertex 0.0728644 -0.620395 0.780897
  vertex 0 0 0
  vertex 0.0730567 -0.625861 0.776505
  endloop
 endfacet

 facet normal -0.93583 -0.312193 -0.16358
  outer loop
  vertex 0.0730567 -0.625861 0.776505
  vertex 0 0 0
  vertex 0.0742667 -0.628367 0.774364
  endloop
 endfacet

 facet normal -0.993249 0.0227807 0.113745
  outer loop
  vertex 0.0742667 -0.628367 0.774364
  vertex 0 0 0
  vertex 0.0738845 -0.63169 0.771692
  endloop
 endfacet

 facet normal -0.965862 -0.237988 -0.102336
  outer loop
  vertex 0.0738845 -0.63169 0.771692
  vertex 0 0 0
  vertex 0.0746047 -0.633828 0.769868
  endloop
 endfacet

 facet normal -0.997059 -0.0338154 0.0687808
  outer loop
  vertex 0.0746047 -0.633828 0.769868
  vertex 0 0 0
  vertex 0.0745821 -0.634821 0.769051
  endloop
 endfacet

 facet normal -0.713764 -0.572549 -0.403396
  outer loop
  vertex 0.0745821 -0.634821 0.769051
  vertex 0 0 0
  vertex 0.08813 -0.644804 0.75925
  endloop
 endfacet

 facet normal -0.988382 -0.151363 -0.0138209
  outer loop
  vertex 0.08813 -0.644804 0.75925
  vertex 0 0 0
  vertex 0.0933363 -0.676201 0.73078
  endloop
 endfacet

 facet normal -0.8543 -0.431347 -0.290019
  outer loop
  vertex 0.0933363 -0.676201 0.73078
  vertex 0 0 0
  vertex 0.113608 -0.699429 0.705615
  endloop
 endfacet

 facet normal -0.306463 -0.700251 -0.64477
  outer loop
  vertex 0.113608 -0.699429 0.705615
  vertex 0 0 0
  vertex 0.128931 -0.701658 0.700752
  endloop
 endfacet

 facet normal -0.804166 -0.487466 -0.340138
  outer loop
  vertex 0.128931 -0.701658 0.700752
  vertex 0 0 0
  vertex 0.132953 -0.705246 0.696385
  endloop
 endfacet

 facet normal -0.571787 -0.628487 -0.527318
  outer loop
  vertex 0.132953 -0.705246 0.696385
  vertex 0 0 0
  vertex 0.135234 -0.706167 0.69501
  endloop
 endfacet

 facet normal -0.329037 -0.693653 -0.640765
  outer loop
  vertex 0.135234 -0.706167 0.69501
  vertex 0 0 0
  vertex 0.145577 -0.707697 0.691355
  endloop
 endfacet

 facet normal -0.624264 -0.607832 -0.49075
  outer loop
  vertex 0.145577 -0.707697 0.691355
  vertex 0 0 0
  vertex 0.153922 -0.711575 0.685543
  endloop
 endfacet

 facet normal -0.389106 -0.681401 -0.619911
  outer loop
  vertex 0.153922 -0.711575 0.685543
  vertex 0 0 0
  vertex 0.188932 -0.717669 0.670266
  endloop
 endfacet

 facet normal -0.842276 -0.469344 -0.26512
  outer loop
  vertex 0.188932 -0.717669 0.670266
  vertex 0 0 0
  vertex 0.225591 -0.7536 0.617411
  endloop
 endfacet

 facet normal -0.767102 -0.528073 -0.364271
  outer loop
  vertex 0.225591 -0.7536 0.617411
  vertex 0 0 0
  vertex 0.271534 -0.781714 0.56142
  endloop
 endfacet

 facet normal -0.395232 -0.622449 -0.675536
  outer loop
  vertex 0.271534 -0.781714 0.56142
  vertex 0 0 0
  vertex 0.405667 -0.778086 0.4796
  endloop
 endfacet

 facet normal -0.502425 -0.628157 -0.594128
  outer loop
  vertex 0.405667 -0.778086 0.4796
  vertex 0 0 0
  vertex 0.438227 -0.77736 0.451297
  endloop
 endfacet

 facet normal -0.726212 -0.602061 -0.331872
  outer loop
  vertex 0.438227 -0.77736 0.451297
  vertex 0 0 0
  vertex 0.45084 -0.781519 0.431244
  endloop
 endfacet

 facet normal -0.874102 -0.484411 0.0359507
  outer loop
  vertex 0.45084 -0.781519 0.431244
  vertex 0 0 0
  vertex 0.456884 -0.794783 0.399471
  endloop
 endfacet

 facet normal -0.763685 -0.580743 -0.281997
  outer loop
  vertex 0.456884 -0.794783 0.399471
  vertex 0 0 0
  vertex 0.474351 -0.80106 0.365095
  endloop
 endfacet

 facet normal -0.862319 -0.506276 0.00954322
  outer loop
  vertex 0.474351 -0.80106 0.365095
  vertex 0 0 0
  vertex 0.478015 -0.807677 0.345194
  endloop
 endfacet

 facet normal -0.81878 -0.267475 0.507993
  outer loop
  vertex 0.478015 -0.807677 0.345194
  vertex 0 0 0
  vertex 0.469559 -0.821108 0.324492
  endloop
 endfacet

 facet normal -0.875019 -0.481797 0.0470462
  outer loop
  vertex 0.469559 -0.821108 0.324492
  vertex 0 0 0
  vertex 0.477725 -0.843723 0.244766
  endloop
 endfacet

 facet normal -0.859672 -0.506357 -0.0675695
  outer loop
  vertex 0.477725 -0.843723 0.244766
  vertex 0 0 0
  vertex 0.486018 -0.851439 0.197075
  endloop
 endfacet

 facet normal -0.80163 -0.524137 -0.287524
  outer loop
  vertex 0.486018 -0.851439 0.197075
  vertex 0 0 0
  vertex 0.494079 -0.851632 0.174953
  endloop
 endfacet

 facet normal -0.679995 -0.503918 -0.532611
  outer loop
  vertex 0.494079 -0.851632 0.174953
  vertex 0 0 0
  vertex 0.494497 -0.851521 0.174313
  endloop
 endfacet

 facet normal 0.697898 0.269445 -0.663579
  outer loop
  vertex 0.494497 -0.851521 0.174313
  vertex 0 0 0
  vertex 0.500501 -0.846221 0.182779
  endloop
 endfacet

 facet normal 0.544871 0.143835 -0.826091
  outer loop
  vertex 0.500501 -0.846221 0.182779
  vertex 0 0 0
  vertex 0.540258 -0.813656 0.214672
  endloop
 endfacet

 facet normal 0.442118 0.0573961 -0.895119
  outer loop
  vertex 0.540258 -0.813656 0.214672
  vertex 0 0 0
  vertex 0.599487 -0.761225 0.247288
  endloop
 endfacet

 facet normal 0.105409 -0.231183 -0.967183
  outer loop
  vertex 0.599487 -0.761225 0.247288
  vertex 0 0 0
  vertex 0.633195 -0.734347 0.244538
  endloop
 endfacet

 facet normal 0.735807 0.473109 -0.484516
  outer loop
  vertex 0.633195 -0.734347 0.244538
  vertex 0 0 0
  vertex 0.641455 -0.716287 0.274717
  endloop
 endfacet

 facet normal 0.728859 0.457279 -0.509569
  outer loop
  vertex 0.641455 -0.716287 0.274717
  vertex 0 0 0
  vertex 0.655383 -0.681306 0.32603
  endloop
 endfacet

 facet normal 0.726972 0.451904 -0.517006
  outer loop
  vertex 0.655383 -0.681306 0.32603
  vertex 0 0 0
  vertex 0.660111 -0.667292 0.344928
  endloop
 endfacet

 facet normal 0.587846 0.173033 -0.790251
  outer loop
  vertex 0.660111 -0.667292 0.344928
  vertex 0 0 0
  vertex 0.684356 -0.627279 0.371724
  endloop
 endfacet

 facet normal 0.528215 0.0750667 -0.845786
  outer loop
  vertex 0.684356 -0.627279 0.371724
  vertex 0 0 0
  vertex 0.747124 -0.514405 0.420943
  endloop
 endfacet

 facet normal 0.638822 0.380771 -0.668521
  outer loop
  vertex 0.747124 -0.514405 0.420943
  vertex 0 0 0
  vertex 0.759486 -0.450845 0.468957
  endloop
 endfacet

 facet normal 0.647693 0.591258 -0.480529
  outer loop
  vertex 0.759486 -0.450845 0.468957
  vertex 0 0 0
  vertex 0.755033 -0.4136 0.508783
  endloop
 endfacet

 facet normal 0.625193 0.687999 -0.368498
  outer loop
  vertex 0.755033 -0.4136 0.508783
  vertex 0 0 0
  vertex 0.750229 -0.39961 0.526752
  endloop
 endfacet

 facet normal 0.659185 0.51387 -0.54901
  outer loop
  vertex 0.750229 -0.39961 0.526752
  vertex 0 0 0
  vertex 0.745485 -0.350813 0.566729
  endloop
 endfacet

 facet normal 0.596905 0.729729 -0.333467
  outer loop
  vertex 0.745485 -0.350813 0.566729
  vertex 0 0 0
  vertex 0.716576 -0.297947 0.630671
  endloop
 endfacet

 facet normal 0.605578 0.714413 -0.350556
  outer loop
  vertex 0.716576 -0.297947 0.630671
  vertex 0 0 0
  vertex 0.711268 -0.288353 0.641054
  endloop
 endfacet

 facet normal 0.645855 0.628037 -0.434098
  outer loop
  vertex 0.711268 -0.288353 0.641054
  vertex 0 0 0
  vertex 0.700292 -0.26087 0.664484
  endloop
 endfacet

 facet normal 0.570697 0.763767 -0.301604
  outer loop
  vertex 0.700292 -0.26087 0.664484
  vertex 0 0 0
  vertex 0.698492 -0.258398 0.667338
  endloop
 endfacet

 facet normal 0.687035 0.503064 -0.524318
  outer loop
  vertex 0.698492 -0.258398 0.667338
  vertex 0 0 0
  vertex 0.698095 -0.256768 0.668382
  endloop
 endfacet

 facet normal 0.33693 0.941479 0.00977309
  outer loop
  vertex 0.698095 -0.256768 0.668382
  vertex 0 0 0
  vertex 0.694805 -0.25563 0.672235
  endloop
 endfacet

 facet normal 0.480088 0.860813 -0.168866
  outer loop
  vertex 0.694805 -0.25563 0.672235
  vertex 0 0 0
  vertex 0.69059 -0.252176 0.677859
  endloop
 endfacet

 facet normal -0.363912 0.688801 0.626993
  outer loop
  vertex 0.69059 -0.252176 0.677859
  vertex 0 0 0
  vertex 0.689402 -0.253466 0.678587
  endloop
 endfacet

 facet normal 0.0704961 0.955813 0.285396
  outer loop
  vertex 0.689402 -0.253466 0.678587
  vertex 0 0 0
  vertex 0.687484 -0.253861 0.680383
  endloop
 endfacet

 facet normal 0.264715 0.960049 0.0907312
  outer loop
  vertex 0.687484 -0.253861 0.680383
  vertex 0 0 0
  vertex 0.685291 -0.253478 0.682733
  endloop
 endfacet

 facet normal 0.233261 0.964482 0.123949
  outer loop
  vertex 0.685291 -0.253478 0.682733
  vertex 0 0 0
  vertex 0.680243 -0.25293 0.687965
  endloop
 endfacet

 facet normal -0.187205 0.8475 0.496686
  outer loop
  vertex 0.680243 -0.25293 0.687965
  vertex 0 0 0
  vertex 0.670231 -0.259454 0.695323
  endloop
 endfacet

 facet normal 0.0352782 0.946979 0.319352
  outer loop
  vertex 0.670231 -0.259454 0.695323
  vertex 0 0 0
  vertex 0.662039 -0.261522 0.702361
  endloop
 endfacet

 facet normal 0.471197 0.874003 -0.118714
  outer loop
  vertex 0.662039 -0.261522 0.702361
  vertex 0 0 0
  vertex 0.659474 -0.259721 0.705436
  endloop
 endfacet

 facet normal 0.37149 0.928421 -0.00546829
  outer loop
  vertex 0.659474 -0.259721 0.705436
  vertex 0 0 0
  vertex 0.655706 -0.25819 0.709498
  endloop
 endfacet

 facet normal 0.241023 0.962125 0.127372
  outer loop
  vertex 0.655706 -0.25819 0.709498
  vertex 0 0 0
  vertex 0.65194 -0.257727 0.713128
  endloop
 endfacet

 facet normal -0.154181 0.875764 0.457455
  outer loop
  vertex 0.65194 -0.257727 0.713128
  vertex 0 0 0
  vertex 0.650006 -0.258788 0.714508
  endloop
 endfacet

 facet normal -0.390157 0.693205 0.606007
  outer loop
  vertex 0.650006 -0.258788 0.714508
  vertex 0 0 0
  vertex 0.647244 -0.261628 0.715979
  endloop
 endfacet

 facet normal -0.10499 0.899709 0.423676
  outer loop
  vertex 0.647244 -0.261628 0.715979
  vertex 0 0 0
  vertex 0.639039 -0.265392 0.721939
  endloop
 endfacet

 facet normal -0.221843 0.835111 0.503364
  outer loop
  vertex 0.639039 -0.265392 0.721939
  vertex 0 0 0
  vertex 0.625848 -0.273914 0.730264
  endloop
 endfacet

 facet normal 0.190337 0.961632 0.197576
  outer loop
  vertex 0.625848 -0.273914 0.730264
  vertex 0 0 0
  vertex 0.59987 -0.273237 0.751995
  endloop
 endfacet

 facet normal 0.262848 0.955014 0.137329
  outer loop
  vertex 0.59987 -0.273237 0.751995
  vertex 0 0 0
  vertex 0.581949 -0.270453 0.766935
  endloop
 endfacet

 facet normal 0.594264 0.785216 -0.174027
  outer loop
  vertex 0.581949 -0.270453 0.766935
  vertex 0 0 0
  vertex 0.570206 -0.258739 0.779692
  endloop
 endfacet

 facet normal -0.247802 0.850724 0.463534
  outer loop
  vertex 0.570206 -0.258739 0.779692
  vertex 0 0 0
  vertex 0.562203 -0.263383 0.783937
  endloop
 endfacet

 facet normal -0.0726316 0.928541 0.364054
  outer loop
  vertex 0.562203 -0.263383 0.783937
  vertex 0 0 0
  vertex 0.541115 -0.269938 0.796448
  endloop
 endfacet

 facet normal -0.0298831 0.940312 0.339
  outer loop
  vertex 0.541115 -0.269938 0.796448
  vertex 0 0 0
  vertex 0.530756 -0.272461 0.802535
  endloop
 endfacet

 facet normal -0.281171 0.836682 0.470007
  outer loop
  vertex 0.530756 -0.272461 0.802535
  vertex 0 0 0
  vertex 0.525896 -0.275339 0.80475
  endloop
 endfacet

 facet normal 0.526562 0.848432 -0.0538186
  outer loop
  vertex 0.525896 -0.275339 0.80475
  vertex 0 0 0
  vertex 0.517745 -0.269829 0.81187
  endloop
 endfacet

 facet normal 0.188225 0.961636 0.199569
  outer loop
  vertex 0.517745 -0.269829 0.81187
  vertex 0 0 0
  vertex 0.506052 -0.269112 0.819445
  endloop
 endfacet

 facet normal 0.0247686 0.95422 0.298077
  outer loop
  vertex 0.506052 -0.269112 0.819445
  vertex 0 0 0
  vertex 0.49651 -0.270536 0.824795
  endloop
 endfacet

 facet normal -0.142278 0.911977 0.38478
  outer loop
  vertex 0.49651 -0.270536 0.824795
  vertex 0 0 0
  vertex 0.480461 -0.276238 0.832376
  endloop
 endfacet

 facet normal -0.151165 0.908811 0.388859
  outer loop
  vertex 0.480461 -0.276238 0.832376
  vertex 0 0 0
  vertex 0.462871 -0.282512 0.840201
  endloop
 endfacet

 facet normal -0.619334 0.575049 0.534551
  outer loop
  vertex 0.462871 -0.282512 0.840201
  vertex 0 0 0
  vertex 0.457841 -0.288575 0.840896
  endloop
 endfacet

 facet normal 0.101359 0.95663 0.273105
  outer loop
  vertex 0.457841 -0.288575 0.840896
  vertex 0 0 0
  vertex 0.450345 -0.288901 0.844823
  endloop
 endfacet

 facet normal -0.0993362 0.924118 0.36897
  outer loop
  vertex 0.450345 -0.288901 0.844823
  vertex 0 0 0
  vertex 0.447005 -0.28984 0.846274
  endloop
 endfacet

 facet normal 0.516775 0.855884 0.0201684
  outer loop
  vertex 0.447005 -0.28984 0.846274
  vertex 0 0 0
  vertex 0.4228 -0.275626 0.863291
  endloop
 endfacet

 facet normal 0.64613 0.75964 -0.073912
  outer loop
  vertex 0.4228 -0.275626 0.863291
  vertex 0 0 0
  vertex 0.401196 -0.255664 0.879589
  endloop
 endfacet

 facet normal 0.799437 0.566488 -0.19998
  outer loop
  vertex 0.401196 -0.255664 0.879589
  vertex 0 0 0
  vertex 0.392028 -0.239693 0.888179
  endloop
 endfacet

 facet normal 0.915408 0.197496 -0.350748
  outer loop
  vertex 0.392028 -0.239693 0.888179
  vertex 0 0 0
  vertex 0.391149 -0.230725 0.890936
  endloop
 endfacet

 facet normal 0.354936 0.930994 0.0852708
  outer loop
  vertex 0.391149 -0.230725 0.890936
  vertex 0 0 0
  vertex 0.352905 -0.217885 0.909936
  endloop
 endfacet

 facet normal 0.623913 0.779534 -0.0553153
  outer loop
  vertex 0.352905 -0.217885 0.909936
  vertex 0 0 0
  vertex 0.334137 -0.202107 0.9206
  endloop
 endfacet

 facet normal 0.435524 0.899316 0.0393586
  outer loop
  vertex 0.334137 -0.202107 0.9206
  vertex 0 0 0
  vertex 0.316695 -0.194005 0.928475
  endloop
 endfacet

 facet normal -0.079229 0.970029 0.229712
  outer loop
  vertex 0.316695 -0.194005 0.928475
  vertex 0 0 0
  vertex 0.287274 -0.198442 0.937067
  endloop
 endfacet

 facet normal 0.285479 0.951581 0.113997
  outer loop
  vertex 0.287274 -0.198442 0.937067
  vertex 0 0 0
  vertex 0.268675 -0.193641 0.943566
  endloop
 endfacet

 facet normal 0.432365 0.899599 0.0615044
  outer loop
  vertex 0.268675 -0.193641 0.943566
  vertex 0 0 0
  vertex 0.247131 -0.183821 0.951386
  endloop
 endfacet

 facet normal 0.307277 0.946033 0.102969
  outer loop
  vertex 0.247131 -0.183821 0.951386
  vertex 0 0 0
  vertex 0.222713 -0.17669 0.958738
  endloop
 endfacet

 facet normal 0.130444 0.979996 0.150306
  outer loop
  vertex 0.222713 -0.17669 0.958738
  vertex 0 0 0
  vertex 0.213334 -0.175794 0.961033
  endloop
 endfacet

 facet normal 0.77076 0.634749 -0.0549865
  outer loop
  vertex 0.213334 -0.175794 0.961033
  vertex 0 0 0
  vertex 0.186358 -0.142075 0.972155
  endloop
 endfacet

 facet normal 0.688391 0.724873 -0.0260257
  outer loop
  vertex 0.186358 -0.142075 0.972155
  vertex 0 0 0
  vertex 0.168676 -0.125084 0.977703
  endloop
 endfacet

 facet normal 0.388402 0.920094 0.0507052
  outer loop
  vertex 0.168676 -0.125084 0.977703
  vertex 0 0 0
  vertex 0.152724 -0.118539 0.981134
  endloop
 endfacet

 facet normal 0.30279 0.950648 0.067723
  outer loop
  vertex 0.152724 -0.118539 0.981134
  vertex 0 0 0
  vertex 0.146397 -0.116609 0.982329
  endloop
 endfacet

 facet normal 0.911179 0.402499 -0.088014
  outer loop
  vertex 0.146397 -0.116609 0.982329
  vertex 0 0 0
  vertex 0.140914 -0.103705 0.984575
  endloop
 endfacet

 facet normal 0.990007 0.00930163 -0.140711
  outer loop
  vertex 0.140914 -0.103705 0.984575
  vertex 0 0 0
  vertex 0.141015 -0.0723719 0.987359
  endloop
 endfacet

 facet normal 0.864773 0.494524 -0.0872593
  outer loop
  vertex 0.141015 -0.0723719 0.987359
  vertex 0 0 0
  vertex 0.134775 -0.061173 0.988986
  endloop
 endfacet

 facet normal 0.512307 0.85864 -0.0167045
  outer loop
  vertex 0.134775 -0.061173 0.988986
  vertex 0 0 0
  vertex 0.127303 -0.0566905 0.990242
  endloop
 endfacet

 facet normal 0.936546 0.335622 -0.101186
  outer loop
  vertex 0.127303 -0.0566905 0.990242
  vertex 0 0 0
  vertex 0.119797 -0.0351627 0.992175
  endloop
 endfacet

 facet normal 0.674646 0.736062 -0.055372
  outer loop
  vertex 0.119797 -0.0351627 0.992175
  vertex 0 0 0
  vertex 0.101196 -0.0179231 0.994705
  endloop
 endfacet

 facet normal 0.573218 0.818244 -0.0435726
  outer loop
  vertex 0.101196 -0.0179231 0.994705
  vertex 0 0 0
  vertex 0.0763049 -0.000359131 0.997084
  endloop
 endfacet

 facet normal 0.850511 0.521937 -0.0649
  outer loop
  vertex 0.0763049 -0.000359131 0.997084
  vertex 0 0 0
  vertex 0.0651982 0.0178179 0.997713
  endloop
 endfacet

 facet normal 0.833869 0.548206 -0.0642816
  outer loop
  vertex 0.0651982 0.0178179 0.997713
  vertex 0 0 0
  vertex 0.036789 0.061001 0.997459
  endloop
 endfacet

 facet normal 0.508968 0.857833 -0.0712341
  outer loop
  vertex 0.036789 0.061001 0.997459
  vertex 0 0 0
  vertex -0.00010146 0.0828145 0.996565
  endloop
 endfacet

 facet normal 0.945356 0.324928 -0.0269052
  outer loop
  vertex -0.00010146 0.0828145 0.996565
  vertex 0 0 0
  vertex -0.0108112 0.113716 0.993454
  endloop
 endfacet

 facet normal 0.591939 0.801457 -0.0852974
  outer loop
  vertex -0.0108112 0.113716 0.993454
  vertex 0 0 0
  vertex -0.0318635 0.129018 0.99113
  endloop
 endfacet

 facet normal 0.525971 0.845388 -0.0931368
  outer loop
  vertex -0.0318635 0.129018 0.99113
  vertex 0 0 0
  vertex -0.0528333 0.141773 0.988488
  endloop
 endfacet

 facet normal 0.886817 0.461737 -0.0188252
  outer loop
  vertex -0.0528333 0.141773 0.988488
  vertex 0 0 0
  vertex -0.0595134 0.15451 0.986197
  endloop
 endfacet

 facet normal 0.503719 0.857589 -0.103963
  outer loop
  vertex -0.0595134 0.15451 0.986197
  vertex 0 0 0
  vertex -0.0781782 0.165106 0.983172
  endloop
 endfacet

 facet normal 0.602477 0.793559 -0.0853571
  outer loop
  vertex -0.0781782 0.165106 0.983172
  vertex 0 0 0
  vertex -0.109479 0.188102 0.976029
  endloop
 endfacet

 facet normal 0.937987 0.344489 0.0388216
  outer loop
  vertex -0.109479 0.188102 0.976029
  vertex 0 0 0
  vertex -0.110715 0.191557 0.975217
  endloop
 endfacet

 facet normal 0.851094 0.524974 -0.00649492
  outer loop
  vertex -0.110715 0.191557 0.975217
  vertex 0 0 0
  vertex -0.11161 0.193005 0.974829
  endloop
 endfacet

 facet normal 0.84604 0.533049 -0.0086724
  outer loop
  vertex -0.11161 0.193005 0.974829
  vertex 0 0 0
  vertex -0.11304 0.195264 0.974215
  endloop
 endfacet

 facet normal 0.991812 0.0808061 0.098886
  outer loop
  vertex -0.11304 0.195264 0.974215
  vertex 0 0 0
  vertex -0.113443 0.201936 0.972806
  endloop
 endfacet

 facet normal 0.983623 0.160856 0.0813141
  outer loop
  vertex -0.113443 0.201936 0.972806
  vertex 0 0 0
  vertex -0.114207 0.207215 0.971606
  endloop
 endfacet

 facet normal 0.988341 -0.075427 0.132261
  outer loop
  vertex -0.114207 0.207215 0.971606
  vertex 0 0 0
  vertex -0.113821 0.210949 0.970848
  endloop
 endfacet

 facet normal 0.981935 -0.124789 0.142235
  outer loop
  vertex -0.113821 0.210949 0.970848
  vertex 0 0 0
  vertex -0.113458 0.213272 0.970382
  endloop
 endfacet

 facet normal 0.937597 -0.300133 0.175589
  outer loop
  vertex -0.113458 0.213272 0.970382
  vertex 0 0 0
  vertex -0.112218 0.216777 0.96975
  endloop
 endfacet

 facet normal 0.992432 0.0734172 0.0984313
  outer loop
  vertex -0.112218 0.216777 0.96975
  vertex 0 0 0
  vertex -0.112921 0.230703 0.96645
  endloop
 endfacet

 facet normal 0.915238 -0.354467 0.191553
  outer loop
  vertex -0.112921 0.230703 0.96645
  vertex 0 0 0
  vertex -0.108322 0.241443 0.96435
  endloop
 endfacet

 facet normal 0.830594 0.555004 -0.0456581
  outer loop
  vertex -0.108322 0.241443 0.96435
  vertex 0 0 0
  vertex -0.117378 0.254629 0.959889
  endloop
 endfacet

 facet normal 0.875281 0.483153 -0.0211337
  outer loop
  vertex -0.117378 0.254629 0.959889
  vertex 0 0 0
  vertex -0.13206 0.280822 0.950631
  endloop
 endfacet

 facet normal 0.590692 0.792445 -0.152035
  outer loop
  vertex -0.13206 0.280822 0.950631
  vertex 0 0 0
  vertex -0.137372 0.284431 0.948803
  endloop
 endfacet

 facet normal 0.437161 0.876956 -0.199598
  outer loop
  vertex -0.137372 0.284431 0.948803
  vertex 0 0 0
  vertex -0.147811 0.288965 0.94586
  endloop
 endfacet

 facet normal 0.480301 0.85699 -0.186757
  outer loop
  vertex -0.147811 0.288965 0.94586
  vertex 0 0 0
  vertex -0.161124 0.295509 0.941655
  endloop
 endfacet

 facet normal 0.874248 0.485472 -0.00276075
  outer loop
  vertex -0.161124 0.295509 0.941655
  vertex 0 0 0
  vertex -0.164683 0.301905 0.939006
  endloop
 endfacet

 facet normal 0.86728 0.497757 -0.0079323
  outer loop
  vertex -0.164683 0.301905 0.939006
  vertex 0 0 0
  vertex -0.186063 0.338889 0.922244
  endloop
 endfacet

 facet normal 0.900156 0.435025 0.021752
  outer loop
  vertex -0.186063 0.338889 0.922244
  vertex 0 0 0
  vertex -0.203581 0.376051 0.903958
  endloop
 endfacet

 facet normal 0.978394 0.0441473 0.201979
  outer loop
  vertex -0.203581 0.376051 0.903958
  vertex 0 0 0
  vertex -0.202801 0.394896 0.896063
  endloop
 endfacet

 facet normal 0.869576 0.493369 -0.0206217
  outer loop
  vertex -0.202801 0.394896 0.896063
  vertex 0 0 0
  vertex -0.219218 0.423123 0.879153
  endloop
 endfacet

 facet normal 0.885297 0.465015 -0.00305495
  outer loop
  vertex -0.219218 0.423123 0.879153
  vertex 0 0 0
  vertex -0.221727 0.42788 0.876217
  endloop
 endfacet

 facet normal 0.763112 0.635541 -0.117246
  outer loop
  vertex -0.221727 0.42788 0.876217
  vertex 0 0 0
  vertex -0.227297 0.433769 0.871883
  endloop
 endfacet

 facet normal 0.737118 0.661721 -0.137048
  outer loop
  vertex -0.227297 0.433769 0.871883
  vertex 0 0 0
  vertex -0.236153 0.442258 0.86524
  endloop
 endfacet

 facet normal 0.549281 0.795272 -0.256578
  outer loop
  vertex -0.236153 0.442258 0.86524
  vertex 0 0 0
  vertex -0.248137 0.448422 0.858688
  endloop
 endfacet

 facet normal 0.951675 0.278413 0.129615
  outer loop
  vertex -0.248137 0.448422 0.858688
  vertex 0 0 0
  vertex -0.258219 0.496953 0.828469
  endloop
 endfacet

 facet normal 0.904579 0.425468 0.0267262
  outer loop
  vertex -0.258219 0.496953 0.828469
  vertex 0 0 0
  vertex -0.266761 0.516024 0.813977
  endloop
 endfacet

 facet normal 0.720567 0.66766 -0.187118
  outer loop
  vertex -0.266761 0.516024 0.813977
  vertex 0 0 0
  vertex -0.293288 0.538009 0.790271
  endloop
 endfacet

 facet normal 0.844132 0.533788 -0.0501214
  outer loop
  vertex -0.293288 0.538009 0.790271
  vertex 0 0 0
  vertex -0.300114 0.547919 0.780843
  endloop
 endfacet

 facet normal 0.795066 0.595976 -0.112617
  outer loop
  vertex -0.300114 0.547919 0.780843
  vertex 0 0 0
  vertex -0.320546 0.570511 0.756153
  endloop
 endfacet

 facet normal 0.44429 0.795573 -0.411911
  outer loop
  vertex -0.320546 0.570511 0.756153
  vertex 0 0 0
  vertex -0.346424 0.57658 0.739964
  endloop
 endfacet

 facet normal 0.790146 0.604519 -0.101124
  outer loop
  vertex -0.346424 0.57658 0.739964
  vertex 0 0 0
  vertex -0.396928 0.630405 0.667111
  endloop
 endfacet

 facet normal 0.450009 0.76713 -0.457168
  outer loop
  vertex -0.396928 0.630405 0.667111
  vertex 0 0 0
  vertex -0.4623 0.638116 0.6157
  endloop
 endfacet

 facet normal 0.7374 0.662289 -0.132722
  outer loop
  vertex -0.4623 0.638116 0.6157
  vertex 0 0 0
  vertex -0.472833 0.646451 0.598774
  endloop
 endfacet

 facet normal 0.380272 0.762702 -0.523143
  outer loop
  vertex -0.472833 0.646451 0.598774
  vertex 0 0 0
  vertex -0.480637 0.646226 0.592773
  endloop
 endfacet

 facet normal 0.846091 0.519404 0.119794
  outer loop
  vertex -0.480637 0.646226 0.592773
  vertex 0 0 0
  vertex -0.487308 0.662641 0.568716
  endloop
 endfacet

 facet normal 0.669185 0.701791 -0.244297
  outer loop
  vertex -0.487308 0.662641 0.568716
  vertex 0 0 0
  vertex -0.521434 0.677698 0.51849
  endloop
 endfacet

 facet normal 0.784827 0.619383 -0.0202874
  outer loop
  vertex -0.521434 0.677698 0.51849
  vertex 0 0 0
  vertex -0.536969 0.696013 0.476688
  endloop
 endfacet

 facet normal 0.833627 0.524426 0.17333
  outer loop
  vertex -0.536969 0.696013 0.476688
  vertex 0 0 0
  vertex -0.540728 0.710915 0.449681
  endloop
 endfacet

 facet normal 0.701656 0.0863103 0.707269
  outer loop
  vertex -0.540728 0.710915 0.449681
  vertex 0 0 0
  vertex -0.530591 0.725809 0.437807
  endloop
 endfacet

 facet normal 0.845767 0.487542 0.216749
  outer loop
  vertex -0.530591 0.725809 0.437807
  vertex 0 0 0
  vertex -0.531172 0.731063 0.428255
  endloop
 endfacet

 facet normal 0.845566 0.48939 0.213344
  outer loop
  vertex -0.531172 0.731063 0.428255
  vertex 0 0 0
  vertex -0.533625 0.76262 0.365589
  endloop
 endfacet

 facet normal 0.688341 0.642797 -0.336152
  outer loop
  vertex -0.533625 0.76262 0.365589
  vertex 0 0 0
  vertex -0.554364 0.765031 0.327733
  endloop
 endfacet

 facet normal 0.683143 0.643191 -0.345864
  outer loop
  vertex -0.554364 0.765031 0.327733
  vertex 0 0 0
  vertex -0.570233 0.765682 0.297599
  endloop
 endfacet

 facet normal 0.501582 0.611425 -0.612026
  outer loop
  vertex -0.570233 0.765682 0.297599
  vertex 0 0 0
  vertex -0.60332 0.754249 0.259062
  endloop
 endfacet

 facet normal 0.660384 0.654612 -0.367934
  outer loop
  vertex -0.60332 0.754249 0.259062
  vertex 0 0 0
  vertex -0.6304 0.749518 0.202039
  endloop
 endfacet

 facet normal 0.769839 0.637065 0.0386786
  outer loop
  vertex -0.6304 0.749518 0.202039
  vertex 0 0 0
  vertex -0.636313 0.761402 0.123984
  endloop
 endfacet

 facet normal 0.7661 0.642563 -0.0142696
  outer loop
  vertex -0.636313 0.761402 0.123984
  vertex 0 0 0
  vertex -0.639326 0.764145 0.0857016
  endloop
 endfacet

 facet normal 0.768548 0.638561 0.0396767
  outer loop
  vertex -0.639326 0.764145 0.0857016
  vertex 0 0 0
  vertex -0.63908 0.76914 0.000539381
  endloop
 endfacet

 facet normal 0.456931 0.380229 -0.804139
  outer loop
  vertex -0.63908 0.76914 0.000539381
  vertex 0 0 0
  vertex -0.646369 0.762997 -0.00650657
  endloop
 endfacet

 facet normal 0.143208 0.112934 -0.983228
  outer loop
  vertex -0.646369 0.762997 -0.00650657
  vertex 0 0 0
  vertex -0.653343 0.757018 -0.00820915
  endloop
 endfacet

 facet normal 0.690267 0.59121 -0.417135
  outer loop
  vertex -0.653343 0.757018 -0.00820915
  vertex 0 0 0
  vertex -0.66257 0.74813 -0.0360755
  endloop
 endfacet

 facet normal 0.582469 0.484378 -0.652769
  outer loop
  vertex -0.66257 0.74813 -0.0360755
  vertex 0 0 0
  vertex -0.668253 0.742554 -0.0452842
  endloop
 endfacet

 facet normal 0.694709 0.601104 -0.395036
  outer loop
  vertex -0.668253 0.742554 -0.0452842
  vertex 0 0 0
  vertex -0.675676 0.733692 -0.0718232
  endloop
 endfacet

 facet normal 0.455259 0.338651 -0.823441
  outer loop
  vertex -0.675676 0.733692 -0.0718232
  vertex 0 0 0
  vertex -0.694329 0.713977 -0.0902435
  endloop
 endfacet

 facet normal 0.647114 0.564543 -0.512381
  outer loop
  vertex -0.694329 0.713977 -0.0902435
  vertex 0 0 0
  vertex -0.697123 0.710237 -0.0978943
  endloop
 endfacet

 facet normal 0.558081 0.451848 -0.695973
  outer loop
  vertex -0.697123 0.710237 -0.0978943
  vertex 0 0 0
  vertex -0.703193 0.702813 -0.107581
  endloop
 endfacet

 facet normal 0.673124 0.609343 -0.419053
  outer loop
  vertex -0.703193 0.702813 -0.107581
  vertex 0 0 0
  vertex -0.713007 0.685129 -0.14906
  endloop
 endfacet

 facet normal 0.504449 0.353595 -0.78772
  outer loop
  vertex -0.713007 0.685129 -0.14906
  vertex 0 0 0
  vertex -0.730155 0.661645 -0.170583
  endloop
 endfacet

 facet normal 0.130171 -0.110384 -0.985328
  outer loop
  vertex -0.730155 0.661645 -0.170583
  vertex 0 0 0
  vertex -0.741875 0.648459 -0.170654
  endloop
 endfacet

 facet normal 0.48665 0.345609 -0.802326
  outer loop
  vertex -0.741875 0.648459 -0.170654
  vertex 0 0 0
  vertex -0.761419 0.618043 -0.195611
  endloop
 endfacet

 facet normal 0.630588 0.636163 -0.444586
  outer loop
  vertex -0.761419 0.618043 -0.195611
  vertex 0 0 0
  vertex -0.771477 0.576338 -0.269552
  endloop
 endfacet

 facet normal 0.611926 0.788137 -0.066232
  outer loop
  vertex -0.771477 0.576338 -0.269552
  vertex 0 0 0
  vertex -0.756812 0.559158 -0.338494
  endloop
 endfacet

endsolid AssimpScene
