solid fragmentGeometry
facet normal 0.0490526 0.00865734 -0.179485
outer loop
vertex -2.74769 -2.34024 -1.72439
vertex -0.270206 -0.191132 -0.943641
vertex -0.244646 -0.241406 -0.93908
end loop
end factet
facet normal 0.0755593 -0.0593997 -0.0820799
outer loop
vertex -2.74769 -2.34024 -1.72439
vertex -0.244646 -0.241406 -0.93908
vertex -0.262075 -0.288813 -0.920817
end loop
end factet
facet normal 0.0427545 -0.027651 -0.0616584
outer loop
vertex -2.74769 -2.34024 -1.72439
vertex -0.262075 -0.288813 -0.920817
vertex -0.265387 -0.316353 -0.910764
end loop
end factet
facet normal 0.0455796 -0.0345058 -0.0532269
outer loop
vertex -2.74769 -2.34024 -1.72439
vertex -0.265387 -0.316353 -0.910764
vertex -0.27199 -0.343179 -0.899027
end loop
end factet
facet normal 0.135219 -0.11614 -0.12458
outer loop
vertex -2.74769 -2.34024 -1.72439
vertex -0.27199 -0.343179 -0.899027
vertex -0.297155 -0.4138 -0.860505
end loop
end factet
facet normal 0.105234 -0.0720088 -0.137934
outer loop
vertex -2.74769 -2.34024 -1.72439
vertex -0.297155 -0.4138 -0.860505
vertex -0.297132 -0.47007 -0.831112
end loop
end factet
facet normal 0.00699449 0.000655651 -0.0205612
outer loop
vertex -2.74769 -2.34024 -1.72439
vertex -0.297132 -0.47007 -0.831112
vertex -0.292763 -0.475125 -0.829787
end loop
end factet
facet normal 0.0108076 0.00477386 -0.0396109
outer loop
vertex -2.74769 -2.34024 -1.72439
vertex -0.292763 -0.475125 -0.829787
vertex -0.282966 -0.483817 -0.828161
end loop
end factet
facet normal 0.00871527 0.00590754 -0.0362048
outer loop
vertex -2.74769 -2.34024 -1.72439
vertex -0.282966 -0.483817 -0.828161
vertex -0.273302 -0.491227 -0.827044
end loop
end factet
facet normal 0.00796318 -0.00393844 -0.0138426
outer loop
vertex -2.74769 -2.34024 -1.72439
vertex -0.273302 -0.491227 -0.827044
vertex -0.271765 -0.495673 -0.824895
end loop
end factet
facet normal 0.00913787 -0.00406122 -0.0168238
outer loop
vertex -2.74769 -2.34024 -1.72439
vertex -0.271765 -0.495673 -0.824895
vertex -0.269603 -0.500858 -0.822469
end loop
end factet
facet normal 0.0232549 -0.0166833 -0.0298705
outer loop
vertex -2.74769 -2.34024 -1.72439
vertex -0.269603 -0.500858 -0.822469
vertex -0.268974 -0.512445 -0.815508
end loop
end factet
facet normal 0.0129696 -0.00710869 -0.0210757
outer loop
vertex -2.74769 -2.34024 -1.72439
vertex -0.268974 -0.512445 -0.815508
vertex -0.266805 -0.519348 -0.811845
end loop
end factet
facet normal 0.00693703 2.6226e-06 -0.0188646
outer loop
vertex -2.74769 -2.34024 -1.72439
vertex -0.266805 -0.519348 -0.811845
vertex -0.262611 -0.523874 -0.810303
end loop
end factet
facet normal 0.0073905 -0.00130486 -0.017499
outer loop
vertex -2.74769 -2.34024 -1.72439
vertex -0.262611 -0.523874 -0.810303
vertex -0.259134 -0.528374 -0.808499
end loop
end factet
facet normal 0.00563133 -0.00357223 -0.00823402
outer loop
vertex -2.74769 -2.34024 -1.72439
vertex -0.259134 -0.528374 -0.808499
vertex -0.258504 -0.531224 -0.806832
end loop
end factet
facet normal 0.00845909 -0.00327921 -0.0164828
outer loop
vertex -2.74769 -2.34024 -1.72439
vertex -0.258504 -0.531224 -0.806832
vertex -0.25588 -0.535938 -0.804547
end loop
end factet
facet normal 0.004089 -0.00338411 -0.00443888
outer loop
vertex -2.74769 -2.34024 -1.72439
vertex -0.25588 -0.535938 -0.804547
vertex -0.256023 -0.537824 -0.803242
end loop
end factet
facet normal 0.00241518 0.00939322 -0.0249128
outer loop
vertex -2.74769 -2.34024 -1.72439
vertex -0.256023 -0.537824 -0.803242
vertex -0.247051 -0.541332 -0.803695
end loop
end factet
facet normal 0.0241007 -0.00497055 -0.0557466
outer loop
vertex -2.74769 -2.34024 -1.72439
vertex -0.247051 -0.541332 -0.803695
vertex -0.235625 -0.555405 -0.7975
end loop
end factet
facet normal 0.00908458 -0.00567532 -0.0136929
outer loop
vertex -2.74769 -2.34024 -1.72439
vertex -0.235625 -0.555405 -0.7975
vertex -0.234283 -0.559902 -0.794746
end loop
end factet
facet normal 0.0146809 -0.00984907 -0.0208302
outer loop
vertex -2.74769 -2.34024 -1.72439
vertex -0.234283 -0.559902 -0.794746
vertex -0.232593 -0.566993 -0.790202
end loop
end factet
facet normal 0.0084337 -0.00182748 -0.019237
outer loop
vertex -2.74769 -2.34024 -1.72439
vertex -0.232593 -0.566993 -0.790202
vertex -0.228505 -0.57176 -0.787957
end loop
end factet
facet normal 0.0205137 -0.00352931 -0.0485201
outer loop
vertex -2.74769 -2.34024 -1.72439
vertex -0.228505 -0.57176 -0.787957
vertex -0.217614 -0.583374 -0.782508
end loop
end factet
facet normal 0.0041306 0.0149043 -0.0388961
outer loop
vertex -2.74769 -2.34024 -1.72439
vertex -0.217614 -0.583374 -0.782508
vertex -0.202622 -0.588337 -0.782818
end loop
end factet
facet normal 0.00311577 0.00387001 -0.0156226
outer loop
vertex -2.74769 -2.34024 -1.72439
vertex -0.202622 -0.588337 -0.782818
vertex -0.197251 -0.590778 -0.782351
end loop
end factet
facet normal 0.0423875 -0.0288548 -0.0611715
outer loop
vertex -2.74769 -2.34024 -1.72439
vertex -0.197251 -0.590778 -0.782351
vertex -0.190941 -0.610435 -0.768707
end loop
end factet
facet normal 0.0439347 -0.00587106 -0.106912
outer loop
vertex -2.74769 -2.34024 -1.72439
vertex -0.190941 -0.610435 -0.768707
vertex -0.163467 -0.633663 -0.756141
end loop
end factet
facet normal 0.0344809 -0.0332832 -0.0333652
outer loop
vertex -2.74769 -2.34024 -1.72439
vertex -0.163467 -0.633663 -0.756141
vertex -0.165066 -0.64763 -0.743861
end loop
end factet
facet normal 0.0130098 -0.0133579 -0.0112081
outer loop
vertex -2.74769 -2.34024 -1.72439
vertex -0.165066 -0.64763 -0.743861
vertex -0.166226 -0.65273 -0.739129
end loop
end factet
facet normal 0.0199684 -0.0245206 -0.0103211
outer loop
vertex -2.74769 -2.34024 -1.72439
vertex -0.166226 -0.65273 -0.739129
vertex -0.17119 -0.659974 -0.731525
end loop
end factet
facet normal 0.0248187 -0.0305002 -0.0127883
outer loop
vertex -2.74769 -2.34024 -1.72439
vertex -0.17119 -0.659974 -0.731525
vertex -0.177168 -0.668835 -0.721991
end loop
end factet
facet normal 0.0375502 -0.0193613 -0.0640097
outer loop
vertex -2.74769 -2.34024 -1.72439
vertex -0.177168 -0.668835 -0.721991
vertex -0.164282 -0.685358 -0.709433
end loop
end factet
facet normal 0.0790335 -0.0796144 -0.0713563
outer loop
vertex -2.74769 -2.34024 -1.72439
vertex -0.164282 -0.685358 -0.709433
vertex -0.166616 -0.714474 -0.679533
end loop
end factet
facet normal 0.0190188 -0.0103598 -0.0308619
outer loop
vertex -2.74769 -2.34024 -1.72439
vertex -0.166616 -0.714474 -0.679533
vertex -0.160011 -0.722271 -0.672845
end loop
end factet
facet normal 0.0283214 -0.0195138 -0.039669
outer loop
vertex -2.74769 -2.34024 -1.72439
vertex -0.160011 -0.722271 -0.672845
vertex -0.153078 -0.733266 -0.662487
end loop
end factet
facet normal 0.0696709 -0.0744936 -0.0575004
outer loop
vertex -2.74769 -2.34024 -1.72439
vertex -0.153078 -0.733266 -0.662487
vertex -0.155472 -0.75691 -0.634756
end loop
end factet
facet normal 0.0769867 -0.0602324 -0.0956273
outer loop
vertex -2.74769 -2.34024 -1.72439
vertex -0.155472 -0.75691 -0.634756
vertex -0.139514 -0.784053 -0.604812
end loop
end factet
facet normal 0.0758588 -0.0966916 -0.0423226
outer loop
vertex -2.74769 -2.34024 -1.72439
vertex -0.139514 -0.784053 -0.604812
vertex -0.149738 -0.80638 -0.572128
end loop
end factet
facet normal 0.143581 -0.162711 -0.107129
outer loop
vertex -2.74769 -2.34024 -1.72439
vertex -0.149738 -0.80638 -0.572128
vertex -0.149475 -0.84746 -0.509381
end loop
end factet
facet normal 0.139026 -0.316476 0.0915298
outer loop
vertex -2.74769 -2.34024 -1.72439
vertex -0.149475 -0.84746 -0.509381
vertex -0.24566 -0.867495 -0.432555
end loop
end factet
facet normal 0.216039 -0.40039 0.0380363
outer loop
vertex -2.74769 -2.34024 -1.72439
vertex -0.24566 -0.867495 -0.432555
vertex -0.319021 -0.895474 -0.310406
end loop
end factet
facet normal 0.0466411 -0.104699 0.0268669
outer loop
vertex -2.74769 -2.34024 -1.72439
vertex -0.319021 -0.895474 -0.310406
vertex -0.340896 -0.897425 -0.280032
end loop
end factet
facet normal 0.00877285 -0.0766015 0.0619011
outer loop
vertex -2.74769 -2.34024 -1.72439
vertex -0.340896 -0.897425 -0.280032
vertex -0.370906 -0.889696 -0.266214
end loop
end factet
facet normal 0.0751016 -0.140006 0.0168598
outer loop
vertex -2.74769 -2.34024 -1.72439
vertex -0.370906 -0.889696 -0.266214
vertex -0.390111 -0.894323 -0.219091
end loop
end factet
facet normal 0.0242372 -0.0518749 0.0118685
outer loop
vertex -2.74769 -2.34024 -1.72439
vertex -0.390111 -0.894323 -0.219091
vertex -0.398594 -0.894491 -0.202504
end loop
end factet
facet normal 0.0296493 -0.0489626 0.000747919
outer loop
vertex -2.74769 -2.34024 -1.72439
vertex -0.398594 -0.894491 -0.202504
vertex -0.402601 -0.896639 -0.184256
end loop
end factet
facet normal 0.0512824 -0.117533 0.0320809
outer loop
vertex -2.74769 -2.34024 -1.72439
vertex -0.402601 -0.896639 -0.184256
vertex -0.421764 -0.894756 -0.146723
end loop
end factet
facet normal 0.0220273 -0.120432 0.077867
outer loop
vertex -2.74769 -2.34024 -1.72439
vertex -0.421764 -0.894756 -0.146723
vertex -0.45563 -0.882325 -0.117916
end loop
end factet
facet normal 0.0193837 -0.0591226 0.0259991
outer loop
vertex -2.74769 -2.34024 -1.72439
vertex -0.45563 -0.882325 -0.117916
vertex -0.467289 -0.878397 -0.100293
end loop
end factet
facet normal -0.00109982 -0.0240431 0.0231853
outer loop
vertex -2.74769 -2.34024 -1.72439
vertex -0.467289 -0.878397 -0.100293
vertex -0.476301 -0.874007 -0.0961684
end loop
end factet
facet normal -0.00737023 -0.0603373 0.064616
outer loop
vertex -2.74769 -2.34024 -1.72439
vertex -0.476301 -0.874007 -0.0961684
vertex -0.500638 -0.861269 -0.0870495
end loop
end factet
facet normal 0.00355387 -0.01596 0.00953889
outer loop
vertex -2.74769 -2.34024 -1.72439
vertex -0.500638 -0.861269 -0.0870495
vertex -0.504401 -0.859501 -0.0826891
end loop
end factet
facet normal 0.00127769 -0.0182536 0.0147178
outer loop
vertex -2.74769 -2.34024 -1.72439
vertex -0.504401 -0.859501 -0.0826891
vertex -0.509951 -0.856604 -0.078614
end loop
end factet
facet normal 0.000106335 -0.0511079 0.045928
outer loop
vertex -2.74769 -2.34024 -1.72439
vertex -0.509951 -0.856604 -0.078614
vertex -0.526801 -0.847251 -0.0681673
end loop
end factet
facet normal -0.00982475 -0.0118089 0.0238194
outer loop
vertex -2.74769 -2.34024 -1.72439
vertex -0.526801 -0.847251 -0.0681673
vertex -0.534997 -0.842035 -0.068962
end loop
end factet
facet normal 0.0114713 -0.0417666 0.0224669
outer loop
vertex -2.74769 -2.34024 -1.72439
vertex -0.534997 -0.842035 -0.068962
vertex -0.543406 -0.837575 -0.0563773
end loop
end factet
facet normal 0.0109742 -0.0916731 0.0680833
outer loop
vertex -2.74769 -2.34024 -1.72439
vertex -0.543406 -0.837575 -0.0563773
vertex -0.567213 -0.822918 -0.0328038
end loop
end factet
facet normal 0.0039947 -0.0130095 0.00652003
outer loop
vertex -2.74769 -2.34024 -1.72439
vertex -0.567213 -0.822918 -0.0328038
vertex -0.569482 -0.821506 -0.0285978
end loop
end factet
facet normal 0.00521278 -0.0279093 0.0182993
outer loop
vertex -2.74769 -2.34024 -1.72439
vertex -0.569482 -0.821506 -0.0285978
vertex -0.575672 -0.817421 -0.0206041
end loop
end factet
facet normal 0.00375724 -0.0337656 0.0253894
outer loop
vertex -2.74769 -2.34024 -1.72439
vertex -0.575672 -0.817421 -0.0206041
vertex -0.58407 -0.81162 -0.0116459
end loop
end factet
facet normal 0.0173318 -0.0349722 0.00931811
outer loop
vertex -2.74769 -2.34024 -1.72439
vertex -0.58407 -0.81162 -0.0116459
vertex -0.58714 -0.809482 0.00208723
end loop
end factet
facet normal 0.00752926 -0.0304177 0.0175474
outer loop
vertex -2.74769 -2.34024 -1.72439
vertex -0.58714 -0.809482 0.00208723
vertex -0.592727 -0.805319 0.011702
end loop
end factet
facet normal 0.0100024 -0.0269005 0.0113678
outer loop
vertex -2.74769 -2.34024 -1.72439
vertex -0.592727 -0.805319 0.011702
vertex -0.596223 -0.802534 0.0213679
end loop
end factet
facet normal 0.0337212 -0.0482216 0.000916481
outer loop
vertex -2.74769 -2.34024 -1.72439
vertex -0.596223 -0.802534 0.0213679
vertex -0.595881 -0.801863 0.0440593
end loop
end factet
facet normal 0.0263426 -0.030201 -0.00578141
outer loop
vertex -2.74769 -2.34024 -1.72439
vertex -0.595881 -0.801863 0.0440593
vertex -0.593315 -0.802716 0.0602029
end loop
end factet
facet normal 0.00980258 -0.0314548 0.0152659
outer loop
vertex -2.74769 -2.34024 -1.72439
vertex -0.593315 -0.802716 0.0602029
vertex -0.597553 -0.798654 0.0712932
end loop
end factet
facet normal 0.000405312 -0.0213063 0.0178061
outer loop
vertex -2.74769 -2.34024 -1.72439
vertex -0.597553 -0.798654 0.0712932
vertex -0.602837 -0.794161 0.0767897
end loop
end factet
facet normal 0.000950336 -0.00717425 0.00502682
outer loop
vertex -2.74769 -2.34024 -1.72439
vertex -0.602837 -0.794161 0.0767897
vertex -0.604277 -0.792856 0.0789249
end loop
end factet
facet normal -0.0046165 -0.0130093 0.0166504
outer loop
vertex -2.74769 -2.34024 -1.72439
vertex -0.604277 -0.792856 0.0789249
vertex -0.609372 -0.788766 0.0807077
end loop
end factet
facet normal 0.00567889 -0.0197294 0.0102301
outer loop
vertex -2.74769 -2.34024 -1.72439
vertex -0.609372 -0.788766 0.0807077
vertex -0.612064 -0.785935 0.0876622
end loop
end factet
facet normal 0.00556445 -0.0360613 0.024374
outer loop
vertex -2.74769 -2.34024 -1.72439
vertex -0.612064 -0.785935 0.0876622
vertex -0.618717 -0.779364 0.0989028
end loop
end factet
facet normal 0.00210261 -0.00679517 0.00336194
outer loop
vertex -2.74769 -2.34024 -1.72439
vertex -0.618717 -0.779364 0.0989028
vertex -0.619541 -0.778389 0.101389
end loop
end factet
facet normal 0.0074296 -0.0116103 0.00127196
outer loop
vertex -2.74769 -2.34024 -1.72439
vertex -0.619541 -0.778389 0.101389
vertex -0.619447 -0.777722 0.106925
end loop
end factet
facet normal 0.0125391 -0.0271921 0.00862861
outer loop
vertex -2.74769 -2.34024 -1.72439
vertex -0.619447 -0.777722 0.106925
vertex -0.62101 -0.774815 0.118357
end loop
end factet
facet normal 0.00137305 -0.0321577 0.0257335
outer loop
vertex -2.74769 -2.34024 -1.72439
vertex -0.62101 -0.774815 0.118357
vertex -0.627894 -0.767782 0.127513
end loop
end factet
facet normal 0.0161157 -0.0551569 0.0283868
outer loop
vertex -2.74769 -2.34024 -1.72439
vertex -0.627894 -0.767782 0.127513
vertex -0.634057 -0.758962 0.148149
end loop
end factet
facet normal 0.0142777 -0.0188334 -0.000211954
outer loop
vertex -2.74769 -2.34024 -1.72439
vertex -0.634057 -0.758962 0.148149
vertex -0.632704 -0.75805 0.158258
end loop
end factet
facet normal 0.0172739 -0.0261815 0.00259733
outer loop
vertex -2.74769 -2.34024 -1.72439
vertex -0.632704 -0.75805 0.158258
vertex -0.631647 -0.756031 0.171578
end loop
end factet
facet normal 0.0267756 -0.0185175 -0.014411
outer loop
vertex -2.74769 -2.34024 -1.72439
vertex -0.631647 -0.756031 0.171578
vertex -0.625152 -0.75798 0.186148
end loop
end factet
facet normal 0.0163414 -0.0207109 -0.00100255
outer loop
vertex -2.74769 -2.34024 -1.72439
vertex -0.625152 -0.75798 0.186148
vertex -0.622956 -0.756815 0.197883
end loop
end factet
facet normal 0.00363302 -0.0125871 0.00635266
outer loop
vertex -2.74769 -2.34024 -1.72439
vertex -0.622956 -0.756815 0.197883
vertex -0.624023 -0.75462 0.202842
end loop
end factet
facet normal -0.00309944 -0.0271707 0.0257699
outer loop
vertex -2.74769 -2.34024 -1.72439
vertex -0.624023 -0.75462 0.202842
vertex -0.630491 -0.747315 0.209766
end loop
end factet
facet normal 0.0038116 -0.0161419 0.00912189
outer loop
vertex -2.74769 -2.34024 -1.72439
vertex -0.630491 -0.747315 0.209766
vertex -0.632085 -0.744205 0.215934
end loop
end factet
facet normal 0.0137281 -0.0279231 0.00800014
outer loop
vertex -2.74769 -2.34024 -1.72439
vertex -0.632085 -0.744205 0.215934
vertex -0.631952 -0.740324 0.229255
end loop
end factet
facet normal 0.00346828 -0.0120425 0.00610614
outer loop
vertex -2.74769 -2.34024 -1.72439
vertex -0.631952 -0.740324 0.229255
vertex -0.632785 -0.738068 0.234177
end loop
end factet
facet normal 0.027674 -0.0287738 -0.00634503
outer loop
vertex -2.74769 -2.34024 -1.72439
vertex -0.632785 -0.738068 0.234177
vertex -0.627045 -0.736719 0.253098
end loop
end factet
facet normal 0.0734377 -0.0451403 -0.0421505
outer loop
vertex -2.74769 -2.34024 -1.72439
vertex -0.627045 -0.736719 0.253098
vertex -0.604715 -0.739711 0.295207
end loop
end factet
facet normal 0.094214 -0.0413809 -0.0671751
outer loop
vertex -2.74769 -2.34024 -1.72439
vertex -0.604715 -0.739711 0.295207
vertex -0.569568 -0.744807 0.34764
end loop
end factet
facet normal 0.0409284 -0.0139961 -0.0322471
outer loop
vertex -2.74769 -2.34024 -1.72439
vertex -0.569568 -0.744807 0.34764
vertex -0.552129 -0.746838 0.370656
end loop
end factet
facet normal 0.0349302 -0.0344977 -0.0103683
outer loop
vertex -2.74769 -2.34024 -1.72439
vertex -0.552129 -0.746838 0.370656
vertex -0.538819 -0.741901 0.399069
end loop
end factet
facet normal 0.0490427 -0.0683308 0.000417709
outer loop
vertex -2.74769 -2.34024 -1.72439
vertex -0.538819 -0.741901 0.399069
vertex -0.518933 -0.727323 0.449121
end loop
end factet
facet normal -0.00426102 -0.0448108 0.0376222
outer loop
vertex -2.74769 -2.34024 -1.72439
vertex -0.518933 -0.727323 0.449121
vertex -0.523924 -0.714054 0.464359
end loop
end factet
facet normal 0.00525761 -0.0285144 0.0158439
outer loop
vertex -2.74769 -2.34024 -1.72439
vertex -0.523924 -0.714054 0.464359
vertex -0.522212 -0.705677 0.478868
end loop
end factet
facet normal 0.000480175 -0.0162406 0.0115635
outer loop
vertex -2.74769 -2.34024 -1.72439
vertex -0.522212 -0.705677 0.478868
vertex -0.522449 -0.700656 0.48593
end loop
end factet
facet normal 0.006742 -0.0301809 0.0156004
outer loop
vertex -2.74769 -2.34024 -1.72439
vertex -0.522449 -0.700656 0.48593
vertex -0.519082 -0.691164 0.502838
end loop
end factet
facet normal 0.00072217 -0.0251412 0.0178926
outer loop
vertex -2.74769 -2.34024 -1.72439
vertex -0.519082 -0.691164 0.502838
vertex -0.518652 -0.682817 0.514549
end loop
end factet
facet normal -0.0149133 -0.0619078 0.0606759
outer loop
vertex -2.74769 -2.34024 -1.72439
vertex -0.518652 -0.682817 0.514549
vertex -0.526167 -0.661185 0.534774
end loop
end factet
facet normal 0.000294447 -0.0255961 0.0187342
outer loop
vertex -2.74769 -2.34024 -1.72439
vertex -0.526167 -0.661185 0.534774
vertex -0.524679 -0.651626 0.547809
end loop
end factet
facet normal -0.0096128 -0.027997 0.0302112
outer loop
vertex -2.74769 -2.34024 -1.72439
vertex -0.524679 -0.651626 0.547809
vertex -0.528718 -0.641105 0.556275
end loop
end factet
facet normal 0.00503826 -0.00432301 -0.00168085
outer loop
vertex -2.74769 -2.34024 -1.72439
vertex -0.528718 -0.641105 0.556275
vertex -0.525161 -0.639138 0.56188
end loop
end factet
facet normal -0.000529766 -0.0088191 0.00707674
outer loop
vertex -2.74769 -2.34024 -1.72439
vertex -0.525161 -0.639138 0.56188
vertex -0.524678 -0.635584 0.566344
end loop
end factet
facet normal -0.0154703 -0.0409145 0.0454595
outer loop
vertex -2.74769 -2.34024 -1.72439
vertex -0.524678 -0.635584 0.566344
vertex -0.530151 -0.619332 0.579109
end loop
end factet
facet normal -0.0109921 -0.0536022 0.0506275
outer loop
vertex -2.74769 -2.34024 -1.72439
vertex -0.530151 -0.619332 0.579109
vertex -0.529024 -0.595627 0.604452
end loop
end factet
facet normal 0.00174046 -0.0290871 0.0201316
outer loop
vertex -2.74769 -2.34024 -1.72439
vertex -0.529024 -0.595627 0.604452
vertex -0.521031 -0.580267 0.625953
end loop
end factet
facet normal -0.0239882 -0.0627708 0.06973
outer loop
vertex -2.74769 -2.34024 -1.72439
vertex -0.521031 -0.580267 0.625953
vertex -0.519652 -0.547862 0.655598
end loop
end factet
facet normal -0.000786304 -0.00212479 0.00233626
outer loop
vertex -2.74769 -2.34024 -1.72439
vertex -0.519652 -0.547862 0.655598
vertex -0.519452 -0.546652 0.656766
end loop
end factet
facet normal -0.0240769 -0.0188165 0.0367036
outer loop
vertex -2.74769 -2.34024 -1.72439
vertex -0.519452 -0.546652 0.656766
vertex -0.532421 -0.54062 0.651351
end loop
end factet
facet normal -0.101289 -0.0246234 0.113099
outer loop
vertex -2.74769 -2.34024 -1.72439
vertex -0.532421 -0.54062 0.651351
vertex -0.594359 -0.539881 0.596042
end loop
end factet
facet normal -0.0935068 0.00351524 0.0840454
outer loop
vertex -2.74769 -2.34024 -1.72439
vertex -0.594359 -0.539881 0.596042
vertex -0.642561 -0.541152 0.542466
end loop
end factet
facet normal -0.216422 -0.0853601 0.268727
outer loop
vertex -2.74769 -2.34024 -1.72439
vertex -0.642561 -0.541152 0.542466
vertex -0.721583 -0.481032 0.497922
end loop
end factet
facet normal -0.307035 -0.049654 0.321469
outer loop
vertex -2.74769 -2.34024 -1.72439
vertex -0.721583 -0.481032 0.497922
vertex -0.810055 -0.403552 0.425391
end loop
end factet
facet normal -0.179912 -0.0339236 0.192719
outer loop
vertex -2.74769 -2.34024 -1.72439
vertex -0.810055 -0.403552 0.425391
vertex -0.850191 -0.344208 0.398368
end loop
end factet
facet normal -0.223443 -0.0952754 0.289319
outer loop
vertex -2.74769 -2.34024 -1.72439
vertex -0.850191 -0.344208 0.398368
vertex -0.882608 -0.225834 0.412313
end loop
end factet
facet normal -0.0202413 -0.00702214 0.0246167
outer loop
vertex -2.74769 -2.34024 -1.72439
vertex -0.882608 -0.225834 0.412313
vertex -0.884659 -0.21496 0.413729
end loop
end factet
facet normal -0.175603 0.0634117 0.0899787
outer loop
vertex -2.74769 -2.34024 -1.72439
vertex -0.884659 -0.21496 0.413729
vertex -0.91721 -0.203796 0.342334
end loop
end factet
facet normal -0.050621 0.017513 0.026731
outer loop
vertex -2.74769 -2.34024 -1.72439
vertex -0.91721 -0.203796 0.342334
vertex -0.925064 -0.198359 0.3239
end loop
end factet
facet normal -0.0686793 0.0487034 0.010184
outer loop
vertex -2.74769 -2.34024 -1.72439
vertex -0.925064 -0.198359 0.3239
vertex -0.936269 -0.20594 0.284585
end loop
end factet
facet normal -0.00185776 0.024744 -0.0246127
outer loop
vertex -2.74769 -2.34024 -1.72439
vertex -0.936269 -0.20594 0.284585
vertex -0.937277 -0.220716 0.269806
end loop
end factet
facet normal -0.0356107 0.0473967 -0.0180469
outer loop
vertex -2.74769 -2.34024 -1.72439
vertex -0.937277 -0.220716 0.269806
vertex -0.941996 -0.236209 0.238429
end loop
end factet
facet normal -0.0640974 0.0748885 -0.0213096
outer loop
vertex -2.74769 -2.34024 -1.72439
vertex -0.941996 -0.236209 0.238429
vertex -0.948002 -0.255008 0.190426
end loop
end factet
facet normal -0.14692 0.076793 0.0544589
outer loop
vertex -2.74769 -2.34024 -1.72439
vertex -0.948002 -0.255008 0.190426
vertex -0.961472 -0.240354 0.133425
end loop
end factet
facet normal -0.0831542 0.0306971 0.0452528
outer loop
vertex -2.74769 -2.34024 -1.72439
vertex -0.961472 -0.240354 0.133425
vertex -0.968628 -0.223433 0.108796
end loop
end factet
facet normal -0.191397 0.117398 0.0501845
outer loop
vertex -2.74769 -2.34024 -1.72439
vertex -0.968628 -0.223433 0.108796
vertex -0.977927 -0.206289 0.0332258
end loop
end factet
facet normal -0.149701 0.108262 0.0192926
outer loop
vertex -2.74769 -2.34024 -1.72439
vertex -0.977927 -0.206289 0.0332258
vertex -0.979816 -0.197665 -0.0298236
end loop
end factet
facet normal -0.0821128 0.0332575 0.0436151
outer loop
vertex -2.74769 -2.34024 -1.72439
vertex -0.979816 -0.197665 -0.0298236
vertex -0.982905 -0.176738 -0.0515964
end loop
end factet
facet normal 0.000530243 0.0186851 -0.0247257
outer loop
vertex -2.74769 -2.34024 -1.72439
vertex -0.982905 -0.176738 -0.0515964
vertex -0.980406 -0.187685 -0.0598161
end loop
end factet
facet normal -0.0171821 0.0206113 -0.00841141
outer loop
vertex -2.74769 -2.34024 -1.72439
vertex -0.980406 -0.187685 -0.0598161
vertex -0.979101 -0.190855 -0.0702496
end loop
end factet
facet normal -0.0293531 0.0469272 -0.029593
outer loop
vertex -2.74769 -2.34024 -1.72439
vertex -0.979101 -0.190855 -0.0702496
vertex -0.974881 -0.202459 -0.0928357
end loop
end factet
facet normal -0.00115657 0.0280719 -0.0355253
outer loop
vertex -2.74769 -2.34024 -1.72439
vertex -0.974881 -0.202459 -0.0928357
vertex -0.970499 -0.217214 -0.104638
end loop
end factet
facet normal -0.00860357 0.0300908 -0.0300009
outer loop
vertex -2.74769 -2.34024 -1.72439
vertex -0.970499 -0.217214 -0.104638
vertex -0.966272 -0.229045 -0.117717
end loop
end factet
facet normal 0.00125146 0.0421603 -0.0567868
outer loop
vertex -2.74769 -2.34024 -1.72439
vertex -0.966272 -0.229045 -0.117717
vertex -0.95845 -0.251653 -0.134329
end loop
end factet
facet normal -0.0217848 0.0250769 -0.00842595
outer loop
vertex -2.74769 -2.34024 -1.72439
vertex -0.95845 -0.251653 -0.134329
vertex -0.956158 -0.253686 -0.146308
end loop
end factet
facet normal -0.0209541 0.0314291 -0.0177674
outer loop
vertex -2.74769 -2.34024 -1.72439
vertex -0.956158 -0.253686 -0.146308
vertex -0.952386 -0.259211 -0.160529
end loop
end factet
facet normal -0.0925767 0.0902996 -0.0138838
outer loop
vertex -2.74769 -2.34024 -1.72439
vertex -0.952386 -0.259211 -0.160529
vertex -0.94445 -0.257746 -0.203914
end loop
end factet
facet normal -0.0414665 0.0299909 0.00810146
outer loop
vertex -2.74769 -2.34024 -1.72439
vertex -0.94445 -0.257746 -0.203914
vertex -0.942773 -0.251316 -0.219131
end loop
end factet
facet normal -0.126739 0.128559 -0.0264392
outer loop
vertex -2.74769 -2.34024 -1.72439
vertex -0.942773 -0.251316 -0.219131
vertex -0.927854 -0.248697 -0.277916
end loop
end factet
facet normal -0.12623 0.129474 -0.028403
outer loop
vertex -2.74769 -2.34024 -1.72439
vertex -0.927854 -0.248697 -0.277916
vertex -0.910113 -0.243916 -0.334962
end loop
end factet
facet normal -0.114958 0.206774 -0.159938
outer loop
vertex -2.74769 -2.34024 -1.72439
vertex -0.910113 -0.243916 -0.334962
vertex -0.865929 -0.280547 -0.414079
end loop
end factet
facet normal -0.0599978 0.0949342 -0.0630648
outer loop
vertex -2.74769 -2.34024 -1.72439
vertex -0.865929 -0.280547 -0.414079
vertex -0.844575 -0.290688 -0.449659
end loop
end factet
facet normal -0.0344281 0.0455053 -0.0217655
outer loop
vertex -2.74769 -2.34024 -1.72439
vertex -0.844575 -0.290688 -0.449659
vertex -0.83479 -0.291586 -0.467016
end loop
end factet
facet normal -0.0445006 0.0803621 -0.0632343
outer loop
vertex -2.74769 -2.34024 -1.72439
vertex -0.83479 -0.291586 -0.467016
vertex -0.814201 -0.302593 -0.495494
end loop
end factet
facet normal -0.0284307 0.0327208 -0.00952315
outer loop
vertex -2.74769 -2.34024 -1.72439
vertex -0.814201 -0.302593 -0.495494
vertex -0.807308 -0.300255 -0.508036
end loop
end factet
facet normal -0.0314403 0.026741 0.00530672
outer loop
vertex -2.74769 -2.34024 -1.72439
vertex -0.807308 -0.300255 -0.508036
vertex -0.802953 -0.292941 -0.519087
end loop
end factet
facet normal -0.0231652 0.023452 -0.00245857
outer loop
vertex -2.74769 -2.34024 -1.72439
vertex -0.802953 -0.292941 -0.519087
vertex -0.798285 -0.289291 -0.528253
end loop
end factet
facet normal -0.0109787 0.0132756 -0.00487041
outer loop
vertex -2.74769 -2.34024 -1.72439
vertex -0.798285 -0.289291 -0.528253
vertex -0.795245 -0.288591 -0.533198
end loop
end factet
facet normal -0.00360727 0.00825143 -0.00829935
outer loop
vertex -2.74769 -2.34024 -1.72439
vertex -0.795245 -0.288591 -0.533198
vertex -0.792795 -0.290267 -0.53593
end loop
end factet
facet normal -0.00899839 0.0127089 -0.00712013
outer loop
vertex -2.74769 -2.34024 -1.72439
vertex -0.792795 -0.290267 -0.53593
vertex -0.789593 -0.290552 -0.540484
end loop
end factet
facet normal -0.000932217 0.00351787 -0.00454855
outer loop
vertex -2.74769 -2.34024 -1.72439
vertex -0.789593 -0.290552 -0.540484
vertex -0.788433 -0.29166 -0.541579
end loop
end factet
facet normal -0.00139308 0.00494576 -0.00625849
outer loop
vertex -2.74769 -2.34024 -1.72439
vertex -0.788433 -0.29166 -0.541579
vertex -0.786812 -0.29316 -0.543125
end loop
end factet
facet normal -0.0111756 0.0107889 -0.000144958
outer loop
vertex -2.74769 -2.34024 -1.72439
vertex -0.786812 -0.29316 -0.543125
vertex -0.784683 -0.291011 -0.547344
end loop
end factet
facet normal -0.0090034 0.00571895 0.00505924
outer loop
vertex -2.74769 -2.34024 -1.72439
vertex -0.784683 -0.291011 -0.547344
vertex -0.784081 -0.287805 -0.549896
end loop
end factet
facet normal -0.0107465 0.00934982 0.00162792
outer loop
vertex -2.74769 -2.34024 -1.72439
vertex -0.784081 -0.287805 -0.549896
vertex -0.782389 -0.285208 -0.553646
end loop
end factet
facet normal -0.00435877 0.00412345 7.96318e-05
outer loop
vertex -2.74769 -2.34024 -1.72439
vertex -0.782389 -0.285208 -0.553646
vertex -0.781572 -0.284314 -0.555257
end loop
end factet
facet normal -0.024112 0.0323353 -0.0163131
outer loop
vertex -2.74769 -2.34024 -1.72439
vertex -0.781572 -0.284314 -0.555257
vertex -0.773346 -0.284008 -0.566812
end loop
end factet
facet normal -0.0236273 0.0259864 -0.00586176
outer loop
vertex -2.74769 -2.34024 -1.72439
vertex -0.773346 -0.284008 -0.566812
vertex -0.767371 -0.280755 -0.576471
end loop
end factet
facet normal -0.00370669 0.0096159 -0.0108576
outer loop
vertex -2.74769 -2.34024 -1.72439
vertex -0.767371 -0.280755 -0.576471
vertex -0.764249 -0.28299 -0.579517
end loop
end factet
facet normal -0.0121541 0.0238302 -0.0217648
outer loop
vertex -2.74769 -2.34024 -1.72439
vertex -0.764249 -0.28299 -0.579517
vertex -0.756972 -0.286417 -0.587332
end loop
end factet
facet normal -0.016597 0.0198059 -0.00671768
outer loop
vertex -2.74769 -2.34024 -1.72439
vertex -0.756972 -0.286417 -0.587332
vertex -0.752038 -0.2847 -0.594462
end loop
end factet
facet normal -0.0503366 0.045094 0.00686932
outer loop
vertex -2.74769 -2.34024 -1.72439
vertex -0.752038 -0.2847 -0.594462
vertex -0.742826 -0.271769 -0.611843
end loop
end factet
facet normal -0.0192199 0.0167367 0.0035181
outer loop
vertex -2.74769 -2.34024 -1.72439
vertex -0.742826 -0.271769 -0.611843
vertex -0.739398 -0.266478 -0.618288
end loop
end factet
facet normal -0.0203323 0.0198445 -0.000288486
outer loop
vertex -2.74769 -2.34024 -1.72439
vertex -0.739398 -0.266478 -0.618288
vertex -0.734826 -0.2619 -0.625651
end loop
end factet
facet normal -0.0846159 0.0576658 0.0459361
outer loop
vertex -2.74769 -2.34024 -1.72439
vertex -0.734826 -0.2619 -0.625651
vertex -0.725321 -0.229266 -0.649112
end loop
end factet
facet normal -0.0271401 0.00247979 0.0461764
outer loop
vertex -2.74769 -2.34024 -1.72439
vertex -0.725321 -0.229266 -0.649112
vertex -0.728559 -0.209812 -0.652059
end loop
end factet
facet normal -0.139755 0.13661 -0.00825548
outer loop
vertex -2.74769 -2.34024 -1.72439
vertex -0.728559 -0.209812 -0.652059
vertex -0.69199 -0.175316 -0.700296
end loop
end factet
facet normal -0.109778 0.109162 -0.0104065
outer loop
vertex -2.74769 -2.34024 -1.72439
vertex -0.69199 -0.175316 -0.700296
vertex -0.65959 -0.146258 -0.737258
end loop
end factet
facet normal -0.0166056 0.0334454 -0.0392089
outer loop
vertex -2.74769 -2.34024 -1.72439
vertex -0.65959 -0.146258 -0.737258
vertex -0.646937 -0.15174 -0.747293
end loop
end factet
facet normal -0.0475109 0.0647101 -0.0427895
outer loop
vertex -2.74769 -2.34024 -1.72439
vertex -0.646937 -0.15174 -0.747293
vertex -0.623872 -0.148081 -0.767369
end loop
end factet
facet normal -0.0144651 0.0224125 -0.0192375
outer loop
vertex -2.74769 -2.34024 -1.72439
vertex -0.623872 -0.148081 -0.767369
vertex -0.615411 -0.148405 -0.774109
end loop
end factet
facet normal -0.0267065 0.0310678 -0.0117326
outer loop
vertex -2.74769 -2.34024 -1.72439
vertex -0.615411 -0.148405 -0.774109
vertex -0.604432 -0.142622 -0.783786
end loop
end factet
facet normal -0.0563982 0.0669518 -0.0279169
outer loop
vertex -2.74769 -2.34024 -1.72439
vertex -0.604432 -0.142622 -0.783786
vertex -0.579832 -0.130424 -0.804229
end loop
end factet
facet normal -0.0409514 0.062616 -0.0538969
outer loop
vertex -2.74769 -2.34024 -1.72439
vertex -0.579832 -0.130424 -0.804229
vertex -0.554255 -0.129213 -0.822256
end loop
end factet
facet normal -0.095637 0.0603268 0.0846763
outer loop
vertex -2.74769 -2.34024 -1.72439
vertex -0.554255 -0.129213 -0.822256
vertex -0.535006 -0.0712053 -0.841843
end loop
end factet
facet normal -0.145969 0.132391 0.0255899
outer loop
vertex -2.74769 -2.34024 -1.72439
vertex -0.535006 -0.0712053 -0.841843
vertex -0.477386 -0.000553272 -0.878693
end loop
end factet
facet normal -0.00514936 0.0314896 -0.0732946
outer loop
vertex -2.74769 -2.34024 -1.72439
vertex -0.477386 -0.000553272 -0.878693
vertex -0.461874 -0.0168515 -0.886785
end loop
end factet
facet normal -0.0107191 0.0232748 -0.0353088
outer loop
vertex -2.74769 -2.34024 -1.72439
vertex -0.461874 -0.0168515 -0.886785
vertex -0.450205 -0.0204367 -0.892691
end loop
end factet
facet normal 0.00208926 0.0259995 -0.07829
outer loop
vertex -2.74769 -2.34024 -1.72439
vertex -0.450205 -0.0204367 -0.892691
vertex -0.436206 -0.0403786 -0.89894
end loop
end factet
facet normal 0.00979018 0.000286222 -0.028213
outer loop
vertex -2.74769 -2.34024 -1.72439
vertex -0.436206 -0.0403786 -0.89894
vertex -0.435367 -0.0517492 -0.898765
end loop
end factet
facet normal 0.00435925 0.00561333 -0.0277681
outer loop
vertex -2.74769 -2.34024 -1.72439
vertex -0.435367 -0.0517492 -0.898765
vertex -0.431842 -0.060269 -0.899934
end loop
end factet
facet normal 0.00531888 -6.68764e-05 -0.0147552
outer loop
vertex -2.74769 -2.34024 -1.72439
vertex -0.431842 -0.060269 -0.899934
vertex -0.431379 -0.0661851 -0.89974
end loop
end factet
facet normal -8.80957e-05 0.0117011 -0.0320196
outer loop
vertex -2.74769 -2.34024 -1.72439
vertex -0.431379 -0.0661851 -0.89974
vertex -0.424629 -0.0733822 -0.902389
end loop
end factet
facet normal 0.00168431 0.00249958 -0.0116534
outer loop
vertex -2.74769 -2.34024 -1.72439
vertex -0.424629 -0.0733822 -0.902389
vertex -0.422978 -0.0767877 -0.90288
end loop
end factet
facet normal 0.0160426 -0.00159574 -0.0410008
outer loop
vertex -2.74769 -2.34024 -1.72439
vertex -0.422978 -0.0767877 -0.90288
vertex -0.421909 -0.0933835 -0.901816
end loop
end factet
facet normal 0.00866985 -0.00185263 -0.019453
outer loop
vertex -2.74769 -2.34024 -1.72439
vertex -0.421909 -0.0933835 -0.901816
vertex -0.421792 -0.101635 -0.900978
end loop
end factet
facet normal -0.000257492 0.00955284 -0.0252442
outer loop
vertex -2.74769 -2.34024 -1.72439
vertex -0.421792 -0.101635 -0.900978
vertex -0.416025 -0.106937 -0.903044
end loop
end factet
facet normal 0.00883877 0.00274742 -0.0325623
outer loop
vertex -2.74769 -2.34024 -1.72439
vertex -0.416025 -0.106937 -0.903044
vertex -0.41289 -0.1179 -0.903118
end loop
end factet
facet normal 0.00136459 0.000447035 -0.00508928
outer loop
vertex -2.74769 -2.34024 -1.72439
vertex -0.41289 -0.1179 -0.903118
vertex -0.412378 -0.119593 -0.903129
end loop
end factet
facet normal 0.00400734 0.000846505 -0.0136843
outer loop
vertex -2.74769 -2.34024 -1.72439
vertex -0.412378 -0.119593 -0.903129
vertex -0.411145 -0.12428 -0.903058
end loop
end factet
facet normal 0.00389981 -0.00133085 -0.00750351
outer loop
vertex -2.74769 -2.34024 -1.72439
vertex -0.411145 -0.12428 -0.903058
vertex -0.411275 -0.127614 -0.902534
end loop
end factet
facet normal 0.00204289 -0.00125635 -0.00242519
outer loop
vertex -2.74769 -2.34024 -1.72439
vertex -0.411275 -0.127614 -0.902534
vertex -0.411689 -0.129044 -0.902142
end loop
end factet
facet normal 0.00293732 0.00999045 -0.0352116
outer loop
vertex -2.74769 -2.34024 -1.72439
vertex -0.411689 -0.129044 -0.902142
vertex -0.4048 -0.137596 -0.903994
end loop
end factet
facet normal 0.00631702 0.00172567 -0.0226736
outer loop
vertex -2.74769 -2.34024 -1.72439
vertex -0.4048 -0.137596 -0.903994
vertex -0.402416 -0.145033 -0.903895
end loop
end factet
facet normal -0.00503051 0.0198832 -0.0388174
outer loop
vertex -2.74769 -2.34024 -1.72439
vertex -0.402416 -0.145033 -0.903895
vertex -0.390526 -0.150455 -0.908214
end loop
end factet
facet normal 0.00997722 0.0162438 -0.0723968
outer loop
vertex -2.74769 -2.34024 -1.72439
vertex -0.390526 -0.150455 -0.908214
vertex -0.377339 -0.168918 -0.910539
end loop
end factet
facet normal -0.00486779 0.0168387 -0.0307474
outer loop
vertex -2.74769 -2.34024 -1.72439
vertex -0.377339 -0.168918 -0.910539
vertex -0.36701 -0.172428 -0.914096
end loop
end factet
facet normal 0.00200665 0.00485182 -0.0188756
outer loop
vertex -2.74769 -2.34024 -1.72439
vertex -0.36701 -0.172428 -0.914096
vertex -0.363121 -0.176816 -0.914811
end loop
end factet
facet normal -0.00411785 0.00557792 -0.0027771
outer loop
vertex -2.74769 -2.34024 -1.72439
vertex -0.363121 -0.176816 -0.914811
vertex -0.360302 -0.175422 -0.916193
end loop
end factet
facet normal -0.00548899 0.0136693 -0.0203996
outer loop
vertex -2.74769 -2.34024 -1.72439
vertex -0.360302 -0.175422 -0.916193
vertex -0.352125 -0.176552 -0.91915
end loop
end factet
facet normal -0.00366342 0.0220236 -0.0482793
outer loop
vertex -2.74769 -2.34024 -1.72439
vertex -0.352125 -0.176552 -0.91915
vertex -0.337318 -0.183332 -0.923367
end loop
end factet
facet normal -0.00621986 0.0134237 -0.0174294
outer loop
vertex -2.74769 -2.34024 -1.72439
vertex -0.337318 -0.183332 -0.923367
vertex -0.32927 -0.183362 -0.926261
end loop
end factet
facet normal -0.0081203 0.015692 -0.0178008
outer loop
vertex -2.74769 -2.34024 -1.72439
vertex -0.32927 -0.183362 -0.926261
vertex -0.319991 -0.182447 -0.929688
end loop
end factet
facet normal -0.00427008 0.00697398 -0.00589132
outer loop
vertex -2.74769 -2.34024 -1.72439
vertex -0.319991 -0.182447 -0.929688
vertex -0.31602 -0.181344 -0.93126
end loop
end factet
facet normal -0.00276685 0.00841105 -0.0144119
outer loop
vertex -2.74769 -2.34024 -1.72439
vertex -0.31602 -0.181344 -0.93126
vertex -0.310496 -0.182366 -0.932917
end loop
end factet
facet normal -0.0025835 0.00651264 -0.00980043
outer loop
vertex -2.74769 -2.34024 -1.72439
vertex -0.310496 -0.182366 -0.932917
vertex -0.30632 -0.18269 -0.934234
end loop
end factet
facet normal 0.000489593 0.0112646 -0.0322709
outer loop
vertex -2.74769 -2.34024 -1.72439
vertex -0.30632 -0.18269 -0.934234
vertex -0.297515 -0.188128 -0.935998
end loop
end factet
facet normal 0.00382471 0.00545955 -0.0267897
outer loop
vertex -2.74769 -2.34024 -1.72439
vertex -0.297515 -0.188128 -0.935998
vertex -0.292048 -0.19426 -0.936467
end loop
end factet
facet normal -0.00639737 0.0107305 -0.00928783
outer loop
vertex -2.74769 -2.34024 -1.72439
vertex -0.292048 -0.19426 -0.936467
vertex -0.285684 -0.19248 -0.938795
end loop
end factet
facet normal -0.0102901 0.0227826 -0.0300369
outer loop
vertex -2.74769 -2.34024 -1.72439
vertex -0.285684 -0.19248 -0.938795
vertex -0.270872 -0.191759 -0.943322
end loop
end factet
facet normal -0.00117397 0.00130916 0.00012207
outer loop
vertex -2.74769 -2.34024 -1.72439
vertex -0.270872 -0.191759 -0.943322
vertex -0.270206 -0.191132 -0.943641
end loop
end factet
facet normal 0.0483128 0.022887 -0.0184697
outer loop
vertex -0.270206 -0.191132 -0.943641
vertex 0 0 0
vertex -0.244646 -0.241406 -0.93908
end loop
end factet
facet normal 0.0489272 -0.020835 -0.00739039
outer loop
vertex -0.244646 -0.241406 -0.93908
vertex 0 0 0
vertex -0.262075 -0.288813 -0.920817
end loop
end factet
facet normal 0.0282632 -0.00568523 -0.00626084
outer loop
vertex -0.262075 -0.288813 -0.920817
vertex 0 0 0
vertex -0.265387 -0.316353 -0.910764
end loop
end factet
facet normal 0.0281449 -0.00912823 -0.00503046
outer loop
vertex -0.265387 -0.316353 -0.910764
vertex 0 0 0
vertex -0.27199 -0.343179 -0.899027
end loop
end factet
facet normal 0.0767104 -0.0331018 -0.0105721
outer loop
vertex -0.27199 -0.343179 -0.899027
vertex 0 0 0
vertex -0.297155 -0.4138 -0.860505
end loop
end factet
facet normal 0.0605831 -0.00871468 -0.0167302
outer loop
vertex -0.297155 -0.4138 -0.860505
vertex 0 0 0
vertex -0.297132 -0.47007 -0.831112
end loop
end factet
facet normal 0.00482482 0.00323778 -0.00355619
outer loop
vertex -0.297132 -0.47007 -0.831112
vertex 0 0 0
vertex -0.292763 -0.475125 -0.829787
end loop
end factet
facet normal 0.00798488 0.00765358 -0.00719953
outer loop
vertex -0.292763 -0.475125 -0.829787
vertex 0 0 0
vertex -0.282966 -0.483817 -0.828161
end loop
end factet
facet normal 0.00667733 0.00768737 -0.00677252
outer loop
vertex -0.282966 -0.483817 -0.828161
vertex 0 0 0
vertex -0.273302 -0.491227 -0.827044
end loop
end factet
facet normal 0.00473261 0.000683576 -0.00196993
outer loop
vertex -0.273302 -0.491227 -0.827044
vertex 0 0 0
vertex -0.271765 -0.495673 -0.824895
end loop
end factet
facet normal 0.00547904 0.00112423 -0.00248063
outer loop
vertex -0.271765 -0.495673 -0.824895
vertex 0 0 0
vertex -0.269603 -0.500858 -0.822469
end loop
end factet
facet normal 0.0130164 -0.0013596 -0.00343877
outer loop
vertex -0.269603 -0.500858 -0.822469
vertex 0 0 0
vertex -0.268974 -0.512445 -0.815508
end loop
end factet
facet normal 0.00750697 0.000783399 -0.00296825
outer loop
vertex -0.268974 -0.512445 -0.815508
vertex 0 0 0
vertex -0.266805 -0.519348 -0.811845
end loop
end factet
facet normal 0.00447479 0.00299355 -0.00338562
outer loop
vertex -0.266805 -0.519348 -0.811845
vertex 0 0 0
vertex -0.262611 -0.523874 -0.810303
end loop
end factet
facet normal 0.00459144 0.00234397 -0.00300345
outer loop
vertex -0.262611 -0.523874 -0.810303
vertex 0 0 0
vertex -0.259134 -0.528374 -0.808499
end loop
end factet
facet normal 0.00318515 7.75158e-05 -0.00107154
outer loop
vertex -0.259134 -0.528374 -0.808499
vertex 0 0 0
vertex -0.258504 -0.531224 -0.806832
end loop
end factet
facet normal 0.00501764 0.00152647 -0.00261267
outer loop
vertex -0.258504 -0.531224 -0.806832
vertex 0 0 0
vertex -0.25588 -0.535938 -0.804547
end loop
end factet
facet normal 0.0022164 -0.000449508 -0.000405475
outer loop
vertex -0.25588 -0.535938 -0.804547
vertex 0 0 0
vertex -0.256023 -0.537824 -0.803242
end loop
end factet
facet normal 0.00257427 0.00732283 -0.00572363
outer loop
vertex -0.256023 -0.537824 -0.803242
vertex 0 0 0
vertex -0.247051 -0.541332 -0.803695
end loop
end factet
facet normal 0.0146639 0.0076531 -0.00966237
outer loop
vertex -0.247051 -0.541332 -0.803695
vertex 0 0 0
vertex -0.235625 -0.555405 -0.7975
end loop
end factet
facet normal 0.00511646 0.000421122 -0.00180496
outer loop
vertex -0.235625 -0.555405 -0.7975
vertex 0 0 0
vertex -0.234283 -0.559902 -0.794746
end loop
end factet
facet normal 0.00817922 0.000278488 -0.00260733
outer loop
vertex -0.234283 -0.559902 -0.794746
vertex 0 0 0
vertex -0.232593 -0.566993 -0.790202
end loop
end factet
facet normal 0.00503936 0.00270824 -0.00342657
outer loop
vertex -0.232593 -0.566993 -0.790202
vertex 0 0 0
vertex -0.228505 -0.57176 -0.787957
end loop
end factet
facet normal 0.0122677 0.00733627 -0.00888094
outer loop
vertex -0.228505 -0.57176 -0.787957
vertex 0 0 0
vertex -0.217614 -0.583374 -0.782508
end loop
end factet
facet normal 0.00370303 0.0117988 -0.00982603
outer loop
vertex -0.217614 -0.583374 -0.782508
vertex 0 0 0
vertex -0.202622 -0.588337 -0.782818
end loop
end factet
facet normal 0.00218534 0.00411032 -0.00365482
outer loop
vertex -0.202622 -0.588337 -0.782818
vertex 0 0 0
vertex -0.197251 -0.590778 -0.782351
end loop
end factet
facet normal 0.0234392 0.00224477 -0.00760471
outer loop
vertex -0.197251 -0.590778 -0.782351
vertex 0 0 0
vertex -0.190941 -0.610435 -0.768707
end loop
end factet
facet normal 0.0255261 0.0187201 -0.0212062
outer loop
vertex -0.190941 -0.610435 -0.768707
vertex 0 0 0
vertex -0.163467 -0.633663 -0.756141
end loop
end factet
facet normal 0.0183426 -0.00321622 -0.00127015
outer loop
vertex -0.163467 -0.633663 -0.756141
vertex 0 0 0
vertex -0.165066 -0.64763 -0.743861
end loop
end factet
facet normal 0.00685829 -0.00164432 -9.02861e-05
outer loop
vertex -0.165066 -0.64763 -0.743861
vertex 0 0 0
vertex -0.166226 -0.65273 -0.739129
end loop
end factet
facet normal 0.0103171 -0.00493299 0.00203609
outer loop
vertex -0.166226 -0.65273 -0.739129
vertex 0 0 0
vertex -0.17119 -0.659974 -0.731525
end loop
end factet
facet normal 0.012775 -0.00600497 0.00242803
outer loop
vertex -0.17119 -0.659974 -0.731525
vertex 0 0 0
vertex -0.177168 -0.668835 -0.721991
end loop
end factet
facet normal 0.0203278 0.00707894 -0.011546
outer loop
vertex -0.177168 -0.668835 -0.721991
vertex 0 0 0
vertex -0.164282 -0.685358 -0.709433
end loop
end factet
facet normal 0.0411487 -0.00656828 -0.00318334
outer loop
vertex -0.164282 -0.685358 -0.709433
vertex 0 0 0
vertex -0.166616 -0.714474 -0.679533
end loop
end factet
facet normal 0.0100763 0.00337406 -0.00601818
outer loop
vertex -0.166616 -0.714474 -0.679533
vertex 0 0 0
vertex -0.160011 -0.722271 -0.672845
end loop
end factet
facet normal 0.0148794 0.00300778 -0.00676726
outer loop
vertex -0.160011 -0.722271 -0.672845
vertex 0 0 0
vertex -0.153078 -0.733266 -0.662487
end loop
end factet
facet normal 0.0359984 -0.00583147 -0.00186349
outer loop
vertex -0.153078 -0.733266 -0.662487
vertex 0 0 0
vertex -0.155472 -0.75691 -0.634756
end loop
end factet
facet normal 0.0398938 0.00547439 -0.0162992
outer loop
vertex -0.155472 -0.75691 -0.634756
vertex 0 0 0
vertex -0.139514 -0.784053 -0.604812
end loop
end factet
facet normal 0.0391294 -0.0107434 0.00490114
outer loop
vertex -0.139514 -0.784053 -0.604812
vertex 0 0 0
vertex -0.149738 -0.80638 -0.572128
end loop
end factet
facet normal 0.0741013 -0.00924508 -0.00636346
outer loop
vertex -0.149738 -0.80638 -0.572128
vertex 0 0 0
vertex -0.149475 -0.84746 -0.509381
end loop
end factet
facet normal 0.075312 -0.0604785 0.0785187
outer loop
vertex -0.149475 -0.84746 -0.509381
vertex 0 0 0
vertex -0.24566 -0.867495 -0.432555
end loop
end factet
facet normal 0.118066 -0.0617397 0.0567666
outer loop
vertex -0.24566 -0.867495 -0.432555
vertex 0 0 0
vertex -0.319021 -0.895474 -0.310406
end loop
end factet
facet normal 0.0278043 -0.0164801 0.0189667
outer loop
vertex -0.319021 -0.895474 -0.310406
vertex 0 0 0
vertex -0.340896 -0.897425 -0.280032
end loop
end factet
facet normal 0.0102361 -0.0131142 0.0295664
outer loop
vertex -0.340896 -0.897425 -0.280032
vertex 0 0 0
vertex -0.370906 -0.889696 -0.266214
end loop
end factet
facet normal 0.0431575 -0.0225909 0.01537
outer loop
vertex -0.370906 -0.889696 -0.266214
vertex 0 0 0
vertex -0.390111 -0.894323 -0.219091
end loop
end factet
facet normal 0.0148711 -0.00832936 0.00752088
outer loop
vertex -0.390111 -0.894323 -0.219091
vertex 0 0 0
vertex -0.398594 -0.894491 -0.202504
end loop
end factet
facet normal 0.0167569 -0.00808468 0.00272822
outer loop
vertex -0.398594 -0.894491 -0.202504
vertex 0 0 0
vertex -0.402601 -0.896639 -0.184256
end loop
end factet
facet normal 0.033307 -0.0186419 0.0179404
outer loop
vertex -0.402601 -0.896639 -0.184256
vertex 0 0 0
vertex -0.421764 -0.894756 -0.146723
end loop
end factet
facet normal 0.023951 -0.0171186 0.0355455
outer loop
vertex -0.421764 -0.894756 -0.146723
vertex 0 0 0
vertex -0.45563 -0.882325 -0.117916
end loop
end factet
facet normal 0.0150861 -0.00940431 0.0120761
outer loop
vertex -0.45563 -0.882325 -0.117916
vertex 0 0 0
vertex -0.467289 -0.878397 -0.100293
end loop
end factet
facet normal 0.00318308 -0.00283141 0.00996763
outer loop
vertex -0.467289 -0.878397 -0.100293
vertex 0 0 0
vertex -0.476301 -0.874007 -0.0961684
end loop
end factet
facet normal 0.00674492 -0.00668371 0.0273375
outer loop
vertex -0.476301 -0.874007 -0.0961684
vertex 0 0 0
vertex -0.500638 -0.861269 -0.0870495
end loop
end factet
facet normal 0.00360156 -0.00251057 0.00412637
outer loop
vertex -0.500638 -0.861269 -0.0870495
vertex 0 0 0
vertex -0.504401 -0.859501 -0.0826891
end loop
end factet
facet normal 0.00326294 -0.00251442 0.00623193
outer loop
vertex -0.504401 -0.859501 -0.0826891
vertex 0 0 0
vertex -0.509951 -0.856604 -0.078614
end loop
end factet
facet normal 0.00821345 -0.00665196 0.0192031
outer loop
vertex -0.509951 -0.856604 -0.078614
vertex 0 0 0
vertex -0.526801 -0.847251 -0.0681673
end loop
end factet
facet normal -0.00102884 -0.000140037 0.00969145
outer loop
vertex -0.526801 -0.847251 -0.0681673
vertex 0 0 0
vertex -0.534997 -0.842035 -0.068962
end loop
end factet
facet normal 0.0102892 -0.00731266 0.00946677
outer loop
vertex -0.534997 -0.842035 -0.068962
vertex 0 0 0
vertex -0.543406 -0.837575 -0.0563773
end loop
end factet
facet normal 0.0189182 -0.0141521 0.0279053
outer loop
vertex -0.543406 -0.837575 -0.0563773
vertex 0 0 0
vertex -0.567213 -0.822918 -0.0328038
end loop
end factet
facet normal 0.00341492 -0.00246014 0.0026677
outer loop
vertex -0.567213 -0.822918 -0.0328038
vertex 0 0 0
vertex -0.569482 -0.821506 -0.0285978
end loop
end factet
facet normal 0.00645009 -0.00472932 0.00741166
outer loop
vertex -0.569482 -0.821506 -0.0285978
vertex 0 0 0
vertex -0.575672 -0.817421 -0.0206041
end loop
end factet
facet normal 0.00720308 -0.00533001 0.0102044
outer loop
vertex -0.575672 -0.817421 -0.0206041
vertex 0 0 0
vertex -0.58407 -0.81162 -0.0116459
end loop
end factet
facet normal 0.0111212 -0.00805685 0.00374034
outer loop
vertex -0.58407 -0.81162 -0.0116459
vertex 0 0 0
vertex -0.58714 -0.809482 0.00208723
end loop
end factet
facet normal 0.00779166 -0.00563355 0.00696686
outer loop
vertex -0.58714 -0.809482 0.00208723
vertex 0 0 0
vertex -0.592727 -0.805319 0.011702
end loop
end factet
facet normal 0.00781671 -0.00568832 0.00446635
outer loop
vertex -0.592727 -0.805319 0.011702
vertex 0 0 0
vertex -0.596223 -0.802534 0.0213679
end loop
end factet
facet normal 0.0182249 -0.0135364 0.0001252
outer loop
vertex -0.596223 -0.802534 0.0213679
vertex 0 0 0
vertex -0.595881 -0.801863 0.0440593
end loop
end factet
facet normal 0.0129075 -0.00973276 -0.00256544
outer loop
vertex -0.595881 -0.801863 0.0440593
vertex 0 0 0
vertex -0.593315 -0.802716 0.0602029
end loop
end factet
facet normal 0.00914689 -0.00632493 0.00581145
outer loop
vertex -0.593315 -0.802716 0.0602029
vertex 0 0 0
vertex -0.597553 -0.798654 0.0712932
end loop
end factet
facet normal 0.0047101 -0.00290772 0.00690484
outer loop
vertex -0.597553 -0.798654 0.0712932
vertex 0 0 0
vertex -0.602837 -0.794161 0.0767897
end loop
end factet
facet normal 0.00179593 -0.00117656 0.00193089
outer loop
vertex -0.602837 -0.794161 0.0767897
vertex 0 0 0
vertex -0.604277 -0.792856 0.0789249
end loop
end factet
facet normal 0.00173626 -0.000675146 0.00651106
outer loop
vertex -0.604277 -0.792856 0.0789249
vertex 0 0 0
vertex -0.609372 -0.788766 0.0807077
end loop
end factet
facet normal 0.00571402 -0.00402068 0.00384828
outer loop
vertex -0.609372 -0.788766 0.0807077
vertex 0 0 0
vertex -0.612064 -0.785935 0.0876622
end loop
end factet
facet normal 0.00941043 -0.00629677 0.00925076
outer loop
vertex -0.612064 -0.785935 0.0876622
vertex 0 0 0
vertex -0.618717 -0.779364 0.0989028
end loop
end factet
facet normal 0.00203381 -0.00145652 0.00124565
outer loop
vertex -0.618717 -0.779364 0.0989028
vertex 0 0 0
vertex -0.619541 -0.778389 0.101389
end loop
end factet
facet normal 0.00437665 -0.00343923 0.000339836
outer loop
vertex -0.619541 -0.778389 0.101389
vertex 0 0 0
vertex -0.619447 -0.777722 0.106925
end loop
end factet
facet normal 0.00920214 -0.00691474 0.00301602
outer loop
vertex -0.619447 -0.777722 0.106925
vertex 0 0 0
vertex -0.62101 -0.774815 0.118357
end loop
end factet
facet normal 0.0079265 -0.00487109 0.00970152
outer loop
vertex -0.62101 -0.774815 0.118357
vertex 0 0 0
vertex -0.627894 -0.767782 0.127513
end loop
end factet
facet normal 0.0169686 -0.0121714 0.0102697
outer loop
vertex -0.627894 -0.767782 0.127513
vertex 0 0 0
vertex -0.634057 -0.758962 0.148149
end loop
end factet
facet normal 0.00780765 -0.00661031 -0.000448734
outer loop
vertex -0.634057 -0.758962 0.148149
vertex 0 0 0
vertex -0.632704 -0.75805 0.158258
end loop
end factet
facet normal 0.0104168 -0.00859495 0.000475943
outer loop
vertex -0.632704 -0.75805 0.158258
vertex 0 0 0
vertex -0.631647 -0.756031 0.171578
end loop
end factet
facet normal 0.010681 -0.0103173 -0.0061405
outer loop
vertex -0.631647 -0.756031 0.171578
vertex 0 0 0
vertex -0.625152 -0.75798 0.186148
end loop
end factet
facet normal 0.00911173 -0.00774501 -0.000936598
outer loop
vertex -0.625152 -0.75798 0.186148
vertex 0 0 0
vertex -0.622956 -0.756815 0.197883
end loop
end factet
facet normal 0.00418738 -0.00287814 0.00217468
outer loop
vertex -0.622956 -0.756815 0.197883
vertex 0 0 0
vertex -0.624023 -0.75462 0.202842
end loop
end factet
facet normal 0.00670676 -0.00300865 0.00943974
outer loop
vertex -0.624023 -0.75462 0.202842
vertex 0 0 0
vertex -0.630491 -0.747315 0.209766
end loop
end factet
facet normal 0.00526197 -0.00355482 0.00315136
outer loop
vertex -0.630491 -0.747315 0.209766
vertex 0 0 0
vertex -0.632085 -0.744205 0.215934
end loop
end factet
facet normal 0.0107513 -0.00844832 0.00235474
outer loop
vertex -0.632085 -0.744205 0.215934
vertex 0 0 0
vertex -0.631952 -0.740324 0.229255
end loop
end factet
facet normal 0.00416136 -0.00291973 0.00204238
outer loop
vertex -0.631952 -0.740324 0.229255
vertex 0 0 0
vertex -0.632785 -0.738068 0.234177
end loop
end factet
facet normal 0.0142807 -0.013317 -0.00338319
outer loop
vertex -0.632785 -0.738068 0.234177
vertex 0 0 0
vertex -0.627045 -0.736719 0.253098
end loop
end factet
facet normal 0.0302652 -0.0320558 -0.0183268
outer loop
vertex -0.627045 -0.736719 0.253098
vertex 0 0 0
vertex -0.604715 -0.739711 0.295207
end loop
end factet
facet normal 0.037281 -0.0420828 -0.0290804
outer loop
vertex -0.604715 -0.739711 0.295207
vertex 0 0 0
vertex -0.569568 -0.744807 0.34764
end loop
end factet
facet normal 0.0164362 -0.0191717 -0.0141459
outer loop
vertex -0.569568 -0.744807 0.34764
vertex 0 0 0
vertex -0.552129 -0.746838 0.370656
end loop
end factet
facet normal 0.0230499 -0.020621 -0.00721437
outer loop
vertex -0.552129 -0.746838 0.370656
vertex 0 0 0
vertex -0.538819 -0.741901 0.399069
end loop
end factet
facet normal 0.0429514 -0.0349047 -0.00689811
outer loop
vertex -0.538819 -0.741901 0.399069
vertex 0 0 0
vertex -0.518933 -0.727323 0.449121
end loop
end factet
facet normal 0.0170423 -0.00566617 0.0105154
outer loop
vertex -0.518933 -0.727323 0.449121
vertex 0 0 0
vertex -0.523924 -0.714054 0.464359
end loop
end factet
facet normal 0.0142497 -0.00839643 0.00316617
outer loop
vertex -0.523924 -0.714054 0.464359
vertex 0 0 0
vertex -0.522212 -0.705677 0.478868
end loop
end factet
facet normal 0.00738844 -0.00357437 0.00278988
outer loop
vertex -0.522212 -0.705677 0.478868
vertex 0 0 0
vertex -0.522449 -0.700656 0.48593
end loop
end factet
facet normal 0.0164586 -0.0104694 0.00259975
outer loop
vertex -0.522449 -0.700656 0.48593
vertex 0 0 0
vertex -0.519082 -0.691164 0.502838
end loop
end factet
facet normal 0.0122914 -0.00629529 0.00403544
outer loop
vertex -0.519082 -0.691164 0.502838
vertex 0 0 0
vertex -0.518652 -0.682817 0.514549
end loop
end factet
facet normal 0.0249409 -0.00662261 0.0163514
outer loop
vertex -0.518652 -0.682817 0.514549
vertex 0 0 0
vertex -0.526167 -0.661185 0.534774
end loop
end factet
facet normal 0.0137305 -0.00765505 0.00404495
outer loop
vertex -0.526167 -0.661185 0.534774
vertex 0 0 0
vertex -0.524679 -0.651626 0.547809
end loop
end factet
facet normal 0.0112802 -0.00222871 0.00815281
outer loop
vertex -0.524679 -0.651626 0.547809
vertex 0 0 0
vertex -0.528718 -0.641105 0.556275
end loop
end factet
facet normal 0.0046874 -0.00494242 -0.00124088
outer loop
vertex -0.528718 -0.641105 0.556275
vertex 0 0 0
vertex -0.525161 -0.639138 0.56188
end loop
end factet
facet normal 0.00485027 -0.00261599 0.00155762
outer loop
vertex -0.525161 -0.639138 0.56188
vertex 0 0 0
vertex -0.524678 -0.635584 0.566344
end loop
end factet
facet normal 0.0173175 -0.00359741 0.0120062
outer loop
vertex -0.524678 -0.635584 0.566344
vertex 0 0 0
vertex -0.530151 -0.619332 0.579109
end loop
end factet
facet normal 0.0294238 -0.0140886 0.0118692
outer loop
vertex -0.530151 -0.619332 0.579109
vertex 0 0 0
vertex -0.529024 -0.595627 0.604452
end loop
end factet
facet normal 0.0220901 -0.0162057 0.00336441
outer loop
vertex -0.529024 -0.595627 0.604452
vertex 0 0 0
vertex -0.521031 -0.580267 0.625953
end loop
end factet
facet normal 0.0374864 -0.016309 0.0160843
outer loop
vertex -0.521031 -0.580267 0.625953
vertex 0 0 0
vertex -0.519652 -0.547862 0.655598
end loop
end factet
facet normal 0.00143296 -0.000738293 0.000518829
outer loop
vertex -0.519652 -0.547862 0.655598
vertex 0 0 0
vertex -0.519452 -0.546652 0.656766
end loop
end factet
facet normal 0.00100186 0.0113308 0.0102234
outer loop
vertex -0.519452 -0.546652 0.656766
vertex 0 0 0
vertex -0.532421 -0.54062 0.651351
end loop
end factet
facet normal -0.0294201 0.0697906 0.0338777
outer loop
vertex -0.532421 -0.54062 0.651351
vertex 0 0 0
vertex -0.594359 -0.539881 0.596042
end loop
end factet
facet normal -0.0296817 0.0605736 0.0252683
outer loop
vertex -0.594359 -0.539881 0.596042
vertex 0 0 0
vertex -0.642561 -0.541152 0.542466
end loop
end factet
facet normal 0.00850815 0.0714889 0.0813937
outer loop
vertex -0.642561 -0.541152 0.542466
vertex 0 0 0
vertex -0.721583 -0.481032 0.497922
end loop
end factet
facet normal 0.00368872 0.0963898 0.0984656
outer loop
vertex -0.721583 -0.481032 0.497922
vertex 0 0 0
vertex -0.810055 -0.403552 0.425391
end loop
end factet
facet normal 0.0143396 0.0389633 0.0642693
outer loop
vertex -0.810055 -0.403552 0.425391
vertex 0 0 0
vertex -0.850191 -0.344208 0.398368
end loop
end factet
facet normal 0.0519563 0.00105792 0.111798
outer loop
vertex -0.850191 -0.344208 0.398368
vertex 0 0 0
vertex -0.882608 -0.225834 0.412313
end loop
end factet
facet normal 0.00480329 -0.00040403 0.0100607
outer loop
vertex -0.882608 -0.225834 0.412313
vertex 0 0 0
vertex -0.884659 -0.21496 0.413729
end loop
end factet
facet normal -0.0107284 0.0766277 0.016873
outer loop
vertex -0.884659 -0.21496 0.413729
vertex 0 0 0
vertex -0.91721 -0.203796 0.342334
end loop
end factet
facet normal -0.00189555 0.0195967 0.00658749
outer loop
vertex -0.91721 -0.203796 0.342334
vertex 0 0 0
vertex -0.925064 -0.198359 0.3239
end loop
end factet
facet normal -0.010254 0.0399983 -0.0047902
outer loop
vertex -0.925064 -0.198359 0.3239
vertex 0 0 0
vertex -0.936269 -0.20594 0.284585
end loop
end factet
facet normal -0.00724828 0.0141234 -0.0136261
outer loop
vertex -0.936269 -0.20594 0.284585
vertex 0 0 0
vertex -0.937277 -0.220716 0.269806
end loop
end factet
facet normal -0.0111057 0.0306831 -0.0134796
outer loop
vertex -0.937277 -0.220716 0.269806
vertex 0 0 0
vertex -0.941996 -0.236209 0.238429
end loop
end factet
facet normal -0.0158208 0.0466497 -0.0162905
outer loop
vertex -0.941996 -0.236209 0.238429
vertex 0 0 0
vertex -0.948002 -0.255008 0.190426
end loop
end factet
facet normal -0.0117453 0.0566021 0.0173268
outer loop
vertex -0.948002 -0.255008 0.190426
vertex 0 0 0
vertex -0.961472 -0.240354 0.133425
end loop
end factet
facet normal -0.00366209 0.0246352 0.017989
outer loop
vertex -0.961472 -0.240354 0.133425
vertex 0 0 0
vertex -0.968628 -0.223433 0.108796
end loop
end factet
facet normal -0.0150197 0.0742112 0.0186844
outer loop
vertex -0.968628 -0.223433 0.108796
vertex 0 0 0
vertex -0.977927 -0.206289 0.0332258
end loop
end factet
facet normal -0.0127199 0.0617204 0.00882296
outer loop
vertex -0.977927 -0.206289 0.0332258
vertex 0 0 0
vertex -0.979816 -0.197665 -0.0298236
end loop
end factet
facet normal -0.00492786 0.0212413 0.0211155
outer loop
vertex -0.979816 -0.197665 -0.0298236
vertex 0 0 0
vertex -0.982905 -0.176738 -0.0515964
end loop
end factet
facet normal -0.000887867 0.00820804 -0.011202
outer loop
vertex -0.982905 -0.176738 -0.0515964
vertex 0 0 0
vertex -0.980406 -0.187685 -0.0598161
end loop
end factet
facet normal -0.00176859 0.0103071 -0.00335287
outer loop
vertex -0.980406 -0.187685 -0.0598161
vertex 0 0 0
vertex -0.979101 -0.190855 -0.0702496
end loop
end factet
facet normal -0.00349558 0.0224106 -0.0121661
outer loop
vertex -0.979101 -0.190855 -0.0702496
vertex 0 0 0
vertex -0.974881 -0.202459 -0.0928357
end loop
end factet
facet normal -0.00101966 0.0119128 -0.0152722
outer loop
vertex -0.974881 -0.202459 -0.0928357
vertex 0 0 0
vertex -0.970499 -0.217214 -0.104638
end loop
end factet
facet normal -0.00160292 0.0131352 -0.0124
outer loop
vertex -0.970499 -0.217214 -0.104638
vertex 0 0 0
vertex -0.966272 -0.229045 -0.117717
end loop
end factet
facet normal -0.00114368 0.0169729 -0.0236369
outer loop
vertex -0.966272 -0.229045 -0.117717
vertex 0 0 0
vertex -0.95845 -0.251653 -0.134329
end loop
end factet
facet normal -0.00274124 0.0117885 -0.00252561
outer loop
vertex -0.95845 -0.251653 -0.134329
vertex 0 0 0
vertex -0.956158 -0.253686 -0.146308
end loop
end factet
facet normal -0.00279934 0.0141494 -0.00623965
outer loop
vertex -0.956158 -0.253686 -0.146308
vertex 0 0 0
vertex -0.952386 -0.259211 -0.160529
end loop
end factet
facet normal -0.0114811 0.0425931 -0.000661209
outer loop
vertex -0.952386 -0.259211 -0.160529
vertex 0 0 0
vertex -0.94445 -0.257746 -0.203914
end loop
end factet
facet normal -0.00523331 0.0147143 0.00563985
outer loop
vertex -0.94445 -0.257746 -0.203914
vertex 0 0 0
vertex -0.942773 -0.251316 -0.219131
end loop
end factet
facet normal -0.0153475 0.0586901 -0.00128029
outer loop
vertex -0.942773 -0.251316 -0.219131
vertex 0 0 0
vertex -0.927854 -0.248697 -0.277916
end loop
end factet
facet normal -0.015516 0.0578602 2.46465e-05
outer loop
vertex -0.927854 -0.248697 -0.277916
vertex 0 0 0
vertex -0.910113 -0.243916 -0.334962
end loop
end factet
facet normal -0.00702786 0.0868056 -0.0441159
outer loop
vertex -0.910113 -0.243916 -0.334962
vertex 0 0 0
vertex -0.865929 -0.280547 -0.414079
end loop
end factet
facet normal -0.00578285 0.0396524 -0.0147721
outer loop
vertex -0.865929 -0.280547 -0.414079
vertex 0 0 0
vertex -0.844575 -0.290688 -0.449659
end loop
end factet
facet normal -0.0046414 0.0190591 -0.00360326
outer loop
vertex -0.844575 -0.290688 -0.449659
vertex 0 0 0
vertex -0.83479 -0.291586 -0.467016
end loop
end factet
facet normal -0.00316322 0.033388 -0.0151919
outer loop
vertex -0.83479 -0.291586 -0.467016
vertex 0 0 0
vertex -0.814201 -0.302593 -0.495494
end loop
end factet
facet normal -0.004954 0.0136272 -0.000181571
outer loop
vertex -0.814201 -0.302593 -0.495494
vertex 0 0 0
vertex -0.807308 -0.300255 -0.508036
end loop
end factet
facet normal -0.00703374 0.0111343 0.00459667
outer loop
vertex -0.807308 -0.300255 -0.508036
vertex 0 0 0
vertex -0.802953 -0.292941 -0.519087
end loop
end factet
facet normal -0.00457978 0.00978315 0.00156324
outer loop
vertex -0.802953 -0.292941 -0.519087
vertex 0 0 0
vertex -0.798285 -0.289291 -0.528253
end loop
end factet
facet normal -0.00180027 0.00555313 -0.000320569
outer loop
vertex -0.798285 -0.289291 -0.528253
vertex 0 0 0
vertex -0.795245 -0.288591 -0.533198
end loop
end factet
facet normal 0.000105485 0.00347853 -0.00204007
outer loop
vertex -0.795245 -0.288591 -0.533198
vertex 0 0 0
vertex -0.792795 -0.290267 -0.53593
end loop
end factet
facet normal -0.00116962 0.00532687 -0.0011549
outer loop
vertex -0.792795 -0.290267 -0.53593
vertex 0 0 0
vertex -0.789593 -0.290552 -0.540484
end loop
end factet
facet normal 0.000281006 0.00149161 -0.00121236
outer loop
vertex -0.789593 -0.290552 -0.540484
vertex 0 0 0
vertex -0.788433 -0.29166 -0.541579
end loop
end factet
facet normal 0.000361264 0.00209671 -0.00165509
outer loop
vertex -0.788433 -0.29166 -0.541579
vertex 0 0 0
vertex -0.786812 -0.29316 -0.543125
end loop
end factet
facet normal -0.00240397 0.00447622 0.00106646
outer loop
vertex -0.786812 -0.29316 -0.543125
vertex 0 0 0
vertex -0.784683 -0.291011 -0.547344
end loop
end factet
facet normal -0.00249757 0.00233224 0.00234054
outer loop
vertex -0.784683 -0.291011 -0.547344
vertex 0 0 0
vertex -0.784081 -0.287805 -0.549896
end loop
end factet
facet normal -0.00250725 0.00387034 0.00154936
outer loop
vertex -0.784081 -0.287805 -0.549896
vertex 0 0 0
vertex -0.782389 -0.285208 -0.553646
end loop
end factet
facet normal -0.000954852 0.00171307 0.000466883
outer loop
vertex -0.782389 -0.285208 -0.553646
vertex 0 0 0
vertex -0.781572 -0.284314 -0.555257
end loop
end factet
facet normal -0.0034547 0.0135985 -0.00210018
outer loop
vertex -0.781572 -0.284314 -0.555257
vertex 0 0 0
vertex -0.773346 -0.284008 -0.566812
end loop
end factet
facet normal -0.00458735 0.0108563 0.000819221
outer loop
vertex -0.773346 -0.284008 -0.566812
vertex 0 0 0
vertex -0.767371 -0.280755 -0.576471
end loop
end factet
facet normal 0.000433713 0.00413716 -0.00259224
outer loop
vertex -0.767371 -0.280755 -0.576471
vertex 0 0 0
vertex -0.764249 -0.28299 -0.579517
end loop
end factet
facet normal -0.000225961 0.0101891 -0.00467755
outer loop
vertex -0.764249 -0.28299 -0.579517
vertex 0 0 0
vertex -0.756972 -0.286417 -0.587332
end loop
end factet
facet normal -0.0030506 0.00829601 -0.000113919
outer loop
vertex -0.756972 -0.286417 -0.587332
vertex 0 0 0
vertex -0.752038 -0.2847 -0.594462
end loop
end factet
facet normal -0.0126349 0.0185467 0.00710171
outer loop
vertex -0.752038 -0.2847 -0.594462
vertex 0 0 0
vertex -0.742826 -0.271769 -0.611843
end loop
end factet
facet normal -0.00498927 0.00688559 0.00299892
outer loop
vertex -0.742826 -0.271769 -0.611843
vertex 0 0 0
vertex -0.739398 -0.266478 -0.618288
end loop
end factet
facet normal -0.00479235 0.00827116 0.00216626
outer loop
vertex -0.739398 -0.266478 -0.618288
vertex 0 0 0
vertex -0.734826 -0.2619 -0.625651
end loop
end factet
facet normal -0.0265622 0.0231858 0.0214916
outer loop
vertex -0.734826 -0.2619 -0.625651
vertex 0 0 0
vertex -0.725321 -0.229266 -0.649112
end loop
end factet
facet normal -0.0133035 3.64482e-05 0.0148525
outer loop
vertex -0.725321 -0.229266 -0.649112
vertex 0 0 0
vertex -0.728559 -0.209812 -0.652059
end loop
end factet
facet normal -0.0326138 0.0589884 0.0174595
outer loop
vertex -0.728559 -0.209812 -0.652059
vertex 0 0 0
vertex -0.69199 -0.175316 -0.700296
end loop
end factet
facet normal -0.0268295 0.0482662 0.014428
outer loop
vertex -0.69199 -0.175316 -0.700296
vertex 0 0 0
vertex -0.65959 -0.146258 -0.737258
end loop
end factet
facet normal 0.00257433 0.0159481 -0.00546693
outer loop
vertex -0.65959 -0.146258 -0.737258
vertex 0 0 0
vertex -0.646937 -0.15174 -0.747293
end loop
end factet
facet normal -0.00578083 0.0302237 -0.00113253
outer loop
vertex -0.646937 -0.15174 -0.747293
vertex 0 0 0
vertex -0.623872 -0.148081 -0.767369
end loop
end factet
facet normal -0.00074926 0.010698 -0.00145527
outer loop
vertex -0.623872 -0.148081 -0.767369
vertex 0 0 0
vertex -0.615411 -0.148405 -0.774109
end loop
end factet
facet normal -0.00591309 0.0144545 0.00192977
outer loop
vertex -0.615411 -0.148405 -0.774109
vertex 0 0 0
vertex -0.604432 -0.142622 -0.783786
end loop
end factet
facet normal -0.0124763 0.0316369 0.00386449
outer loop
vertex -0.604432 -0.142622 -0.783786
vertex 0 0 0
vertex -0.579832 -0.130424 -0.804229
end loop
end factet
facet normal -0.00332475 0.0310229 -0.002634
outer loop
vertex -0.579832 -0.130424 -0.804229
vertex 0 0 0
vertex -0.554255 -0.129213 -0.822256
end loop
end factet
facet normal -0.0502284 0.0266838 0.029664
outer loop
vertex -0.554255 -0.129213 -0.822256
vertex 0 0 0
vertex -0.535006 -0.0712053 -0.841843
end loop
end factet
facet normal -0.0621018 0.0682218 0.0336964
outer loop
vertex -0.535006 -0.0712053 -0.841843
vertex 0 0 0
vertex -0.477386 -0.000553272 -0.878693
end loop
end factet
facet normal 0.0143167 0.0174932 -0.00778915
outer loop
vertex -0.477386 -0.000553272 -0.878693
vertex 0 0 0
vertex -0.461874 -0.0168515 -0.886785
end loop
end factet
facet normal 0.00307979 0.0130763 -0.00185257
outer loop
vertex -0.461874 -0.0168515 -0.886785
vertex 0 0 0
vertex -0.450205 -0.0204367 -0.892691
end loop
end factet
facet normal 0.0176742 0.0153099 -0.00926399
outer loop
vertex -0.450205 -0.0204367 -0.892691
vertex 0 0 0
vertex -0.436206 -0.0403786 -0.89894
end loop
end factet
facet normal 0.0102286 0.000677675 -0.00499383
outer loop
vertex -0.436206 -0.0403786 -0.89894
vertex 0 0 0
vertex -0.435367 -0.0517492 -0.898765
end loop
end factet
facet normal 0.00759681 0.00367719 -0.00389166
outer loop
vertex -0.435367 -0.0517492 -0.898765
vertex 0 0 0
vertex -0.431842 -0.060269 -0.899934
end loop
end factet
facet normal 0.00533575 0.000332862 -0.0025827
outer loop
vertex -0.431842 -0.060269 -0.899934
vertex 0 0 0
vertex -0.431379 -0.0661851 -0.89974
end loop
end factet
facet normal 0.0063002 0.00721547 -0.00355139
outer loop
vertex -0.431379 -0.0661851 -0.89974
vertex 0 0 0
vertex -0.424629 -0.0733822 -0.902389
end loop
end factet
facet normal 0.00303704 0.00169858 -0.00156724
outer loop
vertex -0.424629 -0.0733822 -0.902389
vertex 0 0 0
vertex -0.422978 -0.0767877 -0.90288
end loop
end factet
facet normal 0.0150657 0.000515163 -0.00710176
outer loop
vertex -0.422978 -0.0767877 -0.90288
vertex 0 0 0
vertex -0.421909 -0.0933835 -0.901816
end loop
end factet
facet normal 0.00751929 -0.000248015 -0.00349217
outer loop
vertex -0.421909 -0.0933835 -0.901816
vertex 0 0 0
vertex -0.421792 -0.101635 -0.900978
end loop
end factet
facet normal 0.00456762 0.00606748 -0.00282277
outer loop
vertex -0.421792 -0.101635 -0.900978
vertex 0 0 0
vertex -0.416025 -0.106937 -0.903044
end loop
end factet
facet normal 0.00989185 0.00286159 -0.00489596
outer loop
vertex -0.416025 -0.106937 -0.903044
vertex 0 0 0
vertex -0.41289 -0.1179 -0.903118
end loop
end factet
facet normal 0.0015272 0.000467122 -0.000759188
outer loop
vertex -0.41289 -0.1179 -0.903118
vertex 0 0 0
vertex -0.412378 -0.119593 -0.903129
end loop
end factet
facet normal 0.00424188 0.00108391 -0.00208042
outer loop
vertex -0.412378 -0.119593 -0.903129
vertex 0 0 0
vertex -0.411145 -0.12428 -0.903058
end loop
end factet
facet normal 0.00307603 -0.000332355 -0.00135472
outer loop
vertex -0.411145 -0.12428 -0.903058
vertex 0 0 0
vertex -0.411275 -0.127614 -0.902534
end loop
end factet
facet normal 0.00134066 -0.000534892 -0.000535291
outer loop
vertex -0.411275 -0.127614 -0.902534
vertex 0 0 0
vertex -0.411689 -0.129044 -0.902142
end loop
end factet
facet normal 0.00747634 0.00697744 -0.00440987
outer loop
vertex -0.411689 -0.129044 -0.902142
vertex 0 0 0
vertex -0.4048 -0.137596 -0.903994
end loop
end factet
facet normal 0.00673601 0.00211519 -0.00333827
outer loop
vertex -0.4048 -0.137596 -0.903994
vertex 0 0 0
vertex -0.402416 -0.145033 -0.903895
end loop
end factet
facet normal 0.00427507 0.0124847 -0.00390647
outer loop
vertex -0.402416 -0.145033 -0.903895
vertex 0 0 0
vertex -0.390526 -0.150455 -0.908214
end loop
end factet
facet normal 0.0164186 0.0128847 -0.0091944
outer loop
vertex -0.390526 -0.150455 -0.908214
vertex 0 0 0
vertex -0.377339 -0.168918 -0.910539
end loop
end factet
facet normal 0.00259458 0.0107476 -0.00306907
outer loop
vertex -0.377339 -0.168918 -0.910539
vertex 0 0 0
vertex -0.36701 -0.172428 -0.914096
end loop
end factet
facet normal 0.00388788 0.0038169 -0.00228097
outer loop
vertex -0.36701 -0.172428 -0.914096
vertex 0 0 0
vertex -0.363121 -0.176816 -0.914811
end loop
end factet
facet normal -0.00151913 0.00308099 7.49528e-06
outer loop
vertex -0.363121 -0.176816 -0.914811
vertex 0 0 0
vertex -0.360302 -0.175422 -0.916193
end loop
end factet
facet normal 0.000516534 0.00855744 -0.00184162
outer loop
vertex -0.360302 -0.175422 -0.916193
vertex 0 0 0
vertex -0.352125 -0.176552 -0.91915
end loop
end factet
facet normal 0.00548726 0.0150946 -0.00500157
outer loop
vertex -0.352125 -0.176552 -0.91915
vertex 0 0 0
vertex -0.337318 -0.183332 -0.923367
end loop
end factet
facet normal -0.000503585 0.00840759 -0.00148534
outer loop
vertex -0.337318 -0.183332 -0.923367
vertex 0 0 0
vertex -0.32927 -0.183362 -0.926261
end loop
end factet
facet normal -0.00147559 0.00972292 -0.00140019
outer loop
vertex -0.32927 -0.183362 -0.926261
vertex 0 0 0
vertex -0.319991 -0.182447 -0.929688
end loop
end factet
facet normal -0.00131236 0.00419492 -0.000371531
outer loop
vertex -0.319991 -0.182447 -0.929688
vertex 0 0 0
vertex -0.31602 -0.181344 -0.93126
end loop
end factet
facet normal 0.000651583 0.00566831 -0.0013249
outer loop
vertex -0.31602 -0.181344 -0.93126
vertex 0 0 0
vertex -0.310496 -0.182366 -0.932917
end loop
end factet
facet normal 6.23316e-05 0.00430438 -0.000862166
outer loop
vertex -0.310496 -0.182366 -0.932917
vertex 0 0 0
vertex -0.30632 -0.18269 -0.934234
end loop
end factet
facet normal 0.00475761 0.00876567 -0.00327408
outer loop
vertex -0.30632 -0.18269 -0.934234
vertex 0 0 0
vertex -0.297515 -0.188128 -0.935998
end loop
end factet
facet normal 0.00565121 0.00525671 -0.00285284
outer loop
vertex -0.297515 -0.188128 -0.935998
vertex 0 0 0
vertex -0.292048 -0.19426 -0.936467
end loop
end factet
facet normal -0.00211868 0.00663975 -0.000716608
outer loop
vertex -0.292048 -0.19426 -0.936467
vertex 0 0 0
vertex -0.285684 -0.19248 -0.938795
end loop
end factet
facet normal -0.00154854 0.0151989 -0.00264498
outer loop
vertex -0.285684 -0.19248 -0.938795
vertex 0 0 0
vertex -0.270872 -0.191759 -0.943322
end loop
end factet
facet normal 0.00065279 -0.000714928 -4.21219e-05
outer loop
vertex -0.270872 -0.191759 -0.943322
vertex 0 0 0
vertex -0.270206 -0.191132 -0.943641
end loop
end factet
solid fragmentGeometry
