solid fragmentGeometry
facet normal 0.0044347 -0.00653529 0.0313625
outer loop
vertex -3.3866 1.42431 1.58187
vertex -0.505081 -0.0949782 0.85783
vertex -0.503641 -0.0848538 0.859736
end loop
end factet
facet normal 0.0605992 -0.0186274 0.280859
outer loop
vertex -3.3866 1.42431 1.58187
vertex -0.503641 -0.0848538 0.859736
vertex -0.500808 0.0110838 0.865487
end loop
end factet
facet normal 0.00877881 -0.0419836 0.118186
outer loop
vertex -3.3866 1.42431 1.58187
vertex -0.500808 0.0110838 0.865487
vertex -0.481704 0.0426832 0.875294
end loop
end factet
facet normal 0.0646382 0.0296636 0.20774
outer loop
vertex -3.3866 1.42431 1.58187
vertex -0.481704 0.0426832 0.875294
vertex -0.486077 0.116277 0.866146
end loop
end factet
facet normal 0.0593101 0.036737 0.17322
outer loop
vertex -3.3866 1.42431 1.58187
vertex -0.486077 0.116277 0.866146
vertex -0.488858 0.177251 0.854166
end loop
end factet
facet normal 0.0119128 -0.0109491 0.066201
outer loop
vertex -3.3866 1.42431 1.58187
vertex -0.488858 0.177251 0.854166
vertex -0.479239 0.195958 0.855529
end loop
end factet
facet normal 0.0288162 -0.00314069 0.120656
outer loop
vertex -3.3866 1.42431 1.58187
vertex -0.479239 0.195958 0.855529
vertex -0.466617 0.232125 0.853456
end loop
end factet
facet normal 0.0215188 0.00422025 0.0793552
outer loop
vertex -3.3866 1.42431 1.58187
vertex -0.466617 0.232125 0.853456
vertex -0.459642 0.256454 0.850271
end loop
end factet
facet normal 0.0130096 -0.0207152 0.0851169
outer loop
vertex -3.3866 1.42431 1.58187
vertex -0.459642 0.256454 0.850271
vertex -0.441721 0.278383 0.852869
end loop
end factet
facet normal 0.0153891 -0.0820484 0.19114
outer loop
vertex -3.3866 1.42431 1.58187
vertex -0.441721 0.278383 0.852869
vertex -0.383233 0.320531 0.866252
end loop
end factet
facet normal -0.0142936 -0.0970776 0.0897453
outer loop
vertex -3.3866 1.42431 1.58187
vertex -0.383233 0.320531 0.866252
vertex -0.327608 0.329969 0.885321
end loop
end factet
facet normal 0.00646979 -0.0179453 0.0566068
outer loop
vertex -3.3866 1.42431 1.58187
vertex -0.327608 0.329969 0.885321
vertex -0.309789 0.342099 0.88713
end loop
end factet
facet normal 0.00311989 -0.0177219 0.0414228
outer loop
vertex -3.3866 1.42431 1.58187
vertex -0.309789 0.342099 0.88713
vertex -0.294129 0.350054 0.889354
end loop
end factet
facet normal 0.000663638 -0.0106282 0.0194502
outer loop
vertex -3.3866 1.42431 1.58187
vertex -0.294129 0.350054 0.889354
vertex -0.285507 0.353349 0.890859
end loop
end factet
facet normal 0.000977695 -0.0267377 0.0458274
outer loop
vertex -3.3866 1.42431 1.58187
vertex -0.285507 0.353349 0.890859
vertex -0.263771 0.36062 0.894638
end loop
end factet
facet normal 0.0480109 0.00753498 0.206504
outer loop
vertex -3.3866 1.42431 1.58187
vertex -0.263771 0.36062 0.894638
vertex -0.222714 0.412763 0.88319
end loop
end factet
facet normal 0.0222359 0.0311894 0.0555372
outer loop
vertex -3.3866 1.42431 1.58187
vertex -0.222714 0.412763 0.88319
vertex -0.224984 0.431042 0.873834
end loop
end factet
facet normal 0.0990641 0.172695 0.200091
outer loop
vertex -3.3866 1.42431 1.58187
vertex -0.224984 0.431042 0.873834
vertex -0.254194 0.503506 0.825752
end loop
end factet
facet normal 0.0547078 0.105058 0.098702
outer loop
vertex -3.3866 1.42431 1.58187
vertex -0.254194 0.503506 0.825752
vertex -0.271771 0.540183 0.796456
end loop
end factet
facet normal 0.0317069 0.0695395 0.0474658
outer loop
vertex -3.3866 1.42431 1.58187
vertex -0.271771 0.540183 0.796456
vertex -0.286282 0.559541 0.77779
end loop
end factet
facet normal 0.0322672 0.0562625 0.063905
outer loop
vertex -3.3866 1.42431 1.58187
vertex -0.286282 0.559541 0.77779
vertex -0.289689 0.581103 0.760526
end loop
end factet
facet normal 0.0446894 0.0425768 0.124794
outer loop
vertex -3.3866 1.42431 1.58187
vertex -0.289689 0.581103 0.760526
vertex -0.268177 0.615542 0.741073
end loop
end factet
facet normal 0.0560238 0.100142 0.11146
outer loop
vertex -3.3866 1.42431 1.58187
vertex -0.268177 0.615542 0.741073
vertex -0.269199 0.65155 0.709235
end loop
end factet
facet normal -0.0222481 0.00543165 -0.0842896
outer loop
vertex -3.3866 1.42431 1.58187
vertex -0.269199 0.65155 0.709235
vertex -0.298148 0.631688 0.715597
end loop
end factet
facet normal 0.000132084 0.050983 -0.0461776
outer loop
vertex -3.3866 1.42431 1.58187
vertex -0.298148 0.631688 0.715597
vertex -0.329485 0.624778 0.707878
end loop
end factet
facet normal 0.0141174 0.0746369 -0.0188973
outer loop
vertex -3.3866 1.42431 1.58187
vertex -0.329485 0.624778 0.707878
vertex -0.359082 0.626337 0.691926
end loop
end factet
facet normal 0.00805521 0.0976281 -0.0601354
outer loop
vertex -3.3866 1.42431 1.58187
vertex -0.359082 0.626337 0.691926
vertex -0.405112 0.618606 0.673209
end loop
end factet
facet normal 0.0274771 0.142486 -0.0361836
outer loop
vertex -3.3866 1.42431 1.58187
vertex -0.405112 0.618606 0.673209
vertex -0.453921 0.61966 0.640294
end loop
end factet
facet normal 0.00223476 0.0587115 -0.0432131
outer loop
vertex -3.3866 1.42431 1.58187
vertex -0.453921 0.61966 0.640294
vertex -0.479859 0.612042 0.628602
end loop
end factet
facet normal 0.0407442 0.106884 0.0331645
outer loop
vertex -3.3866 1.42431 1.58187
vertex -0.479859 0.612042 0.628602
vertex -0.497779 0.628459 0.597708
end loop
end factet
facet normal 0.0157674 0.0800264 -0.0184317
outer loop
vertex -3.3866 1.42431 1.58187
vertex -0.497779 0.628459 0.597708
vertex -0.52077 0.628412 0.577838
end loop
end factet
facet normal -0.0105605 0.0293357 -0.0533977
outer loop
vertex -3.3866 1.42431 1.58187
vertex -0.52077 0.628412 0.577838
vertex -0.540089 0.615145 0.57437
end loop
end factet
facet normal -0.0114442 0.00228047 -0.0341651
outer loop
vertex -3.3866 1.42431 1.58187
vertex -0.540089 0.615145 0.57437
vertex -0.548539 0.605545 0.57656
end loop
end factet
facet normal -0.000588119 0.0331919 -0.0286932
outer loop
vertex -3.3866 1.42431 1.58187
vertex -0.548539 0.605545 0.57656
vertex -0.562263 0.599394 0.569726
end loop
end factet
facet normal -0.012419 0.012038 -0.044466
outer loop
vertex -3.3866 1.42431 1.58187
vertex -0.562263 0.599394 0.569726
vertex -0.574705 0.587284 0.569922
end loop
end factet
facet normal -0.00540787 -0.0017364 -0.0135906
outer loop
vertex -3.3866 1.42431 1.58187
vertex -0.574705 0.587284 0.569922
vertex -0.577297 0.583222 0.571472
end loop
end factet
facet normal -0.00296783 0.00761628 -0.0145917
outer loop
vertex -3.3866 1.42431 1.58187
vertex -0.577297 0.583222 0.571472
vertex -0.582059 0.579454 0.570474
end loop
end factet
facet normal -0.0069766 -0.000761747 -0.0187094
outer loop
vertex -3.3866 1.42431 1.58187
vertex -0.582059 0.579454 0.570474
vertex -0.58589 0.573937 0.572127
end loop
end factet
facet normal -0.00652397 0.00947595 -0.0260756
outer loop
vertex -3.3866 1.42431 1.58187
vertex -0.58589 0.573937 0.572127
vertex -0.593367 0.566897 0.57144
end loop
end factet
facet normal 0.0250711 0.0632598 0.0156271
outer loop
vertex -3.3866 1.42431 1.58187
vertex -0.593367 0.566897 0.57144
vertex -0.603123 0.575486 0.552321
end loop
end factet
facet normal 0.00919312 0.0424974 -0.0101831
outer loop
vertex -3.3866 1.42431 1.58187
vertex -0.603123 0.575486 0.552321
vertex -0.613721 0.57506 0.540974
end loop
end factet
facet normal 0.0185457 0.0213516 0.0319843
outer loop
vertex -3.3866 1.42431 1.58187
vertex -0.613721 0.57506 0.540974
vertex -0.611137 0.585803 0.532303
end loop
end factet
facet normal 0.0407119 0.0862546 0.038749
outer loop
vertex -3.3866 1.42431 1.58187
vertex -0.611137 0.585803 0.532303
vertex -0.619025 0.602147 0.504209
end loop
end factet
facet normal 0.0105212 0.0330153 0.00183201
outer loop
vertex -3.3866 1.42431 1.58187
vertex -0.619025 0.602147 0.504209
vertex -0.624608 0.604468 0.494453
end loop
end factet
facet normal 0.0173805 0.0572956 0.000948906
outer loop
vertex -3.3866 1.42431 1.58187
vertex -0.624608 0.604468 0.494453
vertex -0.634474 0.60774 0.477593
end loop
end factet
facet normal 0.0232961 0.0518622 0.0197096
outer loop
vertex -3.3866 1.42431 1.58187
vertex -0.634474 0.60774 0.477593
vertex -0.638902 0.616215 0.460526
end loop
end factet
facet normal 0.0135477 0.0395703 0.0046804
outer loop
vertex -3.3866 1.42431 1.58187
vertex -0.638902 0.616215 0.460526
vertex -0.644346 0.61952 0.448346
end loop
end factet
facet normal 0.00690621 0.0285256 -0.00354505
outer loop
vertex -3.3866 1.42431 1.58187
vertex -0.644346 0.61952 0.448346
vertex -0.649701 0.619798 0.440157
end loop
end factet
facet normal -0.000180364 0.008775 -0.00661564
outer loop
vertex -3.3866 1.42431 1.58187
vertex -0.649701 0.619798 0.440157
vertex -0.652559 0.618221 0.438143
end loop
end factet
facet normal 0.00301039 0.0108006 -0.000415802
outer loop
vertex -3.3866 1.42431 1.58187
vertex -0.652559 0.618221 0.438143
vertex -0.654345 0.618596 0.43494
end loop
end factet
facet normal 0.00160819 0.00560045 -0.000102997
outer loop
vertex -3.3866 1.42431 1.58187
vertex -0.654345 0.618596 0.43494
vertex -0.65524 0.618822 0.433266
end loop
end factet
facet normal 0.0027169 0.0349407 -0.0180423
outer loop
vertex -3.3866 1.42431 1.58187
vertex -0.65524 0.618822 0.433266
vertex -0.664594 0.614975 0.424407
end loop
end factet
facet normal 0.00275099 0.0242269 -0.0104706
outer loop
vertex -3.3866 1.42431 1.58187
vertex -0.664594 0.614975 0.424407
vertex -0.670531 0.612893 0.418031
end loop
end factet
facet normal 0.00496918 0.0250864 -0.00589323
outer loop
vertex -3.3866 1.42431 1.58187
vertex -0.670531 0.612893 0.418031
vertex -0.67552 0.612214 0.410933
end loop
end factet
facet normal 0.00067848 0.00989532 -0.0052917
outer loop
vertex -3.3866 1.42431 1.58187
vertex -0.67552 0.612214 0.410933
vertex -0.678114 0.611039 0.408403
end loop
end factet
facet normal 0.0299147 0.132229 -0.0225947
outer loop
vertex -3.3866 1.42431 1.58187
vertex -0.678114 0.611039 0.408403
vertex -0.701237 0.60964 0.369601
end loop
end factet
facet normal 0.00554025 0.186821 -0.113275
outer loop
vertex -3.3866 1.42431 1.58187
vertex -0.701237 0.60964 0.369601
vertex -0.747558 0.58151 0.320942
end loop
end factet
facet normal 0.0698258 0.186246 0.0216551
outer loop
vertex -3.3866 1.42431 1.58187
vertex -0.747558 0.58151 0.320942
vertex -0.761973 0.59432 0.257256
end loop
end factet
facet normal 0.0365983 0.115717 1.0252e-05
outer loop
vertex -3.3866 1.42431 1.58187
vertex -0.761973 0.59432 0.257256
vertex -0.771717 0.597405 0.218085
end loop
end factet
facet normal 0.0393344 0.14596 -0.0130811
outer loop
vertex -3.3866 1.42431 1.58187
vertex -0.771717 0.597405 0.218085
vertex -0.78463 0.596486 0.169001
end loop
end factet
facet normal 0.0122291 0.121421 -0.0486212
outer loop
vertex -3.3866 1.42431 1.58187
vertex -0.78463 0.596486 0.169001
vertex -0.801606 0.5832 0.131553
end loop
end factet
facet normal 0.0178266 0.0784278 -0.0137105
outer loop
vertex -3.3866 1.42431 1.58187
vertex -0.801606 0.5832 0.131553
vertex -0.807896 0.579943 0.104743
end loop
end factet
facet normal 0.0121464 0.129109 -0.052598
outer loop
vertex -3.3866 1.42431 1.58187
vertex -0.807896 0.579943 0.104743
vertex -0.823005 0.564493 0.0633301
end loop
end factet
facet normal -0.00143683 0.0894752 -0.0530875
outer loop
vertex -3.3866 1.42431 1.58187
vertex -0.823005 0.564493 0.0633301
vertex -0.835682 0.548037 0.0359372
end loop
end factet
facet normal -0.000828624 0.054554 -0.03229
outer loop
vertex -3.3866 1.42431 1.58187
vertex -0.835682 0.548037 0.0359372
vertex -0.842838 0.537837 0.0188876
end loop
end factet
facet normal -0.0144659 0.0127966 -0.0308015
outer loop
vertex -3.3866 1.42431 1.58187
vertex -0.842838 0.537837 0.0188876
vertex -0.849113 0.527915 0.0177127
end loop
end factet
facet normal -0.0151365 0.0356793 -0.0450027
outer loop
vertex -3.3866 1.42431 1.58187
vertex -0.849113 0.527915 0.0177127
vertex -0.858123 0.513362 0.00920569
end loop
end factet
facet normal 0.0179263 0.10414 -0.0315003
outer loop
vertex -3.3866 1.42431 1.58187
vertex -0.858123 0.513362 0.00920569
vertex -0.86384 0.502964 -0.0284251
end loop
end factet
facet normal -0.0129187 0.0640693 -0.0568969
outer loop
vertex -3.3866 1.42431 1.58187
vertex -0.86384 0.502964 -0.0284251
vertex -0.87376 0.484034 -0.0474895
end loop
end factet
facet normal -0.00867248 0.0379801 -0.0352929
outer loop
vertex -3.3866 1.42431 1.58187
vertex -0.87376 0.484034 -0.0474895
vertex -0.879549 0.472155 -0.0588503
end loop
end factet
facet normal -0.00511122 0.104598 -0.0685108
outer loop
vertex -3.3866 1.42431 1.58187
vertex -0.879549 0.472155 -0.0588503
vertex -0.888846 0.448358 -0.0944873
end loop
end factet
facet normal 0.02784 0.0239615 0.0275314
outer loop
vertex -3.3866 1.42431 1.58187
vertex -0.888846 0.448358 -0.0944873
vertex -0.882853 0.457039 -0.108103
end loop
end factet
facet normal 0.0131665 0.02142 0.00724673
outer loop
vertex -3.3866 1.42431 1.58187
vertex -0.882853 0.457039 -0.108103
vertex -0.880517 0.459031 -0.118234
end loop
end factet
facet normal 0.00819039 0.0200067 0.000714064
outer loop
vertex -3.3866 1.42431 1.58187
vertex -0.880517 0.459031 -0.118234
vertex -0.879378 0.458877 -0.126991
end loop
end factet
facet normal 0.00529051 0.00675964 0.00394344
outer loop
vertex -3.3866 1.42431 1.58187
vertex -0.879378 0.458877 -0.126991
vertex -0.878273 0.460024 -0.13044
end loop
end factet
facet normal 0.0139914 0.0192633 0.00964785
outer loop
vertex -3.3866 1.42431 1.58187
vertex -0.878273 0.460024 -0.13044
vertex -0.875347 0.462746 -0.140116
end loop
end factet
facet normal 0.0169209 0.0393085 0.00272655
outer loop
vertex -3.3866 1.42431 1.58187
vertex -0.875347 0.462746 -0.140116
vertex -0.872361 0.462688 -0.157817
end loop
end factet
facet normal 0.00501394 0.0258317 -0.00703216
outer loop
vertex -3.3866 1.42431 1.58187
vertex -0.872361 0.462688 -0.157817
vertex -0.871948 0.459734 -0.168377
end loop
end factet
facet normal 0.00445724 0.0129194 -0.000716209
outer loop
vertex -3.3866 1.42431 1.58187
vertex -0.871948 0.459734 -0.168377
vertex -0.871142 0.45914 -0.174076
end loop
end factet
facet normal 0.00876844 0.00637102 0.00905943
outer loop
vertex -3.3866 1.42431 1.58187
vertex -0.871142 0.45914 -0.174076
vertex -0.868864 0.461867 -0.178199
end loop
end factet
facet normal 0.00440526 0.00549793 0.00329518
outer loop
vertex -3.3866 1.42431 1.58187
vertex -0.868864 0.461867 -0.178199
vertex -0.867779 0.462761 -0.181141
end loop
end factet
facet normal 0.00188363 0.00273228 0.00120068
outer loop
vertex -3.3866 1.42431 1.58187
vertex -0.867779 0.462761 -0.181141
vertex -0.867323 0.463064 -0.182545
end loop
end factet
facet normal 0.00143301 0.00594521 -0.00119281
outer loop
vertex -3.3866 1.42431 1.58187
vertex -0.867323 0.463064 -0.182545
vertex -0.867088 0.462501 -0.185069
end loop
end factet
facet normal 0.000658274 0.00186062 -7.41482e-05
outer loop
vertex -3.3866 1.42431 1.58187
vertex -0.867088 0.462501 -0.185069
vertex -0.866953 0.46242 -0.185902
end loop
end factet
facet normal 0.000326395 0.00213528 -0.000696659
outer loop
vertex -3.3866 1.42431 1.58187
vertex -0.866953 0.46242 -0.185902
vertex -0.86692 0.462131 -0.186773
end loop
end factet
facet normal 0.000385284 0.00719213 -0.00336385
outer loop
vertex -3.3866 1.42431 1.58187
vertex -0.86692 0.462131 -0.186773
vertex -0.867007 0.460829 -0.189566
end loop
end factet
facet normal 0.00197005 0.00546074 -0.000168085
outer loop
vertex -3.3866 1.42431 1.58187
vertex -0.867007 0.460829 -0.189566
vertex -0.866586 0.460601 -0.19203
end loop
end factet
facet normal 0.00557709 -0.00127172 0.00861382
outer loop
vertex -3.3866 1.42431 1.58187
vertex -0.866586 0.460601 -0.19203
vertex -0.864952 0.463394 -0.192675
end loop
end factet
facet normal 0.00842249 0.00528622 0.00910616
outer loop
vertex -3.3866 1.42431 1.58187
vertex -0.864952 0.463394 -0.192675
vertex -0.862644 0.466126 -0.196396
end loop
end factet
facet normal 0.0052309 0.00335312 0.00561762
outer loop
vertex -3.3866 1.42431 1.58187
vertex -0.862644 0.466126 -0.196396
vertex -0.861198 0.467803 -0.198743
end loop
end factet
facet normal 0.00388288 -5.67436e-05 0.00553727
outer loop
vertex -3.3866 1.42431 1.58187
vertex -0.861198 0.467803 -0.198743
vertex -0.860058 0.469564 -0.199525
end loop
end factet
facet normal 0.0124227 -0.00367498 0.0195885
outer loop
vertex -3.3866 1.42431 1.58187
vertex -0.860058 0.469564 -0.199525
vertex -0.856291 0.475893 -0.200726
end loop
end factet
facet normal 0.02657 0.0117607 0.0314577
outer loop
vertex -3.3866 1.42431 1.58187
vertex -0.856291 0.475893 -0.200726
vertex -0.848481 0.485398 -0.210876
end loop
end factet
facet normal 0.00545275 0.00579786 0.00468326
outer loop
vertex -3.3866 1.42431 1.58187
vertex -0.848481 0.485398 -0.210876
vertex -0.846905 0.486661 -0.214273
end loop
end factet
facet normal 0.0166438 -0.000610828 0.0238528
outer loop
vertex -3.3866 1.42431 1.58187
vertex -0.846905 0.486661 -0.214273
vertex -0.841686 0.494126 -0.217724
end loop
end factet
facet normal 0.00781393 0.00811291 0.00685644
outer loop
vertex -3.3866 1.42431 1.58187
vertex -0.841686 0.494126 -0.217724
vertex -0.839335 0.495961 -0.222574
end loop
end factet
facet normal 0.010458 0.0107417 0.00923681
outer loop
vertex -3.3866 1.42431 1.58187
vertex -0.839335 0.495961 -0.222574
vertex -0.836128 0.498418 -0.229064
end loop
end factet
facet normal 0.00612187 -0.000383854 0.00881815
outer loop
vertex -3.3866 1.42431 1.58187
vertex -0.836128 0.498418 -0.229064
vertex -0.834143 0.501155 -0.230322
end loop
end factet
facet normal 0.00900292 0.00324249 0.0110288
outer loop
vertex -3.3866 1.42431 1.58187
vertex -0.834143 0.501155 -0.230322
vertex -0.83124 0.504426 -0.233653
end loop
end factet
facet normal 0.00567496 0.0060339 0.00493026
outer loop
vertex -3.3866 1.42431 1.58187
vertex -0.83124 0.504426 -0.233653
vertex -0.829429 0.505703 -0.237302
end loop
end factet
facet normal 0.00328147 0.00882101 0.000158548
outer loop
vertex -3.3866 1.42431 1.58187
vertex -0.829429 0.505703 -0.237302
vertex -0.828409 0.505399 -0.241477
end loop
end factet
facet normal 0.00126386 0.00428247 -0.000385046
outer loop
vertex -3.3866 1.42431 1.58187
vertex -0.828409 0.505399 -0.241477
vertex -0.828015 0.505107 -0.243432
end loop
end factet
facet normal 0.0036813 0.00433779 0.00297546
outer loop
vertex -3.3866 1.42431 1.58187
vertex -0.828015 0.505107 -0.243432
vertex -0.826813 0.505838 -0.245984
end loop
end factet
facet normal 0.00195253 0.00493336 0.000255346
outer loop
vertex -3.3866 1.42431 1.58187
vertex -0.826813 0.505838 -0.245984
vertex -0.826179 0.50571 -0.248364
end loop
end factet
facet normal 0.00200152 0.0150571 -0.00475717
outer loop
vertex -3.3866 1.42431 1.58187
vertex -0.826179 0.50571 -0.248364
vertex -0.825524 0.503617 -0.254713
end loop
end factet
facet normal -0.000841856 0.0054388 -0.00390077
outer loop
vertex -3.3866 1.42431 1.58187
vertex -0.825524 0.503617 -0.254713
vertex -0.825795 0.502192 -0.256643
end loop
end factet
facet normal -0.000720024 0.0110273 -0.00653362
outer loop
vertex -3.3866 1.42431 1.58187
vertex -0.825795 0.502192 -0.256643
vertex -0.825995 0.499712 -0.260805
end loop
end factet
facet normal -0.0618593 0.0182347 -0.0951099
outer loop
vertex -3.3866 1.42431 1.58187
vertex -0.825995 0.499712 -0.260805
vertex -0.845581 0.469641 -0.253832
end loop
end factet
facet normal -0.0800205 -0.0463104 -0.0866823
outer loop
vertex -3.3866 1.42431 1.58187
vertex -0.845581 0.469641 -0.253832
vertex -0.868766 0.444238 -0.218858
end loop
end factet
facet normal -0.104597 -0.0476818 -0.120299
outer loop
vertex -3.3866 1.42431 1.58187
vertex -0.868766 0.444238 -0.218858
vertex -0.89542 0.406834 -0.180858
end loop
end factet
facet normal -0.00567806 -0.00263882 -0.0065012
outer loop
vertex -3.3866 1.42431 1.58187
vertex -0.89542 0.406834 -0.180858
vertex -0.896757 0.404771 -0.178852
end loop
end factet
facet normal -0.0126917 -0.0122142 -0.0108752
outer loop
vertex -3.3866 1.42431 1.58187
vertex -0.896757 0.404771 -0.178852
vertex -0.899548 0.401546 -0.171973
end loop
end factet
facet normal -0.0084933 -0.00869083 -0.00697565
outer loop
vertex -3.3866 1.42431 1.58187
vertex -0.899548 0.401546 -0.171973
vertex -0.901363 0.399487 -0.167198
end loop
end factet
facet normal -0.01033 -0.0294299 0.00256634
outer loop
vertex -3.3866 1.42431 1.58187
vertex -0.901363 0.399487 -0.167198
vertex -0.902924 0.401164 -0.154257
end loop
end factet
facet normal -0.0205005 -0.0168409 -0.019403
outer loop
vertex -3.3866 1.42431 1.58187
vertex -0.902924 0.401164 -0.154257
vertex -0.907198 0.395112 -0.144489
end loop
end factet
facet normal -0.0288626 -0.0435209 -0.0155072
outer loop
vertex -3.3866 1.42431 1.58187
vertex -0.907198 0.395112 -0.144489
vertex -0.912109 0.390896 -0.123517
end loop
end factet
facet normal -0.01586 -0.0329375 -0.00305343
outer loop
vertex -3.3866 1.42431 1.58187
vertex -0.912109 0.390896 -0.123517
vertex -0.914145 0.390513 -0.108803
end loop
end factet
facet normal -0.0114769 -0.0264711 -0.000597954
outer loop
vertex -3.3866 1.42431 1.58187
vertex -0.914145 0.390513 -0.108803
vertex -0.915334 0.390768 -0.0972837
end loop
end factet
facet normal -0.00508034 -0.00579786 -0.00390863
outer loop
vertex -3.3866 1.42431 1.58187
vertex -0.915334 0.390768 -0.0972837
vertex -0.916164 0.389534 -0.0943735
end loop
end factet
facet normal -0.00125659 -0.00433064 0.00082159
outer loop
vertex -3.3866 1.42431 1.58187
vertex -0.916164 0.389534 -0.0943735
vertex -0.916198 0.38988 -0.0925974
end loop
end factet
facet normal -0.00943685 -0.0124917 -0.00620556
outer loop
vertex -3.3866 1.42431 1.58187
vertex -0.916198 0.38988 -0.0925974
vertex -0.917601 0.387956 -0.0865898
end loop
end factet
facet normal -0.0104228 -0.00700378 -0.0110731
outer loop
vertex -3.3866 1.42431 1.58187
vertex -0.917601 0.387956 -0.0865898
vertex -0.919528 0.384279 -0.0824514
end loop
end factet
facet normal -0.00425637 -0.0107183 0.000388384
outer loop
vertex -3.3866 1.42431 1.58187
vertex -0.919528 0.384279 -0.0824514
vertex -0.919808 0.384555 -0.077918
end loop
end factet
facet normal -0.000135422 -0.00764513 0.00458789
outer loop
vertex -3.3866 1.42431 1.58187
vertex -0.919808 0.384555 -0.077918
vertex -0.919342 0.386219 -0.0751318
end loop
end factet
facet normal -0.00208175 -0.00513601 0.00011754
outer loop
vertex -3.3866 1.42431 1.58187
vertex -0.919342 0.386219 -0.0751318
vertex -0.919474 0.386322 -0.072962
end loop
end factet
facet normal -0.00694168 -0.00803757 -0.00530767
outer loop
vertex -3.3866 1.42431 1.58187
vertex -0.919474 0.386322 -0.072962
vertex -0.920499 0.384602 -0.0690164
end loop
end factet
facet normal -0.0141399 -0.0112362 -0.014046
outer loop
vertex -3.3866 1.42431 1.58187
vertex -0.920499 0.384602 -0.0690164
vertex -0.922884 0.379912 -0.0628634
end loop
end factet
facet normal -0.00567257 -0.00889874 -0.00284672
outer loop
vertex -3.3866 1.42431 1.58187
vertex -0.922884 0.379912 -0.0628634
vertex -0.923515 0.379024 -0.0588303
end loop
end factet
facet normal -0.00650871 -0.0130143 -0.00147986
outer loop
vertex -3.3866 1.42431 1.58187
vertex -0.923515 0.379024 -0.0588303
vertex -0.924015 0.378635 -0.0532135
end loop
end factet
facet normal -0.0221511 -0.0235009 -0.0183322
outer loop
vertex -3.3866 1.42431 1.58187
vertex -0.924015 0.378635 -0.0532135
vertex -0.927098 0.3725 -0.0416231
end loop
end factet
facet normal -0.00544214 -0.0116851 -0.000674486
outer loop
vertex -3.3866 1.42431 1.58187
vertex -0.927098 0.3725 -0.0416231
vertex -0.92737 0.372342 -0.0366927
end loop
end factet
facet normal -0.00442648 -0.0181284 0.0050571
outer loop
vertex -3.3866 1.42431 1.58187
vertex -0.92737 0.372342 -0.0366927
vertex -0.926879 0.374188 -0.0296443
end loop
end factet
facet normal -0.0232483 -0.0280557 -0.0172029
outer loop
vertex -3.3866 1.42431 1.58187
vertex -0.926879 0.374188 -0.0296443
vertex -0.929547 0.368334 -0.0164901
end loop
end factet
facet normal -0.00744712 -0.0133252 -0.0026443
outer loop
vertex -3.3866 1.42431 1.58187
vertex -0.929547 0.368334 -0.0164901
vertex -0.929983 0.367445 -0.0107834
end loop
end factet
facet normal -0.00590944 -0.0118792 -0.00123239
outer loop
vertex -3.3866 1.42431 1.58187
vertex -0.929983 0.367445 -0.0107834
vertex -0.93019 0.367032 -0.00581349
end loop
end factet
facet normal -0.0101011 -0.0100286 -0.00895
outer loop
vertex -3.3866 1.42431 1.58187
vertex -0.93019 0.367032 -0.00581349
vertex -0.931429 0.363922 -0.000930052
end loop
end factet
facet normal -0.0225971 -0.0201662 -0.0215416
outer loop
vertex -3.3866 1.42431 1.58187
vertex -0.931429 0.363922 -0.000930052
vertex -0.934294 0.356386 0.00913085
end loop
end factet
facet normal -0.026122 -0.0270262 -0.0223799
outer loop
vertex -3.3866 1.42431 1.58187
vertex -0.934294 0.356386 0.00913085
vertex -0.937065 0.348466 0.0219283
end loop
end factet
facet normal -0.00650609 -0.00850391 -0.00435162
outer loop
vertex -3.3866 1.42431 1.58187
vertex -0.937065 0.348466 0.0219283
vertex -0.937549 0.346902 0.0257083
end loop
end factet
facet normal -0.00965023 -0.00824142 -0.00948119
outer loop
vertex -3.3866 1.42431 1.58187
vertex -0.937549 0.346902 0.0257083
vertex -0.938671 0.343524 0.0297866
end loop
end factet
facet normal -0.00388777 -0.0103049 0.00104403
outer loop
vertex -3.3866 1.42431 1.58187
vertex -0.938671 0.343524 0.0297866
vertex -0.938419 0.343839 0.0338361
end loop
end factet
facet normal -0.00257123 -0.0047121 -0.000777483
outer loop
vertex -3.3866 1.42431 1.58187
vertex -0.938419 0.343839 0.0338361
vertex -0.938457 0.343538 0.0357847
end loop
end factet
facet normal -0.262599 -0.245289 -0.244347
outer loop
vertex -3.3866 1.42431 1.58187
vertex -0.938457 0.343538 0.0357847
vertex -0.956517 0.251702 0.147384
end loop
end factet
facet normal -0.18958 -0.0660453 -0.26717
outer loop
vertex -3.3866 1.42431 1.58187
vertex -0.956517 0.251702 0.147384
vertex -0.971653 0.149063 0.183497
end loop
end factet
facet normal -0.0796058 -0.144557 -0.00564861
outer loop
vertex -3.3866 1.42431 1.58187
vertex -0.971653 0.149063 0.183497
vertex -0.961133 0.141169 0.237265
end loop
end factet
facet normal -0.139751 -0.171141 -0.0887737
outer loop
vertex -3.3866 1.42431 1.58187
vertex -0.961133 0.141169 0.237265
vertex -0.948617 0.097947 0.300886
end loop
end factet
facet normal -0.0932825 -0.0296633 -0.146822
outer loop
vertex -3.3866 1.42431 1.58187
vertex -0.948617 0.097947 0.300886
vertex -0.948926 0.0378921 0.313216
end loop
end factet
facet normal -0.26259 -0.213173 -0.271598
outer loop
vertex -3.3866 1.42431 1.58187
vertex -0.948926 0.0378921 0.313216
vertex -0.918506 -0.0908259 0.384834
end loop
end factet
facet normal -0.113245 -0.0967066 -0.111087
outer loop
vertex -3.3866 1.42431 1.58187
vertex -0.918506 -0.0908259 0.384834
vertex -0.898055 -0.14839 0.414098
end loop
end factet
facet normal -0.0122459 -0.0235293 0.00559187
outer loop
vertex -3.3866 1.42431 1.58187
vertex -0.898055 -0.14839 0.414098
vertex -0.894432 -0.148433 0.421852
end loop
end factet
facet normal -0.0464447 -0.0989158 0.034328
outer loop
vertex -3.3866 1.42431 1.58187
vertex -0.894432 -0.148433 0.421852
vertex -0.879033 -0.144376 0.454375
end loop
end factet
facet normal -0.0651488 -0.0988386 -0.0073781
outer loop
vertex -3.3866 1.42431 1.58187
vertex -0.879033 -0.144376 0.454375
vertex -0.859793 -0.159354 0.485141
end loop
end factet
facet normal -0.0707288 -0.203276 0.130574
outer loop
vertex -3.3866 1.42431 1.58187
vertex -0.859793 -0.159354 0.485141
vertex -0.824782 -0.129622 0.550393
end loop
end factet
facet normal -0.0675324 -0.128838 0.0263693
outer loop
vertex -3.3866 1.42431 1.58187
vertex -0.824782 -0.129622 0.550393
vertex -0.796336 -0.136583 0.589231
end loop
end factet
facet normal 0.00520146 -0.0513804 0.0943675
outer loop
vertex -3.3866 1.42431 1.58187
vertex -0.796336 -0.136583 0.589231
vertex -0.788477 -0.104888 0.606055
end loop
end factet
facet normal -0.0133532 -0.0448446 0.0347226
outer loop
vertex -3.3866 1.42431 1.58187
vertex -0.788477 -0.104888 0.606055
vertex -0.778807 -0.0972144 0.619684
end loop
end factet
facet normal -0.00398076 -0.0128198 0.00948334
outer loop
vertex -3.3866 1.42431 1.58187
vertex -0.778807 -0.0972144 0.619684
vertex -0.775961 -0.0952386 0.62355
end loop
end factet
facet normal -0.00434589 -0.0111663 0.005867
outer loop
vertex -3.3866 1.42431 1.58187
vertex -0.775961 -0.0952386 0.62355
vertex -0.773367 -0.0945009 0.626875
end loop
end factet
facet normal -0.00244832 -0.0178709 0.0217221
outer loop
vertex -3.3866 1.42431 1.58187
vertex -0.773367 -0.0945009 0.626875
vertex -0.769629 -0.0883612 0.632348
end loop
end factet
facet normal -0.00231826 -0.0106077 0.0105093
outer loop
vertex -3.3866 1.42431 1.58187
vertex -0.769629 -0.0883612 0.632348
vertex -0.767288 -0.0856988 0.635551
end loop
end factet
facet normal -0.00186491 -0.00827312 0.00803971
outer loop
vertex -3.3866 1.42431 1.58187
vertex -0.767288 -0.0856988 0.635551
vertex -0.765439 -0.0836949 0.638042
end loop
end factet
facet normal -0.00207353 -0.00573063 0.0033977
outer loop
vertex -3.3866 1.42431 1.58187
vertex -0.765439 -0.0836949 0.638042
vertex -0.764078 -0.0831818 0.639738
end loop
end factet
facet normal -0.00193906 -0.00374746 0.000598907
outer loop
vertex -3.3866 1.42431 1.58187
vertex -0.764078 -0.0831818 0.639738
vertex -0.763131 -0.0834979 0.640827
end loop
end factet
facet normal -0.000527859 -0.00144863 0.000849247
outer loop
vertex -3.3866 1.42431 1.58187
vertex -0.763131 -0.0834979 0.640827
vertex -0.762785 -0.083373 0.641255
end loop
end factet
facet normal -0.00469267 -0.00774026 -0.000683308
outer loop
vertex -3.3866 1.42431 1.58187
vertex -0.762785 -0.083373 0.641255
vertex -0.760754 -0.0848006 0.643477
end loop
end factet
facet normal -0.00687194 -0.0121701 0.000342369
outer loop
vertex -3.3866 1.42431 1.58187
vertex -0.760754 -0.0848006 0.643477
vertex -0.757586 -0.0864907 0.64698
end loop
end factet
facet normal -0.00442386 -0.00988793 0.00353861
outer loop
vertex -3.3866 1.42431 1.58187
vertex -0.757586 -0.0864907 0.64698
vertex -0.755108 -0.0865686 0.64986
end loop
end factet
facet normal -0.00158274 -0.00477958 0.00327921
outer loop
vertex -3.3866 1.42431 1.58187
vertex -0.755108 -0.0865686 0.64986
vertex -0.75396 -0.0859817 0.651269
end loop
end factet
facet normal -0.00296998 -0.00558043 0.000654697
outer loop
vertex -3.3866 1.42431 1.58187
vertex -0.75396 -0.0859817 0.651269
vertex -0.752503 -0.0865685 0.652874
end loop
end factet
facet normal -0.00507975 -0.0134027 0.00739384
outer loop
vertex -3.3866 1.42431 1.58187
vertex -0.752503 -0.0865685 0.652874
vertex -0.749189 -0.0856626 0.656793
end loop
end factet
facet normal -0.00298607 -0.0104496 0.00854373
outer loop
vertex -3.3866 1.42431 1.58187
vertex -0.749189 -0.0856626 0.656793
vertex -0.74668 -0.0838595 0.659876
end loop
end factet
facet normal -0.00322008 -0.00793314 0.00375724
outer loop
vertex -3.3866 1.42431 1.58187
vertex -0.74668 -0.0838595 0.659876
vertex -0.74467 -0.0835849 0.662178
end loop
end factet
facet normal -0.00739336 -0.0240984 0.0182729
outer loop
vertex -3.3866 1.42431 1.58187
vertex -0.74467 -0.0835849 0.662178
vertex -0.738728 -0.0800597 0.669232
end loop
end factet
facet normal -0.0177923 -0.0471435 0.026089
outer loop
vertex -3.3866 1.42431 1.58187
vertex -0.738728 -0.0800597 0.669232
vertex -0.7265 -0.0771543 0.682821
end loop
end factet
facet normal -0.000540257 -0.00830102 0.0122647
outer loop
vertex -3.3866 1.42431 1.58187
vertex -0.7265 -0.0771543 0.682821
vertex -0.724545 -0.0736471 0.685281
end loop
end factet
facet normal -0.00423563 -0.021651 0.0235975
outer loop
vertex -3.3866 1.42431 1.58187
vertex -0.724545 -0.0736471 0.685281
vertex -0.719105 -0.0678441 0.691582
end loop
end factet
facet normal -0.0276703 -0.0489533 -0.000858307
outer loop
vertex -3.3866 1.42431 1.58187
vertex -0.719105 -0.0678441 0.691582
vertex -0.704914 -0.0761038 0.705198
end loop
end factet
facet normal -0.0150927 -0.0425148 0.0265956
outer loop
vertex -3.3866 1.42431 1.58187
vertex -0.704914 -0.0761038 0.705198
vertex -0.693073 -0.0728113 0.717181
end loop
end factet
facet normal -0.00714839 -0.0206306 0.0134525
outer loop
vertex -3.3866 1.42431 1.58187
vertex -0.693073 -0.0728113 0.717181
vertex -0.687223 -0.0710688 0.722962
end loop
end factet
facet normal -0.00461066 -0.0104806 0.003757
outer loop
vertex -3.3866 1.42431 1.58187
vertex -0.687223 -0.0710688 0.722962
vertex -0.684128 -0.0713917 0.72586
end loop
end factet
facet normal -0.0102514 -0.0190976 0.0010047
outer loop
vertex -3.3866 1.42431 1.58187
vertex -0.684128 -0.0713917 0.72586
vertex -0.678253 -0.0742714 0.731066
end loop
end factet
facet normal -0.00357497 -0.00902677 0.00451899
outer loop
vertex -3.3866 1.42431 1.58187
vertex -0.678253 -0.0742714 0.731066
vertex -0.675577 -0.0740834 0.733558
end loop
end factet
facet normal -0.00271213 -0.00448585 -0.000743866
outer loop
vertex -3.3866 1.42431 1.58187
vertex -0.675577 -0.0740834 0.733558
vertex -0.674146 -0.0751486 0.734765
end loop
end factet
facet normal -0.00524104 -0.0120242 0.00450182
outer loop
vertex -3.3866 1.42431 1.58187
vertex -0.674146 -0.0751486 0.734765
vertex -0.670499 -0.0755054 0.738059
end loop
end factet
facet normal -0.00468099 -0.00887394 0.000705242
outer loop
vertex -3.3866 1.42431 1.58187
vertex -0.670499 -0.0755054 0.738059
vertex -0.667702 -0.0767896 0.740457
end loop
end factet
facet normal -0.004457 -0.0109265 0.00509119
outer loop
vertex -3.3866 1.42431 1.58187
vertex -0.667702 -0.0767896 0.740457
vertex -0.664376 -0.0767533 0.743447
end loop
end factet
facet normal -0.00210559 -0.0026834 -0.0020318
outer loop
vertex -3.3866 1.42431 1.58187
vertex -0.664376 -0.0767533 0.743447
vertex -0.663446 -0.0780127 0.744146
end loop
end factet
facet normal -0.00296664 -0.00522733 -0.000269413
outer loop
vertex -3.3866 1.42431 1.58187
vertex -0.663446 -0.0780127 0.744146
vertex -0.661752 -0.0790464 0.745544
end loop
end factet
facet normal -0.00879586 -0.0252168 0.0166707
outer loop
vertex -3.3866 1.42431 1.58187
vertex -0.661752 -0.0790464 0.745544
vertex -0.654112 -0.0771434 0.752454
end loop
end factet
facet normal -0.00882828 -0.0241239 0.014586
outer loop
vertex -3.3866 1.42431 1.58187
vertex -0.654112 -0.0771434 0.752454
vertex -0.646635 -0.0759139 0.759013
end loop
end factet
facet normal 0.000639796 -0.0073297 0.0154939
outer loop
vertex -3.3866 1.42431 1.58187
vertex -0.646635 -0.0759139 0.759013
vertex -0.644695 -0.0713211 0.761105
end loop
end factet
facet normal -0.00111866 -0.00673866 0.00854254
outer loop
vertex -3.3866 1.42431 1.58187
vertex -0.644695 -0.0713211 0.761105
vertex -0.642711 -0.0692879 0.762969
end loop
end factet
facet normal -0.0162361 -0.0302889 0.000842094
outer loop
vertex -3.3866 1.42431 1.58187
vertex -0.642711 -0.0692879 0.762969
vertex -0.632505 -0.0745367 0.770962
end loop
end factet
facet normal -0.0278404 -0.0670404 0.0293593
outer loop
vertex -3.3866 1.42431 1.58187
vertex -0.632505 -0.0745367 0.770962
vertex -0.610058 -0.0760923 0.788695
end loop
end factet
facet normal -0.0149771 -0.0327258 0.00947714
outer loop
vertex -3.3866 1.42431 1.58187
vertex -0.610058 -0.0760923 0.788695
vertex -0.598547 -0.0788993 0.797193
end loop
end factet
facet normal -0.00871444 -0.0302606 0.0270071
outer loop
vertex -3.3866 1.42431 1.58187
vertex -0.598547 -0.0788993 0.797193
vertex -0.58832 -0.0747268 0.805168
end loop
end factet
facet normal -0.0073303 -0.0162292 0.00491285
outer loop
vertex -3.3866 1.42431 1.58187
vertex -0.58832 -0.0747268 0.805168
vertex -0.582404 -0.0761403 0.809326
end loop
end factet
facet normal -0.0128697 -0.0375247 0.0261664
outer loop
vertex -3.3866 1.42431 1.58187
vertex -0.582404 -0.0761403 0.809326
vertex -0.568987 -0.0739881 0.819011
end loop
end factet
facet normal -0.0259677 -0.0571325 0.0162997
outer loop
vertex -3.3866 1.42431 1.58187
vertex -0.568987 -0.0739881 0.819011
vertex -0.546973 -0.0799096 0.833328
end loop
end factet
facet normal -0.0354003 -0.0525551 -0.0286818
outer loop
vertex -3.3866 1.42431 1.58187
vertex -0.546973 -0.0799096 0.833328
vertex -0.52374 -0.102317 0.845711
end loop
end factet
facet normal -0.00275862 -0.00804067 0.00594664
outer loop
vertex -3.3866 1.42431 1.58187
vertex -0.52374 -0.102317 0.845711
vertex -0.52058 -0.101925 0.847708
end loop
end factet
facet normal -0.00224352 -0.00976825 0.0115485
outer loop
vertex -3.3866 1.42431 1.58187
vertex -0.52058 -0.101925 0.847708
vertex -0.516936 -0.0998359 0.850182
end loop
end factet
facet normal -0.00304294 -0.0136611 0.0165229
outer loop
vertex -3.3866 1.42431 1.58187
vertex -0.516936 -0.0998359 0.850182
vertex -0.5118 -0.0968062 0.853633
end loop
end factet
facet normal -0.00505221 -0.0169563 0.0154743
outer loop
vertex -3.3866 1.42431 1.58187
vertex -0.5118 -0.0968062 0.853633
vertex -0.505081 -0.0949782 0.85783
end loop
end factet
facet normal 0.00886602 -0.00219855 0.0049768
outer loop
vertex -0.505081 -0.0949782 0.85783
vertex 0 0 0
vertex -0.503641 -0.0848538 0.859736
end loop
end factet
facet normal 0.0829691 -0.00533226 0.0480777
outer loop
vertex -0.503641 -0.0848538 0.859736
vertex 0 0 0
vertex -0.500808 0.0110838 0.865487
end loop
end factet
facet normal 0.0272402 -0.0214447 0.016037
outer loop
vertex -0.500808 0.0110838 0.865487
vertex 0 0 0
vertex -0.481704 0.0426832 0.875294
end loop
end factet
facet normal 0.0648066 0.00823423 0.0352638
outer loop
vertex -0.481704 0.0426832 0.875294
vertex 0 0 0
vertex -0.486077 0.116277 0.866146
end loop
end factet
facet normal 0.0542056 0.00823134 0.0293149
outer loop
vertex -0.486077 0.116277 0.866146
vertex 0 0 0
vertex -0.488858 0.177251 0.854166
end loop
end factet
facet normal 0.0157367 -0.00888219 0.0108496
outer loop
vertex -0.488858 0.177251 0.854166
vertex 0 0 0
vertex -0.479239 0.195958 0.855529
end loop
end factet
facet normal 0.0313483 -0.00980556 0.0198062
outer loop
vertex -0.479239 0.195958 0.855529
vertex 0 0 0
vertex -0.466617 0.232125 0.853456
end loop
end factet
facet normal 0.0215032 -0.00446615 0.0129713
outer loop
vertex -0.466617 0.232125 0.853456
vertex 0 0 0
vertex -0.459642 0.256454 0.850271
end loop
end factet
facet normal 0.0179799 -0.0164321 0.0146758
outer loop
vertex -0.459642 0.256454 0.850271
vertex 0 0 0
vertex -0.441721 0.278383 0.852869
end loop
end factet
facet normal 0.0322203 -0.0557937 0.0348992
outer loop
vertex -0.441721 0.278383 0.852869
vertex 0 0 0
vertex -0.383233 0.320531 0.866252
end loop
end factet
facet normal 0.00206405 -0.0554932 0.0214467
outer loop
vertex -0.383233 0.320531 0.866252
vertex 0 0 0
vertex -0.327608 0.329969 0.885321
end loop
end factet
facet normal 0.0101422 -0.0163689 0.00985393
outer loop
vertex -0.327608 0.329969 0.885321
vertex 0 0 0
vertex -0.309789 0.342099 0.88713
end loop
end factet
facet normal 0.00629637 -0.0145808 0.00782143
outer loop
vertex -0.309789 0.342099 0.88713
vertex 0 0 0
vertex -0.294129 0.350054 0.889354
end loop
end factet
facet normal 0.0024026 -0.00811148 0.00398733
outer loop
vertex -0.294129 0.350054 0.889354
vertex 0 0 0
vertex -0.285507 0.353349 0.890859
end loop
end factet
facet normal 0.00514269 -0.020442 0.00975623
outer loop
vertex -0.285507 0.353349 0.890859
vertex 0 0 0
vertex -0.263771 0.36062 0.894638
end loop
end factet
facet normal 0.0507773 -0.0337114 0.0285597
outer loop
vertex -0.263771 0.36062 0.894638
vertex 0 0 0
vertex -0.222714 0.412763 0.88319
end loop
end factet
facet normal 0.0200061 0.00408852 0.00313415
outer loop
vertex -0.222714 0.412763 0.88319
vertex 0 0 0
vertex -0.224984 0.431042 0.873834
end loop
end factet
facet normal 0.0840465 0.0363419 0.00371267
outer loop
vertex -0.224984 0.431042 0.873834
vertex 0 0 0
vertex -0.254194 0.503506 0.825752
end loop
end factet
facet normal 0.0450369 0.0219616 0.00047268
outer loop
vertex -0.254194 0.503506 0.825752
vertex 0 0 0
vertex -0.271771 0.540183 0.796456
end loop
end factet
facet normal 0.0255006 0.0166302 -0.00257769
outer loop
vertex -0.271771 0.540183 0.796456
vertex 0 0 0
vertex -0.286282 0.559541 0.77779
end loop
end factet
facet normal 0.0264311 0.0075919 0.0042669
outer loop
vertex -0.286282 0.559541 0.77779
vertex 0 0 0
vertex -0.289689 0.581103 0.760526
end loop
end factet
facet normal 0.0374963 -0.0107248 0.0224771
outer loop
vertex -0.289689 0.581103 0.760526
vertex 0 0 0
vertex -0.268177 0.615542 0.741073
end loop
end factet
facet normal 0.0462815 0.00929546 0.00902727
outer loop
vertex -0.268177 0.615542 0.741073
vertex 0 0 0
vertex -0.269199 0.65155 0.709235
end loop
end factet
facet normal -0.0182317 0.0188195 -0.0242089
outer loop
vertex -0.269199 0.65155 0.709235
vertex 0 0 0
vertex -0.298148 0.631688 0.715597
end loop
end factet
facet normal -6.89328e-05 0.0247256 -0.0218551
outer loop
vertex -0.298148 0.631688 0.715597
vertex 0 0 0
vertex -0.329485 0.624778 0.707878
end loop
end factet
facet normal 0.0110706 0.0262075 -0.017978
outer loop
vertex -0.329485 0.624778 0.707878
vertex 0 0 0
vertex -0.359082 0.626337 0.691926
end loop
end factet
facet normal 0.00637367 0.0385696 -0.0316058
outer loop
vertex -0.359082 0.626337 0.691926
vertex 0 0 0
vertex -0.405112 0.618606 0.673209
end loop
end factet
facet normal 0.0210708 0.0461932 -0.0297669
outer loop
vertex -0.405112 0.618606 0.673209
vertex 0 0 0
vertex -0.453921 0.61966 0.640294
end loop
end factet
facet normal 0.00236711 0.0219149 -0.0195306
outer loop
vertex -0.453921 0.61966 0.640294
vertex 0 0 0
vertex -0.479859 0.612042 0.628602
end loop
end factet
facet normal 0.0292285 0.0260899 -0.00309029
outer loop
vertex -0.479859 0.612042 0.628602
vertex 0 0 0
vertex -0.497779 0.628459 0.597708
end loop
end factet
facet normal 0.0124594 0.0236322 -0.0144717
outer loop
vertex -0.497779 0.628459 0.597708
vertex 0 0 0
vertex -0.52077 0.628412 0.577838
end loop
end factet
facet normal -0.00548691 0.0129693 -0.0190494
outer loop
vertex -0.52077 0.628412 0.577838
vertex 0 0 0
vertex -0.540089 0.615145 0.57437
end loop
end factet
facet normal -0.00686118 0.0036709 -0.0103832
outer loop
vertex -0.540089 0.615145 0.57437
vertex 0 0 0
vertex -0.548539 0.605545 0.57656
end loop
end factet
facet normal 0.000591874 0.0116614 -0.0116845
outer loop
vertex -0.548539 0.605545 0.57656
vertex 0 0 0
vertex -0.562263 0.599394 0.569726
end loop
end factet
facet normal -0.00701714 0.00697812 -0.0142668
outer loop
vertex -0.562263 0.599394 0.569726
vertex 0 0 0
vertex -0.574705 0.587284 0.569922
end loop
end factet
facet normal -0.00322527 0.000586122 -0.0038563
outer loop
vertex -0.574705 0.587284 0.569922
vertex 0 0 0
vertex -0.577297 0.583222 0.571472
end loop
end factet
facet normal -0.00157124 0.00329784 -0.00495291
outer loop
vertex -0.577297 0.583222 0.571472
vertex 0 0 0
vertex -0.582059 0.579454 0.570474
end loop
end factet
facet normal -0.0041053 0.00122315 -0.00543106
outer loop
vertex -0.582059 0.579454 0.570474
vertex 0 0 0
vertex -0.58589 0.573937 0.572127
end loop
end factet
facet normal -0.00363323 0.0046809 -0.0084163
outer loop
vertex -0.58589 0.573937 0.572127
vertex 0 0 0
vertex -0.593367 0.566897 0.57144
end loop
end factet
facet normal 0.0157464 0.016919 -0.000433862
outer loop
vertex -0.593367 0.566897 0.57144
vertex 0 0 0
vertex -0.603123 0.575486 0.552321
end loop
end factet
facet normal 0.00629494 0.0126978 -0.00635639
outer loop
vertex -0.603123 0.575486 0.552321
vertex 0 0 0
vertex -0.613721 0.57506 0.540974
end loop
end factet
facet normal 0.0107977 0.00392306 0.0080795
outer loop
vertex -0.613721 0.57506 0.540974
vertex 0 0 0
vertex -0.611137 0.585803 0.532303
end loop
end factet
facet normal 0.025158 0.0213686 0.00536767
outer loop
vertex -0.611137 0.585803 0.532303
vertex 0 0 0
vertex -0.619025 0.602147 0.504209
end loop
end factet
facet normal 0.00704423 0.00885367 -0.00192508
outer loop
vertex -0.619025 0.602147 0.504209
vertex 0 0 0
vertex -0.624608 0.604468 0.494453
end loop
end factet
facet normal 0.0118092 0.0154092 -0.00391999
outer loop
vertex -0.624608 0.604468 0.494453
vertex 0 0 0
vertex -0.634474 0.60774 0.477593
end loop
end factet
facet normal 0.0144205 0.0129437 0.0026865
outer loop
vertex -0.634474 0.60774 0.477593
vertex 0 0 0
vertex -0.638902 0.616215 0.460526
end loop
end factet
facet normal 0.00902703 0.0102887 -0.00124353
outer loop
vertex -0.638902 0.616215 0.460526
vertex 0 0 0
vertex -0.644346 0.61952 0.448346
end loop
end factet
facet normal 0.00519803 0.00767732 -0.00313801
outer loop
vertex -0.644346 0.61952 0.448346
vertex 0 0 0
vertex -0.649701 0.619798 0.440157
end loop
end factet
facet normal 0.000554085 0.00256637 -0.00279593
outer loop
vertex -0.649701 0.619798 0.440157
vertex 0 0 0
vertex -0.652559 0.618221 0.438143
end loop
end factet
facet normal 0.0021444 0.00287277 -0.000859648
outer loop
vertex -0.652559 0.618221 0.438143
vertex 0 0 0
vertex -0.654345 0.618596 0.43494
end loop
end factet
facet normal 0.00113386 0.00148484 -0.000405967
outer loop
vertex -0.654345 0.618596 0.43494
vertex 0 0 0
vertex -0.65524 0.618822 0.433266
end loop
end factet
facet normal 0.00381535 0.00985748 -0.00830907
outer loop
vertex -0.65524 0.618822 0.433266
vertex 0 0 0
vertex -0.664594 0.614975 0.424407
end loop
end factet
facet normal 0.00303754 0.00675693 -0.00503442
outer loop
vertex -0.664594 0.614975 0.424407
vertex 0 0 0
vertex -0.670531 0.612893 0.418031
end loop
end factet
facet normal 0.00406656 0.00684538 -0.00351346
outer loop
vertex -0.670531 0.612893 0.418031
vertex 0 0 0
vertex -0.67552 0.612214 0.410933
end loop
end factet
facet normal 0.00106591 0.00277457 -0.00238141
outer loop
vertex -0.67552 0.612214 0.410933
vertex 0 0 0
vertex -0.678114 0.611039 0.408403
end loop
end factet
facet normal 0.0231382 0.035756 -0.0150782
outer loop
vertex -0.678114 0.611039 0.408403
vertex 0 0 0
vertex -0.701237 0.60964 0.369601
end loop
end factet
facet normal 0.0192679 0.051242 -0.0479645
outer loop
vertex -0.701237 0.60964 0.369601
vertex 0 0 0
vertex -0.747558 0.58151 0.320942
end loop
end factet
facet normal 0.0411448 0.0522351 0.00119302
outer loop
vertex -0.747558 0.58151 0.320942
vertex 0 0 0
vertex -0.761973 0.59432 0.257256
end loop
end factet
facet normal 0.024074 0.0323541 -0.00343993
outer loop
vertex -0.761973 0.59432 0.257256
vertex 0 0 0
vertex -0.771717 0.597405 0.218085
end loop
end factet
facet normal 0.0291227 0.0406952 -0.00842354
outer loop
vertex -0.771717 0.597405 0.218085
vertex 0 0 0
vertex -0.78463 0.596486 0.169001
end loop
end factet
facet normal 0.0200915 0.0322512 -0.02055
outer loop
vertex -0.78463 0.596486 0.169001
vertex 0 0 0
vertex -0.801606 0.5832 0.131553
end loop
end factet
facet normal 0.0152074 0.022319 -0.00627935
outer loop
vertex -0.801606 0.5832 0.131553
vertex 0 0 0
vertex -0.807896 0.579943 0.104743
end loop
end factet
facet normal 0.0223988 0.0350398 -0.0212443
outer loop
vertex -0.807896 0.579943 0.104743
vertex 0 0 0
vertex -0.823005 0.564493 0.0633301
end loop
end factet
facet normal 0.0144209 0.0233473 -0.0206999
outer loop
vertex -0.823005 0.564493 0.0633301
vertex 0 0 0
vertex -0.835682 0.548037 0.0359372
end loop
end factet
facet normal 0.00897724 0.0145052 -0.0124456
outer loop
vertex -0.835682 0.548037 0.0359372
vertex 0 0 0
vertex -0.842838 0.537837 0.0188876
end loop
end factet
facet normal 0.000444503 0.00110877 -0.0117374
outer loop
vertex -0.842838 0.537837 0.0188876
vertex 0 0 0
vertex -0.849113 0.527915 0.0177127
end loop
end factet
facet normal 0.00423321 0.00738299 -0.0171131
outer loop
vertex -0.849113 0.527915 0.0177127
vertex 0 0 0
vertex -0.858123 0.513362 0.00920569
end loop
end factet
facet normal 0.0192225 0.0323445 -0.0118582
outer loop
vertex -0.858123 0.513362 0.00920569
vertex 0 0 0
vertex -0.86384 0.502964 -0.0284251
end loop
end factet
facet normal 0.0101268 0.0161866 -0.0213423
outer loop
vertex -0.86384 0.502964 -0.0284251
vertex 0 0 0
vertex -0.87376 0.484034 -0.0474895
end loop
end factet
facet normal 0.00606311 0.00965166 -0.0131814
outer loop
vertex -0.87376 0.484034 -0.0474895
vertex 0 0 0
vertex -0.879549 0.472155 -0.0588503
end loop
end factet
facet normal 0.0182266 0.0307973 -0.0253195
outer loop
vertex -0.879549 0.472155 -0.0588503
vertex 0 0 0
vertex -0.888846 0.448358 -0.0944873
end loop
end factet
facet normal 0.00528451 0.0126686 0.0104029
outer loop
vertex -0.888846 0.448358 -0.0944873
vertex 0 0 0
vertex -0.882853 0.457039 -0.108103
end loop
end factet
facet normal 0.00441511 0.00919706 0.00282618
outer loop
vertex -0.882853 0.457039 -0.108103
vertex 0 0 0
vertex -0.880517 0.459031 -0.118234
end loop
end factet
facet normal 0.0040376 0.00784475 0.00038746
outer loop
vertex -0.880517 0.459031 -0.118234
vertex 0 0 0
vertex -0.879378 0.458877 -0.126991
end loop
end factet
facet normal 0.00143704 0.00317343 0.00151595
outer loop
vertex -0.879378 0.458877 -0.126991
vertex 0 0 0
vertex -0.878273 0.460024 -0.13044
end loop
end factet
facet normal 0.00409639 0.00888017 0.0037362
outer loop
vertex -0.878273 0.460024 -0.13044
vertex 0 0 0
vertex -0.875347 0.462746 -0.140116
end loop
end factet
facet normal 0.00819913 0.0159129 0.00133142
outer loop
vertex -0.875347 0.462746 -0.140116
vertex 0 0 0
vertex -0.872361 0.462688 -0.157817
end loop
end factet
facet normal 0.00535215 0.0092769 -0.00238687
outer loop
vertex -0.872361 0.462688 -0.157817
vertex 0 0 0
vertex -0.871948 0.459734 -0.168377
end loop
end factet
facet normal 0.00271998 0.00510485 -0.000147313
outer loop
vertex -0.871948 0.459734 -0.168377
vertex 0 0 0
vertex -0.871142 0.45914 -0.174076
end loop
end factet
facet normal 0.0014184 0.00398858 0.00342193
outer loop
vertex -0.871142 0.45914 -0.174076
vertex 0 0 0
vertex -0.868864 0.461867 -0.178199
end loop
end factet
facet normal 0.00119955 0.00274961 0.00127783
outer loop
vertex -0.868864 0.461867 -0.178199
vertex 0 0 0
vertex -0.867779 0.462761 -0.181141
end loop
end factet
facet normal 0.000594832 0.00130086 0.000473648
outer loop
vertex -0.867779 0.462761 -0.181141
vertex 0 0 0
vertex -0.867323 0.463064 -0.182545
end loop
end factet
facet normal 0.0012716 0.00223206 -0.000379622
outer loop
vertex -0.867323 0.463064 -0.182545
vertex 0 0 0
vertex -0.867088 0.462501 -0.185069
end loop
end factet
facet normal 0.000400297 0.000747353 -7.80821e-06
outer loop
vertex -0.867088 0.462501 -0.185069
vertex 0 0 0
vertex -0.866953 0.46242 -0.185902
end loop
end factet
facet normal 0.000456266 0.000760823 -0.000235289
outer loop
vertex -0.866953 0.46242 -0.185902
vertex 0 0 0
vertex -0.86692 0.462131 -0.186773
end loop
end factet
facet normal 0.00153414 0.0024056 -0.00116873
outer loop
vertex -0.86692 0.462131 -0.186773
vertex 0 0 0
vertex -0.867007 0.460829 -0.189566
end loop
end factet
facet normal 0.00117832 0.00221555 -3.30806e-06
outer loop
vertex -0.867007 0.460829 -0.189566
vertex 0 0 0
vertex -0.866586 0.460601 -0.19203
end loop
end factet
facet normal -0.000238925 0.000873402 0.00317314
outer loop
vertex -0.866586 0.460601 -0.19203
vertex 0 0 0
vertex -0.864952 0.463394 -0.192675
end loop
end factet
facet normal 0.00119761 0.00366253 0.00343233
outer loop
vertex -0.864952 0.463394 -0.192675
vertex 0 0 0
vertex -0.862644 0.466126 -0.196396
end loop
end factet
facet normal 0.000765041 0.00230925 0.00212041
outer loop
vertex -0.862644 0.466126 -0.196396
vertex 0 0 0
vertex -0.861198 0.467803 -0.198743
end loop
end factet
facet normal 1.546e-05 0.000899285 0.00204977
outer loop
vertex -0.861198 0.467803 -0.198743
vertex 0 0 0
vertex -0.860058 0.469564 -0.199525
end loop
end factet
facet normal -0.000698812 0.0017848 0.00721264
outer loop
vertex -0.860058 0.469564 -0.199525
vertex 0 0 0
vertex -0.856291 0.475893 -0.200726
end loop
end factet
facet normal 0.00292261 0.0102594 0.0118558
outer loop
vertex -0.856291 0.475893 -0.200726
vertex 0 0 0
vertex -0.848481 0.485398 -0.210876
end loop
end factet
facet normal 0.00138277 0.00321472 0.001836
outer loop
vertex -0.848481 0.485398 -0.210876
vertex 0 0 0
vertex -0.846905 0.486661 -0.214273
end loop
end factet
facet normal 7.96393e-05 0.00404049 0.00886202
outer loop
vertex -0.846905 0.486661 -0.214273
vertex 0 0 0
vertex -0.841686 0.494126 -0.217724
end loop
end factet
facet normal 0.00199721 0.00459446 0.00270626
outer loop
vertex -0.841686 0.494126 -0.217724
vertex 0 0 0
vertex -0.839335 0.495961 -0.222574
end loop
end factet
facet normal 0.00267157 0.00616066 0.0036532
outer loop
vertex -0.839335 0.495961 -0.222574
vertex 0 0 0
vertex -0.836128 0.498418 -0.229064
end loop
end factet
facet normal 1.04308e-07 0.00150648 0.00327757
outer loop
vertex -0.836128 0.498418 -0.229064
vertex 0 0 0
vertex -0.834143 0.501155 -0.230322
end loop
end factet
facet normal 0.000916287 0.00344768 0.00418329
outer loop
vertex -0.834143 0.501155 -0.230322
vertex 0 0 0
vertex -0.83124 0.504426 -0.233653
end loop
end factet
facet normal 0.00154185 0.00345586 0.00197548
outer loop
vertex -0.83124 0.504426 -0.233653
vertex 0 0 0
vertex -0.829429 0.505703 -0.237302
end loop
end factet
facet normal 0.00218357 0.00370497 0.000263363
outer loop
vertex -0.829429 0.505703 -0.237302
vertex 0 0 0
vertex -0.828409 0.505399 -0.241477
end loop
end factet
facet normal 0.00105856 0.00171466 -4.27663e-05
outer loop
vertex -0.828409 0.505399 -0.241477
vertex 0 0 0
vertex -0.828015 0.505107 -0.243432
end loop
end factet
facet normal 0.00111134 0.00240615 0.00121251
outer loop
vertex -0.828015 0.505107 -0.243432
vertex 0 0 0
vertex -0.826813 0.505838 -0.245984
end loop
end factet
facet normal 0.00123518 0.00212352 0.000214994
outer loop
vertex -0.826813 0.505838 -0.245984
vertex 0 0 0
vertex -0.826179 0.50571 -0.248364
end loop
end factet
facet normal 0.00373052 0.00540797 -0.001398
outer loop
vertex -0.826179 0.50571 -0.248364
vertex 0 0 0
vertex -0.825524 0.503617 -0.254713
end loop
end factet
facet normal 0.00133489 0.00152388 -0.00131333
outer loop
vertex -0.825524 0.503617 -0.254713
vertex 0 0 0
vertex -0.825795 0.502192 -0.256643
end loop
end factet
facet normal 0.00272667 0.00338605 -0.00214785
outer loop
vertex -0.825795 0.502192 -0.256643
vertex 0 0 0
vertex -0.825995 0.499712 -0.260805
end loop
end factet
facet normal 0.00435851 -0.0108674 -0.0346262
outer loop
vertex -0.825995 0.499712 -0.260805
vertex 0 0 0
vertex -0.845581 0.469641 -0.253832
end loop
end factet
facet normal -0.00997747 -0.0354589 -0.0323685
outer loop
vertex -0.845581 0.469641 -0.253832
vertex 0 0 0
vertex -0.868766 0.444238 -0.218858
end loop
end factet
facet normal -0.00869499 -0.0388467 -0.044336
outer loop
vertex -0.868766 0.444238 -0.218858
vertex 0 0 0
vertex -0.89542 0.406834 -0.180858
end loop
end factet
facet normal -0.000442743 -0.00203769 -0.00239173
outer loop
vertex -0.89542 0.406834 -0.180858
vertex 0 0 0
vertex -0.896757 0.404771 -0.178852
end loop
end factet
facet normal -0.00220765 -0.006668 -0.00402167
outer loop
vertex -0.896757 0.404771 -0.178852
vertex 0 0 0
vertex -0.899548 0.401546 -0.171973
end loop
end factet
facet normal -0.00156314 -0.00460693 -0.00258046
outer loop
vertex -0.899548 0.401546 -0.171973
vertex 0 0 0
vertex -0.901363 0.399487 -0.167198
end loop
end factet
facet normal -0.00545011 -0.0119257 0.000887334
outer loop
vertex -0.901363 0.399487 -0.167198
vertex 0 0 0
vertex -0.902924 0.401164 -0.154257
end loop
end factet
facet normal -0.00298516 -0.0094793 -0.00717872
outer loop
vertex -0.902924 0.401164 -0.154257
vertex 0 0 0
vertex -0.907198 0.395112 -0.144489
end loop
end factet
facet normal -0.00767729 -0.0197357 -0.00576499
outer loop
vertex -0.907198 0.395112 -0.144489
vertex 0 0 0
vertex -0.912109 0.390896 -0.123517
end loop
end factet
facet normal -0.00570431 -0.0136724 -0.00114581
outer loop
vertex -0.912109 0.390896 -0.123517
vertex 0 0 0
vertex -0.914145 0.390513 -0.108803
end loop
end factet
facet normal -0.00452606 -0.0106593 -0.000230968
outer loop
vertex -0.914145 0.390513 -0.108803
vertex 0 0 0
vertex -0.915334 0.390768 -0.0972837
end loop
end factet
facet normal -0.00101716 -0.00274463 -0.00145423
outer loop
vertex -0.915334 0.390768 -0.0972837
vertex 0 0 0
vertex -0.916164 0.389534 -0.0943735
end loop
end factet
facet normal -0.000724558 -0.00163035 0.00030452
outer loop
vertex -0.916164 0.389534 -0.0943735
vertex 0 0 0
vertex -0.916198 0.38988 -0.0925974
end loop
end factet
facet normal -0.00216408 -0.00563415 -0.00231022
outer loop
vertex -0.916198 0.38988 -0.0925974
vertex 0 0 0
vertex -0.917601 0.387956 -0.0865898
end loop
end factet
facet normal -0.00128714 -0.00396413 -0.00412086
outer loop
vertex -0.917601 0.387956 -0.0865898
vertex 0 0 0
vertex -0.919528 0.384279 -0.0824514
end loop
end factet
facet normal -0.0017648 -0.00419167 0.000145674
outer loop
vertex -0.919528 0.384279 -0.0824514
vertex 0 0 0
vertex -0.919808 0.384555 -0.077918
end loop
end factet
facet normal -0.00120109 -0.00252653 0.00170928
outer loop
vertex -0.919808 0.384555 -0.077918
vertex 0 0 0
vertex -0.919342 0.386219 -0.0751318
end loop
end factet
facet normal -0.000845775 -0.0020047 4.39882e-05
outer loop
vertex -0.919342 0.386219 -0.0751318
vertex 0 0 0
vertex -0.919474 0.386322 -0.072962
end loop
end factet
facet normal -0.00139875 -0.0037026 -0.00197756
outer loop
vertex -0.919474 0.386322 -0.072962
vertex 0 0 0
vertex -0.920499 0.384602 -0.0690164
end loop
end factet
facet normal -0.0020428 -0.00582851 -0.00523448
outer loop
vertex -0.920499 0.384602 -0.0690164
vertex 0 0 0
vertex -0.922884 0.379912 -0.0628634
end loop
end factet
facet normal -0.0014764 -0.00376176 -0.00105923
outer loop
vertex -0.922884 0.379912 -0.0628634
vertex 0 0 0
vertex -0.923515 0.379024 -0.0588303
end loop
end factet
facet normal -0.00210603 -0.0052166 -0.000548393
outer loop
vertex -0.923515 0.379024 -0.0588303
vertex 0 0 0
vertex -0.924015 0.378635 -0.0532135
end loop
end factet
facet normal -0.00406205 -0.0108737 -0.00683635
outer loop
vertex -0.924015 0.378635 -0.0532135
vertex 0 0 0
vertex -0.927098 0.3725 -0.0416231
end loop
end factet
facet normal -0.00182999 -0.00458224 -0.000247627
outer loop
vertex -0.927098 0.3725 -0.0416231
vertex 0 0 0
vertex -0.92737 0.372342 -0.0366927
end loop
end factet
facet normal -0.00269215 -0.00651844 0.00189492
outer loop
vertex -0.92737 0.372342 -0.0366927
vertex 0 0 0
vertex -0.926879 0.374188 -0.0296443
end loop
end factet
facet normal -0.00474859 -0.0122715 -0.00642499
outer loop
vertex -0.926879 0.374188 -0.0296443
vertex 0 0 0
vertex -0.929547 0.368334 -0.0164901
end loop
end factet
facet normal -0.00208732 -0.00531185 -0.000986785
outer loop
vertex -0.929547 0.368334 -0.0164901
vertex 0 0 0
vertex -0.929983 0.367445 -0.0107834
end loop
end factet
facet normal -0.00182173 -0.00462419 -0.00045979
outer loop
vertex -0.929983 0.367445 -0.0107834
vertex 0 0 0
vertex -0.93019 0.367032 -0.00581349
end loop
end factet
facet normal -0.0017743 -0.00454973 -0.00334781
outer loop
vertex -0.93019 0.367032 -0.00581349
vertex 0 0 0
vertex -0.931429 0.363922 -0.000930052
end loop
end factet
facet normal -0.00365437 -0.00937368 -0.00806227
outer loop
vertex -0.931429 0.363922 -0.000930052
vertex 0 0 0
vertex -0.934294 0.356386 0.00913085
end loop
end factet
facet normal -0.00463314 -0.0119313 -0.00838667
outer loop
vertex -0.934294 0.356386 0.00913085
vertex 0 0 0
vertex -0.937065 0.348466 0.0219283
end loop
end factet
facet normal -0.0013515 -0.00353152 -0.00163403
outer loop
vertex -0.937065 0.348466 0.0219283
vertex 0 0 0
vertex -0.937549 0.346902 0.0257083
end loop
end factet
facet normal -0.0015016 -0.00379474 -0.00355604
outer loop
vertex -0.937549 0.346902 0.0257083
vertex 0 0 0
vertex -0.938671 0.343524 0.0297866
end loop
end factet
facet normal -0.00138171 -0.00380864 0.000382304
outer loop
vertex -0.938671 0.343524 0.0297866
vertex 0 0 0
vertex -0.938419 0.343839 0.0338361
end loop
end factet
facet normal -0.00068018 -0.00182731 -0.000295341
outer loop
vertex -0.938419 0.343839 0.0338361
vertex 0 0 0
vertex -0.938457 0.343538 0.0357847
end loop
end factet
facet normal -0.0416249 -0.104085 -0.0923888
outer loop
vertex -0.938457 0.343538 0.0357847
vertex 0 0 0
vertex -0.956517 0.251702 0.147384
end loop
end factet
facet normal -0.0242171 -0.032312 -0.101986
outer loop
vertex -0.956517 0.251702 0.147384
vertex 0 0 0
vertex -0.971653 0.149063 0.183497
end loop
end factet
facet normal -0.00946333 -0.054174 -0.00610213
outer loop
vertex -0.971653 0.149063 0.183497
vertex 0 0 0
vertex -0.961133 0.141169 0.237265
end loop
end factet
facet normal -0.0192364 -0.0641181 -0.0397753
outer loop
vertex -0.961133 0.141169 0.237265
vertex 0 0 0
vertex -0.948617 0.097947 0.300886
end loop
end factet
facet normal -0.0192773 -0.0116031 -0.0569993
outer loop
vertex -0.948617 0.097947 0.300886
vertex 0 0 0
vertex -0.948926 0.0378921 0.313216
end loop
end factet
facet normal -0.0430303 -0.0774882 -0.120991
outer loop
vertex -0.948926 0.0378921 0.313216
vertex 0 0 0
vertex -0.918506 -0.0908259 0.384834
end loop
end factet
facet normal -0.0194946 -0.0347493 -0.0547303
outer loop
vertex -0.918506 -0.0908259 0.384834
vertex 0 0 0
vertex -0.898055 -0.14839 0.414098
end loop
end factet
facet normal 0.00113294 -0.0084646 -0.000576243
outer loop
vertex -0.898055 -0.14839 0.414098
vertex 0 0 0
vertex -0.894432 -0.148433 0.421852
end loop
end factet
facet normal 0.00653863 -0.0355857 0.00134236
outer loop
vertex -0.894432 -0.148433 0.421852
vertex 0 0 0
vertex -0.879033 -0.144376 0.454375
end loop
end factet
facet normal -0.00236377 -0.0357857 -0.0159437
outer loop
vertex -0.879033 -0.144376 0.454375
vertex 0 0 0
vertex -0.859793 -0.159354 0.485141
end loop
end factet
facet normal 0.0248225 -0.0730885 0.0199845
outer loop
vertex -0.859793 -0.159354 0.485141
vertex 0 0 0
vertex -0.824782 -0.129622 0.550393
end loop
end factet
facet normal 0.00120293 -0.0476897 -0.00942869
outer loop
vertex -0.824782 -0.129622 0.550393
vertex 0 0 0
vertex -0.796336 -0.136583 0.589231
end loop
end factet
facet normal 0.0209737 -0.0180287 0.0241666
outer loop
vertex -0.796336 -0.136583 0.589231
vertex 0 0 0
vertex -0.788477 -0.104888 0.606055
end loop
end factet
facet normal 0.00608003 -0.0166061 0.00503615
outer loop
vertex -0.788477 -0.104888 0.606055
vertex 0 0 0
vertex -0.778807 -0.0972144 0.619684
end loop
end factet
facet normal 0.00160018 -0.0047746 0.00126205
outer loop
vertex -0.778807 -0.0972144 0.619684
vertex 0 0 0
vertex -0.775961 -0.0952386 0.62355
end loop
end factet
facet normal 0.000776701 -0.00419739 0.000325449
outer loop
vertex -0.775961 -0.0952386 0.62355
vertex 0 0 0
vertex -0.773367 -0.0945009 0.626875
end loop
end factet
facet normal 0.00436598 -0.00657579 0.00439496
outer loop
vertex -0.773367 -0.0945009 0.626875
vertex 0 0 0
vertex -0.769629 -0.0883612 0.632348
end loop
end factet
facet normal 0.00196664 -0.00394636 0.00184216
outer loop
vertex -0.769629 -0.0883612 0.632348
vertex 0 0 0
vertex -0.767288 -0.0856988 0.635551
end loop
end factet
facet normal 0.00148709 -0.00308582 0.00137924
outer loop
vertex -0.767288 -0.0856988 0.635551
vertex 0 0 0
vertex -0.765439 -0.0836949 0.638042
end loop
end factet
facet normal 0.000469323 -0.00216675 0.000278816
outer loop
vertex -0.765439 -0.0836949 0.638042
vertex 0 0 0
vertex -0.764078 -0.0831818 0.639738
end loop
end factet
facet normal -0.000111703 -0.00143793 -0.000320375
outer loop
vertex -0.764078 -0.0831818 0.639738
vertex 0 0 0
vertex -0.763131 -0.0834979 0.640827
end loop
end factet
facet normal 0.000115819 -0.000548363 6.64666e-05
outer loop
vertex -0.763131 -0.0834979 0.640827
vertex 0 0 0
vertex -0.762785 -0.083373 0.641255
end loop
end factet
facet normal -0.000730243 -0.00299728 -0.00125833
outer loop
vertex -0.762785 -0.083373 0.641255
vertex 0 0 0
vertex -0.760754 -0.0848006 0.643477
end loop
end factet
facet normal -0.000790477 -0.00470304 -0.00155433
outer loop
vertex -0.760754 -0.0848006 0.643477
vertex 0 0 0
vertex -0.757586 -0.0864907 0.64698
end loop
end factet
facet normal 0.000198655 -0.00378504 -0.000273384
outer loop
vertex -0.757586 -0.0864907 0.64698
vertex 0 0 0
vertex -0.755108 -0.0865686 0.64986
end loop
end factet
facet normal 0.000503466 -0.00181052 0.000343822
outer loop
vertex -0.755108 -0.0865686 0.64986
vertex 0 0 0
vertex -0.75396 -0.0859817 0.651269
end loop
end factet
facet normal -0.000244223 -0.00215861 -0.000567712
outer loop
vertex -0.75396 -0.0859817 0.651269
vertex 0 0 0
vertex -0.752503 -0.0865685 0.652874
end loop
end factet
facet normal 0.000930768 -0.00511301 0.000394836
outer loop
vertex -0.752503 -0.0865685 0.652874
vertex 0 0 0
vertex -0.749189 -0.0856626 0.656793
end loop
end factet
facet normal 0.00144828 -0.00395682 0.00113595
outer loop
vertex -0.749189 -0.0856626 0.656793
vertex 0 0 0
vertex -0.74668 -0.0838595 0.659876
end loop
end factet
facet normal 0.000374302 -0.00304627 3.64035e-05
outer loop
vertex -0.74668 -0.0838595 0.659876
vertex 0 0 0
vertex -0.74467 -0.0835849 0.662178
end loop
end factet
facet normal 0.00292388 -0.00918674 0.0021285
outer loop
vertex -0.74467 -0.0835849 0.662178
vertex 0 0 0
vertex -0.738728 -0.0800597 0.669232
end loop
end factet
facet normal 0.00303238 -0.0182226 0.00116732
outer loop
vertex -0.738728 -0.0800597 0.669232
vertex 0 0 0
vertex -0.7265 -0.0771543 0.682821
end loop
end factet
facet normal 0.00258459 -0.00312188 0.00239717
outer loop
vertex -0.7265 -0.0771543 0.682821
vertex 0 0 0
vertex -0.724545 -0.0736471 0.685281
end loop
end factet
facet normal 0.00444068 -0.0082936 0.0038038
outer loop
vertex -0.724545 -0.0736471 0.685281
vertex 0 0 0
vertex -0.719105 -0.0678441 0.691582
end loop
end factet
facet normal -0.00478848 -0.0196049 -0.00690228
outer loop
vertex -0.719105 -0.0678441 0.691582
vertex 0 0 0
vertex -0.704914 -0.0761038 0.705198
end loop
end factet
facet normal 0.00323379 -0.0167972 0.00141976
outer loop
vertex -0.704914 -0.0761038 0.705198
vertex 0 0 0
vertex -0.693073 -0.0728113 0.717181
end loop
end factet
facet normal 0.00167066 -0.00820261 0.000781737
outer loop
vertex -0.693073 -0.0728113 0.717181
vertex 0 0 0
vertex -0.687223 -0.0710688 0.722962
end loop
end factet
facet normal -2.74852e-05 -0.00422904 -0.000441849
outer loop
vertex -0.687223 -0.0710688 0.722962
vertex 0 0 0
vertex -0.684128 -0.0713917 0.72586
end loop
end factet
facet normal -0.00171863 -0.00782573 -0.00238952
outer loop
vertex -0.684128 -0.0713917 0.72586
vertex 0 0 0
vertex -0.678253 -0.0742714 0.731066
end loop
end factet
facet normal 0.000322569 -0.00364655 -7.12015e-05
outer loop
vertex -0.678253 -0.0742714 0.731066
vertex 0 0 0
vertex -0.675577 -0.0740834 0.733558
end loop
end factet
facet normal -0.000691958 -0.00186494 -0.00082561
outer loop
vertex -0.675577 -0.0740834 0.733558
vertex 0 0 0
vertex -0.674146 -0.0751486 0.734765
end loop
end factet
facet normal -1.46441e-05 -0.00490066 -0.000514653
outer loop
vertex -0.674146 -0.0751486 0.734765
vertex 0 0 0
vertex -0.670499 -0.0755054 0.738059
end loop
end factet
facet normal -0.00076678 -0.003672 -0.00107225
outer loop
vertex -0.670499 -0.0755054 0.738059
vertex 0 0 0
vertex -0.667702 -0.0767896 0.740457
end loop
end factet
facet normal 0.000256456 -0.00445884 -0.000231151
outer loop
vertex -0.667702 -0.0767896 0.740457
vertex 0 0 0
vertex -0.664376 -0.0767533 0.743447
end loop
end factet
facet normal -0.000882592 -0.00115621 -0.000908092
outer loop
vertex -0.664376 -0.0767533 0.743447
vertex 0 0 0
vertex -0.663446 -0.0780127 0.744146
end loop
end factet
facet normal -0.000660118 -0.00218853 -0.000817969
outer loop
vertex -0.663446 -0.0780127 0.744146
vertex 0 0 0
vertex -0.661752 -0.0790464 0.745544
end loop
end factet
facet normal 0.00196492 -0.0102683 0.000655383
outer loop
vertex -0.661752 -0.0790464 0.745544
vertex 0 0 0
vertex -0.654112 -0.0771434 0.752454
end loop
end factet
facet normal 0.00143109 -0.00991642 0.000227403
outer loop
vertex -0.654112 -0.0771434 0.752454
vertex 0 0 0
vertex -0.646635 -0.0759139 0.759013
end loop
end factet
facet normal 0.00364487 -0.00282544 0.00282262
outer loop
vertex -0.646635 -0.0759139 0.759013
vertex 0 0 0
vertex -0.644695 -0.0713211 0.761105
end loop
end factet
facet normal 0.0016804 -0.0027118 0.00116927
outer loop
vertex -0.644695 -0.0713211 0.761105
vertex 0 0 0
vertex -0.642711 -0.0692879 0.762969
end loop
end factet
facet normal -0.00345086 -0.0129241 -0.00408062
outer loop
vertex -0.642711 -0.0692879 0.762969
vertex 0 0 0
vertex -0.632505 -0.0745367 0.770962
end loop
end factet
facet normal 0.000122443 -0.0285217 -0.00265703
outer loop
vertex -0.632505 -0.0745367 0.770962
vertex 0 0 0
vertex -0.610058 -0.0760923 0.788695
end loop
end factet
facet normal -0.00156717 -0.0142631 -0.00258829
outer loop
vertex -0.610058 -0.0760923 0.788695
vertex 0 0 0
vertex -0.598547 -0.0788993 0.797193
end loop
end factet
facet normal 0.00395546 -0.0129267 0.00169047
outer loop
vertex -0.598547 -0.0788993 0.797193
vertex 0 0 0
vertex -0.58832 -0.0747268 0.805168
end loop
end factet
facet normal -0.000827353 -0.00720942 -0.00127363
outer loop
vertex -0.58832 -0.0747268 0.805168
vertex 0 0 0
vertex -0.582404 -0.0761403 0.809326
end loop
end factet
facet normal 0.00247926 -0.0164993 0.000231892
outer loop
vertex -0.582404 -0.0761403 0.809326
vertex 0 0 0
vertex -0.568987 -0.0739881 0.819011
end loop
end factet
facet normal -0.00379053 -0.026176 -0.00499808
outer loop
vertex -0.568987 -0.0739881 0.819011
vertex 0 0 0
vertex -0.546973 -0.0799096 0.833328
end loop
end factet
facet normal -0.0176832 -0.026134 -0.0141128
outer loop
vertex -0.546973 -0.0799096 0.833328
vertex 0 0 0
vertex -0.52374 -0.102317 0.845711
end loop
end factet
facet normal 0.000535838 -0.00371793 -0.000117972
outer loop
vertex -0.52374 -0.102317 0.845711
vertex 0 0 0
vertex -0.52058 -0.101925 0.847708
end loop
end factet
facet normal 0.00202318 -0.00437725 0.000716142
outer loop
vertex -0.52058 -0.101925 0.847708
vertex 0 0 0
vertex -0.516936 -0.0998359 0.850182
end loop
end factet
facet normal 0.00292028 -0.00615069 0.00105334
outer loop
vertex -0.516936 -0.0998359 0.850182
vertex 0 0 0
vertex -0.5118 -0.0968062 0.853633
end loop
end factet
facet normal -0.00196671 0.00788262 -0.000285223
outer loop
vertex -0.5118 -0.0968062 0.853633
vertex 0 0 0
vertex -0.505081 -0.0949782 0.85783
end loop
end factet
solid fragmentGeometry
