solid fragmentGeometry
facet normal 0.00415182 -0.00273609 -0.0118003
outer loop
vertex 1.452 -3.68814 0.537868
vertex 0.322472 -0.781985 -0.533396
vertex 0.326228 -0.781204 -0.532255
end loop
end factet
facet normal 0.0237815 -0.00228107 -0.0312147
outer loop
vertex 1.452 -3.68814 0.537868
vertex 0.326228 -0.781204 -0.532255
vertex 0.337376 -0.78226 -0.523685
end loop
end factet
facet normal 0.00508189 -0.0138489 -0.043246
outer loop
vertex 1.452 -3.68814 0.537868
vertex 0.337376 -0.78226 -0.523685
vertex 0.35002 -0.776427 -0.524067
end loop
end factet
facet normal 0.00985956 -0.00621963 -0.0272846
outer loop
vertex 1.452 -3.68814 0.537868
vertex 0.35002 -0.776427 -0.524067
vertex 0.358575 -0.774271 -0.521468
end loop
end factet
facet normal 0.0109537 -0.00247955 -0.0181262
outer loop
vertex 1.452 -3.68814 0.537868
vertex 0.358575 -0.774271 -0.521468
vertex 0.364642 -0.77386 -0.517858
end loop
end factet
facet normal 0.00329161 -0.00601172 -0.0199857
outer loop
vertex 1.452 -3.68814 0.537868
vertex 0.364642 -0.77386 -0.517858
vertex 0.370499 -0.771179 -0.517699
end loop
end factet
facet normal 0.023098 8.46386e-06 -0.0236423
outer loop
vertex 1.452 -3.68814 0.537868
vertex 0.370499 -0.771179 -0.517699
vertex 0.37913 -0.772597 -0.509268
end loop
end factet
facet normal 0.0281894 0.00702047 -0.00933528
outer loop
vertex 1.452 -3.68814 0.537868
vertex 0.37913 -0.772597 -0.509268
vertex 0.384158 -0.777561 -0.497816
end loop
end factet
facet normal 0.0791242 0.0231346 -0.0165663
outer loop
vertex 1.452 -3.68814 0.537868
vertex 0.384158 -0.777561 -0.497816
vertex 0.395126 -0.791942 -0.465514
end loop
end factet
facet normal 0.0380521 0.0125993 -0.00371337
outer loop
vertex 1.452 -3.68814 0.537868
vertex 0.395126 -0.791942 -0.465514
vertex 0.398978 -0.798983 -0.449936
end loop
end factet
facet normal 0.0257912 0.00644052 -0.00865674
outer loop
vertex 1.452 -3.68814 0.537868
vertex 0.398978 -0.798983 -0.449936
vertex 0.403244 -0.802468 -0.439818
end loop
end factet
facet normal 0.0160294 0.0013746 -0.0131376
outer loop
vertex 1.452 -3.68814 0.537868
vertex 0.403244 -0.802468 -0.439818
vertex 0.40806 -0.803191 -0.434018
end loop
end factet
facet normal 0.039835 0.000637531 -0.0408959
outer loop
vertex 1.452 -3.68814 0.537868
vertex 0.40806 -0.803191 -0.434018
vertex 0.422241 -0.803206 -0.420205
end loop
end factet
facet normal 0.0367289 -0.00339514 -0.0497005
outer loop
vertex 1.452 -3.68814 0.537868
vertex 0.422241 -0.803206 -0.420205
vertex 0.438534 -0.80059 -0.408343
end loop
end factet
facet normal 0.0156479 0.00220191 -0.0100408
outer loop
vertex 1.452 -3.68814 0.537868
vertex 0.438534 -0.80059 -0.408343
vertex 0.442296 -0.801399 -0.402658
end loop
end factet
facet normal 0.00995421 -0.000596344 -0.0125167
outer loop
vertex 1.452 -3.68814 0.537868
vertex 0.442296 -0.801399 -0.402658
vertex 0.446402 -0.800741 -0.399425
end loop
end factet
facet normal 0.0300572 0.00369716 -0.0208585
outer loop
vertex 1.452 -3.68814 0.537868
vertex 0.446402 -0.800741 -0.399425
vertex 0.453982 -0.801764 -0.388682
end loop
end factet
facet normal 0.0565817 0.0136756 -0.0183446
outer loop
vertex 1.452 -3.68814 0.537868
vertex 0.453982 -0.801764 -0.388682
vertex 0.462186 -0.807111 -0.367363
end loop
end factet
facet normal 0.010623 0.00509542 0.00460124
outer loop
vertex 1.452 -3.68814 0.537868
vertex 0.462186 -0.807111 -0.367363
vertex 0.461429 -0.809556 -0.362908
end loop
end factet
facet normal 0.0114913 0.00278902 -0.0037241
outer loop
vertex 1.452 -3.68814 0.537868
vertex 0.461429 -0.809556 -0.362908
vertex 0.463061 -0.81054 -0.358608
end loop
end factet
facet normal 0.0140402 0.00349045 -0.00428438
outer loop
vertex 1.452 -3.68814 0.537868
vertex 0.463061 -0.81054 -0.358608
vertex 0.464968 -0.811756 -0.35335
end loop
end factet
facet normal 0.00730562 0.000902116 -0.00517988
outer loop
vertex 1.452 -3.68814 0.537868
vertex 0.464968 -0.811756 -0.35335
vertex 0.466791 -0.81182 -0.35079
end loop
end factet
facet normal 0.00484657 -0.010776 -0.0402517
outer loop
vertex 1.452 -3.68814 0.537868
vertex 0.466791 -0.81182 -0.35079
vertex 0.478392 -0.804832 -0.351264
end loop
end factet
facet normal 0.0104768 -0.0050118 -0.0277247
outer loop
vertex 1.452 -3.68814 0.537868
vertex 0.478392 -0.804832 -0.351264
vertex 0.486682 -0.800906 -0.348841
end loop
end factet
facet normal 0.0359185 0.00154561 -0.0340705
outer loop
vertex 1.452 -3.68814 0.537868
vertex 0.486682 -0.800906 -0.348841
vertex 0.497881 -0.79911 -0.336952
end loop
end factet
facet normal 0.0700805 -0.00181997 -0.0824437
outer loop
vertex 1.452 -3.68814 0.537868
vertex 0.497881 -0.79911 -0.336952
vertex 0.523872 -0.7914 -0.315029
end loop
end factet
facet normal 0.0845833 0.013606 -0.0458341
outer loop
vertex 1.452 -3.68814 0.537868
vertex 0.523872 -0.7914 -0.315029
vertex 0.539825 -0.791807 -0.28571
end loop
end factet
facet normal 0.0483541 0.0048691 -0.0364325
outer loop
vertex 1.452 -3.68814 0.537868
vertex 0.539825 -0.791807 -0.28571
vertex 0.55161 -0.789285 -0.269732
end loop
end factet
facet normal 0.0360215 0.00436521 -0.0244913
outer loop
vertex 1.452 -3.68814 0.537868
vertex 0.55161 -0.789285 -0.269732
vertex 0.559562 -0.787689 -0.257751
end loop
end factet
facet normal 0.0194209 0.0014779 -0.0163968
outer loop
vertex 1.452 -3.68814 0.537868
vertex 0.559562 -0.787689 -0.257751
vertex 0.564706 -0.786034 -0.251509
end loop
end factet
facet normal 0.0143807 0.00856668 0.0153303
outer loop
vertex 1.452 -3.68814 0.537868
vertex 0.564706 -0.786034 -0.251509
vertex 0.560863 -0.790742 -0.245273
end loop
end factet
facet normal 0.0022161 0.00580019 0.0189376
outer loop
vertex 1.452 -3.68814 0.537868
vertex 0.560863 -0.790742 -0.245273
vertex 0.55564 -0.795011 -0.243354
end loop
end factet
facet normal 0.00106835 0.00241953 0.0077343
outer loop
vertex 1.452 -3.68814 0.537868
vertex 0.55564 -0.795011 -0.243354
vertex 0.553507 -0.796754 -0.242515
end loop
end factet
facet normal -0.00405598 0.00176603 0.0112133
outer loop
vertex 1.452 -3.68814 0.537868
vertex 0.553507 -0.796754 -0.242515
vertex 0.550247 -0.798745 -0.24338
end loop
end factet
facet normal 0.00790548 0.0052796 0.0104012
outer loop
vertex 1.452 -3.68814 0.537868
vertex 0.550247 -0.798745 -0.24338
vertex 0.547556 -0.801655 -0.239857
end loop
end factet
facet normal 0.00933671 0.00879228 0.0217738
outer loop
vertex 1.452 -3.68814 0.537868
vertex 0.547556 -0.801655 -0.239857
vertex 0.54169 -0.807008 -0.23518
end loop
end factet
facet normal 0.0297143 0.0155597 0.0230005
outer loop
vertex 1.452 -3.68814 0.537868
vertex 0.54169 -0.807008 -0.23518
vertex 0.535997 -0.814256 -0.222922
end loop
end factet
facet normal 0.02514 0.00936711 0.00511503
outer loop
vertex 1.452 -3.68814 0.537868
vertex 0.535997 -0.814256 -0.222922
vertex 0.535199 -0.817337 -0.213359
end loop
end factet
facet normal 0.0151668 0.0107979 0.0227547
outer loop
vertex 1.452 -3.68814 0.537868
vertex 0.535199 -0.817337 -0.213359
vertex 0.529092 -0.823034 -0.206585
end loop
end factet
facet normal 0.0275383 0.0122821 0.0131288
outer loop
vertex 1.452 -3.68814 0.537868
vertex 0.529092 -0.823034 -0.206585
vertex 0.525996 -0.827648 -0.195774
end loop
end factet
facet normal 0.00864744 0.00907576 0.0244718
outer loop
vertex 1.452 -3.68814 0.537868
vertex 0.525996 -0.827648 -0.195774
vertex 0.519164 -0.832971 -0.191386
end loop
end factet
facet normal 0.0476658 0.0231339 0.0296011
outer loop
vertex 1.452 -3.68814 0.537868
vertex 0.519164 -0.832971 -0.191386
vertex 0.511651 -0.841707 -0.17246
end loop
end factet
facet normal 0.0152845 0.00941014 0.0174744
outer loop
vertex 1.452 -3.68814 0.537868
vertex 0.511651 -0.841707 -0.17246
vertex 0.506886 -0.845868 -0.166052
end loop
end factet
facet normal 0.00212252 0.00419497 0.0140889
outer loop
vertex 1.452 -3.68814 0.537868
vertex 0.506886 -0.845868 -0.166052
vertex 0.502826 -0.848564 -0.164638
end loop
end factet
facet normal 0.0114268 0.0057857 0.00794721
outer loop
vertex 1.452 -3.68814 0.537868
vertex 0.502826 -0.848564 -0.164638
vertex 0.500731 -0.85067 -0.160093
end loop
end factet
facet normal 0.00398183 0.0025537 0.00495481
outer loop
vertex 1.452 -3.68814 0.537868
vertex 0.500731 -0.85067 -0.160093
vertex 0.49936 -0.851789 -0.158414
end loop
end factet
facet normal 0.0180929 0.00719702 0.00456309
outer loop
vertex 1.452 -3.68814 0.537868
vertex 0.49936 -0.851789 -0.158414
vertex 0.498364 -0.853613 -0.151587
end loop
end factet
facet normal 0.0187411 0.0109759 0.0192025
outer loop
vertex 1.452 -3.68814 0.537868
vertex 0.498364 -0.853613 -0.151587
vertex 0.493068 -0.858007 -0.143907
end loop
end factet
facet normal 0.0320337 0.00971413 -0.00473166
outer loop
vertex 1.452 -3.68814 0.537868
vertex 0.493068 -0.858007 -0.143907
vertex 0.494991 -0.85875 -0.132409
end loop
end factet
facet normal 0.0368387 0.0149822 0.0106456
outer loop
vertex 1.452 -3.68814 0.537868
vertex 0.494991 -0.85875 -0.132409
vertex 0.492412 -0.862249 -0.11856
end loop
end factet
facet normal 0.0220639 0.0138812 0.0275042
outer loop
vertex 1.452 -3.68814 0.537868
vertex 0.492412 -0.862249 -0.11856
vertex 0.484588 -0.867869 -0.109447
end loop
end factet
facet normal 0.0155971 0.00948876 0.0180314
outer loop
vertex 1.452 -3.68814 0.537868
vertex 0.484588 -0.867869 -0.109447
vertex 0.47944 -0.8715 -0.103083
end loop
end factet
facet normal 0.0166457 0.0116875 0.0261025
outer loop
vertex 1.452 -3.68814 0.537868
vertex 0.47944 -0.8715 -0.103083
vertex 0.471871 -0.87642 -0.0960538
end loop
end factet
facet normal 0.0072459 0.00640023 0.0171845
outer loop
vertex 1.452 -3.68814 0.537868
vertex 0.471871 -0.87642 -0.0960538
vertex 0.466823 -0.87947 -0.0927891
end loop
end factet
facet normal 0.00168681 0.000889421 0.00132608
outer loop
vertex 1.452 -3.68814 0.537868
vertex 0.466823 -0.87947 -0.0927891
vertex 0.466445 -0.879739 -0.0921279
end loop
end factet
facet normal 0.00492334 0.0015834 -0.000643253
outer loop
vertex 1.452 -3.68814 0.537868
vertex 0.466445 -0.879739 -0.0921279
vertex 0.466693 -0.879791 -0.0903632
end loop
end factet
facet normal 0.00459027 0.00161517 2.09808e-05
outer loop
vertex 1.452 -3.68814 0.537868
vertex 0.466693 -0.879791 -0.0903632
vertex 0.466736 -0.879938 -0.0886959
end loop
end factet
facet normal 0.00228429 0.000822842 9.60827e-05
outer loop
vertex 1.452 -3.68814 0.537868
vertex 0.466736 -0.879938 -0.0886959
vertex 0.466732 -0.880023 -0.0878635
end loop
end factet
facet normal 0.0106231 0.00390095 0.00077939
outer loop
vertex 1.452 -3.68814 0.537868
vertex 0.466732 -0.880023 -0.0878635
vertex 0.46661 -0.880467 -0.0839815
end loop
end factet
facet normal 0.0104364 0.00374937 0.000391006
outer loop
vertex 1.452 -3.68814 0.537868
vertex 0.46661 -0.880467 -0.0839815
vertex 0.466598 -0.880827 -0.0801847
end loop
end factet
facet normal 0.012026 0.00330132 -0.00417829
outer loop
vertex 1.452 -3.68814 0.537868
vertex 0.466598 -0.880827 -0.0801847
vertex 0.467963 -0.880476 -0.0759782
end loop
end factet
facet normal 0.0143034 0.00354379 -0.00672054
outer loop
vertex 1.452 -3.68814 0.537868
vertex 0.467963 -0.880476 -0.0759782
vertex 0.470101 -0.879749 -0.0710429
end loop
end factet
facet normal 0.0273541 0.00859219 -0.00448155
outer loop
vertex 1.452 -3.68814 0.537868
vertex 0.470101 -0.879749 -0.0710429
vertex 0.471661 -0.879645 -0.0613252
end loop
end factet
facet normal 0.0364119 0.00995404 -0.0129175
outer loop
vertex 1.452 -3.68814 0.537868
vertex 0.471661 -0.879645 -0.0613252
vertex 0.475765 -0.878225 -0.0486632
end loop
end factet
facet normal 0.0192673 0.00537658 -0.00631142
outer loop
vertex 1.452 -3.68814 0.537868
vertex 0.475765 -0.878225 -0.0486632
vertex 0.477756 -0.87749 -0.0419597
end loop
end factet
facet normal 0.0327624 0.0075953 -0.0182314
outer loop
vertex 1.452 -3.68814 0.537868
vertex 0.477756 -0.87749 -0.0419597
vertex 0.483341 -0.874889 -0.0308398
end loop
end factet
facet normal 0.0853812 0.0190927 -0.0509806
outer loop
vertex 1.452 -3.68814 0.537868
vertex 0.483341 -0.874889 -0.0308398
vertex 0.498673 -0.866788 -0.00212781
end loop
end factet
facet normal 0.126336 0.0417738 -0.00477958
outer loop
vertex 1.452 -3.68814 0.537868
vertex 0.498673 -0.866788 -0.00212781
vertex 0.499799 -0.865107 0.0423288
end loop
end factet
facet normal 0.0876025 0.0261768 -0.0192065
outer loop
vertex 1.452 -3.68814 0.537868
vertex 0.499799 -0.865107 0.0423288
vertex 0.504919 -0.860118 0.0724844
end loop
end factet
facet normal 0.123687 0.024603 -0.102204
outer loop
vertex 1.452 -3.68814 0.537868
vertex 0.504919 -0.860118 0.0724844
vertex 0.5337 -0.838143 0.112604
end loop
end factet
facet normal 0.15878 0.0311063 -0.134401
outer loop
vertex 1.452 -3.68814 0.537868
vertex 0.5337 -0.838143 0.112604
vertex 0.570208 -0.805089 0.163385
end loop
end factet
facet normal 0.0391173 -0.000177592 -0.093477
outer loop
vertex 1.452 -3.68814 0.537868
vertex 0.570208 -0.805089 0.163385
vertex 0.596113 -0.783779 0.174185
end loop
end factet
facet normal 0.185484 0.0455019 -0.0731409
outer loop
vertex 1.452 -3.68814 0.537868
vertex 0.596113 -0.783779 0.174185
vertex 0.612734 -0.754724 0.23441
end loop
end factet
facet normal 0.181825 0.0170493 -0.338063
outer loop
vertex 1.452 -3.68814 0.537868
vertex 0.612734 -0.754724 0.23441
vertex 0.699433 -0.654948 0.286073
end loop
end factet
facet normal 0.0357716 0.00594617 -0.0352857
outer loop
vertex 1.452 -3.68814 0.537868
vertex 0.699433 -0.654948 0.286073
vertex 0.707661 -0.641225 0.296727
end loop
end factet
facet normal 0.00972903 0.000121564 -0.0284951
outer loop
vertex 1.452 -3.68814 0.537868
vertex 0.707661 -0.641225 0.296727
vertex 0.714786 -0.632108 0.299198
end loop
end factet
facet normal 0.051035 0.00502563 -0.0932899
outer loop
vertex 1.452 -3.68814 0.537868
vertex 0.714786 -0.632108 0.299198
vertex 0.737233 -0.598616 0.313283
end loop
end factet
facet normal -0.00367343 -0.00482336 -0.0546618
outer loop
vertex 1.452 -3.68814 0.537868
vertex 0.737233 -0.598616 0.313283
vertex 0.751156 -0.582323 0.310909
end loop
end factet
facet normal 0.0600184 0.0132447 -0.00409007
outer loop
vertex 1.452 -3.68814 0.537868
vertex 0.751156 -0.582323 0.310909
vertex 0.750371 -0.573008 0.329553
end loop
end factet
facet normal 0.144547 0.0308541 -0.0254629
outer loop
vertex 1.452 -3.68814 0.537868
vertex 0.750371 -0.573008 0.329553
vertex 0.751806 -0.543089 0.373954
end loop
end factet
facet normal 0.0334363 0.00646693 -0.0187488
outer loop
vertex 1.452 -3.68814 0.537868
vertex 0.751806 -0.543089 0.373954
vertex 0.75515 -0.531332 0.383972
end loop
end factet
facet normal 0.0244797 0.00350738 -0.0389004
outer loop
vertex 1.452 -3.68814 0.537868
vertex 0.75515 -0.531332 0.383972
vertex 0.763625 -0.513899 0.390877
end loop
end factet
facet normal 0.0146461 0.00191858 -0.027158
outer loop
vertex 1.452 -3.68814 0.537868
vertex 0.763625 -0.513899 0.390877
vertex 0.769558 -0.501807 0.394931
end loop
end factet
facet normal 0.0499521 0.0101484 -0.0122685
outer loop
vertex 1.452 -3.68814 0.537868
vertex 0.769558 -0.501807 0.394931
vertex 0.770478 -0.488127 0.409994
end loop
end factet
facet normal 0.0137497 0.0026449 -0.00709295
outer loop
vertex 1.452 -3.68814 0.537868
vertex 0.770478 -0.488127 0.409994
vertex 0.771583 -0.482904 0.414082
end loop
end factet
facet normal 0.0456051 0.0101148 0.0112252
outer loop
vertex 1.452 -3.68814 0.537868
vertex 0.771583 -0.482904 0.414082
vertex 0.76702 -0.477908 0.428118
end loop
end factet
facet normal 0.136471 0.0288274 -0.00854707
outer loop
vertex 1.452 -3.68814 0.537868
vertex 0.76702 -0.477908 0.428118
vertex 0.762642 -0.444911 0.469501
end loop
end factet
facet normal 0.373869 0.082655 0.151217
outer loop
vertex 1.452 -3.68814 0.537868
vertex 0.762642 -0.444911 0.469501
vertex 0.706478 -0.400036 0.583832
end loop
end factet
facet normal 0.16298 0.0358725 0.0773063
outer loop
vertex 1.452 -3.68814 0.537868
vertex 0.706478 -0.400036 0.583832
vertex 0.677076 -0.374052 0.633762
end loop
end factet
facet normal 0.0778195 0.0156986 0.086324
outer loop
vertex 1.452 -3.68814 0.537868
vertex 0.677076 -0.374052 0.633762
vertex 0.65201 -0.378252 0.657121
end loop
end factet
facet normal 0.0530327 0.0140202 -0.0333703
outer loop
vertex 1.452 -3.68814 0.537868
vertex 0.65201 -0.378252 0.657121
vertex 0.653663 -0.343378 0.6744
end loop
end factet
facet normal 0.0924885 0.0208295 0.0305247
outer loop
vertex 1.452 -3.68814 0.537868
vertex 0.653663 -0.343378 0.6744
vertex 0.637635 -0.314461 0.703233
end loop
end factet
facet normal 0.087608 0.0197358 0.0288041
outer loop
vertex 1.452 -3.68814 0.537868
vertex 0.637635 -0.314461 0.703233
vertex 0.6214 -0.282572 0.730764
end loop
end factet
facet normal 0.0379239 0.00834508 0.0159674
outer loop
vertex 1.452 -3.68814 0.537868
vertex 0.6214 -0.282572 0.730764
vertex 0.613343 -0.268764 0.742682
end loop
end factet
facet normal 0.164642 0.0289967 0.190066
outer loop
vertex 1.452 -3.68814 0.537868
vertex 0.613343 -0.268764 0.742682
vertex 0.554709 -0.256331 0.791576
end loop
end factet
facet normal 0.287951 0.0544621 0.281716
outer loop
vertex 1.452 -3.68814 0.537868
vertex 0.554709 -0.256331 0.791576
vertex 0.444388 -0.148356 0.883465
end loop
end factet
facet normal 0.195786 0.0211963 0.353727
outer loop
vertex 1.452 -3.68814 0.537868
vertex 0.444388 -0.148356 0.883465
vertex 0.303976 -0.00614103 0.95266
end loop
end factet
facet normal -0.0420544 -0.00796425 -0.0456986
outer loop
vertex 1.452 -3.68814 0.537868
vertex 0.303976 -0.00614103 0.95266
vertex 0.281803 0.10478 0.953734
end loop
end factet
facet normal -0.0835102 -0.0534586 0.252582
outer loop
vertex 1.452 -3.68814 0.537868
vertex 0.281803 0.10478 0.953734
vertex 0.165221 0.266808 0.949482
end loop
end factet
facet normal -0.0135827 -0.0307897 0.253377
outer loop
vertex 1.452 -3.68814 0.537868
vertex 0.165221 0.266808 0.949482
vertex 0.0902313 0.300382 0.949542
end loop
end factet
facet normal -0.174247 -0.132203 0.704461
outer loop
vertex 1.452 -3.68814 0.537868
vertex 0.0902313 0.300382 0.949542
vertex -0.115942 0.386937 0.914788
end loop
end factet
facet normal -0.0504338 -0.0595317 0.43383
outer loop
vertex 1.452 -3.68814 0.537868
vertex -0.115942 0.386937 0.914788
vertex -0.217659 0.374611 0.901272
end loop
end factet
facet normal -0.0592426 -0.021713 -0.0294461
outer loop
vertex 1.452 -3.68814 0.537868
vertex -0.217659 0.374611 0.901272
vertex -0.221197 0.400854 0.889038
end loop
end factet
facet normal -0.0280912 -0.0103166 -0.0137191
outer loop
vertex 1.452 -3.68814 0.537868
vertex -0.221197 0.400854 0.889038
vertex -0.222714 0.412763 0.88319
end loop
end factet
facet normal 0.00491703 0.00054121 0.0174193
outer loop
vertex 1.452 -3.68814 0.537868
vertex -0.222714 0.412763 0.88319
vertex -0.225538 0.409277 0.884096
end loop
end factet
facet normal 0.190856 0.0667186 0.135157
outer loop
vertex 1.452 -3.68814 0.537868
vertex -0.225538 0.409277 0.884096
vertex -0.220356 0.31605 0.922798
end loop
end factet
facet normal 0.0437826 0.0213791 -0.0321765
outer loop
vertex 1.452 -3.68814 0.537868
vertex -0.220356 0.31605 0.922798
vertex -0.205065 0.298678 0.932062
end loop
end factet
facet normal 0.0570153 0.0239194 -0.00224257
outer loop
vertex 1.452 -3.68814 0.537868
vertex -0.205065 0.298678 0.932062
vertex -0.192474 0.269738 0.943502
end loop
end factet
facet normal 0.0422838 0.0190113 -0.0140758
outer loop
vertex 1.452 -3.68814 0.537868
vertex -0.192474 0.269738 0.943502
vertex -0.179843 0.247899 0.951947
end loop
end factet
facet normal 0.0600715 0.0269395 -0.0193377
outer loop
vertex 1.452 -3.68814 0.537868
vertex -0.179843 0.247899 0.951947
vertex -0.160722 0.213629 0.963603
end loop
end factet
facet normal 0.0268451 0.00701177 0.0374308
outer loop
vertex 1.452 -3.68814 0.537868
vertex -0.160722 0.213629 0.963603
vertex -0.16128 0.191767 0.968098
end loop
end factet
facet normal 0.0641971 0.0261478 0.00492144
outer loop
vertex 1.452 -3.68814 0.537868
vertex -0.16128 0.191767 0.968098
vertex -0.142541 0.143652 0.979309
end loop
end factet
facet normal 0.0709255 0.0177945 0.101733
outer loop
vertex 1.452 -3.68814 0.537868
vertex -0.142541 0.143652 0.979309
vertex -0.135953 0.0640202 0.988645
end loop
end factet
facet normal 0.0229305 0.00386512 0.0486045
outer loop
vertex 1.452 -3.68814 0.537868
vertex -0.135953 0.0640202 0.988645
vertex -0.134079 0.0289836 0.990547
end loop
end factet
facet normal 0.0408518 0.0062179 0.0920782
outer loop
vertex 1.452 -3.68814 0.537868
vertex -0.134079 0.0289836 0.990547
vertex -0.121449 -0.0586701 0.990862
end loop
end factet
facet normal 0.0107472 -0.00291651 0.0606971
outer loop
vertex 1.452 -3.68814 0.537868
vertex -0.121449 -0.0586701 0.990862
vertex -0.114035 -0.114347 0.986874
end loop
end factet
facet normal 0.0110331 0.0131398 -0.0661039
outer loop
vertex 1.452 -3.68814 0.537868
vertex -0.114035 -0.114347 0.986874
vertex -0.0759942 -0.158948 0.984358
end loop
end factet
facet normal -0.00284731 -0.00367129 0.0192747
outer loop
vertex 1.452 -3.68814 0.537868
vertex -0.0759942 -0.158948 0.984358
vertex -0.0705358 -0.18417 0.98036
end loop
end factet
facet normal -0.0209575 -0.0292441 0.159465
outer loop
vertex 1.452 -3.68814 0.537868
vertex -0.0705358 -0.18417 0.98036
vertex -0.0971801 -0.227587 0.968896
end loop
end factet
facet normal -0.0783019 -0.0734774 0.308491
outer loop
vertex 1.452 -3.68814 0.537868
vertex -0.0971801 -0.227587 0.968896
vertex -0.140599 -0.329731 0.933547
end loop
end factet
facet normal -0.0481585 -0.0459953 0.196558
outer loop
vertex 1.452 -3.68814 0.537868
vertex -0.140599 -0.329731 0.933547
vertex -0.187934 -0.353332 0.916427
end loop
end factet
facet normal -0.0303218 -0.0233415 0.0742636
outer loop
vertex 1.452 -3.68814 0.537868
vertex -0.187934 -0.353332 0.916427
vertex -0.198485 -0.37716 0.904629
end loop
end factet
facet normal -0.018823 -0.00785041 -0.0138364
outer loop
vertex 1.452 -3.68814 0.537868
vertex -0.198485 -0.37716 0.904629
vertex -0.179446 -0.40697 0.895642
end loop
end factet
facet normal -0.0515379 -0.0322349 0.060616
outer loop
vertex 1.452 -3.68814 0.537868
vertex -0.179446 -0.40697 0.895642
vertex -0.176256 -0.45054 0.875184
end loop
end factet
facet normal -0.0474472 -0.0329075 0.0868173
outer loop
vertex 1.452 -3.68814 0.537868
vertex -0.176256 -0.45054 0.875184
vertex -0.189174 -0.478173 0.85765
end loop
end factet
facet normal -0.0323654 -0.0194184 0.0288157
outer loop
vertex 1.452 -3.68814 0.537868
vertex -0.189174 -0.478173 0.85765
vertex -0.186716 -0.500539 0.845339
end loop
end factet
facet normal -0.222167 -0.138336 0.250075
outer loop
vertex 1.452 -3.68814 0.537868
vertex -0.186716 -0.500539 0.845339
vertex -0.20955 -0.608727 0.765206
end loop
end factet
facet normal -0.221695 -0.132372 0.172731
outer loop
vertex 1.452 -3.68814 0.537868
vertex -0.20955 -0.608727 0.765206
vertex -0.220523 -0.692348 0.68704
end loop
end factet
facet normal -0.200868 -0.116822 0.0939765
outer loop
vertex 1.452 -3.68814 0.537868
vertex -0.220523 -0.692348 0.68704
vertex -0.215809 -0.75698 0.616772
end loop
end factet
facet normal -0.421439 -0.245357 0.206583
outer loop
vertex 1.452 -3.68814 0.537868
vertex -0.215809 -0.75698 0.616772
vertex -0.23268 -0.851193 0.470457
end loop
end factet
facet normal -0.180052 -0.10766 -0.0310845
outer loop
vertex 1.452 -3.68814 0.537868
vertex -0.23268 -0.851193 0.470457
vertex -0.197906 -0.8913 0.407943
end loop
end factet
facet normal -0.183057 -0.107863 0.00271559
outer loop
vertex 1.452 -3.68814 0.537868
vertex -0.197906 -0.8913 0.407943
vertex -0.181136 -0.921374 0.343889
end loop
end factet
facet normal -0.178461 -0.0985901 0.096282
outer loop
vertex 1.452 -3.68814 0.537868
vertex -0.181136 -0.921374 0.343889
vertex -0.206489 -0.937378 0.280509
end loop
end factet
facet normal -0.103499 -0.0629494 -0.00585127
outer loop
vertex 1.452 -3.68814 0.537868
vertex -0.206489 -0.937378 0.280509
vertex -0.197026 -0.949544 0.244022
end loop
end factet
facet normal -0.0581069 -0.031901 0.0287776
outer loop
vertex 1.452 -3.68814 0.537868
vertex -0.197026 -0.949544 0.244022
vertex -0.205534 -0.952867 0.22316
end loop
end factet
facet normal -0.0256041 -0.0146683 0.00736523
outer loop
vertex 1.452 -3.68814 0.537868
vertex -0.205534 -0.952867 0.22316
vertex -0.207169 -0.954612 0.214
end loop
end factet
facet normal -0.134794 -0.0823862 -0.00481081
outer loop
vertex 1.452 -3.68814 0.537868
vertex -0.207169 -0.954612 0.214
vertex -0.198541 -0.965927 0.16603
end loop
end factet
facet normal -0.135326 -0.0768974 0.037734
outer loop
vertex 1.452 -3.68814 0.537868
vertex -0.198541 -0.965927 0.16603
vertex -0.20945 -0.970796 0.116983
end loop
end factet
facet normal -0.0911062 -0.0630367 -0.0473375
outer loop
vertex 1.452 -3.68814 0.537868
vertex -0.20945 -0.970796 0.116983
vertex -0.187221 -0.978662 0.0846735
end loop
end factet
facet normal -0.123215 -0.0829503 -0.0502553
outer loop
vertex 1.452 -3.68814 0.537868
vertex -0.187221 -0.978662 0.0846735
vertex -0.164505 -0.985551 0.0403503
end loop
end factet
facet normal -0.129154 -0.0789886 -0.00943804
outer loop
vertex 1.452 -3.68814 0.537868
vertex -0.164505 -0.985551 0.0403503
vertex -0.160101 -0.987075 -0.00715803
end loop
end factet
facet normal -0.0421941 -0.0317375 -0.0324821
outer loop
vertex 1.452 -3.68814 0.537868
vertex -0.160101 -0.987075 -0.00715803
vertex -0.146996 -0.988883 -0.0224144
end loop
end factet
facet normal -0.02005 -0.0222633 -0.0500364
outer loop
vertex 1.452 -3.68814 0.537868
vertex -0.146996 -0.988883 -0.0224144
vertex -0.126921 -0.99148 -0.0293034
end loop
end factet
facet normal -0.0110152 -0.0108249 -0.020803
outer loop
vertex 1.452 -3.68814 0.537868
vertex -0.126921 -0.99148 -0.0293034
vertex -0.118681 -0.992377 -0.0331994
end loop
end factet
facet normal -0.047968 -0.0426338 -0.0693226
outer loop
vertex 1.452 -3.68814 0.537868
vertex -0.118681 -0.992377 -0.0331994
vertex -0.0917287 -0.9945 -0.0505435
end loop
end factet
facet normal -0.00475442 -0.0204715 -0.0812416
outer loop
vertex 1.452 -3.68814 0.537868
vertex -0.0917287 -0.9945 -0.0505435
vertex -0.0602275 -0.99684 -0.0517976
end loop
end factet
facet normal 0.0276198 0.00904733 -0.0295401
outer loop
vertex 1.452 -3.68814 0.537868
vertex -0.0602275 -0.99684 -0.0517976
vertex -0.04862 -0.997964 -0.0412887
end loop
end factet
facet normal 0.0107553 -0.000227809 -0.0289259
outer loop
vertex 1.452 -3.68814 0.537868
vertex -0.04862 -0.997964 -0.0412887
vertex -0.0375096 -0.998605 -0.0371525
end loop
end factet
facet normal -0.0040251 -0.0108083 -0.040127
outer loop
vertex 1.452 -3.68814 0.537868
vertex -0.0375096 -0.998605 -0.0371525
vertex -0.0223682 -0.999006 -0.0385635
end loop
end factet
facet normal 0.0134233 -0.00148326 -0.0412533
outer loop
vertex 1.452 -3.68814 0.537868
vertex -0.0223682 -0.999006 -0.0385635
vertex -0.00680252 -0.999416 -0.0334839
end loop
end factet
facet normal 0.00125277 -0.0126109 -0.0625446
outer loop
vertex 1.452 -3.68814 0.537868
vertex -0.00680252 -0.999416 -0.0334839
vertex 0.0164067 -0.999319 -0.0330384
end loop
end factet
facet normal -0.016995 -0.0147964 -0.026952
outer loop
vertex 1.452 -3.68814 0.537868
vertex 0.0164067 -0.999319 -0.0330384
vertex 0.0261947 -0.998878 -0.0394528
end loop
end factet
facet normal -0.0717658 -0.0547733 -0.0779037
outer loop
vertex 1.452 -3.68814 0.537868
vertex 0.0261947 -0.998878 -0.0394528
vertex 0.0538079 -0.996322 -0.0666875
end loop
end factet
facet normal -0.0177966 -0.0199685 -0.0477512
outer loop
vertex 1.452 -3.68814 0.537868
vertex 0.0538079 -0.996322 -0.0666875
vertex 0.0707424 -0.994772 -0.073647
end loop
end factet
facet normal 0.0138181 0.00195867 -0.0225849
outer loop
vertex 1.452 -3.68814 0.537868
vertex 0.0707424 -0.994772 -0.073647
vertex 0.0789951 -0.994513 -0.0685753
end loop
end factet
facet normal 0.00103986 -0.00358677 -0.0182855
outer loop
vertex 1.452 -3.68814 0.537868
vertex 0.0789951 -0.994513 -0.0685753
vertex 0.0855178 -0.993992 -0.0683065
end loop
end factet
facet normal 0.00282252 -0.00802767 -0.042042
outer loop
vertex 1.452 -3.68814 0.537868
vertex 0.0855178 -0.993992 -0.0683065
vertex 0.10044 -0.992647 -0.0675617
end loop
end factet
facet normal -0.00953972 -0.00810933 -0.0148082
outer loop
vertex 1.452 -3.68814 0.537868
vertex 0.10044 -0.992647 -0.0675617
vertex 0.105538 -0.991857 -0.0712781
end loop
end factet
facet normal -0.00845063 -0.00578272 -0.00691676
outer loop
vertex 1.452 -3.68814 0.537868
vertex 0.105538 -0.991857 -0.0712781
vertex 0.10786 -0.991369 -0.0745226
end loop
end factet
facet normal -0.0125675 -0.0106192 -0.0191786
outer loop
vertex 1.452 -3.68814 0.537868
vertex 0.10786 -0.991369 -0.0745226
vertex 0.114415 -0.990252 -0.0794365
end loop
end factet
facet normal -0.0201544 -0.012768 -0.0121307
outer loop
vertex 1.452 -3.68814 0.537868
vertex 0.114415 -0.990252 -0.0794365
vertex 0.118359 -0.989138 -0.0871618
end loop
end factet
facet normal -0.024996 -0.0201905 -0.0338521
outer loop
vertex 1.452 -3.68814 0.537868
vertex 0.118359 -0.989138 -0.0871618
vertex 0.129743 -0.986795 -0.0969656
end loop
end factet
facet normal -0.0147706 -0.0081436 -0.00388765
outer loop
vertex 1.452 -3.68814 0.537868
vertex 0.129743 -0.986795 -0.0969656
vertex 0.130833 -0.986081 -0.102601
end loop
end factet
facet normal -0.0277253 -0.0153086 -0.00739264
outer loop
vertex 1.452 -3.68814 0.537868
vertex 0.130833 -0.986081 -0.102601
vertex 0.132868 -0.984648 -0.113202
end loop
end factet
facet normal -0.0172371 -0.0166553 -0.034235
outer loop
vertex 1.452 -3.68814 0.537868
vertex 0.132868 -0.984648 -0.113202
vertex 0.144339 -0.982205 -0.120166
end loop
end factet
facet normal -0.0435903 -0.0382665 -0.070734
outer loop
vertex 1.452 -3.68814 0.537868
vertex 0.144339 -0.982205 -0.120166
vertex 0.167573 -0.97619 -0.137738
end loop
end factet
facet normal -0.00280643 -0.0046581 -0.0133629
outer loop
vertex 1.452 -3.68814 0.537868
vertex 0.167573 -0.97619 -0.137738
vertex 0.172046 -0.975231 -0.139011
end loop
end factet
facet normal -0.00676918 -0.00649118 -0.0132165
outer loop
vertex 1.452 -3.68814 0.537868
vertex 0.172046 -0.975231 -0.139011
vertex 0.176364 -0.974058 -0.141799
end loop
end factet
facet normal -0.0222154 -0.014573 -0.0164983
outer loop
vertex 1.452 -3.68814 0.537868
vertex 0.176364 -0.974058 -0.141799
vertex 0.181391 -0.97182 -0.150545
end loop
end factet
facet normal -0.00574267 -0.00637794 -0.0145669
outer loop
vertex 1.452 -3.68814 0.537868
vertex 0.181391 -0.97182 -0.150545
vertex 0.186154 -0.970537 -0.152984
end loop
end factet
facet normal -0.00896144 -0.00763267 -0.0136046
outer loop
vertex 1.452 -3.68814 0.537868
vertex 0.186154 -0.970537 -0.152984
vertex 0.190495 -0.96911 -0.156645
end loop
end factet
facet normal -0.0186075 -0.0131626 -0.0177333
outer loop
vertex 1.452 -3.68814 0.537868
vertex 0.190495 -0.96911 -0.156645
vertex 0.195941 -0.966791 -0.16408
end loop
end factet
facet normal -0.0295786 -0.0314023 -0.0688145
outer loop
vertex 1.452 -3.68814 0.537868
vertex 0.195941 -0.966791 -0.16408
vertex 0.218006 -0.959809 -0.17675
end loop
end factet
facet normal -0.0358285 -0.0215945 -0.0205772
outer loop
vertex 1.452 -3.68814 0.537868
vertex 0.218006 -0.959809 -0.17675
vertex 0.22372 -0.955767 -0.190941
end loop
end factet
facet normal -0.00135446 -0.00431758 -0.0139043
outer loop
vertex 1.452 -3.68814 0.537868
vertex 0.22372 -0.955767 -0.190941
vertex 0.228252 -0.95453 -0.191767
end loop
end factet
facet normal -0.00103617 -0.00914586 -0.0325274
outer loop
vertex 1.452 -3.68814 0.537868
vertex 0.228252 -0.95453 -0.191767
vertex 0.238882 -0.951695 -0.192902
end loop
end factet
facet normal -0.0447025 -0.0333948 -0.0508413
outer loop
vertex 1.452 -3.68814 0.537868
vertex 0.238882 -0.951695 -0.192902
vertex 0.253979 -0.943839 -0.211337
end loop
end factet
facet normal -0.00534987 -0.0157443 -0.0491157
outer loop
vertex 1.452 -3.68814 0.537868
vertex 0.253979 -0.943839 -0.211337
vertex 0.269644 -0.938725 -0.214682
end loop
end factet
facet normal -0.00229526 -0.00284523 -0.00678873
outer loop
vertex 1.452 -3.68814 0.537868
vertex 0.269644 -0.938725 -0.214682
vertex 0.271746 -0.937873 -0.21575
end loop
end factet
facet normal -0.00938416 -0.00853717 -0.016459
outer loop
vertex 1.452 -3.68814 0.537868
vertex 0.271746 -0.937873 -0.21575
vertex 0.276702 -0.935476 -0.219819
end loop
end factet
facet normal -0.0169368 -0.009983 -0.00999618
outer loop
vertex 1.452 -3.68814 0.537868
vertex 0.276702 -0.935476 -0.219819
vertex 0.279308 -0.933073 -0.226633
end loop
end factet
facet normal -0.0295632 -0.0217111 -0.0328932
outer loop
vertex 1.452 -3.68814 0.537868
vertex 0.279308 -0.933073 -0.226633
vertex 0.288705 -0.927102 -0.239021
end loop
end factet
facet normal -0.0275435 -0.00116515 0.0371022
outer loop
vertex 1.452 -3.68814 0.537868
vertex 0.288705 -0.927102 -0.239021
vertex 0.275854 -0.928494 -0.248605
end loop
end factet
facet normal -0.0884857 -0.0237541 0.0489781
outer loop
vertex 1.452 -3.68814 0.537868
vertex 0.275854 -0.928494 -0.248605
vertex 0.256436 -0.924574 -0.281786
end loop
end factet
facet normal -0.0355182 -0.0172954 -0.00650573
outer loop
vertex 1.452 -3.68814 0.537868
vertex 0.256436 -0.924574 -0.281786
vertex 0.256819 -0.920019 -0.29599
end loop
end factet
facet normal -0.0579443 -0.0248087 0.000696182
outer loop
vertex 1.452 -3.68814 0.537868
vertex 0.256819 -0.920019 -0.29599
vertex 0.253622 -0.913197 -0.318977
end loop
end factet
facet normal -0.103722 -0.0612125 -0.0531754
outer loop
vertex 1.452 -3.68814 0.537868
vertex 0.253622 -0.913197 -0.318977
vertex 0.264388 -0.893753 -0.362359
end loop
end factet
facet normal -0.0540509 -0.0387973 -0.049124
outer loop
vertex 1.452 -3.68814 0.537868
vertex 0.264388 -0.893753 -0.362359
vertex 0.276185 -0.880148 -0.386085
end loop
end factet
facet normal -0.0884583 -0.0500277 -0.0394683
outer loop
vertex 1.452 -3.68814 0.537868
vertex 0.276185 -0.880148 -0.386085
vertex 0.28206 -0.860612 -0.424015
end loop
end factet
facet normal -0.16281 -0.0916721 -0.07145
outer loop
vertex 1.452 -3.68814 0.537868
vertex 0.28206 -0.860612 -0.424015
vertex 0.289925 -0.818549 -0.495905
end loop
end factet
facet normal -0.0417154 -0.0450586 -0.0781827
outer loop
vertex 1.452 -3.68814 0.537868
vertex 0.289925 -0.818549 -0.495905
vertex 0.308751 -0.797759 -0.517931
end loop
end factet
facet normal -0.0280437 -0.0321658 -0.0576911
outer loop
vertex 1.452 -3.68814 0.537868
vertex 0.308751 -0.797759 -0.517931
vertex 0.322472 -0.781985 -0.533396
end loop
end factet
facet normal 0.000475168 0.00237156 -0.00318959
outer loop
vertex 0.322472 -0.781985 -0.533396
vertex 0 0 0
vertex 0.326228 -0.781204 -0.532255
end loop
end factet
facet normal 0.00725734 0.00872901 -0.0083636
outer loop
vertex 0.326228 -0.781204 -0.532255
vertex 0 0 0
vertex 0.337376 -0.78226 -0.523685
end loop
end factet
facet normal -0.00335395 0.00649279 -0.0118594
outer loop
vertex 0.337376 -0.78226 -0.523685
vertex 0 0 0
vertex 0.35002 -0.776427 -0.524067
end loop
end factet
facet normal 0.000888497 0.00539315 -0.00739673
outer loop
vertex 0.35002 -0.776427 -0.524067
vertex 0 0 0
vertex 0.358575 -0.774271 -0.521468
end loop
end factet
facet normal 0.00258094 0.00445803 -0.00484452
outer loop
vertex 0.358575 -0.774271 -0.521468
vertex 0 0 0
vertex 0.364642 -0.77386 -0.517858
end loop
end factet
facet normal -0.00126585 0.00309104 -0.00551039
outer loop
vertex 0.364642 -0.77386 -0.517858
vertex 0 0 0
vertex 0.370499 -0.771179 -0.517699
end loop
end factet
facet normal 0.00723651 0.0075921 -0.00613052
outer loop
vertex 0.370499 -0.771179 -0.517699
vertex 0 0 0
vertex 0.37913 -0.772597 -0.509268
end loop
end factet
facet normal 0.0113751 0.00690241 -0.00200316
outer loop
vertex 0.37913 -0.772597 -0.509268
vertex 0 0 0
vertex 0.384158 -0.777561 -0.497816
end loop
end factet
facet normal 0.032276 0.0178692 -0.00300369
outer loop
vertex 0.384158 -0.777561 -0.497816
vertex 0 0 0
vertex 0.395126 -0.791942 -0.465514
end loop
end factet
facet normal 0.0156148 0.00794828 -0.000268042
outer loop
vertex 0.395126 -0.791942 -0.465514
vertex 0 0 0
vertex 0.398978 -0.798983 -0.449936
end loop
end factet
facet normal 0.0096522 0.00595663 -0.0020186
outer loop
vertex 0.398978 -0.798983 -0.449936
vertex 0 0 0
vertex 0.403244 -0.802468 -0.439818
end loop
end factet
facet normal 0.00497228 0.00445667 -0.00357261
outer loop
vertex 0.403244 -0.802468 -0.439818
vertex 0 0 0
vertex 0.40806 -0.803191 -0.434018
end loop
end factet
facet normal 0.0111012 0.0117915 -0.011384
outer loop
vertex 0.40806 -0.803191 -0.434018
vertex 0 0 0
vertex 0.422241 -0.803206 -0.420205
end loop
end factet
facet normal 0.00842825 0.0118553 -0.0141919
outer loop
vertex 0.422241 -0.803206 -0.420205
vertex 0 0 0
vertex 0.438534 -0.80059 -0.408343
end loop
end factet
facet normal 0.00488141 0.0040288 -0.00265643
outer loop
vertex 0.438534 -0.80059 -0.408343
vertex 0 0 0
vertex 0.442296 -0.801399 -0.402658
end loop
end factet
facet normal 0.00232634 0.00308338 -0.00358137
outer loop
vertex 0.442296 -0.801399 -0.402658
vertex 0 0 0
vertex 0.446402 -0.800741 -0.399425
end loop
end factet
facet normal 0.00901055 0.00782312 -0.005613
outer loop
vertex 0.446402 -0.800741 -0.399425
vertex 0 0 0
vertex 0.453982 -0.801764 -0.388682
end loop
end factet
facet normal 0.0191712 0.0128675 -0.00415066
outer loop
vertex 0.453982 -0.801764 -0.388682
vertex 0 0 0
vertex 0.462186 -0.807111 -0.367363
end loop
end factet
facet normal 0.00449431 0.00178112 0.00174117
outer loop
vertex 0.462186 -0.807111 -0.367363
vertex 0 0 0
vertex 0.461429 -0.809556 -0.362908
end loop
end factet
facet normal 0.00383788 0.0025764 -0.000867516
outer loop
vertex 0.461429 -0.809556 -0.362908
vertex 0 0 0
vertex 0.463061 -0.81054 -0.358608
end loop
end factet
facet normal 0.00469819 0.00311868 -0.000982255
outer loop
vertex 0.463061 -0.81054 -0.358608
vertex 0 0 0
vertex 0.464968 -0.811756 -0.35335
end loop
end factet
facet normal 0.00210059 0.00183435 -0.00144991
outer loop
vertex 0.464968 -0.811756 -0.35335
vertex 0 0 0
vertex 0.466791 -0.81182 -0.35079
end loop
end factet
facet normal -0.00283629 0.00384802 -0.0126795
outer loop
vertex 0.466791 -0.81182 -0.35079
vertex 0 0 0
vertex 0.478392 -0.804832 -0.351264
end loop
end factet
facet normal 0.000570983 0.00407103 -0.00855011
outer loop
vertex 0.478392 -0.804832 -0.351264
vertex 0 0 0
vertex 0.486682 -0.800906 -0.348841
end loop
end factet
facet normal 0.00889543 0.00969316 -0.00984421
outer loop
vertex 0.486682 -0.800906 -0.348841
vertex 0 0 0
vertex 0.497881 -0.79911 -0.336952
end loop
end factet
facet normal 0.0149209 0.0196725 -0.0246079
outer loop
vertex 0.497881 -0.79911 -0.336952
vertex 0 0 0
vertex 0.523872 -0.7914 -0.315029
end loop
end factet
facet normal 0.0233315 0.0203852 -0.012412
outer loop
vertex 0.523872 -0.7914 -0.315029
vertex 0 0 0
vertex 0.539825 -0.791807 -0.28571
end loop
end factet
facet normal 0.0119308 0.0119922 -0.0106926
outer loop
vertex 0.539825 -0.791807 -0.28571
vertex 0 0 0
vertex 0.55161 -0.789285 -0.269732
end loop
end factet
facet normal 0.00902624 0.00875421 -0.0071575
outer loop
vertex 0.55161 -0.789285 -0.269732
vertex 0 0 0
vertex 0.559562 -0.787689 -0.257751
end loop
end factet
facet normal 0.00449011 0.0048186 -0.00497791
outer loop
vertex 0.559562 -0.787689 -0.257751
vertex 0 0 0
vertex 0.564706 -0.786034 -0.251509
end loop
end factet
facet normal 0.00608575 0.00255491 0.00567937
outer loop
vertex 0.564706 -0.786034 -0.251509
vertex 0 0 0
vertex 0.560863 -0.790742 -0.245273
end loop
end factet
facet normal 0.00256409 -0.000205055 0.00652435
outer loop
vertex 0.560863 -0.790742 -0.245273
vertex 0 0 0
vertex 0.55564 -0.795011 -0.243354
end loop
end factet
facet normal 0.00109187 -5.24968e-05 0.00266454
outer loop
vertex 0.55564 -0.795011 -0.243354
vertex 0 0 0
vertex 0.553507 -0.796754 -0.242515
end loop
end factet
facet normal -0.00020656 -0.00126943 0.00369912
outer loop
vertex 0.553507 -0.796754 -0.242515
vertex 0 0 0
vertex 0.550247 -0.798745 -0.24338
end loop
end factet
facet normal 0.00352213 0.00128336 0.00375119
outer loop
vertex 0.550247 -0.798745 -0.24338
vertex 0 0 0
vertex 0.547556 -0.801655 -0.239857
end loop
end factet
facet normal 0.00503327 0.00115386 0.00763372
outer loop
vertex 0.547556 -0.801655 -0.239857
vertex 0 0 0
vertex 0.54169 -0.807008 -0.23518
end loop
end factet
facet normal 0.011597 0.0053012 0.00852051
outer loop
vertex 0.54169 -0.807008 -0.23518
vertex 0 0 0
vertex 0.535997 -0.814256 -0.222922
end loop
end factet
facet normal 0.00847386 0.00494809 0.00230101
outer loop
vertex 0.535997 -0.814256 -0.222922
vertex 0 0 0
vertex 0.535199 -0.817337 -0.213359
end loop
end factet
facet normal 0.00675179 0.00232229 0.00804022
outer loop
vertex 0.535199 -0.817337 -0.213359
vertex 0 0 0
vertex 0.529092 -0.823034 -0.206585
end loop
end factet
facet normal 0.00985056 0.00508013 0.00498945
outer loop
vertex 0.529092 -0.823034 -0.206585
vertex 0 0 0
vertex 0.525996 -0.827648 -0.195774
end loop
end factet
facet normal 0.00467409 0.000970706 0.00845435
outer loop
vertex 0.525996 -0.827648 -0.195774
vertex 0 0 0
vertex 0.519164 -0.832971 -0.191386
end loop
end factet
facet normal 0.0174369 0.0083878 0.0107938
outer loop
vertex 0.519164 -0.832971 -0.191386
vertex 0 0 0
vertex 0.511651 -0.841707 -0.17246
end loop
end factet
facet normal 0.00611128 0.00245699 0.00613928
outer loop
vertex 0.511651 -0.841707 -0.17246
vertex 0 0 0
vertex 0.506886 -0.845868 -0.166052
end loop
end factet
facet normal 0.00164406 4.27216e-05 0.00480101
outer loop
vertex 0.506886 -0.845868 -0.166052
vertex 0 0 0
vertex 0.502826 -0.848564 -0.164638
end loop
end factet
facet normal 0.00420344 0.00194048 0.00283638
outer loop
vertex 0.502826 -0.848564 -0.164638
vertex 0 0 0
vertex 0.500731 -0.85067 -0.160093
end loop
end factet
facet normal 0.00160719 0.00062108 0.00172678
outer loop
vertex 0.500731 -0.85067 -0.160093
vertex 0 0 0
vertex 0.49936 -0.851789 -0.158414
end loop
end factet
facet normal 0.00610377 0.00325114 0.00175929
outer loop
vertex 0.49936 -0.851789 -0.158414
vertex 0 0 0
vertex 0.498364 -0.853613 -0.151587
end loop
end factet
facet normal 0.00722215 0.0030248 0.00671068
outer loop
vertex 0.498364 -0.853613 -0.151587
vertex 0 0 0
vertex 0.493068 -0.858007 -0.143907
end loop
end factet
facet normal 0.0099722 0.00594606 -0.00128403
outer loop
vertex 0.493068 -0.858007 -0.143907
vertex 0 0 0
vertex 0.494991 -0.85875 -0.132409
end loop
end factet
facet normal 0.0123561 0.00651366 0.00394666
outer loop
vertex 0.494991 -0.85875 -0.132409
vertex 0 0 0
vertex 0.492412 -0.862249 -0.11856
end loop
end factet
facet normal 0.00852401 0.0035597 0.009514
outer loop
vertex 0.492412 -0.862249 -0.11856
vertex 0 0 0
vertex 0.484588 -0.867869 -0.109447
end loop
end factet
facet normal 0.00592029 0.00252036 0.00622728
outer loop
vertex 0.484588 -0.867869 -0.109447
vertex 0 0 0
vertex 0.47944 -0.8715 -0.103083
end loop
end factet
facet normal 0.00663326 0.00258998 0.0089547
outer loop
vertex 0.47944 -0.8715 -0.103083
vertex 0 0 0
vertex 0.471871 -0.87642 -0.0960538
end loop
end factet
facet normal 0.00315423 0.0010556 0.00586385
outer loop
vertex 0.471871 -0.87642 -0.0960538
vertex 0 0 0
vertex 0.466823 -0.87947 -0.0927891
end loop
end factet
facet normal 0.000606485 0.000273608 0.000457942
outer loop
vertex 0.466823 -0.87947 -0.0927891
vertex 0 0 0
vertex 0.466445 -0.879739 -0.0921279
end loop
end factet
facet normal 0.0015573 0.00084595 -0.000193417
outer loop
vertex 0.466445 -0.879739 -0.0921279
vertex 0 0 0
vertex 0.466693 -0.879791 -0.0903632
end loop
end factet
facet normal 0.00148007 0.000782065 2.97427e-05
outer loop
vertex 0.466693 -0.879791 -0.0903632
vertex 0 0 0
vertex 0.466736 -0.879938 -0.0886959
end loop
end factet
facet normal 0.000740118 0.000388168 4.36902e-05
outer loop
vertex 0.466736 -0.879938 -0.0886959
vertex 0 0 0
vertex 0.466732 -0.880023 -0.0878635
end loop
end factet
facet normal 0.00345514 0.00180111 0.000314176
outer loop
vertex 0.466732 -0.880023 -0.0878635
vertex 0 0 0
vertex 0.46661 -0.880467 -0.0839815
end loop
end factet
facet normal 0.00337332 0.0017706 0.000179499
outer loop
vertex 0.46661 -0.880467 -0.0839815
vertex 0 0 0
vertex 0.466598 -0.880827 -0.0801847
end loop
end factet
facet normal 0.003677 0.00207218 -0.00136629
outer loop
vertex 0.466598 -0.880827 -0.0801847
vertex 0 0 0
vertex 0.467963 -0.880476 -0.0759782
end loop
end factet
facet normal 0.00429016 0.00247205 -0.00222358
outer loop
vertex 0.467963 -0.880476 -0.0759782
vertex 0 0 0
vertex 0.470101 -0.879749 -0.0710429
end loop
end factet
facet normal 0.00854172 0.00467908 -0.00142077
outer loop
vertex 0.470101 -0.879749 -0.0710429
vertex 0 0 0
vertex 0.471661 -0.879645 -0.0613252
end loop
end factet
facet normal 0.011051 0.00622385 -0.00427955
outer loop
vertex 0.471661 -0.879645 -0.0613252
vertex 0 0 0
vertex 0.475765 -0.878225 -0.0486632
end loop
end factet
facet normal 0.00585141 0.00328617 -0.00209805
outer loop
vertex 0.475765 -0.878225 -0.0486632
vertex 0 0 0
vertex 0.477756 -0.87749 -0.0419597
end loop
end factet
facet normal 0.00964847 0.00554694 -0.00614339
outer loop
vertex 0.477756 -0.87749 -0.0419597
vertex 0 0 0
vertex 0.483341 -0.874889 -0.0308398
end loop
end factet
facet normal 0.02487 0.0143505 -0.0173296
outer loop
vertex 0.483341 -0.874889 -0.0308398
vertex 0 0 0
vertex 0.498673 -0.866788 -0.00212781
end loop
end factet
facet normal 0.0385308 0.0221717 -0.00181437
outer loop
vertex 0.498673 -0.866788 -0.00212781
vertex 0 0 0
vertex 0.499799 -0.865107 0.0423288
end loop
end factet
facet normal 0.026299 0.014855 -0.00692344
outer loop
vertex 0.499799 -0.865107 0.0423288
vertex 0 0 0
vertex 0.504919 -0.860118 0.0724844
end loop
end factet
facet normal 0.0361007 0.0181712 -0.03585
outer loop
vertex 0.504919 -0.860118 0.0724844
vertex 0 0 0
vertex 0.5337 -0.838143 0.112604
end loop
end factet
facet normal 0.0462831 0.0229905 -0.0482398
outer loop
vertex 0.5337 -0.838143 0.112604
vertex 0 0 0
vertex 0.570208 -0.805089 0.163385
end loop
end factet
facet normal 0.0121768 0.00192577 -0.0330073
outer loop
vertex 0.570208 -0.805089 0.163385
vertex 0 0 0
vertex 0.596113 -0.783779 0.174185
end loop
end factet
facet normal 0.0522645 0.0330062 -0.0303469
outer loop
vertex 0.596113 -0.783779 0.174185
vertex 0 0 0
vertex 0.612734 -0.754724 0.23441
end loop
end factet
facet normal 0.0623796 0.0113322 -0.12657
outer loop
vertex 0.612734 -0.754724 0.23441
vertex 0 0 0
vertex 0.699433 -0.654948 0.286073
end loop
end factet
facet normal 0.0109037 0.00509797 -0.0149874
outer loop
vertex 0.699433 -0.654948 0.286073
vertex 0 0 0
vertex 0.707661 -0.641225 0.296727
end loop
end factet
facet normal 0.00428985 -0.000365153 -0.0110199
outer loop
vertex 0.707661 -0.641225 0.296727
vertex 0 0 0
vertex 0.714786 -0.632108 0.299198
end loop
end factet
facet normal 0.0189235 0.00335099 -0.0381288
outer loop
vertex 0.714786 -0.632108 0.299198
vertex 0 0 0
vertex 0.737233 -0.598616 0.313283
end loop
end factet
facet normal 0.00368369 -0.00611161 -0.0203466
outer loop
vertex 0.737233 -0.598616 0.313283
vertex 0 0 0
vertex 0.751156 -0.582323 0.310909
end loop
end factet
facet normal 0.0137528 0.0142485 -0.00653976
outer loop
vertex 0.751156 -0.582323 0.310909
vertex 0 0 0
vertex 0.750371 -0.573008 0.329553
end loop
end factet
facet normal 0.0353018 0.0328441 -0.0232725
outer loop
vertex 0.750371 -0.573008 0.329553
vertex 0 0 0
vertex 0.751806 -0.543089 0.373954
end loop
end factet
facet normal 0.00983766 0.00628167 -0.0106551
outer loop
vertex 0.751806 -0.543089 0.373954
vertex 0 0 0
vertex 0.75515 -0.531332 0.383972
end loop
end factet
facet normal 0.0103623 0.0019601 -0.0176671
outer loop
vertex 0.75515 -0.531332 0.383972
vertex 0 0 0
vertex 0.763625 -0.513899 0.390877
end loop
end factet
facet normal 0.00681011 0.000776589 -0.0122834
outer loop
vertex 0.763625 -0.513899 0.390877
vertex 0 0 0
vertex 0.769558 -0.501807 0.394931
end loop
end factet
facet normal 0.0129615 0.0112286 -0.0109894
outer loop
vertex 0.769558 -0.501807 0.394931
vertex 0 0 0
vertex 0.770478 -0.488127 0.409994
end loop
end factet
facet normal 0.00413683 0.00269702 -0.00456312
outer loop
vertex 0.770478 -0.488127 0.409994
vertex 0 0 0
vertex 0.771583 -0.482904 0.414082
end loop
end factet
facet normal 0.00884652 0.0127188 -0.00165156
outer loop
vertex 0.771583 -0.482904 0.414082
vertex 0 0 0
vertex 0.76702 -0.477908 0.428118
end loop
end factet
facet normal 0.0339036 0.0336162 -0.0232163
outer loop
vertex 0.76702 -0.477908 0.428118
vertex 0 0 0
vertex 0.762642 -0.444911 0.469501
end loop
end factet
facet normal 0.0719359 0.113562 -0.00923565
outer loop
vertex 0.762642 -0.444911 0.469501
vertex 0 0 0
vertex 0.706478 -0.400036 0.583832
end loop
end factet
facet normal 0.0351442 0.0524404 -0.00659534
outer loop
vertex 0.706478 -0.400036 0.583832
vertex 0 0 0
vertex 0.677076 -0.374052 0.633762
end loop
end factet
facet normal 0.00607629 0.031702 0.0122193
outer loop
vertex 0.677076 -0.374052 0.633762
vertex 0 0 0
vertex 0.65201 -0.378252 0.657121
end loop
end factet
facet normal 0.0294518 0.0101797 -0.0233631
outer loop
vertex 0.65201 -0.378252 0.657121
vertex 0 0 0
vertex 0.653663 -0.343378 0.6744
end loop
end factet
facet normal 0.0294022 0.029656 -0.0133985
outer loop
vertex 0.653663 -0.343378 0.6744
vertex 0 0 0
vertex 0.637635 -0.314461 0.703233
end loop
end factet
facet normal 0.0310826 0.0289721 -0.0152279
outer loop
vertex 0.637635 -0.314461 0.703233
vertex 0 0 0
vertex 0.6214 -0.282572 0.730764
end loop
end factet
facet normal 0.0134583 0.0132931 -0.00630395
outer loop
vertex 0.6214 -0.282572 0.730764
vertex 0 0 0
vertex 0.613343 -0.268764 0.742682
end loop
end factet
facet normal 0.0223747 0.0735358 0.00813326
outer loop
vertex 0.613343 -0.268764 0.742682
vertex 0 0 0
vertex 0.554709 -0.256331 0.791576
end loop
end factet
facet normal 0.109024 0.138299 -0.031616
outer loop
vertex 0.554709 -0.256331 0.791576
vertex 0 0 0
vertex 0.444388 -0.148356 0.883465
end loop
end factet
facet normal 0.135908 0.154798 -0.0423678
outer loop
vertex 0.444388 -0.148356 0.883465
vertex 0 0 0
vertex 0.303976 -0.00614103 0.95266
end loop
end factet
facet normal 0.105676 0.02145 -0.0335811
outer loop
vertex 0.303976 -0.00614103 0.95266
vertex 0 0 0
vertex 0.281803 0.10478 0.953734
end loop
end factet
facet normal 0.154977 0.10999 -0.0578756
outer loop
vertex 0.281803 0.10478 0.953734
vertex 0 0 0
vertex 0.165221 0.266808 0.949482
end loop
end factet
facet normal 0.0318615 0.0712109 -0.0255548
outer loop
vertex 0.165221 0.266808 0.949482
vertex 0 0 0
vertex 0.0902313 0.300382 0.949542
end loop
end factet
facet normal 0.092627 0.192635 -0.0697408
outer loop
vertex 0.0902313 0.300382 0.949542
vertex 0 0 0
vertex -0.115942 0.386937 0.914788
end loop
end factet
facet normal -0.00604564 0.0946164 -0.040787
outer loop
vertex -0.115942 0.386937 0.914788
vertex 0 0 0
vertex -0.217659 0.374611 0.901272
end loop
end factet
facet normal 0.0282357 0.00585119 0.00438695
outer loop
vertex -0.217659 0.374611 0.901272
vertex 0 0 0
vertex -0.221197 0.400854 0.889038
end loop
end factet
facet normal 0.012931 0.00264262 0.00202577
outer loop
vertex -0.221197 0.400854 0.889038
vertex 0 0 0
vertex -0.222714 0.412763 0.88319
end loop
end factet
facet normal -0.00345284 0.00229236 -0.00194205
outer loop
vertex -0.222714 0.412763 0.88319
vertex 0 0 0
vertex -0.225538 0.409277 0.884096
end loop
end factet
facet normal -0.0982611 -0.0133105 -0.0189051
outer loop
vertex -0.225538 0.409277 0.884096
vertex 0 0 0
vertex -0.220356 0.31605 0.922798
end loop
end factet
facet normal -0.0189583 -0.0161519 0.00100479
outer loop
vertex -0.220356 0.31605 0.922798
vertex 0 0 0
vertex -0.205065 0.298678 0.932062
end loop
end factet
facet normal -0.0303909 -0.0140815 -0.00217394
outer loop
vertex -0.205065 0.298678 0.932062
vertex 0 0 0
vertex -0.192474 0.269738 0.943502
end loop
end factet
facet normal -0.0228833 -0.0135423 -0.000796571
outer loop
vertex -0.192474 0.269738 0.943502
vertex 0 0 0
vertex -0.179843 0.247899 0.951947
end loop
end factet
facet normal -0.0355133 -0.0202987 -0.00142319
outer loop
vertex -0.179843 0.247899 0.951947
vertex 0 0 0
vertex -0.160722 0.213629 0.963603
end loop
end factet
facet normal -0.0220256 -0.000185326 -0.00363263
outer loop
vertex -0.160722 0.213629 0.963603
vertex 0 0 0
vertex -0.16128 0.191767 0.968098
end loop
end factet
facet normal -0.0487303 -0.0199485 -0.00416665
outer loop
vertex -0.16128 0.191767 0.968098
vertex 0 0 0
vertex -0.142541 0.143652 0.979309
end loop
end factet
facet normal -0.0793253 -0.00778241 -0.0104045
outer loop
vertex -0.142541 0.143652 0.979309
vertex 0 0 0
vertex -0.135953 0.0640202 0.988645
end loop
end factet
facet normal -0.0347605 -0.00211143 -0.00464335
outer loop
vertex -0.135953 0.0640202 0.988645
vertex 0 0 0
vertex -0.134079 0.0289836 0.990547
end loop
end factet
facet normal -0.0868342 -0.012553 -0.0113865
outer loop
vertex -0.134079 0.0289836 0.990547
vertex 0 0 0
vertex -0.121449 -0.0586701 0.990862
end loop
end factet
facet normal -0.0554025 -0.00686178 -0.00719693
outer loop
vertex -0.121449 -0.0586701 0.990862
vertex 0 0 0
vertex -0.114035 -0.114347 0.986874
end loop
end factet
facet normal -0.0443033 -0.0372547 -0.00943597
outer loop
vertex -0.114035 -0.114347 0.986874
vertex 0 0 0
vertex -0.0759942 -0.158948 0.984358
end loop
end factet
facet normal -0.0254629 -0.00506928 -0.00278434
outer loop
vertex -0.0759942 -0.158948 0.984358
vertex 0 0 0
vertex -0.0705358 -0.18417 0.98036
end loop
end factet
facet normal -0.0446755 0.0269296 0.00184464
outer loop
vertex -0.0705358 -0.18417 0.98036
vertex 0 0 0
vertex -0.0971801 -0.227587 0.968896
end loop
end factet
facet normal -0.107011 0.0455034 -4.47743e-05
outer loop
vertex -0.0971801 -0.227587 0.968896
vertex 0 0 0
vertex -0.140599 -0.329731 0.933547
end loop
end factet
facet normal -0.027678 0.0465965 0.0122895
outer loop
vertex -0.140599 -0.329731 0.933547
vertex 0 0 0
vertex -0.187934 -0.353332 0.916427
end loop
end factet
facet normal -0.0260055 0.0118866 -0.000750065
outer loop
vertex -0.187934 -0.353332 0.916427
vertex 0 0 0
vertex -0.198485 -0.37716 0.904629
end loop
end factet
facet normal -0.030356 -0.0154391 -0.0130973
outer loop
vertex -0.198485 -0.37716 0.904629
vertex 0 0 0
vertex -0.179446 -0.40697 0.895642
end loop
end factet
facet normal -0.0473495 0.000813887 -0.00911689
outer loop
vertex -0.179446 -0.40697 0.895642
vertex 0 0 0
vertex -0.176256 -0.45054 0.875184
end loop
end factet
facet normal -0.0320836 0.0143962 0.000949644
outer loop
vertex -0.176256 -0.45054 0.875184
vertex 0 0 0
vertex -0.189174 -0.478173 0.85765
end loop
end factet
facet normal -0.0250683 0.00022085 -0.00540626
outer loop
vertex -0.189174 -0.478173 0.85765
vertex 0 0 0
vertex -0.186716 -0.500539 0.845339
end loop
end factet
facet normal -0.131566 0.0342643 -0.00877148
outer loop
vertex -0.186716 -0.500539 0.845339
vertex 0 0 0
vertex -0.20955 -0.608727 0.765206
end loop
end factet
facet normal -0.111569 0.0247764 -0.010843
outer loop
vertex -0.20955 -0.608727 0.765206
vertex 0 0 0
vertex -0.220523 -0.692348 0.68704
end loop
end factet
facet normal -0.093055 0.0122569 -0.0175168
outer loop
vertex -0.220523 -0.692348 0.68704
vertex 0 0 0
vertex -0.215809 -0.75698 0.616772
end loop
end factet
facet normal -0.168866 0.0419819 -0.00756079
outer loop
vertex -0.215809 -0.75698 0.616772
vertex 0 0 0
vertex -0.23268 -0.851193 0.470457
end loop
end factet
facet normal -0.0720798 -0.00181384 -0.0389312
outer loop
vertex -0.23268 -0.851193 0.470457
vertex 0 0 0
vertex -0.197906 -0.8913 0.407943
end loop
end factet
facet normal -0.06936 0.0058354 -0.0208993
outer loop
vertex -0.197906 -0.8913 0.407943
vertex 0 0 0
vertex -0.181136 -0.921374 0.343889
end loop
end factet
facet normal -0.0638999 0.020199 0.0204608
outer loop
vertex -0.181136 -0.921374 0.343889
vertex 0 0 0
vertex -0.206489 -0.937378 0.280509
end loop
end factet
facet normal -0.0376153 0.00487987 -0.0113824
outer loop
vertex -0.206489 -0.937378 0.280509
vertex 0 0 0
vertex -0.197026 -0.949544 0.244022
end loop
end factet
facet normal -0.0206195 0.00618627 0.0074237
outer loop
vertex -0.197026 -0.949544 0.244022
vertex 0 0 0
vertex -0.205534 -0.952867 0.22316
end loop
end factet
facet normal -0.00911768 0.00224748 0.00119893
outer loop
vertex -0.205534 -0.952867 0.22316
vertex 0 0 0
vertex -0.207169 -0.954612 0.214
end loop
end factet
facet normal -0.0482149 0.00809171 -0.0105803
outer loop
vertex -0.207169 -0.954612 0.214
vertex 0 0 0
vertex -0.198541 -0.965927 0.16603
end loop
end factet
facet normal -0.048184 0.0115491 0.00957094
outer loop
vertex -0.198541 -0.965927 0.16603
vertex 0 0 0
vertex -0.20945 -0.970796 0.116983
end loop
end factet
facet normal -0.032286 0.00416673 -0.0232278
outer loop
vertex -0.20945 -0.970796 0.116983
vertex 0 0 0
vertex -0.187221 -0.978662 0.0846735
end loop
end factet
facet normal -0.0439607 0.00637479 -0.0235208
outer loop
vertex -0.187221 -0.978662 0.0846735
vertex 0 0 0
vertex -0.164505 -0.985551 0.0403503
end loop
end factet
facet normal -0.0468834 0.00763768 -0.00459068
outer loop
vertex -0.164505 -0.985551 0.0403503
vertex 0 0 0
vertex -0.160101 -0.987075 -0.00715803
end loop
end factet
facet normal -0.0150462 0.00253638 -0.0132252
outer loop
vertex -0.160101 -0.987075 -0.00715803
vertex 0 0 0
vertex -0.146996 -0.988883 -0.0224144
end loop
end factet
facet normal -0.00675421 0.00146263 -0.0202338
outer loop
vertex -0.146996 -0.988883 -0.0224144
vertex 0 0 0
vertex -0.126921 -0.99148 -0.0293034
end loop
end factet
facet normal -0.00383651 0.000735943 -0.00828367
outer loop
vertex -0.126921 -0.99148 -0.0293034
vertex 0 0 0
vertex -0.118681 -0.992377 -0.0331994
end loop
end factet
facet normal -0.0171414 0.00295322 -0.026999
outer loop
vertex -0.118681 -0.992377 -0.0331994
vertex 0 0 0
vertex -0.0917287 -0.9945 -0.0505435
end loop
end factet
facet normal -0.00112893 0.00170722 -0.0315425
outer loop
vertex -0.0917287 -0.9945 -0.0505435
vertex 0 0 0
vertex -0.0602275 -0.99684 -0.0517976
end loop
end factet
facet normal 0.0105339 -3.16836e-05 -0.0116385
outer loop
vertex -0.0602275 -0.99684 -0.0517976
vertex 0 0 0
vertex -0.04862 -0.997964 -0.0412887
end loop
end factet
facet normal 0.00415429 0.000257632 -0.011119
outer loop
vertex -0.04862 -0.997964 -0.0412887
vertex 0 0 0
vertex -0.0375096 -0.998605 -0.0371525
end loop
end factet
facet normal -0.00139416 0.000615465 -0.0151353
outer loop
vertex -0.0375096 -0.998605 -0.0371525
vertex 0 0 0
vertex -0.0223682 -0.999006 -0.0385635
end loop
end factet
facet normal 0.00509037 0.000486645 -0.0155594
outer loop
vertex -0.0223682 -0.999006 -0.0385635
vertex 0 0 0
vertex -0.00680252 -0.999416 -0.0334839
end loop
end factet
facet normal 0.000441965 0.000774105 -0.023195
outer loop
vertex -0.00680252 -0.999416 -0.0334839
vertex 0 0 0
vertex 0.0164067 -0.999319 -0.0330384
end loop
end factet
facet normal -0.00642461 0.00021814 -0.00978854
outer loop
vertex 0.0164067 -0.999319 -0.0330384
vertex 0 0 0
vertex 0.0261947 -0.998878 -0.0394528
end loop
end factet
facet normal -0.027305 0.000376016 -0.0276492
outer loop
vertex 0.0261947 -0.998878 -0.0394528
vertex 0 0 0
vertex 0.0538079 -0.996322 -0.0666875
end loop
end factet
facet normal -0.00703719 0.000754843 -0.0169555
outer loop
vertex 0.0538079 -0.996322 -0.0666875
vertex 0 0 0
vertex 0.0707424 -0.994772 -0.073647
end loop
end factet
facet normal 0.00502613 0.000966574 -0.0082279
outer loop
vertex 0.0707424 -0.994772 -0.073647
vertex 0 0 0
vertex 0.0789951 -0.994513 -0.0685753
end loop
end factet
facet normal 0.000231504 0.000468526 -0.00652811
outer loop
vertex 0.0789951 -0.994513 -0.0685753
vertex 0 0 0
vertex 0.0855178 -0.993992 -0.0683065
end loop
end factet
facet normal 0.000648394 0.00108299 -0.0149478
outer loop
vertex 0.0855178 -0.993992 -0.0683065
vertex 0 0 0
vertex 0.10044 -0.992647 -0.0675617
end loop
end factet
facet normal -0.00374234 -2.8844e-05 -0.00513974
outer loop
vertex 0.10044 -0.992647 -0.0675617
vertex 0 0 0
vertex 0.105538 -0.991857 -0.0712781
end loop
end factet
facet normal -0.00325285 -0.000176935 -0.00235423
outer loop
vertex 0.105538 -0.991857 -0.0712781
vertex 0 0 0
vertex 0.10786 -0.991369 -0.0745226
end loop
end factet
facet normal -0.00495476 -4.15388e-05 -0.00661866
outer loop
vertex 0.10786 -0.991369 -0.0745226
vertex 0 0 0
vertex 0.114415 -0.990252 -0.0794365
end loop
end factet
facet normal -0.00773845 -0.000570572 -0.00403316
outer loop
vertex 0.114415 -0.990252 -0.0794365
vertex 0 0 0
vertex 0.118359 -0.989138 -0.0871618
end loop
end factet
facet normal -0.00990161 -0.000168066 -0.0115383
outer loop
vertex 0.118359 -0.989138 -0.0871618
vertex 0 0 0
vertex 0.129743 -0.986795 -0.0969656
end loop
end factet
facet normal -0.00563049 -0.000625527 -0.00116795
outer loop
vertex 0.129743 -0.986795 -0.0969656
vertex 0 0 0
vertex 0.130833 -0.986081 -0.102601
end loop
end factet
facet normal -0.0106 -0.00117808 -0.0021944
outer loop
vertex 0.130833 -0.986081 -0.102601
vertex 0 0 0
vertex 0.132868 -0.984648 -0.113202
end loop
end factet
facet normal -0.00713386 0.000373231 -0.0116196
outer loop
vertex 0.132868 -0.984648 -0.113202
vertex 0 0 0
vertex 0.144339 -0.982205 -0.120166
end loop
end factet
facet normal -0.0179817 0.000255637 -0.0236886
outer loop
vertex 0.144339 -0.982205 -0.120166
vertex 0 0 0
vertex 0.167573 -0.97619 -0.137738
end loop
end factet
facet normal -0.0013755 0.000402682 -0.00452739
outer loop
vertex 0.167573 -0.97619 -0.137738
vertex 0 0 0
vertex 0.172046 -0.975231 -0.139011
end loop
end factet
facet normal -0.002882 0.000120593 -0.00441292
outer loop
vertex 0.172046 -0.975231 -0.139011
vertex 0 0 0
vertex 0.176364 -0.974058 -0.141799
end loop
end factet
facet normal -0.00883622 -0.000829617 -0.00529128
outer loop
vertex 0.176364 -0.974058 -0.141799
vertex 0 0 0
vertex 0.181391 -0.97182 -0.150545
end loop
end factet
facet normal -0.00256342 0.000274571 -0.00486109
outer loop
vertex 0.181391 -0.97182 -0.150545
vertex 0 0 0
vertex 0.186154 -0.970537 -0.152984
end loop
end factet
facet normal -0.00377101 -1.72686e-05 -0.0044791
outer loop
vertex 0.186154 -0.970537 -0.152984
vertex 0 0 0
vertex 0.190495 -0.96911 -0.156645
end loop
end factet
facet normal -0.00756933 -0.000563405 -0.00571945
outer loop
vertex 0.190495 -0.96911 -0.156645
vertex 0 0 0
vertex 0.195941 -0.966791 -0.16408
end loop
end factet
facet normal -0.0133948 0.00113776 -0.0226997
outer loop
vertex 0.195941 -0.966791 -0.16408
vertex 0 0 0
vertex 0.218006 -0.959809 -0.17675
end loop
end factet
facet normal -0.0143346 -0.00208367 -0.00636548
outer loop
vertex 0.218006 -0.959809 -0.17675
vertex 0 0 0
vertex 0.22372 -0.955767 -0.190941
end loop
end factet
facet normal -0.00102551 0.000680704 -0.00460887
outer loop
vertex 0.22372 -0.955767 -0.190941
vertex 0 0 0
vertex 0.228252 -0.95453 -0.191767
end loop
end factet
facet normal -0.00162752 0.00177931 -0.0107938
outer loop
vertex 0.228252 -0.95453 -0.191767
vertex 0 0 0
vertex 0.238882 -0.951695 -0.192902
end loop
end factet
facet normal -0.0190592 -0.00149146 -0.0162439
outer loop
vertex 0.238882 -0.951695 -0.192902
vertex 0 0 0
vertex 0.253979 -0.943839 -0.211337
end loop
end factet
facet normal -0.00423856 0.00246082 -0.0160839
outer loop
vertex 0.253979 -0.943839 -0.211337
vertex 0 0 0
vertex 0.269644 -0.938725 -0.214682
end loop
end factet
facet normal -0.00118533 0.000163496 -0.0022037
outer loop
vertex 0.269644 -0.938725 -0.214682
vertex 0 0 0
vertex 0.271746 -0.937873 -0.21575
end loop
end factet
facet normal -0.00433326 -3.64929e-05 -0.0052993
outer loop
vertex 0.271746 -0.937873 -0.21575
vertex 0 0 0
vertex 0.276702 -0.935476 -0.219819
end loop
end factet
facet normal -0.00690305 -0.00131287 -0.00310224
outer loop
vertex 0.276702 -0.935476 -0.219819
vertex 0 0 0
vertex 0.279308 -0.933073 -0.226633
end loop
end factet
facet normal -0.0129113 -0.00133 -0.0104364
outer loop
vertex 0.279308 -0.933073 -0.226633
vertex 0 0 0
vertex 0.288705 -0.927102 -0.239021
end loop
end factet
facet normal -0.00855307 -0.00583884 0.0123164
outer loop
vertex 0.288705 -0.927102 -0.239021
vertex 0 0 0
vertex 0.275854 -0.928494 -0.248605
end loop
end factet
facet normal -0.0317827 -0.0139806 0.0169486
outer loop
vertex 0.275854 -0.928494 -0.248605
vertex 0 0 0
vertex 0.256436 -0.924574 -0.281786
end loop
end factet
facet normal -0.0144159 -0.00353427 -0.00152256
outer loop
vertex 0.256436 -0.924574 -0.281786
vertex 0 0 0
vertex 0.256819 -0.920019 -0.29599
end loop
end factet
facet normal -0.023168 -0.00684985 0.00118925
outer loop
vertex 0.256819 -0.920019 -0.29599
vertex 0 0 0
vertex 0.253622 -0.913197 -0.318977
end loop
end factet
facet normal -0.0458184 -0.00756855 -0.0147627
outer loop
vertex 0.253622 -0.913197 -0.318977
vertex 0 0 0
vertex 0.264388 -0.893753 -0.362359
end loop
end factet
facet normal -0.0261351 -0.001998 -0.0141409
outer loop
vertex 0.264388 -0.893753 -0.362359
vertex 0 0 0
vertex 0.276185 -0.880148 -0.386085
end loop
end factet
facet normal -0.0409268 -0.00820746 -0.0105665
outer loop
vertex 0.276185 -0.880148 -0.386085
vertex 0 0 0
vertex 0.28206 -0.860612 -0.424015
end loop
end factet
facet normal -0.0797049 -0.0169425 -0.018633
outer loop
vertex 0.28206 -0.860612 -0.424015
vertex 0 0 0
vertex 0.289925 -0.818549 -0.495905
end loop
end factet
facet normal -0.0283394 0.00294995 -0.0214376
outer loop
vertex 0.289925 -0.818549 -0.495905
vertex 0 0 0
vertex 0.308751 -0.797759 -0.517931
end loop
end factet
facet normal 0.0205066 -0.00233172 0.0158159
outer loop
vertex 0.308751 -0.797759 -0.517931
vertex 0 0 0
vertex 0.322472 -0.781985 -0.533396
end loop
end factet
solid fragmentGeometry
