solid fragmentGeometry
facet normal -0.0503612 -0.00653699 0.0928632
outer loop
vertex -0.768058 3.86302 0.697985
vertex -0.358369 0.626308 0.692322
vertex -0.329485 0.624778 0.707878
end loop
end factet
facet normal -0.0250614 -0.00307492 0.104506
outer loop
vertex -0.768058 3.86302 0.697985
vertex -0.329485 0.624778 0.707878
vertex -0.298148 0.631688 0.715597
end loop
end factet
facet normal 0.0202055 0.00349906 0.102878
outer loop
vertex -0.768058 3.86302 0.697985
vertex -0.298148 0.631688 0.715597
vertex -0.269199 0.65155 0.709235
end loop
end factet
facet normal -0.10184 -0.0158709 -0.0146804
outer loop
vertex -0.768058 3.86302 0.697985
vertex -0.269199 0.65155 0.709235
vertex -0.268177 0.615542 0.741073
end loop
end factet
facet normal -0.0616902 -0.0106512 -0.0870742
outer loop
vertex -0.768058 3.86302 0.697985
vertex -0.268177 0.615542 0.741073
vertex -0.289689 0.581103 0.760526
end loop
end factet
facet normal -0.0553101 -0.00804548 0.000864983
outer loop
vertex -0.768058 3.86302 0.697985
vertex -0.289689 0.581103 0.760526
vertex -0.286282 0.559541 0.77779
end loop
end factet
facet normal -0.0601194 -0.00783502 0.0386101
outer loop
vertex -0.768058 3.86302 0.697985
vertex -0.286282 0.559541 0.77779
vertex -0.271771 0.540183 0.796456
end loop
end factet
facet normal -0.0937347 -0.0128084 0.0402048
outer loop
vertex -0.768058 3.86302 0.697985
vertex -0.271771 0.540183 0.796456
vertex -0.254194 0.503506 0.825752
end loop
end factet
facet normal -0.132202 -0.0182444 0.0519817
outer loop
vertex -0.768058 3.86302 0.697985
vertex -0.254194 0.503506 0.825752
vertex -0.229243 0.441542 0.867461
end loop
end factet
facet normal -0.00995743 -0.000541605 0.0207233
outer loop
vertex -0.768058 3.86302 0.697985
vertex -0.229243 0.441542 0.867461
vertex -0.222764 0.438862 0.870504
end loop
end factet
facet normal -0.04251 -0.00352662 0.0643684
outer loop
vertex -0.768058 3.86302 0.697985
vertex -0.222764 0.438862 0.870504
vertex -0.20135 0.422435 0.883746
end loop
end factet
facet normal 0.000343204 0.00162248 0.0290039
outer loop
vertex -0.768058 3.86302 0.697985
vertex -0.20135 0.422435 0.883746
vertex -0.193625 0.426717 0.883415
end loop
end factet
facet normal 0.0128307 0.00768176 0.102607
outer loop
vertex -0.768058 3.86302 0.697985
vertex -0.193625 0.426717 0.883415
vertex -0.167221 0.447392 0.878566
end loop
end factet
facet normal 0.0213312 0.0129424 0.173827
outer loop
vertex -0.768058 3.86302 0.697985
vertex -0.167221 0.447392 0.878566
vertex -0.121438 0.47643 0.870785
end loop
end factet
facet normal -0.00228763 0.00225552 0.0527644
outer loop
vertex -0.768058 3.86302 0.697985
vertex -0.121438 0.47643 0.870785
vertex -0.106355 0.479037 0.871328
end loop
end factet
facet normal 0.0259247 0.00521195 0.00278473
outer loop
vertex -0.768058 3.86302 0.697985
vertex -0.106355 0.479037 0.871328
vertex -0.108376 0.49358 0.862922
end loop
end factet
facet normal 0.0941112 0.0195863 0.0237148
outer loop
vertex -0.768058 3.86302 0.697985
vertex -0.108376 0.49358 0.862922
vertex -0.110948 0.542667 0.832588
end loop
end factet
facet normal 0.0108506 0.0031815 0.0255098
outer loop
vertex -0.768058 3.86302 0.697985
vertex -0.110948 0.542667 0.832588
vertex -0.104579 0.549306 0.829051
end loop
end factet
facet normal 0.0345863 0.00887883 0.0493996
outer loop
vertex -0.768058 3.86302 0.697985
vertex -0.104579 0.549306 0.829051
vertex -0.093366 0.567758 0.817884
end loop
end factet
facet normal 0.00632581 0.00207594 0.0214579
outer loop
vertex -0.768058 3.86302 0.697985
vertex -0.093366 0.567758 0.817884
vertex -0.0876452 0.571621 0.815824
end loop
end factet
facet normal 0.00707167 0.00197589 0.0143564
outer loop
vertex -0.768058 3.86302 0.697985
vertex -0.0876452 0.571621 0.815824
vertex -0.0840648 0.575401 0.81354
end loop
end factet
facet normal 0.0083755 0.00301174 0.0361099
outer loop
vertex -0.768058 3.86302 0.697985
vertex -0.0840648 0.575401 0.81354
vertex -0.0741613 0.580593 0.81081
end loop
end factet
facet normal 0.0186768 0.00539178 0.0419972
outer loop
vertex -0.768058 3.86302 0.697985
vertex -0.0741613 0.580593 0.81081
vertex -0.0633902 0.590164 0.804791
end loop
end factet
facet normal 0.0366188 0.0144689 0.201772
outer loop
vertex -0.768058 3.86302 0.697985
vertex -0.0633902 0.590164 0.804791
vertex -0.00584268 0.609219 0.79298
end loop
end factet
facet normal 0.216328 0.0621009 0.391336
outer loop
vertex -0.768058 3.86302 0.697985
vertex -0.00584268 0.609219 0.79298
vertex 0.0972537 0.682533 0.724355
end loop
end factet
facet normal 0.104263 0.0299642 0.192656
outer loop
vertex -0.768058 3.86302 0.697985
vertex 0.0972537 0.682533 0.724355
vertex 0.151315 0.706474 0.691374
end loop
end factet
facet normal 0.0295626 0.00845012 0.0765173
outer loop
vertex -0.768058 3.86302 0.697985
vertex 0.151315 0.706474 0.691374
vertex 0.174464 0.710222 0.682017
end loop
end factet
facet normal 0.0370938 0.010959 0.025702
outer loop
vertex -0.768058 3.86302 0.697985
vertex 0.174464 0.710222 0.682017
vertex 0.179691 0.720006 0.670301
end loop
end factet
facet normal 0.06905 0.0199818 0.0953336
outer loop
vertex -0.768058 3.86302 0.697985
vertex 0.179691 0.720006 0.670301
vertex 0.20616 0.732815 0.648444
end loop
end factet
facet normal 0.0706825 0.0189477 0.192775
outer loop
vertex -0.768058 3.86302 0.697985
vertex 0.20616 0.732815 0.648444
vertex 0.267843 0.732503 0.625859
end loop
end factet
facet normal 0.0419443 0.012189 0.0733747
outer loop
vertex -0.768058 3.86302 0.697985
vertex 0.267843 0.732503 0.625859
vertex 0.290396 0.735178 0.612522
end loop
end factet
facet normal 0.0455989 0.0149493 0.0176129
outer loop
vertex -0.768058 3.86302 0.697985
vertex 0.290396 0.735178 0.612522
vertex 0.292335 0.746088 0.598241
end loop
end factet
facet normal 0.031696 0.0110432 -0.00812554
outer loop
vertex -0.768058 3.86302 0.697985
vertex 0.292335 0.746088 0.598241
vertex 0.286291 0.756193 0.588396
end loop
end factet
facet normal 0.0617957 0.0189912 0.0561364
outer loop
vertex -0.768058 3.86302 0.697985
vertex 0.286291 0.756193 0.588396
vertex 0.301271 0.765292 0.568826
end loop
end factet
facet normal 0.0791647 0.0252556 0.0496936
outer loop
vertex -0.768058 3.86302 0.697985
vertex 0.301271 0.765292 0.568826
vertex 0.312659 0.778775 0.543833
end loop
end factet
facet normal 0.0271264 0.00953528 -0.000603437
outer loop
vertex -0.768058 3.86302 0.697985
vertex 0.312659 0.778775 0.543833
vertex 0.310058 0.785641 0.535381
end loop
end factet
facet normal 0.0174839 0.00597101 0.00291967
outer loop
vertex -0.768058 3.86302 0.697985
vertex 0.310058 0.785641 0.535381
vertex 0.309653 0.789505 0.529904
end loop
end factet
facet normal 0.018334 0.00772187 -0.0236464
outer loop
vertex -0.768058 3.86302 0.697985
vertex 0.309653 0.789505 0.529904
vertex 0.29927 0.797174 0.524358
end loop
end factet
facet normal 0.0816688 0.0284575 -0.000452995
outer loop
vertex -0.768058 3.86302 0.697985
vertex 0.29927 0.797174 0.524358
vertex 0.292624 0.815839 0.498777
end loop
end factet
facet normal 0.0131638 0.00471811 -0.00207973
outer loop
vertex -0.768058 3.86302 0.697985
vertex 0.292624 0.815839 0.498777
vertex 0.290851 0.818973 0.494661
end loop
end factet
facet normal 0.0222439 0.00802542 -0.00430584
outer loop
vertex -0.768058 3.86302 0.697985
vertex 0.290851 0.818973 0.494661
vertex 0.287591 0.824277 0.487708
end loop
end factet
facet normal 0.0088045 0.00309432 -0.000515223
outer loop
vertex -0.768058 3.86302 0.697985
vertex 0.287591 0.824277 0.487708
vertex 0.286755 0.826197 0.484944
end loop
end factet
facet normal 0.00414336 0.00135687 0.00117326
outer loop
vertex -0.768058 3.86302 0.697985
vertex 0.286755 0.826197 0.484944
vertex 0.28689 0.82692 0.48363
end loop
end factet
facet normal 0.00804245 0.00254931 0.00347304
outer loop
vertex -0.768058 3.86302 0.697985
vertex 0.28689 0.82692 0.48363
vertex 0.287601 0.828166 0.481069
end loop
end factet
facet normal 0.0117074 0.0036529 0.00586867
outer loop
vertex -0.768058 3.86302 0.697985
vertex 0.287601 0.828166 0.481069
vertex 0.288946 0.829858 0.477332
end loop
end factet
facet normal 0.0423946 0.0146679 0.00145578
outer loop
vertex -0.768058 3.86302 0.697985
vertex 0.288946 0.829858 0.477332
vertex 0.286504 0.838243 0.463965
end loop
end factet
facet normal 0.0166455 0.00544062 0.00468779
outer loop
vertex -0.768058 3.86302 0.697985
vertex 0.286504 0.838243 0.463965
vertex 0.287112 0.840944 0.458671
end loop
end factet
facet normal 0.0447283 0.0146163 0.0126374
outer loop
vertex -0.768058 3.86302 0.697985
vertex 0.287112 0.840944 0.458671
vertex 0.28884 0.847972 0.444427
end loop
end factet
facet normal 0.0284719 0.0085029 0.0175714
outer loop
vertex -0.768058 3.86302 0.697985
vertex 0.28884 0.847972 0.444427
vertex 0.29357 0.851103 0.435247
end loop
end factet
facet normal 0.0334795 0.011438 0.0041585
outer loop
vertex -0.768058 3.86302 0.697985
vertex 0.29357 0.851103 0.435247
vertex 0.292994 0.856654 0.424616
end loop
end factet
facet normal 0.0350417 0.0130296 -0.00728202
outer loop
vertex -0.768058 3.86302 0.697985
vertex 0.292994 0.856654 0.424616
vertex 0.288093 0.863677 0.413599
end loop
end factet
facet normal 0.0703323 0.0246134 0.00160909
outer loop
vertex -0.768058 3.86302 0.697985
vertex 0.288093 0.863677 0.413599
vertex 0.284578 0.875184 0.39124
end loop
end factet
facet normal 0.059736 0.0212119 -0.00162125
outer loop
vertex -0.768058 3.86302 0.697985
vertex 0.284578 0.875184 0.39124
vertex 0.280689 0.884683 0.372223
end loop
end factet
facet normal 0.0924979 0.0289597 0.0330162
outer loop
vertex -0.768058 3.86302 0.697985
vertex 0.280689 0.884683 0.372223
vertex 0.288399 0.894268 0.342214
end loop
end factet
facet normal 0.0751175 0.0229126 0.0318649
outer loop
vertex -0.768058 3.86302 0.697985
vertex 0.288399 0.894268 0.342214
vertex 0.296907 0.900521 0.317661
end loop
end factet
facet normal 0.0995344 0.0347949 0.00768042
outer loop
vertex -0.768058 3.86302 0.697985
vertex 0.296907 0.900521 0.317661
vertex 0.295484 0.911691 0.285496
end loop
end factet
facet normal 0.0592695 0.0189641 0.0171309
outer loop
vertex -0.768058 3.86302 0.697985
vertex 0.295484 0.911691 0.285496
vertex 0.299664 0.9162 0.266044
end loop
end factet
facet normal 0.23547 0.0786179 0.0457091
outer loop
vertex -0.768058 3.86302 0.697985
vertex 0.299664 0.9162 0.266044
vertex 0.309429 0.93206 0.188463
end loop
end factet
facet normal 0.188364 0.053315 0.0916467
outer loop
vertex -0.768058 3.86302 0.697985
vertex 0.309429 0.93206 0.188463
vertex 0.340749 0.931918 0.124171
end loop
end factet
facet normal 0.143669 0.0442389 0.051641
outer loop
vertex -0.768058 3.86302 0.697985
vertex 0.340749 0.931918 0.124171
vertex 0.358962 0.930346 0.0748477
end loop
end factet
facet normal 0.315647 0.101341 0.0939436
outer loop
vertex -0.768058 3.86302 0.697985
vertex 0.358962 0.930346 0.0748477
vertex 0.395889 0.917612 -0.0354891
end loop
end factet
facet normal 0.164738 0.00199395 0.253415
outer loop
vertex -0.768058 3.86302 0.697985
vertex 0.395889 0.917612 -0.0354891
vertex 0.506415 0.855644 -0.106851
end loop
end factet
facet normal 0.187543 0.034296 0.168827
outer loop
vertex -0.768058 3.86302 0.697985
vertex 0.506415 0.855644 -0.106851
vertex 0.59366 0.782241 -0.188857
end loop
end factet
facet normal 0.0681517 0.0312512 -0.00391817
outer loop
vertex -0.768058 3.86302 0.697985
vertex 0.59366 0.782241 -0.188857
vertex 0.595955 0.77417 -0.213301
end loop
end factet
facet normal 0.0569756 0.0188086 0.0215282
outer loop
vertex -0.768058 3.86302 0.697985
vertex 0.595955 0.77417 -0.213301
vertex 0.611488 0.754779 -0.237468
end loop
end factet
facet normal 0.022886 -0.000131249 0.0341873
outer loop
vertex -0.768058 3.86302 0.697985
vertex 0.611488 0.754779 -0.237468
vertex 0.632213 0.732865 -0.251426
end loop
end factet
facet normal 0.0131376 0.00312793 0.00906372
outer loop
vertex -0.768058 3.86302 0.697985
vertex 0.632213 0.732865 -0.251426
vertex 0.638651 0.724947 -0.258025
end loop
end factet
facet normal -0.00135851 -0.0049684 0.0143089
outer loop
vertex -0.768058 3.86302 0.697985
vertex 0.638651 0.724947 -0.258025
vertex 0.64678 0.716984 -0.260018
end loop
end factet
facet normal 0.0122361 0.00404346 0.00479221
outer loop
vertex -0.768058 3.86302 0.697985
vertex 0.64678 0.716984 -0.260018
vertex 0.650946 0.711108 -0.265696
end loop
end factet
facet normal -0.0151551 -0.0182087 0.0372396
outer loop
vertex -0.768058 3.86302 0.697985
vertex 0.650946 0.711108 -0.265696
vertex 0.671904 0.690799 -0.267097
end loop
end factet
facet normal 0.012197 0.00317264 0.00777054
outer loop
vertex -0.768058 3.86302 0.697985
vertex 0.671904 0.690799 -0.267097
vertex 0.678463 0.681746 -0.273697
end loop
end factet
facet normal -0.0776894 -0.0625049 0.0889854
outer loop
vertex -0.768058 3.86302 0.697985
vertex 0.678463 0.681746 -0.273697
vertex 0.72998 0.629964 -0.265092
end loop
end factet
facet normal 0.0243797 0.00711095 0.0140505
outer loop
vertex -0.768058 3.86302 0.697985
vertex 0.72998 0.629964 -0.265092
vertex 0.746983 0.602648 -0.28077
end loop
end factet
facet normal -0.0969455 -0.0611074 0.0534925
outer loop
vertex -0.768058 3.86302 0.697985
vertex 0.746983 0.602648 -0.28077
vertex 0.776965 0.573434 -0.259805
end loop
end factet
facet normal 0.0110631 0.00620639 -0.00347042
outer loop
vertex -0.768058 3.86302 0.697985
vertex 0.776965 0.573434 -0.259805
vertex 0.776125 0.572978 -0.263301
end loop
end factet
facet normal 0.0991437 0.0543306 -0.0266876
outer loop
vertex -0.768058 3.86302 0.697985
vertex 0.776125 0.572978 -0.263301
vertex 0.776714 0.55444 -0.298852
end loop
end factet
facet normal 0.0403113 0.0228639 -0.0134168
outer loop
vertex -0.768058 3.86302 0.697985
vertex 0.776714 0.55444 -0.298852
vertex 0.775448 0.548465 -0.312836
end loop
end factet
facet normal 0.0699067 0.0413867 -0.0289636
outer loop
vertex -0.768058 3.86302 0.697985
vertex 0.775448 0.548465 -0.312836
vertex 0.767141 0.547539 -0.334209
end loop
end factet
facet normal 0.0252664 0.0149376 -0.0104012
outer loop
vertex -0.768058 3.86302 0.697985
vertex 0.767141 0.547539 -0.334209
vertex 0.764943 0.545511 -0.342461
end loop
end factet
facet normal 0.0408635 0.0246935 -0.0185275
outer loop
vertex -0.768058 3.86302 0.697985
vertex 0.764943 0.545511 -0.342461
vertex 0.759567 0.545058 -0.354921
end loop
end factet
facet normal 0.0633304 0.0388694 -0.0306029
outer loop
vertex -0.768058 3.86302 0.697985
vertex 0.759567 0.545058 -0.354921
vertex 0.750306 0.545141 -0.373982
end loop
end factet
facet normal 0.0724018 0.0447224 -0.0358696
outer loop
vertex -0.768058 3.86302 0.697985
vertex 0.750306 0.545141 -0.373982
vertex 0.741582 0.540581 -0.397277
end loop
end factet
facet normal 0.0512257 0.0332505 -0.0302582
outer loop
vertex -0.768058 3.86302 0.697985
vertex 0.741582 0.540581 -0.397277
vertex 0.729668 0.546758 -0.410659
end loop
end factet
facet normal 0.0326219 0.0204509 -0.0171041
outer loop
vertex -0.768058 3.86302 0.697985
vertex 0.729668 0.546758 -0.410659
vertex 0.726517 0.542315 -0.421981
end loop
end factet
facet normal 0.0234759 0.0150887 -0.0134101
outer loop
vertex -0.768058 3.86302 0.697985
vertex 0.726517 0.542315 -0.421981
vertex 0.722997 0.541162 -0.429439
end loop
end factet
facet normal 0.0550294 0.0349733 -0.0302677
outer loop
vertex -0.768058 3.86302 0.697985
vertex 0.722997 0.541162 -0.429439
vertex 0.719003 0.529762 -0.449874
end loop
end factet
facet normal 0.0382879 0.0254809 -0.0243917
outer loop
vertex -0.768058 3.86302 0.697985
vertex 0.719003 0.529762 -0.449874
vertex 0.711676 0.529783 -0.461354
end loop
end factet
facet normal 0.0808375 0.0534106 -0.050384
outer loop
vertex -0.768058 3.86302 0.697985
vertex 0.711676 0.529783 -0.461354
vertex 0.706772 0.50678 -0.493606
end loop
end factet
facet normal 0.0560622 0.0388523 -0.0400434
outer loop
vertex -0.768058 3.86302 0.697985
vertex 0.706772 0.50678 -0.493606
vertex 0.695367 0.505584 -0.510735
end loop
end factet
facet normal 0.0314903 0.0221744 -0.0234671
outer loop
vertex -0.768058 3.86302 0.697985
vertex 0.695367 0.505584 -0.510735
vertex 0.688339 0.50567 -0.520083
end loop
end factet
facet normal 0.036108 0.0256917 -0.0276403
outer loop
vertex -0.768058 3.86302 0.697985
vertex 0.688339 0.50567 -0.520083
vertex 0.680563 0.504617 -0.53122
end loop
end factet
facet normal 0.0287542 0.0209351 -0.0233111
outer loop
vertex -0.768058 3.86302 0.697985
vertex 0.680563 0.504617 -0.53122
vertex 0.671173 0.510295 -0.537704
end loop
end factet
facet normal 0.016715 0.012122 -0.0134211
outer loop
vertex -0.768058 3.86302 0.697985
vertex 0.671173 0.510295 -0.537704
vertex 0.667432 0.509686 -0.542914
end loop
end factet
facet normal 0.00938892 0.00682473 -0.00758171
outer loop
vertex -0.768058 3.86302 0.697985
vertex 0.667432 0.509686 -0.542914
vertex 0.665503 0.508909 -0.546001
end loop
end factet
facet normal 0.00781393 0.00570869 -0.00638771
outer loop
vertex -0.768058 3.86302 0.697985
vertex 0.665503 0.508909 -0.546001
vertex 0.663779 0.508486 -0.548488
end loop
end factet
facet normal 0.0277777 0.020538 -0.0233631
outer loop
vertex -0.768058 3.86302 0.697985
vertex 0.663779 0.508486 -0.548488
vertex 0.656371 0.509526 -0.556382
end loop
end factet
facet normal 0.0349088 0.0263453 -0.0307913
outer loop
vertex -0.768058 3.86302 0.697985
vertex 0.656371 0.509526 -0.556382
vertex 0.644937 0.514828 -0.564809
end loop
end factet
facet normal 0.0380554 0.0296413 -0.0360093
outer loop
vertex -0.768058 3.86302 0.697985
vertex 0.644937 0.514828 -0.564809
vertex 0.62968 0.525497 -0.572151
end loop
end factet
facet normal 0.0206442 0.0160521 -0.0194621
outer loop
vertex -0.768058 3.86302 0.697985
vertex 0.62968 0.525497 -0.572151
vertex 0.622958 0.527623 -0.577527
end loop
end factet
facet normal 0.0019989 0.00176167 -0.00242662
outer loop
vertex -0.768058 3.86302 0.697985
vertex 0.622958 0.527623 -0.577527
vertex 0.621313 0.529823 -0.577285
end loop
end factet
facet normal 0.00473166 0.0043174 -0.00612926
outer loop
vertex -0.768058 3.86302 0.697985
vertex 0.621313 0.529823 -0.577285
vertex 0.617005 0.535745 -0.576439
end loop
end factet
facet normal 0.00703907 0.00566864 -0.0071497
outer loop
vertex -0.768058 3.86302 0.697985
vertex 0.617005 0.535745 -0.576439
vertex 0.614143 0.537459 -0.577898
end loop
end factet
facet normal 0.00439596 0.00393438 -0.00549269
outer loop
vertex -0.768058 3.86302 0.697985
vertex 0.614143 0.537459 -0.577898
vertex 0.610861 0.541382 -0.577715
end loop
end factet
facet normal 0.0104198 0.0080955 -0.00981617
outer loop
vertex -0.768058 3.86302 0.697985
vertex 0.610861 0.541382 -0.577715
vertex 0.608008 0.541135 -0.580946
end loop
end factet
facet normal 0.0169668 0.0129887 -0.015481
outer loop
vertex -0.768058 3.86302 0.697985
vertex 0.608008 0.541135 -0.580946
vertex 0.60437 0.538668 -0.587004
end loop
end factet
facet normal 0.0216942 0.0170618 -0.0209694
outer loop
vertex -0.768058 3.86302 0.697985
vertex 0.60437 0.538668 -0.587004
vertex 0.598461 0.537701 -0.593904
end loop
end factet
facet normal 0.00924444 0.00733364 -0.00909805
outer loop
vertex -0.768058 3.86302 0.697985
vertex 0.598461 0.537701 -0.593904
vertex 0.59587 0.537349 -0.596821
end loop
end factet
facet normal 0.0252171 0.0205755 -0.0262842
outer loop
vertex -0.768058 3.86302 0.697985
vertex 0.59587 0.537349 -0.596821
vertex 0.587149 0.539344 -0.603626
end loop
end factet
facet normal 0.0347934 0.0295419 -0.0392094
outer loop
vertex -0.768058 3.86302 0.697985
vertex 0.587149 0.539344 -0.603626
vertex 0.572491 0.546359 -0.611347
end loop
end factet
facet normal 0.00924969 0.00794756 -0.0106621
outer loop
vertex -0.768058 3.86302 0.697985
vertex 0.572491 0.546359 -0.611347
vertex 0.568595 0.548046 -0.61347
end loop
end factet
facet normal 0.0229239 0.0188055 -0.0241704
outer loop
vertex -0.768058 3.86302 0.697985
vertex 0.568595 0.548046 -0.61347
vertex 0.562093 0.546086 -0.621161
end loop
end factet
facet normal 0.0654178 0.0556966 -0.0740833
outer loop
vertex -0.768058 3.86302 0.697985
vertex 0.562093 0.546086 -0.621161
vertex 0.540525 0.544175 -0.641643
end loop
end factet
facet normal 0.0548544 0.048054 -0.0654674
outer loop
vertex -0.768058 3.86302 0.697985
vertex 0.540525 0.544175 -0.641643
vertex 0.522329 0.540295 -0.659737
end loop
end factet
facet normal 0.0243316 0.0207148 -0.0275702
outer loop
vertex -0.768058 3.86302 0.697985
vertex 0.522329 0.540295 -0.659737
vertex 0.517519 0.531315 -0.67073
end loop
end factet
facet normal 0.0246596 0.0222868 -0.0310884
outer loop
vertex -0.768058 3.86302 0.697985
vertex 0.517519 0.531315 -0.67073
vertex 0.509658 0.527505 -0.679696
end loop
end factet
facet normal 0.0204749 0.0200303 -0.0295062
outer loop
vertex -0.768058 3.86302 0.697985
vertex 0.509658 0.527505 -0.679696
vertex 0.498897 0.532504 -0.68377
end loop
end factet
facet normal 0.0378757 0.0367771 -0.0539169
outer loop
vertex -0.768058 3.86302 0.697985
vertex 0.498897 0.532504 -0.68377
vertex 0.482063 0.534201 -0.694438
end loop
end factet
facet normal 0.00626326 0.00636661 -0.0095973
outer loop
vertex -0.768058 3.86302 0.697985
vertex 0.482063 0.534201 -0.694438
vertex 0.478724 0.535413 -0.695813
end loop
end factet
facet normal 0.0137954 0.0137051 -0.0203795
outer loop
vertex -0.768058 3.86302 0.697985
vertex 0.478724 0.535413 -0.695813
vertex 0.472486 0.535718 -0.699831
end loop
end factet
facet normal 0.00333166 0.00327194 -0.00483179
outer loop
vertex -0.768058 3.86302 0.697985
vertex 0.472486 0.535718 -0.699831
vertex 0.471125 0.535472 -0.700935
end loop
end factet
facet normal 0.00559044 0.00509143 -0.00715876
outer loop
vertex -0.768058 3.86302 0.697985
vertex 0.471125 0.535472 -0.700935
vertex 0.469955 0.532839 -0.703723
end loop
end factet
facet normal 0.0140042 0.0131797 -0.0189433
outer loop
vertex -0.768058 3.86302 0.697985
vertex 0.469955 0.532839 -0.703723
vertex 0.466235 0.527543 -0.710157
end loop
end factet
facet normal 0.0102434 0.00995469 -0.0146012
outer loop
vertex -0.768058 3.86302 0.697985
vertex 0.466235 0.527543 -0.710157
vertex 0.462921 0.52467 -0.714441
end loop
end factet
facet normal 0.00321579 0.00329423 -0.00498343
outer loop
vertex -0.768058 3.86302 0.697985
vertex 0.462921 0.52467 -0.714441
vertex 0.461418 0.524695 -0.715393
end loop
end factet
facet normal 0.00814342 0.00815523 -0.0121779
outer loop
vertex -0.768058 3.86302 0.697985
vertex 0.461418 0.524695 -0.715393
vertex 0.458284 0.523302 -0.718423
end loop
end factet
facet normal 0.00463963 0.00439692 -0.00635052
outer loop
vertex -0.768058 3.86302 0.697985
vertex 0.458284 0.523302 -0.718423
vertex 0.457357 0.520646 -0.720938
end loop
end factet
facet normal 0.00284433 0.00287688 -0.00432014
outer loop
vertex -0.768058 3.86302 0.697985
vertex 0.457357 0.520646 -0.720938
vertex 0.45625 0.520141 -0.722004
end loop
end factet
facet normal 0.0271792 0.0272965 -0.0408263
outer loop
vertex -0.768058 3.86302 0.697985
vertex 0.45625 0.520141 -0.722004
vertex 0.447677 0.510203 -0.734356
end loop
end factet
facet normal 0.00993156 0.010144 -0.0153151
outer loop
vertex -0.768058 3.86302 0.697985
vertex 0.447677 0.510203 -0.734356
vertex 0.444778 0.5056 -0.739284
end loop
end factet
facet normal 0.0174527 0.0181069 -0.0275698
outer loop
vertex -0.768058 3.86302 0.697985
vertex 0.444778 0.5056 -0.739284
vertex 0.440452 0.494844 -0.749087
end loop
end factet
facet normal 0.0146432 0.0157979 -0.0245419
outer loop
vertex -0.768058 3.86302 0.697985
vertex 0.440452 0.494844 -0.749087
vertex 0.438914 0.478824 -0.760318
end loop
end factet
facet normal 0.045043 0.0516952 -0.0826859
outer loop
vertex -0.768058 3.86302 0.697985
vertex 0.438914 0.478824 -0.760318
vertex 0.420358 0.462344 -0.780728
end loop
end factet
facet normal 0.0471292 0.0585345 -0.0967376
outer loop
vertex -0.768058 3.86302 0.697985
vertex 0.420358 0.462344 -0.780728
vertex 0.398691 0.442944 -0.803023
end loop
end factet
facet normal 0.0435095 0.0562363 -0.0943151
outer loop
vertex -0.768058 3.86302 0.697985
vertex 0.398691 0.442944 -0.803023
vertex 0.37346 0.436068 -0.818763
end loop
end factet
facet normal 0.0232353 0.0311481 -0.0528889
outer loop
vertex -0.768058 3.86302 0.697985
vertex 0.37346 0.436068 -0.818763
vertex 0.358501 0.434643 -0.826173
end loop
end factet
facet normal 0.0629311 0.100315 -0.17913
outer loop
vertex -0.768058 3.86302 0.697985
vertex 0.358501 0.434643 -0.826173
vertex 0.316917 0.402187 -0.858958
end loop
end factet
facet normal 0.0229201 0.0449653 -0.0839782
outer loop
vertex -0.768058 3.86302 0.697985
vertex 0.316917 0.402187 -0.858958
vertex 0.298457 0.38367 -0.873911
end loop
end factet
facet normal 0.0262856 0.0645076 -0.124951
outer loop
vertex -0.768058 3.86302 0.697985
vertex 0.298457 0.38367 -0.873911
vertex 0.271757 0.353615 -0.895045
end loop
end factet
facet normal 0.0722046 0.16609 -0.318761
outer loop
vertex -0.768058 3.86302 0.697985
vertex 0.271757 0.353615 -0.895045
vertex 0.185485 0.33823 -0.922603
end loop
end factet
facet normal -0.0265207 0.099439 -0.231885
outer loop
vertex -0.768058 3.86302 0.697985
vertex 0.185485 0.33823 -0.922603
vertex 0.145674 0.242211 -0.959225
end loop
end factet
facet normal -0.036334 0.118778 -0.279548
outer loop
vertex -0.768058 3.86302 0.697985
vertex 0.145674 0.242211 -0.959225
vertex 0.0861811 0.172019 -0.981317
end loop
end factet
facet normal -0.0770121 0.0681314 -0.188924
outer loop
vertex -0.768058 3.86302 0.697985
vertex 0.0861811 0.172019 -0.981317
vertex 0.0519331 0.0988374 -0.993747
end loop
end factet
facet normal -0.0704279 -0.00761318 -0.0171971
outer loop
vertex -0.768058 3.86302 0.697985
vertex 0.0519331 0.0988374 -0.993747
vertex 0.058044 0.0498128 -0.99707
end loop
end factet
facet normal -0.00335169 0.00547922 -0.0139594
outer loop
vertex -0.768058 3.86302 0.697985
vertex 0.058044 0.0498128 -0.99707
vertex 0.0549597 0.0471518 -0.997374
end loop
end factet
facet normal -0.0053587 0.00453675 -0.0128126
outer loop
vertex -0.768058 3.86302 0.697985
vertex 0.0549597 0.0471518 -0.997374
vertex 0.0524347 0.043291 -0.997685
end loop
end factet
facet normal -0.00692177 0.00710273 -0.0193491
outer loop
vertex -0.768058 3.86302 0.697985
vertex 0.0524347 0.043291 -0.997685
vertex 0.0484424 0.0382942 -0.998091
end loop
end factet
facet normal -0.00191593 0.00411546 -0.0102026
outer loop
vertex -0.768058 3.86302 0.697985
vertex 0.0484424 0.0382942 -0.998091
vertex 0.0460967 0.0367865 -0.998259
end loop
end factet
facet normal -0.0309753 0.0181006 -0.055697
outer loop
vertex -0.768058 3.86302 0.697985
vertex 0.0460967 0.0367865 -0.998259
vertex 0.0358879 0.0163538 -0.999222
end loop
end factet
facet normal -0.0263085 0.0202994 -0.0584702
outer loop
vertex -0.768058 3.86302 0.697985
vertex 0.0358879 0.0163538 -0.999222
vertex 0.0241576 -0.000249076 -0.999708
end loop
end factet
facet normal -0.00827646 0.00402737 -0.0130265
outer loop
vertex -0.768058 3.86302 0.697985
vertex 0.0241576 -0.000249076 -0.999708
vertex 0.0218043 -0.00521629 -0.999749
end loop
end factet
facet normal -0.0106153 0.0146683 -0.0383601
outer loop
vertex -0.768058 3.86302 0.697985
vertex 0.0218043 -0.00521629 -0.999749
vertex 0.0132089 -0.0116875 -0.999844
end loop
end factet
facet normal -0.0143151 0.0041728 -0.0161102
outer loop
vertex -0.768058 3.86302 0.697985
vertex 0.0132089 -0.0116875 -0.999844
vertex 0.0107053 -0.0198915 -0.999745
end loop
end factet
facet normal -0.0157099 -3.77893e-05 -0.00712013
outer loop
vertex -0.768058 3.86302 0.697985
vertex 0.0107053 -0.0198915 -0.999745
vertex 0.0106302 -0.0286598 -0.999533
end loop
end factet
facet normal -0.0148911 0.00480926 -0.0178564
outer loop
vertex -0.768058 3.86302 0.697985
vertex 0.0106302 -0.0286598 -0.999533
vertex 0.00768589 -0.0368761 -0.99929
end loop
end factet
facet normal -0.0411596 0.0169683 -0.0578008
outer loop
vertex -0.768058 3.86302 0.697985
vertex 0.00768589 -0.0368761 -0.99929
vertex -0.00277899 -0.0587761 -0.998267
end loop
end factet
facet normal -0.0562592 -0.00181651 -0.0211818
outer loop
vertex -0.768058 3.86302 0.697985
vertex -0.00277899 -0.0587761 -0.998267
vertex -0.00264432 -0.087145 -0.996192
end loop
end factet
facet normal -0.034893 -0.0190461 0.0286434
outer loop
vertex -0.768058 3.86302 0.697985
vertex -0.00264432 -0.087145 -0.996192
vertex 0.00785773 -0.103922 -0.994554
end loop
end factet
facet normal -0.03724 1.07288e-05 -0.017097
outer loop
vertex -0.768058 3.86302 0.697985
vertex 0.00785773 -0.103922 -0.994554
vertex 0.00695061 -0.121319 -0.992589
end loop
end factet
facet normal -0.0195055 0.00775492 -0.0272188
outer loop
vertex -0.768058 3.86302 0.697985
vertex 0.00695061 -0.121319 -0.992589
vertex 0.00185512 -0.130243 -0.99148
end loop
end factet
facet normal 0.00321484 0.0368572 -0.0856514
outer loop
vertex -0.768058 3.86302 0.697985
vertex 0.00185512 -0.130243 -0.99148
vertex -0.0199435 -0.12843 -0.991518
end loop
end factet
facet normal 0.00107288 0.0603049 -0.141995
outer loop
vertex -0.768058 3.86302 0.697985
vertex -0.0199435 -0.12843 -0.991518
vertex -0.0560809 -0.125428 -0.990516
end loop
end factet
facet normal -0.0358405 0.0496303 -0.132346
outer loop
vertex -0.768058 3.86302 0.697985
vertex -0.0560809 -0.125428 -0.990516
vertex -0.0871007 -0.137542 -0.986659
end loop
end factet
facet normal -0.106722 0.0795901 -0.232143
outer loop
vertex -0.768058 3.86302 0.697985
vertex -0.0871007 -0.137542 -0.986659
vertex -0.139052 -0.173239 -0.975014
end loop
end factet
facet normal -0.029963 0.0107636 -0.0372336
outer loop
vertex -0.768058 3.86302 0.697985
vertex -0.139052 -0.173239 -0.975014
vertex -0.146632 -0.183795 -0.971966
end loop
end factet
facet normal -0.0229053 0.0155965 -0.0463188
outer loop
vertex -0.768058 3.86302 0.697985
vertex -0.146632 -0.183795 -0.971966
vertex -0.157056 -0.19045 -0.969052
end loop
end factet
facet normal -0.0312066 0.00772083 -0.0302114
outer loop
vertex -0.768058 3.86302 0.697985
vertex -0.157056 -0.19045 -0.969052
vertex -0.162854 -0.201431 -0.96587
end loop
end factet
facet normal -0.0333643 0.00663924 -0.0283542
outer loop
vertex -0.768058 3.86302 0.697985
vertex -0.162854 -0.201431 -0.96587
vertex -0.168086 -0.21314 -0.962454
end loop
end factet
facet normal -0.0278587 0.0387758 -0.105256
outer loop
vertex -0.768058 3.86302 0.697985
vertex -0.168086 -0.21314 -0.962454
vertex -0.193428 -0.216407 -0.95695
end loop
end factet
facet normal -0.0531826 0.0312674 -0.0955405
outer loop
vertex -0.768058 3.86302 0.697985
vertex -0.193428 -0.216407 -0.95695
vertex -0.214994 -0.229564 -0.949251
end loop
end factet
facet normal -0.181163 0.0568822 -0.20215
outer loop
vertex -0.768058 3.86302 0.697985
vertex -0.214994 -0.229564 -0.949251
vertex -0.257671 -0.279274 -0.924993
end loop
end factet
facet normal -0.155034 0.0613527 -0.205343
outer loop
vertex -0.768058 3.86302 0.697985
vertex -0.257671 -0.279274 -0.924993
vertex -0.303209 -0.312016 -0.900394
end loop
end factet
facet normal -0.180251 0.0946384 -0.299621
outer loop
vertex -0.768058 3.86302 0.697985
vertex -0.303209 -0.312016 -0.900394
vertex -0.372496 -0.334272 -0.865742
end loop
end factet
facet normal -0.146656 0.101222 -0.308793
outer loop
vertex -0.768058 3.86302 0.697985
vertex -0.372496 -0.334272 -0.865742
vertex -0.44614 -0.333488 -0.830509
end loop
end factet
facet normal -0.0902109 0.0697132 -0.210398
outer loop
vertex -0.768058 3.86302 0.697985
vertex -0.44614 -0.333488 -0.830509
vertex -0.497064 -0.323214 -0.80527
end loop
end factet
facet normal -0.0491104 0.0401587 -0.120686
outer loop
vertex -0.768058 3.86302 0.697985
vertex -0.497064 -0.323214 -0.80527
vertex -0.526505 -0.313777 -0.79015
end loop
end factet
facet normal -0.135546 0.0230756 -0.0867687
outer loop
vertex -0.768058 3.86302 0.697985
vertex -0.526505 -0.313777 -0.79015
vertex -0.545852 -0.338444 -0.766486
end loop
end factet
facet normal -0.267084 0.0919921 -0.304444
outer loop
vertex -0.768058 3.86302 0.697985
vertex -0.545852 -0.338444 -0.766486
vertex -0.617882 -0.346594 -0.705758
end loop
end factet
facet normal -0.231974 0.10548 -0.341135
outer loop
vertex -0.768058 3.86302 0.697985
vertex -0.617882 -0.346594 -0.705758
vertex -0.700013 -0.315953 -0.640434
end loop
end factet
facet normal -0.469692 0.101888 -0.342005
outer loop
vertex -0.768058 3.86302 0.697985
vertex -0.700013 -0.315953 -0.640434
vertex -0.781681 -0.326467 -0.531408
end loop
end factet
facet normal -0.0972962 0.0168446 -0.0563244
outer loop
vertex -0.768058 3.86302 0.697985
vertex -0.781681 -0.326467 -0.531408
vertex -0.795135 -0.329535 -0.509084
end loop
end factet
facet normal -0.141649 0.0405489 -0.137662
outer loop
vertex -0.768058 3.86302 0.697985
vertex -0.795135 -0.329535 -0.509084
vertex -0.827829 -0.307753 -0.469027
end loop
end factet
facet normal -0.127688 0.0294955 -0.098874
outer loop
vertex -0.768058 3.86302 0.697985
vertex -0.827829 -0.307753 -0.469027
vertex -0.851338 -0.29393 -0.434544
end loop
end factet
facet normal -0.0348077 0.0122854 -0.0425341
outer loop
vertex -0.768058 3.86302 0.697985
vertex -0.851338 -0.29393 -0.434544
vertex -0.861324 -0.281666 -0.42283
end loop
end factet
facet normal -0.0125084 0.00260587 -0.00859547
outer loop
vertex -0.768058 3.86302 0.697985
vertex -0.861324 -0.281666 -0.42283
vertex -0.86337 -0.280417 -0.419474
end loop
end factet
facet normal -0.00589561 0.00413864 -0.0148429
outer loop
vertex -0.768058 3.86302 0.697985
vertex -0.86337 -0.280417 -0.419474
vertex -0.866812 -0.274309 -0.416404
end loop
end factet
facet normal -0.0497584 0.012649 -0.0425517
outer loop
vertex -0.768058 3.86302 0.697985
vertex -0.866812 -0.274309 -0.416404
vertex -0.876855 -0.264196 -0.401653
end loop
end factet
facet normal -0.0153728 0.00442149 -0.015074
outer loop
vertex -0.768058 3.86302 0.697985
vertex -0.876855 -0.264196 -0.401653
vertex -0.880391 -0.259798 -0.396757
end loop
end factet
facet normal -0.0849762 0.0202834 -0.0676681
outer loop
vertex -0.768058 3.86302 0.697985
vertex -0.880391 -0.259798 -0.396757
vertex -0.896323 -0.24213 -0.371454
end loop
end factet
facet normal -0.0258656 0.0200713 -0.0739436
outer loop
vertex -0.768058 3.86302 0.697985
vertex -0.896323 -0.24213 -0.371454
vertex -0.913066 -0.201483 -0.354564
end loop
end factet
facet normal 0.0221734 0.0090348 -0.0379433
outer loop
vertex -0.768058 3.86302 0.697985
vertex -0.913066 -0.201483 -0.354564
vertex -0.921188 -0.167501 -0.351219
end loop
end factet
facet normal -0.00744152 0.00908087 -0.0337982
outer loop
vertex -0.768058 3.86302 0.697985
vertex -0.921188 -0.167501 -0.351219
vertex -0.92861 -0.142115 -0.342765
end loop
end factet
facet normal -0.0689898 -0.000706226 0.0133604
outer loop
vertex -0.768058 3.86302 0.697985
vertex -0.92861 -0.142115 -0.342765
vertex -0.926538 -0.173642 -0.333732
end loop
end factet
facet normal -0.0351048 -0.00157042 0.0115367
outer loop
vertex -0.768058 3.86302 0.697985
vertex -0.926538 -0.173642 -0.333732
vertex -0.924394 -0.19184 -0.329687
end loop
end factet
facet normal -0.200312 0.0184951 -0.0425029
outer loop
vertex -0.768058 3.86302 0.697985
vertex -0.924394 -0.19184 -0.329687
vertex -0.935542 -0.209113 -0.284664
end loop
end factet
facet normal -0.331896 0.00634181 0.0302879
outer loop
vertex -0.768058 3.86302 0.697985
vertex -0.935542 -0.209113 -0.284664
vertex -0.931364 -0.288361 -0.222283
end loop
end factet
facet normal -0.0902882 0.00177231 0.00802696
outer loop
vertex -0.768058 3.86302 0.697985
vertex -0.931364 -0.288361 -0.222283
vertex -0.930095 -0.305273 -0.204283
end loop
end factet
facet normal -0.15188 0.0037998 0.00972152
outer loop
vertex -0.768058 3.86302 0.697985
vertex -0.930095 -0.305273 -0.204283
vertex -0.928655 -0.328229 -0.172815
end loop
end factet
facet normal -0.159611 0.00254676 0.0171784
outer loop
vertex -0.768058 3.86302 0.697985
vertex -0.928655 -0.328229 -0.172815
vertex -0.925472 -0.352117 -0.139696
end loop
end factet
facet normal -0.373568 0.0223857 -0.0424435
outer loop
vertex -0.768058 3.86302 0.697985
vertex -0.925472 -0.352117 -0.139696
vertex -0.935455 -0.349804 -0.0506111
end loop
end factet
facet normal -0.408272 0.0130442 0.0178871
outer loop
vertex -0.768058 3.86302 0.697985
vertex -0.935455 -0.349804 -0.0506111
vertex -0.931641 -0.360662 0.0443711
end loop
end factet
facet normal -0.391503 -0.006222 0.138189
outer loop
vertex -0.768058 3.86302 0.697985
vertex -0.931641 -0.360662 0.0443711
vertex -0.900999 -0.41427 0.128768
end loop
end factet
facet normal -0.466822 0.00262154 0.089327
outer loop
vertex -0.768058 3.86302 0.697985
vertex -0.900999 -0.41427 0.128768
vertex -0.880008 -0.410814 0.238367
end loop
end factet
facet normal -0.298361 0.00543272 0.0221547
outer loop
vertex -0.768058 3.86302 0.697985
vertex -0.880008 -0.410814 0.238367
vertex -0.873826 -0.37271 0.312276
end loop
end factet
facet normal -0.458905 -0.00668226 0.199221
outer loop
vertex -0.768058 3.86302 0.697985
vertex -0.873826 -0.37271 0.312276
vertex -0.826813 -0.37353 0.420543
end loop
end factet
facet normal -0.163796 -0.0051598 0.113477
outer loop
vertex -0.768058 3.86302 0.697985
vertex -0.826813 -0.37353 0.420543
vertex -0.800211 -0.386766 0.458339
end loop
end factet
facet normal -0.190387 -0.00475725 0.109906
outer loop
vertex -0.768058 3.86302 0.697985
vertex -0.800211 -0.386766 0.458339
vertex -0.774325 -0.383522 0.503321
end loop
end factet
facet normal -0.0715848 -0.00175265 0.0405378
outer loop
vertex -0.768058 3.86302 0.697985
vertex -0.774325 -0.383522 0.503321
vertex -0.764773 -0.379956 0.520342
end loop
end factet
facet normal -0.0635902 -0.00107153 0.0244174
outer loop
vertex -0.768058 3.86302 0.697985
vertex -0.764773 -0.379956 0.520342
vertex -0.759026 -0.369936 0.535748
end loop
end factet
facet normal -0.0537612 -0.00130465 0.0310468
outer loop
vertex -0.768058 3.86302 0.697985
vertex -0.759026 -0.369936 0.535748
vertex -0.7517 -0.366043 0.548598
end loop
end factet
facet normal -0.118256 -0.00142391 0.0273606
outer loop
vertex -0.768058 3.86302 0.697985
vertex -0.7517 -0.366043 0.548598
vertex -0.74536 -0.332649 0.57774
end loop
end factet
facet normal -0.0281191 -1.37929e-05 -0.00482686
outer loop
vertex -0.768058 3.86302 0.697985
vertex -0.74536 -0.332649 0.57774
vertex -0.746595 -0.317017 0.58489
end loop
end factet
facet normal -0.0554641 -0.00139703 0.0411085
outer loop
vertex -0.768058 3.86302 0.697985
vertex -0.746595 -0.317017 0.58489
vertex -0.73677 -0.315144 0.59821
end loop
end factet
facet normal -0.100693 -0.00235404 0.0670002
outer loop
vertex -0.768058 3.86302 0.697985
vertex -0.73677 -0.315144 0.59821
vertex -0.720812 -0.304714 0.622559
end loop
end factet
facet normal -0.119139 -0.00314286 0.0990326
outer loop
vertex -0.768058 3.86302 0.697985
vertex -0.720812 -0.304714 0.622559
vertex -0.697105 -0.299903 0.651232
end loop
end factet
facet normal -0.0648841 -0.00157004 0.0413273
outer loop
vertex -0.768058 3.86302 0.697985
vertex -0.697105 -0.299903 0.651232
vertex -0.687388 -0.287516 0.666957
end loop
end factet
facet normal -0.00630763 -0.000134346 0.00157186
outer loop
vertex -0.768058 3.86302 0.697985
vertex -0.687388 -0.287516 0.666957
vertex -0.687064 -0.284698 0.668498
end loop
end factet
facet normal -0.000698678 4.16229e-05 -0.00777388
outer loop
vertex -0.768058 3.86302 0.697985
vertex -0.687064 -0.284698 0.668498
vertex -0.689043 -0.279383 0.668704
end loop
end factet
facet normal -0.0023777 -3.38831e-05 -0.00162289
outer loop
vertex -0.768058 3.86302 0.697985
vertex -0.689043 -0.279383 0.668704
vertex -0.689482 -0.27687 0.669296
end loop
end factet
facet normal 0.000883244 3.65195e-05 -0.00285071
outer loop
vertex -0.768058 3.86302 0.697985
vertex -0.689482 -0.27687 0.669296
vertex -0.690195 -0.275585 0.669092
end loop
end factet
facet normal -0.00814392 -0.000139175 -0.00201157
outer loop
vertex -0.768058 3.86302 0.697985
vertex -0.690195 -0.275585 0.669092
vertex -0.690803 -0.269089 0.671105
end loop
end factet
facet normal -0.0134838 -0.00025433 0.000343323
outer loop
vertex -0.768058 3.86302 0.697985
vertex -0.690803 -0.269089 0.671105
vertex -0.690882 -0.26045 0.674424
end loop
end factet
facet normal -0.0276922 -0.000621031 0.0179794
outer loop
vertex -0.768058 3.86302 0.697985
vertex -0.690882 -0.26045 0.674424
vertex -0.686642 -0.25401 0.681177
end loop
end factet
facet normal -0.0254469 -0.0005295 0.00643575
outer loop
vertex -0.768058 3.86302 0.697985
vertex -0.686642 -0.25401 0.681177
vertex -0.685349 -0.240331 0.687413
end loop
end factet
facet normal -0.0921892 -0.00203874 0.0700736
outer loop
vertex -0.768058 3.86302 0.697985
vertex -0.685349 -0.240331 0.687413
vertex -0.66866 -0.22112 0.70993
end loop
end factet
facet normal -0.030596 -0.000682368 0.0212922
outer loop
vertex -0.768058 3.86302 0.697985
vertex -0.66866 -0.22112 0.70993
vertex -0.663671 -0.211863 0.717394
end loop
end factet
facet normal -0.0241168 -0.000649557 -0.00666606
outer loop
vertex -0.768058 3.86302 0.697985
vertex -0.663671 -0.211863 0.717394
vertex -0.666053 -0.182736 0.723174
end loop
end factet
facet normal -0.0897975 -0.0018471 0.0669692
outer loop
vertex -0.768058 3.86302 0.697985
vertex -0.666053 -0.182736 0.723174
vertex -0.65039 -0.147462 0.74515
end loop
end factet
facet normal -0.0225736 -0.000440388 0.0188711
outer loop
vertex -0.768058 3.86302 0.697985
vertex -0.65039 -0.147462 0.74515
vertex -0.645941 -0.138733 0.750676
end loop
end factet
facet normal -0.010346 -0.000245038 0.00536808
outer loop
vertex -0.768058 3.86302 0.697985
vertex -0.645941 -0.138733 0.750676
vertex -0.644863 -0.130081 0.753147
end loop
end factet
facet normal -0.0221011 -0.00055709 0.00903228
outer loop
vertex -0.768058 3.86302 0.697985
vertex -0.644863 -0.130081 0.753147
vertex -0.64338 -0.104849 0.758333
end loop
end factet
facet normal -0.0159437 -0.000362671 0.00909415
outer loop
vertex -0.768058 3.86302 0.697985
vertex -0.64338 -0.104849 0.758333
vertex -0.641658 -0.0866944 0.762075
end loop
end factet
facet normal -0.00695935 -0.000107192 0.00711933
outer loop
vertex -0.768058 3.86302 0.697985
vertex -0.641658 -0.0866944 0.762075
vertex -0.639934 -0.0842474 0.763798
end loop
end factet
facet normal -0.00111023 -2.52333e-05 0.000648022
outer loop
vertex -0.768058 3.86302 0.697985
vertex -0.639934 -0.0842474 0.763798
vertex -0.639817 -0.0827928 0.764055
end loop
end factet
facet normal 0.00114879 -3.8744e-05 -0.00454366
outer loop
vertex -0.768058 3.86302 0.697985
vertex -0.639817 -0.0827928 0.764055
vertex -0.641204 -0.0755507 0.763642
end loop
end factet
facet normal -0.0020864 -4.61377e-05 0.00126338
outer loop
vertex -0.768058 3.86302 0.697985
vertex -0.641204 -0.0755507 0.763642
vertex -0.64098 -0.0725422 0.764122
end loop
end factet
facet normal 0.0226458 0.000203543 -0.0314005
outer loop
vertex -0.768058 3.86302 0.697985
vertex -0.64098 -0.0725422 0.764122
vertex -0.649387 -0.0592679 0.758145
end loop
end factet
facet normal 0.0209705 0.000203972 -0.0280679
outer loop
vertex -0.768058 3.86302 0.697985
vertex -0.649387 -0.0592679 0.758145
vertex -0.656982 -0.0447707 0.752576
end loop
end factet
facet normal -0.00658008 -0.000103627 0.00597066
outer loop
vertex -0.768058 3.86302 0.697985
vertex -0.656982 -0.0447707 0.752576
vertex -0.655686 -0.0366079 0.754146
end loop
end factet
facet normal 0.000842318 -7.25035e-07 -0.00173575
outer loop
vertex -0.768058 3.86302 0.697985
vertex -0.655686 -0.0366079 0.754146
vertex -0.656274 -0.0316574 0.753858
end loop
end factet
facet normal -0.0438385 -0.000547443 0.0495471
outer loop
vertex -0.768058 3.86302 0.697985
vertex -0.656274 -0.0316574 0.753858
vertex -0.644379 -0.00284635 0.764701
end loop
end factet
facet normal -0.153214 -0.00149391 0.197468
outer loop
vertex -0.768058 3.86302 0.697985
vertex -0.644379 -0.00284635 0.764701
vertex -0.594258 0.0271356 0.803816
end loop
end factet
facet normal -0.275297 0.000811126 0.481502
outer loop
vertex -0.768058 3.86302 0.697985
vertex -0.594258 0.0271356 0.803816
vertex -0.472893 0.118966 0.873051
end loop
end factet
facet normal -0.0555849 0.00676812 0.238463
outer loop
vertex -0.768058 3.86302 0.697985
vertex -0.472893 0.118966 0.873051
vertex -0.416709 0.214192 0.883445
end loop
end factet
facet normal -0.0301278 0.00353719 0.126669
outer loop
vertex -0.768058 3.86302 0.697985
vertex -0.416709 0.214192 0.883445
vertex -0.384846 0.24381 0.890196
end loop
end factet
facet normal -0.0467048 0.00310165 0.151517
outer loop
vertex -0.768058 3.86302 0.697985
vertex -0.384846 0.24381 0.890196
vertex -0.344599 0.259084 0.90229
end loop
end factet
facet normal 0.0116003 0.00333551 0.0347944
outer loop
vertex -0.768058 3.86302 0.697985
vertex -0.344599 0.259084 0.90229
vertex -0.337741 0.28289 0.897722
end loop
end factet
facet normal -0.00107235 0.000460438 0.0105634
outer loop
vertex -0.768058 3.86302 0.697985
vertex -0.337741 0.28289 0.897722
vertex -0.335108 0.285526 0.897874
end loop
end factet
facet normal -0.00216168 0.00064531 0.0162315
outer loop
vertex -0.768058 3.86302 0.697985
vertex -0.335108 0.285526 0.897874
vertex -0.330993 0.289017 0.898283
end loop
end factet
facet normal 0.0038498 0.000498027 0.000485778
outer loop
vertex -0.768058 3.86302 0.697985
vertex -0.330993 0.289017 0.898283
vertex -0.331298 0.292618 0.897004
end loop
end factet
facet normal 0.00105041 0.000935979 0.0144863
outer loop
vertex -0.768058 3.86302 0.697985
vertex -0.331298 0.292618 0.897004
vertex -0.327926 0.298221 0.896398
end loop
end factet
facet normal 0.00343776 0.000223584 -0.00360894
outer loop
vertex -0.768058 3.86302 0.697985
vertex -0.327926 0.298221 0.896398
vertex -0.329164 0.300054 0.895331
end loop
end factet
facet normal 0.00162041 2.42963e-05 -0.00316513
outer loop
vertex -0.768058 3.86302 0.697985
vertex -0.329164 0.300054 0.895331
vertex -0.330101 0.300447 0.894855
end loop
end factet
facet normal 0.000483692 4.07174e-05 -0.000339031
outer loop
vertex -0.768058 3.86302 0.697985
vertex -0.330101 0.300447 0.894855
vertex -0.330234 0.300755 0.894702
end loop
end factet
facet normal 0.0012992 0.000101261 -0.0010581
outer loop
vertex -0.768058 3.86302 0.697985
vertex -0.330234 0.300755 0.894702
vertex -0.330627 0.301536 0.894294
end loop
end factet
facet normal 0.00290388 0.00035008 -0.000119448
outer loop
vertex -0.768058 3.86302 0.697985
vertex -0.330627 0.301536 0.894294
vertex -0.33096 0.303976 0.893344
end loop
end factet
facet normal 0.00127429 0.000266694 0.00200748
outer loop
vertex -0.768058 3.86302 0.697985
vertex -0.33096 0.303976 0.893344
vertex -0.330606 0.305684 0.892893
end loop
end factet
facet normal 0.00237709 0.000322469 0.000550151
outer loop
vertex -0.768058 3.86302 0.697985
vertex -0.330606 0.305684 0.892893
vertex -0.330718 0.307853 0.892105
end loop
end factet
facet normal 0.0047822 0.000296146 -0.00535023
outer loop
vertex -0.768058 3.86302 0.697985
vertex -0.330718 0.307853 0.892105
vertex -0.332509 0.310177 0.890633
end loop
end factet
facet normal 0.00758874 0.00122314 0.0054003
outer loop
vertex -0.768058 3.86302 0.697985
vertex -0.332509 0.310177 0.890633
vertex -0.33195 0.31802 0.888072
end loop
end factet
facet normal 0.00723457 0.000609152 -0.0052377
outer loop
vertex -0.768058 3.86302 0.697985
vertex -0.33195 0.31802 0.888072
vertex -0.333945 0.322224 0.885806
end loop
end factet
facet normal 0.00451839 0.00090237 0.00656807
outer loop
vertex -0.768058 3.86302 0.697985
vertex -0.333945 0.322224 0.885806
vertex -0.332762 0.327705 0.884239
end loop
end factet
facet normal 0.00168717 0.000873007 0.0126276
outer loop
vertex -0.768058 3.86302 0.697985
vertex -0.332762 0.327705 0.884239
vertex -0.329799 0.332653 0.883501
end loop
end factet
facet normal -0.00613779 0.00126518 0.0385762
outer loop
vertex -0.768058 3.86302 0.697985
vertex -0.329799 0.332653 0.883501
vertex -0.31963 0.338755 0.884919
end loop
end factet
facet normal 0.00239825 0.00102656 0.0136007
outer loop
vertex -0.768058 3.86302 0.697985
vertex -0.31963 0.338755 0.884919
vertex -0.316466 0.344215 0.883949
end loop
end factet
facet normal 0.00206941 0.000609905 0.00651526
outer loop
vertex -0.768058 3.86302 0.697985
vertex -0.316466 0.344215 0.883949
vertex -0.315031 0.347466 0.883189
end loop
end factet
facet normal 0.00489247 0.000722028 0.00173807
outer loop
vertex -0.768058 3.86302 0.697985
vertex -0.315031 0.347466 0.883189
vertex -0.315056 0.351493 0.881585
end loop
end factet
facet normal 0.00479287 0.000958577 0.00650811
outer loop
vertex -0.768058 3.86302 0.697985
vertex -0.315056 0.351493 0.881585
vertex -0.313863 0.356614 0.879953
end loop
end factet
facet normal 0.00805926 0.000792652 -0.00484216
outer loop
vertex -0.768058 3.86302 0.697985
vertex -0.313863 0.356614 0.879953
vertex -0.315824 0.36109 0.877422
end loop
end factet
facet normal 0.00996858 0.00114176 -0.002841
outer loop
vertex -0.768058 3.86302 0.697985
vertex -0.315824 0.36109 0.877422
vertex -0.317437 0.367299 0.874257
end loop
end factet
facet normal 0.00911742 0.00107695 -0.00195026
outer loop
vertex -0.768058 3.86302 0.697985
vertex -0.317437 0.367299 0.874257
vertex -0.318732 0.373016 0.871361
end loop
end factet
facet normal 0.00471109 0.000598565 -0.000160456
outer loop
vertex -0.768058 3.86302 0.697985
vertex -0.318732 0.373016 0.871361
vertex -0.319179 0.376132 0.869856
end loop
end factet
facet normal 0.00684565 0.000922605 0.000838757
outer loop
vertex -0.768058 3.86302 0.697985
vertex -0.319179 0.376132 0.869856
vertex -0.319547 0.380863 0.86766
end loop
end factet
facet normal 0.00931489 0.000989713 -0.00431108
outer loop
vertex -0.768058 3.86302 0.697985
vertex -0.319547 0.380863 0.86766
vertex -0.321432 0.385884 0.86474
end loop
end factet
facet normal 0.00735915 0.000923708 -0.000449419
outer loop
vertex -0.768058 3.86302 0.697985
vertex -0.321432 0.385884 0.86474
vertex -0.322152 0.390486 0.862403
end loop
end factet
facet normal 0.00682789 0.00147525 0.0126401
outer loop
vertex -0.768058 3.86302 0.697985
vertex -0.322152 0.390486 0.862403
vertex -0.319444 0.397738 0.860093
end loop
end factet
facet normal 0.00476718 0.0010344 0.00891912
outer loop
vertex -0.768058 3.86302 0.697985
vertex -0.319444 0.397738 0.860093
vertex -0.317516 0.402727 0.858484
end loop
end factet
facet normal 0.00501949 0.000897437 0.00525796
outer loop
vertex -0.768058 3.86302 0.697985
vertex -0.317516 0.402727 0.858484
vertex -0.316549 0.406974 0.856836
end loop
end factet
facet normal 0.0128572 0.00160595 -0.00160456
outer loop
vertex -0.768058 3.86302 0.697985
vertex -0.316549 0.406974 0.856836
vertex -0.317973 0.414321 0.852779
end loop
end factet
facet normal 0.0163988 0.0028531 0.0158832
outer loop
vertex -0.768058 3.86302 0.697985
vertex -0.317973 0.414321 0.852779
vertex -0.315061 0.427294 0.847441
end loop
end factet
facet normal 0.00590366 0.00123839 0.0105743
outer loop
vertex -0.768058 3.86302 0.697985
vertex -0.315061 0.427294 0.847441
vertex -0.312717 0.432863 0.845481
end loop
end factet
facet normal 0.00603563 0.00146075 0.0153382
outer loop
vertex -0.768058 3.86302 0.697985
vertex -0.312717 0.432863 0.845481
vertex -0.309111 0.439384 0.843441
end loop
end factet
facet normal 0.00455752 0.00247033 0.0437648
outer loop
vertex -0.768058 3.86302 0.697985
vertex -0.309111 0.439384 0.843441
vertex -0.297818 0.450501 0.841637
end loop
end factet
facet normal -0.0112199 0.00127088 0.0669181
outer loop
vertex -0.768058 3.86302 0.697985
vertex -0.297818 0.450501 0.841637
vertex -0.279077 0.456799 0.84466
end loop
end factet
facet normal -0.0279882 -0.00146165 0.0593624
outer loop
vertex -0.768058 3.86302 0.697985
vertex -0.279077 0.456799 0.84466
vertex -0.260936 0.451828 0.853091
end loop
end factet
facet normal 0.521351 0.0664171 -0.243883
outer loop
vertex -0.768058 3.86302 0.697985
vertex -0.260936 0.451828 0.853091
vertex -0.358369 0.626308 0.692322
end loop
end factet
facet normal -0.0108026 -0.0255722 0.0175421
outer loop
vertex -0.358369 0.626308 0.692322
vertex 0 0 0
vertex -0.329485 0.624778 0.707878
end loop
end factet
facet normal 6.89328e-05 -0.0247256 0.0218551
outer loop
vertex -0.329485 0.624778 0.707878
vertex 0 0 0
vertex -0.298148 0.631688 0.715597
end loop
end factet
facet normal 0.0182317 -0.0188195 0.0242089
outer loop
vertex -0.298148 0.631688 0.715597
vertex 0 0 0
vertex -0.269199 0.65155 0.709235
end loop
end factet
facet normal -0.0462815 -0.00929546 -0.00902727
outer loop
vertex -0.269199 0.65155 0.709235
vertex 0 0 0
vertex -0.268177 0.615542 0.741073
end loop
end factet
facet normal -0.0374963 0.0107248 -0.0224771
outer loop
vertex -0.268177 0.615542 0.741073
vertex 0 0 0
vertex -0.289689 0.581103 0.760526
end loop
end factet
facet normal -0.0264311 -0.0075919 -0.0042669
outer loop
vertex -0.289689 0.581103 0.760526
vertex 0 0 0
vertex -0.286282 0.559541 0.77779
end loop
end factet
facet normal -0.0255006 -0.0166302 0.00257769
outer loop
vertex -0.286282 0.559541 0.77779
vertex 0 0 0
vertex -0.271771 0.540183 0.796456
end loop
end factet
facet normal -0.0450369 -0.0219616 -0.00047268
outer loop
vertex -0.271771 0.540183 0.796456
vertex 0 0 0
vertex -0.254194 0.503506 0.825752
end loop
end factet
facet normal -0.072167 -0.0312052 -0.0031879
outer loop
vertex -0.254194 0.503506 0.825752
vertex 0 0 0
vertex -0.229243 0.441542 0.867461
end loop
end factet
facet normal -0.00366908 -0.0063179 0.00224623
outer loop
vertex -0.229243 0.441542 0.867461
vertex 0 0 0
vertex -0.222764 0.438862 0.870504
end loop
end factet
facet normal -0.0201111 -0.0215911 0.0057386
outer loop
vertex -0.222764 0.438862 0.870504
vertex 0 0 0
vertex -0.20135 0.422435 0.883746
end loop
end factet
facet normal 0.00392377 -0.00676005 0.00412532
outer loop
vertex -0.20135 0.422435 0.883746
vertex 0 0 0
vertex -0.193625 0.426717 0.883415
end loop
end factet
facet normal 0.020334 -0.0223863 0.01527
outer loop
vertex -0.193625 0.426717 0.883415
vertex 0 0 0
vertex -0.167221 0.447392 0.878566
end loop
end factet
facet normal 0.0289933 -0.0389229 0.0253391
outer loop
vertex -0.167221 0.447392 0.878566
vertex 0 0 0
vertex -0.121438 0.47643 0.870785
end loop
end factet
facet normal 0.00201178 -0.0131996 0.00750243
outer loop
vertex -0.121438 0.47643 0.870785
vertex 0 0 0
vertex -0.106355 0.479037 0.871328
end loop
end factet
facet normal 0.0166976 0.00265472 0.000578631
outer loop
vertex -0.106355 0.479037 0.871328
vertex 0 0 0
vertex -0.108376 0.49358 0.862922
end loop
end factet
facet normal 0.0573307 0.0055071 0.00405028
outer loop
vertex -0.108376 0.49358 0.862922
vertex 0 0 0
vertex -0.110948 0.542667 0.832588
end loop
end factet
facet normal 0.0074473 -0.00491022 0.0041928
outer loop
vertex -0.110948 0.542667 0.832588
vertex 0 0 0
vertex -0.104579 0.549306 0.829051
end loop
end factet
facet normal 0.0214312 -0.0081285 0.00808913
outer loop
vertex -0.104579 0.549306 0.829051
vertex 0 0 0
vertex -0.093366 0.567758 0.817884
end loop
end factet
facet normal 0.00432917 -0.00448663 0.00360872
outer loop
vertex -0.093366 0.567758 0.817884
vertex 0 0 0
vertex -0.0876452 0.571621 0.815824
end loop
end factet
facet normal 0.00438949 -0.00272077 0.00237793
outer loop
vertex -0.0876452 0.571621 0.815824
vertex 0 0 0
vertex -0.0840648 0.575401 0.81354
end loop
end factet
facet normal 0.00579458 -0.00782736 0.00613491
outer loop
vertex -0.0840648 0.575401 0.81354
vertex 0 0 0
vertex -0.0741613 0.580593 0.81081
end loop
end factet
facet normal 0.0112552 -0.00828697 0.00696347
outer loop
vertex -0.0741613 0.580593 0.81081
vertex 0 0 0
vertex -0.0633902 0.590164 0.804791
end loop
end factet
facet normal 0.0223056 -0.045565 0.0351704
outer loop
vertex -0.0633902 0.590164 0.804791
vertex 0 0 0
vertex -0.00584268 0.609219 0.79298
end loop
end factet
facet normal 0.0999442 -0.0813524 0.0632367
outer loop
vertex -0.00584268 0.609219 0.79298
vertex 0 0 0
vertex 0.0972537 0.682533 0.724355
end loop
end factet
facet normal 0.0398519 -0.0423668 0.03457
outer loop
vertex 0.0972537 0.682533 0.724355
vertex 0 0 0
vertex 0.151315 0.706474 0.691374
end loop
end factet
facet normal 0.00920257 -0.0174206 0.015787
outer loop
vertex 0.151315 0.706474 0.691374
vertex 0 0 0
vertex 0.174464 0.710222 0.682017
end loop
end factet
facet normal 0.0149932 -0.0056092 0.00200585
outer loop
vertex 0.174464 0.710222 0.682017
vertex 0 0 0
vertex 0.179691 0.720006 0.670301
end loop
end factet
facet normal 0.024323 -0.0216698 0.0167563
outer loop
vertex 0.179691 0.720006 0.670301
vertex 0 0 0
vertex 0.20616 0.732815 0.648444
end loop
end factet
facet normal 0.0163492 -0.0446538 0.0452659
outer loop
vertex 0.20616 0.732815 0.648444
vertex 0 0 0
vertex 0.267843 0.732503 0.625859
end loop
end factet
facet normal 0.0114435 -0.0176874 0.0158039
outer loop
vertex 0.267843 0.732503 0.625859
vertex 0 0 0
vertex 0.290396 0.735178 0.612522
end loop
end factet
facet normal 0.0171809 -0.00533481 -0.00174236
outer loop
vertex 0.290396 0.735178 0.612522
vertex 0 0 0
vertex 0.292335 0.746088 0.598241
end loop
end factet
facet normal 0.013391 0.000738025 -0.00746404
outer loop
vertex 0.292335 0.746088 0.598241
vertex 0 0 0
vertex 0.286291 0.756193 0.588396
end loop
end factet
facet normal 0.020152 -0.0144172 0.00872347
outer loop
vertex 0.286291 0.756193 0.588396
vertex 0 0 0
vertex 0.301271 0.765292 0.568826
end loop
end factet
facet normal 0.0267967 -0.0140076 0.0046531
outer loop
vertex 0.301271 0.765292 0.568826
vertex 0 0 0
vertex 0.312659 0.778775 0.543833
end loop
end factet
facet normal 0.0103163 -0.00122777 -0.00417285
outer loop
vertex 0.312659 0.778775 0.543833
vertex 0 0 0
vertex 0.310058 0.785641 0.535381
end loop
end factet
facet normal 0.00637171 -0.00148149 -0.0015161
outer loop
vertex 0.310058 0.785641 0.535381
vertex 0 0 0
vertex 0.309653 0.789505 0.529904
end loop
end factet
facet normal 0.00844243 0.00378466 -0.0105722
outer loop
vertex 0.309653 0.789505 0.529904
vertex 0 0 0
vertex 0.29927 0.797174 0.524358
end loop
end factet
facet normal 0.0301798 -0.00417101 -0.0108835
outer loop
vertex 0.29927 0.797174 0.524358
vertex 0 0 0
vertex 0.292624 0.815839 0.498777
end loop
end factet
facet normal 0.00492027 -0.00031966 -0.00236376
outer loop
vertex 0.292624 0.815839 0.498777
vertex 0 0 0
vertex 0.290851 0.818973 0.494661
end loop
end factet
facet normal 0.00831813 -0.000409916 -0.00421225
outer loop
vertex 0.290851 0.818973 0.494661
vertex 0 0 0
vertex 0.287591 0.824277 0.487708
end loop
end factet
facet normal 0.00321531 -0.000386938 -0.00124206
outer loop
vertex 0.287591 0.824277 0.487708
vertex 0 0 0
vertex 0.286755 0.826197 0.484944
end loop
end factet
facet normal 0.00143582 -0.000442326 -9.54419e-05
outer loop
vertex 0.286755 0.826197 0.484944
vertex 0 0 0
vertex 0.28689 0.82692 0.48363
end loop
end factet
facet normal 0.00272027 -0.00107855 0.000230446
outer loop
vertex 0.28689 0.82692 0.48363
vertex 0 0 0
vertex 0.287601 0.828166 0.481069
end loop
end factet
facet normal 0.00390866 -0.00172184 0.000627443
outer loop
vertex 0.287601 0.828166 0.481069
vertex 0 0 0
vertex 0.288946 0.829858 0.477332
end loop
end factet
facet normal 0.0150954 -0.00269657 -0.00444968
outer loop
vertex 0.288946 0.829858 0.477332
vertex 0 0 0
vertex 0.286504 0.838243 0.463965
end loop
end factet
facet normal 0.00569093 -0.00179888 -0.000264168
outer loop
vertex 0.286504 0.838243 0.463965
vertex 0 0 0
vertex 0.287112 0.840944 0.458671
end loop
end factet
facet normal 0.0152017 -0.00488228 -0.000564381
outer loop
vertex 0.287112 0.840944 0.458671
vertex 0 0 0
vertex 0.28884 0.847972 0.444427
end loop
end factet
facet normal 0.00917599 -0.00475375 0.00310658
outer loop
vertex 0.28884 0.847972 0.444427
vertex 0 0 0
vertex 0.29357 0.851103 0.435247
end loop
end factet
facet normal 0.0114644 -0.00287047 -0.00211957
outer loop
vertex 0.29357 0.851103 0.435247
vertex 0 0 0
vertex 0.292994 0.856654 0.424616
end loop
end factet
facet normal 0.0124202 -0.00114691 -0.00625634
outer loop
vertex 0.292994 0.856654 0.424616
vertex 0 0 0
vertex 0.288093 0.863677 0.413599
end loop
end factet
facet normal 0.0240693 -0.00498737 -0.00635093
outer loop
vertex 0.288093 0.863677 0.413599
vertex 0 0 0
vertex 0.284578 0.875184 0.39124
end loop
end factet
facet normal 0.0203607 -0.00389035 -0.00610733
outer loop
vertex 0.284578 0.875184 0.39124
vertex 0 0 0
vertex 0.280689 0.884683 0.372223
end loop
end factet
facet normal 0.0301158 -0.011293 0.00413069
outer loop
vertex 0.280689 0.884683 0.372223
vertex 0 0 0
vertex 0.288399 0.894268 0.342214
end loop
end factet
facet normal 0.0240971 -0.00999285 0.00580543
outer loop
vertex 0.288399 0.894268 0.342214
vertex 0 0 0
vertex 0.296907 0.900521 0.317661
end loop
end factet
facet normal 0.0325129 -0.00909777 -0.00459787
outer loop
vertex 0.296907 0.900521 0.317661
vertex 0 0 0
vertex 0.295484 0.911691 0.285496
end loop
end factet
facet normal 0.0190216 -0.00694117 0.0024786
outer loop
vertex 0.295484 0.911691 0.285496
vertex 0 0 0
vertex 0.299664 0.9162 0.266044
end loop
end factet
facet normal 0.0752998 -0.0258463 0.00419363
outer loop
vertex 0.299664 0.9162 0.266044
vertex 0 0 0
vertex 0.309429 0.93206 0.188463
end loop
end factet
facet normal 0.0598971 -0.0257965 0.0292365
outer loop
vertex 0.309429 0.93206 0.188463
vertex 0 0 0
vertex 0.340749 0.931918 0.124171
end loop
end factet
facet normal 0.0457699 -0.0190683 0.0175087
outer loop
vertex 0.340749 0.931918 0.124171
vertex 0 0 0
vertex 0.358962 0.930346 0.0748477
end loop
end factet
facet normal 0.101698 -0.0423707 0.0389258
outer loop
vertex 0.358962 0.930346 0.0748477
vertex 0 0 0
vertex 0.395889 0.917612 -0.0354891
end loop
end factet
facet normal 0.0676819 -0.024329 0.125952
outer loop
vertex 0.395889 0.917612 -0.0354891
vertex 0 0 0
vertex 0.506415 0.855644 -0.106851
end loop
end factet
facet normal 0.0780106 -0.0322066 0.111823
outer loop
vertex 0.506415 0.855644 -0.106851
vertex 0 0 0
vertex 0.59366 0.782241 -0.188857
end loop
end factet
facet normal 0.020646 -0.0140784 0.00658712
outer loop
vertex 0.59366 0.782241 -0.188857
vertex 0 0 0
vertex 0.595955 0.77417 -0.213301
end loop
end factet
facet normal 0.0228452 -0.011089 0.0235814
outer loop
vertex 0.595955 0.77417 -0.213301
vertex 0 0 0
vertex 0.611488 0.754779 -0.237468
end loop
end factet
facet normal 0.0157391 -0.00361377 0.0290427
outer loop
vertex 0.611488 0.754779 -0.237468
vertex 0 0 0
vertex 0.632213 0.732865 -0.251426
end loop
end factet
facet normal 0.0068267 -0.00255312 0.00972384
outer loop
vertex 0.632213 0.732865 -0.251426
vertex 0 0 0
vertex 0.638651 0.724947 -0.258025
end loop
end factet
facet normal 0.00349954 0.000824809 0.0109793
outer loop
vertex 0.638651 0.724947 -0.258025
vertex 0 0 0
vertex 0.64678 0.716984 -0.260018
end loop
end factet
facet normal 0.00559951 -0.0025897 0.00678757
outer loop
vertex 0.64678 0.716984 -0.260018
vertex 0 0 0
vertex 0.650946 0.711108 -0.265696
end loop
end factet
facet normal 0.00639226 0.00465648 0.0281233
outer loop
vertex 0.650946 0.711108 -0.265696
vertex 0 0 0
vertex 0.671904 0.690799 -0.267097
end loop
end factet
facet normal 0.00697665 -0.00268213 0.0106135
outer loop
vertex 0.671904 0.690799 -0.267097
vertex 0 0 0
vertex 0.678463 0.681746 -0.273697
end loop
end factet
facet normal 0.00830629 0.019938 0.0702537
outer loop
vertex 0.678463 0.681746 -0.273697
vertex 0 0 0
vertex 0.72998 0.629964 -0.265092
end loop
end factet
facet normal 0.0171178 -0.00693721 0.0306514
outer loop
vertex 0.72998 0.629964 -0.265092
vertex 0 0 0
vertex 0.746983 0.602648 -0.28077
end loop
end factet
facet normal -0.00443169 0.0240783 0.0398915
outer loop
vertex 0.746983 0.602648 -0.28077
vertex 0 0 0
vertex 0.776965 0.573434 -0.259805
end loop
end factet
facet normal 0.00212324 -0.0029346 -0.000127524
outer loop
vertex 0.776965 0.573434 -0.259805
vertex 0 0 0
vertex 0.776125 0.572978 -0.263301
end loop
end factet
facet normal 0.0252508 -0.0274368 0.014725
outer loop
vertex 0.776125 0.572978 -0.263301
vertex 0 0 0
vertex 0.776714 0.55444 -0.298852
end loop
end factet
facet normal 0.00953902 -0.0112399 0.00393918
outer loop
vertex 0.776714 0.55444 -0.298852
vertex 0 0 0
vertex 0.775448 0.548465 -0.312836
end loop
end factet
facet normal 0.0120123 -0.0191726 -0.00383765
outer loop
vertex 0.775448 0.548465 -0.312836
vertex 0 0 0
vertex 0.767141 0.547539 -0.334209
end loop
end factet
facet normal 0.00519589 -0.00706512 0.000351757
outer loop
vertex 0.767141 0.547539 -0.334209
vertex 0 0 0
vertex 0.764943 0.545511 -0.342461
end loop
end factet
facet normal 0.00695185 -0.0113718 -0.00258622
outer loop
vertex 0.764943 0.545511 -0.342461
vertex 0 0 0
vertex 0.759567 0.545058 -0.354921
end loop
end factet
facet normal 0.0103602 -0.0177651 -0.00511044
outer loop
vertex 0.759567 0.545058 -0.354921
vertex 0 0 0
vertex 0.750306 0.545141 -0.373982
end loop
end factet
facet normal 0.0144045 -0.0207412 -0.00133449
outer loop
vertex 0.750306 0.545141 -0.373982
vertex 0 0 0
vertex 0.741582 0.540581 -0.397277
end loop
end factet
facet normal 0.0047798 -0.0146568 -0.0110214
outer loop
vertex 0.741582 0.540581 -0.397277
vertex 0 0 0
vertex 0.729668 0.546758 -0.410659
end loop
end factet
facet normal 0.00801516 -0.00955543 0.00151923
outer loop
vertex 0.729668 0.546758 -0.410659
vertex 0 0 0
vertex 0.726517 0.542315 -0.421981
end loop
end factet
facet normal 0.00453117 -0.00690374 -0.00107118
outer loop
vertex 0.726517 0.542315 -0.421981
vertex 0 0 0
vertex 0.722997 0.541162 -0.429439
end loop
end factet
facet normal 0.0159541 -0.0164898 0.00608027
outer loop
vertex 0.722997 0.541162 -0.429439
vertex 0 0 0
vertex 0.719003 0.529762 -0.449874
end loop
end factet
facet normal 0.00607193 -0.01155 -0.00389662
outer loop
vertex 0.719003 0.529762 -0.449874
vertex 0 0 0
vertex 0.711676 0.529783 -0.461354
end loop
end factet
facet normal 0.0276996 -0.0252159 0.013773
outer loop
vertex 0.711676 0.529783 -0.461354
vertex 0 0 0
vertex 0.706772 0.50678 -0.493606
end loop
end factet
facet normal 0.00927049 -0.0177357 -0.00493506
outer loop
vertex 0.706772 0.50678 -0.493606
vertex 0 0 0
vertex 0.695367 0.505584 -0.510735
end loop
end factet
facet normal 0.00468233 -0.0100895 -0.00361279
outer loop
vertex 0.695367 0.505584 -0.510735
vertex 0 0 0
vertex 0.688339 0.50567 -0.520083
end loop
end factet
facet normal 0.00617948 -0.0117103 -0.00320715
outer loop
vertex 0.688339 0.50567 -0.520083
vertex 0 0 0
vertex 0.680563 0.504617 -0.53122
end loop
end factet
facet normal 0.000255644 -0.00940096 -0.00860265
outer loop
vertex 0.680563 0.504617 -0.53122
vertex 0 0 0
vertex 0.671173 0.510295 -0.537704
end loop
end factet
facet normal 0.00298646 -0.00550875 -0.00150019
outer loop
vertex 0.671173 0.510295 -0.537704
vertex 0 0 0
vertex 0.667432 0.509686 -0.542914
end loop
end factet
facet normal 0.00199524 -0.00310755 -0.000464499
outer loop
vertex 0.667432 0.509686 -0.542914
vertex 0 0 0
vertex 0.665503 0.508909 -0.546001
end loop
end factet
facet normal 0.00149629 -0.00259587 -0.000595719
outer loop
vertex 0.665503 0.508909 -0.546001
vertex 0 0 0
vertex 0.663779 0.508486 -0.548488
end loop
end factet
facet normal 0.00344351 -0.00930357 -0.00445771
outer loop
vertex 0.663779 0.508486 -0.548488
vertex 0 0 0
vertex 0.656371 0.509526 -0.556382
end loop
end factet
facet normal 0.00134376 -0.0118925 -0.00930578
outer loop
vertex 0.656371 0.509526 -0.556382
vertex 0 0 0
vertex 0.644937 0.514828 -0.564809
end loop
end factet
facet normal -0.00224572 -0.0133527 -0.0147354
outer loop
vertex 0.644937 0.514828 -0.564809
vertex 0 0 0
vertex 0.62968 0.525497 -0.572151
end loop
end factet
facet normal 0.00160843 -0.00723121 -0.0048714
outer loop
vertex 0.62968 0.525497 -0.572151
vertex 0 0 0
vertex 0.622958 0.527623 -0.577527
end loop
end factet
facet normal -0.001398 -0.000799268 -0.00223818
outer loop
vertex 0.622958 0.527623 -0.577527
vertex 0 0 0
vertex 0.621313 0.529823 -0.577285
end loop
end factet
facet normal -0.00386724 -0.00196081 -0.00596178
outer loop
vertex 0.621313 0.529823 -0.577285
vertex 0 0 0
vertex 0.617005 0.535745 -0.576439
end loop
end factet
facet normal -0.000206321 -0.00255015 -0.00259095
outer loop
vertex 0.617005 0.535745 -0.576439
vertex 0 0 0
vertex 0.614143 0.537459 -0.577898
end loop
end factet
facet normal -0.00236529 -0.00178432 -0.00417313
outer loop
vertex 0.614143 0.537459 -0.577898
vertex 0 0 0
vertex 0.610861 0.541382 -0.577715
end loop
end factet
facet normal 0.00189209 -0.00362217 -0.00139377
outer loop
vertex 0.610861 0.541382 -0.577715
vertex 0 0 0
vertex 0.608008 0.541135 -0.580946
end loop
end factet
facet normal 0.00471145 -0.00579661 -0.000468493
outer loop
vertex 0.608008 0.541135 -0.580946
vertex 0 0 0
vertex 0.60437 0.538668 -0.587004
end loop
end factet
facet normal 0.00428408 -0.00763848 -0.00259864
outer loop
vertex 0.60437 0.538668 -0.587004
vertex 0 0 0
vertex 0.598461 0.537701 -0.593904
end loop
end factet
facet normal 0.00177732 -0.00328463 -0.00118279
outer loop
vertex 0.598461 0.537701 -0.593904
vertex 0 0 0
vertex 0.59587 0.537349 -0.596821
end loop
end factet
facet normal 0.00246662 -0.00926051 -0.00587502
outer loop
vertex 0.59587 0.537349 -0.596821
vertex 0 0 0
vertex 0.587149 0.539344 -0.603626
end loop
end factet
facet normal -7.05421e-05 -0.013381 -0.0120247
outer loop
vertex 0.587149 0.539344 -0.603626
vertex 0 0 0
vertex 0.572491 0.546359 -0.611347
end loop
end factet
facet normal 0.000128776 -0.00359744 -0.00309446
outer loop
vertex 0.572491 0.546359 -0.611347
vertex 0 0 0
vertex 0.568595 0.548046 -0.61347
end loop
end factet
facet normal 0.0054172 -0.00836107 -0.0024485
outer loop
vertex 0.568595 0.548046 -0.61347
vertex 0 0 0
vertex 0.562093 0.546086 -0.621161
end loop
end factet
facet normal 0.012372 -0.0249104 -0.0107042
outer loop
vertex 0.562093 0.546086 -0.621161
vertex 0 0 0
vertex 0.540525 0.544175 -0.641643
end loop
end factet
facet normal 0.012336 -0.0214558 -0.0078046
outer loop
vertex 0.540525 0.544175 -0.641643
vertex 0 0 0
vertex 0.522329 0.540295 -0.659737
end loop
end factet
facet normal 0.0118634 -0.00891489 0.00209156
outer loop
vertex 0.522329 0.540295 -0.659737
vertex 0 0 0
vertex 0.517519 0.531315 -0.67073
end loop
end factet
facet normal 0.0073196 -0.00991303 -0.00220492
outer loop
vertex 0.517519 0.531315 -0.67073
vertex 0 0 0
vertex 0.509658 0.527505 -0.679696
end loop
end factet
facet normal -0.00124902 -0.00939035 -0.00822431
outer loop
vertex 0.509658 0.527505 -0.679696
vertex 0 0 0
vertex 0.498897 0.532504 -0.68377
end loop
end factet
facet normal 0.00452062 -0.0168331 -0.00981089
outer loop
vertex 0.498897 0.532504 -0.68377
vertex 0 0 0
vertex 0.482063 0.534201 -0.694438
end loop
end factet
facet normal -0.000107288 -0.00298089 -0.00236756
outer loop
vertex 0.482063 0.534201 -0.694438
vertex 0 0 0
vertex 0.478724 0.535413 -0.695813
end loop
end factet
facet normal 0.00193945 -0.00626448 -0.00348601
outer loop
vertex 0.478724 0.535413 -0.695813
vertex 0 0 0
vertex 0.472486 0.535718 -0.699831
end loop
end factet
facet normal 0.000763535 -0.00147402 -0.000612855
outer loop
vertex 0.472486 0.535718 -0.699831
vertex 0 0 0
vertex 0.471125 0.535472 -0.700935
end loop
end factet
facet normal 0.00333869 -0.00213367 0.000614077
outer loop
vertex 0.471125 0.535472 -0.700935
vertex 0 0 0
vertex 0.469955 0.532839 -0.703723
end loop
end factet
facet normal 0.00715542 -0.00564143 0.000506938
outer loop
vertex 0.469955 0.532839 -0.703723
vertex 0 0 0
vertex 0.466235 0.527543 -0.710157
end loop
end factet
facet normal 0.00429997 -0.00435114 -0.000409216
outer loop
vertex 0.466235 0.527543 -0.710157
vertex 0 0 0
vertex 0.462921 0.52467 -0.714441
end loop
end factet
facet normal 0.000481516 -0.00151414 -0.000799924
outer loop
vertex 0.462921 0.52467 -0.714441
vertex 0 0 0
vertex 0.461418 0.524695 -0.715393
end loop
end factet
facet normal 0.00258619 -0.00364041 -0.00100195
outer loop
vertex 0.461418 0.524695 -0.715393
vertex 0 0 0
vertex 0.458284 0.523302 -0.718423
end loop
end factet
facet normal 0.00322443 -0.00181824 0.000732452
outer loop
vertex 0.458284 0.523302 -0.718423
vertex 0 0 0
vertex 0.457357 0.520646 -0.720938
end loop
end factet
facet normal 0.000919342 -0.0012857 -0.00034529
outer loop
vertex 0.457357 0.520646 -0.720938
vertex 0 0 0
vertex 0.45625 0.520141 -0.722004
end loop
end factet
facet normal 0.0135996 -0.0118254 7.47144e-05
outer loop
vertex 0.45625 0.520141 -0.722004
vertex 0 0 0
vertex 0.447677 0.510203 -0.734356
end loop
end factet
facet normal 0.0058946 -0.00433525 0.000581488
outer loop
vertex 0.447677 0.510203 -0.734356
vertex 0 0 0
vertex 0.444778 0.5056 -0.739284
end loop
end factet
facet normal 0.0129081 -0.00755829 0.00259677
outer loop
vertex 0.444778 0.5056 -0.739284
vertex 0 0 0
vertex 0.440452 0.494844 -0.749087
end loop
end factet
facet normal 0.0175582 -0.00609869 0.00629517
outer loop
vertex 0.440452 0.494844 -0.749087
vertex 0 0 0
vertex 0.438914 0.478824 -0.760318
end loop
end factet
facet normal 0.0223026 -0.0230668 -0.00165199
outer loop
vertex 0.438914 0.478824 -0.760318
vertex 0 0 0
vertex 0.420358 0.462344 -0.780728
end loop
end factet
facet normal 0.0254542 -0.0262876 -0.00186245
outer loop
vertex 0.420358 0.462344 -0.780728
vertex 0 0 0
vertex 0.398691 0.442944 -0.803023
end loop
end factet
facet normal 0.0124937 -0.0265364 -0.00843439
outer loop
vertex 0.398691 0.442944 -0.803023
vertex 0 0 0
vertex 0.37346 0.436068 -0.818763
end loop
end factet
facet normal 0.00439802 -0.0150152 -0.00599097
outer loop
vertex 0.37346 0.436068 -0.818763
vertex 0 0 0
vertex 0.358501 0.434643 -0.826173
end loop
end factet
facet normal 0.0410645 -0.0461092 -0.00643857
outer loop
vertex 0.358501 0.434643 -0.826173
vertex 0 0 0
vertex 0.316917 0.402187 -0.858958
end loop
end factet
facet normal 0.0219187 -0.0205954 -0.00155628
outer loop
vertex 0.316917 0.402187 -0.858958
vertex 0 0 0
vertex 0.298457 0.38367 -0.873911
end loop
end factet
facet normal 0.034374 -0.0296403 -0.00127353
outer loop
vertex 0.298457 0.38367 -0.873911
vertex 0 0 0
vertex 0.271757 0.353615 -0.895045
end loop
end factet
facet normal 0.0235151 -0.0847065 -0.0263261
outer loop
vertex 0.271757 0.353615 -0.895045
vertex 0 0 0
vertex 0.185485 0.33823 -0.922603
end loop
end factet
facet normal 0.100974 -0.0435231 0.00434473
outer loop
vertex 0.185485 0.33823 -0.922603
vertex 0 0 0
vertex 0.145674 0.242211 -0.959225
end loop
end factet
facet normal 0.0726803 -0.060285 -0.00418469
outer loop
vertex 0.145674 0.242211 -0.959225
vertex 0 0 0
vertex 0.0861811 0.172019 -0.981317
end loop
end factet
facet normal 0.0739526 -0.0346794 0.000415571
outer loop
vertex 0.0861811 0.172019 -0.981317
vertex 0 0 0
vertex 0.0519331 0.0988374 -0.993747
end loop
end factet
facet normal 0.0490465 0.00590008 0.00314998
outer loop
vertex 0.0519331 0.0988374 -0.993747
vertex 0 0 0
vertex 0.058044 0.0498128 -0.99707
end loop
end factet
facet normal 0.00266827 -0.00309288 8.14442e-07
outer loop
vertex 0.058044 0.0498128 -0.99707
vertex 0 0 0
vertex 0.0549597 0.0471518 -0.997374
end loop
end factet
facet normal 0.00386535 -0.00253552 9.31285e-05
outer loop
vertex 0.0549597 0.0471518 -0.997374
vertex 0 0 0
vertex 0.0524347 0.043291 -0.997685
end loop
end factet
facet normal 0.0050028 -0.00400431 8.91755e-05
outer loop
vertex 0.0524347 0.043291 -0.997685
vertex 0 0 0
vertex 0.0484424 0.0382942 -0.998091
end loop
end factet
facet normal 0.00151124 -0.0023493 -1.67886e-05
outer loop
vertex 0.0484424 0.0382942 -0.998091
vertex 0 0 0
vertex 0.0460967 0.0367865 -0.998259
end loop
end factet
facet normal 0.0204326 -0.0102355 0.000566333
outer loop
vertex 0.0460967 0.0367865 -0.998259
vertex 0 0 0
vertex 0.0358879 0.0163538 -0.999222
end loop
end factet
facet normal 0.0165979 -0.0117386 0.000404007
outer loop
vertex 0.0358879 0.0163538 -0.999222
vertex 0 0 0
vertex 0.0241576 -0.000249076 -0.999708
end loop
end factet
facet normal 0.00496575 -0.00235359 0.000120582
outer loop
vertex 0.0241576 -0.000249076 -0.999708
vertex 0 0 0
vertex 0.0218043 -0.00521629 -0.999749
end loop
end factet
facet normal 0.00646907 -0.00859532 0.000185936
outer loop
vertex 0.0218043 -0.00521629 -0.999749
vertex 0 0 0
vertex 0.0132089 -0.0116875 -0.999844
end loop
end factet
facet normal 0.0082039 -0.00250186 0.000137626
outer loop
vertex 0.0132089 -0.0116875 -0.999844
vertex 0 0 0
vertex 0.0107053 -0.0198915 -0.999745
end loop
end factet
facet normal 0.00877027 -7.28006e-05 9.53611e-05
outer loop
vertex 0.0107053 -0.0198915 -0.999745
vertex 0 0 0
vertex 0.0106302 -0.0286598 -0.999533
end loop
end factet
facet normal 0.00821947 -0.0029404 0.000171726
outer loop
vertex 0.0106302 -0.0286598 -0.999533
vertex 0 0 0
vertex 0.00768589 -0.0368761 -0.99929
end loop
end factet
facet normal 0.0219222 -0.0104496 0.000554226
outer loop
vertex 0.00768589 -0.0368761 -0.99929
vertex 0 0 0
vertex -0.00277899 -0.0587761 -0.998267
end loop
end factet
facet normal 0.0284417 0.000128669 -8.67521e-05
outer loop
vertex -0.00277899 -0.0587761 -0.998267
vertex 0 0 0
vertex -0.00264432 -0.087145 -0.996192
end loop
end factet
facet normal 0.016856 0.0104577 -0.000959565
outer loop
vertex -0.00264432 -0.087145 -0.996192
vertex 0 0 0
vertex 0.00785773 -0.103922 -0.994554
end loop
end factet
facet normal 0.0175061 -0.000886736 0.000230967
outer loop
vertex 0.00785773 -0.103922 -0.994554
vertex 0 0 0
vertex 0.00695061 -0.121319 -0.992589
end loop
end factet
facet normal 0.0089929 -0.00505002 0.000680209
outer loop
vertex 0.00695061 -0.121319 -0.992589
vertex 0 0 0
vertex 0.00185512 -0.130243 -0.99148
end loop
end factet
facet normal -0.00180317 -0.021613 0.00283576
outer loop
vertex 0.00185512 -0.130243 -0.99148
vertex 0 0 0
vertex -0.0199435 -0.12843 -0.991518
end loop
end factet
facet normal -0.0028474 -0.0358509 0.00470097
outer loop
vertex -0.0199435 -0.12843 -0.991518
vertex 0 0 0
vertex -0.0560809 -0.125428 -0.990516
end loop
end factet
facet normal 0.0124831 -0.0309419 0.00321137
outer loop
vertex -0.0560809 -0.125428 -0.990516
vertex 0 0 0
vertex -0.0871007 -0.137542 -0.986659
end loop
end factet
facet normal 0.0368224 -0.0522726 0.00403628
outer loop
vertex -0.0871007 -0.137542 -0.986659
vertex 0 0 0
vertex -0.139052 -0.173239 -0.975014
end loop
end factet
facet normal 0.0108203 -0.00781421 -0.00015473
outer loop
vertex -0.139052 -0.173239 -0.975014
vertex 0 0 0
vertex -0.146632 -0.183795 -0.971966
end loop
end factet
facet normal 0.00700402 -0.0105589 0.000940012
outer loop
vertex -0.146632 -0.183795 -0.971966
vertex 0 0 0
vertex -0.157056 -0.19045 -0.969052
end loop
end factet
facet normal 0.0112471 -0.00611837 -0.00062038
outer loop
vertex -0.157056 -0.19045 -0.969052
vertex 0 0 0
vertex -0.162854 -0.201431 -0.96587
end loop
end factet
facet normal 0.0119975 -0.00561023 -0.000852872
outer loop
vertex -0.162854 -0.201431 -0.96587
vertex 0 0 0
vertex -0.168086 -0.21314 -0.962454
end loop
end factet
facet normal 0.004317 -0.0253152 0.00485225
outer loop
vertex -0.168086 -0.21314 -0.962454
vertex 0 0 0
vertex -0.193428 -0.216407 -0.95695
end loop
end factet
facet normal 0.014257 -0.0221275 0.0021222
outer loop
vertex -0.193428 -0.216407 -0.95695
vertex 0 0 0
vertex -0.214994 -0.229564 -0.949251
end loop
end factet
facet normal 0.0527558 -0.0457263 -0.000890277
outer loop
vertex -0.214994 -0.229564 -0.949251
vertex 0 0 0
vertex -0.257671 -0.279274 -0.924993
end loop
end factet
facet normal 0.0371559 -0.0484608 0.00428092
outer loop
vertex -0.257671 -0.279274 -0.924993
vertex 0 0 0
vertex -0.303209 -0.312016 -0.900394
end loop
end factet
facet normal 0.0308518 -0.0728925 0.0148703
outer loop
vertex -0.303209 -0.312016 -0.900394
vertex 0 0 0
vertex -0.372496 -0.334272 -0.865742
end loop
end factet
facet normal 0.0110985 -0.0768804 0.0249091
outer loop
vertex -0.372496 -0.334272 -0.865742
vertex 0 0 0
vertex -0.44614 -0.333488 -0.830509
end loop
end factet
facet normal -0.00011611 -0.0535535 0.0215666
outer loop
vertex -0.44614 -0.333488 -0.830509
vertex 0 0 0
vertex -0.497064 -0.323214 -0.80527
end loop
end factet
facet normal -0.00271198 -0.0312231 0.0142061
outer loop
vertex -0.497064 -0.323214 -0.80527
vertex 0 0 0
vertex -0.526505 -0.313777 -0.79015
end loop
end factet
facet normal 0.0269155 -0.0277463 -0.0069164
outer loop
vertex -0.526505 -0.313777 -0.79015
vertex 0 0 0
vertex -0.545852 -0.338444 -0.766486
end loop
end factet
facet normal 0.0267999 -0.0883591 0.0199297
outer loop
vertex -0.545852 -0.338444 -0.766486
vertex 0 0 0
vertex -0.617882 -0.346594 -0.705758
end loop
end factet
facet normal 0.00101568 -0.0983262 0.0473983
outer loop
vertex -0.617882 -0.346594 -0.705758
vertex 0 0 0
vertex -0.700013 -0.315953 -0.640434
end loop
end factet
facet normal 0.0411809 -0.128623 0.0184433
outer loop
vertex -0.700013 -0.315953 -0.640434
vertex 0 0 0
vertex -0.781681 -0.326467 -0.531408
end loop
end factet
facet normal 0.00891837 -0.0245996 0.00199401
outer loop
vertex -0.781681 -0.326467 -0.531408
vertex 0 0 0
vertex -0.795135 -0.329535 -0.509084
end loop
end factet
facet normal 0.00211126 -0.0484949 0.0280937
outer loop
vertex -0.795135 -0.329535 -0.509084
vertex 0 0 0
vertex -0.827829 -0.307753 -0.469027
end loop
end factet
facet normal 0.00412907 -0.0395719 0.0186774
outer loop
vertex -0.827829 -0.307753 -0.469027
vertex 0 0 0
vertex -0.851338 -0.29393 -0.434544
end loop
end factet
facet normal -0.00188618 -0.0143125 0.0133765
outer loop
vertex -0.851338 -0.29393 -0.434544
vertex 0 0 0
vertex -0.861324 -0.281666 -0.42283
end loop
end factet
facet normal 0.000417225 -0.00375533 0.00165169
outer loop
vertex -0.861324 -0.281666 -0.42283
vertex 0 0 0
vertex -0.86337 -0.280417 -0.419474
end loop
end factet
facet normal -0.00170139 -0.00409445 0.00623897
outer loop
vertex -0.86337 -0.280417 -0.419474
vertex 0 0 0
vertex -0.866812 -0.274309 -0.416404
end loop
end factet
facet normal -0.000164732 -0.016968 0.0115207
outer loop
vertex -0.866812 -0.274309 -0.416404
vertex 0 0 0
vertex -0.876855 -0.264196 -0.401653
end loop
end factet
facet normal -0.000472985 -0.00571406 0.00479113
outer loop
vertex -0.876855 -0.264196 -0.401653
vertex 0 0 0
vertex -0.880391 -0.259798 -0.396757
end loop
end factet
facet normal -0.000436299 -0.0285974 0.0196938
outer loop
vertex -0.880391 -0.259798 -0.396757
vertex 0 0 0
vertex -0.896323 -0.24213 -0.371454
end loop
end factet
facet normal -0.0110087 -0.0213577 0.0404862
outer loop
vertex -0.896323 -0.24213 -0.371454
vertex 0 0 0
vertex -0.913066 -0.201483 -0.354564
end loop
end factet
facet normal -0.011375 -0.00593403 0.0326648
outer loop
vertex -0.913066 -0.201483 -0.354564
vertex 0 0 0
vertex -0.921188 -0.167501 -0.351219
end loop
end factet
facet normal -0.00749988 -0.0103947 0.0246283
outer loop
vertex -0.921188 -0.167501 -0.351219
vertex 0 0 0
vertex -0.92861 -0.142115 -0.342765
end loop
end factet
facet normal 0.0120899 -0.00767791 -0.0295703
outer loop
vertex -0.92861 -0.142115 -0.342765
vertex 0 0 0
vertex -0.926538 -0.173642 -0.333732
end loop
end factet
facet normal 0.00677582 -0.00303259 -0.0172338
outer loop
vertex -0.926538 -0.173642 -0.333732
vertex 0 0 0
vertex -0.924394 -0.19184 -0.329687
end loop
end factet
facet normal 0.0143318 -0.0452943 -0.0138282
outer loop
vertex -0.924394 -0.19184 -0.329687
vertex 0 0 0
vertex -0.935542 -0.209113 -0.284664
end loop
end factet
facet normal 0.0356037 -0.0571702 -0.0750141
outer loop
vertex -0.935542 -0.209113 -0.284664
vertex 0 0 0
vertex -0.931364 -0.288361 -0.222283
end loop
end factet
facet normal 0.00894966 -0.0164828 -0.0161163
outer loop
vertex -0.931364 -0.288361 -0.222283
vertex 0 0 0
vertex -0.930095 -0.305273 -0.204283
end loop
end factet
facet normal 0.0142959 -0.0289739 -0.0217912
outer loop
vertex -0.930095 -0.305273 -0.204283
vertex 0 0 0
vertex -0.928655 -0.328229 -0.172815
end loop
end factet
facet normal 0.0149988 -0.0302059 -0.0232289
outer loop
vertex -0.928655 -0.328229 -0.172815
vertex 0 0 0
vertex -0.925472 -0.352117 -0.139696
end loop
end factet
facet normal 0.0310452 -0.0838404 0.00565648
outer loop
vertex -0.925472 -0.352117 -0.139696
vertex 0 0 0
vertex -0.935455 -0.349804 -0.0506111
end loop
end factet
facet normal 0.0337747 -0.0886585 -0.0114919
outer loop
vertex -0.935455 -0.349804 -0.0506111
vertex 0 0 0
vertex -0.931641 -0.360662 0.0443711
end loop
end factet
facet normal 0.02806 -0.0799868 -0.0609947
outer loop
vertex -0.931641 -0.360662 0.0443711
vertex 0 0 0
vertex -0.900999 -0.41427 0.128768
end loop
end factet
facet normal 0.0458489 -0.101452 -0.00558183
outer loop
vertex -0.900999 -0.41427 0.128768
vertex 0 0 0
vertex -0.880008 -0.410814 0.238367
end loop
end factet
facet normal 0.0394456 -0.066514 0.0309923
outer loop
vertex -0.880008 -0.410814 0.238367
vertex 0 0 0
vertex -0.873826 -0.37271 0.312276
end loop
end factet
facet normal 0.0400959 -0.109287 -0.0182389
outer loop
vertex -0.873826 -0.37271 0.312276
vertex 0 0 0
vertex -0.826813 -0.37353 0.420543
end loop
end factet
facet normal 0.0085512 -0.0424372 -0.0208809
outer loop
vertex -0.826813 -0.37353 0.420543
vertex 0 0 0
vertex -0.800211 -0.386766 0.458339
end loop
end factet
facet normal 0.0188845 -0.0478598 -0.00741592
outer loop
vertex -0.800211 -0.386766 0.458339
vertex 0 0 0
vertex -0.774325 -0.383522 0.503321
end loop
end factet
facet normal 0.00832288 -0.0179869 -0.00090158
outer loop
vertex -0.774325 -0.383522 0.503321
vertex 0 0 0
vertex -0.764773 -0.379956 0.520342
end loop
end factet
facet normal 0.0110674 -0.014773 0.00547898
outer loop
vertex -0.764773 -0.379956 0.520342
vertex 0 0 0
vertex -0.759026 -0.369936 0.535748
end loop
end factet
facet normal 0.00683969 -0.0136784 0.000245154
outer loop
vertex -0.759026 -0.369936 0.535748
vertex 0 0 0
vertex -0.7517 -0.366043 0.548598
end loop
end factet
facet normal 0.028987 -0.0253846 0.0227811
outer loop
vertex -0.7517 -0.366043 0.548598
vertex 0 0 0
vertex -0.74536 -0.332649 0.57774
end loop
end factet
facet normal 0.0114095 -0.00461575 0.0120621
outer loop
vertex -0.74536 -0.332649 0.57774
vertex 0 0 0
vertex -0.746595 -0.317017 0.58489
end loop
end factet
facet normal 0.00531833 -0.0156907 -0.00171587
outer loop
vertex -0.746595 -0.317017 0.58489
vertex 0 0 0
vertex -0.73677 -0.315144 0.59821
end loop
end factet
facet normal 0.0139125 -0.0274856 0.00265521
outer loop
vertex -0.73677 -0.315144 0.59821
vertex 0 0 0
vertex -0.720812 -0.304714 0.622559
end loop
end factet
facet normal 0.0117323 -0.0354272 -0.00375602
outer loop
vertex -0.720812 -0.304714 0.622559
vertex 0 0 0
vertex -0.697105 -0.299903 0.651232
end loop
end factet
facet normal 0.0127833 -0.0172898 0.00572155
outer loop
vertex -0.697105 -0.299903 0.651232
vertex 0 0 0
vertex -0.687388 -0.287516 0.666957
end loop
end factet
facet normal 0.00232218 -0.00127518 0.0018436
outer loop
vertex -0.687388 -0.287516 0.666957
vertex 0 0 0
vertex -0.687064 -0.284698 0.668498
end loop
end factet
facet normal 0.00361152 0.00118062 0.00421463
outer loop
vertex -0.687064 -0.284698 0.668498
vertex 0 0 0
vertex -0.689043 -0.279383 0.668704
end loop
end factet
facet normal 0.00184588 -0.000113726 0.00185452
outer loop
vertex -0.689043 -0.279383 0.668704
vertex 0 0 0
vertex -0.689482 -0.27687 0.669296
end loop
end factet
facet normal 0.00080359 0.00061816 0.00108355
outer loop
vertex -0.689482 -0.27687 0.669296
vertex 0 0 0
vertex -0.690195 -0.275585 0.669092
end loop
end factet
facet normal 0.0049011 -0.000982493 0.00465102
outer loop
vertex -0.690195 -0.275585 0.669092
vertex 0 0 0
vertex -0.690803 -0.269089 0.671105
end loop
end factet
facet normal 0.0066909 -0.00224042 0.00598899
outer loop
vertex -0.690803 -0.269089 0.671105
vertex 0 0 0
vertex -0.690882 -0.26045 0.674424
end loop
end factet
facet normal 0.00610228 -0.00752461 0.00334533
outer loop
vertex -0.690882 -0.26045 0.674424
vertex 0 0 0
vertex -0.686642 -0.25401 0.681177
end loop
end factet
facet normal 0.0109018 -0.00516298 0.00906405
outer loop
vertex -0.686642 -0.25401 0.681177
vertex 0 0 0
vertex -0.685349 -0.240331 0.687413
end loop
end factet
facet normal 0.0186169 -0.0269044 0.00915477
outer loop
vertex -0.685349 -0.240331 0.687413
vertex 0 0 0
vertex -0.66866 -0.22112 0.70993
end loop
end factet
facet normal 0.00822285 -0.00853232 0.0050873
outer loop
vertex -0.66866 -0.22112 0.70993
vertex 0 0 0
vertex -0.663671 -0.211863 0.717394
end loop
end factet
facet normal 0.0221201 -0.00212693 0.0198355
outer loop
vertex -0.663671 -0.211863 0.717394
vertex 0 0 0
vertex -0.666053 -0.182736 0.723174
end loop
end factet
facet normal 0.0295246 -0.0259646 0.0206317
outer loop
vertex -0.666053 -0.182736 0.723174
vertex 0 0 0
vertex -0.65039 -0.147462 0.74515
end loop
end factet
facet normal 0.00731941 -0.00690946 0.00502125
outer loop
vertex -0.65039 -0.147462 0.74515
vertex 0 0 0
vertex -0.645941 -0.138733 0.750676
end loop
end factet
facet normal 0.00683766 -0.0024052 0.00543915
outer loop
vertex -0.645941 -0.138733 0.750676
vertex 0 0 0
vertex -0.644863 -0.130081 0.753147
end loop
end factet
facet normal 0.0196784 -0.00446174 0.0160785
outer loop
vertex -0.644863 -0.130081 0.753147
vertex 0 0 0
vertex -0.64338 -0.104849 0.758333
end loop
end factet
facet normal 0.0141593 -0.00371307 0.0114996
outer loop
vertex -0.64338 -0.104849 0.758333
vertex 0 0 0
vertex -0.641658 -0.0866944 0.762075
end loop
end factet
facet normal 0.00201407 -0.00241908 0.00142063
outer loop
vertex -0.641658 -0.0866944 0.762075
vertex 0 0 0
vertex -0.639934 -0.0842474 0.763798
end loop
end factet
facet normal 0.00113264 -0.000253797 0.000920977
outer loop
vertex -0.639934 -0.0842474 0.763798
vertex 0 0 0
vertex -0.639817 -0.0827928 0.764055
end loop
end factet
facet normal 0.00549923 0.00132349 0.00474846
outer loop
vertex -0.639817 -0.0827928 0.764055
vertex 0 0 0
vertex -0.641204 -0.0755507 0.763642
end loop
end factet
facet normal 0.00233368 -0.000478476 0.00191218
outer loop
vertex -0.641204 -0.0755507 0.763642
vertex 0 0 0
vertex -0.64098 -0.0725422 0.764122
end loop
end factet
facet normal 0.00970954 0.0102555 0.0091184
outer loop
vertex -0.64098 -0.0725422 0.764122
vertex 0 0 0
vertex -0.649387 -0.0592679 0.758145
end loop
end factet
facet normal 0.010661 0.0093742 0.00986447
outer loop
vertex -0.649387 -0.0592679 0.758145
vertex 0 0 0
vertex -0.656982 -0.0447707 0.752576
end loop
end factet
facet normal 0.00621339 -0.00200659 0.00530479
outer loop
vertex -0.656982 -0.0447707 0.752576
vertex 0 0 0
vertex -0.655686 -0.0366079 0.754146
end loop
end factet
facet normal 0.00372286 0.00063163 0.00326747
outer loop
vertex -0.655686 -0.0366079 0.754146
vertex 0 0 0
vertex -0.656274 -0.0316574 0.753858
end loop
end factet
facet normal 0.0220627 -0.0160828 0.0185314
outer loop
vertex -0.656274 -0.0316574 0.753858
vertex 0 0 0
vertex -0.644379 -0.00284635 0.764701
end loop
end factet
facet normal 0.0230385 -0.0635324 0.019177
outer loop
vertex -0.644379 -0.00284635 0.764701
vertex 0 0 0
vertex -0.594258 0.0271356 0.803816
end loop
end factet
facet normal 0.0719362 -0.138699 0.0578644
outer loop
vertex -0.594258 0.0271356 0.803816
vertex 0 0 0
vertex -0.472893 0.118966 0.873051
end loop
end factet
facet normal 0.0819005 -0.0539666 0.0517156
outer loop
vertex -0.472893 0.118966 0.873051
vertex 0 0 0
vertex -0.416709 0.214192 0.883445
end loop
end factet
facet normal 0.0247202 -0.0309625 0.0191671
outer loop
vertex -0.416709 0.214192 0.883445
vertex 0 0 0
vertex -0.384846 0.24381 0.890196
end loop
end factet
facet normal 0.0106477 -0.0404824 0.0156907
outer loop
vertex -0.384846 0.24381 0.890196
vertex 0 0 0
vertex -0.344599 0.259084 0.90229
end loop
end factet
facet normal 0.0226635 -0.00461307 0.00998014
outer loop
vertex -0.344599 0.259084 0.90229
vertex 0 0 0
vertex -0.337741 0.28289 0.897722
end loop
end factet
facet normal 0.0023233 -0.00241584 0.00163536
outer loop
vertex -0.337741 0.28289 0.897722
vertex 0 0 0
vertex -0.335108 0.285526 0.897874
end loop
end factet
facet normal 0.00301784 -0.00383154 0.00234476
outer loop
vertex -0.335108 0.285526 0.897874
vertex 0 0 0
vertex -0.330993 0.289017 0.898283
end loop
end factet
facet normal 0.00360453 0.000696808 0.00110397
outer loop
vertex -0.330993 0.289017 0.898283
vertex 0 0 0
vertex -0.331298 0.292618 0.897004
end loop
end factet
facet normal 0.00520352 -0.00282365 0.00284299
outer loop
vertex -0.331298 0.292618 0.897004
vertex 0 0 0
vertex -0.327926 0.298221 0.896398
end loop
end factet
facet normal 0.00196123 0.00146005 0.000231728
outer loop
vertex -0.327926 0.298221 0.896398
vertex 0 0 0
vertex -0.329164 0.300054 0.895331
end loop
end factet
facet normal 0.000494242 0.000995517 -0.000151917
outer loop
vertex -0.329164 0.300054 0.895331
vertex 0 0 0
vertex -0.330101 0.300447 0.894855
end loop
end factet
facet normal 0.000322133 0.000169575 6.19069e-05
outer loop
vertex -0.330101 0.300447 0.894855
vertex 0 0 0
vertex -0.330234 0.300755 0.894702
end loop
end factet
facet normal 0.000820905 0.000486225 0.000139557
outer loop
vertex -0.330234 0.300755 0.894702
vertex 0 0 0
vertex -0.330627 0.301536 0.894294
end loop
end factet
facet normal 0.00246868 0.00061208 0.000706315
outer loop
vertex -0.330627 0.301536 0.894294
vertex 0 0 0
vertex -0.33096 0.303976 0.893344
end loop
end factet
facet normal 0.00166327 -0.000166982 0.000673011
outer loop
vertex -0.33096 0.303976 0.893344
vertex 0 0 0
vertex -0.330606 0.305684 0.892893
end loop
end factet
facet normal 0.00217733 0.00036028 0.000682846
outer loop
vertex -0.330606 0.305684 0.892893
vertex 0 0 0
vertex -0.330718 0.307853 0.892105
end loop
end factet
facet normal 0.00252667 0.00208446 0.000217356
outer loop
vertex -0.330718 0.307853 0.892105
vertex 0 0 0
vertex -0.332509 0.310177 0.890633
end loop
end factet
facet normal 0.00777939 0.000354141 0.00278103
outer loop
vertex -0.332509 0.310177 0.890633
vertex 0 0 0
vertex -0.33195 0.31802 0.888072
end loop
end factet
facet normal 0.00445431 0.00252372 0.000761226
outer loop
vertex -0.33195 0.31802 0.888072
vertex 0 0 0
vertex -0.333945 0.322224 0.885806
end loop
end factet
facet normal 0.00535968 -0.0005247 0.00221144
outer loop
vertex -0.333945 0.322224 0.885806
vertex 0 0 0
vertex -0.332762 0.327705 0.884239
end loop
end factet
facet normal 0.00461692 -0.00237411 0.00261733
outer loop
vertex -0.332762 0.327705 0.884239
vertex 0 0 0
vertex -0.329799 0.332653 0.883501
end loop
end factet
facet normal 0.00491935 -0.0094524 0.00539532
outer loop
vertex -0.329799 0.332653 0.883501
vertex 0 0 0
vertex -0.31963 0.338755 0.884919
end loop
end factet
facet normal 0.0051603 -0.00249016 0.00281715
outer loop
vertex -0.31963 0.338755 0.884919
vertex 0 0 0
vertex -0.316466 0.344215 0.883949
end loop
end factet
facet normal 0.00313529 -0.00102741 0.00152255
outer loop
vertex -0.316466 0.344215 0.883949
vertex 0 0 0
vertex -0.315031 0.347466 0.883189
end loop
end factet
facet normal 0.00411403 0.000526965 0.00126015
outer loop
vertex -0.315031 0.347466 0.883189
vertex 0 0 0
vertex -0.315056 0.351493 0.881585
end loop
end factet
facet normal 0.00508839 -0.000537157 0.00203262
outer loop
vertex -0.315056 0.351493 0.881585
vertex 0 0 0
vertex -0.313863 0.356614 0.879953
end loop
end factet
facet normal 0.00484151 0.00251973 0.000705712
outer loop
vertex -0.313863 0.356614 0.879953
vertex 0 0 0
vertex -0.315824 0.36109 0.877422
end loop
end factet
facet normal 0.00659019 0.00241476 0.00137835
outer loop
vertex -0.315824 0.36109 0.877422
vertex 0 0 0
vertex -0.317437 0.367299 0.874257
end loop
end factet
facet normal 0.0060617 0.00205144 0.00133911
outer loop
vertex -0.317437 0.367299 0.874257
vertex 0 0 0
vertex -0.318732 0.373016 0.871361
end loop
end factet
facet normal 0.00327694 0.000869304 0.000826515
outer loop
vertex -0.318732 0.373016 0.871361
vertex 0 0 0
vertex -0.319179 0.376132 0.869856
end loop
end factet
facet normal 0.00494102 0.00102156 0.00137129
outer loop
vertex -0.319179 0.376132 0.869856
vertex 0 0 0
vertex -0.319547 0.380863 0.86766
end loop
end factet
facet normal 0.00546852 0.0025683 0.000886612
outer loop
vertex -0.319547 0.380863 0.86766
vertex 0 0 0
vertex -0.321432 0.385884 0.86474
end loop
end factet
facet normal 0.00488171 0.00137421 0.00120135
outer loop
vertex -0.321432 0.385884 0.86474
vertex 0 0 0
vertex -0.322152 0.390486 0.862403
end loop
end factet
facet normal 0.00715616 -0.00159204 0.00339407
outer loop
vertex -0.322152 0.390486 0.862403
vertex 0 0 0
vertex -0.319444 0.397738 0.860093
end loop
end factet
facet normal 0.00493079 -0.00114423 0.00236046
outer loop
vertex -0.319444 0.397738 0.860093
vertex 0 0 0
vertex -0.317516 0.402727 0.858484
end loop
end factet
facet normal 0.00430965 -0.000306606 0.00173779
outer loop
vertex -0.317516 0.402727 0.858484
vertex 0 0 0
vertex -0.316549 0.406974 0.856836
end loop
end factet
facet normal 0.00794655 0.00250477 0.00174607
outer loop
vertex -0.316549 0.406974 0.856836
vertex 0 0 0
vertex -0.317973 0.414321 0.852779
end loop
end factet
facet normal 0.0132746 -0.000786543 0.00533181
outer loop
vertex -0.317973 0.414321 0.852779
vertex 0 0 0
vertex -0.315061 0.427294 0.847441
end loop
end factet
facet normal 0.00555712 -0.00136828 0.00275594
outer loop
vertex -0.315061 0.427294 0.847441
vertex 0 0 0
vertex -0.312717 0.432863 0.845481
end loop
end factet
facet normal 0.00639606 -0.00241083 0.00359999
outer loop
vertex -0.312717 0.432863 0.845481
vertex 0 0 0
vertex -0.309111 0.439384 0.843441
end loop
end factet
facet normal 0.0101691 -0.00896734 0.00839835
outer loop
vertex -0.309111 0.439384 0.843441
vertex 0 0 0
vertex -0.297818 0.450501 0.841637
end loop
end factet
facet normal 0.00393933 -0.0166739 0.010319
outer loop
vertex -0.297818 0.450501 0.841637
vertex 0 0 0
vertex -0.279077 0.456799 0.84466
end loop
end factet
facet normal -0.00804996 -0.0176761 0.00689964
outer loop
vertex -0.279077 0.456799 0.84466
vertex 0 0 0
vertex -0.260936 0.451828 0.853091
end loop
end factet
facet normal -0.221487 -0.12507 -0.00150457
outer loop
vertex -0.260936 0.451828 0.853091
vertex 0 0 0
vertex -0.358369 0.626308 0.692322
end loop
end factet
solid fragmentGeometry
