solid fragmentGeometry
facet normal -0.0364637 -0.00536633 0.0155262
outer loop
vertex 0.666719 1.8781 3.46817
vertex -0.229243 0.441542 0.867461
vertex -0.224984 0.431042 0.873834
end loop
end factet
facet normal -0.100317 0.00373173 0.0323988
outer loop
vertex 0.666719 1.8781 3.46817
vertex -0.224984 0.431042 0.873834
vertex -0.221197 0.400854 0.889038
end loop
end factet
facet normal -0.0857589 0.0017395 0.0285279
outer loop
vertex 0.666719 1.8781 3.46817
vertex -0.221197 0.400854 0.889038
vertex -0.217659 0.374611 0.901272
end loop
end factet
facet normal 0.27065 0.0684757 -0.133355
outer loop
vertex 0.666719 1.8781 3.46817
vertex -0.217659 0.374611 0.901272
vertex -0.260936 0.451828 0.853091
end loop
end factet
facet normal 0.0250242 0.0396199 -0.0304856
outer loop
vertex 0.666719 1.8781 3.46817
vertex -0.260936 0.451828 0.853091
vertex -0.279077 0.456799 0.84466
end loop
end factet
facet normal -0.0122283 0.0463102 -0.0206803
outer loop
vertex 0.666719 1.8781 3.46817
vertex -0.279077 0.456799 0.84466
vertex -0.297818 0.450501 0.841637
end loop
end factet
facet normal -0.0317748 0.0314009 -0.00539875
outer loop
vertex 0.666719 1.8781 3.46817
vertex -0.297818 0.450501 0.841637
vertex -0.309111 0.439384 0.843441
end loop
end factet
facet normal -0.0200496 0.0114553 0.00117517
outer loop
vertex 0.666719 1.8781 3.46817
vertex -0.309111 0.439384 0.843441
vertex -0.312717 0.432863 0.845481
end loop
end factet
facet normal -0.0174391 0.00806642 0.00206757
outer loop
vertex 0.666719 1.8781 3.46817
vertex -0.312717 0.432863 0.845481
vertex -0.315061 0.427294 0.847441
end loop
end factet
facet normal -0.0417426 0.0128732 0.0085113
outer loop
vertex 0.666719 1.8781 3.46817
vertex -0.315061 0.427294 0.847441
vertex -0.317973 0.414321 0.852779
end loop
end factet
facet normal -0.0251548 0.000271082 0.00931895
outer loop
vertex 0.666719 1.8781 3.46817
vertex -0.317973 0.414321 0.852779
vertex -0.316549 0.406974 0.856836
end loop
end factet
facet normal -0.0135143 0.00414371 0.00275421
outer loop
vertex 0.666719 1.8781 3.46817
vertex -0.316549 0.406974 0.856836
vertex -0.317516 0.402727 0.858484
end loop
end factet
facet normal -0.0153933 0.0066154 0.00206554
outer loop
vertex 0.666719 1.8781 3.46817
vertex -0.317516 0.402727 0.858484
vertex -0.319444 0.397738 0.860093
end loop
end factet
facet normal -0.0223334 0.00934267 0.00314176
outer loop
vertex 0.666719 1.8781 3.46817
vertex -0.319444 0.397738 0.860093
vertex -0.322152 0.390486 0.862403
end loop
end factet
facet normal -0.0154693 0.000433683 0.00562286
outer loop
vertex 0.666719 1.8781 3.46817
vertex -0.322152 0.390486 0.862403
vertex -0.321432 0.385884 0.86474
end loop
end factet
facet normal -0.0174286 -0.00202203 0.007774
outer loop
vertex 0.666719 1.8781 3.46817
vertex -0.321432 0.385884 0.86474
vertex -0.319547 0.380863 0.86766
end loop
end factet
facet normal -0.0155907 0.00120831 0.00521719
outer loop
vertex 0.666719 1.8781 3.46817
vertex -0.319547 0.380863 0.86766
vertex -0.319179 0.376132 0.869856
end loop
end factet
facet normal -0.0103576 0.000321388 0.00374424
outer loop
vertex 0.666719 1.8781 3.46817
vertex -0.319179 0.376132 0.869856
vertex -0.318732 0.373016 0.871361
end loop
end factet
facet normal -0.0192041 -0.000508308 0.00758243
outer loop
vertex 0.666719 1.8781 3.46817
vertex -0.318732 0.373016 0.871361
vertex -0.317437 0.367299 0.874257
end loop
end factet
facet normal -0.0208857 -0.00106931 0.00854707
outer loop
vertex 0.666719 1.8781 3.46817
vertex -0.317437 0.367299 0.874257
vertex -0.315824 0.36109 0.877422
end loop
end factet
facet normal -0.0154364 -0.00259328 0.00737262
outer loop
vertex 0.666719 1.8781 3.46817
vertex -0.315824 0.36109 0.877422
vertex -0.313863 0.356614 0.879953
end loop
end factet
facet normal -0.0157385 0.00468802 0.00320685
outer loop
vertex 0.666719 1.8781 3.46817
vertex -0.313863 0.356614 0.879953
vertex -0.315056 0.351493 0.881585
end loop
end factet
facet normal -0.0128651 0.0015111 0.00399113
outer loop
vertex 0.666719 1.8781 3.46817
vertex -0.315056 0.351493 0.881585
vertex -0.315031 0.347466 0.883189
end loop
end factet
facet normal -0.00956678 0.00445366 0.000996113
outer loop
vertex 0.666719 1.8781 3.46817
vertex -0.315031 0.347466 0.883189
vertex -0.316466 0.344215 0.883949
end loop
end factet
facet normal -0.0155978 0.00913143 0.000514388
outer loop
vertex 0.666719 1.8781 3.46817
vertex -0.316466 0.344215 0.883949
vertex -0.31963 0.338755 0.884919
end loop
end factet
facet normal -0.0135803 0.0248721 -0.00963569
outer loop
vertex 0.666719 1.8781 3.46817
vertex -0.31963 0.338755 0.884919
vertex -0.329799 0.332653 0.883501
end loop
end factet
facet normal -0.0139291 0.00839281 0.000352025
outer loop
vertex 0.666719 1.8781 3.46817
vertex -0.329799 0.332653 0.883501
vertex -0.332762 0.327705 0.884239
end loop
end factet
facet normal -0.0165911 0.0046227 0.00364375
outer loop
vertex 0.666719 1.8781 3.46817
vertex -0.332762 0.327705 0.884239
vertex -0.333945 0.322224 0.885806
end loop
end factet
facet normal -0.0143824 -0.00288343 0.00731039
outer loop
vertex 0.666719 1.8781 3.46817
vertex -0.333945 0.322224 0.885806
vertex -0.33195 0.31802 0.888072
end loop
end factet
facet normal -0.0242305 0.00399876 0.00696099
outer loop
vertex 0.666719 1.8781 3.46817
vertex -0.33195 0.31802 0.888072
vertex -0.332509 0.310177 0.890633
end loop
end factet
facet normal -0.00829935 -0.00314498 0.00513041
outer loop
vertex 0.666719 1.8781 3.46817
vertex -0.332509 0.310177 0.890633
vertex -0.330718 0.307853 0.892105
end loop
end factet
facet normal -0.00682354 0.000496387 0.00233948
outer loop
vertex 0.666719 1.8781 3.46817
vertex -0.330718 0.307853 0.892105
vertex -0.330606 0.305684 0.892893
end loop
end factet
facet normal -0.00510883 0.00136304 0.00114644
outer loop
vertex 0.666719 1.8781 3.46817
vertex -0.330606 0.305684 0.892893
vertex -0.33096 0.303976 0.893344
end loop
end factet
facet normal -0.00777864 8.96454e-05 0.00295901
outer loop
vertex 0.666719 1.8781 3.46817
vertex -0.33096 0.303976 0.893344
vertex -0.330627 0.301536 0.894294
end loop
end factet
facet normal -0.00265169 -0.000604868 0.00139785
outer loop
vertex 0.666719 1.8781 3.46817
vertex -0.330627 0.301536 0.894294
vertex -0.330234 0.300755 0.894702
end loop
end factet
facet normal -0.00103521 -0.000190258 0.000517607
outer loop
vertex 0.666719 1.8781 3.46817
vertex -0.330234 0.300755 0.894702
vertex -0.330101 0.300447 0.894855
end loop
end factet
facet normal -0.00176191 -0.00193548 0.00186908
outer loop
vertex 0.666719 1.8781 3.46817
vertex -0.330101 0.300447 0.894855
vertex -0.329164 0.300054 0.895331
end loop
end factet
facet normal -0.00639915 -0.00212479 0.00378025
outer loop
vertex 0.666719 1.8781 3.46817
vertex -0.329164 0.300054 0.895331
vertex -0.327926 0.298221 0.896398
end loop
end factet
facet normal -0.015368 0.00927496 0.000245929
outer loop
vertex 0.666719 1.8781 3.46817
vertex -0.327926 0.298221 0.896398
vertex -0.331298 0.292618 0.897004
end loop
end factet
facet normal -0.0112867 0.000493526 0.00407672
outer loop
vertex 0.666719 1.8781 3.46817
vertex -0.331298 0.292618 0.897004
vertex -0.330993 0.289017 0.898283
end loop
end factet
facet normal -0.00832176 0.0101659 -0.00305521
outer loop
vertex 0.666719 1.8781 3.46817
vertex -0.330993 0.289017 0.898283
vertex -0.335108 0.285526 0.897874
end loop
end factet
facet normal -0.00653267 0.00661659 -0.00155354
outer loop
vertex 0.666719 1.8781 3.46817
vertex -0.335108 0.285526 0.897874
vertex -0.337741 0.28289 0.897722
end loop
end factet
facet normal -0.0782151 0.0252938 0.0148671
outer loop
vertex 0.666719 1.8781 3.46817
vertex -0.337741 0.28289 0.897722
vertex -0.34556 0.255672 0.902895
end loop
end factet
facet normal -0.0487528 0.0112796 0.0121043
outer loop
vertex 0.666719 1.8781 3.46817
vertex -0.34556 0.255672 0.902895
vertex -0.348602 0.238839 0.906329
end loop
end factet
facet normal -0.0177722 0.00828409 0.00174296
outer loop
vertex 0.666719 1.8781 3.46817
vertex -0.348602 0.238839 0.906329
vertex -0.351619 0.232251 0.906876
end loop
end factet
facet normal -0.0210176 0.00438738 0.00553703
outer loop
vertex 0.666719 1.8781 3.46817
vertex -0.351619 0.232251 0.906876
vertex -0.352779 0.224939 0.908267
end loop
end factet
facet normal -0.0184975 -0.00102544 0.00802898
outer loop
vertex 0.666719 1.8781 3.46817
vertex -0.352779 0.224939 0.908267
vertex -0.351616 0.218949 0.91018
end loop
end factet
facet normal -0.0353656 0.0165973 0.0033139
outer loop
vertex 0.666719 1.8781 3.46817
vertex -0.351616 0.218949 0.91018
vertex -0.357827 0.205576 0.910878
end loop
end factet
facet normal -0.0628653 0.00107861 0.0244806
outer loop
vertex 0.666719 1.8781 3.46817
vertex -0.357827 0.205576 0.910878
vertex -0.356177 0.184375 0.916048
end loop
end factet
facet normal -0.0712657 -0.0102036 0.0353351
outer loop
vertex 0.666719 1.8781 3.46817
vertex -0.356177 0.184375 0.916048
vertex -0.349381 0.161084 0.92303
end loop
end factet
facet normal -0.0396762 0.00805545 0.0104057
outer loop
vertex 0.666719 1.8781 3.46817
vertex -0.349381 0.161084 0.92303
vertex -0.351967 0.146474 0.924481
end loop
end factet
facet normal -0.0264497 -0.0022366 0.0121151
outer loop
vertex 0.666719 1.8781 3.46817
vertex -0.351967 0.146474 0.924481
vertex -0.350277 0.137454 0.926506
end loop
end factet
facet normal -0.136207 -0.0288999 0.0742922
outer loop
vertex 0.666719 1.8781 3.46817
vertex -0.350277 0.137454 0.926506
vertex -0.334312 0.0917283 0.937988
end loop
end factet
facet normal -0.0477576 -0.0171347 0.0309922
outer loop
vertex 0.666719 1.8781 3.46817
vertex -0.334312 0.0917283 0.937988
vertex -0.325801 0.0759555 0.942382
end loop
end factet
facet normal -0.079504 0.0151408 0.0204386
outer loop
vertex 0.666719 1.8781 3.46817
vertex -0.325801 0.0759555 0.942382
vertex -0.331831 0.0444147 0.942293
end loop
end factet
facet normal -0.090354 -0.0238574 0.0530388
outer loop
vertex 0.666719 1.8781 3.46817
vertex -0.331831 0.0444147 0.942293
vertex -0.320451 0.0121961 0.947187
end loop
end factet
facet normal -0.149212 -0.0353098 0.084563
outer loop
vertex 0.666719 1.8781 3.46817
vertex -0.320451 0.0121961 0.947187
vertex -0.304791 -0.0438669 0.951408
end loop
end factet
facet normal -0.00902224 -0.0662372 0.0540656
outer loop
vertex 0.666719 1.8781 3.46817
vertex -0.304791 -0.0438669 0.951408
vertex -0.274918 -0.0404188 0.960618
end loop
end factet
facet normal -0.0228434 -0.079247 0.0692096
outer loop
vertex 0.666719 1.8781 3.46817
vertex -0.274918 -0.0404188 0.960618
vertex -0.239834 -0.0424377 0.969886
end loop
end factet
facet normal 0.0145388 -0.0533392 0.0357283
outer loop
vertex 0.666719 1.8781 3.46817
vertex -0.239834 -0.0424377 0.969886
vertex -0.216341 -0.0320791 0.975791
end loop
end factet
facet normal 0.00114727 -0.0492003 0.0373009
outer loop
vertex 0.666719 1.8781 3.46817
vertex -0.216341 -0.0320791 0.975791
vertex -0.194965 -0.0280797 0.980408
end loop
end factet
facet normal 0.00685453 -0.0156071 0.00958419
outer loop
vertex 0.666719 1.8781 3.46817
vertex -0.194965 -0.0280797 0.980408
vertex -0.188198 -0.0242334 0.981832
end loop
end factet
facet normal -0.00687599 -0.0338705 0.0282791
outer loop
vertex 0.666719 1.8781 3.46817
vertex -0.188198 -0.0242334 0.981832
vertex -0.173662 -0.0249662 0.984489
end loop
end factet
facet normal 0.0049839 -0.0135136 0.00866795
outer loop
vertex 0.666719 1.8781 3.46817
vertex -0.173662 -0.0249662 0.984489
vertex -0.167858 -0.0221366 0.985563
end loop
end factet
facet normal 0.0143628 -0.0136645 0.00563073
outer loop
vertex 0.666719 1.8781 3.46817
vertex -0.167858 -0.0221366 0.985563
vertex -0.161981 -0.0155022 0.986672
end loop
end factet
facet normal -0.00624752 -0.0266426 0.0224169
outer loop
vertex 0.666719 1.8781 3.46817
vertex -0.161981 -0.0155022 0.986672
vertex -0.150652 -0.0166662 0.988446
end loop
end factet
facet normal 0.0089922 -0.0181835 0.0109301
outer loop
vertex 0.666719 1.8781 3.46817
vertex -0.150652 -0.0166662 0.988446
vertex -0.142919 -0.0121123 0.98966
end loop
end factet
facet normal -0.0209489 -0.0174627 0.0201608
outer loop
vertex 0.666719 1.8781 3.46817
vertex -0.142919 -0.0121123 0.98966
vertex -0.135577 -0.0198726 0.990568
end loop
end factet
facet normal -0.0163102 -0.0470841 0.0413504
outer loop
vertex 0.666719 1.8781 3.46817
vertex -0.135577 -0.0198726 0.990568
vertex -0.115796 -0.0246166 0.992968
end loop
end factet
facet normal -0.0105634 -0.0612305 0.050408
outer loop
vertex 0.666719 1.8781 3.46817
vertex -0.115796 -0.0246166 0.992968
vertex -0.0902397 -0.0268941 0.995557
end loop
end factet
facet normal 0.0142031 -0.037869 0.0248275
outer loop
vertex 0.666719 1.8781 3.46817
vertex -0.0902397 -0.0268941 0.995557
vertex -0.0744759 -0.0200213 0.997022
end loop
end factet
facet normal 0.0136847 -0.01855 0.0101439
outer loop
vertex 0.666719 1.8781 3.46817
vertex -0.0744759 -0.0200213 0.997022
vertex -0.0667748 -0.0139855 0.99767
end loop
end factet
facet normal 0.00367546 -0.00954461 0.00621867
outer loop
vertex 0.666719 1.8781 3.46817
vertex -0.0667748 -0.0139855 0.99767
vertex -0.0628286 -0.0122843 0.997949
end loop
end factet
facet normal -0.0341825 -0.0681878 0.0622771
outer loop
vertex 0.666719 1.8781 3.46817
vertex -0.0628286 -0.0122843 0.997949
vertex -0.0348931 -0.0252627 0.999072
end loop
end factet
facet normal -0.00178432 -0.0390842 0.0306358
outer loop
vertex 0.666719 1.8781 3.46817
vertex -0.0348931 -0.0252627 0.999072
vertex -0.0189446 -0.0256621 0.999491
end loop
end factet
facet normal 0.000961304 -0.139106 0.107007
outer loop
vertex 0.666719 1.8781 3.46817
vertex -0.0189446 -0.0256621 0.999491
vertex 0.0372606 -0.02567 0.998976
end loop
end factet
facet normal 0.037962 -0.0621401 0.038233
outer loop
vertex 0.666719 1.8781 3.46817
vertex 0.0372606 -0.02567 0.998976
vertex 0.062179 -0.0110452 0.998004
end loop
end factet
facet normal 0.000936031 -0.00414169 0.00293851
outer loop
vertex 0.666719 1.8781 3.46817
vertex 0.062179 -0.0110452 0.998004
vertex 0.0638309 -0.0107436 0.997903
end loop
end factet
facet normal 0.00197744 -0.00746334 0.00522399
outer loop
vertex 0.666719 1.8781 3.46817
vertex 0.0638309 -0.0107436 0.997903
vertex 0.0668063 -0.0100868 0.997715
end loop
end factet
facet normal 0.00612879 -0.00769806 0.00439537
outer loop
vertex 0.666719 1.8781 3.46817
vertex 0.0668063 -0.0100868 0.997715
vertex 0.0698764 -0.00775062 0.997526
end loop
end factet
facet normal 0.00297165 -0.00674856 0.00443339
outer loop
vertex 0.666719 1.8781 3.46817
vertex 0.0698764 -0.00775062 0.997526
vertex 0.0725633 -0.00668842 0.997341
end loop
end factet
facet normal 0.00636578 -0.0340167 0.0244178
outer loop
vertex 0.666719 1.8781 3.46817
vertex 0.0725633 -0.00668842 0.997341
vertex 0.0860746 -0.00492432 0.996277
end loop
end factet
facet normal 0.00584126 -0.0187116 0.0128816
outer loop
vertex 0.666719 1.8781 3.46817
vertex 0.0860746 -0.00492432 0.996277
vertex 0.0934891 -0.00306452 0.995616
end loop
end factet
facet normal -0.00203133 -0.00751555 0.00618887
outer loop
vertex 0.666719 1.8781 3.46817
vertex 0.0934891 -0.00306452 0.995616
vertex 0.0964621 -0.00410459 0.995328
end loop
end factet
facet normal -0.00328159 -0.0152296 0.0123487
outer loop
vertex 0.666719 1.8781 3.46817
vertex 0.0964621 -0.00410459 0.995328
vertex 0.10248 -0.00589662 0.994718
end loop
end factet
facet normal 0.0149317 -0.0224073 0.013661
outer loop
vertex 0.666719 1.8781 3.46817
vertex 0.10248 -0.00589662 0.994718
vertex 0.111326 -0.000570906 0.993784
end loop
end factet
facet normal 0.0153689 -0.0063473 0.0013696
outer loop
vertex 0.666719 1.8781 3.46817
vertex 0.111326 -0.000570906 0.993784
vertex 0.113824 0.00541429 0.993486
end loop
end factet
facet normal 0.0255451 -0.0269434 0.0146817
outer loop
vertex 0.666719 1.8781 3.46817
vertex 0.113824 0.00541429 0.993486
vertex 0.124407 0.0147048 0.992122
end loop
end factet
facet normal 0.0868111 -0.0167176 -0.00643247
outer loop
vertex 0.666719 1.8781 3.46817
vertex 0.124407 0.0147048 0.992122
vertex 0.130746 0.0483458 0.990237
end loop
end factet
facet normal 0.018189 -0.0125567 0.00533789
outer loop
vertex 0.666719 1.8781 3.46817
vertex 0.130746 0.0483458 0.990237
vertex 0.135598 0.0549495 0.989239
end loop
end factet
facet normal 0.00938129 -0.00483501 0.00154608
outer loop
vertex 0.666719 1.8781 3.46817
vertex 0.135598 0.0549495 0.989239
vertex 0.137451 0.0584003 0.988786
end loop
end factet
facet normal 0.0101395 -0.00574052 0.00204861
outer loop
vertex 0.666719 1.8781 3.46817
vertex 0.137451 0.0584003 0.988786
vertex 0.139652 0.0620981 0.988252
end loop
end factet
facet normal 0.0106421 -0.00226521 -0.000602961
outer loop
vertex 0.666719 1.8781 3.46817
vertex 0.139652 0.0620981 0.988252
vertex 0.140485 0.066112 0.987873
end loop
end factet
facet normal 0.0389705 -0.0277559 0.0120088
outer loop
vertex 0.666719 1.8781 3.46817
vertex 0.140485 0.066112 0.987873
vertex 0.151125 0.0799284 0.985278
end loop
end factet
facet normal 0.0450659 -0.0325412 0.0142088
outer loop
vertex 0.666719 1.8781 3.46817
vertex 0.151125 0.0799284 0.985278
vertex 0.163528 0.0956273 0.981893
end loop
end factet
facet normal 0.0185175 -0.0263412 0.015137
outer loop
vertex 0.666719 1.8781 3.46817
vertex 0.163528 0.0956273 0.981893
vertex 0.173653 0.101411 0.979572
end loop
end factet
facet normal 0.00385618 -0.0139974 0.00922924
outer loop
vertex 0.666719 1.8781 3.46817
vertex 0.173653 0.101411 0.979572
vertex 0.179068 0.102205 0.978514
end loop
end factet
facet normal 0.0151849 -0.0952182 0.0649456
outer loop
vertex 0.666719 1.8781 3.46817
vertex 0.179068 0.102205 0.978514
vertex 0.21584 0.102936 0.970988
end loop
end factet
facet normal 0.0193868 -0.122932 0.0838875
outer loop
vertex 0.666719 1.8781 3.46817
vertex 0.21584 0.102936 0.970988
vertex 0.262967 0.102428 0.959352
end loop
end factet
facet normal 0.0595446 -0.0882598 0.052885
outer loop
vertex 0.666719 1.8781 3.46817
vertex 0.262967 0.102428 0.959352
vertex 0.296285 0.117975 0.947785
end loop
end factet
facet normal 0.0984006 -0.142767 0.0852394
outer loop
vertex 0.666719 1.8781 3.46817
vertex 0.296285 0.117975 0.947785
vertex 0.349735 0.141838 0.926049
end loop
end factet
facet normal 0.0713019 -0.0718465 0.04018
outer loop
vertex 0.666719 1.8781 3.46817
vertex 0.349735 0.141838 0.926049
vertex 0.376304 0.160611 0.912469
end loop
end factet
facet normal 0.0361037 -0.0316464 0.0171645
outer loop
vertex 0.666719 1.8781 3.46817
vertex 0.376304 0.160611 0.912469
vertex 0.387932 0.170272 0.905824
end loop
end factet
facet normal 0.0289664 -0.119284 0.0763521
outer loop
vertex 0.666719 1.8781 3.46817
vertex 0.387932 0.170272 0.905824
vertex 0.432315 0.168284 0.885881
end loop
end factet
facet normal 0.048965 -0.104397 0.0646797
outer loop
vertex 0.666719 1.8781 3.46817
vertex 0.432315 0.168284 0.885881
vertex 0.470847 0.173421 0.865002
end loop
end factet
facet normal 0.0354581 -0.0297312 0.0168014
outer loop
vertex 0.666719 1.8781 3.46817
vertex 0.470847 0.173421 0.865002
vertex 0.481685 0.181963 0.857245
end loop
end factet
facet normal 0.0175858 -0.0762603 0.0482945
outer loop
vertex 0.666719 1.8781 3.46817
vertex 0.481685 0.181963 0.857245
vertex 0.509783 0.17852 0.841577
end loop
end factet
facet normal 0.0158801 -0.0169927 0.0100466
outer loop
vertex 0.666719 1.8781 3.46817
vertex 0.509783 0.17852 0.841577
vertex 0.515985 0.181676 0.83711
end loop
end factet
facet normal 0.03303 -0.011968 0.00582428
outer loop
vertex 0.666719 1.8781 3.46817
vertex 0.515985 0.181676 0.83711
vertex 0.520261 0.191154 0.83234
end loop
end factet
facet normal 0.0350337 -0.0534823 0.0322822
outer loop
vertex 0.666719 1.8781 3.46817
vertex 0.520261 0.191154 0.83234
vertex 0.539795 0.195732 0.818725
end loop
end factet
facet normal 0.0264564 -0.0159245 0.00884445
outer loop
vertex 0.666719 1.8781 3.46817
vertex 0.539795 0.195732 0.818725
vertex 0.545546 0.202276 0.813305
end loop
end factet
facet normal 0.0384583 -0.134388 0.0830736
outer loop
vertex 0.666719 1.8781 3.46817
vertex 0.545546 0.202276 0.813305
vertex 0.594637 0.195632 0.77983
end loop
end factet
facet normal 0.00363207 -0.0553351 0.0345334
outer loop
vertex 0.666719 1.8781 3.46817
vertex 0.594637 0.195632 0.77983
vertex 0.614846 0.188236 0.765854
end loop
end factet
facet normal 0.10536 -0.0950078 0.0573895
outer loop
vertex 0.666719 1.8781 3.46817
vertex 0.614846 0.188236 0.765854
vertex 0.649354 0.206075 0.732033
end loop
end factet
facet normal 0.341937 -0.190107 0.114002
outer loop
vertex 0.666719 1.8781 3.46817
vertex 0.649354 0.206075 0.732033
vertex 0.718246 0.274428 0.639384
end loop
end factet
facet normal 0.141456 -0.0371696 0.0236485
outer loop
vertex 0.666719 1.8781 3.46817
vertex 0.718246 0.274428 0.639384
vertex 0.731951 0.306843 0.608354
end loop
end factet
facet normal 0.132375 -0.0508376 0.0309508
outer loop
vertex 0.666719 1.8781 3.46817
vertex 0.731951 0.306843 0.608354
vertex 0.75058 0.332593 0.570974
end loop
end factet
facet normal -0.0200353 -0.0470505 0.024519
outer loop
vertex 0.666719 1.8781 3.46817
vertex 0.75058 0.332593 0.570974
vertex 0.767228 0.318167 0.556894
end loop
end factet
facet normal 0.0796828 -0.0831986 0.0473307
outer loop
vertex 0.666719 1.8781 3.46817
vertex 0.767228 0.318167 0.556894
vertex 0.797389 0.320963 0.511032
end loop
end factet
facet normal -0.011827 -0.0505559 0.0260985
outer loop
vertex 0.666719 1.8781 3.46817
vertex 0.797389 0.320963 0.511032
vertex 0.815363 0.306501 0.491162
end loop
end factet
facet normal -0.0242896 -0.0873976 0.0449253
outer loop
vertex 0.666719 1.8781 3.46817
vertex 0.815363 0.306501 0.491162
vertex 0.846598 0.27849 0.453557
end loop
end factet
facet normal -0.0117636 -0.049037 0.0253179
outer loop
vertex 0.666719 1.8781 3.46817
vertex 0.846598 0.27849 0.453557
vertex 0.864302 0.261804 0.429465
end loop
end factet
facet normal -0.0596137 -0.0973657 0.0479127
outer loop
vertex 0.666719 1.8781 3.46817
vertex 0.864302 0.261804 0.429465
vertex 0.899576 0.215747 0.379758
end loop
end factet
facet normal 0.0213852 -0.0509654 0.0290447
outer loop
vertex 0.666719 1.8781 3.46817
vertex 0.899576 0.215747 0.379758
vertex 0.919157 0.200695 0.338929
end loop
end factet
facet normal 0.186212 -0.0592357 0.0467745
outer loop
vertex 0.666719 1.8781 3.46817
vertex 0.919157 0.200695 0.338929
vertex 0.945428 0.211421 0.247927
end loop
end factet
facet normal -0.0409803 -0.0397314 0.0170166
outer loop
vertex 0.666719 1.8781 3.46817
vertex 0.945428 0.211421 0.247927
vertex 0.961004 0.179327 0.210505
end loop
end factet
facet normal -0.114906 -0.0325991 0.00661916
outer loop
vertex 0.666719 1.8781 3.46817
vertex 0.961004 0.179327 0.210505
vertex 0.972956 0.13283 0.18898
end loop
end factet
facet normal 0.239508 -0.0141525 0.0298995
outer loop
vertex 0.666719 1.8781 3.46817
vertex 0.972956 0.13283 0.18898
vertex 0.99308 0.115778 0.019709
end loop
end factet
facet normal 0.0906982 0.0367975 -0.0102215
outer loop
vertex 0.666719 1.8781 3.46817
vertex 0.99308 0.115778 0.019709
vertex 0.992401 0.0881213 -0.085875
end loop
end factet
facet normal 0.0771217 0.0185028 -0.00225163
outer loop
vertex 0.666719 1.8781 3.46817
vertex 0.992401 0.0881213 -0.085875
vertex 0.989234 0.098614 -0.108127
end loop
end factet
facet normal 0.0347347 0.0139347 -0.00380117
outer loop
vertex 0.666719 1.8781 3.46817
vertex 0.989234 0.098614 -0.108127
vertex 0.986995 0.0991813 -0.126506
end loop
end factet
facet normal 0.0752006 0.0362566 -0.0112423
outer loop
vertex 0.666719 1.8781 3.46817
vertex 0.986995 0.0991813 -0.126506
vertex 0.980665 0.0992383 -0.168664
end loop
end factet
facet normal 0.173941 0.0598245 -0.0142462
outer loop
vertex 0.666719 1.8781 3.46817
vertex 0.980665 0.0992383 -0.168664
vertex 0.968371 0.123523 -0.216796
end loop
end factet
facet normal 0.222221 0.027434 0.00512856
outer loop
vertex 0.666719 1.8781 3.46817
vertex 0.968371 0.123523 -0.216796
vertex 0.960079 0.188756 -0.206447
end loop
end factet
facet normal 0.303419 0.0430657 0.00442442
outer loop
vertex 0.666719 1.8781 3.46817
vertex 0.960079 0.188756 -0.206447
vertex 0.943012 0.302116 -0.139477
end loop
end factet
facet normal 0.0942326 0.0331346 -0.00725782
outer loop
vertex 0.666719 1.8781 3.46817
vertex 0.943012 0.302116 -0.139477
vertex 0.934246 0.325853 -0.144932
end loop
end factet
facet normal 0.0884194 0.0291594 -0.00598043
outer loop
vertex 0.666719 1.8781 3.46817
vertex 0.934246 0.325853 -0.144932
vertex 0.925137 0.356349 -0.130909
end loop
end factet
facet normal 0.301598 0.133169 -0.034651
outer loop
vertex 0.666719 1.8781 3.46817
vertex 0.925137 0.356349 -0.130909
vertex 0.888951 0.435346 -0.142266
end loop
end factet
facet normal 0.16211 0.0849367 -0.0239628
outer loop
vertex 0.666719 1.8781 3.46817
vertex 0.888951 0.435346 -0.142266
vertex 0.865985 0.476619 -0.151344
end loop
end factet
facet normal 0.310938 0.200864 -0.0606565
outer loop
vertex 0.666719 1.8781 3.46817
vertex 0.865985 0.476619 -0.151344
vertex 0.814849 0.531871 -0.23051
end loop
end factet
facet normal 0.329443 0.258458 -0.0808783
outer loop
vertex 0.666719 1.8781 3.46817
vertex 0.814849 0.531871 -0.23051
vertex 0.746983 0.602648 -0.28077
end loop
end factet
facet normal 0.0824108 0.0624843 -0.0194937
outer loop
vertex 0.666719 1.8781 3.46817
vertex 0.746983 0.602648 -0.28077
vertex 0.72998 0.629964 -0.265092
end loop
end factet
facet normal 0.204055 0.192871 -0.0610244
outer loop
vertex 0.666719 1.8781 3.46817
vertex 0.72998 0.629964 -0.265092
vertex 0.678463 0.681746 -0.273697
end loop
end factet
facet normal 0.02598 0.0244646 -0.00774028
outer loop
vertex 0.666719 1.8781 3.46817
vertex 0.678463 0.681746 -0.273697
vertex 0.671904 0.690799 -0.267097
end loop
end factet
facet normal 0.0741949 0.078277 -0.0247782
outer loop
vertex 0.666719 1.8781 3.46817
vertex 0.671904 0.690799 -0.267097
vertex 0.650946 0.711108 -0.265696
end loop
end factet
facet normal 0.0153136 0.0156447 -0.0049543
outer loop
vertex 0.666719 1.8781 3.46817
vertex 0.650946 0.711108 -0.265696
vertex 0.64678 0.716984 -0.260018
end loop
end factet
facet normal 0.0273743 0.0303484 -0.00959816
outer loop
vertex 0.666719 1.8781 3.46817
vertex 0.64678 0.716984 -0.260018
vertex 0.638651 0.724947 -0.258025
end loop
end factet
facet normal 0.0218945 0.0241734 -0.0076459
outer loop
vertex 0.666719 1.8781 3.46817
vertex 0.638651 0.724947 -0.258025
vertex 0.632213 0.732865 -0.251426
end loop
end factet
facet normal 0.0655251 0.07757 -0.024491
outer loop
vertex 0.666719 1.8781 3.46817
vertex 0.632213 0.732865 -0.251426
vertex 0.611488 0.754779 -0.237468
end loop
end factet
facet normal 0.0447111 0.0588935 -0.0185192
outer loop
vertex 0.666719 1.8781 3.46817
vertex 0.611488 0.754779 -0.237468
vertex 0.595955 0.77417 -0.213301
end loop
end factet
facet normal 0.00272799 0.0101813 -0.00310538
outer loop
vertex 0.666719 1.8781 3.46817
vertex 0.595955 0.77417 -0.213301
vertex 0.59366 0.782241 -0.188857
end loop
end factet
facet normal 0.17857 0.325047 -0.10097
outer loop
vertex 0.666719 1.8781 3.46817
vertex 0.59366 0.782241 -0.188857
vertex 0.506415 0.855644 -0.106851
end loop
end factet
facet normal 0.148574 0.406572 -0.122941
outer loop
vertex 0.666719 1.8781 3.46817
vertex 0.506415 0.855644 -0.106851
vertex 0.395889 0.917612 -0.0354891
end loop
end factet
facet normal -0.0613618 0.159262 -0.0389165
outer loop
vertex 0.666719 1.8781 3.46817
vertex 0.395889 0.917612 -0.0354891
vertex 0.358962 0.930346 0.0748477
end loop
end factet
facet normal -0.0414114 0.0769823 -0.0177452
outer loop
vertex 0.666719 1.8781 3.46817
vertex 0.358962 0.930346 0.0748477
vertex 0.340749 0.931918 0.124171
end loop
end factet
facet normal -0.0603576 0.125693 -0.029681
outer loop
vertex 0.666719 1.8781 3.46817
vertex 0.340749 0.931918 0.124171
vertex 0.309429 0.93206 0.188463
end loop
end factet
facet normal -0.125412 0.0597445 -0.003571
outer loop
vertex 0.666719 1.8781 3.46817
vertex 0.309429 0.93206 0.188463
vertex 0.299664 0.9162 0.266044
end loop
end factet
facet normal -0.0331481 0.0205246 -0.00236577
outer loop
vertex 0.666719 1.8781 3.46817
vertex 0.299664 0.9162 0.266044
vertex 0.295484 0.911691 0.285496
end loop
end factet
facet normal -0.0666351 0.00741184 0.00552189
outer loop
vertex 0.666719 1.8781 3.46817
vertex 0.295484 0.911691 0.285496
vertex 0.296907 0.900521 0.317661
end loop
end factet
facet normal -0.0437024 0.0358857 -0.0060052
outer loop
vertex 0.666719 1.8781 3.46817
vertex 0.296907 0.900521 0.317661
vertex 0.288399 0.894268 0.342214
end loop
end factet
facet normal -0.0594859 0.0354548 -0.00395933
outer loop
vertex 0.666719 1.8781 3.46817
vertex 0.288399 0.894268 0.342214
vertex 0.280689 0.884683 0.372223
end loop
end factet
facet normal -0.0483027 -0.00470006 0.00753096
outer loop
vertex 0.666719 1.8781 3.46817
vertex 0.280689 0.884683 0.372223
vertex 0.284578 0.875184 0.39124
end loop
end factet
facet normal -0.0578277 -0.00227213 0.0079225
outer loop
vertex 0.666719 1.8781 3.46817
vertex 0.284578 0.875184 0.39124
vertex 0.288093 0.863677 0.413599
end loop
end factet
facet normal -0.0326295 -0.0107993 0.00763097
outer loop
vertex 0.666719 1.8781 3.46817
vertex 0.288093 0.863677 0.413599
vertex 0.292994 0.856654 0.424616
end loop
end factet
facet normal -0.0277536 0.00222087 0.00266257
outer loop
vertex 0.666719 1.8781 3.46817
vertex 0.292994 0.856654 0.424616
vertex 0.29357 0.851103 0.435247
end loop
end factet
facet normal -0.018925 0.0177717 -0.00368938
outer loop
vertex 0.666719 1.8781 3.46817
vertex 0.29357 0.851103 0.435247
vertex 0.28884 0.847972 0.444427
end loop
end factet
facet normal -0.0359218 0.010608 0.000875294
outer loop
vertex 0.666719 1.8781 3.46817
vertex 0.28884 0.847972 0.444427
vertex 0.287112 0.840944 0.458671
end loop
end factet
facet normal -0.0136201 0.00383961 0.000394732
outer loop
vertex 0.666719 1.8781 3.46817
vertex 0.287112 0.840944 0.458671
vertex 0.286504 0.838243 0.463965
end loop
end factet
facet normal -0.0390916 -0.00225472 0.00572789
outer loop
vertex 0.666719 1.8781 3.46817
vertex 0.286504 0.838243 0.463965
vertex 0.288946 0.829858 0.477332
end loop
end factet
facet normal -0.00897741 0.00543511 -0.000770956
outer loop
vertex 0.666719 1.8781 3.46817
vertex 0.288946 0.829858 0.477332
vertex 0.287601 0.828166 0.481069
end loop
end factet
facet normal -0.00641084 0.00309455 -0.000274062
outer loop
vertex 0.666719 1.8781 3.46817
vertex 0.287601 0.828166 0.481069
vertex 0.28689 0.82692 0.48363
end loop
end factet
facet normal -0.00353789 0.000902772 0.000132263
outer loop
vertex 0.666719 1.8781 3.46817
vertex 0.28689 0.82692 0.48363
vertex 0.286755 0.826197 0.484944
end loop
end factet
facet normal -0.00863695 -0.00144613 0.00160995
outer loop
vertex 0.666719 1.8781 3.46817
vertex 0.286755 0.826197 0.484944
vertex 0.287591 0.824277 0.487708
end loop
end factet
facet normal -0.0231359 -0.00707901 0.00544596
outer loop
vertex 0.666719 1.8781 3.46817
vertex 0.287591 0.824277 0.487708
vertex 0.290851 0.818973 0.494661
end loop
end factet
facet normal -0.0136764 -0.00372648 0.00305608
outer loop
vertex 0.666719 1.8781 3.46817
vertex 0.290851 0.818973 0.494661
vertex 0.292624 0.815839 0.498777
end loop
end factet
facet normal -0.0825975 -0.0101637 0.0140418
outer loop
vertex 0.666719 1.8781 3.46817
vertex 0.292624 0.815839 0.498777
vertex 0.29927 0.797174 0.524358
end loop
end factet
facet normal -0.0285718 -0.0285275 0.0140412
outer loop
vertex 0.666719 1.8781 3.46817
vertex 0.29927 0.797174 0.524358
vertex 0.309653 0.789505 0.529904
end loop
end factet
facet normal -0.0173151 0.00076592 0.00182042
outer loop
vertex 0.666719 1.8781 3.46817
vertex 0.309653 0.789505 0.529904
vertex 0.310058 0.785641 0.535381
end loop
end factet
facet normal -0.0293705 -0.00461555 0.00529104
outer loop
vertex 0.666719 1.8781 3.46817
vertex 0.310058 0.785641 0.535381
vertex 0.312659 0.778775 0.543833
end loop
end factet
facet normal -0.0669038 0.0421512 -0.0077453
outer loop
vertex 0.666719 1.8781 3.46817
vertex 0.312659 0.778775 0.543833
vertex 0.301271 0.765292 0.568826
end loop
end factet
facet normal -0.0481582 0.0505863 -0.0133456
outer loop
vertex 0.666719 1.8781 3.46817
vertex 0.301271 0.765292 0.568826
vertex 0.286291 0.756193 0.588396
end loop
end factet
facet normal -0.0401464 -0.0136621 0.010626
outer loop
vertex 0.666719 1.8781 3.46817
vertex 0.286291 0.756193 0.588396
vertex 0.292335 0.746088 0.598241
end loop
end factet
facet normal -0.0474751 0.0109119 0.00188905
outer loop
vertex 0.666719 1.8781 3.46817
vertex 0.292335 0.746088 0.598241
vertex 0.290396 0.735178 0.612522
end loop
end factet
facet normal -0.022882 0.0694236 -0.02477
outer loop
vertex 0.666719 1.8781 3.46817
vertex 0.290396 0.735178 0.612522
vertex 0.267843 0.732503 0.625859
end loop
end factet
facet normal -0.0249887 0.18433 -0.0707872
outer loop
vertex 0.666719 1.8781 3.46817
vertex 0.267843 0.732503 0.625859
vertex 0.20616 0.732815 0.648444
end loop
end factet
facet normal -0.0611515 0.0847025 -0.0244153
outer loop
vertex 0.666719 1.8781 3.46817
vertex 0.20616 0.732815 0.648444
vertex 0.179691 0.720006 0.670301
end loop
end factet
facet normal -0.0409405 0.0203317 -0.00128919
outer loop
vertex 0.666719 1.8781 3.46817
vertex 0.179691 0.720006 0.670301
vertex 0.174464 0.710222 0.682017
end loop
end factet
facet normal -0.0213718 0.0691031 -0.02519
outer loop
vertex 0.666719 1.8781 3.46817
vertex 0.174464 0.710222 0.682017
vertex 0.151315 0.706474 0.691374
end loop
end factet
facet normal -0.10512 0.167115 -0.0509999
outer loop
vertex 0.666719 1.8781 3.46817
vertex 0.151315 0.706474 0.691374
vertex 0.0972537 0.682533 0.724355
end loop
end factet
facet normal -0.283206 0.321957 -0.0815088
outer loop
vertex 0.666719 1.8781 3.46817
vertex 0.0972537 0.682533 0.724355
vertex -0.00584268 0.609219 0.79298
end loop
end factet
facet normal -0.0659626 0.161894 -0.060205
outer loop
vertex 0.666719 1.8781 3.46817
vertex -0.00584268 0.609219 0.79298
vertex -0.0633902 0.590164 0.804791
end loop
end factet
facet normal -0.0332441 0.033082 -0.00688428
outer loop
vertex 0.666719 1.8781 3.46817
vertex -0.0633902 0.590164 0.804791
vertex -0.0741613 0.580593 0.81081
end loop
end factet
facet normal -0.017339 0.0283399 -0.00900334
outer loop
vertex 0.666719 1.8781 3.46817
vertex -0.0741613 0.580593 0.81081
vertex -0.0840648 0.575401 0.81354
end loop
end factet
facet normal -0.01301 0.0112194 -0.00182611
outer loop
vertex 0.666719 1.8781 3.46817
vertex -0.0840648 0.575401 0.81354
vertex -0.0876452 0.571621 0.815824
end loop
end factet
facet normal -0.0129383 0.0167282 -0.00455999
outer loop
vertex 0.666719 1.8781 3.46817
vertex -0.0876452 0.571621 0.815824
vertex -0.093366 0.567758 0.817884
end loop
end factet
facet normal -0.0635338 0.0382061 -0.000668645
outer loop
vertex 0.666719 1.8781 3.46817
vertex -0.093366 0.567758 0.817884
vertex -0.104579 0.549306 0.829051
end loop
end factet
facet normal -0.0222218 0.0195363 -0.00334191
outer loop
vertex 0.666719 1.8781 3.46817
vertex -0.104579 0.549306 0.829051
vertex -0.110948 0.542667 0.832588
end loop
end factet
facet normal -0.169883 0.0168104 0.0416087
outer loop
vertex 0.666719 1.8781 3.46817
vertex -0.110948 0.542667 0.832588
vertex -0.108376 0.49358 0.862922
end loop
end factet
facet normal -0.0952156 0.00216365 0.027178
outer loop
vertex 0.666719 1.8781 3.46817
vertex -0.108376 0.49358 0.862922
vertex -0.104464 0.465502 0.87886
end loop
end factet
facet normal -0.0125058 0.0287753 -0.0119737
outer loop
vertex 0.666719 1.8781 3.46817
vertex -0.104464 0.465502 0.87886
vertex -0.115302 0.461177 0.879785
end loop
end factet
facet normal -0.0116069 0.0174453 -0.00604308
outer loop
vertex 0.666719 1.8781 3.46817
vertex -0.115302 0.461177 0.879785
vertex -0.121694 0.457322 0.880935
end loop
end factet
facet normal -6.91414e-05 0.0261159 -0.0143204
outer loop
vertex 0.666719 1.8781 3.46817
vertex -0.121694 0.457322 0.880935
vertex -0.132142 0.456658 0.879774
end loop
end factet
facet normal -0.0117466 0.0218616 -0.00837994
outer loop
vertex 0.666719 1.8781 3.46817
vertex -0.132142 0.456658 0.879774
vertex -0.140329 0.45258 0.880613
end loop
end factet
facet normal -0.00378847 0.0106812 -0.00470269
outer loop
vertex 0.666719 1.8781 3.46817
vertex -0.140329 0.45258 0.880613
vertex -0.144436 0.451154 0.880681
end loop
end factet
facet normal -0.0108318 0.0186195 -0.00687265
outer loop
vertex 0.666719 1.8781 3.46817
vertex -0.144436 0.451154 0.880681
vertex -0.151396 0.447383 0.881435
end loop
end factet
facet normal -0.0171692 0.0108745 -0.000584602
outer loop
vertex 0.666719 1.8781 3.46817
vertex -0.151396 0.447383 0.881435
vertex -0.154924 0.441928 0.883571
end loop
end factet
facet normal -0.0145862 0.0218441 -0.00750101
outer loop
vertex 0.666719 1.8781 3.46817
vertex -0.154924 0.441928 0.883571
vertex -0.16304 0.43687 0.884626
end loop
end factet
facet normal -0.00986838 0.0435443 -0.0211215
outer loop
vertex 0.666719 1.8781 3.46817
vertex -0.16304 0.43687 0.884626
vertex -0.180264 0.432408 0.883475
end loop
end factet
facet normal -0.00387692 0.0157421 -0.0075345
outer loop
vertex 0.666719 1.8781 3.46817
vertex -0.180264 0.432408 0.883475
vertex -0.186499 0.430662 0.883034
end loop
end factet
facet normal -0.00960064 0.0167258 -0.00619614
outer loop
vertex 0.666719 1.8781 3.46817
vertex -0.186499 0.430662 0.883034
vertex -0.192856 0.427141 0.883378
end loop
end factet
facet normal -0.0126972 0.0222716 -0.00827956
outer loop
vertex 0.666719 1.8781 3.46817
vertex -0.192856 0.427141 0.883378
vertex -0.20135 0.422435 0.883746
end loop
end factet
facet normal 0.0617301 0.043848 -0.0454314
outer loop
vertex 0.666719 1.8781 3.46817
vertex -0.20135 0.422435 0.883746
vertex -0.222764 0.438862 0.870504
end loop
end factet
facet normal 0.0113432 0.0141239 -0.0117093
outer loop
vertex 0.666719 1.8781 3.46817
vertex -0.222764 0.438862 0.870504
vertex -0.229243 0.441542 0.867461
end loop
end factet
facet normal -0.0119225 -0.00515532 -0.000526674
outer loop
vertex -0.229243 0.441542 0.867461
vertex 0 0 0
vertex -0.224984 0.431042 0.873834
end loop
end factet
facet normal -0.0329325 -0.0067302 -0.0051592
outer loop
vertex -0.224984 0.431042 0.873834
vertex 0 0 0
vertex -0.221197 0.400854 0.889038
end loop
end factet
facet normal -0.0282357 -0.00585119 -0.00438695
outer loop
vertex -0.221197 0.400854 0.889038
vertex 0 0 0
vertex -0.217659 0.374611 0.901272
end loop
end factet
facet normal 0.0876433 0.0494908 0.000595346
outer loop
vertex -0.217659 0.374611 0.901272
vertex 0 0 0
vertex -0.260936 0.451828 0.853091
end loop
end factet
facet normal 0.00804991 0.017676 -0.00689964
outer loop
vertex -0.260936 0.451828 0.853091
vertex 0 0 0
vertex -0.279077 0.456799 0.84466
end loop
end factet
facet normal -0.00393933 0.0166739 -0.010319
outer loop
vertex -0.279077 0.456799 0.84466
vertex 0 0 0
vertex -0.297818 0.450501 0.841637
end loop
end factet
facet normal -0.0101691 0.00896734 -0.00839835
outer loop
vertex -0.297818 0.450501 0.841637
vertex 0 0 0
vertex -0.309111 0.439384 0.843441
end loop
end factet
facet normal -0.00639606 0.00241083 -0.00359999
outer loop
vertex -0.309111 0.439384 0.843441
vertex 0 0 0
vertex -0.312717 0.432863 0.845481
end loop
end factet
facet normal -0.00555712 0.00136828 -0.00275594
outer loop
vertex -0.312717 0.432863 0.845481
vertex 0 0 0
vertex -0.315061 0.427294 0.847441
end loop
end factet
facet normal -0.0132746 0.000786543 -0.00533181
outer loop
vertex -0.315061 0.427294 0.847441
vertex 0 0 0
vertex -0.317973 0.414321 0.852779
end loop
end factet
facet normal -0.00794655 -0.00250477 -0.00174607
outer loop
vertex -0.317973 0.414321 0.852779
vertex 0 0 0
vertex -0.316549 0.406974 0.856836
end loop
end factet
facet normal -0.00430965 0.000306606 -0.00173779
outer loop
vertex -0.316549 0.406974 0.856836
vertex 0 0 0
vertex -0.317516 0.402727 0.858484
end loop
end factet
facet normal -0.00493079 0.00114423 -0.00236046
outer loop
vertex -0.317516 0.402727 0.858484
vertex 0 0 0
vertex -0.319444 0.397738 0.860093
end loop
end factet
facet normal -0.00715616 0.00159204 -0.00339407
outer loop
vertex -0.319444 0.397738 0.860093
vertex 0 0 0
vertex -0.322152 0.390486 0.862403
end loop
end factet
facet normal -0.00488171 -0.00137421 -0.00120135
outer loop
vertex -0.322152 0.390486 0.862403
vertex 0 0 0
vertex -0.321432 0.385884 0.86474
end loop
end factet
facet normal -0.00546852 -0.0025683 -0.000886612
outer loop
vertex -0.321432 0.385884 0.86474
vertex 0 0 0
vertex -0.319547 0.380863 0.86766
end loop
end factet
facet normal -0.00494102 -0.00102156 -0.00137129
outer loop
vertex -0.319547 0.380863 0.86766
vertex 0 0 0
vertex -0.319179 0.376132 0.869856
end loop
end factet
facet normal -0.00327694 -0.000869304 -0.000826515
outer loop
vertex -0.319179 0.376132 0.869856
vertex 0 0 0
vertex -0.318732 0.373016 0.871361
end loop
end factet
facet normal -0.0060617 -0.00205144 -0.00133911
outer loop
vertex -0.318732 0.373016 0.871361
vertex 0 0 0
vertex -0.317437 0.367299 0.874257
end loop
end factet
facet normal -0.00659019 -0.00241476 -0.00137835
outer loop
vertex -0.317437 0.367299 0.874257
vertex 0 0 0
vertex -0.315824 0.36109 0.877422
end loop
end factet
facet normal -0.00484151 -0.00251973 -0.000705712
outer loop
vertex -0.315824 0.36109 0.877422
vertex 0 0 0
vertex -0.313863 0.356614 0.879953
end loop
end factet
facet normal -0.00508839 0.000537157 -0.00203262
outer loop
vertex -0.313863 0.356614 0.879953
vertex 0 0 0
vertex -0.315056 0.351493 0.881585
end loop
end factet
facet normal -0.00411403 -0.000526965 -0.00126015
outer loop
vertex -0.315056 0.351493 0.881585
vertex 0 0 0
vertex -0.315031 0.347466 0.883189
end loop
end factet
facet normal -0.00313529 0.00102741 -0.00152255
outer loop
vertex -0.315031 0.347466 0.883189
vertex 0 0 0
vertex -0.316466 0.344215 0.883949
end loop
end factet
facet normal -0.0051603 0.00249016 -0.00281715
outer loop
vertex -0.316466 0.344215 0.883949
vertex 0 0 0
vertex -0.31963 0.338755 0.884919
end loop
end factet
facet normal -0.00491935 0.0094524 -0.00539532
outer loop
vertex -0.31963 0.338755 0.884919
vertex 0 0 0
vertex -0.329799 0.332653 0.883501
end loop
end factet
facet normal -0.00461692 0.00237411 -0.00261733
outer loop
vertex -0.329799 0.332653 0.883501
vertex 0 0 0
vertex -0.332762 0.327705 0.884239
end loop
end factet
facet normal -0.00535968 0.0005247 -0.00221144
outer loop
vertex -0.332762 0.327705 0.884239
vertex 0 0 0
vertex -0.333945 0.322224 0.885806
end loop
end factet
facet normal -0.00445431 -0.00252372 -0.000761226
outer loop
vertex -0.333945 0.322224 0.885806
vertex 0 0 0
vertex -0.33195 0.31802 0.888072
end loop
end factet
facet normal -0.00777939 -0.000354141 -0.00278103
outer loop
vertex -0.33195 0.31802 0.888072
vertex 0 0 0
vertex -0.332509 0.310177 0.890633
end loop
end factet
facet normal -0.00252667 -0.00208446 -0.000217356
outer loop
vertex -0.332509 0.310177 0.890633
vertex 0 0 0
vertex -0.330718 0.307853 0.892105
end loop
end factet
facet normal -0.00217733 -0.00036028 -0.000682846
outer loop
vertex -0.330718 0.307853 0.892105
vertex 0 0 0
vertex -0.330606 0.305684 0.892893
end loop
end factet
facet normal -0.00166327 0.000166982 -0.000673011
outer loop
vertex -0.330606 0.305684 0.892893
vertex 0 0 0
vertex -0.33096 0.303976 0.893344
end loop
end factet
facet normal -0.00246868 -0.00061208 -0.000706315
outer loop
vertex -0.33096 0.303976 0.893344
vertex 0 0 0
vertex -0.330627 0.301536 0.894294
end loop
end factet
facet normal -0.000820905 -0.000486225 -0.000139557
outer loop
vertex -0.330627 0.301536 0.894294
vertex 0 0 0
vertex -0.330234 0.300755 0.894702
end loop
end factet
facet normal -0.000322133 -0.000169575 -6.19069e-05
outer loop
vertex -0.330234 0.300755 0.894702
vertex 0 0 0
vertex -0.330101 0.300447 0.894855
end loop
end factet
facet normal -0.000494242 -0.000995517 0.000151917
outer loop
vertex -0.330101 0.300447 0.894855
vertex 0 0 0
vertex -0.329164 0.300054 0.895331
end loop
end factet
facet normal -0.00196123 -0.00146005 -0.000231728
outer loop
vertex -0.329164 0.300054 0.895331
vertex 0 0 0
vertex -0.327926 0.298221 0.896398
end loop
end factet
facet normal -0.00520352 0.00282365 -0.00284299
outer loop
vertex -0.327926 0.298221 0.896398
vertex 0 0 0
vertex -0.331298 0.292618 0.897004
end loop
end factet
facet normal -0.00360453 -0.000696808 -0.00110397
outer loop
vertex -0.331298 0.292618 0.897004
vertex 0 0 0
vertex -0.330993 0.289017 0.898283
end loop
end factet
facet normal -0.00301784 0.00383154 -0.00234476
outer loop
vertex -0.330993 0.289017 0.898283
vertex 0 0 0
vertex -0.335108 0.285526 0.897874
end loop
end factet
facet normal -0.0023233 0.00241584 -0.00163536
outer loop
vertex -0.335108 0.285526 0.897874
vertex 0 0 0
vertex -0.337741 0.28289 0.897722
end loop
end factet
facet normal -0.0258975 0.00527138 -0.0114043
outer loop
vertex -0.337741 0.28289 0.897722
vertex 0 0 0
vertex -0.34556 0.255672 0.902895
end loop
end factet
facet normal -0.0160765 0.00156009 -0.00659465
outer loop
vertex -0.34556 0.255672 0.902895
vertex 0 0 0
vertex -0.348602 0.238839 0.906329
end loop
end factet
facet normal -0.00610124 0.00254399 -0.00301713
outer loop
vertex -0.348602 0.238839 0.906329
vertex 0 0 0
vertex -0.351619 0.232251 0.906876
end loop
end factet
facet normal -0.0069539 0.00056228 -0.00284021
outer loop
vertex -0.351619 0.232251 0.906876
vertex 0 0 0
vertex -0.352779 0.224939 0.908267
end loop
end factet
facet normal -0.00587142 -0.00173032 -0.00185198
outer loop
vertex -0.352779 0.224939 0.908267
vertex 0 0 0
vertex -0.351616 0.218949 0.91018
end loop
end factet
facet normal -0.0123245 0.00540718 -0.00606187
outer loop
vertex -0.351616 0.218949 0.91018
vertex 0 0 0
vertex -0.357827 0.205576 0.910878
end loop
end factet
facet normal -0.0203747 -0.00335249 -0.0072473
outer loop
vertex -0.357827 0.205576 0.910878
vertex 0 0 0
vertex -0.356177 0.184375 0.916048
end loop
end factet
facet normal -0.0226223 -0.00871301 -0.00704233
outer loop
vertex -0.356177 0.184375 0.916048
vertex 0 0 0
vertex -0.349381 0.161084 0.92303
end loop
end factet
facet normal -0.0137195 0.00188014 -0.00552115
outer loop
vertex -0.349381 0.161084 0.92303
vertex 0 0 0
vertex -0.351967 0.146474 0.924481
end loop
end factet
facet normal -0.0086353 -0.00227514 -0.00292714
outer loop
vertex -0.351967 0.146474 0.924481
vertex 0 0 0
vertex -0.350277 0.137454 0.926506
end loop
end factet
facet normal -0.0439435 -0.0188137 -0.0138222
outer loop
vertex -0.350277 0.137454 0.926506
vertex 0 0 0
vertex -0.334312 0.0917283 0.937988
end loop
end factet
facet normal -0.0151977 -0.00945187 -0.00449236
outer loop
vertex -0.334312 0.0917283 0.937988
vertex 0 0 0
vertex -0.325801 0.0759555 0.942382
end loop
end factet
facet normal -0.0297168 0.0057115 -0.010734
outer loop
vertex -0.325801 0.0759555 0.942382
vertex 0 0 0
vertex -0.331831 0.0444147 0.942293
end loop
end factet
facet normal -0.0305767 -0.012347 -0.0101857
outer loop
vertex -0.331831 0.0444147 0.942293
vertex 0 0 0
vertex -0.320451 0.0121961 0.947187
end loop
end factet
facet normal -0.0531536 -0.0161855 -0.0177744
outer loop
vertex -0.320451 0.0121961 0.947187
vertex 0 0 0
vertex -0.304791 -0.0438669 0.951408
end loop
end factet
facet normal 0.00368451 -0.0312287 -0.000259506
outer loop
vertex -0.304791 -0.0438669 0.951408
vertex 0 0 0
vertex -0.274918 -0.0404188 0.960618
end loop
end factet
facet normal -0.0015648 -0.0362499 -0.00197307
outer loop
vertex -0.274918 -0.0404188 0.960618
vertex 0 0 0
vertex -0.239834 -0.0424377 0.969886
end loop
end factet
facet normal 0.0102973 -0.0242016 0.00148738
outer loop
vertex -0.239834 -0.0424377 0.969886
vertex 0 0 0
vertex -0.216341 -0.0320791 0.975791
end loop
end factet
facet normal 0.00405065 -0.0218578 0.000179489
outer loop
vertex -0.216341 -0.0320791 0.975791
vertex 0 0 0
vertex -0.194965 -0.0280797 0.980408
end loop
end factet
facet normal 0.00381089 -0.00691172 0.000559879
outer loop
vertex -0.194965 -0.0280797 0.980408
vertex 0 0 0
vertex -0.188198 -0.0242334 0.981832
end loop
end factet
facet normal -0.000655008 -0.0147721 -0.000490155
outer loop
vertex -0.188198 -0.0242334 0.981832
vertex 0 0 0
vertex -0.173662 -0.0249662 0.984489
end loop
end factet
facet normal 0.00281251 -0.0059007 0.000346484
outer loop
vertex -0.173662 -0.0249662 0.984489
vertex 0 0 0
vertex -0.167858 -0.0221366 0.985563
end loop
end factet
facet normal 0.00656317 -0.00597844 0.000983538
outer loop
vertex -0.167858 -0.0221366 0.985563
vertex 0 0 0
vertex -0.161981 -0.0155022 0.986672
end loop
end factet
facet normal -0.00112103 -0.0114653 -0.000364177
outer loop
vertex -0.161981 -0.0155022 0.986672
vertex 0 0 0
vertex -0.150652 -0.0166662 0.988446
end loop
end factet
facet normal 0.00452156 -0.00782655 0.000557179
outer loop
vertex -0.150652 -0.0166662 0.988446
vertex 0 0 0
vertex -0.142919 -0.0121123 0.98966
end loop
end factet
facet normal -0.00766905 -0.00739567 -0.00119802
outer loop
vertex -0.142919 -0.0121123 0.98966
vertex 0 0 0
vertex -0.135577 -0.0198726 0.990568
end loop
end factet
facet normal -0.00465155 -0.0199201 -0.00103628
outer loop
vertex -0.135577 -0.0198726 0.990568
vertex 0 0 0
vertex -0.115796 -0.0246166 0.992968
end loop
end factet
facet normal -0.00219776 -0.0256761 -0.000892827
outer loop
vertex -0.115796 -0.0246166 0.992968
vertex 0 0 0
vertex -0.0902397 -0.0268941 0.995557
end loop
end factet
facet normal 0.00688164 -0.015826 0.000196245
outer loop
vertex -0.0902397 -0.0268941 0.995557
vertex 0 0 0
vertex -0.0744759 -0.0200213 0.997022
end loop
end factet
facet normal 0.00603078 -0.00772647 0.000295334
outer loop
vertex -0.0744759 -0.0200213 0.997022
vertex 0 0 0
vertex -0.0667748 -0.0139855 0.99767
end loop
end factet
facet normal 0.00170114 -0.0039556 5.84081e-05
outer loop
vertex -0.0667748 -0.0139855 0.99767
vertex 0 0 0
vertex -0.0628286 -0.0122843 0.997949
end loop
end factet
facet normal -0.0129379 -0.0279487 -0.00115858
outer loop
vertex -0.0628286 -0.0122843 0.997949
vertex 0 0 0
vertex -0.0348931 -0.0252627 0.999072
end loop
end factet
facet normal -0.000388464 -0.0159483 -0.000416839
outer loop
vertex -0.0348931 -0.0252627 0.999072
vertex 0 0 0
vertex -0.0189446 -0.0256621 0.999491
end loop
end factet
facet normal -2.11261e-05 -0.0561669 -0.00144249
outer loop
vertex -0.0189446 -0.0256621 0.999491
vertex 0 0 0
vertex 0.0372606 -0.02567 0.998976
end loop
end factet
facet normal 0.0145849 -0.024929 -0.00118458
outer loop
vertex 0.0372606 -0.02567 0.998976
vertex 0 0 0
vertex 0.062179 -0.0110452 0.998004
end loop
end factet
facet normal 0.000299891 -0.00165493 -3.69998e-05
outer loop
vertex 0.062179 -0.0110452 0.998004
vertex 0 0 0
vertex 0.0638309 -0.0107436 0.997903
end loop
end factet
facet normal 0.000653405 -0.00298115 -7.38906e-05
outer loop
vertex 0.0638309 -0.0107436 0.997903
vertex 0 0 0
vertex 0.0668063 -0.0100868 0.997715
end loop
end factet
facet normal 0.00232889 -0.00307567 -0.000187036
outer loop
vertex 0.0668063 -0.0100868 0.997715
vertex 0 0 0
vertex 0.0698764 -0.00775062 0.997526
end loop
end factet
facet normal 0.00105815 -0.0026932 -9.50486e-05
outer loop
vertex 0.0698764 -0.00775062 0.997526
vertex 0 0 0
vertex 0.0725633 -0.00668842 0.997341
end loop
end factet
facet normal 0.00175229 -0.0135527 -0.000218378
outer loop
vertex 0.0725633 -0.00668842 0.997341
vertex 0 0 0
vertex 0.0860746 -0.00492432 0.996277
end loop
end factet
facet normal 0.00184962 -0.00744378 -0.000196593
outer loop
vertex 0.0860746 -0.00492432 0.996277
vertex 0 0 0
vertex 0.0934891 -0.00306452 0.995616
end loop
end factet
facet normal -0.00103639 -0.00298679 8.81243e-05
outer loop
vertex 0.0934891 -0.00306452 0.995616
vertex 0 0 0
vertex 0.0964621 -0.00410459 0.995328
end loop
end factet
facet normal -0.00178617 -0.0060486 0.000148163
outer loop
vertex 0.0964621 -0.00410459 0.995328
vertex 0 0 0
vertex 0.10248 -0.00589662 0.994718
end loop
end factet
facet normal 0.00529208 -0.00889511 -0.000597941
outer loop
vertex 0.10248 -0.00589662 0.994718
vertex 0 0 0
vertex 0.111326 -0.000570906 0.993784
end loop
end factet
facet normal 0.00594782 -0.00251599 -0.000667734
outer loop
vertex 0.111326 -0.000570906 0.993784
vertex 0 0 0
vertex 0.113824 0.00541429 0.993486
end loop
end factet
facet normal 0.00923743 -0.0106692 -0.00100019
outer loop
vertex 0.113824 0.00541429 0.993486
vertex 0 0 0
vertex 0.124407 0.0147048 0.992122
end loop
end factet
facet normal 0.0334036 -0.00652333 -0.00409197
outer loop
vertex 0.124407 0.0147048 0.992122
vertex 0 0 0
vertex 0.130746 0.0483458 0.990237
end loop
end factet
facet normal 0.00658743 -0.00493468 -0.000628849
outer loop
vertex 0.130746 0.0483458 0.990237
vertex 0 0 0
vertex 0.135598 0.0549495 0.989239
end loop
end factet
facet normal 0.00343861 -0.00189486 -0.000366086
outer loop
vertex 0.135598 0.0549495 0.989239
vertex 0 0 0
vertex 0.137451 0.0584003 0.988786
end loop
end factet
facet normal 0.00368749 -0.00225 -0.000379707
outer loop
vertex 0.137451 0.0584003 0.988786
vertex 0 0 0
vertex 0.139652 0.0620981 0.988252
end loop
end factet
facet normal 0.00399029 -0.000876069 -0.000508828
outer loop
vertex 0.139652 0.0620981 0.988252
vertex 0 0 0
vertex 0.140485 0.066112 0.987873
end loop
end factet
facet normal 0.0138204 -0.0108755 -0.00123757
outer loop
vertex 0.140485 0.066112 0.987873
vertex 0 0 0
vertex 0.151125 0.0799284 0.985278
end loop
end factet
facet normal 0.0157383 -0.0127321 -0.00138113
outer loop
vertex 0.151125 0.0799284 0.985278
vertex 0 0 0
vertex 0.163528 0.0956273 0.981893
end loop
end factet
facet normal 0.00590072 -0.0103211 2.24486e-05
outer loop
vertex 0.163528 0.0956273 0.981893
vertex 0 0 0
vertex 0.173653 0.101411 0.979572
end loop
end factet
facet normal 0.000885233 -0.00548814 0.000411235
outer loop
vertex 0.173653 0.101411 0.979572
vertex 0 0 0
vertex 0.179068 0.102205 0.978514
end loop
end factet
facet normal 0.00148439 -0.0373289 0.00362733
outer loop
vertex 0.179068 0.102205 0.978514
vertex 0 0 0
vertex 0.21584 0.102936 0.970988
end loop
end factet
facet normal 0.000704743 -0.0482714 0.00496067
outer loop
vertex 0.21584 0.102936 0.970988
vertex 0 0 0
vertex 0.262967 0.102428 0.959352
end loop
end factet
facet normal 0.0161 -0.0350057 -0.000675652
outer loop
vertex 0.262967 0.102428 0.959352
vertex 0 0 0
vertex 0.296285 0.117975 0.947785
end loop
end factet
facet normal 0.0251808 -0.0570993 -0.000764295
outer loop
vertex 0.296285 0.117975 0.947785
vertex 0 0 0
vertex 0.349735 0.141838 0.926049
end loop
end factet
facet normal 0.0193108 -0.0293538 -0.00279703
outer loop
vertex 0.349735 0.141838 0.926049
vertex 0 0 0
vertex 0.376304 0.160611 0.912469
end loop
end factet
facet normal 0.00988261 -0.0131103 -0.00176796
outer loop
vertex 0.376304 0.160611 0.912469
vertex 0 0 0
vertex 0.387932 0.170272 0.905824
end loop
end factet
facet normal 0.00159554 -0.0479395 0.00832808
outer loop
vertex 0.387932 0.170272 0.905824
vertex 0 0 0
vertex 0.432315 0.168284 0.885881
end loop
end factet
facet normal 0.00806449 -0.0431618 0.0042636
outer loop
vertex 0.432315 0.168284 0.885881
vertex 0 0 0
vertex 0.470847 0.173421 0.865002
end loop
end factet
facet normal 0.00873393 -0.0130266 -0.00214248
outer loop
vertex 0.470847 0.173421 0.865002
vertex 0 0 0
vertex 0.481685 0.181963 0.857245
end loop
end factet
facet normal -0.00010027 -0.0316336 0.00677106
outer loop
vertex 0.481685 0.181963 0.857245
vertex 0 0 0
vertex 0.509783 0.17852 0.841577
end loop
end factet
facet normal 0.00345285 -0.00749725 -0.000501201
outer loop
vertex 0.509783 0.17852 0.841577
vertex 0 0 0
vertex 0.515985 0.181676 0.83711
end loop
end factet
facet normal 0.00880086 -0.00604051 -0.00411379
outer loop
vertex 0.515985 0.181676 0.83711
vertex 0 0 0
vertex 0.520261 0.191154 0.83234
end loop
end factet
facet normal 0.00641294 -0.023342 0.00135221
outer loop
vertex 0.520261 0.191154 0.83234
vertex 0 0 0
vertex 0.539795 0.195732 0.818725
end loop
end factet
facet normal 0.00641851 -0.00763419 -0.00240669
outer loop
vertex 0.539795 0.195732 0.818725
vertex 0 0 0
vertex 0.545546 0.202276 0.813305
end loop
end factet
facet normal 0.00136757 -0.0581883 0.0135546
outer loop
vertex 0.545546 0.202276 0.813305
vertex 0 0 0
vertex 0.594637 0.195632 0.77983
end loop
end factet
facet normal -0.0030334 -0.0240701 0.00835135
outer loop
vertex 0.594637 0.195632 0.77983
vertex 0 0 0
vertex 0.614846 0.188236 0.765854
end loop
end factet
facet normal 0.0200285 -0.0472233 -0.00447258
outer loop
vertex 0.614846 0.188236 0.765854
vertex 0 0 0
vertex 0.649354 0.206075 0.732033
end loop
end factet
facet normal 0.0691298 -0.110593 -0.0301888
outer loop
vertex 0.649354 0.206075 0.732033
vertex 0 0 0
vertex 0.718246 0.274428 0.639384
end loop
end factet
facet normal 0.0292408 -0.0310495 -0.0195207
outer loop
vertex 0.718246 0.274428 0.639384
vertex 0 0 0
vertex 0.731951 0.306843 0.608354
end loop
end factet
facet normal 0.0271351 -0.0386937 -0.0131316
outer loop
vertex 0.731951 0.306843 0.608354
vertex 0 0 0
vertex 0.75058 0.332593 0.570974
end loop
end factet
facet normal -0.00355418 -0.0200731 0.0163648
outer loop
vertex 0.75058 0.332593 0.570974
vertex 0 0 0
vertex 0.767228 0.318167 0.556894
end loop
end factet
facet normal 0.0161492 -0.0519839 0.00745109
outer loop
vertex 0.767228 0.318167 0.556894
vertex 0 0 0
vertex 0.797389 0.320963 0.511032
end loop
end factet
facet normal -0.00101314 -0.0250294 0.017301
outer loop
vertex 0.797389 0.320963 0.511032
vertex 0 0 0
vertex 0.815363 0.306501 0.491162
end loop
end factet
facet normal -0.00223203 -0.0460027 0.0324125
outer loop
vertex 0.815363 0.306501 0.491162
vertex 0 0 0
vertex 0.846598 0.27849 0.453557
end loop
end factet
facet normal -0.000858612 -0.0284266 0.019057
outer loop
vertex 0.846598 0.27849 0.453557
vertex 0 0 0
vertex 0.864302 0.261804 0.429465
end loop
end factet
facet normal -0.0067665 -0.0581108 0.0490423
outer loop
vertex 0.864302 0.261804 0.429465
vertex 0 0 0
vertex 0.899576 0.215747 0.379758
end loop
end factet
facet normal 0.00309258 -0.0441649 0.0177651
outer loop
vertex 0.899576 0.215747 0.379758
vertex 0 0 0
vertex 0.919157 0.200695 0.338929
end loop
end factet
facet normal 0.021899 -0.0925486 -0.00458698
outer loop
vertex 0.919157 0.200695 0.338929
vertex 0 0 0
vertex 0.945428 0.211421 0.247927
end loop
end factet
facet normal -4.51766e-05 -0.0392418 0.0336359
outer loop
vertex 0.945428 0.211421 0.247927
vertex 0 0 0
vertex 0.961004 0.179327 0.210505
end loop
end factet
facet normal -0.00592783 -0.0232019 0.0468274
outer loop
vertex 0.961004 0.179327 0.210505
vertex 0 0 0
vertex 0.972956 0.13283 0.18898
end loop
end factet
facet normal 0.0192618 -0.168496 0.0192631
outer loop
vertex 0.972956 0.13283 0.18898
vertex 0 0 0
vertex 0.99308 0.115778 0.019709
end loop
end factet
facet normal 0.0116793 -0.10484 0.0273872
outer loop
vertex 0.99308 0.115778 0.019709
vertex 0 0 0
vertex 0.992401 0.0881213 -0.085875
end loop
end factet
facet normal 0.00105979 -0.0223547 -0.0106921
outer loop
vertex 0.992401 0.0881213 -0.085875
vertex 0 0 0
vertex 0.989234 0.098614 -0.108127
end loop
end factet
facet normal 0.0017511 -0.0184234 -0.000782005
outer loop
vertex 0.989234 0.098614 -0.108127
vertex 0 0 0
vertex 0.986995 0.0991813 -0.126506
end loop
end factet
facet normal 0.00417411 -0.0424108 -0.000684045
outer loop
vertex 0.986995 0.0991813 -0.126506
vertex 0 0 0
vertex 0.980665 0.0992383 -0.168664
end loop
end factet
facet normal 0.00068046 -0.0492747 -0.0250357
outer loop
vertex 0.980665 0.0992383 -0.168664
vertex 0 0 0
vertex 0.968371 0.123523 -0.216796
end loop
end factet
facet normal -0.0154205 0.00822434 -0.0641934
outer loop
vertex 0.968371 0.123523 -0.216796
vertex 0 0 0
vertex 0.960079 0.188756 -0.206447
end loop
end factet
facet normal -0.0360437 0.060773 -0.112056
outer loop
vertex 0.960079 0.188756 -0.206447
vertex 0 0 0
vertex 0.943012 0.302116 -0.139477
end loop
end factet
facet normal -0.00166274 -0.00636688 -0.025033
outer loop
vertex 0.943012 0.302116 -0.139477
vertex 0 0 0
vertex 0.934246 0.325853 -0.144932
end loop
end factet
facet normal -0.00898941 0.0117809 -0.0314594
outer loop
vertex 0.934246 0.325853 -0.144932
vertex 0 0 0
vertex 0.925137 0.356349 -0.130909
end loop
end factet
facet normal -0.00629421 -0.0152439 -0.0859771
outer loop
vertex 0.925137 0.356349 -0.130909
vertex 0 0 0
vertex 0.888951 0.435346 -0.142266
end loop
end factet
facet normal -0.00191958 -0.0113374 -0.0466879
outer loop
vertex 0.888951 0.435346 -0.142266
vertex 0 0 0
vertex 0.865985 0.476619 -0.151344
end loop
end factet
facet normal 0.0293698 -0.0762957 -0.0722205
outer loop
vertex 0.865985 0.476619 -0.151344
vertex 0 0 0
vertex 0.814849 0.531871 -0.23051
end loop
end factet
facet normal 0.010417 -0.0565979 -0.0937683
outer loop
vertex 0.814849 0.531871 -0.23051
vertex 0 0 0
vertex 0.746983 0.602648 -0.28077
end loop
end factet
facet normal -0.0171178 0.00693721 -0.0306514
outer loop
vertex 0.746983 0.602648 -0.28077
vertex 0 0 0
vertex 0.72998 0.629964 -0.265092
end loop
end factet
facet normal -0.00830629 -0.019938 -0.0702537
outer loop
vertex 0.72998 0.629964 -0.265092
vertex 0 0 0
vertex 0.678463 0.681746 -0.273697
end loop
end factet
facet normal -0.00697665 0.00268213 -0.0106135
outer loop
vertex 0.678463 0.681746 -0.273697
vertex 0 0 0
vertex 0.671904 0.690799 -0.267097
end loop
end factet
facet normal -0.00639226 -0.00465648 -0.0281233
outer loop
vertex 0.671904 0.690799 -0.267097
vertex 0 0 0
vertex 0.650946 0.711108 -0.265696
end loop
end factet
facet normal -0.00559951 0.0025897 -0.00678757
outer loop
vertex 0.650946 0.711108 -0.265696
vertex 0 0 0
vertex 0.64678 0.716984 -0.260018
end loop
end factet
facet normal -0.00349954 -0.000824809 -0.0109793
outer loop
vertex 0.64678 0.716984 -0.260018
vertex 0 0 0
vertex 0.638651 0.724947 -0.258025
end loop
end factet
facet normal -0.0068267 0.00255312 -0.00972384
outer loop
vertex 0.638651 0.724947 -0.258025
vertex 0 0 0
vertex 0.632213 0.732865 -0.251426
end loop
end factet
facet normal -0.0157391 0.00361377 -0.0290427
outer loop
vertex 0.632213 0.732865 -0.251426
vertex 0 0 0
vertex 0.611488 0.754779 -0.237468
end loop
end factet
facet normal -0.0228452 0.011089 -0.0235814
outer loop
vertex 0.611488 0.754779 -0.237468
vertex 0 0 0
vertex 0.595955 0.77417 -0.213301
end loop
end factet
facet normal -0.020646 0.0140784 -0.00658712
outer loop
vertex 0.595955 0.77417 -0.213301
vertex 0 0 0
vertex 0.59366 0.782241 -0.188857
end loop
end factet
facet normal -0.0780106 0.0322066 -0.111823
outer loop
vertex 0.59366 0.782241 -0.188857
vertex 0 0 0
vertex 0.506415 0.855644 -0.106851
end loop
end factet
facet normal -0.0676819 0.024329 -0.125952
outer loop
vertex 0.506415 0.855644 -0.106851
vertex 0 0 0
vertex 0.395889 0.917612 -0.0354891
end loop
end factet
facet normal -0.101698 0.0423707 -0.0389258
outer loop
vertex 0.395889 0.917612 -0.0354891
vertex 0 0 0
vertex 0.358962 0.930346 0.0748477
end loop
end factet
facet normal -0.0457699 0.0190683 -0.0175087
outer loop
vertex 0.358962 0.930346 0.0748477
vertex 0 0 0
vertex 0.340749 0.931918 0.124171
end loop
end factet
facet normal -0.0598971 0.0257965 -0.0292365
outer loop
vertex 0.340749 0.931918 0.124171
vertex 0 0 0
vertex 0.309429 0.93206 0.188463
end loop
end factet
facet normal -0.0752998 0.0258463 -0.00419363
outer loop
vertex 0.309429 0.93206 0.188463
vertex 0 0 0
vertex 0.299664 0.9162 0.266044
end loop
end factet
facet normal -0.0190216 0.00694117 -0.0024786
outer loop
vertex 0.299664 0.9162 0.266044
vertex 0 0 0
vertex 0.295484 0.911691 0.285496
end loop
end factet
facet normal -0.0325129 0.00909777 0.00459787
outer loop
vertex 0.295484 0.911691 0.285496
vertex 0 0 0
vertex 0.296907 0.900521 0.317661
end loop
end factet
facet normal -0.0240971 0.00999285 -0.00580543
outer loop
vertex 0.296907 0.900521 0.317661
vertex 0 0 0
vertex 0.288399 0.894268 0.342214
end loop
end factet
facet normal -0.0301158 0.011293 -0.00413069
outer loop
vertex 0.288399 0.894268 0.342214
vertex 0 0 0
vertex 0.280689 0.884683 0.372223
end loop
end factet
facet normal -0.0203607 0.00389035 0.00610733
outer loop
vertex 0.280689 0.884683 0.372223
vertex 0 0 0
vertex 0.284578 0.875184 0.39124
end loop
end factet
facet normal -0.0240693 0.00498737 0.00635093
outer loop
vertex 0.284578 0.875184 0.39124
vertex 0 0 0
vertex 0.288093 0.863677 0.413599
end loop
end factet
facet normal -0.0124202 0.00114691 0.00625634
outer loop
vertex 0.288093 0.863677 0.413599
vertex 0 0 0
vertex 0.292994 0.856654 0.424616
end loop
end factet
facet normal -0.0114644 0.00287047 0.00211957
outer loop
vertex 0.292994 0.856654 0.424616
vertex 0 0 0
vertex 0.29357 0.851103 0.435247
end loop
end factet
facet normal -0.00917599 0.00475375 -0.00310658
outer loop
vertex 0.29357 0.851103 0.435247
vertex 0 0 0
vertex 0.28884 0.847972 0.444427
end loop
end factet
facet normal -0.0152017 0.00488228 0.000564381
outer loop
vertex 0.28884 0.847972 0.444427
vertex 0 0 0
vertex 0.287112 0.840944 0.458671
end loop
end factet
facet normal -0.00569093 0.00179888 0.000264168
outer loop
vertex 0.287112 0.840944 0.458671
vertex 0 0 0
vertex 0.286504 0.838243 0.463965
end loop
end factet
facet normal -0.0150954 0.00269657 0.00444968
outer loop
vertex 0.286504 0.838243 0.463965
vertex 0 0 0
vertex 0.288946 0.829858 0.477332
end loop
end factet
facet normal -0.00390866 0.00172184 -0.000627443
outer loop
vertex 0.288946 0.829858 0.477332
vertex 0 0 0
vertex 0.287601 0.828166 0.481069
end loop
end factet
facet normal -0.00272027 0.00107855 -0.000230446
outer loop
vertex 0.287601 0.828166 0.481069
vertex 0 0 0
vertex 0.28689 0.82692 0.48363
end loop
end factet
facet normal -0.00143582 0.000442326 9.54419e-05
outer loop
vertex 0.28689 0.82692 0.48363
vertex 0 0 0
vertex 0.286755 0.826197 0.484944
end loop
end factet
facet normal -0.00321531 0.000386938 0.00124206
outer loop
vertex 0.286755 0.826197 0.484944
vertex 0 0 0
vertex 0.287591 0.824277 0.487708
end loop
end factet
facet normal -0.00831813 0.000409916 0.00421225
outer loop
vertex 0.287591 0.824277 0.487708
vertex 0 0 0
vertex 0.290851 0.818973 0.494661
end loop
end factet
facet normal -0.00492027 0.00031966 0.00236376
outer loop
vertex 0.290851 0.818973 0.494661
vertex 0 0 0
vertex 0.292624 0.815839 0.498777
end loop
end factet
facet normal -0.0301798 0.00417101 0.0108835
outer loop
vertex 0.292624 0.815839 0.498777
vertex 0 0 0
vertex 0.29927 0.797174 0.524358
end loop
end factet
facet normal -0.00844243 -0.00378466 0.0105722
outer loop
vertex 0.29927 0.797174 0.524358
vertex 0 0 0
vertex 0.309653 0.789505 0.529904
end loop
end factet
facet normal -0.00637171 0.00148149 0.0015161
outer loop
vertex 0.309653 0.789505 0.529904
vertex 0 0 0
vertex 0.310058 0.785641 0.535381
end loop
end factet
facet normal -0.0103163 0.00122777 0.00417285
outer loop
vertex 0.310058 0.785641 0.535381
vertex 0 0 0
vertex 0.312659 0.778775 0.543833
end loop
end factet
facet normal -0.0267967 0.0140076 -0.0046531
outer loop
vertex 0.312659 0.778775 0.543833
vertex 0 0 0
vertex 0.301271 0.765292 0.568826
end loop
end factet
facet normal -0.020152 0.0144172 -0.00872347
outer loop
vertex 0.301271 0.765292 0.568826
vertex 0 0 0
vertex 0.286291 0.756193 0.588396
end loop
end factet
facet normal -0.013391 -0.000738025 0.00746404
outer loop
vertex 0.286291 0.756193 0.588396
vertex 0 0 0
vertex 0.292335 0.746088 0.598241
end loop
end factet
facet normal -0.0171809 0.00533481 0.00174236
outer loop
vertex 0.292335 0.746088 0.598241
vertex 0 0 0
vertex 0.290396 0.735178 0.612522
end loop
end factet
facet normal -0.0114435 0.0176874 -0.0158039
outer loop
vertex 0.290396 0.735178 0.612522
vertex 0 0 0
vertex 0.267843 0.732503 0.625859
end loop
end factet
facet normal -0.0163492 0.0446538 -0.0452659
outer loop
vertex 0.267843 0.732503 0.625859
vertex 0 0 0
vertex 0.20616 0.732815 0.648444
end loop
end factet
facet normal -0.024323 0.0216698 -0.0167563
outer loop
vertex 0.20616 0.732815 0.648444
vertex 0 0 0
vertex 0.179691 0.720006 0.670301
end loop
end factet
facet normal -0.0149932 0.0056092 -0.00200585
outer loop
vertex 0.179691 0.720006 0.670301
vertex 0 0 0
vertex 0.174464 0.710222 0.682017
end loop
end factet
facet normal -0.00920257 0.0174206 -0.015787
outer loop
vertex 0.174464 0.710222 0.682017
vertex 0 0 0
vertex 0.151315 0.706474 0.691374
end loop
end factet
facet normal -0.0398519 0.0423668 -0.03457
outer loop
vertex 0.151315 0.706474 0.691374
vertex 0 0 0
vertex 0.0972537 0.682533 0.724355
end loop
end factet
facet normal -0.0999442 0.0813524 -0.0632367
outer loop
vertex 0.0972537 0.682533 0.724355
vertex 0 0 0
vertex -0.00584268 0.609219 0.79298
end loop
end factet
facet normal -0.0223056 0.045565 -0.0351704
outer loop
vertex -0.00584268 0.609219 0.79298
vertex 0 0 0
vertex -0.0633902 0.590164 0.804791
end loop
end factet
facet normal -0.0112552 0.00828697 -0.00696347
outer loop
vertex -0.0633902 0.590164 0.804791
vertex 0 0 0
vertex -0.0741613 0.580593 0.81081
end loop
end factet
facet normal -0.00579458 0.00782736 -0.00613491
outer loop
vertex -0.0741613 0.580593 0.81081
vertex 0 0 0
vertex -0.0840648 0.575401 0.81354
end loop
end factet
facet normal -0.00438949 0.00272077 -0.00237793
outer loop
vertex -0.0840648 0.575401 0.81354
vertex 0 0 0
vertex -0.0876452 0.571621 0.815824
end loop
end factet
facet normal -0.00432917 0.00448663 -0.00360872
outer loop
vertex -0.0876452 0.571621 0.815824
vertex 0 0 0
vertex -0.093366 0.567758 0.817884
end loop
end factet
facet normal -0.0214312 0.0081285 -0.00808913
outer loop
vertex -0.093366 0.567758 0.817884
vertex 0 0 0
vertex -0.104579 0.549306 0.829051
end loop
end factet
facet normal -0.0074473 0.00491022 -0.0041928
outer loop
vertex -0.104579 0.549306 0.829051
vertex 0 0 0
vertex -0.110948 0.542667 0.832588
end loop
end factet
facet normal -0.0573307 -0.0055071 -0.00405028
outer loop
vertex -0.110948 0.542667 0.832588
vertex 0 0 0
vertex -0.108376 0.49358 0.862922
end loop
end factet
facet normal -0.0320955 -0.00510253 -0.00111234
outer loop
vertex -0.108376 0.49358 0.862922
vertex 0 0 0
vertex -0.104464 0.465502 0.87886
end loop
end factet
facet normal -0.00423181 0.00942819 -0.0054968
outer loop
vertex -0.104464 0.465502 0.87886
vertex 0 0 0
vertex -0.115302 0.461177 0.879785
end loop
end factet
facet normal -0.00392154 0.00549117 -0.00339238
outer loop
vertex -0.115302 0.461177 0.879785
vertex 0 0 0
vertex -0.121694 0.457322 0.880935
end loop
end factet
facet normal -5.42998e-05 0.00934531 -0.00485896
outer loop
vertex -0.121694 0.457322 0.880935
vertex 0 0 0
vertex -0.132142 0.456658 0.879774
end loop
end factet
facet normal -0.00397038 0.00709183 -0.00427746
outer loop
vertex -0.132142 0.456658 0.879774
vertex 0 0 0
vertex -0.140329 0.45258 0.880613
end loop
end factet
facet normal -0.0012871 0.00360689 -0.00205883
outer loop
vertex -0.140329 0.45258 0.880613
vertex 0 0 0
vertex -0.144436 0.451154 0.880681
end loop
end factet
facet normal -0.00366062 0.00602026 -0.00368442
outer loop
vertex -0.144436 0.451154 0.880681
vertex 0 0 0
vertex -0.151396 0.447383 0.881435
end loop
end factet
facet normal -0.00576478 0.00278652 -0.0024045
outer loop
vertex -0.151396 0.447383 0.881435
vertex 0 0 0
vertex -0.154924 0.441928 0.883571
end loop
end factet
facet normal -0.00493476 0.00700818 -0.00437047
outer loop
vertex -0.154924 0.441928 0.883571
vertex 0 0 0
vertex -0.16304 0.43687 0.884626
end loop
end factet
facet normal -0.00344425 0.0154243 -0.00825205
outer loop
vertex -0.16304 0.43687 0.884626
vertex 0 0 0
vertex -0.180264 0.432408 0.883475
end loop
end factet
facet normal -0.00135243 0.00558807 -0.00301097
outer loop
vertex -0.180264 0.432408 0.883475
vertex 0 0 0
vertex -0.186499 0.430662 0.883034
end loop
end factet
facet normal -0.00325733 0.0055484 -0.00339396
outer loop
vertex -0.186499 0.430662 0.883034
vertex 0 0 0
vertex -0.192856 0.427141 0.883378
end loop
end factet
facet normal -0.00431418 0.00743259 -0.00453573
outer loop
vertex -0.192856 0.427141 0.883378
vertex 0 0 0
vertex -0.20135 0.422435 0.883746
end loop
end factet
facet normal 0.0201111 0.0215911 -0.0057386
outer loop
vertex -0.20135 0.422435 0.883746
vertex 0 0 0
vertex -0.222764 0.438862 0.870504
end loop
end factet
facet normal -0.00366908 -0.0063179 0.00224623
outer loop
vertex -0.222764 0.438862 0.870504
vertex 0 0 0
vertex -0.229243 0.441542 0.867461
end loop
end factet
solid fragmentGeometry
