solid fragmentGeometry
facet normal 0.040302 -0.0186402 0.0167437
outer loop
vertex -1.24142 -3.80029 -0.129303
vertex 0.322472 -0.781985 -0.533396
vertex 0.308751 -0.797759 -0.517931
end loop
end factet
facet normal 0.0580559 -0.0268284 0.0242982
outer loop
vertex -1.24142 -3.80029 -0.129303
vertex 0.308751 -0.797759 -0.517931
vertex 0.289925 -0.818549 -0.495905
end loop
end factet
facet normal 0.198936 -0.107205 -0.0409627
outer loop
vertex -1.24142 -3.80029 -0.129303
vertex 0.289925 -0.818549 -0.495905
vertex 0.28206 -0.860612 -0.424015
end loop
end factet
facet normal 0.105745 -0.0560545 -0.0124917
outer loop
vertex -1.24142 -3.80029 -0.129303
vertex 0.28206 -0.860612 -0.424015
vertex 0.276185 -0.880148 -0.386085
end loop
end factet
facet normal 0.065789 -0.032977 0.0138021
outer loop
vertex -1.24142 -3.80029 -0.129303
vertex 0.276185 -0.880148 -0.386085
vertex 0.264388 -0.893753 -0.362359
end loop
end factet
facet normal 0.121559 -0.0628154 0.00201273
outer loop
vertex -1.24142 -3.80029 -0.129303
vertex 0.264388 -0.893753 -0.362359
vertex 0.253622 -0.913197 -0.318977
end loop
end factet
facet normal 0.0650733 -0.0349736 -0.0194268
outer loop
vertex -1.24142 -3.80029 -0.129303
vertex 0.253622 -0.913197 -0.318977
vertex 0.256819 -0.920019 -0.29599
end loop
end factet
facet normal 0.0401504 -0.0212162 -0.00572109
outer loop
vertex -1.24142 -3.80029 -0.129303
vertex 0.256819 -0.920019 -0.29599
vertex 0.256436 -0.924574 -0.281786
end loop
end factet
facet normal 0.0948215 -0.0526613 -0.0617123
outer loop
vertex -1.24142 -3.80029 -0.129303
vertex 0.256436 -0.924574 -0.281786
vertex 0.275854 -0.928494 -0.248605
end loop
end factet
facet normal 0.0276902 -0.0160752 -0.0347958
outer loop
vertex -1.24142 -3.80029 -0.129303
vertex 0.275854 -0.928494 -0.248605
vertex 0.288705 -0.927102 -0.239021
end loop
end factet
facet normal 0.0349357 -0.0179229 0.0178657
outer loop
vertex -1.24142 -3.80029 -0.129303
vertex 0.288705 -0.927102 -0.239021
vertex 0.279308 -0.933073 -0.226633
end loop
end factet
facet normal 0.0193046 -0.0101093 0.00381517
outer loop
vertex -1.24142 -3.80029 -0.129303
vertex 0.279308 -0.933073 -0.226633
vertex 0.276702 -0.935476 -0.219819
end loop
end factet
facet normal 0.0114397 -0.0057285 0.0105586
outer loop
vertex -1.24142 -3.80029 -0.129303
vertex 0.276702 -0.935476 -0.219819
vertex 0.271746 -0.937873 -0.21575
end loop
end factet
facet normal 0.00298321 -0.00143415 0.0047307
outer loop
vertex -1.24142 -3.80029 -0.129303
vertex 0.271746 -0.937873 -0.21575
vertex 0.269644 -0.938725 -0.214682
end loop
end factet
facet normal 0.00913715 -0.00371803 0.0370979
outer loop
vertex -1.24142 -3.80029 -0.129303
vertex 0.269644 -0.938725 -0.214682
vertex 0.253979 -0.943839 -0.211337
end loop
end factet
facet normal 0.0520115 -0.0263278 0.031373
outer loop
vertex -1.24142 -3.80029 -0.129303
vertex 0.253979 -0.943839 -0.211337
vertex 0.238882 -0.951695 -0.192902
end loop
end factet
facet normal 0.00305474 -0.00100502 0.0260859
outer loop
vertex -1.24142 -3.80029 -0.129303
vertex 0.238882 -0.951695 -0.192902
vertex 0.228252 -0.95453 -0.191767
end loop
end factet
facet normal 0.00227252 -0.000930436 0.0110793
outer loop
vertex -1.24142 -3.80029 -0.129303
vertex 0.228252 -0.95453 -0.191767
vertex 0.22372 -0.955767 -0.190941
end loop
end factet
facet normal 0.0401164 -0.020439 0.0103326
outer loop
vertex -1.24142 -3.80029 -0.129303
vertex 0.22372 -0.955767 -0.190941
vertex 0.218006 -0.959809 -0.17675
end loop
end factet
facet normal 0.0356575 -0.0174439 0.0524831
outer loop
vertex -1.24142 -3.80029 -0.129303
vertex 0.218006 -0.959809 -0.17675
vertex 0.195941 -0.966791 -0.16408
end loop
end factet
facet normal 0.0209886 -0.0104985 0.0120983
outer loop
vertex -1.24142 -3.80029 -0.129303
vertex 0.195941 -0.966791 -0.16408
vertex 0.190495 -0.96911 -0.156645
end loop
end factet
facet normal 0.0103244 -0.00512279 0.0102468
outer loop
vertex -1.24142 -3.80029 -0.129303
vertex 0.190495 -0.96911 -0.156645
vertex 0.186154 -0.970537 -0.152984
end loop
end factet
facet normal 0.00687166 -0.00336919 0.0116467
outer loop
vertex -1.24142 -3.80029 -0.129303
vertex 0.186154 -0.970537 -0.152984
vertex 0.181391 -0.97182 -0.150545
end loop
end factet
facet normal 0.0246895 -0.0123367 0.011034
outer loop
vertex -1.24142 -3.80029 -0.129303
vertex 0.181391 -0.97182 -0.150545
vertex 0.176364 -0.974058 -0.141799
end loop
end factet
facet normal 0.00786471 -0.00389874 0.0105402
outer loop
vertex -1.24142 -3.80029 -0.129303
vertex 0.176364 -0.974058 -0.141799
vertex 0.172046 -0.975231 -0.139011
end loop
end factet
facet normal 0.00358902 -0.00175693 0.011281
outer loop
vertex -1.24142 -3.80029 -0.129303
vertex 0.172046 -0.975231 -0.139011
vertex 0.167573 -0.97619 -0.137738
end loop
end factet
facet normal 0.0495734 -0.0245623 0.0571404
outer loop
vertex -1.24142 -3.80029 -0.129303
vertex 0.167573 -0.97619 -0.137738
vertex 0.144339 -0.982205 -0.120166
end loop
end factet
facet normal 0.019648 -0.0097555 0.0289412
outer loop
vertex -1.24142 -3.80029 -0.129303
vertex 0.144339 -0.982205 -0.120166
vertex 0.132868 -0.984648 -0.113202
end loop
end factet
facet normal 0.0298702 -0.0146009 0.00376105
outer loop
vertex -1.24142 -3.80029 -0.129303
vertex 0.132868 -0.984648 -0.113202
vertex 0.130833 -0.986081 -0.102601
end loop
end factet
facet normal 0.015879 -0.00776263 0.00208664
outer loop
vertex -1.24142 -3.80029 -0.129303
vertex 0.130833 -0.986081 -0.102601
vertex 0.129743 -0.986795 -0.0969656
end loop
end factet
facet normal 0.0276589 -0.0138108 0.0288184
outer loop
vertex -1.24142 -3.80029 -0.129303
vertex 0.129743 -0.986795 -0.0969656
vertex 0.118359 -0.989138 -0.0871618
end loop
end factet
facet normal 0.0217638 -0.0106708 0.00957251
outer loop
vertex -1.24142 -3.80029 -0.129303
vertex 0.118359 -0.989138 -0.0871618
vertex 0.114415 -0.990252 -0.0794365
end loop
end factet
facet normal 0.013864 -0.00698932 0.0169051
outer loop
vertex -1.24142 -3.80029 -0.129303
vertex 0.114415 -0.990252 -0.0794365
vertex 0.10786 -0.991369 -0.0745226
end loop
end factet
facet normal 0.00914018 -0.00450486 0.00586247
outer loop
vertex -1.24142 -3.80029 -0.129303
vertex 0.10786 -0.991369 -0.0745226
vertex 0.105538 -0.991857 -0.0712781
end loop
end factet
facet normal 0.0104829 -0.00530156 0.0132539
outer loop
vertex -1.24142 -3.80029 -0.129303
vertex 0.105538 -0.991857 -0.0712781
vertex 0.10044 -0.992647 -0.0675617
end loop
end factet
facet normal -0.00200804 7.80895e-05 0.0400906
outer loop
vertex -1.24142 -3.80029 -0.129303
vertex 0.10044 -0.992647 -0.0675617
vertex 0.0855178 -0.993992 -0.0683065
end loop
end factet
facet normal -0.000722319 -4.12911e-05 0.0176134
outer loop
vertex -1.24142 -3.80029 -0.129303
vertex 0.0855178 -0.993992 -0.0683065
vertex 0.0789951 -0.994513 -0.0685753
end loop
end factet
facet normal -0.0142143 0.00619555 0.0228136
outer loop
vertex -1.24142 -3.80029 -0.129303
vertex 0.0789951 -0.994513 -0.0685753
vertex 0.0707424 -0.994772 -0.073647
end loop
end factet
facet normal 0.019611 -0.0100744 0.0454762
outer loop
vertex -1.24142 -3.80029 -0.129303
vertex 0.0707424 -0.994772 -0.073647
vertex 0.0538079 -0.996322 -0.0666875
end loop
end factet
facet normal 0.0765252 -0.0370041 0.074116
outer loop
vertex -1.24142 -3.80029 -0.129303
vertex 0.0538079 -0.996322 -0.0666875
vertex 0.0261947 -0.998878 -0.0394528
end loop
end factet
facet normal 0.0180089 -0.00901039 0.0268605
outer loop
vertex -1.24142 -3.80029 -0.129303
vertex 0.0261947 -0.998878 -0.0394528
vertex 0.0164067 -0.999319 -0.0330384
end loop
end factet
facet normal -0.00123841 -0.00167392 0.0648868
outer loop
vertex -1.24142 -3.80029 -0.129303
vertex 0.0164067 -0.999319 -0.0330384
vertex -0.00680252 -0.999416 -0.0334839
end loop
end factet
facet normal -0.0142666 0.00477986 0.0441039
outer loop
vertex -1.24142 -3.80029 -0.129303
vertex -0.00680252 -0.999416 -0.0334839
vertex -0.0223682 -0.999006 -0.0385635
end loop
end factet
facet normal 0.00391629 -0.003094 0.0429032
outer loop
vertex -1.24142 -3.80029 -0.129303
vertex -0.0223682 -0.999006 -0.0385635
vertex -0.0375096 -0.998605 -0.0371525
end loop
end factet
facet normal -0.0116475 0.00395579 0.0319004
outer loop
vertex -1.24142 -3.80029 -0.129303
vertex -0.0375096 -0.998605 -0.0371525
vertex -0.04862 -0.997964 -0.0412887
end loop
end factet
facet normal -0.0295482 0.0115133 0.0338686
outer loop
vertex -1.24142 -3.80029 -0.129303
vertex -0.04862 -0.997964 -0.0412887
vertex -0.0602275 -0.99684 -0.0517976
end loop
end factet
facet normal 0.00333439 -0.00392279 0.0910749
outer loop
vertex -1.24142 -3.80029 -0.129303
vertex -0.0602275 -0.99684 -0.0517976
vertex -0.0917287 -0.9945 -0.0505435
end loop
end factet
facet normal 0.0484966 -0.0220631 0.0780637
outer loop
vertex -1.24142 -3.80029 -0.129303
vertex -0.0917287 -0.9945 -0.0505435
vertex -0.118681 -0.992377 -0.0331994
end loop
end factet
facet normal 0.0108534 -0.00516605 0.0241446
outer loop
vertex -1.24142 -3.80029 -0.129303
vertex -0.118681 -0.992377 -0.0331994
vertex -0.126921 -0.99148 -0.0293034
end loop
end factet
facet normal 0.0190902 -0.00968527 0.0592816
outer loop
vertex -1.24142 -3.80029 -0.129303
vertex -0.126921 -0.99148 -0.0293034
vertex -0.146996 -0.988883 -0.0224144
end loop
end factet
facet normal 0.0426985 -0.0180976 0.0388227
outer loop
vertex -1.24142 -3.80029 -0.129303
vertex -0.146996 -0.988883 -0.0224144
vertex -0.160101 -0.987075 -0.00715803
end loop
end factet
facet normal 0.133465 -0.0519093 0.0140362
outer loop
vertex -1.24142 -3.80029 -0.129303
vertex -0.160101 -0.987075 -0.00715803
vertex -0.164505 -0.985551 0.0403503
end loop
end factet
facet normal 0.123589 -0.0515859 0.0713577
outer loop
vertex -1.24142 -3.80029 -0.129303
vertex -0.164505 -0.985551 0.0403503
vertex -0.187221 -0.978662 0.0846735
end loop
end factet
facet normal 0.0894819 -0.038817 0.0710151
outer loop
vertex -1.24142 -3.80029 -0.129303
vertex -0.187221 -0.978662 0.0846735
vertex -0.20945 -0.970796 0.116983
end loop
end factet
facet normal 0.137578 -0.0479278 -0.0258431
outer loop
vertex -1.24142 -3.80029 -0.129303
vertex -0.20945 -0.970796 0.116983
vertex -0.198541 -0.965927 0.16603
end loop
end factet
facet normal 0.132625 -0.0525756 0.0362544
outer loop
vertex -1.24142 -3.80029 -0.129303
vertex -0.198541 -0.965927 0.16603
vertex -0.207169 -0.954612 0.214
end loop
end factet
facet normal 0.0254667 -0.0089123 -0.00284696
outer loop
vertex -1.24142 -3.80029 -0.129303
vertex -0.207169 -0.954612 0.214
vertex -0.205534 -0.952867 0.22316
end loop
end factet
facet normal 0.0582297 -0.0186112 -0.0207829
outer loop
vertex -1.24142 -3.80029 -0.129303
vertex -0.205534 -0.952867 0.22316
vertex -0.197026 -0.949544 0.244022
end loop
end factet
facet normal 0.0994741 -0.0416397 0.0396821
outer loop
vertex -1.24142 -3.80029 -0.129303
vertex -0.197026 -0.949544 0.244022
vertex -0.206489 -0.937378 0.280509
end loop
end factet
facet normal 0.174892 -0.0552034 -0.0560207
outer loop
vertex -1.24142 -3.80029 -0.129303
vertex -0.206489 -0.937378 0.280509
vertex -0.181136 -0.921374 0.343889
end loop
end factet
facet normal 0.170176 -0.0758509 0.0801671
outer loop
vertex -1.24142 -3.80029 -0.129303
vertex -0.181136 -0.921374 0.343889
vertex -0.197906 -0.8913 0.407943
end loop
end factet
facet normal 0.160305 -0.0839158 0.143008
outer loop
vertex -1.24142 -3.80029 -0.129303
vertex -0.197906 -0.8913 0.407943
vertex -0.23268 -0.851193 0.470457
end loop
end factet
facet normal 0.374991 -0.137474 0.0452812
outer loop
vertex -1.24142 -3.80029 -0.129303
vertex -0.23268 -0.851193 0.470457
vertex -0.215809 -0.75698 0.616772
end loop
end factet
facet normal 0.165627 -0.0755847 0.0806344
outer loop
vertex -1.24142 -3.80029 -0.129303
vertex -0.215809 -0.75698 0.616772
vertex -0.220523 -0.692348 0.68704
end loop
end factet
facet normal 0.174672 -0.0708411 0.0512636
outer loop
vertex -1.24142 -3.80029 -0.129303
vertex -0.220523 -0.692348 0.68704
vertex -0.20955 -0.608727 0.765206
end loop
end factet
facet normal 0.158973 -0.0622615 0.0387614
outer loop
vertex -1.24142 -3.80029 -0.129303
vertex -0.20955 -0.608727 0.765206
vertex -0.186716 -0.500539 0.845339
end loop
end factet
facet normal 0.0188246 -0.0153799 0.0316994
outer loop
vertex -1.24142 -3.80029 -0.129303
vertex -0.186716 -0.500539 0.845339
vertex -0.189174 -0.478173 0.85765
end loop
end factet
facet normal 0.0309777 -0.00570047 -0.013839
outer loop
vertex -1.24142 -3.80029 -0.129303
vertex -0.189174 -0.478173 0.85765
vertex -0.176256 -0.45054 0.875184
end loop
end factet
facet normal 0.0247633 -0.0249957 0.0570958
outer loop
vertex -1.24142 -3.80029 -0.129303
vertex -0.176256 -0.45054 0.875184
vertex -0.179446 -0.40697 0.895642
end loop
end factet
facet normal -5.74589e-05 -0.0290575 0.096261
outer loop
vertex -1.24142 -3.80029 -0.129303
vertex -0.179446 -0.40697 0.895642
vertex -0.198485 -0.37716 0.904629
end loop
end factet
facet normal 0.0157475 -0.00139463 -0.0112672
outer loop
vertex -1.24142 -3.80029 -0.129303
vertex -0.198485 -0.37716 0.904629
vertex -0.187934 -0.353332 0.916427
end loop
end factet
facet normal 0.034332 0.0314636 -0.138298
outer loop
vertex -1.24142 -3.80029 -0.129303
vertex -0.187934 -0.353332 0.916427
vertex -0.140599 -0.329731 0.933547
end loop
end factet
facet normal 0.0141194 0.00723422 -0.0382457
outer loop
vertex -1.24142 -3.80029 -0.129303
vertex -0.140599 -0.329731 0.933547
vertex -0.0971801 -0.227587 0.968896
end loop
end factet
facet normal -0.00672364 0.0161434 -0.0455127
outer loop
vertex -1.24142 -3.80029 -0.129303
vertex -0.0971801 -0.227587 0.968896
vertex -0.0705358 -0.18417 0.98036
end loop
end factet
facet normal -0.0135317 -0.0107379 0.0492702
outer loop
vertex -1.24142 -3.80029 -0.129303
vertex -0.0705358 -0.18417 0.98036
vertex -0.0759942 -0.158948 0.984358
end loop
end factet
facet normal -0.0405073 -0.0452974 0.190499
outer loop
vertex -1.24142 -3.80029 -0.129303
vertex -0.0759942 -0.158948 0.984358
vertex -0.114035 -0.114347 0.986874
end loop
end factet
facet normal -0.0474463 -0.0127711 0.090097
outer loop
vertex -1.24142 -3.80029 -0.129303
vertex -0.114035 -0.114347 0.986874
vertex -0.121449 -0.0586701 0.990862
end loop
end factet
facet normal -0.0993671 -0.0137944 0.145426
outer loop
vertex -1.24142 -3.80029 -0.129303
vertex -0.121449 -0.0586701 0.990862
vertex -0.134079 0.0289836 0.990547
end loop
end factet
facet normal -0.0465193 7.62939e-06 0.0459738
outer loop
vertex -1.24142 -3.80029 -0.129303
vertex -0.134079 0.0289836 0.990547
vertex -0.135953 0.0640202 0.988645
end loop
end factet
facet normal -0.1251 0.00295508 0.113488
outer loop
vertex -1.24142 -3.80029 -0.129303
vertex -0.135953 0.0640202 0.988645
vertex -0.142541 0.143652 0.979309
end loop
end factet
facet normal -0.0975556 -0.0084542 0.126775
outer loop
vertex -1.24142 -3.80029 -0.129303
vertex -0.142541 0.143652 0.979309
vertex -0.16128 0.191767 0.968098
end loop
end factet
facet normal -0.041934 0.00546682 0.0213876
outer loop
vertex -1.24142 -3.80029 -0.129303
vertex -0.16128 0.191767 0.968098
vertex -0.160722 0.213629 0.963603
end loop
end factet
facet normal -0.0842423 -0.00830066 0.113787
outer loop
vertex -1.24142 -3.80029 -0.129303
vertex -0.160722 0.213629 0.963603
vertex -0.179843 0.247899 0.951947
end loop
end factet
facet normal -0.0578017 -0.00469136 0.0743141
outer loop
vertex -1.24142 -3.80029 -0.129303
vertex -0.179843 0.247899 0.951947
vertex -0.192474 0.269738 0.943502
end loop
end factet
facet normal -0.0776062 -0.00150847 0.0816026
outer loop
vertex -1.24142 -3.80029 -0.129303
vertex -0.192474 0.269738 0.943502
vertex -0.205065 0.298678 0.932062
end loop
end factet
facet normal -0.0564108 -0.00662827 0.0806799
outer loop
vertex -1.24142 -3.80029 -0.129303
vertex -0.205065 0.298678 0.932062
vertex -0.220356 0.31605 0.922798
end loop
end factet
facet normal -0.257395 0.0340648 0.116522
outer loop
vertex -1.24142 -3.80029 -0.129303
vertex -0.220356 0.31605 0.922798
vertex -0.225538 0.409277 0.884096
end loop
end factet
facet normal 0.0936885 -0.0494553 0.111516
outer loop
vertex -1.24142 -3.80029 -0.129303
vertex -0.225538 0.409277 0.884096
vertex -0.263771 0.36062 0.894638
end loop
end factet
facet normal -0.00827742 -0.0185614 0.0833292
outer loop
vertex -1.24142 -3.80029 -0.129303
vertex -0.263771 0.36062 0.894638
vertex -0.285507 0.353349 0.890859
end loop
end factet
facet normal -0.0028944 -0.007357 0.0326664
outer loop
vertex -1.24142 -3.80029 -0.129303
vertex -0.285507 0.353349 0.890859
vertex -0.294129 0.350054 0.889354
end loop
end factet
facet normal -0.00112677 -0.0138447 0.0574555
outer loop
vertex -1.24142 -3.80029 -0.129303
vertex -0.294129 0.350054 0.889354
vertex -0.309789 0.342099 0.88713
end loop
end factet
facet normal 0.00483704 -0.0164276 0.0625157
outer loop
vertex -1.24142 -3.80029 -0.129303
vertex -0.309789 0.342099 0.88713
vertex -0.327608 0.329969 0.885321
end loop
end factet
facet normal -0.0691833 -0.039013 0.221121
outer loop
vertex -1.24142 -3.80029 -0.129303
vertex -0.327608 0.329969 0.885321
vertex -0.383233 0.320531 0.866252
end loop
end factet
facet normal -0.0131893 -0.0467424 0.204846
outer loop
vertex -1.24142 -3.80029 -0.129303
vertex -0.383233 0.320531 0.866252
vertex -0.441721 0.278383 0.852869
end loop
end factet
facet normal 0.0109425 -0.0155242 0.055558
outer loop
vertex -1.24142 -3.80029 -0.129303
vertex -0.441721 0.278383 0.852869
vertex -0.459642 0.256454 0.850271
end loop
end factet
facet normal 0.0367534 -0.00932199 0.00927329
outer loop
vertex -1.24142 -3.80029 -0.129303
vertex -0.459642 0.256454 0.850271
vertex -0.466617 0.232125 0.853456
end loop
end factet
facet normal 0.0439036 -0.0140115 0.0228779
outer loop
vertex -1.24142 -3.80029 -0.129303
vertex -0.466617 0.232125 0.853456
vertex -0.479239 0.195958 0.855529
end loop
end factet
facet normal 0.0129755 -0.00843376 0.0241807
outer loop
vertex -1.24142 -3.80029 -0.129303
vertex -0.479239 0.195958 0.855529
vertex -0.488858 0.177251 0.854166
end loop
end factet
facet normal 0.107616 -0.00628078 -0.0569463
outer loop
vertex -1.24142 -3.80029 -0.129303
vertex -0.488858 0.177251 0.854166
vertex -0.486077 0.116277 0.866146
end loop
end factet
facet normal 0.109087 -0.00255662 -0.0727153
outer loop
vertex -1.24142 -3.80029 -0.129303
vertex -0.486077 0.116277 0.866146
vertex -0.481704 0.0426832 0.875294
end loop
end factet
facet normal -0.0059402 -0.0117414 0.0494075
outer loop
vertex -1.24142 -3.80029 -0.129303
vertex -0.481704 0.0426832 0.875294
vertex -0.500808 0.0110838 0.865487
end loop
end factet
facet normal 0.0735164 0.00144154 -0.0602551
outer loop
vertex -1.24142 -3.80029 -0.129303
vertex -0.500808 0.0110838 0.865487
vertex -0.503641 -0.0848538 0.859736
end loop
end factet
facet normal 0.013586 0.00420183 -0.025919
outer loop
vertex -1.24142 -3.80029 -0.129303
vertex -0.503641 -0.0848538 0.859736
vertex -0.514588 -0.175117 0.839365
end loop
end factet
facet normal 0.0207081 0.0294941 -0.125918
outer loop
vertex -1.24142 -3.80029 -0.129303
vertex -0.514588 -0.175117 0.839365
vertex -0.502766 -0.289393 0.814542
end loop
end factet
facet normal -0.0973315 0.020008 0.00174618
outer loop
vertex -1.24142 -3.80029 -0.129303
vertex -0.502766 -0.289393 0.814542
vertex -0.522851 -0.382496 0.76179
end loop
end factet
facet normal -0.0429542 0.0229379 -0.0533409
outer loop
vertex -1.24142 -3.80029 -0.129303
vertex -0.522851 -0.382496 0.76179
vertex -0.518625 -0.436627 0.735109
end loop
end factet
facet normal -0.0485735 0.0288841 -0.0717804
outer loop
vertex -1.24142 -3.80029 -0.129303
vertex -0.518625 -0.436627 0.735109
vertex -0.509084 -0.491539 0.706556
end loop
end factet
facet normal -0.121531 0.0284852 -0.00628018
outer loop
vertex -1.24142 -3.80029 -0.129303
vertex -0.509084 -0.491539 0.706556
vertex -0.519652 -0.547862 0.655598
end loop
end factet
facet normal -0.0709841 0.020315 -0.0189059
outer loop
vertex -1.24142 -3.80029 -0.129303
vertex -0.519652 -0.547862 0.655598
vertex -0.521031 -0.580267 0.625953
end loop
end factet
facet normal -0.0576315 0.00945157 0.0146739
outer loop
vertex -1.24142 -3.80029 -0.129303
vertex -0.521031 -0.580267 0.625953
vertex -0.529024 -0.595627 0.604452
end loop
end factet
facet normal -0.0638223 0.017227 -0.0132744
outer loop
vertex -1.24142 -3.80029 -0.129303
vertex -0.529024 -0.595627 0.604452
vertex -0.530151 -0.619332 0.579109
end loop
end factet
facet normal -0.0290906 0.0129567 -0.0289712
outer loop
vertex -1.24142 -3.80029 -0.129303
vertex -0.530151 -0.619332 0.579109
vertex -0.524678 -0.635584 0.566344
end loop
end factet
facet normal -0.0116575 0.00286409 -0.001019
outer loop
vertex -1.24142 -3.80029 -0.129303
vertex -0.524678 -0.635584 0.566344
vertex -0.525161 -0.639138 0.56188
end loop
end factet
facet normal -0.0163586 0.00155562 0.00983739
outer loop
vertex -1.24142 -3.80029 -0.129303
vertex -0.525161 -0.639138 0.56188
vertex -0.528718 -0.641105 0.556275
end loop
end factet
facet normal -0.0195301 0.00880262 -0.0202603
outer loop
vertex -1.24142 -3.80029 -0.129303
vertex -0.528718 -0.641105 0.556275
vertex -0.524679 -0.651626 0.547809
end loop
end factet
facet normal -0.0345733 0.00833529 -0.00216365
outer loop
vertex -1.24142 -3.80029 -0.129303
vertex -0.524679 -0.651626 0.547809
vertex -0.526167 -0.661185 0.534774
end loop
end factet
facet normal -0.0491219 0.0194565 -0.0390642
outer loop
vertex -1.24142 -3.80029 -0.129303
vertex -0.526167 -0.661185 0.534774
vertex -0.518652 -0.682817 0.514549
end loop
end factet
facet normal -0.0311348 0.00818744 -0.00469208
outer loop
vertex -1.24142 -3.80029 -0.129303
vertex -0.518652 -0.682817 0.514549
vertex -0.519082 -0.691164 0.502838
end loop
end factet
facet normal -0.0465674 0.0100844 0.00361276
outer loop
vertex -1.24142 -3.80029 -0.129303
vertex -0.519082 -0.691164 0.502838
vertex -0.522449 -0.700656 0.48593
end loop
end factet
facet normal -0.0188015 0.00522372 -0.00434637
outer loop
vertex -1.24142 -3.80029 -0.129303
vertex -0.522449 -0.700656 0.48593
vertex -0.522212 -0.705677 0.478868
end loop
end factet
facet normal -0.0398027 0.00939295 -0.000725508
outer loop
vertex -1.24142 -3.80029 -0.129303
vertex -0.522212 -0.705677 0.478868
vertex -0.523924 -0.714054 0.464359
end loop
end factet
facet normal -0.0391523 0.0138963 -0.0249231
outer loop
vertex -1.24142 -3.80029 -0.129303
vertex -0.523924 -0.714054 0.464359
vertex -0.518933 -0.727323 0.449121
end loop
end factet
facet normal -0.145375 0.0246592 0.0505757
outer loop
vertex -1.24142 -3.80029 -0.129303
vertex -0.518933 -0.727323 0.449121
vertex -0.538819 -0.741901 0.399069
end loop
end factet
facet normal -0.0842892 0.0129303 0.0372376
outer loop
vertex -1.24142 -3.80029 -0.129303
vertex -0.538819 -0.741901 0.399069
vertex -0.552129 -0.746838 0.370656
end loop
end factet
facet normal -0.071293 0.00714546 0.0546505
outer loop
vertex -1.24142 -3.80029 -0.129303
vertex -0.552129 -0.746838 0.370656
vertex -0.569568 -0.744807 0.34764
end loop
end factet
facet normal -0.16264 0.0184641 0.110814
outer loop
vertex -1.24142 -3.80029 -0.129303
vertex -0.569568 -0.744807 0.34764
vertex -0.604715 -0.739711 0.295207
end loop
end factet
facet normal -0.130147 0.0173313 0.0702477
outer loop
vertex -1.24142 -3.80029 -0.129303
vertex -0.604715 -0.739711 0.295207
vertex -0.627045 -0.736719 0.253098
end loop
end factet
facet normal -0.0574501 0.00942957 0.0167559
outer loop
vertex -1.24142 -3.80029 -0.129303
vertex -0.627045 -0.736719 0.253098
vertex -0.632785 -0.738068 0.234177
end loop
end factet
facet normal -0.0142536 0.00329877 -0.00392425
outer loop
vertex -1.24142 -3.80029 -0.129303
vertex -0.632785 -0.738068 0.234177
vertex -0.631952 -0.740324 0.229255
end loop
end factet
facet normal -0.0393683 0.00807075 -0.00195956
outer loop
vertex -1.24142 -3.80029 -0.129303
vertex -0.631952 -0.740324 0.229255
vertex -0.632085 -0.744205 0.215934
end loop
end factet
facet normal -0.0177774 0.00430872 -0.00676465
outer loop
vertex -1.24142 -3.80029 -0.129303
vertex -0.632085 -0.744205 0.215934
vertex -0.630491 -0.747315 0.209766
end loop
end factet
facet normal -0.018662 0.00642331 -0.0242108
outer loop
vertex -1.24142 -3.80029 -0.129303
vertex -0.630491 -0.747315 0.209766
vertex -0.624023 -0.75462 0.202842
end loop
end factet
facet normal -0.0143744 0.00341597 -0.00460422
outer loop
vertex -1.24142 -3.80029 -0.129303
vertex -0.624023 -0.75462 0.202842
vertex -0.622956 -0.756815 0.197883
end loop
end factet
facet normal -0.0353338 0.0065389 0.00596476
outer loop
vertex -1.24142 -3.80029 -0.129303
vertex -0.622956 -0.756815 0.197883
vertex -0.625152 -0.75798 0.186148
end loop
end factet
facet normal -0.0449405 0.00693026 0.0209581
outer loop
vertex -1.24142 -3.80029 -0.129303
vertex -0.625152 -0.75798 0.186148
vertex -0.631647 -0.756031 0.171578
end loop
end factet
facet normal -0.0399422 0.00780407 0.00198734
outer loop
vertex -1.24142 -3.80029 -0.129303
vertex -0.631647 -0.756031 0.171578
vertex -0.632704 -0.75805 0.158258
end loop
end factet
facet normal -0.0304924 0.00576451 0.0035615
outer loop
vertex -1.24142 -3.80029 -0.129303
vertex -0.632704 -0.75805 0.158258
vertex -0.634057 -0.758962 0.148149
end loop
end factet
facet normal -0.0603138 0.0142433 -0.0240999
outer loop
vertex -1.24142 -3.80029 -0.129303
vertex -0.634057 -0.758962 0.148149
vertex -0.627894 -0.767782 0.127513
end loop
end factet
facet normal -0.025959 0.00738531 -0.0251914
outer loop
vertex -1.24142 -3.80029 -0.129303
vertex -0.627894 -0.767782 0.127513
vertex -0.62101 -0.774815 0.118357
end loop
end factet
facet normal -0.0338685 0.0074797 -0.00653076
outer loop
vertex -1.24142 -3.80029 -0.129303
vertex -0.62101 -0.774815 0.118357
vertex -0.619447 -0.777722 0.106925
end loop
end factet
facet normal -0.0165752 0.00342101 -0.000131011
outer loop
vertex -1.24142 -3.80029 -0.129303
vertex -0.619447 -0.777722 0.106925
vertex -0.619541 -0.778389 0.101389
end loop
end factet
facet normal -0.00728714 0.00173606 -0.00309718
outer loop
vertex -1.24142 -3.80029 -0.129303
vertex -0.619541 -0.778389 0.101389
vertex -0.618717 -0.779364 0.0989028
end loop
end factet
facet normal -0.0324575 0.0085178 -0.0241902
outer loop
vertex -1.24142 -3.80029 -0.129303
vertex -0.618717 -0.779364 0.0989028
vertex -0.612064 -0.785935 0.0876622
end loop
end factet
facet normal -0.0203492 0.00496082 -0.00989497
outer loop
vertex -1.24142 -3.80029 -0.129303
vertex -0.612064 -0.785935 0.0876622
vertex -0.609372 -0.788766 0.0807077
end loop
end factet
facet normal -0.00450993 0.0021968 -0.017929
outer loop
vertex -1.24142 -3.80029 -0.129303
vertex -0.609372 -0.788766 0.0807077
vertex -0.604277 -0.792856 0.0789249
end loop
end factet
facet normal -0.00614965 0.00166038 -0.00516415
outer loop
vertex -1.24142 -3.80029 -0.129303
vertex -0.604277 -0.792856 0.0789249
vertex -0.602837 -0.794161 0.0767897
end loop
end factet
facet normal -0.015597 0.00459889 -0.0187532
outer loop
vertex -1.24142 -3.80029 -0.129303
vertex -0.602837 -0.794161 0.0767897
vertex -0.597553 -0.798654 0.0712932
end loop
end factet
facet normal -0.0324742 0.00799065 -0.0153347
outer loop
vertex -1.24142 -3.80029 -0.129303
vertex -0.597553 -0.798654 0.0712932
vertex -0.593315 -0.802716 0.0602029
end loop
end factet
facet normal -0.0485533 0.00997649 0.00824368
outer loop
vertex -1.24142 -3.80029 -0.129303
vertex -0.593315 -0.802716 0.0602029
vertex -0.595881 -0.801863 0.0440593
end loop
end factet
facet normal -0.067922 0.0145887 0.000593662
outer loop
vertex -1.24142 -3.80029 -0.129303
vertex -0.595881 -0.801863 0.0440593
vertex -0.596223 -0.802534 0.0213679
end loop
end factet
facet normal -0.0285564 0.00676322 -0.0122788
outer loop
vertex -1.24142 -3.80029 -0.129303
vertex -0.596223 -0.802534 0.0213679
vertex -0.592727 -0.805319 0.011702
end loop
end factet
facet normal -0.0282088 0.00702469 -0.0194319
outer loop
vertex -1.24142 -3.80029 -0.129303
vertex -0.592727 -0.805319 0.011702
vertex -0.58714 -0.809482 0.00208723
end loop
end factet
facet normal -0.0407921 0.00938864 -0.0105814
outer loop
vertex -1.24142 -3.80029 -0.129303
vertex -0.58714 -0.809482 0.00208723
vertex -0.58407 -0.81162 -0.0116459
end loop
end factet
facet normal -0.0260904 0.00687671 -0.0289123
outer loop
vertex -1.24142 -3.80029 -0.129303
vertex -0.58407 -0.81162 -0.0116459
vertex -0.575672 -0.817421 -0.0206041
end loop
end factet
facet normal -0.0234002 0.00599466 -0.0211838
outer loop
vertex -1.24142 -3.80029 -0.129303
vertex -0.575672 -0.817421 -0.0206041
vertex -0.569482 -0.821506 -0.0285978
end loop
end factet
facet normal -0.0123867 0.00305467 -0.00770712
outer loop
vertex -1.24142 -3.80029 -0.129303
vertex -0.569482 -0.821506 -0.0285978
vertex -0.567213 -0.822918 -0.0328038
end loop
end factet
facet normal -0.0687725 0.0181907 -0.0807651
outer loop
vertex -1.24142 -3.80029 -0.129303
vertex -0.567213 -0.822918 -0.0328038
vertex -0.543406 -0.837575 -0.0563773
end loop
end factet
facet normal -0.0369595 0.00939746 -0.0280268
outer loop
vertex -1.24142 -3.80029 -0.129303
vertex -0.543406 -0.837575 -0.0563773
vertex -0.534997 -0.842035 -0.068962
end loop
end factet
facet normal 0.00266555 -6.68392e-05 -0.0279293
outer loop
vertex -1.24142 -3.80029 -0.129303
vertex -0.534997 -0.842035 -0.068962
vertex -0.526801 -0.847251 -0.0681673
end loop
end factet
facet normal -0.0302778 0.00849551 -0.0564415
outer loop
vertex -1.24142 -3.80029 -0.129303
vertex -0.526801 -0.847251 -0.0681673
vertex -0.509951 -0.856604 -0.078614
end loop
end factet
facet normal -0.0118489 0.00326211 -0.0184577
outer loop
vertex -1.24142 -3.80029 -0.129303
vertex -0.509951 -0.856604 -0.078614
vertex -0.504401 -0.859501 -0.0826891
end loop
end factet
facet normal -0.0127405 0.00338909 -0.0123703
outer loop
vertex -1.24142 -3.80029 -0.129303
vertex -0.504401 -0.859501 -0.0826891
vertex -0.500638 -0.861269 -0.0870495
end loop
end factet
facet normal -0.0262622 0.00778334 -0.0809612
outer loop
vertex -1.24142 -3.80029 -0.129303
vertex -0.500638 -0.861269 -0.0870495
vertex -0.476301 -0.874007 -0.0961684
end loop
end factet
facet normal -0.0119254 0.0034547 -0.0297308
outer loop
vertex -1.24142 -3.80029 -0.129303
vertex -0.476301 -0.874007 -0.0961684
vertex -0.467289 -0.878397 -0.100293
end loop
end factet
facet normal -0.0513784 0.0139806 -0.0371058
outer loop
vertex -1.24142 -3.80029 -0.129303
vertex -0.467289 -0.878397 -0.100293
vertex -0.45563 -0.882325 -0.117916
end loop
end factet
facet normal -0.0839151 0.0230214 -0.10859
outer loop
vertex -1.24142 -3.80029 -0.129303
vertex -0.45563 -0.882325 -0.117916
vertex -0.421764 -0.894756 -0.146723
end loop
end factet
facet normal -0.109088 0.0304306 -0.0572214
outer loop
vertex -1.24142 -3.80029 -0.129303
vertex -0.421764 -0.894756 -0.146723
vertex -0.402601 -0.896639 -0.184256
end loop
end factet
facet normal -0.0528655 0.0150858 -0.00983357
outer loop
vertex -1.24142 -3.80029 -0.129303
vertex -0.402601 -0.896639 -0.184256
vertex -0.398594 -0.894491 -0.202504
end loop
end factet
facet normal -0.048186 0.0133589 -0.024508
outer loop
vertex -1.24142 -3.80029 -0.129303
vertex -0.398594 -0.894491 -0.202504
vertex -0.390111 -0.894323 -0.219091
end loop
end factet
facet normal -0.136524 0.0383922 -0.0518687
outer loop
vertex -1.24142 -3.80029 -0.129303
vertex -0.390111 -0.894323 -0.219091
vertex -0.370906 -0.889696 -0.266214
end loop
end factet
facet normal -0.0412764 0.0079199 -0.0940745
outer loop
vertex -1.24142 -3.80029 -0.129303
vertex -0.370906 -0.889696 -0.266214
vertex -0.340896 -0.897425 -0.280032
end loop
end factet
facet normal -0.087876 0.0240546 -0.0617449
outer loop
vertex -1.24142 -3.80029 -0.129303
vertex -0.340896 -0.897425 -0.280032
vertex -0.319021 -0.895474 -0.310406
end loop
end factet
facet normal -0.349753 0.0993839 -0.187291
outer loop
vertex -1.24142 -3.80029 -0.129303
vertex -0.319021 -0.895474 -0.310406
vertex -0.24566 -0.867495 -0.432555
end loop
end factet
facet normal -0.219238 0.0473312 -0.262143
outer loop
vertex -1.24142 -3.80029 -0.129303
vertex -0.24566 -0.867495 -0.432555
vertex -0.149475 -0.84746 -0.509381
end loop
end factet
facet normal -0.169668 0.0686162 0.0456343
outer loop
vertex -1.24142 -3.80029 -0.129303
vertex -0.149475 -0.84746 -0.509381
vertex -0.149738 -0.80638 -0.572128
end loop
end factet
facet normal -0.0879653 0.0311528 -0.00623536
outer loop
vertex -1.24142 -3.80029 -0.129303
vertex -0.149738 -0.80638 -0.572128
vertex -0.139514 -0.784053 -0.604812
end loop
end factet
facet normal -0.0774122 0.0405841 0.0780437
outer loop
vertex -1.24142 -3.80029 -0.129303
vertex -0.139514 -0.784053 -0.604812
vertex -0.155472 -0.75691 -0.634756
end loop
end factet
facet normal -0.0724441 0.0289037 0.018389
outer loop
vertex -1.24142 -3.80029 -0.129303
vertex -0.155472 -0.75691 -0.634756
vertex -0.153078 -0.733266 -0.662487
end loop
end factet
facet normal -0.0259081 0.0149707 0.0332315
outer loop
vertex -1.24142 -3.80029 -0.129303
vertex -0.153078 -0.733266 -0.662487
vertex -0.160011 -0.722271 -0.672845
end loop
end factet
facet normal -0.0163472 0.0108223 0.0287619
outer loop
vertex -1.24142 -3.80029 -0.129303
vertex -0.160011 -0.722271 -0.672845
vertex -0.166616 -0.714474 -0.679533
end loop
end factet
facet normal -0.076246 0.0308524 0.0240903
outer loop
vertex -1.24142 -3.80029 -0.129303
vertex -0.166616 -0.714474 -0.679533
vertex -0.164282 -0.685358 -0.709433
end loop
end factet
facet normal -0.0295296 0.0210015 0.0579364
outer loop
vertex -1.24142 -3.80029 -0.129303
vertex -0.164282 -0.685358 -0.709433
vertex -0.177168 -0.668835 -0.721991
end loop
end factet
facet normal -0.0246037 0.00660396 -0.00928736
outer loop
vertex -1.24142 -3.80029 -0.129303
vertex -0.177168 -0.668835 -0.721991
vertex -0.17119 -0.659974 -0.731525
end loop
end factet
facet normal -0.0195173 0.00514877 -0.00783634
outer loop
vertex -1.24142 -3.80029 -0.129303
vertex -0.17119 -0.659974 -0.731525
vertex -0.166226 -0.65273 -0.739129
end loop
end factet
facet normal -0.0117825 0.00437957 0.00183105
outer loop
vertex -1.24142 -3.80029 -0.129303
vertex -0.166226 -0.65273 -0.739129
vertex -0.165066 -0.64763 -0.743861
end loop
end factet
facet normal -0.0301327 0.0122356 0.00999331
outer loop
vertex -1.24142 -3.80029 -0.129303
vertex -0.165066 -0.64763 -0.743861
vertex -0.163467 -0.633663 -0.756141
end loop
end factet
facet normal -0.0252308 0.0307669 0.112038
outer loop
vertex -1.24142 -3.80029 -0.129303
vertex -0.163467 -0.633663 -0.756141
vertex -0.190941 -0.610435 -0.768707
end loop
end factet
facet normal -0.0309541 0.0183671 0.0407751
outer loop
vertex -1.24142 -3.80029 -0.129303
vertex -0.190941 -0.610435 -0.768707
vertex -0.197251 -0.590778 -0.782351
end loop
end factet
facet normal 9.63211e-05 0.00399494 0.019788
outer loop
vertex -1.24142 -3.80029 -0.129303
vertex -0.197251 -0.590778 -0.782351
vertex -0.202622 -0.588337 -0.782818
end loop
end factet
facet normal 0.00423813 0.00947583 0.0533097
outer loop
vertex -1.24142 -3.80029 -0.129303
vertex -0.202622 -0.588337 -0.782818
vertex -0.217614 -0.583374 -0.782508
end loop
end factet
facet normal -0.00994349 0.012693 0.046926
outer loop
vertex -1.24142 -3.80029 -0.129303
vertex -0.217614 -0.583374 -0.782508
vertex -0.228505 -0.57176 -0.787957
end loop
end factet
facet normal -0.00410843 0.0049665 0.0180264
outer loop
vertex -1.24142 -3.80029 -0.129303
vertex -0.228505 -0.57176 -0.787957
vertex -0.232593 -0.566993 -0.790202
end loop
end factet
facet normal -0.0100048 0.00570053 0.0126169
outer loop
vertex -1.24142 -3.80029 -0.129303
vertex -0.232593 -0.566993 -0.790202
vertex -0.234283 -0.559902 -0.794746
end loop
end factet
facet normal -0.00593209 0.00366682 0.00887752
outer loop
vertex -1.24142 -3.80029 -0.129303
vertex -0.234283 -0.559902 -0.794746
vertex -0.235625 -0.555405 -0.7975
end loop
end factet
facet normal -0.0106978 0.0138659 0.0512326
outer loop
vertex -1.24142 -3.80029 -0.129303
vertex -0.235625 -0.555405 -0.7975
vertex -0.247051 -0.541332 -0.803695
end loop
end factet
facet normal 0.00384188 0.00560039 0.0327284
outer loop
vertex -1.24142 -3.80029 -0.129303
vertex -0.247051 -0.541332 -0.803695
vertex -0.256023 -0.537824 -0.803242
end loop
end factet
facet normal -0.00298667 0.00118911 0.00138927
outer loop
vertex -1.24142 -3.80029 -0.129303
vertex -0.256023 -0.537824 -0.803242
vertex -0.25588 -0.535938 -0.804547
end loop
end factet
facet normal -0.00427461 0.00402343 0.013212
outer loop
vertex -1.24142 -3.80029 -0.129303
vertex -0.25588 -0.535938 -0.804547
vertex -0.258504 -0.531224 -0.806832
end loop
end factet
facet normal -0.00352025 0.00206602 0.00486159
outer loop
vertex -1.24142 -3.80029 -0.129303
vertex -0.258504 -0.531224 -0.806832
vertex -0.259134 -0.528374 -0.808499
end loop
end factet
facet normal -0.00284696 0.00413412 0.0157979
outer loop
vertex -1.24142 -3.80029 -0.129303
vertex -0.259134 -0.528374 -0.808499
vertex -0.262611 -0.523874 -0.810303
end loop
end factet
facet normal -0.00196934 0.00436515 0.0181711
outer loop
vertex -1.24142 -3.80029 -0.129303
vertex -0.262611 -0.523874 -0.810303
vertex -0.266805 -0.519348 -0.811845
end loop
end factet
facet normal -0.0073061 0.0050503 0.0138438
outer loop
vertex -1.24142 -3.80029 -0.129303
vertex -0.266805 -0.519348 -0.811845
vertex -0.268974 -0.512445 -0.815508
end loop
end factet
facet normal -0.0149364 0.0072009 0.0133352
outer loop
vertex -1.24142 -3.80029 -0.129303
vertex -0.268974 -0.512445 -0.815508
vertex -0.269603 -0.500858 -0.822469
end loop
end factet
facet normal -0.00440979 0.003856 0.0121717
outer loop
vertex -1.24142 -3.80029 -0.129303
vertex -0.269603 -0.500858 -0.822469
vertex -0.271765 -0.495673 -0.824895
end loop
end factet
facet normal -0.00400901 0.00315267 0.00938916
outer loop
vertex -1.24142 -3.80029 -0.129303
vertex -0.271765 -0.495673 -0.824895
vertex -0.273302 -0.491227 -0.827044
end loop
end factet
facet normal 0.00147295 0.00782472 0.0391531
outer loop
vertex -1.24142 -3.80029 -0.129303
vertex -0.273302 -0.491227 -0.827044
vertex -0.282966 -0.483817 -0.828161
end loop
end factet
facet normal 0.000683546 0.00840473 0.0408225
outer loop
vertex -1.24142 -3.80029 -0.129303
vertex -0.282966 -0.483817 -0.828161
vertex -0.292763 -0.475125 -0.829787
end loop
end factet
facet normal -0.000865221 0.00431794 0.0193253
outer loop
vertex -1.24142 -3.80029 -0.129303
vertex -0.292763 -0.475125 -0.829787
vertex -0.297132 -0.47007 -0.831112
end loop
end factet
facet normal -0.0583942 0.0277713 0.0532105
outer loop
vertex -1.24142 -3.80029 -0.129303
vertex -0.297132 -0.47007 -0.831112
vertex -0.297155 -0.4138 -0.860505
end loop
end factet
facet normal -0.0788171 0.0179744 -0.0185366
outer loop
vertex -1.24142 -3.80029 -0.129303
vertex -0.297155 -0.4138 -0.860505
vertex -0.27199 -0.343179 -0.899027
end loop
end factet
facet normal -0.0199258 0.00629544 0.00317955
outer loop
vertex -1.24142 -3.80029 -0.129303
vertex -0.27199 -0.343179 -0.899027
vertex -0.265387 -0.316353 -0.910764
end loop
end factet
facet normal -0.013504 0.00722367 0.0153382
outer loop
vertex -1.24142 -3.80029 -0.129303
vertex -0.265387 -0.316353 -0.910764
vertex -0.262075 -0.288813 -0.920817
end loop
end factet
facet normal -0.0266066 0.00409049 -0.0147736
outer loop
vertex -1.24142 -3.80029 -0.129303
vertex -0.262075 -0.288813 -0.920817
vertex -0.244646 -0.241406 -0.93908
end loop
end factet
facet normal -0.0137682 -0.0315822 -0.155748
outer loop
vertex -1.24142 -3.80029 -0.129303
vertex -0.244646 -0.241406 -0.93908
vertex -0.215953 -0.295215 -0.930705
end loop
end factet
facet normal -0.0213246 -0.0572926 -0.277866
outer loop
vertex -1.24142 -3.80029 -0.129303
vertex -0.215953 -0.295215 -0.930705
vertex -0.152641 -0.349778 -0.924314
end loop
end factet
facet normal 0.0837088 -0.17805 -0.658131
outer loop
vertex -1.24142 -3.80029 -0.129303
vertex -0.152641 -0.349778 -0.924314
vertex -0.00978637 -0.501516 -0.865093
end loop
end factet
facet normal 0.106828 -0.0792716 -0.176581
outer loop
vertex -1.24142 -3.80029 -0.129303
vertex -0.00978637 -0.501516 -0.865093
vertex 0.014995 -0.578515 -0.815534
end loop
end factet
facet normal 0.0680022 -0.0358545 -0.0438282
outer loop
vertex -1.24142 -3.80029 -0.129303
vertex 0.014995 -0.578515 -0.815534
vertex 0.0131659 -0.618089 -0.785998
end loop
end factet
facet normal 0.0286391 -0.00822556 0.0148544
outer loop
vertex -1.24142 -3.80029 -0.129303
vertex 0.0131659 -0.618089 -0.785998
vertex 0.0024729 -0.633371 -0.773845
end loop
end factet
facet normal 0.163507 -0.0818045 -0.0863926
outer loop
vertex -1.24142 -3.80029 -0.129303
vertex 0.0024729 -0.633371 -0.773845
vertex 0.000841159 -0.706979 -0.707234
end loop
end factet
facet normal 0.0593201 -0.0168213 0.0374739
outer loop
vertex -1.24142 -3.80029 -0.129303
vertex 0.000841159 -0.706979 -0.707234
vertex -0.0202409 -0.729309 -0.683885
end loop
end factet
facet normal 0.000738859 -0.0273804 -0.149991
outer loop
vertex -1.24142 -3.80029 -0.129303
vertex -0.0202409 -0.729309 -0.683885
vertex 0.0286269 -0.729242 -0.683657
end loop
end factet
facet normal 0.0141717 -0.0193239 -0.074584
outer loop
vertex -1.24142 -3.80029 -0.129303
vertex 0.0286269 -0.729242 -0.683657
vertex 0.0513957 -0.732912 -0.67838
end loop
end factet
facet normal 0.00280154 -0.00788164 -0.0374341
outer loop
vertex -1.24142 -3.80029 -0.129303
vertex 0.0513957 -0.732912 -0.67838
vertex 0.0636591 -0.732771 -0.677491
end loop
end factet
facet normal 0.0139667 -0.0138031 -0.043988
outer loop
vertex -1.24142 -3.80029 -0.129303
vertex 0.0636591 -0.732771 -0.677491
vertex 0.0764928 -0.736311 -0.672306
end loop
end factet
facet normal 0.00188208 -0.00781018 -0.0395021
outer loop
vertex -1.24142 -3.80029 -0.129303
vertex 0.0764928 -0.736311 -0.672306
vertex 0.0898735 -0.735176 -0.671893
end loop
end factet
facet normal 0.00672531 -0.0105982 -0.0433688
outer loop
vertex -1.24142 -3.80029 -0.129303
vertex 0.0898735 -0.735176 -0.671893
vertex 0.103947 -0.735351 -0.669667
end loop
end factet
facet normal 0.0166647 -0.0132384 -0.033597
outer loop
vertex -1.24142 -3.80029 -0.129303
vertex 0.103947 -0.735351 -0.669667
vertex 0.113041 -0.739605 -0.66348
end loop
end factet
facet normal 0.0142926 -0.012569 -0.0357771
outer loop
vertex -1.24142 -3.80029 -0.129303
vertex 0.113041 -0.739605 -0.66348
vertex 0.123415 -0.742577 -0.658292
end loop
end factet
facet normal 0.0209358 -0.0144849 -0.0297108
outer loop
vertex -1.24142 -3.80029 -0.129303
vertex 0.123415 -0.742577 -0.658292
vertex 0.130614 -0.748218 -0.650469
end loop
end factet
facet normal 0.0154361 -0.012511 -0.03263
outer loop
vertex -1.24142 -3.80029 -0.129303
vertex 0.130614 -0.748218 -0.650469
vertex 0.139883 -0.751381 -0.644871
end loop
end factet
facet normal 0.0200919 -0.0206346 -0.0681963
outer loop
vertex -1.24142 -3.80029 -0.129303
vertex 0.139883 -0.751381 -0.644871
vertex 0.161577 -0.752868 -0.63803
end loop
end factet
facet normal 0.0317361 -0.022483 -0.0471559
outer loop
vertex -1.24142 -3.80029 -0.129303
vertex 0.161577 -0.752868 -0.63803
vertex 0.173849 -0.759823 -0.626455
end loop
end factet
facet normal 0.0371722 -0.0306799 -0.081811
outer loop
vertex -1.24142 -3.80029 -0.129303
vertex 0.173849 -0.759823 -0.626455
vertex 0.198674 -0.764297 -0.613497
end loop
end factet
facet normal 0.0188754 -0.0189405 -0.0626216
outer loop
vertex -1.24142 -3.80029 -0.129303
vertex 0.198674 -0.764297 -0.613497
vertex 0.219735 -0.76338 -0.607426
end loop
end factet
facet normal 0.0275871 -0.0211393 -0.0499649
outer loop
vertex -1.24142 -3.80029 -0.129303
vertex 0.219735 -0.76338 -0.607426
vertex 0.234698 -0.766477 -0.597855
end loop
end factet
facet normal 0.0473206 -0.0391179 -0.104205
outer loop
vertex -1.24142 -3.80029 -0.129303
vertex 0.234698 -0.766477 -0.597855
vertex 0.268554 -0.767487 -0.582101
end loop
end factet
facet normal 0.0464301 -0.033731 -0.071094
outer loop
vertex -1.24142 -3.80029 -0.129303
vertex 0.268554 -0.767487 -0.582101
vertex 0.289945 -0.771606 -0.566177
end loop
end factet
facet normal 0.0765688 -0.0479354 -0.0639234
outer loop
vertex -1.24142 -3.80029 -0.129303
vertex 0.289945 -0.771606 -0.566177
vertex 0.303956 -0.785639 -0.538872
end loop
end factet
facet normal 0.0180036 -0.0160453 -0.0501714
outer loop
vertex -1.24142 -3.80029 -0.129303
vertex 0.303956 -0.785639 -0.538872
vertex 0.322472 -0.781985 -0.533396
end loop
end factet
facet normal 0.0205066 -0.00233155 0.0158157
outer loop
vertex 0.322472 -0.781985 -0.533396
vertex 0 0 0
vertex 0.308751 -0.797759 -0.517931
end loop
end factet
facet normal 0.0283394 -0.00294995 0.0214376
outer loop
vertex 0.308751 -0.797759 -0.517931
vertex 0 0 0
vertex 0.289925 -0.818549 -0.495905
end loop
end factet
facet normal 0.0797049 0.0169425 0.018633
outer loop
vertex 0.289925 -0.818549 -0.495905
vertex 0 0 0
vertex 0.28206 -0.860612 -0.424015
end loop
end factet
facet normal 0.0409268 0.00820746 0.0105665
outer loop
vertex 0.28206 -0.860612 -0.424015
vertex 0 0 0
vertex 0.276185 -0.880148 -0.386085
end loop
end factet
facet normal 0.0261351 0.001998 0.0141409
outer loop
vertex 0.276185 -0.880148 -0.386085
vertex 0 0 0
vertex 0.264388 -0.893753 -0.362359
end loop
end factet
facet normal 0.0458184 0.00756855 0.0147627
outer loop
vertex 0.264388 -0.893753 -0.362359
vertex 0 0 0
vertex 0.253622 -0.913197 -0.318977
end loop
end factet
facet normal 0.023168 0.00684985 -0.00118925
outer loop
vertex 0.253622 -0.913197 -0.318977
vertex 0 0 0
vertex 0.256819 -0.920019 -0.29599
end loop
end factet
facet normal 0.0144159 0.00353427 0.00152256
outer loop
vertex 0.256819 -0.920019 -0.29599
vertex 0 0 0
vertex 0.256436 -0.924574 -0.281786
end loop
end factet
facet normal 0.0317827 0.0139806 -0.0169486
outer loop
vertex 0.256436 -0.924574 -0.281786
vertex 0 0 0
vertex 0.275854 -0.928494 -0.248605
end loop
end factet
facet normal 0.00855307 0.00583884 -0.0123164
outer loop
vertex 0.275854 -0.928494 -0.248605
vertex 0 0 0
vertex 0.288705 -0.927102 -0.239021
end loop
end factet
facet normal 0.0129113 0.00133 0.0104364
outer loop
vertex 0.288705 -0.927102 -0.239021
vertex 0 0 0
vertex 0.279308 -0.933073 -0.226633
end loop
end factet
facet normal 0.00690305 0.00131287 0.00310224
outer loop
vertex 0.279308 -0.933073 -0.226633
vertex 0 0 0
vertex 0.276702 -0.935476 -0.219819
end loop
end factet
facet normal 0.00433326 3.64929e-05 0.0052993
outer loop
vertex 0.276702 -0.935476 -0.219819
vertex 0 0 0
vertex 0.271746 -0.937873 -0.21575
end loop
end factet
facet normal 0.00118533 -0.000163496 0.0022037
outer loop
vertex 0.271746 -0.937873 -0.21575
vertex 0 0 0
vertex 0.269644 -0.938725 -0.214682
end loop
end factet
facet normal 0.00423856 -0.00246082 0.0160839
outer loop
vertex 0.269644 -0.938725 -0.214682
vertex 0 0 0
vertex 0.253979 -0.943839 -0.211337
end loop
end factet
facet normal 0.0190592 0.00149146 0.0162439
outer loop
vertex 0.253979 -0.943839 -0.211337
vertex 0 0 0
vertex 0.238882 -0.951695 -0.192902
end loop
end factet
facet normal 0.00162752 -0.00177931 0.0107938
outer loop
vertex 0.238882 -0.951695 -0.192902
vertex 0 0 0
vertex 0.228252 -0.95453 -0.191767
end loop
end factet
facet normal 0.00102551 -0.000680704 0.00460887
outer loop
vertex 0.228252 -0.95453 -0.191767
vertex 0 0 0
vertex 0.22372 -0.955767 -0.190941
end loop
end factet
facet normal 0.0143346 0.00208367 0.00636548
outer loop
vertex 0.22372 -0.955767 -0.190941
vertex 0 0 0
vertex 0.218006 -0.959809 -0.17675
end loop
end factet
facet normal 0.0133948 -0.00113776 0.0226997
outer loop
vertex 0.218006 -0.959809 -0.17675
vertex 0 0 0
vertex 0.195941 -0.966791 -0.16408
end loop
end factet
facet normal 0.00756933 0.000563405 0.00571945
outer loop
vertex 0.195941 -0.966791 -0.16408
vertex 0 0 0
vertex 0.190495 -0.96911 -0.156645
end loop
end factet
facet normal 0.00377101 1.72686e-05 0.0044791
outer loop
vertex 0.190495 -0.96911 -0.156645
vertex 0 0 0
vertex 0.186154 -0.970537 -0.152984
end loop
end factet
facet normal 0.00256342 -0.000274571 0.00486109
outer loop
vertex 0.186154 -0.970537 -0.152984
vertex 0 0 0
vertex 0.181391 -0.97182 -0.150545
end loop
end factet
facet normal 0.00883622 0.000829617 0.00529128
outer loop
vertex 0.181391 -0.97182 -0.150545
vertex 0 0 0
vertex 0.176364 -0.974058 -0.141799
end loop
end factet
facet normal 0.002882 -0.000120593 0.00441292
outer loop
vertex 0.176364 -0.974058 -0.141799
vertex 0 0 0
vertex 0.172046 -0.975231 -0.139011
end loop
end factet
facet normal 0.0013755 -0.000402682 0.00452739
outer loop
vertex 0.172046 -0.975231 -0.139011
vertex 0 0 0
vertex 0.167573 -0.97619 -0.137738
end loop
end factet
facet normal 0.0179817 -0.000255637 0.0236886
outer loop
vertex 0.167573 -0.97619 -0.137738
vertex 0 0 0
vertex 0.144339 -0.982205 -0.120166
end loop
end factet
facet normal 0.00713386 -0.000373231 0.0116196
outer loop
vertex 0.144339 -0.982205 -0.120166
vertex 0 0 0
vertex 0.132868 -0.984648 -0.113202
end loop
end factet
facet normal 0.0106 0.00117808 0.0021944
outer loop
vertex 0.132868 -0.984648 -0.113202
vertex 0 0 0
vertex 0.130833 -0.986081 -0.102601
end loop
end factet
facet normal 0.00563049 0.000625527 0.00116795
outer loop
vertex 0.130833 -0.986081 -0.102601
vertex 0 0 0
vertex 0.129743 -0.986795 -0.0969656
end loop
end factet
facet normal 0.00990161 0.000168066 0.0115383
outer loop
vertex 0.129743 -0.986795 -0.0969656
vertex 0 0 0
vertex 0.118359 -0.989138 -0.0871618
end loop
end factet
facet normal 0.00773845 0.000570572 0.00403316
outer loop
vertex 0.118359 -0.989138 -0.0871618
vertex 0 0 0
vertex 0.114415 -0.990252 -0.0794365
end loop
end factet
facet normal 0.00495476 4.15388e-05 0.00661866
outer loop
vertex 0.114415 -0.990252 -0.0794365
vertex 0 0 0
vertex 0.10786 -0.991369 -0.0745226
end loop
end factet
facet normal 0.00325285 0.000176935 0.00235423
outer loop
vertex 0.10786 -0.991369 -0.0745226
vertex 0 0 0
vertex 0.105538 -0.991857 -0.0712781
end loop
end factet
facet normal 0.00374234 2.8844e-05 0.00513974
outer loop
vertex 0.105538 -0.991857 -0.0712781
vertex 0 0 0
vertex 0.10044 -0.992647 -0.0675617
end loop
end factet
facet normal -0.000648394 -0.00108299 0.0149478
outer loop
vertex 0.10044 -0.992647 -0.0675617
vertex 0 0 0
vertex 0.0855178 -0.993992 -0.0683065
end loop
end factet
facet normal -0.000231504 -0.000468526 0.00652811
outer loop
vertex 0.0855178 -0.993992 -0.0683065
vertex 0 0 0
vertex 0.0789951 -0.994513 -0.0685753
end loop
end factet
facet normal -0.00502613 -0.000966574 0.0082279
outer loop
vertex 0.0789951 -0.994513 -0.0685753
vertex 0 0 0
vertex 0.0707424 -0.994772 -0.073647
end loop
end factet
facet normal 0.00703719 -0.000754843 0.0169555
outer loop
vertex 0.0707424 -0.994772 -0.073647
vertex 0 0 0
vertex 0.0538079 -0.996322 -0.0666875
end loop
end factet
facet normal 0.027305 -0.000376016 0.0276492
outer loop
vertex 0.0538079 -0.996322 -0.0666875
vertex 0 0 0
vertex 0.0261947 -0.998878 -0.0394528
end loop
end factet
facet normal 0.00642461 -0.00021814 0.00978854
outer loop
vertex 0.0261947 -0.998878 -0.0394528
vertex 0 0 0
vertex 0.0164067 -0.999319 -0.0330384
end loop
end factet
facet normal -0.000441965 -0.000774105 0.023195
outer loop
vertex 0.0164067 -0.999319 -0.0330384
vertex 0 0 0
vertex -0.00680252 -0.999416 -0.0334839
end loop
end factet
facet normal -0.00509037 -0.000486645 0.0155594
outer loop
vertex -0.00680252 -0.999416 -0.0334839
vertex 0 0 0
vertex -0.0223682 -0.999006 -0.0385635
end loop
end factet
facet normal 0.00139416 -0.000615465 0.0151353
outer loop
vertex -0.0223682 -0.999006 -0.0385635
vertex 0 0 0
vertex -0.0375096 -0.998605 -0.0371525
end loop
end factet
facet normal -0.00415429 -0.000257632 0.011119
outer loop
vertex -0.0375096 -0.998605 -0.0371525
vertex 0 0 0
vertex -0.04862 -0.997964 -0.0412887
end loop
end factet
facet normal -0.0105339 3.16836e-05 0.0116385
outer loop
vertex -0.04862 -0.997964 -0.0412887
vertex 0 0 0
vertex -0.0602275 -0.99684 -0.0517976
end loop
end factet
facet normal 0.00112893 -0.00170722 0.0315425
outer loop
vertex -0.0602275 -0.99684 -0.0517976
vertex 0 0 0
vertex -0.0917287 -0.9945 -0.0505435
end loop
end factet
facet normal 0.0171414 -0.00295322 0.026999
outer loop
vertex -0.0917287 -0.9945 -0.0505435
vertex 0 0 0
vertex -0.118681 -0.992377 -0.0331994
end loop
end factet
facet normal 0.00383651 -0.000735943 0.00828367
outer loop
vertex -0.118681 -0.992377 -0.0331994
vertex 0 0 0
vertex -0.126921 -0.99148 -0.0293034
end loop
end factet
facet normal 0.00675421 -0.00146263 0.0202338
outer loop
vertex -0.126921 -0.99148 -0.0293034
vertex 0 0 0
vertex -0.146996 -0.988883 -0.0224144
end loop
end factet
facet normal 0.0150462 -0.00253638 0.0132252
outer loop
vertex -0.146996 -0.988883 -0.0224144
vertex 0 0 0
vertex -0.160101 -0.987075 -0.00715803
end loop
end factet
facet normal 0.0468834 -0.00763768 0.00459068
outer loop
vertex -0.160101 -0.987075 -0.00715803
vertex 0 0 0
vertex -0.164505 -0.985551 0.0403503
end loop
end factet
facet normal 0.0439607 -0.00637479 0.0235208
outer loop
vertex -0.164505 -0.985551 0.0403503
vertex 0 0 0
vertex -0.187221 -0.978662 0.0846735
end loop
end factet
facet normal 0.032286 -0.00416673 0.0232278
outer loop
vertex -0.187221 -0.978662 0.0846735
vertex 0 0 0
vertex -0.20945 -0.970796 0.116983
end loop
end factet
facet normal 0.048184 -0.0115491 -0.00957094
outer loop
vertex -0.20945 -0.970796 0.116983
vertex 0 0 0
vertex -0.198541 -0.965927 0.16603
end loop
end factet
facet normal 0.0482149 -0.00809171 0.0105803
outer loop
vertex -0.198541 -0.965927 0.16603
vertex 0 0 0
vertex -0.207169 -0.954612 0.214
end loop
end factet
facet normal 0.00911768 -0.00224748 -0.00119893
outer loop
vertex -0.207169 -0.954612 0.214
vertex 0 0 0
vertex -0.205534 -0.952867 0.22316
end loop
end factet
facet normal 0.0206195 -0.00618627 -0.0074237
outer loop
vertex -0.205534 -0.952867 0.22316
vertex 0 0 0
vertex -0.197026 -0.949544 0.244022
end loop
end factet
facet normal 0.0376153 -0.00487987 0.0113824
outer loop
vertex -0.197026 -0.949544 0.244022
vertex 0 0 0
vertex -0.206489 -0.937378 0.280509
end loop
end factet
facet normal 0.0638999 -0.020199 -0.0204608
outer loop
vertex -0.206489 -0.937378 0.280509
vertex 0 0 0
vertex -0.181136 -0.921374 0.343889
end loop
end factet
facet normal 0.06936 -0.0058354 0.0208993
outer loop
vertex -0.181136 -0.921374 0.343889
vertex 0 0 0
vertex -0.197906 -0.8913 0.407943
end loop
end factet
facet normal 0.0720798 0.00181384 0.0389312
outer loop
vertex -0.197906 -0.8913 0.407943
vertex 0 0 0
vertex -0.23268 -0.851193 0.470457
end loop
end factet
facet normal 0.168866 -0.0419819 0.00756079
outer loop
vertex -0.23268 -0.851193 0.470457
vertex 0 0 0
vertex -0.215809 -0.75698 0.616772
end loop
end factet
facet normal 0.093055 -0.0122569 0.0175168
outer loop
vertex -0.215809 -0.75698 0.616772
vertex 0 0 0
vertex -0.220523 -0.692348 0.68704
end loop
end factet
facet normal 0.111569 -0.0247764 0.010843
outer loop
vertex -0.220523 -0.692348 0.68704
vertex 0 0 0
vertex -0.20955 -0.608727 0.765206
end loop
end factet
facet normal 0.131566 -0.0342643 0.00877148
outer loop
vertex -0.20955 -0.608727 0.765206
vertex 0 0 0
vertex -0.186716 -0.500539 0.845339
end loop
end factet
facet normal 0.0250683 -0.00022085 0.00540626
outer loop
vertex -0.186716 -0.500539 0.845339
vertex 0 0 0
vertex -0.189174 -0.478173 0.85765
end loop
end factet
facet normal 0.0320836 -0.0143962 -0.000949644
outer loop
vertex -0.189174 -0.478173 0.85765
vertex 0 0 0
vertex -0.176256 -0.45054 0.875184
end loop
end factet
facet normal 0.0473495 -0.000813887 0.00911689
outer loop
vertex -0.176256 -0.45054 0.875184
vertex 0 0 0
vertex -0.179446 -0.40697 0.895642
end loop
end factet
facet normal 0.030356 0.0154391 0.0130973
outer loop
vertex -0.179446 -0.40697 0.895642
vertex 0 0 0
vertex -0.198485 -0.37716 0.904629
end loop
end factet
facet normal 0.0260055 -0.0118866 0.000750065
outer loop
vertex -0.198485 -0.37716 0.904629
vertex 0 0 0
vertex -0.187934 -0.353332 0.916427
end loop
end factet
facet normal 0.027678 -0.0465965 -0.0122895
outer loop
vertex -0.187934 -0.353332 0.916427
vertex 0 0 0
vertex -0.140599 -0.329731 0.933547
end loop
end factet
facet normal 0.107011 -0.0455034 4.47743e-05
outer loop
vertex -0.140599 -0.329731 0.933547
vertex 0 0 0
vertex -0.0971801 -0.227587 0.968896
end loop
end factet
facet normal 0.0446755 -0.0269296 -0.00184464
outer loop
vertex -0.0971801 -0.227587 0.968896
vertex 0 0 0
vertex -0.0705358 -0.18417 0.98036
end loop
end factet
facet normal 0.0254629 0.00506928 0.00278434
outer loop
vertex -0.0705358 -0.18417 0.98036
vertex 0 0 0
vertex -0.0759942 -0.158948 0.984358
end loop
end factet
facet normal 0.0443033 0.0372547 0.00943597
outer loop
vertex -0.0759942 -0.158948 0.984358
vertex 0 0 0
vertex -0.114035 -0.114347 0.986874
end loop
end factet
facet normal 0.0554025 0.00686178 0.00719693
outer loop
vertex -0.114035 -0.114347 0.986874
vertex 0 0 0
vertex -0.121449 -0.0586701 0.990862
end loop
end factet
facet normal 0.0868342 0.012553 0.0113865
outer loop
vertex -0.121449 -0.0586701 0.990862
vertex 0 0 0
vertex -0.134079 0.0289836 0.990547
end loop
end factet
facet normal 0.0347605 0.00211143 0.00464335
outer loop
vertex -0.134079 0.0289836 0.990547
vertex 0 0 0
vertex -0.135953 0.0640202 0.988645
end loop
end factet
facet normal 0.0793253 0.00778241 0.0104045
outer loop
vertex -0.135953 0.0640202 0.988645
vertex 0 0 0
vertex -0.142541 0.143652 0.979309
end loop
end factet
facet normal 0.0487303 0.0199485 0.00416665
outer loop
vertex -0.142541 0.143652 0.979309
vertex 0 0 0
vertex -0.16128 0.191767 0.968098
end loop
end factet
facet normal 0.0220256 0.000185326 0.00363263
outer loop
vertex -0.16128 0.191767 0.968098
vertex 0 0 0
vertex -0.160722 0.213629 0.963603
end loop
end factet
facet normal 0.0355133 0.0202987 0.00142319
outer loop
vertex -0.160722 0.213629 0.963603
vertex 0 0 0
vertex -0.179843 0.247899 0.951947
end loop
end factet
facet normal 0.0228833 0.0135423 0.000796571
outer loop
vertex -0.179843 0.247899 0.951947
vertex 0 0 0
vertex -0.192474 0.269738 0.943502
end loop
end factet
facet normal 0.0303909 0.0140815 0.00217394
outer loop
vertex -0.192474 0.269738 0.943502
vertex 0 0 0
vertex -0.205065 0.298678 0.932062
end loop
end factet
facet normal 0.0189583 0.0161519 -0.00100479
outer loop
vertex -0.205065 0.298678 0.932062
vertex 0 0 0
vertex -0.220356 0.31605 0.922798
end loop
end factet
facet normal 0.0982611 0.0133106 0.0189051
outer loop
vertex -0.220356 0.31605 0.922798
vertex 0 0 0
vertex -0.225538 0.409277 0.884096
end loop
end factet
facet normal -0.0473318 0.0314239 -0.0266218
outer loop
vertex -0.225538 0.409277 0.884096
vertex 0 0 0
vertex -0.263771 0.36062 0.894638
end loop
end factet
facet normal -0.00514269 0.020442 -0.00975623
outer loop
vertex -0.263771 0.36062 0.894638
vertex 0 0 0
vertex -0.285507 0.353349 0.890859
end loop
end factet
facet normal -0.0024026 0.00811148 -0.00398733
outer loop
vertex -0.285507 0.353349 0.890859
vertex 0 0 0
vertex -0.294129 0.350054 0.889354
end loop
end factet
facet normal -0.00629637 0.0145808 -0.00782143
outer loop
vertex -0.294129 0.350054 0.889354
vertex 0 0 0
vertex -0.309789 0.342099 0.88713
end loop
end factet
facet normal -0.0101422 0.0163689 -0.00985393
outer loop
vertex -0.309789 0.342099 0.88713
vertex 0 0 0
vertex -0.327608 0.329969 0.885321
end loop
end factet
facet normal -0.00206405 0.0554932 -0.0214467
outer loop
vertex -0.327608 0.329969 0.885321
vertex 0 0 0
vertex -0.383233 0.320531 0.866252
end loop
end factet
facet normal -0.0322203 0.0557937 -0.0348992
outer loop
vertex -0.383233 0.320531 0.866252
vertex 0 0 0
vertex -0.441721 0.278383 0.852869
end loop
end factet
facet normal -0.0179799 0.0164321 -0.0146758
outer loop
vertex -0.441721 0.278383 0.852869
vertex 0 0 0
vertex -0.459642 0.256454 0.850271
end loop
end factet
facet normal -0.0215032 0.00446615 -0.0129713
outer loop
vertex -0.459642 0.256454 0.850271
vertex 0 0 0
vertex -0.466617 0.232125 0.853456
end loop
end factet
facet normal -0.0313483 0.00980556 -0.0198062
outer loop
vertex -0.466617 0.232125 0.853456
vertex 0 0 0
vertex -0.479239 0.195958 0.855529
end loop
end factet
facet normal -0.0157367 0.00888219 -0.0108496
outer loop
vertex -0.479239 0.195958 0.855529
vertex 0 0 0
vertex -0.488858 0.177251 0.854166
end loop
end factet
facet normal -0.0542056 -0.00823134 -0.0293149
outer loop
vertex -0.488858 0.177251 0.854166
vertex 0 0 0
vertex -0.486077 0.116277 0.866146
end loop
end factet
facet normal -0.0648066 -0.00823423 -0.0352638
outer loop
vertex -0.486077 0.116277 0.866146
vertex 0 0 0
vertex -0.481704 0.0426832 0.875294
end loop
end factet
facet normal -0.0272402 0.0214447 -0.016037
outer loop
vertex -0.481704 0.0426832 0.875294
vertex 0 0 0
vertex -0.500808 0.0110838 0.865487
end loop
end factet
facet normal -0.0829691 0.00533226 -0.0480777
outer loop
vertex -0.500808 0.0110838 0.865487
vertex 0 0 0
vertex -0.503641 -0.0848538 0.859736
end loop
end factet
facet normal -0.079331 0.0196717 -0.0445313
outer loop
vertex -0.503641 -0.0848538 0.859736
vertex 0 0 0
vertex -0.514588 -0.175117 0.839365
end loop
end factet
facet normal -0.100266 0.0028502 -0.0608756
outer loop
vertex -0.514588 -0.175117 0.839365
vertex 0 0 0
vertex -0.502766 -0.289393 0.814542
end loop
end factet
facet normal -0.0911022 0.042882 -0.0409964
outer loop
vertex -0.502766 -0.289393 0.814542
vertex 0 0 0
vertex -0.522851 -0.382496 0.76179
end loop
end factet
facet normal -0.051442 0.0107307 -0.029919
outer loop
vertex -0.522851 -0.382496 0.76179
vertex 0 0 0
vertex -0.518625 -0.436627 0.735109
end loop
end factet
facet normal -0.052833 0.00779474 -0.0326443
outer loop
vertex -0.518625 -0.436627 0.735109
vertex 0 0 0
vertex -0.509084 -0.491539 0.706556
end loop
end factet
facet normal -0.0648432 0.033409 -0.0234784
outer loop
vertex -0.509084 -0.491539 0.706556
vertex 0 0 0
vertex -0.519652 -0.547862 0.655598
end loop
end factet
facet normal -0.0374864 0.016309 -0.0160843
outer loop
vertex -0.519652 -0.547862 0.655598
vertex 0 0 0
vertex -0.521031 -0.580267 0.625953
end loop
end factet
facet normal -0.0220901 0.0162057 -0.00336441
outer loop
vertex -0.521031 -0.580267 0.625953
vertex 0 0 0
vertex -0.529024 -0.595627 0.604452
end loop
end factet
facet normal -0.0294238 0.0140886 -0.0118692
outer loop
vertex -0.529024 -0.595627 0.604452
vertex 0 0 0
vertex -0.530151 -0.619332 0.579109
end loop
end factet
facet normal -0.0173175 0.00359741 -0.0120062
outer loop
vertex -0.530151 -0.619332 0.579109
vertex 0 0 0
vertex -0.524678 -0.635584 0.566344
end loop
end factet
facet normal -0.00485027 0.00261599 -0.00155762
outer loop
vertex -0.524678 -0.635584 0.566344
vertex 0 0 0
vertex -0.525161 -0.639138 0.56188
end loop
end factet
facet normal -0.0046874 0.00494242 0.00124088
outer loop
vertex -0.525161 -0.639138 0.56188
vertex 0 0 0
vertex -0.528718 -0.641105 0.556275
end loop
end factet
facet normal -0.0112802 0.00222871 -0.00815281
outer loop
vertex -0.528718 -0.641105 0.556275
vertex 0 0 0
vertex -0.524679 -0.651626 0.547809
end loop
end factet
facet normal -0.0137305 0.00765505 -0.00404495
outer loop
vertex -0.524679 -0.651626 0.547809
vertex 0 0 0
vertex -0.526167 -0.661185 0.534774
end loop
end factet
facet normal -0.0249409 0.00662261 -0.0163514
outer loop
vertex -0.526167 -0.661185 0.534774
vertex 0 0 0
vertex -0.518652 -0.682817 0.514549
end loop
end factet
facet normal -0.0122914 0.00629529 -0.00403544
outer loop
vertex -0.518652 -0.682817 0.514549
vertex 0 0 0
vertex -0.519082 -0.691164 0.502838
end loop
end factet
facet normal -0.0164586 0.0104694 -0.00259975
outer loop
vertex -0.519082 -0.691164 0.502838
vertex 0 0 0
vertex -0.522449 -0.700656 0.48593
end loop
end factet
facet normal -0.00738844 0.00357437 -0.00278988
outer loop
vertex -0.522449 -0.700656 0.48593
vertex 0 0 0
vertex -0.522212 -0.705677 0.478868
end loop
end factet
facet normal -0.0142497 0.00839643 -0.00316617
outer loop
vertex -0.522212 -0.705677 0.478868
vertex 0 0 0
vertex -0.523924 -0.714054 0.464359
end loop
end factet
facet normal -0.0170423 0.00566617 -0.0105154
outer loop
vertex -0.523924 -0.714054 0.464359
vertex 0 0 0
vertex -0.518933 -0.727323 0.449121
end loop
end factet
facet normal -0.0429514 0.0349047 0.00689811
outer loop
vertex -0.518933 -0.727323 0.449121
vertex 0 0 0
vertex -0.538819 -0.741901 0.399069
end loop
end factet
facet normal -0.0230499 0.020621 0.00721437
outer loop
vertex -0.538819 -0.741901 0.399069
vertex 0 0 0
vertex -0.552129 -0.746838 0.370656
end loop
end factet
facet normal -0.0164362 0.0191717 0.0141459
outer loop
vertex -0.552129 -0.746838 0.370656
vertex 0 0 0
vertex -0.569568 -0.744807 0.34764
end loop
end factet
facet normal -0.037281 0.0420828 0.0290804
outer loop
vertex -0.569568 -0.744807 0.34764
vertex 0 0 0
vertex -0.604715 -0.739711 0.295207
end loop
end factet
facet normal -0.0302652 0.0320558 0.0183268
outer loop
vertex -0.604715 -0.739711 0.295207
vertex 0 0 0
vertex -0.627045 -0.736719 0.253098
end loop
end factet
facet normal -0.0142807 0.013317 0.00338319
outer loop
vertex -0.627045 -0.736719 0.253098
vertex 0 0 0
vertex -0.632785 -0.738068 0.234177
end loop
end factet
facet normal -0.00416136 0.00291973 -0.00204238
outer loop
vertex -0.632785 -0.738068 0.234177
vertex 0 0 0
vertex -0.631952 -0.740324 0.229255
end loop
end factet
facet normal -0.0107513 0.00844832 -0.00235474
outer loop
vertex -0.631952 -0.740324 0.229255
vertex 0 0 0
vertex -0.632085 -0.744205 0.215934
end loop
end factet
facet normal -0.00526197 0.00355482 -0.00315136
outer loop
vertex -0.632085 -0.744205 0.215934
vertex 0 0 0
vertex -0.630491 -0.747315 0.209766
end loop
end factet
facet normal -0.00670676 0.00300865 -0.00943974
outer loop
vertex -0.630491 -0.747315 0.209766
vertex 0 0 0
vertex -0.624023 -0.75462 0.202842
end loop
end factet
facet normal -0.00418738 0.00287814 -0.00217468
outer loop
vertex -0.624023 -0.75462 0.202842
vertex 0 0 0
vertex -0.622956 -0.756815 0.197883
end loop
end factet
facet normal -0.00911173 0.00774501 0.000936598
outer loop
vertex -0.622956 -0.756815 0.197883
vertex 0 0 0
vertex -0.625152 -0.75798 0.186148
end loop
end factet
facet normal -0.010681 0.0103173 0.0061405
outer loop
vertex -0.625152 -0.75798 0.186148
vertex 0 0 0
vertex -0.631647 -0.756031 0.171578
end loop
end factet
facet normal -0.0104168 0.00859495 -0.000475943
outer loop
vertex -0.631647 -0.756031 0.171578
vertex 0 0 0
vertex -0.632704 -0.75805 0.158258
end loop
end factet
facet normal -0.00780765 0.00661031 0.000448734
outer loop
vertex -0.632704 -0.75805 0.158258
vertex 0 0 0
vertex -0.634057 -0.758962 0.148149
end loop
end factet
facet normal -0.0169686 0.0121714 -0.0102697
outer loop
vertex -0.634057 -0.758962 0.148149
vertex 0 0 0
vertex -0.627894 -0.767782 0.127513
end loop
end factet
facet normal -0.0079265 0.00487109 -0.00970152
outer loop
vertex -0.627894 -0.767782 0.127513
vertex 0 0 0
vertex -0.62101 -0.774815 0.118357
end loop
end factet
facet normal -0.00920214 0.00691474 -0.00301602
outer loop
vertex -0.62101 -0.774815 0.118357
vertex 0 0 0
vertex -0.619447 -0.777722 0.106925
end loop
end factet
facet normal -0.00437665 0.00343923 -0.000339836
outer loop
vertex -0.619447 -0.777722 0.106925
vertex 0 0 0
vertex -0.619541 -0.778389 0.101389
end loop
end factet
facet normal -0.00203381 0.00145652 -0.00124565
outer loop
vertex -0.619541 -0.778389 0.101389
vertex 0 0 0
vertex -0.618717 -0.779364 0.0989028
end loop
end factet
facet normal -0.00941043 0.00629677 -0.00925076
outer loop
vertex -0.618717 -0.779364 0.0989028
vertex 0 0 0
vertex -0.612064 -0.785935 0.0876622
end loop
end factet
facet normal -0.00571402 0.00402068 -0.00384828
outer loop
vertex -0.612064 -0.785935 0.0876622
vertex 0 0 0
vertex -0.609372 -0.788766 0.0807077
end loop
end factet
facet normal -0.00173626 0.000675146 -0.00651106
outer loop
vertex -0.609372 -0.788766 0.0807077
vertex 0 0 0
vertex -0.604277 -0.792856 0.0789249
end loop
end factet
facet normal -0.00179593 0.00117656 -0.00193089
outer loop
vertex -0.604277 -0.792856 0.0789249
vertex 0 0 0
vertex -0.602837 -0.794161 0.0767897
end loop
end factet
facet normal -0.0047101 0.00290772 -0.00690484
outer loop
vertex -0.602837 -0.794161 0.0767897
vertex 0 0 0
vertex -0.597553 -0.798654 0.0712932
end loop
end factet
facet normal -0.00914689 0.00632493 -0.00581145
outer loop
vertex -0.597553 -0.798654 0.0712932
vertex 0 0 0
vertex -0.593315 -0.802716 0.0602029
end loop
end factet
facet normal -0.0129075 0.00973276 0.00256544
outer loop
vertex -0.593315 -0.802716 0.0602029
vertex 0 0 0
vertex -0.595881 -0.801863 0.0440593
end loop
end factet
facet normal -0.0182249 0.0135364 -0.0001252
outer loop
vertex -0.595881 -0.801863 0.0440593
vertex 0 0 0
vertex -0.596223 -0.802534 0.0213679
end loop
end factet
facet normal -0.00781671 0.00568832 -0.00446635
outer loop
vertex -0.596223 -0.802534 0.0213679
vertex 0 0 0
vertex -0.592727 -0.805319 0.011702
end loop
end factet
facet normal -0.00779166 0.00563355 -0.00696686
outer loop
vertex -0.592727 -0.805319 0.011702
vertex 0 0 0
vertex -0.58714 -0.809482 0.00208723
end loop
end factet
facet normal -0.0111212 0.00805685 -0.00374034
outer loop
vertex -0.58714 -0.809482 0.00208723
vertex 0 0 0
vertex -0.58407 -0.81162 -0.0116459
end loop
end factet
facet normal -0.00720308 0.00533001 -0.0102044
outer loop
vertex -0.58407 -0.81162 -0.0116459
vertex 0 0 0
vertex -0.575672 -0.817421 -0.0206041
end loop
end factet
facet normal -0.00645009 0.00472932 -0.00741166
outer loop
vertex -0.575672 -0.817421 -0.0206041
vertex 0 0 0
vertex -0.569482 -0.821506 -0.0285978
end loop
end factet
facet normal -0.00341492 0.00246014 -0.0026677
outer loop
vertex -0.569482 -0.821506 -0.0285978
vertex 0 0 0
vertex -0.567213 -0.822918 -0.0328038
end loop
end factet
facet normal -0.0189182 0.0141521 -0.0279053
outer loop
vertex -0.567213 -0.822918 -0.0328038
vertex 0 0 0
vertex -0.543406 -0.837575 -0.0563773
end loop
end factet
facet normal -0.0102892 0.00731266 -0.00946677
outer loop
vertex -0.543406 -0.837575 -0.0563773
vertex 0 0 0
vertex -0.534997 -0.842035 -0.068962
end loop
end factet
facet normal 0.00102884 0.000140037 -0.00969145
outer loop
vertex -0.534997 -0.842035 -0.068962
vertex 0 0 0
vertex -0.526801 -0.847251 -0.0681673
end loop
end factet
facet normal -0.00821345 0.00665196 -0.0192031
outer loop
vertex -0.526801 -0.847251 -0.0681673
vertex 0 0 0
vertex -0.509951 -0.856604 -0.078614
end loop
end factet
facet normal -0.00326294 0.00251442 -0.00623193
outer loop
vertex -0.509951 -0.856604 -0.078614
vertex 0 0 0
vertex -0.504401 -0.859501 -0.0826891
end loop
end factet
facet normal -0.00360156 0.00251057 -0.00412637
outer loop
vertex -0.504401 -0.859501 -0.0826891
vertex 0 0 0
vertex -0.500638 -0.861269 -0.0870495
end loop
end factet
facet normal -0.00674492 0.00668371 -0.0273375
outer loop
vertex -0.500638 -0.861269 -0.0870495
vertex 0 0 0
vertex -0.476301 -0.874007 -0.0961684
end loop
end factet
facet normal -0.00318308 0.00283141 -0.00996763
outer loop
vertex -0.476301 -0.874007 -0.0961684
vertex 0 0 0
vertex -0.467289 -0.878397 -0.100293
end loop
end factet
facet normal -0.0150861 0.00940431 -0.0120761
outer loop
vertex -0.467289 -0.878397 -0.100293
vertex 0 0 0
vertex -0.45563 -0.882325 -0.117916
end loop
end factet
facet normal -0.023951 0.0171186 -0.0355455
outer loop
vertex -0.45563 -0.882325 -0.117916
vertex 0 0 0
vertex -0.421764 -0.894756 -0.146723
end loop
end factet
facet normal -0.033307 0.0186419 -0.0179404
outer loop
vertex -0.421764 -0.894756 -0.146723
vertex 0 0 0
vertex -0.402601 -0.896639 -0.184256
end loop
end factet
facet normal -0.0167569 0.00808468 -0.00272822
outer loop
vertex -0.402601 -0.896639 -0.184256
vertex 0 0 0
vertex -0.398594 -0.894491 -0.202504
end loop
end factet
facet normal -0.0148711 0.00832936 -0.00752088
outer loop
vertex -0.398594 -0.894491 -0.202504
vertex 0 0 0
vertex -0.390111 -0.894323 -0.219091
end loop
end factet
facet normal -0.0431575 0.0225909 -0.01537
outer loop
vertex -0.390111 -0.894323 -0.219091
vertex 0 0 0
vertex -0.370906 -0.889696 -0.266214
end loop
end factet
facet normal -0.0102361 0.0131142 -0.0295664
outer loop
vertex -0.370906 -0.889696 -0.266214
vertex 0 0 0
vertex -0.340896 -0.897425 -0.280032
end loop
end factet
facet normal -0.0278043 0.0164801 -0.0189667
outer loop
vertex -0.340896 -0.897425 -0.280032
vertex 0 0 0
vertex -0.319021 -0.895474 -0.310406
end loop
end factet
facet normal -0.118066 0.0617397 -0.0567666
outer loop
vertex -0.319021 -0.895474 -0.310406
vertex 0 0 0
vertex -0.24566 -0.867495 -0.432555
end loop
end factet
facet normal -0.075312 0.0604785 -0.0785187
outer loop
vertex -0.24566 -0.867495 -0.432555
vertex 0 0 0
vertex -0.149475 -0.84746 -0.509381
end loop
end factet
facet normal -0.0741013 0.00924508 0.00636346
outer loop
vertex -0.149475 -0.84746 -0.509381
vertex 0 0 0
vertex -0.149738 -0.80638 -0.572128
end loop
end factet
facet normal -0.0391294 0.0107434 -0.00490114
outer loop
vertex -0.149738 -0.80638 -0.572128
vertex 0 0 0
vertex -0.139514 -0.784053 -0.604812
end loop
end factet
facet normal -0.0398938 -0.00547439 0.0162992
outer loop
vertex -0.139514 -0.784053 -0.604812
vertex 0 0 0
vertex -0.155472 -0.75691 -0.634756
end loop
end factet
facet normal -0.0359984 0.00583147 0.00186349
outer loop
vertex -0.155472 -0.75691 -0.634756
vertex 0 0 0
vertex -0.153078 -0.733266 -0.662487
end loop
end factet
facet normal -0.0148794 -0.00300778 0.00676726
outer loop
vertex -0.153078 -0.733266 -0.662487
vertex 0 0 0
vertex -0.160011 -0.722271 -0.672845
end loop
end factet
facet normal -0.0100763 -0.00337406 0.00601818
outer loop
vertex -0.160011 -0.722271 -0.672845
vertex 0 0 0
vertex -0.166616 -0.714474 -0.679533
end loop
end factet
facet normal -0.0411487 0.00656828 0.00318334
outer loop
vertex -0.166616 -0.714474 -0.679533
vertex 0 0 0
vertex -0.164282 -0.685358 -0.709433
end loop
end factet
facet normal -0.0203278 -0.00707894 0.011546
outer loop
vertex -0.164282 -0.685358 -0.709433
vertex 0 0 0
vertex -0.177168 -0.668835 -0.721991
end loop
end factet
facet normal -0.012775 0.00600497 -0.00242803
outer loop
vertex -0.177168 -0.668835 -0.721991
vertex 0 0 0
vertex -0.17119 -0.659974 -0.731525
end loop
end factet
facet normal -0.0103171 0.00493299 -0.00203609
outer loop
vertex -0.17119 -0.659974 -0.731525
vertex 0 0 0
vertex -0.166226 -0.65273 -0.739129
end loop
end factet
facet normal -0.00685829 0.00164432 9.02861e-05
outer loop
vertex -0.166226 -0.65273 -0.739129
vertex 0 0 0
vertex -0.165066 -0.64763 -0.743861
end loop
end factet
facet normal -0.0183426 0.00321622 0.00127015
outer loop
vertex -0.165066 -0.64763 -0.743861
vertex 0 0 0
vertex -0.163467 -0.633663 -0.756141
end loop
end factet
facet normal -0.0255261 -0.0187201 0.0212062
outer loop
vertex -0.163467 -0.633663 -0.756141
vertex 0 0 0
vertex -0.190941 -0.610435 -0.768707
end loop
end factet
facet normal -0.0234392 -0.00224477 0.00760471
outer loop
vertex -0.190941 -0.610435 -0.768707
vertex 0 0 0
vertex -0.197251 -0.590778 -0.782351
end loop
end factet
facet normal -0.00218534 -0.00411032 0.00365482
outer loop
vertex -0.197251 -0.590778 -0.782351
vertex 0 0 0
vertex -0.202622 -0.588337 -0.782818
end loop
end factet
facet normal -0.00370303 -0.0117988 0.00982603
outer loop
vertex -0.202622 -0.588337 -0.782818
vertex 0 0 0
vertex -0.217614 -0.583374 -0.782508
end loop
end factet
facet normal -0.0122677 -0.00733627 0.00888094
outer loop
vertex -0.217614 -0.583374 -0.782508
vertex 0 0 0
vertex -0.228505 -0.57176 -0.787957
end loop
end factet
facet normal -0.00503936 -0.00270824 0.00342657
outer loop
vertex -0.228505 -0.57176 -0.787957
vertex 0 0 0
vertex -0.232593 -0.566993 -0.790202
end loop
end factet
facet normal -0.00817922 -0.000278488 0.00260733
outer loop
vertex -0.232593 -0.566993 -0.790202
vertex 0 0 0
vertex -0.234283 -0.559902 -0.794746
end loop
end factet
facet normal -0.00511646 -0.000421122 0.00180496
outer loop
vertex -0.234283 -0.559902 -0.794746
vertex 0 0 0
vertex -0.235625 -0.555405 -0.7975
end loop
end factet
facet normal -0.0146639 -0.0076531 0.00966237
outer loop
vertex -0.235625 -0.555405 -0.7975
vertex 0 0 0
vertex -0.247051 -0.541332 -0.803695
end loop
end factet
facet normal -0.00257427 -0.00732283 0.00572363
outer loop
vertex -0.247051 -0.541332 -0.803695
vertex 0 0 0
vertex -0.256023 -0.537824 -0.803242
end loop
end factet
facet normal -0.0022164 0.000449508 0.000405475
outer loop
vertex -0.256023 -0.537824 -0.803242
vertex 0 0 0
vertex -0.25588 -0.535938 -0.804547
end loop
end factet
facet normal -0.00501764 -0.00152647 0.00261267
outer loop
vertex -0.25588 -0.535938 -0.804547
vertex 0 0 0
vertex -0.258504 -0.531224 -0.806832
end loop
end factet
facet normal -0.00318515 -7.75158e-05 0.00107154
outer loop
vertex -0.258504 -0.531224 -0.806832
vertex 0 0 0
vertex -0.259134 -0.528374 -0.808499
end loop
end factet
facet normal -0.00459144 -0.00234397 0.00300345
outer loop
vertex -0.259134 -0.528374 -0.808499
vertex 0 0 0
vertex -0.262611 -0.523874 -0.810303
end loop
end factet
facet normal -0.00447479 -0.00299355 0.00338562
outer loop
vertex -0.262611 -0.523874 -0.810303
vertex 0 0 0
vertex -0.266805 -0.519348 -0.811845
end loop
end factet
facet normal -0.00750697 -0.000783399 0.00296825
outer loop
vertex -0.266805 -0.519348 -0.811845
vertex 0 0 0
vertex -0.268974 -0.512445 -0.815508
end loop
end factet
facet normal -0.0130164 0.0013596 0.00343877
outer loop
vertex -0.268974 -0.512445 -0.815508
vertex 0 0 0
vertex -0.269603 -0.500858 -0.822469
end loop
end factet
facet normal -0.00547904 -0.00112423 0.00248063
outer loop
vertex -0.269603 -0.500858 -0.822469
vertex 0 0 0
vertex -0.271765 -0.495673 -0.824895
end loop
end factet
facet normal -0.00473261 -0.000683576 0.00196993
outer loop
vertex -0.271765 -0.495673 -0.824895
vertex 0 0 0
vertex -0.273302 -0.491227 -0.827044
end loop
end factet
facet normal -0.00667733 -0.00768737 0.00677252
outer loop
vertex -0.273302 -0.491227 -0.827044
vertex 0 0 0
vertex -0.282966 -0.483817 -0.828161
end loop
end factet
facet normal -0.00798488 -0.00765358 0.00719953
outer loop
vertex -0.282966 -0.483817 -0.828161
vertex 0 0 0
vertex -0.292763 -0.475125 -0.829787
end loop
end factet
facet normal -0.00482482 -0.00323778 0.00355619
outer loop
vertex -0.292763 -0.475125 -0.829787
vertex 0 0 0
vertex -0.297132 -0.47007 -0.831112
end loop
end factet
facet normal -0.0605831 0.00871468 0.0167302
outer loop
vertex -0.297132 -0.47007 -0.831112
vertex 0 0 0
vertex -0.297155 -0.4138 -0.860505
end loop
end factet
facet normal -0.0767104 0.0331018 0.0105721
outer loop
vertex -0.297155 -0.4138 -0.860505
vertex 0 0 0
vertex -0.27199 -0.343179 -0.899027
end loop
end factet
facet normal -0.0281449 0.00912823 0.00503046
outer loop
vertex -0.27199 -0.343179 -0.899027
vertex 0 0 0
vertex -0.265387 -0.316353 -0.910764
end loop
end factet
facet normal -0.0282632 0.00568523 0.00626084
outer loop
vertex -0.265387 -0.316353 -0.910764
vertex 0 0 0
vertex -0.262075 -0.288813 -0.920817
end loop
end factet
facet normal -0.0489272 0.020835 0.00739036
outer loop
vertex -0.262075 -0.288813 -0.920817
vertex 0 0 0
vertex -0.244646 -0.241406 -0.93908
end loop
end factet
facet normal 0.0525528 0.0248956 -0.0200907
outer loop
vertex -0.244646 -0.241406 -0.93908
vertex 0 0 0
vertex -0.215953 -0.295215 -0.930705
end loop
end factet
facet normal 0.0526681 0.0575449 -0.0304737
outer loop
vertex -0.215953 -0.295215 -0.930705
vertex 0 0 0
vertex -0.152641 -0.349778 -0.924314
end loop
end factet
facet normal 0.160969 0.123003 -0.073129
outer loop
vertex -0.152641 -0.349778 -0.924314
vertex 0 0 0
vertex -0.00978637 -0.501516 -0.865093
end loop
end factet
facet normal 0.0914649 0.0209532 -0.0131818
outer loop
vertex -0.00978637 -0.501516 -0.865093
vertex 0 0 0
vertex 0.014995 -0.578515 -0.815534
end loop
end factet
facet normal 0.0493613 -0.00104886 0.00165163
outer loop
vertex 0.014995 -0.578515 -0.815534
vertex 0 0 0
vertex 0.0131659 -0.618089 -0.785998
end loop
end factet
facet normal 0.0195236 -0.00824463 0.0068104
outer loop
vertex 0.0131659 -0.618089 -0.785998
vertex 0 0 0
vertex 0.0024729 -0.633371 -0.773845
end loop
end factet
facet normal 0.0991505 -0.00109799 0.00121552
outer loop
vertex 0.0024729 -0.633371 -0.773845
vertex 0 0 0
vertex 0.000841159 -0.706979 -0.707234
end loop
end factet
facet normal 0.0322996 -0.0148903 0.0149233
outer loop
vertex 0.000841159 -0.706979 -0.707234
vertex 0 0 0
vertex -0.0202409 -0.729309 -0.683885
end loop
end factet
facet normal 0.000121087 0.0334153 -0.0356384
outer loop
vertex -0.0202409 -0.729309 -0.683885
vertex 0 0 0
vertex 0.0286269 -0.729242 -0.683657
end loop
end factet
facet normal 0.00635687 0.0157171 -0.0164989
outer loop
vertex 0.0286269 -0.729242 -0.683657
vertex 0 0 0
vertex 0.0513957 -0.732912 -0.67838
end loop
end factet
facet normal 0.000555158 0.00836486 -0.00899522
outer loop
vertex 0.0513957 -0.732912 -0.67838
vertex 0 0 0
vertex 0.0636591 -0.732771 -0.677491
end loop
end factet
facet normal 0.00619853 0.00902488 -0.00917882
outer loop
vertex 0.0636591 -0.732771 -0.677491
vertex 0 0 0
vertex 0.0764928 -0.736311 -0.672306
end loop
end factet
facet normal -0.000459194 0.00902753 -0.00993922
outer loop
vertex 0.0764928 -0.736311 -0.672306
vertex 0 0 0
vertex 0.0898735 -0.735176 -0.671893
end loop
end factet
facet normal 0.00175357 0.00965552 -0.0103304
outer loop
vertex 0.0898735 -0.735176 -0.671893
vertex 0 0 0
vertex 0.103947 -0.735351 -0.669667
end loop
end factet
facet normal 0.00739899 0.00673325 -0.0062452
outer loop
vertex 0.103947 -0.735351 -0.669667
vertex 0 0 0
vertex 0.113041 -0.739605 -0.66348
end loop
end factet
facet normal 0.00580913 0.0074695 -0.00733679
outer loop
vertex 0.113041 -0.739605 -0.66348
vertex 0 0 0
vertex 0.123415 -0.742577 -0.658292
end loop
end factet
facet normal 0.00952223 0.00570451 -0.00464969
outer loop
vertex 0.123415 -0.742577 -0.658292
vertex 0 0 0
vertex 0.130614 -0.748218 -0.650469
end loop
end factet
facet normal 0.006246 0.00676039 -0.00652211
outer loop
vertex 0.130614 -0.748218 -0.650469
vertex 0 0 0
vertex 0.139883 -0.751381 -0.644871
end loop
end factet
facet normal 0.00609952 0.0149467 -0.0160923
outer loop
vertex 0.139883 -0.751381 -0.644871
vertex 0 0 0
vertex 0.161577 -0.752868 -0.63803
end loop
end factet
facet normal 0.0131517 0.00970031 -0.00811568
outer loop
vertex 0.161577 -0.752868 -0.63803
vertex 0 0 0
vertex 0.173849 -0.759823 -0.626455
end loop
end factet
facet normal 0.0126479 0.0178045 -0.018085
outer loop
vertex 0.173849 -0.759823 -0.626455
vertex 0 0 0
vertex 0.198674 -0.764297 -0.613497
end loop
end factet
facet normal 0.004078 0.014127 -0.0162788
outer loop
vertex 0.198674 -0.764297 -0.613497
vertex 0 0 0
vertex 0.219735 -0.76338 -0.607426
end loop
end factet
facet normal 0.00918725 0.011192 -0.010742
outer loop
vertex 0.219735 -0.76338 -0.607426
vertex 0 0 0
vertex 0.234698 -0.766477 -0.597855
end loop
end factet
facet normal 0.0126793 0.0239386 -0.0257128
outer loop
vertex 0.234698 -0.766477 -0.597855
vertex 0 0 0
vertex 0.268554 -0.767487 -0.582101
end loop
end factet
facet normal 0.0146188 0.0167284 -0.0153115
outer loop
vertex 0.268554 -0.767487 -0.582101
vertex 0 0 0
vertex 0.289945 -0.771606 -0.566177
end loop
end factet
facet normal 0.0290142 0.0158497 -0.00674203
outer loop
vertex 0.289945 -0.771606 -0.566177
vertex 0 0 0
vertex 0.303956 -0.785639 -0.538872
end loop
end factet
facet normal -0.00233328 -0.0116417 0.0156567
outer loop
vertex 0.303956 -0.785639 -0.538872
vertex 0 0 0
vertex 0.322472 -0.781985 -0.533396
end loop
end factet
solid fragmentGeometry
