solid fragmentGeometry
facet normal 0.00812811 0.00410023 0.00246525
outer loop
vertex 1.8861 -3.5074 -0.37522
vertex 0.473641 -0.875513 -0.0956039
vertex 0.47305 -0.876157 -0.092584
end loop
end factet
facet normal 0.00149977 0.000536233 0.00250602
outer loop
vertex 1.8861 -3.5074 -0.37522
vertex 0.47305 -0.876157 -0.092584
vertex 0.472335 -0.876598 -0.0920613
end loop
end factet
facet normal -0.00269729 -0.00312746 0.0155895
outer loop
vertex 1.8861 -3.5074 -0.37522
vertex 0.472335 -0.876598 -0.0920613
vertex 0.467677 -0.878957 -0.0933405
end loop
end factet
facet normal -0.00605035 -0.00205573 -0.0112767
outer loop
vertex 1.8861 -3.5074 -0.37522
vertex 0.467677 -0.878957 -0.0933405
vertex 0.470912 -0.877003 -0.0954328
end loop
end factet
facet normal -0.000866652 0.000521481 -0.00928664
outer loop
vertex 1.8861 -3.5074 -0.37522
vertex 0.470912 -0.877003 -0.0954328
vertex 0.473641 -0.875513 -0.0956039
end loop
end factet
facet normal 0.00270552 0.00137384 0.000822484
outer loop
vertex 0.473641 -0.875513 -0.0956039
vertex 0 0 0
vertex 0.47305 -0.876157 -0.092584
end loop
end factet
facet normal 0.000498742 0.000180982 0.000835568
outer loop
vertex 0.47305 -0.876157 -0.092584
vertex 0 0 0
vertex 0.472335 -0.876598 -0.0920613
end loop
end factet
facet normal -0.000904173 -0.00103304 0.0051975
outer loop
vertex 0.472335 -0.876598 -0.0920613
vertex 0 0 0
vertex 0.467677 -0.878957 -0.0933405
end loop
end factet
facet normal -0.00202146 -0.000676509 -0.00375792
outer loop
vertex 0.467677 -0.878957 -0.0933405
vertex 0 0 0
vertex 0.470912 -0.877003 -0.0954328
end loop
end factet
facet normal 0.00029216 -0.000179909 0.00309497
outer loop
vertex 0.470912 -0.877003 -0.0954328
vertex 0 0 0
vertex 0.473641 -0.875513 -0.0956039
end loop
end factet
solid fragmentGeometry
