solid fragmentGeometry
facet normal -0.000763893 -0.000218272 5.14984e-05
outer loop
vertex 0.546763 -2.5253 3.05351
vertex -0.304791 -0.0438669 0.951408
vertex -0.30468 -0.0442513 0.951426
end loop
end factet
facet normal -0.116666 0.0218698 0.0730679
outer loop
vertex 0.546763 -2.5253 3.05351
vertex -0.30468 -0.0442513 0.951426
vertex -0.318223 -0.0906043 0.943676
end loop
end factet
facet normal -0.0758429 0.024565 0.0594413
outer loop
vertex 0.546763 -2.5253 3.05351
vertex -0.318223 -0.0906043 0.943676
vertex -0.333199 -0.117172 0.935548
end loop
end factet
facet normal -0.101114 -0.0130173 0.0272095
outer loop
vertex 0.546763 -2.5253 3.05351
vertex -0.333199 -0.117172 0.935548
vertex -0.329045 -0.159461 0.930753
end loop
end factet
facet normal -0.0817919 0.0152676 0.0507617
outer loop
vertex 0.546763 -2.5253 3.05351
vertex -0.329045 -0.159461 0.930753
vertex -0.340059 -0.187667 0.921488
end loop
end factet
facet normal -0.0633411 -0.00472248 0.0211689
outer loop
vertex 0.546763 -2.5253 3.05351
vertex -0.340059 -0.187667 0.921488
vertex -0.340006 -0.211677 0.916291
end loop
end factet
facet normal -0.0712094 0.058883 0.0932889
outer loop
vertex 0.546763 -2.5253 3.05351
vertex -0.340006 -0.211677 0.916291
vertex -0.374695 -0.226373 0.899088
end loop
end factet
facet normal -0.0457883 0.0160425 0.0367024
outer loop
vertex 0.546763 -2.5253 3.05351
vertex -0.374695 -0.226373 0.899088
vertex -0.385533 -0.239165 0.891159
end loop
end factet
facet normal -0.0338769 -0.000294209 0.0142953
outer loop
vertex 0.546763 -2.5253 3.05351
vertex -0.385533 -0.239165 0.891159
vertex -0.387059 -0.250756 0.887303
end loop
end factet
facet normal -0.0578756 0.0194466 0.0453687
outer loop
vertex 0.546763 -2.5253 3.05351
vertex -0.387059 -0.250756 0.887303
vertex -0.400613 -0.266326 0.876687
end loop
end factet
facet normal -0.0912828 -0.000455379 0.0392547
outer loop
vertex 0.546763 -2.5253 3.05351
vertex -0.400613 -0.266326 0.876687
vertex -0.405565 -0.295954 0.864829
end loop
end factet
facet normal -0.0413213 0.000576019 0.0185661
outer loop
vertex 0.546763 -2.5253 3.05351
vertex -0.405565 -0.295954 0.864829
vertex -0.408377 -0.308866 0.85897
end loop
end factet
facet normal -0.0558715 -0.0027802 0.0215094
outer loop
vertex 0.546763 -2.5253 3.05351
vertex -0.408377 -0.308866 0.85897
vertex -0.410412 -0.326663 0.851383
end loop
end factet
facet normal -0.0225453 0.0040431 0.0138364
outer loop
vertex 0.546763 -2.5253 3.05351
vertex -0.410412 -0.326663 0.851383
vertex -0.414046 -0.332772 0.847248
end loop
end factet
facet normal -0.0561223 -0.0070684 0.0174162
outer loop
vertex 0.546763 -2.5253 3.05351
vertex -0.414046 -0.332772 0.847248
vertex -0.414042 -0.350908 0.8399
end loop
end factet
facet normal -0.0287781 -0.00216198 0.0103674
outer loop
vertex 0.546763 -2.5253 3.05351
vertex -0.414042 -0.350908 0.8399
vertex -0.414882 -0.359797 0.835715
end loop
end factet
facet normal -0.0556254 -0.0112145 0.0131695
outer loop
vertex 0.546763 -2.5253 3.05351
vertex -0.414882 -0.359797 0.835715
vertex -0.41289 -0.377977 0.828646
end loop
end factet
facet normal -0.140664 -0.00726366 0.0536623
outer loop
vertex 0.546763 -2.5253 3.05351
vertex -0.41289 -0.377977 0.828646
vertex -0.419682 -0.418698 0.805332
end loop
end factet
facet normal -0.0844398 -0.0220704 0.0156183
outer loop
vertex 0.546763 -2.5253 3.05351
vertex -0.419682 -0.418698 0.805332
vertex -0.414952 -0.445169 0.793498
end loop
end factet
facet normal -0.0215878 -0.0185909 -0.00792491
outer loop
vertex 0.546763 -2.5253 3.05351
vertex -0.414952 -0.445169 0.793498
vertex -0.407102 -0.453907 0.792613
end loop
end factet
facet normal -0.0293159 -0.0318174 -0.0167822
outer loop
vertex 0.546763 -2.5253 3.05351
vertex -0.407102 -0.453907 0.792613
vertex -0.393165 -0.466579 0.792291
end loop
end factet
facet normal -0.0829377 -0.0406716 -0.00255442
outer loop
vertex 0.546763 -2.5253 3.05351
vertex -0.393165 -0.466579 0.792291
vertex -0.379347 -0.494126 0.782263
end loop
end factet
facet normal -0.0184212 -0.0131819 -0.00427723
outer loop
vertex 0.546763 -2.5253 3.05351
vertex -0.379347 -0.494126 0.782263
vertex -0.374246 -0.500697 0.78054
end loop
end factet
facet normal -0.00521708 -0.00823712 -0.00522304
outer loop
vertex 0.546763 -2.5253 3.05351
vertex -0.374246 -0.500697 0.78054
vertex -0.370547 -0.503155 0.780724
end loop
end factet
facet normal -0.0260167 -0.00932264 0.00220597
outer loop
vertex 0.546763 -2.5253 3.05351
vertex -0.370547 -0.503155 0.780724
vertex -0.368047 -0.511071 0.776754
end loop
end factet
facet normal -0.0127468 -0.0100498 -0.0037694
outer loop
vertex 0.546763 -2.5253 3.05351
vertex -0.368047 -0.511071 0.776754
vertex -0.3641 -0.515642 0.775593
end loop
end factet
facet normal -0.0663123 -0.0199058 0.00895464
outer loop
vertex 0.546763 -2.5253 3.05351
vertex -0.3641 -0.515642 0.775593
vertex -0.359816 -0.534925 0.764453
end loop
end factet
facet normal -0.0502214 -0.0198944 0.00259161
outer loop
vertex 0.546763 -2.5253 3.05351
vertex -0.359816 -0.534925 0.764453
vertex -0.354319 -0.549851 0.756387
end loop
end factet
facet normal -0.0752707 -0.0173848 0.0145757
outer loop
vertex 0.546763 -2.5253 3.05351
vertex -0.354319 -0.549851 0.756387
vertex -0.352382 -0.570275 0.742033
end loop
end factet
facet normal -0.0293431 0.00784802 0.018052
outer loop
vertex 0.546763 -2.5253 3.05351
vertex -0.352382 -0.570275 0.742033
vertex -0.35882 -0.576353 0.734211
end loop
end factet
facet normal -0.0371385 -0.0166142 0.00053978
outer loop
vertex 0.546763 -2.5253 3.05351
vertex -0.35882 -0.576353 0.734211
vertex -0.354099 -0.587109 0.727954
end loop
end factet
facet normal -0.0139008 -0.006392 5.75781e-05
outer loop
vertex 0.546763 -2.5253 3.05351
vertex -0.354099 -0.587109 0.727954
vertex -0.352265 -0.591119 0.725595
end loop
end factet
facet normal -0.0135493 -0.00371027 0.00214994
outer loop
vertex 0.546763 -2.5253 3.05351
vertex -0.352265 -0.591119 0.725595
vertex -0.351704 -0.594718 0.722921
end loop
end factet
facet normal -0.0059948 -0.00386262 -0.000888944
outer loop
vertex 0.546763 -2.5253 3.05351
vertex -0.351704 -0.594718 0.722921
vertex -0.350385 -0.596562 0.722042
end loop
end factet
facet normal -0.0262527 -0.00965977 0.00211072
outer loop
vertex 0.546763 -2.5253 3.05351
vertex -0.350385 -0.596562 0.722042
vertex -0.348131 -0.60376 0.717132
end loop
end factet
facet normal -0.00977182 -0.00955296 -0.00411391
outer loop
vertex 0.546763 -2.5253 3.05351
vertex -0.348131 -0.60376 0.717132
vertex -0.344438 -0.607094 0.7161
end loop
end factet
facet normal -0.0152636 -0.00187135 0.00428402
outer loop
vertex 0.546763 -2.5253 3.05351
vertex -0.344438 -0.607094 0.7161
vertex -0.34494 -0.61082 0.712682
end loop
end factet
facet normal -0.0359883 -0.00470304 0.00986254
outer loop
vertex 0.546763 -2.5253 3.05351
vertex -0.34494 -0.61082 0.712682
vertex -0.346022 -0.619558 0.704569
end loop
end factet
facet normal -0.00921583 -0.017549 -0.010735
outer loop
vertex 0.546763 -2.5253 3.05351
vertex -0.346022 -0.619558 0.704569
vertex -0.338509 -0.623571 0.704678
end loop
end factet
facet normal -0.0252867 -0.0205319 -0.00709319
outer loop
vertex 0.546763 -2.5253 3.05351
vertex -0.338509 -0.623571 0.704678
vertex -0.331098 -0.631478 0.701149
end loop
end factet
facet normal -0.0387764 -0.0112402 0.00542152
outer loop
vertex 0.546763 -2.5253 3.05351
vertex -0.331098 -0.631478 0.701149
vertex -0.329382 -0.641356 0.692943
end loop
end factet
facet normal -0.0586381 -0.0349064 -0.00609422
outer loop
vertex 0.546763 -2.5253 3.05351
vertex -0.329382 -0.641356 0.692943
vertex -0.318473 -0.657858 0.682494
end loop
end factet
facet normal -0.010788 -0.0170918 -0.00952482
outer loop
vertex 0.546763 -2.5253 3.05351
vertex -0.318473 -0.657858 0.682494
vertex -0.31151 -0.661878 0.681821
end loop
end factet
facet normal -0.0415425 -0.039026 -0.0156287
outer loop
vertex 0.546763 -2.5253 3.05351
vertex -0.31151 -0.661878 0.681821
vertex -0.297271 -0.674583 0.675698
end loop
end factet
facet normal -0.0123858 -0.028316 -0.0176427
outer loop
vertex 0.546763 -2.5253 3.05351
vertex -0.297271 -0.674583 0.675698
vertex -0.285381 -0.679751 0.675645
end loop
end factet
facet normal -0.0214567 -0.0684179 -0.0455927
outer loop
vertex 0.546763 -2.5253 3.05351
vertex -0.285381 -0.679751 0.675645
vertex -0.256102 -0.689897 0.677092
end loop
end factet
facet normal -0.0703712 -0.0616664 -0.0238527
outer loop
vertex 0.546763 -2.5253 3.05351
vertex -0.256102 -0.689897 0.677092
vertex -0.234451 -0.709682 0.664367
end loop
end factet
facet normal -0.0655012 -0.027171 0.000769377
outer loop
vertex 0.546763 -2.5253 3.05351
vertex -0.234451 -0.709682 0.664367
vertex -0.228026 -0.7256 0.649237
end loop
end factet
facet normal -0.072578 -0.0137346 0.0131078
outer loop
vertex 0.546763 -2.5253 3.05351
vertex -0.228026 -0.7256 0.649237
vertex -0.228335 -0.7418 0.630552
end loop
end factet
facet normal -0.0936813 -0.0287354 0.00881684
outer loop
vertex 0.546763 -2.5253 3.05351
vertex -0.228335 -0.7418 0.630552
vertex -0.224154 -0.762795 0.606547
end loop
end factet
facet normal -0.0815883 -0.0223739 0.00958884
outer loop
vertex 0.546763 -2.5253 3.05351
vertex -0.224154 -0.762795 0.606547
vertex -0.221914 -0.780356 0.584636
end loop
end factet
facet normal -0.0305104 -0.0230504 -0.00679219
outer loop
vertex 0.546763 -2.5253 3.05351
vertex -0.221914 -0.780356 0.584636
vertex -0.214809 -0.787647 0.577468
end loop
end factet
facet normal -0.111289 -0.0738039 -0.0175648
outer loop
vertex 0.546763 -2.5253 3.05351
vertex -0.214809 -0.787647 0.577468
vertex -0.193655 -0.812851 0.549337
end loop
end factet
facet normal -0.0921779 -0.02452 0.0104868
outer loop
vertex 0.546763 -2.5253 3.05351
vertex -0.193655 -0.812851 0.549337
vertex -0.191922 -0.831022 0.522081
end loop
end factet
facet normal -0.0438638 -0.0324702 -0.00893235
outer loop
vertex 0.546763 -2.5253 3.05351
vertex -0.191922 -0.831022 0.522081
vertex -0.182548 -0.84043 0.510248
end loop
end factet
facet normal -0.0204735 -0.0223677 -0.00894713
outer loop
vertex 0.546763 -2.5253 3.05351
vertex -0.182548 -0.84043 0.510248
vertex -0.175226 -0.845078 0.505112
end loop
end factet
facet normal -0.0130262 -0.00649059 -0.000588894
outer loop
vertex 0.546763 -2.5253 3.05351
vertex -0.175226 -0.845078 0.505112
vertex -0.173766 -0.84766 0.501276
end loop
end factet
facet normal -0.0112567 -0.00985217 -0.00329816
outer loop
vertex 0.546763 -2.5253 3.05351
vertex -0.173766 -0.84766 0.501276
vertex -0.170767 -0.850065 0.498225
end loop
end factet
facet normal -0.0337944 -0.067817 -0.034971
outer loop
vertex 0.546763 -2.5253 3.05351
vertex -0.170767 -0.850065 0.498225
vertex -0.146198 -0.858688 0.491204
end loop
end factet
facet normal -0.011755 -0.0446204 -0.0258435
outer loop
vertex 0.546763 -2.5253 3.05351
vertex -0.146198 -0.858688 0.491204
vertex -0.129198 -0.86228 0.489674
end loop
end factet
facet normal -0.0733562 -0.061391 -0.0204804
outer loop
vertex 0.546763 -2.5253 3.05351
vertex -0.129198 -0.86228 0.489674
vertex -0.11099 -0.876777 0.467913
end loop
end factet
facet normal -0.140876 -0.135129 -0.0503178
outer loop
vertex 0.546763 -2.5253 3.05351
vertex -0.11099 -0.876777 0.467913
vertex -0.0699702 -0.903086 0.423721
end loop
end factet
facet normal -0.142029 -0.125416 -0.0440556
outer loop
vertex 0.546763 -2.5253 3.05351
vertex -0.0699702 -0.903086 0.423721
vertex -0.0338512 -0.926657 0.37438
end loop
end factet
facet normal -0.137282 -0.0294285 0.0121914
outer loop
vertex 0.546763 -2.5253 3.05351
vertex -0.0338512 -0.926657 0.37438
vertex -0.0343404 -0.946308 0.321438
end loop
end factet
facet normal -0.0683551 0.0226395 0.0276234
outer loop
vertex 0.546763 -2.5253 3.05351
vertex -0.0343404 -0.946308 0.321438
vertex -0.0486803 -0.954879 0.292978
end loop
end factet
facet normal -0.145923 -0.0600444 -0.00268286
outer loop
vertex 0.546763 -2.5253 3.05351
vertex -0.0486803 -0.954879 0.292978
vertex -0.0403959 -0.972223 0.230546
end loop
end factet
facet normal -0.0419703 -0.00230277 0.00746268
outer loop
vertex 0.546763 -2.5253 3.05351
vertex -0.0403959 -0.972223 0.230546
vertex -0.0435976 -0.976463 0.21123
end loop
end factet
facet normal -0.0396547 -0.0243851 -0.00505155
outer loop
vertex 0.546763 -2.5253 3.05351
vertex -0.0435976 -0.976463 0.21123
vertex -0.0388189 -0.980444 0.192932
end loop
end factet
facet normal -0.074791 0.015761 0.0238221
outer loop
vertex 0.546763 -2.5253 3.05351
vertex -0.0388189 -0.980444 0.192932
vertex -0.0519637 -0.986447 0.155634
end loop
end factet
facet normal -0.0324616 0.0317215 0.0235519
outer loop
vertex 0.546763 -2.5253 3.05351
vertex -0.0519637 -0.986447 0.155634
vertex -0.0665822 -0.988211 0.137861
end loop
end factet
facet normal -0.0731115 -0.0710829 -0.022094
outer loop
vertex 0.546763 -2.5253 3.05351
vertex -0.0665822 -0.988211 0.137861
vertex -0.0500323 -0.993664 0.100641
end loop
end factet
facet normal -0.0490737 -0.0246936 -0.00289029
outer loop
vertex 0.546763 -2.5253 3.05351
vertex -0.0500323 -0.993664 0.100641
vertex -0.0471639 -0.996183 0.073456
end loop
end factet
facet normal -0.175504 0.0380358 0.054495
outer loop
vertex 0.546763 -2.5253 3.05351
vertex -0.0471639 -0.996183 0.073456
vertex -0.0830097 -0.995648 -0.0423606
end loop
end factet
facet normal -0.0756788 -0.0573423 -0.0129375
outer loop
vertex 0.546763 -2.5253 3.05351
vertex -0.0830097 -0.995648 -0.0423606
vertex -0.0759706 -0.992202 -0.0988094
end loop
end factet
facet normal -0.0185947 0.00916326 0.00812972
outer loop
vertex 0.546763 -2.5253 3.05351
vertex -0.0759706 -0.992202 -0.0988094
vertex -0.0822199 -0.989872 -0.115729
end loop
end factet
facet normal -0.0194392 0.0184205 0.0127823
outer loop
vertex 0.546763 -2.5253 3.05351
vertex -0.0822199 -0.989872 -0.115729
vertex -0.0919115 -0.986536 -0.135276
end loop
end factet
facet normal -0.0384121 -0.0451012 -0.0140703
outer loop
vertex 0.546763 -2.5253 3.05351
vertex -0.0919115 -0.986536 -0.135276
vertex -0.0847432 -0.981776 -0.170103
end loop
end factet
facet normal -0.0400381 -0.0697562 -0.0255571
outer loop
vertex 0.546763 -2.5253 3.05351
vertex -0.0847432 -0.981776 -0.170103
vertex -0.0708938 -0.975156 -0.209867
end loop
end factet
facet normal 0.000555038 -0.0170741 -0.00821549
outer loop
vertex 0.546763 -2.5253 3.05351
vertex -0.0708938 -0.975156 -0.209867
vertex -0.065253 -0.976012 -0.207707
end loop
end factet
facet normal 0.00383282 -0.0213256 -0.0108503
outer loop
vertex 0.546763 -2.5253 3.05351
vertex -0.065253 -0.976012 -0.207707
vertex -0.0575411 -0.977805 -0.201458
end loop
end factet
facet normal 0.00712156 -0.0176147 -0.0096966
outer loop
vertex 0.546763 -2.5253 3.05351
vertex -0.0575411 -0.977805 -0.201458
vertex -0.0503825 -0.980091 -0.192048
end loop
end factet
facet normal 0.00211716 -0.0188596 -0.0093686
outer loop
vertex 0.546763 -2.5253 3.05351
vertex -0.0503825 -0.980091 -0.192048
vertex -0.0439439 -0.981063 -0.188637
end loop
end factet
facet normal 0.000134945 -0.00669801 -0.0032149
outer loop
vertex 0.546763 -2.5253 3.05351
vertex -0.0439439 -0.981063 -0.188637
vertex -0.041791 -0.981249 -0.18816
end loop
end factet
facet normal -0.000930309 -0.0145515 -0.00676227
outer loop
vertex 0.546763 -2.5253 3.05351
vertex -0.041791 -0.981249 -0.18816
vertex -0.0373714 -0.981354 -0.188541
end loop
end factet
facet normal 0.000879288 -0.0101233 -0.00497937
outer loop
vertex 0.546763 -2.5253 3.05351
vertex -0.0373714 -0.981354 -0.188541
vertex -0.0339999 -0.981741 -0.187159
end loop
end factet
facet normal -0.00106525 -0.0165812 -0.00770688
outer loop
vertex 0.546763 -2.5253 3.05351
vertex -0.0339999 -0.981741 -0.187159
vertex -0.0289886 -0.98179 -0.187747
end loop
end factet
facet normal 0.00427055 -0.0405365 -0.0200623
outer loop
vertex 0.546763 -2.5253 3.05351
vertex -0.0289886 -0.98179 -0.187747
vertex -0.015481 -0.983156 -0.18211
end loop
end factet
facet normal 0.00065279 -0.0350018 -0.0167958
outer loop
vertex 0.546763 -2.5253 3.05351
vertex -0.015481 -0.983156 -0.18211
vertex -0.00447685 -0.983466 -0.181037
end loop
end factet
facet normal 0.00591183 -0.00714827 -0.00441498
outer loop
vertex 0.546763 -2.5253 3.05351
vertex -0.00447685 -0.983466 -0.181037
vertex -0.00120863 -0.984598 -0.174828
end loop
end factet
facet normal 0.00586748 -0.0252367 -0.01304
outer loop
vertex 0.546763 -2.5253 3.05351
vertex -0.00120863 -0.984598 -0.174828
vertex 0.00761156 -0.985601 -0.168919
end loop
end factet
facet normal 0.00308132 -0.0409026 -0.0200591
outer loop
vertex 0.546763 -2.5253 3.05351
vertex 0.00761156 -0.985601 -0.168919
vertex 0.0207222 -0.985837 -0.166423
end loop
end factet
facet normal -0.000181198 -0.0239245 -0.0114088
outer loop
vertex 0.546763 -2.5253 3.05351
vertex 0.0207222 -0.985837 -0.166423
vertex 0.028027 -0.985526 -0.16719
end loop
end factet
facet normal -0.00241375 -0.0595893 -0.0281001
outer loop
vertex 0.546763 -2.5253 3.05351
vertex 0.028027 -0.985526 -0.16719
vertex 0.0457841 -0.984065 -0.171815
end loop
end factet
facet normal 0.0198312 -0.116835 -0.0589105
outer loop
vertex 0.546763 -2.5253 3.05351
vertex 0.0457841 -0.984065 -0.171815
vertex 0.0838379 -0.983544 -0.160037
end loop
end factet
facet normal 0.0088582 -0.0348848 -0.0180127
outer loop
vertex 0.546763 -2.5253 3.05351
vertex 0.0838379 -0.983544 -0.160037
vertex 0.0954581 -0.983335 -0.154728
end loop
end factet
facet normal 0.0155559 -0.0419863 -0.0223681
outer loop
vertex 0.546763 -2.5253 3.05351
vertex 0.0954581 -0.983335 -0.154728
vertex 0.109973 -0.983363 -0.144581
end loop
end factet
facet normal 0.00270557 -0.0382279 -0.0188009
outer loop
vertex 0.546763 -2.5253 3.05351
vertex 0.109973 -0.983363 -0.144581
vertex 0.121706 -0.981742 -0.146189
end loop
end factet
facet normal 0.0128632 -0.0421023 -0.0220192
outer loop
vertex 0.546763 -2.5253 3.05351
vertex 0.121706 -0.981742 -0.146189
vertex 0.135725 -0.980846 -0.139711
end loop
end factet
facet normal 0.0108991 -0.0839193 -0.0419919
outer loop
vertex 0.546763 -2.5253 3.05351
vertex 0.135725 -0.980846 -0.139711
vertex 0.161798 -0.976652 -0.141327
end loop
end factet
facet normal 0.012826 -0.0904334 -0.0453817
outer loop
vertex 0.546763 -2.5253 3.05351
vertex 0.161798 -0.976652 -0.141327
vertex 0.189737 -0.971163 -0.144368
end loop
end factet
facet normal -0.000410557 -0.0815189 -0.0395716
outer loop
vertex 0.546763 -2.5253 3.05351
vertex 0.189737 -0.971163 -0.144368
vertex 0.213503 -0.963781 -0.159822
end loop
end factet
facet normal 0.00600624 -0.0562731 -0.0279688
outer loop
vertex 0.546763 -2.5253 3.05351
vertex 0.213503 -0.963781 -0.159822
vertex 0.230353 -0.958807 -0.16621
end loop
end factet
facet normal 0.00507307 -0.0502411 -0.0249424
outer loop
vertex 0.546763 -2.5253 3.05351
vertex 0.230353 -0.958807 -0.16621
vertex 0.245279 -0.95387 -0.17312
end loop
end factet
facet normal 0.00879574 -0.0279622 -0.01444
outer loop
vertex 0.546763 -2.5253 3.05351
vertex 0.245279 -0.95387 -0.17312
vertex 0.254073 -0.951815 -0.171743
end loop
end factet
facet normal 0.023829 -0.0708243 -0.0367151
outer loop
vertex 0.546763 -2.5253 3.05351
vertex 0.254073 -0.951815 -0.171743
vertex 0.276372 -0.946253 -0.167999
end loop
end factet
facet normal 0.0245614 -0.0507103 -0.0269175
outer loop
vertex 0.546763 -2.5253 3.05351
vertex 0.276372 -0.946253 -0.167999
vertex 0.29282 -0.942758 -0.159576
end loop
end factet
facet normal 0.00867653 -0.0362914 -0.0185604
outer loop
vertex 0.546763 -2.5253 3.05351
vertex 0.29282 -0.942758 -0.159576
vertex 0.303914 -0.938804 -0.16212
end loop
end factet
facet normal -0.00146532 -0.0103 -0.00497106
outer loop
vertex 0.546763 -2.5253 3.05351
vertex 0.303914 -0.938804 -0.16212
vertex 0.306787 -0.937103 -0.166491
end loop
end factet
facet normal 0.0043602 -0.0286053 -0.0144339
outer loop
vertex 0.546763 -2.5253 3.05351
vertex 0.306787 -0.937103 -0.166491
vertex 0.315317 -0.93341 -0.171234
end loop
end factet
facet normal 0.00879765 -0.0265362 -0.013731
outer loop
vertex 0.546763 -2.5253 3.05351
vertex 0.315317 -0.93341 -0.171234
vertex 0.323527 -0.930546 -0.17151
end loop
end factet
facet normal 0.0384393 -0.24949 -0.126032
outer loop
vertex 0.546763 -2.5253 3.05351
vertex 0.323527 -0.930546 -0.17151
vertex 0.396551 -0.887647 -0.234158
end loop
end factet
facet normal 0.0300727 -0.126347 -0.0643101
outer loop
vertex 0.546763 -2.5253 3.05351
vertex 0.396551 -0.887647 -0.234158
vertex 0.433163 -0.858667 -0.273974
end loop
end factet
facet normal 0.0885162 -0.165232 -0.0857816
outer loop
vertex 0.546763 -2.5253 3.05351
vertex 0.433163 -0.858667 -0.273974
vertex 0.482764 -0.83126 -0.275581
end loop
end factet
facet normal 0.0378575 -0.0748047 -0.0387929
outer loop
vertex 0.546763 -2.5253 3.05351
vertex 0.482764 -0.83126 -0.275581
vertex 0.505006 -0.813832 -0.287483
end loop
end factet
facet normal 0.079998 -0.148362 -0.0770001
outer loop
vertex 0.546763 -2.5253 3.05351
vertex 0.505006 -0.813832 -0.287483
vertex 0.548866 -0.767521 -0.331146
end loop
end factet
facet normal 0.149696 -0.196142 -0.101771
outer loop
vertex 0.546763 -2.5253 3.05351
vertex 0.548866 -0.767521 -0.331146
vertex 0.606826 -0.715514 -0.346124
end loop
end factet
facet normal 0.29669 -0.300995 -0.154992
outer loop
vertex 0.546763 -2.5253 3.05351
vertex 0.606826 -0.715514 -0.346124
vertex 0.694266 -0.661325 -0.283981
end loop
end factet
facet normal 0.650811 -0.483815 -0.241446
outer loop
vertex 0.546763 -2.5253 3.05351
vertex 0.694266 -0.661325 -0.283981
vertex 0.83795 -0.482498 -0.255021
end loop
end factet
facet normal 0.380051 -0.185934 -0.0813534
outer loop
vertex 0.546763 -2.5253 3.05351
vertex 0.83795 -0.482498 -0.255021
vertex 0.894276 -0.366731 -0.256475
end loop
end factet
facet normal 0.273982 -0.107557 -0.0413772
outer loop
vertex 0.546763 -2.5253 3.05351
vertex 0.894276 -0.366731 -0.256475
vertex 0.924987 -0.295036 -0.239485
end loop
end factet
facet normal 0.153846 -0.0597931 -0.0228261
outer loop
vertex 0.546763 -2.5253 3.05351
vertex 0.924987 -0.295036 -0.239485
vertex 0.940081 -0.266383 -0.21281
end loop
end factet
facet normal 0.335984 -0.102463 -0.030403
outer loop
vertex 0.546763 -2.5253 3.05351
vertex 0.940081 -0.266383 -0.21281
vertex 0.966325 -0.192955 -0.170248
end loop
end factet
facet normal 0.472386 -0.0544956 0.0220529
outer loop
vertex 0.546763 -2.5253 3.05351
vertex 0.966325 -0.192955 -0.170248
vertex 0.983745 -0.0435567 -0.174209
end loop
end factet
facet normal 0.282064 0.0610267 0.0851096
outer loop
vertex 0.546763 -2.5253 3.05351
vertex 0.983745 -0.0435567 -0.174209
vertex 0.971436 0.0813017 -0.222942
end loop
end factet
facet normal 0.154357 0.00743234 0.0259196
outer loop
vertex 0.546763 -2.5253 3.05351
vertex 0.971436 0.0813017 -0.222942
vertex 0.968371 0.123523 -0.216796
end loop
end factet
facet normal 0.0480728 -0.0605 -0.0428053
outer loop
vertex 0.546763 -2.5253 3.05351
vertex 0.968371 0.123523 -0.216796
vertex 0.980665 0.0992383 -0.168664
end loop
end factet
facet normal 0.110462 -0.0386889 -0.016638
outer loop
vertex 0.546763 -2.5253 3.05351
vertex 0.980665 0.0992383 -0.168664
vertex 0.986995 0.0991813 -0.126506
end loop
end factet
facet normal 0.0464315 -0.015211 -0.00612593
outer loop
vertex 0.546763 -2.5253 3.05351
vertex 0.986995 0.0991813 -0.126506
vertex 0.989234 0.098614 -0.108127
end loop
end factet
facet normal 0.0252123 -0.0198587 -0.0129528
outer loop
vertex 0.546763 -2.5253 3.05351
vertex 0.989234 0.098614 -0.108127
vertex 0.992401 0.0881213 -0.085875
end loop
end factet
facet normal 0.362762 -0.0491818 0.0105525
outer loop
vertex 0.546763 -2.5253 3.05351
vertex 0.992401 0.0881213 -0.085875
vertex 0.99308 0.115778 0.019709
end loop
end factet
facet normal 0.498787 -0.014497 0.0607585
outer loop
vertex 0.546763 -2.5253 3.05351
vertex 0.99308 0.115778 0.019709
vertex 0.972956 0.13283 0.18898
end loop
end factet
facet normal 0.19041 0.0250611 0.0515852
outer loop
vertex 0.546763 -2.5253 3.05351
vertex 0.972956 0.13283 0.18898
vertex 0.961004 0.179327 0.210505
end loop
end factet
facet normal 0.192456 0.0287833 0.0554242
outer loop
vertex 0.546763 -2.5253 3.05351
vertex 0.961004 0.179327 0.210505
vertex 0.945428 0.211421 0.247927
end loop
end factet
facet normal 0.218952 0.0374258 0.0676196
outer loop
vertex 0.546763 -2.5253 3.05351
vertex 0.945428 0.211421 0.247927
vertex 0.919157 0.200695 0.338929
end loop
end factet
facet normal 0.152162 0.0379483 0.0589818
outer loop
vertex 0.546763 -2.5253 3.05351
vertex 0.919157 0.200695 0.338929
vertex 0.899576 0.215747 0.379758
end loop
end factet
facet normal 0.259395 0.0767762 0.112937
outer loop
vertex 0.546763 -2.5253 3.05351
vertex 0.899576 0.215747 0.379758
vertex 0.864302 0.261804 0.429465
end loop
end factet
facet normal 0.110934 0.0388057 0.0546414
outer loop
vertex 0.546763 -2.5253 3.05351
vertex 0.864302 0.261804 0.429465
vertex 0.846598 0.27849 0.453557
end loop
end factet
facet normal 0.178261 0.0699346 0.0959753
outer loop
vertex 0.546763 -2.5253 3.05351
vertex 0.846598 0.27849 0.453557
vertex 0.815363 0.306501 0.491162
end loop
end factet
facet normal 0.0933237 0.0407191 0.0547839
outer loop
vertex 0.546763 -2.5253 3.05351
vertex 0.815363 0.306501 0.491162
vertex 0.797389 0.320963 0.511032
end loop
end factet
facet normal 0.123429 0.0651901 0.0851465
outer loop
vertex 0.546763 -2.5253 3.05351
vertex 0.797389 0.320963 0.511032
vertex 0.767228 0.318167 0.556894
end loop
end factet
facet normal 0.0760508 0.0384584 0.0505171
outer loop
vertex 0.546763 -2.5253 3.05351
vertex 0.767228 0.318167 0.556894
vertex 0.75058 0.332593 0.570974
end loop
end factet
facet normal 0.0429034 0.0386287 0.0479918
outer loop
vertex 0.546763 -2.5253 3.05351
vertex 0.75058 0.332593 0.570974
vertex 0.731951 0.306843 0.608354
end loop
end factet
facet normal 0.00862122 0.0277644 0.0328116
outer loop
vertex 0.546763 -2.5253 3.05351
vertex 0.731951 0.306843 0.608354
vertex 0.718246 0.274428 0.639384
end loop
end factet
facet normal 0.0943785 0.150426 0.181157
outer loop
vertex 0.546763 -2.5253 3.05351
vertex 0.718246 0.274428 0.639384
vertex 0.649354 0.206075 0.732033
end loop
end factet
facet normal 0.0509648 0.0766412 0.0924259
outer loop
vertex 0.546763 -2.5253 3.05351
vertex 0.649354 0.206075 0.732033
vertex 0.614846 0.188236 0.765854
end loop
end factet
facet normal 0.0548444 0.0452788 0.0553403
outer loop
vertex 0.546763 -2.5253 3.05351
vertex 0.614846 0.188236 0.765854
vertex 0.594637 0.195632 0.77983
end loop
end factet
facet normal 0.106189 0.110016 0.133893
outer loop
vertex 0.546763 -2.5253 3.05351
vertex 0.594637 0.195632 0.77983
vertex 0.545546 0.202276 0.813305
end loop
end factet
facet normal 0.000124454 0.0128896 0.0156938
outer loop
vertex 0.546763 -2.5253 3.05351
vertex 0.545546 0.202276 0.813305
vertex 0.539795 0.195732 0.818725
end loop
end factet
facet normal 0.0268145 0.0437491 0.0531845
outer loop
vertex 0.546763 -2.5253 3.05351
vertex 0.539795 0.195732 0.818725
vertex 0.520261 0.191154 0.83234
end loop
end factet
facet normal -0.00809336 0.0096229 0.0118652
outer loop
vertex 0.546763 -2.5253 3.05351
vertex 0.520261 0.191154 0.83234
vertex 0.515985 0.181676 0.83711
end loop
end factet
facet normal 0.00509882 0.0138849 0.0168873
outer loop
vertex 0.546763 -2.5253 3.05351
vertex 0.515985 0.181676 0.83711
vertex 0.509783 0.17852 0.841577
end loop
end factet
facet normal 0.0499787 0.0627296 0.0758439
outer loop
vertex 0.546763 -2.5253 3.05351
vertex 0.509783 0.17852 0.841577
vertex 0.481685 0.181963 0.857245
end loop
end factet
facet normal 0.0022397 0.0243068 0.0298959
outer loop
vertex 0.546763 -2.5253 3.05351
vertex 0.481685 0.181963 0.857245
vertex 0.470847 0.173421 0.865002
end loop
end factet
facet normal 0.0451035 0.0859143 0.104379
outer loop
vertex 0.546763 -2.5253 3.05351
vertex 0.470847 0.173421 0.865002
vertex 0.432315 0.168284 0.885881
end loop
end factet
facet normal 0.0580263 0.0984878 0.119321
outer loop
vertex 0.546763 -2.5253 3.05351
vertex 0.432315 0.168284 0.885881
vertex 0.387932 0.170272 0.905824
end loop
end factet
facet normal -0.0028367 0.0260277 0.0328774
outer loop
vertex 0.546763 -2.5253 3.05351
vertex 0.387932 0.170272 0.905824
vertex 0.376304 0.160611 0.912469
end loop
end factet
facet normal -0.00371742 0.0592003 0.074562
outer loop
vertex 0.546763 -2.5253 3.05351
vertex 0.376304 0.160611 0.912469
vertex 0.349735 0.141838 0.926049
end loop
end factet
facet normal 0.00720644 0.117996 0.14726
outer loop
vertex 0.546763 -2.5253 3.05351
vertex 0.349735 0.141838 0.926049
vertex 0.296285 0.117975 0.947785
end loop
end factet
facet normal -0.00216293 0.0730562 0.0919635
outer loop
vertex 0.546763 -2.5253 3.05351
vertex 0.296285 0.117975 0.947785
vertex 0.262967 0.102428 0.959352
end loop
end factet
facet normal 0.0316386 0.101994 0.123694
outer loop
vertex 0.546763 -2.5253 3.05351
vertex 0.262967 0.102428 0.959352
vertex 0.21584 0.102936 0.970988
end loop
end factet
facet normal 0.0182562 0.0790674 0.0968857
outer loop
vertex 0.546763 -2.5253 3.05351
vertex 0.21584 0.102936 0.970988
vertex 0.179068 0.102205 0.978514
end loop
end factet
facet normal 0.00113249 0.0116252 0.01452
outer loop
vertex 0.546763 -2.5253 3.05351
vertex 0.179068 0.102205 0.978514
vertex 0.173653 0.101411 0.979572
end loop
end factet
facet normal -0.00589657 0.0218644 0.0287527
outer loop
vertex 0.546763 -2.5253 3.05351
vertex 0.173653 0.101411 0.979572
vertex 0.163528 0.0956273 0.981893
end loop
end factet
facet normal -0.0236506 0.0269918 0.0385243
outer loop
vertex 0.546763 -2.5253 3.05351
vertex 0.163528 0.0956273 0.981893
vertex 0.151125 0.0799284 0.985278
end loop
end factet
facet normal -0.0218148 0.0230327 0.0331858
outer loop
vertex 0.546763 -2.5253 3.05351
vertex 0.151125 0.0799284 0.985278
vertex 0.140485 0.066112 0.987873
end loop
end factet
facet normal -0.00731039 0.00187445 0.00378942
outer loop
vertex 0.546763 -2.5253 3.05351
vertex 0.140485 0.066112 0.987873
vertex 0.139652 0.0620981 0.988252
end loop
end factet
facet normal -0.00625515 0.0047636 0.00720096
outer loop
vertex 0.546763 -2.5253 3.05351
vertex 0.139652 0.0620981 0.988252
vertex 0.137451 0.0584003 0.988786
end loop
end factet
facet normal -0.00595331 0.00401217 0.00620091
outer loop
vertex 0.546763 -2.5253 3.05351
vertex 0.137451 0.0584003 0.988786
vertex 0.135598 0.0549495 0.989239
end loop
end factet
facet normal -0.0110579 0.0104253 0.0152338
outer loop
vertex 0.546763 -2.5253 3.05351
vertex 0.135598 0.0549495 0.989239
vertex 0.130746 0.0483458 0.990237
end loop
end factet
facet normal -0.0645566 0.0138629 0.0303086
outer loop
vertex 0.546763 -2.5253 3.05351
vertex 0.130746 0.0483458 0.990237
vertex 0.124407 0.0147048 0.992122
end loop
end factet
facet normal -0.0156879 0.0223915 0.0308046
outer loop
vertex 0.546763 -2.5253 3.05351
vertex 0.124407 0.0147048 0.992122
vertex 0.113824 0.00541429 0.993486
end loop
end factet
facet normal -0.0115767 0.00527555 0.00891399
outer loop
vertex 0.546763 -2.5253 3.05351
vertex 0.113824 0.00541429 0.993486
vertex 0.111326 -0.000570906 0.993784
end loop
end factet
facet normal -0.0086112 0.0186272 0.024653
outer loop
vertex 0.546763 -2.5253 3.05351
vertex 0.111326 -0.000570906 0.993784
vertex 0.10248 -0.00589662 0.994718
end loop
end factet
facet normal 0.00522757 0.0126607 0.0143651
outer loop
vertex 0.546763 -2.5253 3.05351
vertex 0.10248 -0.00589662 0.994718
vertex 0.0964621 -0.00410459 0.995328
end loop
end factet
facet normal 0.00286531 0.00624835 0.00702703
outer loop
vertex 0.546763 -2.5253 3.05351
vertex 0.0964621 -0.00410459 0.995328
vertex 0.0934891 -0.00306452 0.995616
end loop
end factet
facet normal -0.00216007 0.0155578 0.019544
outer loop
vertex 0.546763 -2.5253 3.05351
vertex 0.0934891 -0.00306452 0.995616
vertex 0.0860746 -0.00492432 0.996277
end loop
end factet
facet normal -0.000945568 0.0282864 0.0348662
outer loop
vertex 0.546763 -2.5253 3.05351
vertex 0.0860746 -0.00492432 0.996277
vertex 0.0725633 -0.00668842 0.997341
end loop
end factet
facet normal -0.00171995 0.00561225 0.00727105
outer loop
vertex 0.546763 -2.5253 3.05351
vertex 0.0725633 -0.00668842 0.997341
vertex 0.0698764 -0.00775062 0.997526
end loop
end factet
facet normal -0.00432682 0.00640225 0.00884318
outer loop
vertex 0.546763 -2.5253 3.05351
vertex 0.0698764 -0.00775062 0.997526
vertex 0.0668063 -0.0100868 0.997715
end loop
end factet
facet normal -0.000877857 0.00620693 0.00779903
outer loop
vertex 0.546763 -2.5253 3.05351
vertex 0.0668063 -0.0100868 0.997715
vertex 0.0638309 -0.0107436 0.997903
end loop
end factet
facet normal -0.000366211 0.00344455 0.00429952
outer loop
vertex 0.546763 -2.5253 3.05351
vertex 0.0638309 -0.0107436 0.997903
vertex 0.062179 -0.0110452 0.998004
end loop
end factet
facet normal -0.0276175 0.0516908 0.069738
outer loop
vertex 0.546763 -2.5253 3.05351
vertex 0.062179 -0.0110452 0.998004
vertex 0.0372606 -0.02567 0.998976
end loop
end factet
facet normal 0.00130415 0.115738 0.140488
outer loop
vertex 0.546763 -2.5253 3.05351
vertex 0.0372606 -0.02567 0.998976
vertex -0.0189446 -0.0256621 0.999491
end loop
end factet
facet normal -0.000227451 0.0325212 0.0396394
outer loop
vertex 0.546763 -2.5253 3.05351
vertex -0.0189446 -0.0256621 0.999491
vertex -0.0348931 -0.0252627 0.999072
end loop
end factet
facet normal 0.0238557 0.0567385 0.0622909
outer loop
vertex 0.546763 -2.5253 3.05351
vertex -0.0348931 -0.0252627 0.999072
vertex -0.0628286 -0.0122843 0.997949
end loop
end factet
facet normal -0.00419712 0.00794172 0.0109538
outer loop
vertex 0.546763 -2.5253 3.05351
vertex -0.0628286 -0.0122843 0.997949
vertex -0.0667748 -0.0139855 0.99767
end loop
end factet
facet normal -0.0140367 0.0154345 0.0230432
outer loop
vertex 0.546763 -2.5253 3.05351
vertex -0.0667748 -0.0139855 0.99767
vertex -0.0744759 -0.0200213 0.997022
end loop
end factet
facet normal -0.0178037 0.031508 0.0437624
outer loop
vertex 0.546763 -2.5253 3.05351
vertex -0.0744759 -0.0200213 0.997022
vertex -0.0902397 -0.0268941 0.995557
end loop
end factet
facet normal -0.00178194 0.0509436 0.0623986
outer loop
vertex 0.546763 -2.5253 3.05351
vertex -0.0902397 -0.0268941 0.995557
vertex -0.115796 -0.0246166 0.992968
end loop
end factet
facet normal 0.00377226 0.0391697 0.0463235
outer loop
vertex 0.546763 -2.5253 3.05351
vertex -0.115796 -0.0246166 0.992968
vertex -0.135577 -0.0198726 0.990568
end loop
end factet
facet normal 0.0137362 0.014527 0.0130996
outer loop
vertex 0.546763 -2.5253 3.05351
vertex -0.135577 -0.0198726 0.990568
vertex -0.142919 -0.0121123 0.98966
end loop
end factet
facet normal -0.0124488 0.0151227 0.0225753
outer loop
vertex 0.546763 -2.5253 3.05351
vertex -0.142919 -0.0121123 0.98966
vertex -0.150652 -0.0166662 0.988446
end loop
end factet
facet normal -0.00204754 0.0221574 0.0276084
outer loop
vertex 0.546763 -2.5253 3.05351
vertex -0.150652 -0.0166662 0.988446
vertex -0.161981 -0.0155022 0.986672
end loop
end factet
facet normal -0.0164967 0.0113604 0.0194521
outer loop
vertex 0.546763 -2.5253 3.05351
vertex -0.161981 -0.0155022 0.986672
vertex -0.167858 -0.0221366 0.985563
end loop
end factet
facet normal -0.00854015 0.0112355 0.0165511
outer loop
vertex 0.546763 -2.5253 3.05351
vertex -0.167858 -0.0221366 0.985563
vertex -0.173662 -0.0249662 0.984489
end loop
end factet
facet normal -0.00512648 0.0281618 0.0358173
outer loop
vertex 0.546763 -2.5253 3.05351
vertex -0.173662 -0.0249662 0.984489
vertex -0.188198 -0.0242334 0.981832
end loop
end factet
facet normal -0.0115294 0.0129719 0.0197508
outer loop
vertex 0.546763 -2.5253 3.05351
vertex -0.188198 -0.0242334 0.981832
vertex -0.194965 -0.0280797 0.980408
end loop
end factet
facet normal -0.0198216 0.0408905 0.0563478
outer loop
vertex 0.546763 -2.5253 3.05351
vertex -0.194965 -0.0280797 0.980408
vertex -0.216341 -0.0320791 0.975791
end loop
end factet
facet normal -0.0362449 0.0443056 0.0664779
outer loop
vertex 0.546763 -2.5253 3.05351
vertex -0.216341 -0.0320791 0.975791
vertex -0.239834 -0.0424377 0.969886
end loop
end factet
facet normal -0.0188046 0.0658108 0.0855196
outer loop
vertex 0.546763 -2.5253 3.05351
vertex -0.239834 -0.0424377 0.969886
vertex -0.274918 -0.0404188 0.960618
end loop
end factet
facet normal -0.0301008 0.0549544 0.0770648
outer loop
vertex 0.546763 -2.5253 3.05351
vertex -0.274918 -0.0404188 0.960618
vertex -0.304791 -0.0438669 0.951408
end loop
end factet
facet normal -0.000364926 -0.000111103 -0.00012203
outer loop
vertex -0.304791 -0.0438669 0.951408
vertex 0 0 0
vertex -0.30468 -0.0442513 0.951426
end loop
end factet
facet normal -0.0444444 0.0152464 -0.0135236
outer loop
vertex -0.30468 -0.0442513 0.951426
vertex 0 0 0
vertex -0.318223 -0.0906043 0.943676
end loop
end factet
facet normal -0.0258074 0.016719 -0.00709747
outer loop
vertex -0.318223 -0.0906043 0.943676
vertex 0 0 0
vertex -0.333199 -0.117172 0.935548
end loop
end factet
facet normal -0.0401257 -0.00228897 -0.0145776
outer loop
vertex -0.333199 -0.117172 0.935548
vertex 0 0 0
vertex -0.329045 -0.159461 0.930753
end loop
end factet
facet normal -0.0277296 0.0133006 -0.00752438
outer loop
vertex -0.329045 -0.159461 0.930753
vertex 0 0 0
vertex -0.340059 -0.187667 0.921488
end loop
end factet
facet normal -0.0231006 0.00171876 -0.00817483
outer loop
vertex -0.340059 -0.187667 0.921488
vertex 0 0 0
vertex -0.340006 -0.211677 0.916291
end loop
end factet
facet normal -0.0171071 0.0376343 0.00234617
outer loop
vertex -0.340006 -0.211677 0.916291
vertex 0 0 0
vertex -0.374695 -0.226373 0.899088
end loop
end factet
facet normal -0.0132968 0.0127148 -0.00234009
outer loop
vertex -0.374695 -0.226373 0.899088
vertex 0 0 0
vertex -0.385533 -0.239165 0.891159
end loop
end factet
facet normal -0.0112509 0.0028469 -0.00410332
outer loop
vertex -0.385533 -0.239165 0.891159
vertex 0 0 0
vertex -0.387059 -0.250756 0.887303
end loop
end factet
facet normal -0.0164775 0.0161355 -0.00262787
outer loop
vertex -0.387059 -0.250756 0.887303
vertex 0 0 0
vertex -0.400613 -0.266326 0.876687
end loop
end factet
facet normal -0.0291329 0.00909159 -0.0105507
outer loop
vertex -0.400613 -0.266326 0.876687
vertex 0 0 0
vertex -0.405565 -0.295954 0.864829
end loop
end factet
facet normal -0.0129007 0.00480795 -0.00440451
outer loop
vertex -0.405565 -0.295954 0.864829
vertex 0 0 0
vertex -0.408377 -0.308866 0.85897
end loop
end factet
facet normal -0.01763 0.00484681 -0.00663896
outer loop
vertex -0.408377 -0.308866 0.85897
vertex 0 0 0
vertex -0.410412 -0.326663 0.851383
end loop
end factet
facet normal -0.00655243 0.00479054 -0.00132057
outer loop
vertex -0.410412 -0.326663 0.851383
vertex 0 0 0
vertex -0.414046 -0.332772 0.847248
end loop
end factet
facet normal -0.0178106 0.00303873 -0.00751041
outer loop
vertex -0.414046 -0.332772 0.847248
vertex 0 0 0
vertex -0.414042 -0.350908 0.8399
end loop
end factet
facet normal -0.00893486 0.00243872 -0.00338569
outer loop
vertex -0.414042 -0.350908 0.8399
vertex 0 0 0
vertex -0.414882 -0.359797 0.835715
end loop
end factet
facet normal -0.0177362 0.00126779 -0.00825913
outer loop
vertex -0.414882 -0.359797 0.835715
vertex 0 0 0
vertex -0.41289 -0.377977 0.828646
end loop
end factet
facet normal -0.0425559 0.0152545 -0.0142462
outer loop
vertex -0.41289 -0.377977 0.828646
vertex 0 0 0
vertex -0.419682 -0.418698 0.805332
end loop
end factet
facet normal -0.0262727 0.00115684 -0.01309
outer loop
vertex -0.419682 -0.418698 0.805332
vertex 0 0 0
vertex -0.414952 -0.445169 0.793498
end loop
end factet
facet normal -0.00732738 -0.00586155 -0.00712022
outer loop
vertex -0.414952 -0.445169 0.793498
vertex 0 0 0
vertex -0.407102 -0.453907 0.792613
end loop
end factet
facet normal -0.0101898 -0.0109155 -0.0114847
outer loop
vertex -0.407102 -0.453907 0.792613
vertex 0 0 0
vertex -0.393165 -0.466579 0.792291
end loop
end factet
facet normal -0.0265049 -0.00700492 -0.0172779
outer loop
vertex -0.393165 -0.466579 0.792291
vertex 0 0 0
vertex -0.379347 -0.494126 0.782263
end loop
end factet
facet normal -0.00599062 -0.00333735 -0.00501315
outer loop
vertex -0.379347 -0.494126 0.782263
vertex 0 0 0
vertex -0.374246 -0.500697 0.78054
end loop
end factet
facet normal -0.00182733 -0.0029552 -0.00277184
outer loop
vertex -0.374246 -0.500697 0.78054
vertex 0 0 0
vertex -0.370547 -0.503155 0.780724
end loop
end factet
facet normal -0.00817713 -0.000481039 -0.00419106
outer loop
vertex -0.370547 -0.503155 0.780724
vertex 0 0 0
vertex -0.368047 -0.511071 0.776754
end loop
end factet
facet normal -0.00414425 -0.00263867 -0.00369978
outer loop
vertex -0.368047 -0.511071 0.776754
vertex 0 0 0
vertex -0.3641 -0.515642 0.775593
end loop
end factet
facet normal -0.0206998 0.000733554 -0.00922975
outer loop
vertex -0.3641 -0.515642 0.775593
vertex 0 0 0
vertex -0.359816 -0.534925 0.764453
end loop
end factet
facet normal -0.0157254 -0.00129977 -0.0083112
outer loop
vertex -0.359816 -0.534925 0.764453
vertex 0 0 0
vertex -0.354319 -0.549851 0.756387
end loop
end factet
facet normal -0.0233406 0.00362018 -0.00830191
outer loop
vertex -0.354319 -0.549851 0.756387
vertex 0 0 0
vertex -0.352382 -0.570275 0.742033
end loop
end factet
facet normal -0.00897124 0.00753385 0.00152966
outer loop
vertex -0.352382 -0.570275 0.742033
vertex 0 0 0
vertex -0.35882 -0.576353 0.734211
end loop
end factet
facet normal -0.0115027 -0.00122088 -0.00657992
outer loop
vertex -0.35882 -0.576353 0.734211
vertex 0 0 0
vertex -0.354099 -0.587109 0.727954
end loop
end factet
facet normal -0.00430486 -0.000499904 -0.0024972
outer loop
vertex -0.354099 -0.587109 0.727954
vertex 0 0 0
vertex -0.352265 -0.591119 0.725595
end loop
end factet
facet normal -0.00419185 0.000534594 -0.00159954
outer loop
vertex -0.352265 -0.591119 0.725595
vertex 0 0 0
vertex -0.351704 -0.594718 0.722921
end loop
end factet
facet normal -0.00185573 -0.000643909 -0.00143254
outer loop
vertex -0.351704 -0.594718 0.722921
vertex 0 0 0
vertex -0.350385 -0.596562 0.722042
end loop
end factet
facet normal -0.00812668 9.28342e-05 -0.0038669
outer loop
vertex -0.350385 -0.596562 0.722042
vertex 0 0 0
vertex -0.348131 -0.60376 0.717132
end loop
end factet
facet normal -0.00301388 -0.00228958 -0.0033907
outer loop
vertex -0.348131 -0.60376 0.717132
vertex 0 0 0
vertex -0.344438 -0.607094 0.7161
end loop
end factet
facet normal -0.00474274 0.00153722 -0.000977993
outer loop
vertex -0.344438 -0.607094 0.7161
vertex 0 0 0
vertex -0.34494 -0.61082 0.712682
end loop
end factet
facet normal -0.0111834 0.00356933 -0.00235364
outer loop
vertex -0.34494 -0.61082 0.712682
vertex 0 0 0
vertex -0.346022 -0.619558 0.704569
end loop
end factet
facet normal -0.0027591 -0.00533117 -0.00604297
outer loop
vertex -0.346022 -0.619558 0.704569
vertex 0 0 0
vertex -0.338509 -0.623571 0.704678
end loop
end factet
facet normal -0.00777349 -0.00402747 -0.00729808
outer loop
vertex -0.338509 -0.623571 0.704678
vertex 0 0 0
vertex -0.331098 -0.631478 0.701149
end loop
end factet
facet normal -0.0121077 0.00151366 -0.00435427
outer loop
vertex -0.331098 -0.631478 0.701149
vertex 0 0 0
vertex -0.329382 -0.641356 0.692943
end loop
end factet
facet normal -0.0181362 -0.0041177 -0.0124319
outer loop
vertex -0.329382 -0.641356 0.692943
vertex 0 0 0
vertex -0.318473 -0.657858 0.682494
end loop
end factet
facet normal -0.00318629 -0.00453785 -0.00586088
outer loop
vertex -0.318473 -0.657858 0.682494
vertex 0 0 0
vertex -0.31151 -0.661878 0.681821
end loop
end factet
facet normal -0.0127153 -0.00780119 -0.0133824
outer loop
vertex -0.31151 -0.661878 0.681821
vertex 0 0 0
vertex -0.297271 -0.674583 0.675698
end loop
end factet
facet normal -0.00352746 -0.0080182 -0.00955686
outer loop
vertex -0.297271 -0.674583 0.675698
vertex 0 0 0
vertex -0.285381 -0.679751 0.675645
end loop
end factet
facet normal -0.00587198 -0.0201951 -0.0227981
outer loop
vertex -0.285381 -0.679751 0.675645
vertex 0 0 0
vertex -0.256102 -0.689897 0.677092
end loop
end factet
facet normal -0.0221747 -0.0114005 -0.0200035
outer loop
vertex -0.256102 -0.689897 0.677092
vertex 0 0 0
vertex -0.234451 -0.709682 0.664367
end loop
end factet
facet normal -0.021313 -0.00072147 -0.00829189
outer loop
vertex -0.234451 -0.709682 0.664367
vertex 0 0 0
vertex -0.228026 -0.7256 0.649237
end loop
end factet
facet normal -0.024076 0.00446129 -0.00346997
outer loop
vertex -0.228026 -0.7256 0.649237
vertex 0 0 0
vertex -0.228335 -0.7418 0.630552
end loop
end factet
facet normal -0.0310449 0.00284514 -0.00789486
outer loop
vertex -0.228335 -0.7418 0.630552
vertex 0 0 0
vertex -0.224154 -0.762795 0.606547
end loop
end factet
facet normal -0.0273648 0.00355227 -0.00564554
outer loop
vertex -0.224154 -0.762795 0.606547
vertex 0 0 0
vertex -0.221914 -0.780356 0.584636
end loop
end factet
facet normal -0.00985682 -0.00256276 -0.00716212
outer loop
vertex -0.221914 -0.780356 0.584636
vertex 0 0 0
vertex -0.214809 -0.787647 0.577468
end loop
end factet
facet normal -0.036712 -0.00617331 -0.0220765
outer loop
vertex -0.214809 -0.787647 0.577468
vertex 0 0 0
vertex -0.193655 -0.812851 0.549337
end loop
end factet
facet normal -0.0321372 0.00432641 -0.00492737
outer loop
vertex -0.193655 -0.812851 0.549337
vertex 0 0 0
vertex -0.191922 -0.831022 0.522081
end loop
end factet
facet normal -0.014745 -0.00262304 -0.00959562
outer loop
vertex -0.191922 -0.831022 0.522081
vertex 0 0 0
vertex -0.182548 -0.84043 0.510248
end loop
end factet
facet normal -0.00668761 -0.00279868 -0.00700229
outer loop
vertex -0.182548 -0.84043 0.510248
vertex 0 0 0
vertex -0.175226 -0.845078 0.505112
end loop
end factet
facet normal -0.00454658 -6.51479e-05 -0.0016862
outer loop
vertex -0.175226 -0.845078 0.505112
vertex 0 0 0
vertex -0.173766 -0.84766 0.501276
end loop
end factet
facet normal -0.00379166 -0.000973113 -0.00295991
outer loop
vertex -0.173766 -0.84766 0.501276
vertex 0 0 0
vertex -0.170767 -0.850065 0.498225
end loop
end factet
facet normal -0.010264 -0.0110417 -0.0223573
outer loop
vertex -0.170767 -0.850065 0.498225
vertex 0 0 0
vertex -0.146198 -0.858688 0.491204
end loop
end factet
facet normal -0.00307861 -0.00812693 -0.0151232
outer loop
vertex -0.146198 -0.858688 0.491204
vertex 0 0 0
vertex -0.129198 -0.86228 0.489674
end loop
end factet
facet normal -0.0258627 -0.00610441 -0.0175732
outer loop
vertex -0.129198 -0.86228 0.489674
vertex 0 0 0
vertex -0.11099 -0.876777 0.467913
end loop
end factet
facet normal -0.0510568 -0.0142889 -0.0388855
outer loop
vertex -0.11099 -0.876777 0.467913
vertex 0 0 0
vertex -0.0699702 -0.903086 0.423721
end loop
end factet
facet normal -0.0545469 -0.011852 -0.0342678
outer loop
vertex -0.0699702 -0.903086 0.423721
vertex 0 0 0
vertex -0.0338512 -0.926657 0.37438
end loop
end factet
facet normal -0.0564161 0.00197531 -0.000211846
outer loop
vertex -0.0338512 -0.926657 0.37438
vertex 0 0 0
vertex -0.0343404 -0.946308 0.321438
end loop
end factet
facet normal -0.0296868 0.00558669 0.0132756
outer loop
vertex -0.0343404 -0.946308 0.321438
vertex 0 0 0
vertex -0.0486803 -0.954879 0.292978
end loop
end factet
facet normal -0.0646966 0.000612075 -0.0087549
outer loop
vertex -0.0486803 -0.954879 0.292978
vertex 0 0 0
vertex -0.0403959 -0.972223 0.230546
end loop
end factet
facet normal -0.0197568 0.00151843 0.00294153
outer loop
vertex -0.0403959 -0.972223 0.230546
vertex 0 0 0
vertex -0.0435976 -0.976463 0.21123
end loop
end factet
facet normal -0.0187083 -0.000211653 -0.0048398
outer loop
vertex -0.0435976 -0.976463 0.21123
vertex 0 0 0
vertex -0.0388189 -0.980444 0.192932
end loop
end factet
facet normal -0.0377261 0.00398388 0.0126547
outer loop
vertex -0.0388189 -0.980444 0.192932
vertex 0 0 0
vertex -0.0519637 -0.986447 0.155634
end loop
end factet
facet normal -0.0178068 0.0031987 0.0143287
outer loop
vertex -0.0519637 -0.986447 0.155634
vertex 0 0 0
vertex -0.0665822 -0.988211 0.137861
end loop
end factet
facet normal -0.0375338 0.000196661 -0.0167178
outer loop
vertex -0.0665822 -0.988211 0.137861
vertex 0 0 0
vertex -0.0500323 -0.993664 0.100641
end loop
end factet
facet normal -0.0272657 0.00107142 -0.00297625
outer loop
vertex -0.0500323 -0.993664 0.100641
vertex 0 0 0
vertex -0.0471639 -0.996183 0.073456
end loop
end factet
facet normal -0.115335 0.00809546 0.0357341
outer loop
vertex -0.0471639 -0.996183 0.073456
vertex 0 0 0
vertex -0.0830097 -0.995648 -0.0423606
end loop
end factet
facet normal -0.0563491 0.00498398 -0.0067224
outer loop
vertex -0.0830097 -0.995648 -0.0423606
vertex 0 0 0
vertex -0.0759706 -0.992202 -0.0988094
end loop
end factet
facet normal -0.0170181 0.00066792 0.00637753
outer loop
vertex -0.0759706 -0.992202 -0.0988094
vertex 0 0 0
vertex -0.0822199 -0.989872 -0.115729
end loop
end factet
facet normal -0.0197352 0.00048555 0.0098678
outer loop
vertex -0.0822199 -0.989872 -0.115729
vertex 0 0 0
vertex -0.0919115 -0.986536 -0.135276
end loop
end factet
facet normal -0.0350018 0.00417068 -0.00663427
outer loop
vertex -0.0919115 -0.986536 -0.135276
vertex 0 0 0
vertex -0.0847432 -0.981776 -0.170103
end loop
end factet
facet normal -0.040165 0.00572554 -0.0130361
outer loop
vertex -0.0847432 -0.981776 -0.170103
vertex 0 0 0
vertex -0.0708938 -0.975156 -0.209867
end loop
end factet
facet normal 0.00228547 0.00103072 -0.00556134
outer loop
vertex -0.0708938 -0.975156 -0.209867
vertex 0 0 0
vertex -0.065253 -0.976012 -0.207707
end loop
end factet
facet normal 0.00647132 0.00119406 -0.00764388
outer loop
vertex -0.065253 -0.976012 -0.207707
vertex 0 0 0
vertex -0.0575411 -0.977805 -0.201458
end loop
end factet
facet normal 0.00966182 0.000900702 -0.00713131
outer loop
vertex -0.0575411 -0.977805 -0.201458
vertex 0 0 0
vertex -0.0503825 -0.980091 -0.192048
end loop
end factet
facet normal 0.00352997 0.00106465 -0.00635936
outer loop
vertex -0.0503825 -0.980091 -0.192048
vertex 0 0 0
vertex -0.0439439 -0.981063 -0.188637
end loop
end factet
facet normal 0.000503048 0.000385137 -0.00212021
outer loop
vertex -0.0439439 -0.981063 -0.188637
vertex 0 0 0
vertex -0.041791 -0.981249 -0.18816
end loop
end factet
facet normal -0.000354528 0.000847542 -0.00434117
outer loop
vertex -0.041791 -0.981249 -0.18816
vertex 0 0 0
vertex -0.0373714 -0.981354 -0.188541
end loop
end factet
facet normal 0.00142956 0.000584014 -0.00332314
outer loop
vertex -0.0373714 -0.981354 -0.188541
vertex 0 0 0
vertex -0.0339999 -0.981741 -0.187159
end loop
end factet
facet normal -0.000568449 0.000957896 -0.00492136
outer loop
vertex -0.0339999 -0.981741 -0.187159
vertex 0 0 0
vertex -0.0289886 -0.98179 -0.187747
end loop
end factet
facet normal 0.00579081 0.00237262 -0.0133013
outer loop
vertex -0.0289886 -0.98179 -0.187747
vertex 0 0 0
vertex -0.015481 -0.983156 -0.18211
end loop
end factet
facet normal 0.00111169 0.00198736 -0.0108236
outer loop
vertex -0.015481 -0.983156 -0.18211
vertex 0 0 0
vertex -0.00447685 -0.983466 -0.181037
end loop
end factet
facet normal 0.00631179 0.000563872 -0.00321926
outer loop
vertex -0.00447685 -0.983466 -0.181037
vertex 0 0 0
vertex -0.00120863 -0.984598 -0.174828
end loop
end factet
facet normal 0.00599308 0.00153487 -0.00868555
outer loop
vertex -0.00120863 -0.984598 -0.174828
vertex 0 0 0
vertex 0.00761156 -0.985601 -0.168919
end loop
end factet
facet normal 0.00249951 0.00223362 -0.01292
outer loop
vertex 0.00761156 -0.985601 -0.168919
vertex 0 0 0
vertex 0.0207222 -0.985837 -0.166423
end loop
end factet
facet normal -0.00080803 0.0011998 -0.00720781
outer loop
vertex 0.0207222 -0.985837 -0.166423
vertex 0 0 0
vertex 0.028027 -0.985526 -0.16719
end loop
end factet
facet normal -0.0048022 0.0028392 -0.0175411
outer loop
vertex 0.028027 -0.985526 -0.16719
vertex 0 0 0
vertex 0.0457841 -0.984065 -0.171815
end loop
end factet
facet normal 0.011501 0.00707746 -0.0374711
outer loop
vertex 0.0457841 -0.984065 -0.171815
vertex 0 0 0
vertex 0.0838379 -0.983544 -0.160037
end loop
end factet
facet normal 0.00518791 0.00230476 -0.0114466
outer loop
vertex 0.0838379 -0.983544 -0.160037
vertex 0 0 0
vertex 0.0954581 -0.983335 -0.154728
end loop
end factet
facet normal 0.00998221 0.00321441 -0.0142699
outer loop
vertex 0.0954581 -0.983335 -0.154728
vertex 0 0 0
vertex 0.109973 -0.983363 -0.144581
end loop
end factet
facet normal -0.00181532 0.00151968 -0.0117168
outer loop
vertex 0.109973 -0.983363 -0.144581
vertex 0 0 0
vertex 0.121706 -0.981742 -0.146189
end loop
end factet
facet normal 0.00622851 0.00283775 -0.0138717
outer loop
vertex 0.121706 -0.981742 -0.146189
vertex 0 0 0
vertex 0.135725 -0.980846 -0.139711
end loop
end factet
facet normal -0.00217082 0.00342333 -0.0261424
outer loop
vertex 0.135725 -0.980846 -0.139711
vertex 0 0 0
vertex 0.161798 -0.976652 -0.141327
end loop
end factet
facet normal -0.00374524 0.00345669 -0.0281754
outer loop
vertex 0.161798 -0.976652 -0.141327
vertex 0 0 0
vertex 0.189737 -0.971163 -0.144368
end loop
end factet
facet normal -0.0160746 0.000498772 -0.0244815
outer loop
vertex 0.189737 -0.971163 -0.144368
vertex 0 0 0
vertex 0.213503 -0.963781 -0.159822
end loop
end factet
facet normal -0.00695176 0.00132906 -0.0173014
outer loop
vertex 0.213503 -0.963781 -0.159822
vertex 0 0 0
vertex 0.230353 -0.958807 -0.16621
end loop
end factet
facet normal -0.00744565 0.000889067 -0.0154477
outer loop
vertex 0.230353 -0.958807 -0.16621
vertex 0 0 0
vertex 0.245279 -0.95387 -0.17312
end loop
end factet
facet normal 0.000957459 0.00186024 -0.00889315
outer loop
vertex 0.245279 -0.95387 -0.17312
vertex 0 0 0
vertex 0.254073 -0.951815 -0.171743
end loop
end factet
facet normal 0.00260867 0.00478103 -0.0226376
outer loop
vertex 0.254073 -0.951815 -0.171743
vertex 0 0 0
vertex 0.276372 -0.946253 -0.167999
end loop
end factet
facet normal 0.00738314 0.00509118 -0.0165302
outer loop
vertex 0.276372 -0.946253 -0.167999
vertex 0 0 0
vertex 0.29282 -0.942758 -0.159576
end loop
end factet
facet normal -0.00302924 0.00102537 -0.0116164
outer loop
vertex 0.29282 -0.942758 -0.159576
vertex 0 0 0
vertex 0.303914 -0.938804 -0.16212
end loop
end factet
facet normal -0.00437941 -0.00086268 -0.00321415
outer loop
vertex 0.303914 -0.938804 -0.16212
vertex 0 0 0
vertex 0.306787 -0.937103 -0.166491
end loop
end factet
facet normal -0.00505941 -3.48352e-05 -0.00912672
outer loop
vertex 0.306787 -0.937103 -0.166491
vertex 0 0 0
vertex 0.315317 -0.93341 -0.171234
end loop
end factet
facet normal -0.000747964 0.0013187 -0.00856563
outer loop
vertex 0.315317 -0.93341 -0.171234
vertex 0 0 0
vertex 0.323527 -0.930546 -0.17151
end loop
end factet
facet normal -0.0656547 -0.00774402 -0.0818314
outer loop
vertex 0.323527 -0.930546 -0.17151
vertex 0 0 0
vertex 0.396551 -0.887647 -0.234158
end loop
end factet
facet normal -0.0421289 -0.00721636 -0.0439903
outer loop
vertex 0.396551 -0.887647 -0.234158
vertex 0 0 0
vertex 0.433163 -0.858667 -0.273974
end loop
end factet
facet normal -0.00888847 0.0128936 -0.0544629
outer loop
vertex 0.433163 -0.858667 -0.273974
vertex 0 0 0
vertex 0.482764 -0.83126 -0.275581
end loop
end factet
facet normal -0.014696 0.000383705 -0.0269018
outer loop
vertex 0.482764 -0.83126 -0.275581
vertex 0 0 0
vertex 0.505006 -0.813832 -0.287483
end loop
end factet
facet normal -0.0488483 -0.009441 -0.0590829
outer loop
vertex 0.505006 -0.813832 -0.287483
vertex 0 0 0
vertex 0.548866 -0.767521 -0.331146
end loop
end factet
facet normal -0.0287172 0.0109724 -0.0730298
outer loop
vertex 0.548866 -0.767521 -0.331146
vertex 0 0 0
vertex 0.606826 -0.715514 -0.346124
end loop
end factet
facet normal 0.0257075 0.0679746 -0.0954481
outer loop
vertex 0.606826 -0.715514 -0.346124
vertex 0 0 0
vertex 0.694266 -0.661325 -0.283981
end loop
end factet
facet normal -0.0316315 0.0609092 -0.219175
outer loop
vertex 0.694266 -0.661325 -0.283981
vertex 0 0 0
vertex 0.83795 -0.482498 -0.255021
end loop
end factet
facet normal -0.0302246 0.0131463 -0.124185
outer loop
vertex 0.83795 -0.482498 -0.255021
vertex 0 0 0
vertex 0.894276 -0.366731 -0.256475
end loop
end factet
facet normal -0.0121573 0.0230702 -0.0753779
outer loop
vertex 0.894276 -0.366731 -0.256475
vertex 0 0 0
vertex 0.924987 -0.295036 -0.239485
end loop
end factet
facet normal 0.00100838 0.0282891 -0.0309562
outer loop
vertex 0.924987 -0.295036 -0.239485
vertex 0 0 0
vertex 0.940081 -0.266383 -0.21281
end loop
end factet
facet normal -0.00428841 0.0455969 -0.0760196
outer loop
vertex 0.940081 -0.266383 -0.21281
vertex 0 0 0
vertex 0.966325 -0.192955 -0.170248
end loop
end factet
facet normal -0.026199 -0.000861928 -0.147729
outer loop
vertex 0.966325 -0.192955 -0.170248
vertex 0 0 0
vertex 0.983745 -0.0435567 -0.174209
end loop
end factet
facet normal -0.0238741 -0.0500851 -0.122293
outer loop
vertex 0.983745 -0.0435567 -0.174209
vertex 0 0 0
vertex 0.971436 0.0813017 -0.222942
end loop
end factet
facet normal -0.00991263 0.00528677 -0.0412649
outer loop
vertex 0.971436 0.0813017 -0.222942
vertex 0 0 0
vertex 0.968371 0.123523 -0.216796
end loop
end factet
facet normal -0.000680462 0.0492747 0.0250357
outer loop
vertex 0.968371 0.123523 -0.216796
vertex 0 0 0
vertex 0.980665 0.0992383 -0.168664
end loop
end factet
facet normal -0.00417411 0.0424108 0.000684045
outer loop
vertex 0.980665 0.0992383 -0.168664
vertex 0 0 0
vertex 0.986995 0.0991813 -0.126506
end loop
end factet
facet normal -0.0017511 0.0184234 0.000782005
outer loop
vertex 0.986995 0.0991813 -0.126506
vertex 0 0 0
vertex 0.989234 0.098614 -0.108127
end loop
end factet
facet normal -0.00105979 0.0223547 0.0106921
outer loop
vertex 0.989234 0.098614 -0.108127
vertex 0 0 0
vertex 0.992401 0.0881213 -0.085875
end loop
end factet
facet normal -0.0116793 0.10484 -0.0273872
outer loop
vertex 0.992401 0.0881213 -0.085875
vertex 0 0 0
vertex 0.99308 0.115778 0.019709
end loop
end factet
facet normal -0.0192618 0.168496 -0.0192631
outer loop
vertex 0.99308 0.115778 0.019709
vertex 0 0 0
vertex 0.972956 0.13283 0.18898
end loop
end factet
facet normal 0.00592783 0.0232019 -0.0468274
outer loop
vertex 0.972956 0.13283 0.18898
vertex 0 0 0
vertex 0.961004 0.179327 0.210505
end loop
end factet
facet normal 4.51766e-05 0.0392418 -0.0336359
outer loop
vertex 0.961004 0.179327 0.210505
vertex 0 0 0
vertex 0.945428 0.211421 0.247927
end loop
end factet
facet normal -0.021899 0.0925486 0.00458698
outer loop
vertex 0.945428 0.211421 0.247927
vertex 0 0 0
vertex 0.919157 0.200695 0.338929
end loop
end factet
facet normal -0.00309258 0.0441649 -0.0177651
outer loop
vertex 0.919157 0.200695 0.338929
vertex 0 0 0
vertex 0.899576 0.215747 0.379758
end loop
end factet
facet normal 0.0067665 0.0581108 -0.0490423
outer loop
vertex 0.899576 0.215747 0.379758
vertex 0 0 0
vertex 0.864302 0.261804 0.429465
end loop
end factet
facet normal 0.000858612 0.0284266 -0.019057
outer loop
vertex 0.864302 0.261804 0.429465
vertex 0 0 0
vertex 0.846598 0.27849 0.453557
end loop
end factet
facet normal 0.00223203 0.0460027 -0.0324125
outer loop
vertex 0.846598 0.27849 0.453557
vertex 0 0 0
vertex 0.815363 0.306501 0.491162
end loop
end factet
facet normal 0.00101314 0.0250294 -0.017301
outer loop
vertex 0.815363 0.306501 0.491162
vertex 0 0 0
vertex 0.797389 0.320963 0.511032
end loop
end factet
facet normal -0.0161492 0.0519839 -0.00745109
outer loop
vertex 0.797389 0.320963 0.511032
vertex 0 0 0
vertex 0.767228 0.318167 0.556894
end loop
end factet
facet normal 0.00355418 0.0200731 -0.0163648
outer loop
vertex 0.767228 0.318167 0.556894
vertex 0 0 0
vertex 0.75058 0.332593 0.570974
end loop
end factet
facet normal -0.0271351 0.0386937 0.0131316
outer loop
vertex 0.75058 0.332593 0.570974
vertex 0 0 0
vertex 0.731951 0.306843 0.608354
end loop
end factet
facet normal -0.0292408 0.0310495 0.0195207
outer loop
vertex 0.731951 0.306843 0.608354
vertex 0 0 0
vertex 0.718246 0.274428 0.639384
end loop
end factet
facet normal -0.0691298 0.110593 0.0301888
outer loop
vertex 0.718246 0.274428 0.639384
vertex 0 0 0
vertex 0.649354 0.206075 0.732033
end loop
end factet
facet normal -0.0200285 0.0472233 0.00447258
outer loop
vertex 0.649354 0.206075 0.732033
vertex 0 0 0
vertex 0.614846 0.188236 0.765854
end loop
end factet
facet normal 0.0030334 0.0240701 -0.00835135
outer loop
vertex 0.614846 0.188236 0.765854
vertex 0 0 0
vertex 0.594637 0.195632 0.77983
end loop
end factet
facet normal -0.00136757 0.0581883 -0.0135546
outer loop
vertex 0.594637 0.195632 0.77983
vertex 0 0 0
vertex 0.545546 0.202276 0.813305
end loop
end factet
facet normal -0.00641851 0.00763419 0.00240669
outer loop
vertex 0.545546 0.202276 0.813305
vertex 0 0 0
vertex 0.539795 0.195732 0.818725
end loop
end factet
facet normal -0.00641294 0.023342 -0.00135221
outer loop
vertex 0.539795 0.195732 0.818725
vertex 0 0 0
vertex 0.520261 0.191154 0.83234
end loop
end factet
facet normal -0.00880086 0.00604051 0.00411379
outer loop
vertex 0.520261 0.191154 0.83234
vertex 0 0 0
vertex 0.515985 0.181676 0.83711
end loop
end factet
facet normal -0.00345285 0.00749725 0.000501201
outer loop
vertex 0.515985 0.181676 0.83711
vertex 0 0 0
vertex 0.509783 0.17852 0.841577
end loop
end factet
facet normal 0.00010027 0.0316336 -0.00677106
outer loop
vertex 0.509783 0.17852 0.841577
vertex 0 0 0
vertex 0.481685 0.181963 0.857245
end loop
end factet
facet normal -0.00873393 0.0130266 0.00214248
outer loop
vertex 0.481685 0.181963 0.857245
vertex 0 0 0
vertex 0.470847 0.173421 0.865002
end loop
end factet
facet normal -0.00806449 0.0431618 -0.0042636
outer loop
vertex 0.470847 0.173421 0.865002
vertex 0 0 0
vertex 0.432315 0.168284 0.885881
end loop
end factet
facet normal -0.00159554 0.0479395 -0.00832808
outer loop
vertex 0.432315 0.168284 0.885881
vertex 0 0 0
vertex 0.387932 0.170272 0.905824
end loop
end factet
facet normal -0.00988261 0.0131103 0.00176796
outer loop
vertex 0.387932 0.170272 0.905824
vertex 0 0 0
vertex 0.376304 0.160611 0.912469
end loop
end factet
facet normal -0.0193108 0.0293538 0.00279703
outer loop
vertex 0.376304 0.160611 0.912469
vertex 0 0 0
vertex 0.349735 0.141838 0.926049
end loop
end factet
facet normal -0.0251808 0.0570993 0.000764295
outer loop
vertex 0.349735 0.141838 0.926049
vertex 0 0 0
vertex 0.296285 0.117975 0.947785
end loop
end factet
facet normal -0.0161 0.0350057 0.000675652
outer loop
vertex 0.296285 0.117975 0.947785
vertex 0 0 0
vertex 0.262967 0.102428 0.959352
end loop
end factet
facet normal -0.000704743 0.0482714 -0.00496067
outer loop
vertex 0.262967 0.102428 0.959352
vertex 0 0 0
vertex 0.21584 0.102936 0.970988
end loop
end factet
facet normal -0.00148439 0.0373289 -0.00362733
outer loop
vertex 0.21584 0.102936 0.970988
vertex 0 0 0
vertex 0.179068 0.102205 0.978514
end loop
end factet
facet normal -0.000885233 0.00548814 -0.000411235
outer loop
vertex 0.179068 0.102205 0.978514
vertex 0 0 0
vertex 0.173653 0.101411 0.979572
end loop
end factet
facet normal -0.00590072 0.0103211 -2.24486e-05
outer loop
vertex 0.173653 0.101411 0.979572
vertex 0 0 0
vertex 0.163528 0.0956273 0.981893
end loop
end factet
facet normal -0.0157383 0.0127321 0.00138113
outer loop
vertex 0.163528 0.0956273 0.981893
vertex 0 0 0
vertex 0.151125 0.0799284 0.985278
end loop
end factet
facet normal -0.0138204 0.0108755 0.00123757
outer loop
vertex 0.151125 0.0799284 0.985278
vertex 0 0 0
vertex 0.140485 0.066112 0.987873
end loop
end factet
facet normal -0.00399029 0.000876069 0.000508828
outer loop
vertex 0.140485 0.066112 0.987873
vertex 0 0 0
vertex 0.139652 0.0620981 0.988252
end loop
end factet
facet normal -0.00368749 0.00225 0.000379707
outer loop
vertex 0.139652 0.0620981 0.988252
vertex 0 0 0
vertex 0.137451 0.0584003 0.988786
end loop
end factet
facet normal -0.00343861 0.00189486 0.000366086
outer loop
vertex 0.137451 0.0584003 0.988786
vertex 0 0 0
vertex 0.135598 0.0549495 0.989239
end loop
end factet
facet normal -0.00658743 0.00493468 0.000628849
outer loop
vertex 0.135598 0.0549495 0.989239
vertex 0 0 0
vertex 0.130746 0.0483458 0.990237
end loop
end factet
facet normal -0.0334036 0.00652333 0.00409197
outer loop
vertex 0.130746 0.0483458 0.990237
vertex 0 0 0
vertex 0.124407 0.0147048 0.992122
end loop
end factet
facet normal -0.00923743 0.0106692 0.00100019
outer loop
vertex 0.124407 0.0147048 0.992122
vertex 0 0 0
vertex 0.113824 0.00541429 0.993486
end loop
end factet
facet normal -0.00594782 0.00251599 0.000667734
outer loop
vertex 0.113824 0.00541429 0.993486
vertex 0 0 0
vertex 0.111326 -0.000570906 0.993784
end loop
end factet
facet normal -0.00529208 0.00889511 0.000597941
outer loop
vertex 0.111326 -0.000570906 0.993784
vertex 0 0 0
vertex 0.10248 -0.00589662 0.994718
end loop
end factet
facet normal 0.00178617 0.0060486 -0.000148163
outer loop
vertex 0.10248 -0.00589662 0.994718
vertex 0 0 0
vertex 0.0964621 -0.00410459 0.995328
end loop
end factet
facet normal 0.00103639 0.00298679 -8.81243e-05
outer loop
vertex 0.0964621 -0.00410459 0.995328
vertex 0 0 0
vertex 0.0934891 -0.00306452 0.995616
end loop
end factet
facet normal -0.00184962 0.00744378 0.000196593
outer loop
vertex 0.0934891 -0.00306452 0.995616
vertex 0 0 0
vertex 0.0860746 -0.00492432 0.996277
end loop
end factet
facet normal -0.00175229 0.0135527 0.000218378
outer loop
vertex 0.0860746 -0.00492432 0.996277
vertex 0 0 0
vertex 0.0725633 -0.00668842 0.997341
end loop
end factet
facet normal -0.00105815 0.0026932 9.50486e-05
outer loop
vertex 0.0725633 -0.00668842 0.997341
vertex 0 0 0
vertex 0.0698764 -0.00775062 0.997526
end loop
end factet
facet normal -0.00232889 0.00307567 0.000187036
outer loop
vertex 0.0698764 -0.00775062 0.997526
vertex 0 0 0
vertex 0.0668063 -0.0100868 0.997715
end loop
end factet
facet normal -0.000653405 0.00298115 7.38906e-05
outer loop
vertex 0.0668063 -0.0100868 0.997715
vertex 0 0 0
vertex 0.0638309 -0.0107436 0.997903
end loop
end factet
facet normal -0.000299891 0.00165493 3.69998e-05
outer loop
vertex 0.0638309 -0.0107436 0.997903
vertex 0 0 0
vertex 0.062179 -0.0110452 0.998004
end loop
end factet
facet normal -0.0145849 0.024929 0.00118458
outer loop
vertex 0.062179 -0.0110452 0.998004
vertex 0 0 0
vertex 0.0372606 -0.02567 0.998976
end loop
end factet
facet normal 2.11261e-05 0.0561669 0.00144249
outer loop
vertex 0.0372606 -0.02567 0.998976
vertex 0 0 0
vertex -0.0189446 -0.0256621 0.999491
end loop
end factet
facet normal 0.000388464 0.0159483 0.000416839
outer loop
vertex -0.0189446 -0.0256621 0.999491
vertex 0 0 0
vertex -0.0348931 -0.0252627 0.999072
end loop
end factet
facet normal 0.0129379 0.0279487 0.00115858
outer loop
vertex -0.0348931 -0.0252627 0.999072
vertex 0 0 0
vertex -0.0628286 -0.0122843 0.997949
end loop
end factet
facet normal -0.00170114 0.0039556 -5.84081e-05
outer loop
vertex -0.0628286 -0.0122843 0.997949
vertex 0 0 0
vertex -0.0667748 -0.0139855 0.99767
end loop
end factet
facet normal -0.00603078 0.00772647 -0.000295334
outer loop
vertex -0.0667748 -0.0139855 0.99767
vertex 0 0 0
vertex -0.0744759 -0.0200213 0.997022
end loop
end factet
facet normal -0.00688164 0.015826 -0.000196245
outer loop
vertex -0.0744759 -0.0200213 0.997022
vertex 0 0 0
vertex -0.0902397 -0.0268941 0.995557
end loop
end factet
facet normal 0.00219776 0.0256761 0.000892827
outer loop
vertex -0.0902397 -0.0268941 0.995557
vertex 0 0 0
vertex -0.115796 -0.0246166 0.992968
end loop
end factet
facet normal 0.00465155 0.0199201 0.00103628
outer loop
vertex -0.115796 -0.0246166 0.992968
vertex 0 0 0
vertex -0.135577 -0.0198726 0.990568
end loop
end factet
facet normal 0.00766905 0.00739567 0.00119802
outer loop
vertex -0.135577 -0.0198726 0.990568
vertex 0 0 0
vertex -0.142919 -0.0121123 0.98966
end loop
end factet
facet normal -0.00452156 0.00782655 -0.000557179
outer loop
vertex -0.142919 -0.0121123 0.98966
vertex 0 0 0
vertex -0.150652 -0.0166662 0.988446
end loop
end factet
facet normal 0.00112103 0.0114653 0.000364177
outer loop
vertex -0.150652 -0.0166662 0.988446
vertex 0 0 0
vertex -0.161981 -0.0155022 0.986672
end loop
end factet
facet normal -0.00656317 0.00597844 -0.000983538
outer loop
vertex -0.161981 -0.0155022 0.986672
vertex 0 0 0
vertex -0.167858 -0.0221366 0.985563
end loop
end factet
facet normal -0.00281251 0.0059007 -0.000346484
outer loop
vertex -0.167858 -0.0221366 0.985563
vertex 0 0 0
vertex -0.173662 -0.0249662 0.984489
end loop
end factet
facet normal 0.000655008 0.0147721 0.000490155
outer loop
vertex -0.173662 -0.0249662 0.984489
vertex 0 0 0
vertex -0.188198 -0.0242334 0.981832
end loop
end factet
facet normal -0.00381089 0.00691172 -0.000559879
outer loop
vertex -0.188198 -0.0242334 0.981832
vertex 0 0 0
vertex -0.194965 -0.0280797 0.980408
end loop
end factet
facet normal -0.00405065 0.0218578 -0.000179489
outer loop
vertex -0.194965 -0.0280797 0.980408
vertex 0 0 0
vertex -0.216341 -0.0320791 0.975791
end loop
end factet
facet normal -0.0102973 0.0242016 -0.00148738
outer loop
vertex -0.216341 -0.0320791 0.975791
vertex 0 0 0
vertex -0.239834 -0.0424377 0.969886
end loop
end factet
facet normal 0.0015648 0.0362499 0.00197307
outer loop
vertex -0.239834 -0.0424377 0.969886
vertex 0 0 0
vertex -0.274918 -0.0404188 0.960618
end loop
end factet
facet normal 0.00368451 -0.0312287 -0.000259506
outer loop
vertex -0.274918 -0.0404188 0.960618
vertex 0 0 0
vertex -0.304791 -0.0438669 0.951408
end loop
end factet
solid fragmentGeometry
