solid OpenSCAD_Model
  facet normal 0.46592 0.68302 -0.562497
    outer loop
      vertex 12.891 72.3357 -67.8334
      vertex 323.118 94.4856 216.026
      vertex 15.7 65.1781 -74.1979
    endloop
  endfacet
  facet normal 0.437 0.723743 -0.534067
    outer loop
      vertex 11.4442 76.4726 -63.4111
      vertex 323.118 94.4856 216.026
      vertex 12.891 72.3357 -67.8334
    endloop
  endfacet
  facet normal 0.485002 0.651856 -0.582973
    outer loop
      vertex 11.4442 76.4726 -63.4111
      vertex 16.3988 85.5108 -49.183
      vertex 323.118 94.4856 216.026
    endloop
  endfacet
  facet normal 0.36115 0.819261 -0.445401
    outer loop
      vertex 16.3988 85.5108 -49.183
      vertex 18.4003 90.4472 -38.4802
      vertex 323.118 94.4856 216.026
    endloop
  endfacet
  facet normal 0.391219 0.784683 -0.480853
    outer loop
      vertex 18.4003 90.4472 -38.4802
      vertex 19.6078 90.9245 -36.7189
      vertex 323.118 94.4856 216.026
    endloop
  endfacet
  facet normal 0.275648 0.897727 -0.343663
    outer loop
      vertex 19.6078 90.9245 -36.7189
      vertex 20.0894 92.626 -31.8879
      vertex 323.118 94.4856 216.026
    endloop
  endfacet
  facet normal 0.231242 0.928789 -0.289617
    outer loop
      vertex 19.0834 93.4481 -30.0547
      vertex 323.118 94.4856 216.026
      vertex 20.0894 92.626 -31.8879
    endloop
  endfacet
  facet normal 0.219464 0.936033 -0.275096
    outer loop
      vertex 18.6506 94.7606 -25.9341
      vertex 323.118 94.4856 216.026
      vertex 19.0834 93.4481 -30.0547
    endloop
  endfacet
  facet normal 0.287365 0.887352 -0.360594
    outer loop
      vertex 18.6506 94.7606 -25.9341
      vertex 18.9822 94.7789 -25.6248
      vertex 323.118 94.4856 216.026
    endloop
  endfacet
  facet normal -0.13151 -0.9776 0.164328
    outer loop
      vertex 18.9822 94.7789 -25.6248
      vertex 19.1934 94.7738 -25.4861
      vertex 323.118 94.4856 216.026
    endloop
  endfacet
  facet normal -0.17567 -0.95957 0.219923
    outer loop
      vertex 19.1934 94.7738 -25.4861
      vertex 19.7493 94.747 -25.159
      vertex 323.118 94.4856 216.026
    endloop
  endfacet
  facet normal -0.203278 -0.945423 0.254663
    outer loop
      vertex 19.7493 94.747 -25.159
      vertex 20.928 94.4947 -25.1548
      vertex 323.118 94.4856 216.026
    endloop
  endfacet
  facet normal 0.138908 0.974897 -0.17401
    outer loop
      vertex 20.928 94.4947 -25.1548
      vertex 21.5905 94.516 -24.5066
      vertex 323.118 94.4856 216.026
    endloop
  endfacet
  facet normal 0.152092 0.969827 -0.190537
    outer loop
      vertex 21.5905 94.516 -24.5066
      vertex 22.3722 94.5964 -23.4734
      vertex 323.118 94.4856 216.026
    endloop
  endfacet
  facet normal -0.402301 -0.763743 0.504827
    outer loop
      vertex 22.3722 94.5964 -23.4734
      vertex 23.4878 94.5117 -22.7125
      vertex 323.118 94.4856 216.026
    endloop
  endfacet
  facet normal -0.248217 -0.91728 0.311426
    outer loop
      vertex 23.4878 94.5117 -22.7125
      vertex 24.9591 94.183 -22.508
      vertex 323.118 94.4856 216.026
    endloop
  endfacet
  facet normal -0.557613 -0.449964 0.697567
    outer loop
      vertex 24.9591 94.183 -22.508
      vertex 25.8919 94.093 -21.8204
      vertex 323.118 94.4856 216.026
    endloop
  endfacet
  facet normal 0.107606 0.984834 -0.136096
    outer loop
      vertex 25.8919 94.093 -21.8204
      vertex 26.1343 94.128 -21.3755
      vertex 323.118 94.4856 216.026
    endloop
  endfacet
  facet normal 0.0502682 0.996658 -0.0643856
    outer loop
      vertex 26.1343 94.128 -21.3755
      vertex 27.8827 94.2208 -18.5739
      vertex 323.118 94.4856 216.026
    endloop
  endfacet
  facet normal -0.134493 0.976543 0.168152
    outer loop
      vertex 27.8827 94.2208 -18.5739
      vertex 28.8887 94.1498 -17.3569
      vertex 323.118 94.4856 216.026
    endloop
  endfacet
  facet normal -0.449218 -0.690175 0.567328
    outer loop
      vertex 28.8887 94.1498 -17.3569
      vertex 29.8819 93.9349 -16.8319
      vertex 323.118 94.4856 216.026
    endloop
  endfacet
  facet normal -0.447416 0.695859 0.561782
    outer loop
      vertex 29.8819 93.9349 -16.8319
      vertex 30.8623 93.7858 -15.8664
      vertex 323.118 94.4856 216.026
    endloop
  endfacet
  facet normal 0.0789808 0.991589 -0.102532
    outer loop
      vertex 30.8623 93.7858 -15.8664
      vertex 31.2249 93.9215 -14.2747
      vertex 323.118 94.4856 216.026
    endloop
  endfacet
  facet normal 0.0107322 0.999814 -0.0160514
    outer loop
      vertex 31.2249 93.9215 -14.2747
      vertex 32.0117 93.946 -12.2227
      vertex 323.118 94.4856 216.026
    endloop
  endfacet
  facet normal 0.173511 0.959122 -0.223562
    outer loop
      vertex 30.7138 94.5884 -10.474
      vertex 323.118 94.4856 216.026
      vertex 32.0117 93.946 -12.2227
    endloop
  endfacet
  facet normal 0.154935 0.967556 -0.199578
    outer loop
      vertex 29.3258 95.2299 -8.44155
      vertex 323.118 94.4856 216.026
      vertex 30.7138 94.5884 -10.474
    endloop
  endfacet
  facet normal 0.0158616 0.999722 -0.0174454
    outer loop
      vertex 29.3258 95.2299 -8.44155
      vertex 29.9685 95.2834 -4.79106
      vertex 323.118 94.4856 216.026
    endloop
  endfacet
  facet normal 0.0614291 0.995062 -0.0779562
    outer loop
      vertex 29.1624 95.6504 -0.741775
      vertex 323.118 94.4856 216.026
      vertex 29.9685 95.2834 -4.79106
    endloop
  endfacet
  facet normal 0.00574681 0.999981 -0.00241977
    outer loop
      vertex 28.3521 95.6727 6.54968
      vertex 323.118 94.4856 216.026
      vertex 29.1624 95.6504 -0.741775
    endloop
  endfacet
  facet normal -0.149049 0.965128 0.215205
    outer loop
      vertex 28.3521 95.6727 6.54968
      vertex 30.701 92.5537 22.1643
      vertex 323.118 94.4856 216.026
    endloop
  endfacet
  facet normal -0.22854 0.913855 0.335618
    outer loop
      vertex 30.701 92.5537 22.1643
      vertex 31.6932 90.3771 28.7666
      vertex 323.118 94.4856 216.026
    endloop
  endfacet
  facet normal -0.236988 0.906691 0.348923
    outer loop
      vertex 31.6932 90.3771 28.7666
      vertex 31.955 89.0148 32.4844
      vertex 323.118 94.4856 216.026
    endloop
  endfacet
  facet normal -0.174449 0.952836 0.248337
    outer loop
      vertex 31.3062 88.1489 35.351
      vertex 323.118 94.4856 216.026
      vertex 31.955 89.0148 32.4844
    endloop
  endfacet
  facet normal -0.37632 0.720442 0.582534
    outer loop
      vertex 31.3062 88.1489 35.351
      vertex 31.7696 87.5662 36.371
      vertex 323.118 94.4856 216.026
    endloop
  endfacet
  facet normal -0.295682 0.844256 0.446994
    outer loop
      vertex 31.7696 87.5662 36.371
      vertex 32.3614 84.6831 42.2079
      vertex 323.118 94.4856 216.026
    endloop
  endfacet
  facet normal -0.225502 0.918285 0.325425
    outer loop
      vertex 31.0755 82.7586 46.7474
      vertex 323.118 94.4856 216.026
      vertex 32.3614 84.6831 42.2079
    endloop
  endfacet
  facet normal -0.141515 0.974045 0.176666
    outer loop
      vertex 30.5317 82.5481 47.4724
      vertex 323.118 94.4856 216.026
      vertex 31.0755 82.7586 46.7474
    endloop
  endfacet
  facet normal -0.293255 0.843887 0.449284
    outer loop
      vertex 30.4923 82.2172 48.0682
      vertex 323.118 94.4856 216.026
      vertex 30.5317 82.5481 47.4724
    endloop
  endfacet
  facet normal -0.297553 0.838115 0.457194
    outer loop
      vertex 30.4319 81.6843 49.0058
      vertex 323.118 94.4856 216.026
      vertex 30.4923 82.2172 48.0682
    endloop
  endfacet
  facet normal -0.417783 0.595113 0.686511
    outer loop
      vertex 30.4319 81.6843 49.0058
      vertex 31.4491 80.0181 51.0692
      vertex 323.118 94.4856 216.026
    endloop
  endfacet
  facet normal -0.323104 0.80295 0.500874
    outer loop
      vertex 30.3674 74.0103 60.0025
      vertex 323.118 94.4856 216.026
      vertex 31.4491 80.0181 51.0692
    endloop
  endfacet
  facet normal -0.311795 0.82162 0.477206
    outer loop
      vertex 18.0098 58.0483 79.4106
      vertex 323.118 94.4856 216.026
      vertex 30.3674 74.0103 60.0025
    endloop
  endfacet
  facet normal -0.287049 0.865645 0.410198
    outer loop
      vertex 4.60883 50.3514 86.2757
      vertex 323.118 94.4856 216.026
      vertex 18.0098 58.0483 79.4106
    endloop
  endfacet
  facet normal -0.323373 0.786395 0.52632
    outer loop
      vertex -3.73982 44.9166 89.2666
      vertex 323.118 94.4856 216.026
      vertex 4.60883 50.3514 86.2757
    endloop
  endfacet
  facet normal -0.37673 0.51476 0.770128
    outer loop
      vertex -5.98524 39.994 91.4585
      vertex 323.118 94.4856 216.026
      vertex -3.73982 44.9166 89.2666
    endloop
  endfacet
  facet normal -0.344375 0.729814 0.590574
    outer loop
      vertex -9.4512 37.8628 92.0711
      vertex 323.118 94.4856 216.026
      vertex -5.98524 39.994 91.4585
    endloop
  endfacet
  facet normal -0.378294 0.445305 0.81154
    outer loop
      vertex -10.7725 34.8419 93.1128
      vertex 323.118 94.4856 216.026
      vertex -9.4512 37.8628 92.0711
    endloop
  endfacet
  facet normal -0.378005 0.457821 0.804682
    outer loop
      vertex -13.0832 31.1845 94.1082
      vertex 323.118 94.4856 216.026
      vertex -10.7725 34.8419 93.1128
    endloop
  endfacet
  facet normal -0.355257 0.0959698 0.929829
    outer loop
      vertex -13.0832 31.1845 94.1082
      vertex -12.0894 30.0683 94.6031
      vertex 323.118 94.4856 216.026
    endloop
  endfacet
  facet normal -0.335529 -0.028849 0.941588
    outer loop
      vertex -12.0894 30.0683 94.6031
      vertex -11.1483 29.4299 94.9189
      vertex 323.118 94.4856 216.026
    endloop
  endfacet
  facet normal -0.374163 0.27215 0.886531
    outer loop
      vertex -11.3351 25.9918 95.8955
      vertex 323.118 94.4856 216.026
      vertex -11.1483 29.4299 94.9189
    endloop
  endfacet
  facet normal -0.353335 0.0926293 0.9309
    outer loop
      vertex -11.3351 25.9918 95.8955
      vertex -9.39622 22.5219 96.9767
      vertex 323.118 94.4856 216.026
    endloop
  endfacet
  facet normal -0.371782 0.230027 0.899369
    outer loop
      vertex -10.9724 14.9139 98.271
      vertex 323.118 94.4856 216.026
      vertex -9.39622 22.5219 96.9767
    endloop
  endfacet
  facet normal -0.352081 0.101277 0.930474
    outer loop
      vertex -10.9724 14.9139 98.271
      vertex -10.7209 8.71116 99.0413
      vertex 323.118 94.4856 216.026
    endloop
  endfacet
  facet normal -0.350822 0.0947998 0.931631
    outer loop
      vertex -11.1319 5.22962 99.2408
      vertex 323.118 94.4856 216.026
      vertex -10.7209 8.71116 99.0413
    endloop
  endfacet
  facet normal -0.324383 -0.0225608 0.945657
    outer loop
      vertex -11.1319 5.22962 99.2408
      vertex -9.9065 -2.4512 99.4779
      vertex 323.118 94.4856 216.026
    endloop
  endfacet
  facet normal -0.328218 -0.00807775 0.944568
    outer loop
      vertex -10.1016 -4.3347 99.394
      vertex 323.118 94.4856 216.026
      vertex -9.9065 -2.4512 99.4779
    endloop
  endfacet
  facet normal -0.307899 -0.0806383 0.947996
    outer loop
      vertex -10.1016 -4.3347 99.394
      vertex -9.84869 -6.07039 99.3285
      vertex 323.118 94.4856 216.026
    endloop
  endfacet
  facet normal -0.362516 0.129254 0.922971
    outer loop
      vertex -11.1523 -7.84999 99.0657
      vertex 323.118 94.4856 216.026
      vertex -9.84869 -6.07039 99.3285
    endloop
  endfacet
  facet normal -0.337624 0.0274782 0.94088
    outer loop
      vertex -12.3682 -10.2644 98.6999
      vertex 323.118 94.4856 216.026
      vertex -11.1523 -7.84999 99.0657
    endloop
  endfacet
  facet normal -0.274557 -0.178881 0.944786
    outer loop
      vertex -12.3682 -10.2644 98.6999
      vertex -11.6718 -11.7785 98.6156
      vertex 323.118 94.4856 216.026
    endloop
  endfacet
  facet normal -0.279444 -0.164743 0.945923
    outer loop
      vertex -11.6718 -11.7785 98.6156
      vertex -11.3123 -13.1221 98.4878
      vertex 323.118 94.4856 216.026
    endloop
  endfacet
  facet normal -0.278659 -0.167002 0.945759
    outer loop
      vertex -11.3123 -13.1221 98.4878
      vertex -10.9919 -14.7956 98.2867
      vertex 323.118 94.4856 216.026
    endloop
  endfacet
  facet normal -0.291516 -0.129804 0.947718
    outer loop
      vertex -11.0481 -15.4411 98.181
      vertex 323.118 94.4856 216.026
      vertex -10.9919 -14.7956 98.2867
    endloop
  endfacet
  facet normal -0.25568 -0.229524 0.93912
    outer loop
      vertex -11.0481 -15.4411 98.181
      vertex -9.88408 -18.061 97.8576
      vertex 323.118 94.4856 216.026
    endloop
  endfacet
  facet normal -0.260399 -0.217262 0.940739
    outer loop
      vertex -9.88408 -18.061 97.8576
      vertex -9.56898 -19.5021 97.612
      vertex 323.118 94.4856 216.026
    endloop
  endfacet
  facet normal -0.271869 -0.187136 0.943964
    outer loop
      vertex -9.67977 -21.3402 97.2157
      vertex 323.118 94.4856 216.026
      vertex -9.56898 -19.5021 97.612
    endloop
  endfacet
  facet normal -0.256332 -0.227207 0.939506
    outer loop
      vertex -9.67977 -21.3402 97.2157
      vertex -9.56265 -22.6967 96.9196
      vertex 323.118 94.4856 216.026
    endloop
  endfacet
  facet normal -0.251836 -0.238388 0.93795
    outer loop
      vertex -9.56265 -22.6967 96.9196
      vertex -9.49612 -25.6463 96.1878
      vertex 323.118 94.4856 216.026
    endloop
  endfacet
  facet normal -0.218641 -0.315706 0.923323
    outer loop
      vertex -9.49612 -25.6463 96.1878
      vertex -8.31808 -28.4971 95.492
      vertex 323.118 94.4856 216.026
    endloop
  endfacet
  facet normal -0.239122 -0.269763 0.932764
    outer loop
      vertex -11.1916 -36.3549 92.4828
      vertex 323.118 94.4856 216.026
      vertex -8.31808 -28.4971 95.492
    endloop
  endfacet
  facet normal -0.204506 -0.343102 0.916765
    outer loop
      vertex -14.3104 -41.3635 89.9126
      vertex 323.118 94.4856 216.026
      vertex -11.1916 -36.3549 92.4828
    endloop
  endfacet
  facet normal -0.168728 -0.412113 0.895374
    outer loop
      vertex -15.3652 -43.214 88.8621
      vertex 323.118 94.4856 216.026
      vertex -14.3104 -41.3635 89.9126
    endloop
  endfacet
  facet normal -0.142141 -0.460005 0.876465
    outer loop
      vertex -17.361 -45.208 87.4919
      vertex 323.118 94.4856 216.026
      vertex -15.3652 -43.214 88.8621
    endloop
  endfacet
  facet normal -0.0907982 -0.545384 0.833254
    outer loop
      vertex -20.5058 -48.2814 85.1376
      vertex 323.118 94.4856 216.026
      vertex -17.361 -45.208 87.4919
    endloop
  endfacet
  facet normal 0.0678139 -0.757983 0.64874
    outer loop
      vertex -22.15 -49.2712 84.153
      vertex 323.118 94.4856 216.026
      vertex -20.5058 -48.2814 85.1376
    endloop
  endfacet
  facet normal -0.0475894 -0.610753 0.790389
    outer loop
      vertex -22.7598 -49.97 83.5763
      vertex 323.118 94.4856 216.026
      vertex -22.15 -49.2712 84.153
    endloop
  endfacet
  facet normal -0.0701246 -0.577724 0.813214
    outer loop
      vertex -23.0201 -50.4215 83.2331
      vertex 323.118 94.4856 216.026
      vertex -22.7598 -49.97 83.5763
    endloop
  endfacet
  facet normal 0.338578 -0.931376 0.133803
    outer loop
      vertex -23.8562 -50.7918 82.7712
      vertex 323.118 94.4856 216.026
      vertex -23.0201 -50.4215 83.2331
    endloop
  endfacet
  facet normal 0.338456 0.0533677 -0.939468
    outer loop
      vertex -25.8326 -50.9991 82.0474
      vertex 323.118 94.4856 216.026
      vertex -23.8562 -50.7918 82.7712
    endloop
  endfacet
  facet normal 0.286272 0.180022 -0.941085
    outer loop
      vertex -27.9754 -50.8751 81.4193
      vertex 323.118 94.4856 216.026
      vertex -25.8326 -50.9991 82.0474
    endloop
  endfacet
  facet normal 0.240352 0.280106 -0.929393
    outer loop
      vertex -29.6816 -50.3653 81.1317
      vertex 323.118 94.4856 216.026
      vertex -27.9754 -50.8751 81.4193
    endloop
  endfacet
  facet normal 0.163573 -0.85566 0.49101
    outer loop
      vertex -32.2286 -52.0261 79.086
      vertex 323.118 94.4856 216.026
      vertex -29.6816 -50.3653 81.1317
    endloop
  endfacet
  facet normal 0.388363 -0.0842298 -0.917649
    outer loop
      vertex -34.4294 -52.0241 78.1544
      vertex 323.118 94.4856 216.026
      vertex -32.2286 -52.0261 79.086
    endloop
  endfacet
  facet normal 0.2293 0.308996 -0.923008
    outer loop
      vertex -35.2424 -51.5346 78.1163
      vertex 323.118 94.4856 216.026
      vertex -34.4294 -52.0241 78.1544
    endloop
  endfacet
  facet normal 0.222585 0.32262 -0.919985
    outer loop
      vertex -35.6323 -51.2659 78.1162
      vertex 323.118 94.4856 216.026
      vertex -35.2424 -51.5346 78.1163
    endloop
  endfacet
  facet normal 0.343831 0.0413485 -0.938121
    outer loop
      vertex -36.5946 -51.1139 77.7702
      vertex 323.118 94.4856 216.026
      vertex -35.6323 -51.2659 78.1162
    endloop
  endfacet
  facet normal 0.401621 -0.131647 -0.906294
    outer loop
      vertex -36.9143 -51.102 77.6268
      vertex 323.118 94.4856 216.026
      vertex -36.5946 -51.1139 77.7702
    endloop
  endfacet
  facet normal -0.0628932 -0.601523 0.796376
    outer loop
      vertex -36.9143 -51.102 77.6268
      vertex -36.5315 -62.0801 69.365
      vertex 323.118 94.4856 216.026
    endloop
  endfacet
  facet normal -0.0233796 -0.654327 0.75585
    outer loop
      vertex -36.5315 -62.0801 69.365
      vertex -36.5257 -62.1778 69.2806
      vertex 323.118 94.4856 216.026
    endloop
  endfacet
  facet normal -0.480243 0.348492 0.804935
    outer loop
      vertex -36.5257 -62.1778 69.2806
      vertex -36.0902 -62.1537 69.53
      vertex 323.118 94.4856 216.026
    endloop
  endfacet
  facet normal -0.402168 0.0683719 0.91301
    outer loop
      vertex -36.0902 -62.1537 69.53
      vertex -34.9466 -62.2347 70.0398
      vertex 323.118 94.4856 216.026
    endloop
  endfacet
  facet normal -0.21093 -0.363377 0.90745
    outer loop
      vertex -34.9466 -62.2347 70.0398
      vertex -33.5063 -62.9826 70.0751
      vertex 323.118 94.4856 216.026
    endloop
  endfacet
  facet normal -0.515576 0.647381 0.561319
    outer loop
      vertex -33.5063 -62.9826 70.0751
      vertex -31.0893 -62.4338 71.6622
      vertex 323.118 94.4856 216.026
    endloop
  endfacet
  facet normal -0.259448 -0.267959 0.927839
    outer loop
      vertex -31.0893 -62.4338 71.6622
      vertex -28.6112 -63.0091 72.189
      vertex 323.118 94.4856 216.026
    endloop
  endfacet
  facet normal -0.195553 -0.386454 0.901339
    outer loop
      vertex -28.6112 -63.0091 72.189
      vertex -25.8941 -63.9763 72.3638
      vertex 323.118 94.4856 216.026
    endloop
  endfacet
  facet normal -0.0828752 -0.562975 0.822308
    outer loop
      vertex -25.8941 -63.9763 72.3638
      vertex -25.2131 -64.8057 71.8646
      vertex 323.118 94.4856 216.026
    endloop
  endfacet
  facet normal -0.523727 0.583772 0.62042
    outer loop
      vertex -25.2131 -64.8057 71.8646
      vertex -24.7098 -64.6696 72.1614
      vertex 323.118 94.4856 216.026
    endloop
  endfacet
  facet normal -0.311778 -0.164518 0.935804
    outer loop
      vertex -24.7098 -64.6696 72.1614
      vertex -23.7426 -64.6721 72.4832
      vertex 323.118 94.4856 216.026
    endloop
  endfacet
  facet normal -0.477581 0.294158 0.827882
    outer loop
      vertex -23.7426 -64.6721 72.4832
      vertex -21.3292 -64.148 73.6892
      vertex 323.118 94.4856 216.026
    endloop
  endfacet
  facet normal -0.286774 -0.214976 0.933566
    outer loop
      vertex -21.3292 -64.148 73.6892
      vertex -18.1267 -63.9389 74.7211
      vertex 323.118 94.4856 216.026
    endloop
  endfacet
  facet normal -0.423332 0.109728 0.899305
    outer loop
      vertex -18.1267 -63.9389 74.7211
      vertex -17.2414 -63.7255 75.1118
      vertex 323.118 94.4856 216.026
    endloop
  endfacet
  facet normal -0.237009 -0.310141 0.920673
    outer loop
      vertex -17.2414 -63.7255 75.1118
      vertex -16.2942 -63.6615 75.3772
      vertex 323.118 94.4856 216.026
    endloop
  endfacet
  facet normal -0.484799 0.314716 0.816041
    outer loop
      vertex -16.2942 -63.6615 75.3772
      vertex -14.4808 -63.0809 76.2306
      vertex 323.118 94.4856 216.026
    endloop
  endfacet
  facet normal -0.0311825 0.699896 -0.713564
    outer loop
      vertex -14.4808 -63.0809 76.2306
      vertex -13.6604 -61.9613 77.2929
      vertex 323.118 94.4856 216.026
    endloop
  endfacet
  facet normal -0.270095 -0.244422 0.931293
    outer loop
      vertex -13.6604 -61.9613 77.2929
      vertex -11.3243 -61.3929 78.1196
      vertex 323.118 94.4856 216.026
    endloop
  endfacet
  facet normal -0.4493 0.889393 0.0843164
    outer loop
      vertex -11.3243 -61.3929 78.1196
      vertex -9.51627 -60.5633 79.0033
      vertex 323.118 94.4856 216.026
    endloop
  endfacet
  facet normal -0.0586935 -0.587403 0.807163
    outer loop
      vertex -9.51627 -60.5633 79.0033
      vertex -1.72498 -60.0702 79.9287
      vertex 323.118 94.4856 216.026
    endloop
  endfacet
  facet normal -0.0199111 -0.636841 0.770738
    outer loop
      vertex -1.72498 -60.0702 79.9287
      vertex 1.69063 -61.52 78.819
      vertex 323.118 94.4856 216.026
    endloop
  endfacet
  facet normal 0.0475102 -0.713076 0.699475
    outer loop
      vertex 1.69063 -61.52 78.819
      vertex 3.7329 -61.2364 78.9694
      vertex 323.118 94.4856 216.026
    endloop
  endfacet
  facet normal 0.25137 -0.876642 0.410258
    outer loop
      vertex 3.7329 -61.2364 78.9694
      vertex 8.4966 -59.3843 80.0082
      vertex 323.118 94.4856 216.026
    endloop
  endfacet
  facet normal 0.00916661 -0.672735 0.739827
    outer loop
      vertex 8.4966 -59.3843 80.0082
      vertex 9.07347 -59.7288 79.6878
      vertex 323.118 94.4856 216.026
    endloop
  endfacet
  facet normal -0.0186482 -0.640651 0.767606
    outer loop
      vertex 9.07347 -59.7288 79.6878
      vertex 9.31114 -60.1401 79.3503
      vertex 323.118 94.4856 216.026
    endloop
  endfacet
  facet normal 0.0458823 -0.71224 0.700435
    outer loop
      vertex 9.31114 -60.1401 79.3503
      vertex 10.4306 -60.3992 79.0135
      vertex 323.118 94.4856 216.026
    endloop
  endfacet
  facet normal 0.0133164 -0.67746 0.735439
    outer loop
      vertex 10.4306 -60.3992 79.0135
      vertex 11.1021 -60.9264 78.5157
      vertex 323.118 94.4856 216.026
    endloop
  endfacet
  facet normal 0.00141127 -0.664243 0.747515
    outer loop
      vertex 11.1021 -60.9264 78.5157
      vertex 11.3865 -61.2966 78.1862
      vertex 323.118 94.4856 216.026
    endloop
  endfacet
  facet normal 0.051499 -0.717603 0.694545
    outer loop
      vertex 11.3865 -61.2966 78.1862
      vertex 11.9714 -61.4754 77.9581
      vertex 323.118 94.4856 216.026
    endloop
  endfacet
  facet normal 0.0772249 -0.742806 0.665038
    outer loop
      vertex 11.9714 -61.4754 77.9581
      vertex 12.2449 -61.5082 77.8897
      vertex 323.118 94.4856 216.026
    endloop
  endfacet
  facet normal 0.0422208 -0.708206 0.704742
    outer loop
      vertex 12.2449 -61.5082 77.8897
      vertex 12.8072 -61.7768 77.5861
      vertex 323.118 94.4856 216.026
    endloop
  endfacet
  facet normal 0.0352411 -0.701018 0.712273
    outer loop
      vertex 12.8072 -61.7768 77.5861
      vertex 13.9578 -62.5762 76.7424
      vertex 323.118 94.4856 216.026
    endloop
  endfacet
  facet normal 0.0869661 -0.751319 0.654184
    outer loop
      vertex 13.9578 -62.5762 76.7424
      vertex 16.2675 -63.0379 75.9051
      vertex 323.118 94.4856 216.026
    endloop
  endfacet
  facet normal 0.111478 -0.772854 0.624715
    outer loop
      vertex 16.2675 -63.0379 75.9051
      vertex 17.1842 -63.1337 75.623
      vertex 323.118 94.4856 216.026
    endloop
  endfacet
  facet normal 0.262866 -0.87409 0.408495
    outer loop
      vertex 17.1842 -63.1337 75.623
      vertex 17.849 -62.9241 75.6437
      vertex 323.118 94.4856 216.026
    endloop
  endfacet
  facet normal 0.0135349 -0.68002 0.733069
    outer loop
      vertex 17.849 -62.9241 75.6437
      vertex 17.9283 -63.1088 75.4709
      vertex 323.118 94.4856 216.026
    endloop
  endfacet
  facet normal 0.0606244 -0.727209 0.683733
    outer loop
      vertex 17.9283 -63.1088 75.4709
      vertex 18.1024 -63.2246 75.3323
      vertex 323.118 94.4856 216.026
    endloop
  endfacet
  facet normal 0.0406816 -0.707814 0.705227
    outer loop
      vertex 18.1024 -63.2246 75.3323
      vertex 18.5282 -63.7269 74.8036
      vertex 323.118 94.4856 216.026
    endloop
  endfacet
  facet normal 0.0303635 -0.697507 0.715934
    outer loop
      vertex 18.5282 -63.7269 74.8036
      vertex 18.6784 -63.9864 74.5444
      vertex 323.118 94.4856 216.026
    endloop
  endfacet
  facet normal 0.345804 -0.900307 0.264324
    outer loop
      vertex 18.6784 -63.9864 74.5444
      vertex 18.979 -63.8619 74.5752
      vertex 323.118 94.4856 216.026
    endloop
  endfacet
  facet normal 0.384014 -0.904274 0.186609
    outer loop
      vertex 18.979 -63.8619 74.5752
      vertex 19.5515 -63.6038 74.6478
      vertex 323.118 94.4856 216.026
    endloop
  endfacet
  facet normal 0.158406 -0.809614 0.565183
    outer loop
      vertex 19.5515 -63.6038 74.6478
      vertex 19.7949 -63.5968 74.5896
      vertex 323.118 94.4856 216.026
    endloop
  endfacet
  facet normal 0.205628 -0.841516 0.499567
    outer loop
      vertex 19.7949 -63.5968 74.5896
      vertex 20.3165 -63.5074 74.5255
      vertex 323.118 94.4856 216.026
    endloop
  endfacet
  facet normal 0.0710319 0.586481 -0.806842
    outer loop
      vertex 20.3165 -63.5074 74.5255
      vertex 20.3353 -63.453 74.5667
      vertex 323.118 94.4856 216.026
    endloop
  endfacet
  facet normal 0.15357 0.479462 -0.864021
    outer loop
      vertex 20.3353 -63.453 74.5667
      vertex 20.4173 -63.3277 74.6508
      vertex 323.118 94.4856 216.026
    endloop
  endfacet
  facet normal 0.255275 0.325846 -0.910307
    outer loop
      vertex 20.4173 -63.3277 74.6508
      vertex 20.5549 -63.1715 74.7453
      vertex 323.118 94.4856 216.026
    endloop
  endfacet
  facet normal 0.481878 -0.151365 -0.863066
    outer loop
      vertex 20.5549 -63.1715 74.7453
      vertex 20.7782 -62.9886 74.8379
      vertex 323.118 94.4856 216.026
    endloop
  endfacet
  facet normal 0.164429 -0.814511 0.556358
    outer loop
      vertex 20.7782 -62.9886 74.8379
      vertex 21.3068 -62.9767 74.6991
      vertex 323.118 94.4856 216.026
    endloop
  endfacet
  facet normal 0.148534 -0.802879 0.577341
    outer loop
      vertex 21.3068 -62.9767 74.6991
      vertex 21.626 -62.9943 74.5925
      vertex 323.118 94.4856 216.026
    endloop
  endfacet
  facet normal 0.435044 -0.897527 0.0719784
    outer loop
      vertex 21.626 -62.9943 74.5925
      vertex 21.9662 -62.826 74.6349
      vertex 323.118 94.4856 216.026
    endloop
  endfacet
  facet normal 0.263588 -0.873148 0.410042
    outer loop
      vertex 21.9662 -62.826 74.6349
      vertex 22.4521 -62.6958 74.5998
      vertex 323.118 94.4856 216.026
    endloop
  endfacet
  facet normal 0.174118 -0.821548 0.542902
    outer loop
      vertex 22.4521 -62.6958 74.5998
      vertex 22.5656 -62.6925 74.5684
      vertex 323.118 94.4856 216.026
    endloop
  endfacet
  facet normal 0.0720998 -0.739857 0.66889
    outer loop
      vertex 22.5656 -62.6925 74.5684
      vertex 22.5979 -62.7162 74.5387
      vertex 323.118 94.4856 216.026
    endloop
  endfacet
  facet normal 0.0715476 -0.739354 0.669504
    outer loop
      vertex 22.5979 -62.7162 74.5387
      vertex 22.7685 -62.8453 74.3779
      vertex 323.118 94.4856 216.026
    endloop
  endfacet
  facet normal 0.120396 -0.781266 0.612478
    outer loop
      vertex 22.7685 -62.8453 74.3779
      vertex 22.869 -62.8712 74.3251
      vertex 323.118 94.4856 216.026
    endloop
  endfacet
  facet normal 0.197565 -0.836795 0.510629
    outer loop
      vertex 22.869 -62.8712 74.3251
      vertex 41.6956 -65.0312 63.5013
      vertex 323.118 94.4856 216.026
    endloop
  endfacet
  facet normal 0.446348 -0.888587 0.105767
    outer loop
      vertex 41.6956 -65.0312 63.5013
      vertex 51.4882 -60.4337 60.8007
      vertex 323.118 94.4856 216.026
    endloop
  endfacet
  facet normal 0.386675 -0.896144 0.217733
    outer loop
      vertex 51.4882 -60.4337 60.8007
      vertex 58.2584 -58.6013 56.3192
      vertex 323.118 94.4856 216.026
    endloop
  endfacet
  facet normal 0.515996 -0.855862 -0.0353471
    outer loop
      vertex 58.2584 -58.6013 56.3192
      vertex 71.0689 -50.5717 48.9052
      vertex 323.118 94.4856 216.026
    endloop
  endfacet
  facet normal 0.584317 -0.786949 -0.198203
    outer loop
      vertex 71.0689 -50.5717 48.9052
      vertex 79.401 -42.9124 43.0582
      vertex 323.118 94.4856 216.026
    endloop
  endfacet
  facet normal 0.635882 -0.688228 -0.34928
    outer loop
      vertex 79.401 -42.9124 43.0582
      vertex 88.4057 -30.6483 35.2863
      vertex 323.118 94.4856 216.026
    endloop
  endfacet
  facet normal 0.683192 -0.387192 -0.619137
    outer loop
      vertex 88.4057 -30.6483 35.2863
      vertex 89.9815 -26.662 34.5322
      vertex 323.118 94.4856 216.026
    endloop
  endfacet
  facet normal 0.634407 -0.0671906 -0.770073
    outer loop
      vertex 89.9815 -26.662 34.5322
      vertex 92.1692 -15.8785 35.3936
      vertex 323.118 94.4856 216.026
    endloop
  endfacet
  facet normal 0.450642 -0.892164 -0.0310711
    outer loop
      vertex 92.1692 -15.8785 35.3936
      vertex 94.7294 -14.3502 28.6427
      vertex 323.118 94.4856 216.026
    endloop
  endfacet
  facet normal 0.485531 -0.869928 -0.0865096
    outer loop
      vertex 94.7294 -14.3502 28.6427
      vertex 97.4517 -11.8749 19.0302
      vertex 323.118 94.4856 216.026
    endloop
  endfacet
  facet normal 0.473 -0.87847 -0.0675424
    outer loop
      vertex 97.4517 -11.8749 19.0302
      vertex 99.2301 -10.0144 7.28633
      vertex 323.118 94.4856 216.026
    endloop
  endfacet
  facet normal 0.690099 -0.558053 -0.460805
    outer loop
      vertex 99.2301 -10.0144 7.28633
      vertex 99.8791 -4.60797 1.71086
      vertex 323.118 94.4856 216.026
    endloop
  endfacet
  facet normal 0.520316 -0.840053 -0.153563
    outer loop
      vertex 99.8667 -3.63242 -3.6678
      vertex 323.118 94.4856 216.026
      vertex 99.8791 -4.60797 1.71086
    endloop
  endfacet
  facet normal 0.688711 -0.573338 -0.443803
    outer loop
      vertex 99.7029 -0.733262 -7.66734
      vertex 323.118 94.4856 216.026
      vertex 99.8667 -3.63242 -3.6678
    endloop
  endfacet
  facet normal 0.690831 -0.567008 -0.448615
    outer loop
      vertex 97.4476 7.2598 -21.2428
      vertex 323.118 94.4856 216.026
      vertex 99.7029 -0.733262 -7.66734
    endloop
  endfacet
  facet normal 0.731984 -0.406516 -0.546757
    outer loop
      vertex 93.7327 14.5711 -31.6522
      vertex 323.118 94.4856 216.026
      vertex 97.4476 7.2598 -21.2428
    endloop
  endfacet
  facet normal 0.400476 -0.913128 -0.0762727
    outer loop
      vertex 92.7697 14.3826 -34.4518
      vertex 323.118 94.4856 216.026
      vertex 93.7327 14.5711 -31.6522
    endloop
  endfacet
  facet normal 0.355214 -0.93437 -0.0278556
    outer loop
      vertex 90.9022 13.8177 -39.3175
      vertex 323.118 94.4856 216.026
      vertex 92.7697 14.3826 -34.4518
    endloop
  endfacet
  facet normal 0.470603 -0.868894 -0.153478
    outer loop
      vertex 90.3108 13.7388 -40.6842
      vertex 323.118 94.4856 216.026
      vertex 90.9022 13.8177 -39.3175
    endloop
  endfacet
  facet normal 0.716743 -0.490425 -0.495744
    outer loop
      vertex 88.5767 14.6103 -44.0535
      vertex 323.118 94.4856 216.026
      vertex 90.3108 13.7388 -40.6842
    endloop
  endfacet
  facet normal 0.49102 -0.852115 -0.181105
    outer loop
      vertex 88.3414 14.5769 -44.5343
      vertex 323.118 94.4856 216.026
      vertex 88.5767 14.6103 -44.0535
    endloop
  endfacet
  facet normal 0.747133 -0.347405 -0.566658
    outer loop
      vertex 87.8626 14.9033 -45.3657
      vertex 323.118 94.4856 216.026
      vertex 88.3414 14.5769 -44.5343
    endloop
  endfacet
  facet normal 0.756949 -0.144139 -0.637379
    outer loop
      vertex 87.2563 15.6867 -46.2629
      vertex 323.118 94.4856 216.026
      vertex 87.8626 14.9033 -45.3657
    endloop
  endfacet
  facet normal 0.727883 -0.446507 -0.520401
    outer loop
      vertex 86.1571 16.0899 -48.1463
      vertex 323.118 94.4856 216.026
      vertex 87.2563 15.6867 -46.2629
    endloop
  endfacet
  facet normal 0.71289 -0.500889 -0.490814
    outer loop
      vertex 84.3617 16.4433 -51.1147
      vertex 323.118 94.4856 216.026
      vertex 86.1571 16.0899 -48.1463
    endloop
  endfacet
  facet normal 0.719236 -0.479556 -0.502718
    outer loop
      vertex 82.9637 16.6325 -53.2953
      vertex 323.118 94.4856 216.026
      vertex 84.3617 16.4433 -51.1147
    endloop
  endfacet
  facet normal -0.107687 -0.925344 0.363515
    outer loop
      vertex 80.9818 15.58 -56.5616
      vertex 323.118 94.4856 216.026
      vertex 82.9637 16.6325 -53.2953
    endloop
  endfacet
  facet normal 0.759793 -0.132988 -0.636419
    outer loop
      vertex 79.4598 16.2086 -58.51
      vertex 323.118 94.4856 216.026
      vertex 80.9818 15.58 -56.5616
    endloop
  endfacet
  facet normal 0.0331626 -0.96852 0.246716
    outer loop
      vertex 78.2304 15.7171 -60.2742
      vertex 323.118 94.4856 216.026
      vertex 79.4598 16.2086 -58.51
    endloop
  endfacet
  facet normal -0.671934 -0.294556 0.679515
    outer loop
      vertex 77.2081 14.1853 -61.9491
      vertex 323.118 94.4856 216.026
      vertex 78.2304 15.7171 -60.2742
    endloop
  endfacet
  facet normal -0.581632 -0.483456 0.654198
    outer loop
      vertex 76.5469 13.7456 -62.8619
      vertex 323.118 94.4856 216.026
      vertex 77.2081 14.1853 -61.9491
    endloop
  endfacet
  facet normal -0.686496 -0.255275 0.680851
    outer loop
      vertex 75.3176 12.4179 -64.5992
      vertex 323.118 94.4856 216.026
      vertex 76.5469 13.7456 -62.8619
    endloop
  endfacet
  facet normal 0.723199 0.133431 -0.677628
    outer loop
      vertex 75.2379 13.7538 -64.4212
      vertex 323.118 94.4856 216.026
      vertex 75.3176 12.4179 -64.5992
    endloop
  endfacet
  facet normal 0.720413 0.144446 -0.678336
    outer loop
      vertex 74.9584 15.6489 -64.3145
      vertex 323.118 94.4856 216.026
      vertex 75.2379 13.7538 -64.4212
    endloop
  endfacet
  facet normal 0.711923 0.176278 -0.679773
    outer loop
      vertex 74.9584 15.6489 -64.3145
      vertex 75.0195 16.4834 -64.0341
      vertex 323.118 94.4856 216.026
    endloop
  endfacet
  facet normal 0.70465 0.201479 -0.680349
    outer loop
      vertex 75.0195 16.4834 -64.0341
      vertex 75.1648 17.0916 -63.7035
      vertex 323.118 94.4856 216.026
    endloop
  endfacet
  facet normal 0.713419 0.170744 -0.679618
    outer loop
      vertex 74.5346 19.3554 -63.7963
      vertex 323.118 94.4856 216.026
      vertex 75.1648 17.0916 -63.7035
    endloop
  endfacet
  facet normal 0.696355 0.229137 -0.680137
    outer loop
      vertex 74.5346 19.3554 -63.7963
      vertex 74.6851 20.2376 -63.345
      vertex 323.118 94.4856 216.026
    endloop
  endfacet
  facet normal 0.710697 0.180468 -0.679956
    outer loop
      vertex 74.3788 20.9122 -63.4861
      vertex 323.118 94.4856 216.026
      vertex 74.6851 20.2376 -63.345
    endloop
  endfacet
  facet normal 0.717734 0.15364 -0.679156
    outer loop
      vertex 74.0716 21.2329 -63.7382
      vertex 323.118 94.4856 216.026
      vertex 74.3788 20.9122 -63.4861
    endloop
  endfacet
  facet normal 0.706234 0.196538 -0.680151
    outer loop
      vertex 73.0094 23.244 -64.26
      vertex 323.118 94.4856 216.026
      vertex 74.0716 21.2329 -63.7382
    endloop
  endfacet
  facet normal 0.69849 0.223034 -0.679976
    outer loop
      vertex 72.5011 24.4743 -64.3786
      vertex 323.118 94.4856 216.026
      vertex 73.0094 23.244 -64.26
    endloop
  endfacet
  facet normal 0.688409 0.255118 -0.678976
    outer loop
      vertex 72.4182 25.2891 -64.1565
      vertex 323.118 94.4856 216.026
      vertex 72.5011 24.4743 -64.3786
    endloop
  endfacet
  facet normal 0.685188 0.264865 -0.678501
    outer loop
      vertex 72.3172 26.2756 -63.8734
      vertex 323.118 94.4856 216.026
      vertex 72.4182 25.2891 -64.1565
    endloop
  endfacet
  facet normal 0.694991 0.234192 -0.67981
    outer loop
      vertex 70.7942 28.0379 -64.8233
      vertex 323.118 94.4856 216.026
      vertex 72.3172 26.2756 -63.8734
    endloop
  endfacet
  facet normal 0.6825 0.273337 -0.67785
    outer loop
      vertex 69.5263 30.1163 -65.2618
      vertex 323.118 94.4856 216.026
      vertex 70.7942 28.0379 -64.8233
    endloop
  endfacet
  facet normal 0.684343 0.267732 -0.678229
    outer loop
      vertex 67.4503 30.9371 -67.0325
      vertex 323.118 94.4856 216.026
      vertex 69.5263 30.1163 -65.2618
    endloop
  endfacet
  facet normal 0.664698 0.324119 -0.673144
    outer loop
      vertex 65.1449 33.2245 -68.2076
      vertex 323.118 94.4856 216.026
      vertex 67.4503 30.9371 -67.0325
    endloop
  endfacet
  facet normal 0.660112 0.336403 -0.671629
    outer loop
      vertex 64.9959 33.6197 -68.1561
      vertex 323.118 94.4856 216.026
      vertex 65.1449 33.2245 -68.2076
    endloop
  endfacet
  facet normal 0.656113 0.346847 -0.670234
    outer loop
      vertex 64.5976 34.1824 -68.2548
      vertex 323.118 94.4856 216.026
      vertex 64.9959 33.6197 -68.1561
    endloop
  endfacet
  facet normal 0.654001 0.352276 -0.669465
    outer loop
      vertex 64.2694 34.6813 -68.3129
      vertex 323.118 94.4856 216.026
      vertex 64.5976 34.1824 -68.2548
    endloop
  endfacet
  facet normal 0.652354 0.356477 -0.668849
    outer loop
      vertex 63.9899 35.1485 -68.3365
      vertex 323.118 94.4856 216.026
      vertex 64.2694 34.6813 -68.3129
    endloop
  endfacet
  facet normal 0.641949 0.382155 -0.664725
    outer loop
      vertex 62.152 36.8843 -69.1135
      vertex 323.118 94.4856 216.026
      vertex 63.9899 35.1485 -68.3365
    endloop
  endfacet
  facet normal 0.61884 0.434794 -0.65421
    outer loop
      vertex 60.885 37.4797 -69.9163
      vertex 323.118 94.4856 216.026
      vertex 62.152 36.8843 -69.1135
    endloop
  endfacet
  facet normal 0.619365 0.433661 -0.654465
    outer loop
      vertex 60.065 38.0342 -70.3249
      vertex 323.118 94.4856 216.026
      vertex 60.885 37.4797 -69.9163
    endloop
  endfacet
  facet normal 0.631858 0.405697 -0.660428
    outer loop
      vertex 59.4459 39.0326 -70.3039
      vertex 323.118 94.4856 216.026
      vertex 60.065 38.0342 -70.3249
    endloop
  endfacet
  facet normal 0.627542 0.415613 -0.658374
    outer loop
      vertex 58.7912 40.1078 -70.2492
      vertex 323.118 94.4856 216.026
      vertex 59.4459 39.0326 -70.3039
    endloop
  endfacet
  facet normal 0.622 0.428097 -0.655629
    outer loop
      vertex 58.2253 40.9709 -70.2225
      vertex 323.118 94.4856 216.026
      vertex 58.7912 40.1078 -70.2492
    endloop
  endfacet
  facet normal 0.603888 0.466773 -0.646098
    outer loop
      vertex 57.9734 41.1678 -70.3157
      vertex 323.118 94.4856 216.026
      vertex 58.2253 40.9709 -70.2225
    endloop
  endfacet
  facet normal 0.599894 0.474878 -0.643909
    outer loop
      vertex 57.6263 41.422 -70.4516
      vertex 323.118 94.4856 216.026
      vertex 57.9734 41.1678 -70.3157
    endloop
  endfacet
  facet normal 0.612713 0.448284 -0.650864
    outer loop
      vertex 56.1775 43.7196 -70.233
      vertex 323.118 94.4856 216.026
      vertex 57.6263 41.422 -70.4516
    endloop
  endfacet
  facet normal 0.59519 0.484664 -0.640975
    outer loop
      vertex 54.6692 45.4539 -70.3222
      vertex 323.118 94.4856 216.026
      vertex 56.1775 43.7196 -70.233
    endloop
  endfacet
  facet normal 0.618615 0.434826 -0.654402
    outer loop
      vertex 54.6661 47.1973 -69.1667
      vertex 323.118 94.4856 216.026
      vertex 54.6692 45.4539 -70.3222
    endloop
  endfacet
  facet normal 0.592927 0.489617 -0.639307
    outer loop
      vertex 53.5362 49.8656 -68.1711
      vertex 323.118 94.4856 216.026
      vertex 54.6661 47.1973 -69.1667
    endloop
  endfacet
  facet normal 0.521282 0.61551 -0.591111
    outer loop
      vertex 51.1366 50.8015 -69.3127
      vertex 323.118 94.4856 216.026
      vertex 53.5362 49.8656 -68.1711
    endloop
  endfacet
  facet normal 0.173977 0.93502 -0.30898
    outer loop
      vertex 49.9564 50.7186 -70.2281
      vertex 323.118 94.4856 216.026
      vertex 51.1366 50.8015 -69.3127
    endloop
  endfacet
  facet normal 0.528564 0.603789 -0.596706
    outer loop
      vertex 48.5387 51.6457 -70.5458
      vertex 323.118 94.4856 216.026
      vertex 49.9564 50.7186 -70.2281
    endloop
  endfacet
  facet normal 0.531207 0.599573 -0.598608
    outer loop
      vertex 46.2028 53.6194 -70.6418
      vertex 323.118 94.4856 216.026
      vertex 48.5387 51.6457 -70.5458
    endloop
  endfacet
  facet normal 0.477677 0.678455 -0.558143
    outer loop
      vertex 41.8867 55.91 -71.5513
      vertex 323.118 94.4856 216.026
      vertex 46.2028 53.6194 -70.6418
    endloop
  endfacet
  facet normal 0.348548 0.821615 -0.451068
    outer loop
      vertex 39.2934 56.4316 -72.6051
      vertex 323.118 94.4856 216.026
      vertex 41.8867 55.91 -71.5513
    endloop
  endfacet
  facet normal 0.308349 0.855489 -0.416005
    outer loop
      vertex 38.0202 56.6411 -73.118
      vertex 323.118 94.4856 216.026
      vertex 39.2934 56.4316 -72.6051
    endloop
  endfacet
  facet normal 0.286376 0.872213 -0.396528
    outer loop
      vertex 36.6709 56.8428 -73.6488
      vertex 323.118 94.4856 216.026
      vertex 38.0202 56.6411 -73.118
    endloop
  endfacet
  facet normal 0.494917 0.652226 -0.574158
    outer loop
      vertex 35.6527 57.9032 -73.3219
      vertex 323.118 94.4856 216.026
      vertex 36.6709 56.8428 -73.6488
    endloop
  endfacet
  facet normal 0.447299 0.716725 -0.535004
    outer loop
      vertex 34.7475 58.4935 -73.2879
      vertex 323.118 94.4856 216.026
      vertex 35.6527 57.9032 -73.3219
    endloop
  endfacet
  facet normal 0.44556 0.718895 -0.533541
    outer loop
      vertex 33.6601 59.2295 -73.2043
      vertex 323.118 94.4856 216.026
      vertex 34.7475 58.4935 -73.2879
    endloop
  endfacet
  facet normal 0.24076 0.904801 -0.351241
    outer loop
      vertex 32.1448 59.4331 -73.7185
      vertex 323.118 94.4856 216.026
      vertex 33.6601 59.2295 -73.2043
    endloop
  endfacet
  facet normal 0.481706 0.670038 -0.564808
    outer loop
      vertex 31.7928 59.8244 -73.5545
      vertex 323.118 94.4856 216.026
      vertex 32.1448 59.4331 -73.7185
    endloop
  endfacet
  facet normal 0.408501 0.762188 -0.502191
    outer loop
      vertex 30.9224 60.305 -73.5331
      vertex 323.118 94.4856 216.026
      vertex 31.7928 59.8244 -73.5545
    endloop
  endfacet
  facet normal 0.411809 0.758481 -0.505093
    outer loop
      vertex 28.8529 61.5628 -73.3316
      vertex 323.118 94.4856 216.026
      vertex 30.9224 60.305 -73.5331
    endloop
  endfacet
  facet normal 0.485951 0.662867 -0.569613
    outer loop
      vertex 28.1201 62.6462 -72.696
      vertex 323.118 94.4856 216.026
      vertex 28.8529 61.5628 -73.3316
    endloop
  endfacet
  facet normal 0.364941 0.808309 -0.462011
    outer loop
      vertex 26.8616 63.2324 -72.6645
      vertex 323.118 94.4856 216.026
      vertex 28.1201 62.6462 -72.696
    endloop
  endfacet
  facet normal 0.415329 0.754669 -0.507914
    outer loop
      vertex 25.9275 63.9284 -72.3942
      vertex 323.118 94.4856 216.026
      vertex 26.8616 63.2324 -72.6645
    endloop
  endfacet
  facet normal 0.222945 0.918343 -0.327019
    outer loop
      vertex 22.3403 64.5804 -73.0088
      vertex 323.118 94.4856 216.026
      vertex 25.9275 63.9284 -72.3942
    endloop
  endfacet
  facet normal 0.0917944 0.976192 -0.196526
    outer loop
      vertex 19.8772 64.6884 -73.6228
      vertex 323.118 94.4856 216.026
      vertex 22.3403 64.5804 -73.0088
    endloop
  endfacet
  facet normal 0.134407 0.961516 -0.239629
    outer loop
      vertex 17.2721 64.9455 -74.0524
      vertex 323.118 94.4856 216.026
      vertex 19.8772 64.6884 -73.6228
    endloop
  endfacet
  facet normal 0.165382 0.948283 -0.27094
    outer loop
      vertex 15.7 65.1781 -74.1979
      vertex 323.118 94.4856 216.026
      vertex 17.2721 64.9455 -74.0524
    endloop
  endfacet
  facet normal -0.948849 -0.108837 -0.296379
    outer loop
      vertex 0 0 0
      vertex 12.891 72.3357 -67.8334
      vertex 15.7 65.1781 -74.1979
    endloop
  endfacet
  facet normal -0.964977 -0.0660987 -0.253869
    outer loop
      vertex 0 0 0
      vertex 11.4442 76.4726 -63.4111
      vertex 12.891 72.3357 -67.8334
    endloop
  endfacet
  facet normal -0.949179 0.272555 0.157392
    outer loop
      vertex 0 0 0
      vertex 16.3988 85.5108 -49.183
      vertex 11.4442 76.4726 -63.4111
    endloop
  endfacet
  facet normal -0.970355 0.229562 0.0755834
    outer loop
      vertex 0 0 0
      vertex 18.4003 90.4472 -38.4802
      vertex 16.3988 85.5108 -49.183
    endloop
  endfacet
  facet normal -0.812015 0.360476 0.459008
    outer loop
      vertex 0 0 0
      vertex 19.6078 90.9245 -36.7189
      vertex 18.4003 90.4472 -38.4802
    endloop
  endfacet
  facet normal -0.975609 0.218577 0.0202742
    outer loop
      vertex 0 0 0
      vertex 20.0894 92.626 -31.8879
      vertex 19.6078 90.9245 -36.7189
    endloop
  endfacet
  facet normal -0.872449 0.021136 -0.488249
    outer loop
      vertex 0 0 0
      vertex 19.0834 93.4481 -30.0547
      vertex 20.0894 92.626 -31.8879
    endloop
  endfacet
  facet normal -0.97697 0.151036 -0.150723
    outer loop
      vertex 0 0 0
      vertex 18.6506 94.7606 -25.9341
      vertex 19.0834 93.4481 -30.0547
    endloop
  endfacet
  facet normal -0.656287 0.316605 0.684871
    outer loop
      vertex 0 0 0
      vertex 18.9822 94.7789 -25.6248
      vertex 18.6506 94.7606 -25.9341
    endloop
  endfacet
  facet normal -0.515003 0.318324 0.79589
    outer loop
      vertex 0 0 0
      vertex 19.1934 94.7738 -25.4861
      vertex 18.9822 94.7789 -25.6248
    endloop
  endfacet
  facet normal -0.469638 0.316721 0.824092
    outer loop
      vertex 0 0 0
      vertex 19.7493 94.747 -25.159
      vertex 19.1934 94.7738 -25.4861
    endloop
  endfacet
  facet normal 0.0493599 0.246708 0.967832
    outer loop
      vertex 0 0 0
      vertex 20.928 94.4947 -25.1548
      vertex 19.7493 94.747 -25.159
    endloop
  endfacet
  facet normal -0.666462 0.326079 0.670448
    outer loop
      vertex 0 0 0
      vertex 21.5905 94.516 -24.5066
      vertex 20.928 94.4947 -25.1548
    endloop
  endfacet
  facet normal -0.767488 0.319432 0.555811
    outer loop
      vertex 0 0 0
      vertex 22.3722 94.5964 -23.4734
      vertex 21.5905 94.516 -24.5066
    endloop
  endfacet
  facet normal -0.517296 0.319363 0.793985
    outer loop
      vertex 0 0 0
      vertex 23.4878 94.5117 -22.7125
      vertex 22.3722 94.5964 -23.4734
    endloop
  endfacet
  facet normal -0.0779708 0.251228 0.964782
    outer loop
      vertex 0 0 0
      vertex 24.9591 94.183 -22.508
      vertex 23.4878 94.5117 -22.7125
    endloop
  endfacet
  facet normal -0.53974 0.328289 0.775182
    outer loop
      vertex 0 0 0
      vertex 25.8919 94.093 -21.8204
      vertex 24.9591 94.183 -22.508
    endloop
  endfacet
  facet normal -0.839325 0.330972 0.431266
    outer loop
      vertex 0 0 0
      vertex 26.1343 94.128 -21.3755
      vertex 25.8919 94.093 -21.8204
    endloop
  endfacet
  facet normal -0.804336 0.334793 0.490873
    outer loop
      vertex 0 0 0
      vertex 27.8827 94.2208 -18.5739
      vertex 26.1343 94.128 -21.3755
    endloop
  endfacet
  facet normal -0.71716 0.332922 0.612245
    outer loop
      vertex 0 0 0
      vertex 28.8887 94.1498 -17.3569
      vertex 27.8827 94.2208 -18.5739
    endloop
  endfacet
  facet normal -0.399544 0.283321 0.871834
    outer loop
      vertex 0 0 0
      vertex 29.8819 93.9349 -16.8319
      vertex 28.8887 94.1498 -17.3569
    endloop
  endfacet
  facet normal -0.637161 0.32769 0.697599
    outer loop
      vertex 0 0 0
      vertex 30.8623 93.7858 -15.8664
      vertex 29.8819 93.9349 -16.8319
    endloop
  endfacet
  facet normal -0.924462 0.335011 0.182036
    outer loop
      vertex 0 0 0
      vertex 31.2249 93.9215 -14.2747
      vertex 30.8623 93.7858 -15.8664
    endloop
  endfacet
  facet normal -0.878549 0.342657 0.332772
    outer loop
      vertex 0 0 0
      vertex 32.0117 93.946 -12.2227
      vertex 31.2249 93.9215 -14.2747
    endloop
  endfacet
  facet normal -0.758186 0.17669 -0.627642
    outer loop
      vertex 0 0 0
      vertex 30.7138 94.5884 -10.474
      vertex 32.0117 93.946 -12.2227
    endloop
  endfacet
  facet normal -0.782342 0.188292 -0.593706
    outer loop
      vertex 0 0 0
      vertex 29.3258 95.2299 -8.44155
      vertex 30.7138 94.5884 -10.474
    endloop
  endfacet
  facet normal -0.939157 0.303474 0.160898
    outer loop
      vertex 0 0 0
      vertex 29.9685 95.2834 -4.79106
      vertex 29.3258 95.2299 -8.44155
    endloop
  endfacet
  facet normal -0.93527 0.283507 -0.211881
    outer loop
      vertex 0 0 0
      vertex 29.1624 95.6504 -0.741775
      vertex 29.9685 95.2834 -4.79106
    endloop
  endfacet
  facet normal -0.95131 0.289214 -0.106604
    outer loop
      vertex 0 0 0
      vertex 28.3521 95.6727 6.54968
      vertex 29.1624 95.6504 -0.741775
    endloop
  endfacet
  facet normal -0.943903 0.266358 0.195195
    outer loop
      vertex 0 0 0
      vertex 30.701 92.5537 22.1643
      vertex 28.3521 95.6727 6.54968
    endloop
  endfacet
  facet normal -0.939463 0.257491 0.226071
    outer loop
      vertex 0 0 0
      vertex 31.6932 90.3771 28.7666
      vertex 30.701 92.5537 22.1643
    endloop
  endfacet
  facet normal -0.94569 0.278011 0.168464
    outer loop
      vertex 0 0 0
      vertex 31.955 89.0148 32.4844
      vertex 31.6932 90.3771 28.7666
    endloop
  endfacet
  facet normal -0.92471 0.367791 -0.0981933
    outer loop
      vertex 0 0 0
      vertex 31.3062 88.1489 35.351
      vertex 31.955 89.0148 32.4844
    endloop
  endfacet
  facet normal -0.875139 0.123146 0.467939
    outer loop
      vertex 0 0 0
      vertex 31.7696 87.5662 36.371
      vertex 31.3062 88.1489 35.351
    endloop
  endfacet
  facet normal -0.942801 0.25088 0.219511
    outer loop
      vertex 0 0 0
      vertex 32.3614 84.6831 42.2079
      vertex 31.7696 87.5662 36.371
    endloop
  endfacet
  facet normal -0.914136 0.394945 -0.0915112
    outer loop
      vertex 0 0 0
      vertex 31.0755 82.7586 46.7474
      vertex 32.3614 84.6831 42.2079
    endloop
  endfacet
  facet normal -0.750654 0.515383 -0.413401
    outer loop
      vertex 0 0 0
      vertex 30.5317 82.5481 47.4724
      vertex 31.0755 82.7586 46.7474
    endloop
  endfacet
  facet normal -0.950563 0.293872 0.100347
    outer loop
      vertex 0 0 0
      vertex 30.4923 82.2172 48.0682
      vertex 30.5317 82.5481 47.4724
    endloop
  endfacet
  facet normal -0.95083 0.291563 0.104466
    outer loop
      vertex 0 0 0
      vertex 30.4319 81.6843 49.0058
      vertex 30.4923 82.2172 48.0682
    endloop
  endfacet
  facet normal -0.880917 0.0455754 0.471071
    outer loop
      vertex 0 0 0
      vertex 31.4491 80.0181 51.0692
      vertex 30.4319 81.6843 49.0058
    endloop
  endfacet
  facet normal -0.945618 0.31117 0.0947656
    outer loop
      vertex 0 0 0
      vertex 30.3674 74.0103 60.0025
      vertex 31.4491 80.0181 51.0692
    endloop
  endfacet
  facet normal -0.86347 0.479984 -0.155034
    outer loop
      vertex 0 0 0
      vertex 18.0098 58.0483 79.4106
      vertex 30.3674 74.0103 60.0025
    endloop
  endfacet
  facet normal -0.599251 0.704948 -0.379403
    outer loop
      vertex 0 0 0
      vertex 4.60883 50.3514 86.2757
      vertex 18.0098 58.0483 79.4106
    endloop
  endfacet
  facet normal -0.596406 0.706719 -0.380589
    outer loop
      vertex -3.73982 44.9166 89.2666
      vertex 4.60883 50.3514 86.2757
      vertex 0 0 0
    endloop
  endfacet
  facet normal -0.921782 0.329457 -0.204392
    outer loop
      vertex -5.98524 39.994 91.4585
      vertex -3.73982 44.9166 89.2666
      vertex 0 0 0
    endloop
  endfacet
  facet normal -0.533373 0.761651 -0.367968
    outer loop
      vertex -9.4512 37.8628 92.0711
      vertex -5.98524 39.994 91.4585
      vertex 0 0 0
    endloop
  endfacet
  facet normal -0.918564 0.323393 -0.227282
    outer loop
      vertex -10.7725 34.8419 93.1128
      vertex -9.4512 37.8628 92.0711
      vertex 0 0 0
    endloop
  endfacet
  facet normal -0.845474 0.460628 -0.270178
    outer loop
      vertex -13.0832 31.1845 94.1082
      vertex -10.7725 34.8419 93.1128
      vertex 0 0 0
    endloop
  endfacet
  facet normal -0.765289 -0.635214 0.104097
    outer loop
      vertex -13.0832 31.1845 94.1082
      vertex 0 0 0
      vertex -12.0894 30.0683 94.6031
    endloop
  endfacet
  facet normal -0.592181 -0.786712 0.17437
    outer loop
      vertex -12.0894 30.0683 94.6031
      vertex 0 0 0
      vertex -11.1483 29.4299 94.9189
    endloop
  endfacet
  facet normal -0.992287 0.0191241 -0.122474
    outer loop
      vertex -11.3351 25.9918 95.8955
      vertex -11.1483 29.4299 94.9189
      vertex 0 0 0
    endloop
  endfacet
  facet normal -0.876189 -0.481219 0.0268632
    outer loop
      vertex -11.3351 25.9918 95.8955
      vertex 0 0 0
      vertex -9.39622 22.5219 96.9767
    endloop
  endfacet
  facet normal -0.974458 0.178757 -0.135931
    outer loop
      vertex -10.9724 14.9139 98.271
      vertex -9.39622 22.5219 96.9767
      vertex 0 0 0
    endloop
  endfacet
  facet normal -0.993281 -0.0530473 -0.102854
    outer loop
      vertex -10.9724 14.9139 98.271
      vertex 0 0 0
      vertex -10.7209 8.71116 99.0413
    endloop
  endfacet
  facet normal -0.987096 0.109851 -0.116512
    outer loop
      vertex -11.1319 5.22962 99.2408
      vertex -10.7209 8.71116 99.0413
      vertex 0 0 0
    endloop
  endfacet
  facet normal -0.981896 -0.159792 -0.101719
    outer loop
      vertex -11.1319 5.22962 99.2408
      vertex 0 0 0
      vertex -9.9065 -2.4512 99.4779
    endloop
  endfacet
  facet normal -0.989644 0.106784 -0.0959225
    outer loop
      vertex -10.1016 -4.3347 99.394
      vertex -9.9065 -2.4512 99.4779
      vertex 0 0 0
    endloop
  endfacet
  facet normal -0.984524 -0.139451 -0.106141
    outer loop
      vertex -10.1016 -4.3347 99.394
      vertex 0 0 0
      vertex -9.84869 -6.07039 99.3285
    endloop
  endfacet
  facet normal -0.802901 0.59454 -0.0432749
    outer loop
      vertex -11.1523 -7.84999 99.0657
      vertex -9.84869 -6.07039 99.3285
      vertex 0 0 0
    endloop
  endfacet
  facet normal -0.88741 0.456555 -0.0637225
    outer loop
      vertex -12.3682 -10.2644 98.6999
      vertex -11.1523 -7.84999 99.0657
      vertex 0 0 0
    endloop
  endfacet
  facet normal -0.90077 -0.40567 -0.155065
    outer loop
      vertex -12.3682 -10.2644 98.6999
      vertex 0 0 0
      vertex -11.6718 -11.7785 98.6156
    endloop
  endfacet
  facet normal -0.959449 -0.243151 -0.142599
    outer loop
      vertex -11.6718 -11.7785 98.6156
      vertex 0 0 0
      vertex -11.3123 -13.1221 98.4878
    endloop
  endfacet
  facet normal -0.976058 -0.170667 -0.134849
    outer loop
      vertex -11.3123 -13.1221 98.4878
      vertex 0 0 0
      vertex -10.9919 -14.7956 98.2867
    endloop
  endfacet
  facet normal -0.990215 0.101836 -0.0954109
    outer loop
      vertex -11.0481 -15.4411 98.181
      vertex -10.9919 -14.7956 98.2867
      vertex 0 0 0
    endloop
  endfacet
  facet normal -0.908986 -0.383785 -0.162645
    outer loop
      vertex -11.0481 -15.4411 98.181
      vertex 0 0 0
      vertex -9.88408 -18.061 97.8576
    endloop
  endfacet
  facet normal -0.972699 -0.189965 -0.133308
    outer loop
      vertex -9.88408 -18.061 97.8576
      vertex 0 0 0
      vertex -9.56898 -19.5021 97.612
    endloop
  endfacet
  facet normal -0.993618 0.0775501 -0.0819112
    outer loop
      vertex -9.67977 -21.3402 97.2157
      vertex -9.56898 -19.5021 97.612
      vertex 0 0 0
    endloop
  endfacet
  facet normal -0.991805 -0.0611462 -0.112177
    outer loop
      vertex -9.67977 -21.3402 97.2157
      vertex 0 0 0
      vertex -9.56265 -22.6967 96.9196
    endloop
  endfacet
  facet normal -0.995207 0.00180924 -0.0977692
    outer loop
      vertex -9.56265 -22.6967 96.9196
      vertex 0 0 0
      vertex -9.49612 -25.6463 96.1878
    endloop
  endfacet
  facet normal -0.923728 -0.337492 -0.181179
    outer loop
      vertex -9.49612 -25.6463 96.1878
      vertex 0 0 0
      vertex -8.31808 -28.4971 95.492
    endloop
  endfacet
  facet normal -0.941287 0.337095 0.0186039
    outer loop
      vertex -11.1916 -36.3549 92.4828
      vertex -8.31808 -28.4971 95.492
      vertex 0 0 0
    endloop
  endfacet
  facet normal -0.86538 0.493127 0.0891257
    outer loop
      vertex -14.3104 -41.3635 89.9126
      vertex -11.1916 -36.3549 92.4828
      vertex 0 0 0
    endloop
  endfacet
  facet normal -0.88359 0.46266 0.0722113
    outer loop
      vertex -15.3652 -43.214 88.8621
      vertex -14.3104 -41.3635 89.9126
      vertex 0 0 0
    endloop
  endfacet
  facet normal -0.753843 0.632674 0.177324
    outer loop
      vertex -17.361 -45.208 87.4919
      vertex -15.3652 -43.214 88.8621
      vertex 0 0 0
    endloop
  endfacet
  facet normal -0.75273 0.633777 0.178115
    outer loop
      vertex -20.5058 -48.2814 85.1376
      vertex -17.361 -45.208 87.4919
      vertex 0 0 0
    endloop
  endfacet
  facet normal -0.61111 0.742627 0.273954
    outer loop
      vertex -22.15 -49.2712 84.153
      vertex -20.5058 -48.2814 85.1376
      vertex 0 0 0
    endloop
  endfacet
  facet normal -0.798639 0.586843 0.133384
    outer loop
      vertex -22.7598 -49.97 83.5763
      vertex -22.15 -49.2712 84.153
      vertex 0 0 0
    endloop
  endfacet
  facet normal -0.879541 0.473806 0.0437672
    outer loop
      vertex -23.0201 -50.4215 83.2331
      vertex -22.7598 -49.97 83.5763
      vertex 0 0 0
    endloop
  endfacet
  facet normal -0.528192 0.783091 0.328302
    outer loop
      vertex -23.8562 -50.7918 82.7712
      vertex -23.0201 -50.4215 83.2331
      vertex 0 0 0
    endloop
  endfacet
  facet normal -0.254968 0.855179 0.451287
    outer loop
      vertex -25.8326 -50.9991 82.0474
      vertex -23.8562 -50.7918 82.7712
      vertex 0 0 0
    endloop
  endfacet
  facet normal -0.0977475 0.858741 0.503001
    outer loop
      vertex -27.9754 -50.8751 81.4193
      vertex -25.8326 -50.9991 82.0474
      vertex 0 0 0
    endloop
  endfacet
  facet normal 0.149002 0.814771 0.560309
    outer loop
      vertex -29.6816 -50.3653 81.1317
      vertex -27.9754 -50.8751 81.4193
      vertex 0 0 0
    endloop
  endfacet
  facet normal -0.648928 0.729674 0.215563
    outer loop
      vertex -32.2286 -52.0261 79.086
      vertex -29.6816 -50.3653 81.1317
      vertex 0 0 0
    endloop
  endfacet
  facet normal -0.202157 0.85399 0.479409
    outer loop
      vertex -34.4294 -52.0241 78.1544
      vertex -32.2286 -52.0261 79.086
      vertex 0 0 0
    endloop
  endfacet
  facet normal 0.381939 0.682831 0.622788
    outer loop
      vertex -35.2424 -51.5346 78.1163
      vertex -34.4294 -52.0241 78.1544
      vertex 0 0 0
    endloop
  endfacet
  facet normal 0.443157 0.643297 0.624325
    outer loop
      vertex -35.6323 -51.2659 78.1162
      vertex -35.2424 -51.5346 78.1163
      vertex 0 0 0
    endloop
  endfacet
  facet normal -0.0567206 0.846364 0.529577
    outer loop
      vertex -36.5946 -51.1139 77.7702
      vertex -35.6323 -51.2659 78.1162
      vertex 0 0 0
    endloop
  endfacet
  facet normal -0.182671 0.858862 0.478526
    outer loop
      vertex -36.9143 -51.102 77.6268
      vertex -36.5946 -51.1139 77.7702
      vertex 0 0 0
    endloop
  endfacet
  facet normal -0.929369 0.20074 -0.3098
    outer loop
      vertex -36.9143 -51.102 77.6268
      vertex 0 0 0
      vertex -36.5315 -62.0801 69.365
    endloop
  endfacet
  facet normal -0.929802 0.207427 -0.304043
    outer loop
      vertex -36.5315 -62.0801 69.365
      vertex 0 0 0
      vertex -36.5257 -62.1778 69.2806
    endloop
  endfacet
  facet normal 0.341865 -0.781819 -0.521429
    outer loop
      vertex -36.5257 -62.1778 69.2806
      vertex 0 0 0
      vertex -36.0902 -62.1537 69.53
    endloop
  endfacet
  facet normal 0.207659 -0.780386 -0.589809
    outer loop
      vertex -36.0902 -62.1537 69.53
      vertex 0 0 0
      vertex -34.9466 -62.2347 70.0398
    endloop
  endfacet
  facet normal -0.309171 -0.629065 -0.713225
    outer loop
      vertex -34.9466 -62.2347 70.0398
      vertex 0 0 0
      vertex -33.5063 -62.9826 70.0751
    endloop
  endfacet
  facet normal 0.470356 -0.75625 -0.454808
    outer loop
      vertex -33.5063 -62.9826 70.0751
      vertex 0 0 0
      vertex -31.0893 -62.4338 71.6622
    endloop
  endfacet
  facet normal -0.0320956 -0.74666 -0.664432
    outer loop
      vertex -31.0893 -62.4338 71.6622
      vertex 0 0 0
      vertex -28.6112 -63.0091 72.189
    endloop
  endfacet
  facet normal -0.203547 -0.696223 -0.688362
    outer loop
      vertex -28.6112 -63.0091 72.189
      vertex 0 0 0
      vertex -25.8941 -63.9763 72.3638
    endloop
  endfacet
  facet normal -0.77694 -0.307153 -0.549565
    outer loop
      vertex -25.8941 -63.9763 72.3638
      vertex 0 0 0
      vertex -25.2131 -64.8057 71.8646
    endloop
  endfacet
  facet normal 0.483638 -0.727625 -0.486473
    outer loop
      vertex -25.2131 -64.8057 71.8646
      vertex 0 0 0
      vertex -24.7098 -64.6696 72.1614
    endloop
  endfacet
  facet normal 0.202396 -0.762726 -0.614235
    outer loop
      vertex -24.7098 -64.6696 72.1614
      vertex 0 0 0
      vertex -23.7426 -64.6721 72.4832
    endloop
  endfacet
  facet normal 0.422043 -0.74074 -0.52267
    outer loop
      vertex -23.7426 -64.6721 72.4832
      vertex 0 0 0
      vertex -21.3292 -64.148 73.6892
    endloop
  endfacet
  facet normal 0.242098 -0.765428 -0.596246
    outer loop
      vertex -21.3292 -64.148 73.6892
      vertex 0 0 0
      vertex -18.1267 -63.9389 74.7211
    endloop
  endfacet
  facet normal 0.413017 -0.739039 -0.532202
    outer loop
      vertex -18.1267 -63.9389 74.7211
      vertex 0 0 0
      vertex -17.2414 -63.7255 75.1118
    endloop
  endfacet
  facet normal 0.220337 -0.768166 -0.601142
    outer loop
      vertex -17.2414 -63.7255 75.1118
      vertex 0 0 0
      vertex -16.2942 -63.6615 75.3772
    endloop
  endfacet
  facet normal 0.470139 -0.721769 -0.507956
    outer loop
      vertex -16.2942 -63.6615 75.3772
      vertex 0 0 0
      vertex -14.4808 -63.0809 76.2306
    endloop
  endfacet
  facet normal 0.871716 -0.445832 -0.203335
    outer loop
      vertex -14.4808 -63.0809 76.2306
      vertex 0 0 0
      vertex -13.6604 -61.9613 77.2929
    endloop
  endfacet
  facet normal 0.374307 -0.754686 -0.538835
    outer loop
      vertex -13.6604 -61.9613 77.2929
      vertex 0 0 0
      vertex -11.3243 -61.3929 78.1196
    endloop
  endfacet
  facet normal 0.547004 -0.694892 -0.46681
    outer loop
      vertex -11.3243 -61.3929 78.1196
      vertex 0 0 0
      vertex -9.51627 -60.5633 79.0033
    endloop
  endfacet
  facet normal 0.120938 -0.79479 -0.594712
    outer loop
      vertex -9.51627 -60.5633 79.0033
      vertex 0 0 0
      vertex -1.72498 -60.0702 79.9287
    endloop
  endfacet
  facet normal -0.47141 -0.700091 -0.536325
    outer loop
      vertex -1.72498 -60.0702 79.9287
      vertex 0 0 0
      vertex 1.69063 -61.52 78.819
    endloop
  endfacet
  facet normal 0.152888 -0.777442 -0.61009
    outer loop
      vertex 0 0 0
      vertex 3.7329 -61.2364 78.9694
      vertex 1.69063 -61.52 78.819
    endloop
  endfacet
  facet normal 0.402531 -0.714083 -0.57276
    outer loop
      vertex 0 0 0
      vertex 8.4966 -59.3843 80.0082
      vertex 3.7329 -61.2364 78.9694
    endloop
  endfacet
  facet normal -0.625881 -0.656605 -0.420884
    outer loop
      vertex 0 0 0
      vertex 9.07347 -59.7288 79.6878
      vertex 8.4966 -59.3843 80.0082
    endloop
  endfacet
  facet normal -0.908403 -0.377571 -0.179569
    outer loop
      vertex 0 0 0
      vertex 9.31114 -60.1401 79.3503
      vertex 9.07347 -59.7288 79.6878
    endloop
  endfacet
  facet normal -0.34087 -0.768059 -0.542118
    outer loop
      vertex 0 0 0
      vertex 10.4306 -60.3992 79.0135
      vertex 9.31114 -60.1401 79.3503
    endloop
  endfacet
  facet normal -0.725754 -0.589428 -0.354761
    outer loop
      vertex 0 0 0
      vertex 11.1021 -60.9264 78.5157
      vertex 10.4306 -60.3992 79.0135
    endloop
  endfacet
  facet normal -0.860022 -0.454812 -0.231317
    outer loop
      vertex 0 0 0
      vertex 11.3865 -61.2966 78.1862
      vertex 11.1021 -60.9264 78.5157
    endloop
  endfacet
  facet normal -0.428355 -0.740363 -0.518049
    outer loop
      vertex 0 0 0
      vertex 11.9714 -61.4754 77.9581
      vertex 11.3865 -61.2966 78.1862
    endloop
  endfacet
  facet normal -0.238245 -0.780072 -0.578556
    outer loop
      vertex 0 0 0
      vertex 12.2449 -61.5082 77.8897
      vertex 11.9714 -61.4754 77.9581
    endloop
  endfacet
  facet normal -0.571211 -0.685466 -0.451502
    outer loop
      vertex 0 0 0
      vertex 12.8072 -61.7768 77.5861
      vertex 12.2449 -61.5082 77.8897
    endloop
  endfacet
  facet normal -0.697949 -0.611932 -0.372031
    outer loop
      vertex 0 0 0
      vertex 13.9578 -62.5762 76.7424
      vertex 12.8072 -61.7768 77.5861
    endloop
  endfacet
  facet normal -0.351366 -0.755878 -0.552441
    outer loop
      vertex 0 0 0
      vertex 16.2675 -63.0379 75.9051
      vertex 13.9578 -62.5762 76.7424
    endloop
  endfacet
  facet normal -0.259931 -0.769503 -0.583353
    outer loop
      vertex 0 0 0
      vertex 17.1842 -63.1337 75.623
      vertex 16.2675 -63.0379 75.9051
    endloop
  endfacet
  facet normal 0.246031 -0.715819 -0.653507
    outer loop
      vertex 0 0 0
      vertex 17.849 -62.9241 75.6437
      vertex 17.1842 -63.1337 75.623
    endloop
  endfacet
  facet normal -0.937286 -0.342658 -0.0638764
    outer loop
      vertex 0 0 0
      vertex 17.9283 -63.1088 75.4709
      vertex 17.849 -62.9241 75.6437
    endloop
  endfacet
  facet normal -0.697067 -0.622829 -0.35522
    outer loop
      vertex 0 0 0
      vertex 18.1024 -63.2246 75.3323
      vertex 17.9283 -63.1088 75.4709
    endloop
  endfacet
  facet normal -0.843922 -0.493179 -0.211118
    outer loop
      vertex 0 0 0
      vertex 18.5282 -63.7269 74.8036
      vertex 18.1024 -63.2246 75.3323
    endloop
  endfacet
  facet normal -0.906537 -0.404654 -0.120193
    outer loop
      vertex 0 0 0
      vertex 18.6784 -63.9864 74.5444
      vertex 18.5282 -63.7269 74.8036
    endloop
  endfacet
  facet normal 0.344262 -0.66805 -0.659692
    outer loop
      vertex 0 0 0
      vertex 18.979 -63.8619 74.5752
      vertex 18.6784 -63.9864 74.5444
    endloop
  endfacet
  facet normal 0.377818 -0.653563 -0.655827
    outer loop
      vertex 0 0 0
      vertex 19.5515 -63.6038 74.6478
      vertex 18.979 -63.8619 74.5752
    endloop
  endfacet
  facet normal -0.12699 -0.771179 -0.623824
    outer loop
      vertex 0 0 0
      vertex 19.7949 -63.5968 74.5896
      vertex 19.5515 -63.6038 74.6478
    endloop
  endfacet
  facet normal 0.0486183 -0.753647 -0.655479
    outer loop
      vertex 0 0 0
      vertex 20.3165 -63.5074 74.5255
      vertex 19.7949 -63.5968 74.5896
    endloop
  endfacet
  facet normal 0.94241 -0.0796965 -0.324826
    outer loop
      vertex 0 0 0
      vertex 20.3353 -63.453 74.5667
      vertex 20.3165 -63.5074 74.5255
    endloop
  endfacet
  facet normal 0.854737 -0.256422 -0.451302
    outer loop
      vertex 0 0 0
      vertex 20.4173 -63.3277 74.6508
      vertex 20.3353 -63.453 74.5667
    endloop
  endfacet
  facet normal 0.77183 -0.364931 -0.520677
    outer loop
      vertex 0 0 0
      vertex 20.5549 -63.1715 74.7453
      vertex 20.4173 -63.3277 74.6508
    endloop
  endfacet
  facet normal 0.643958 -0.487815 -0.589368
    outer loop
      vertex 0 0 0
      vertex 20.7782 -62.9886 74.8379
      vertex 20.5549 -63.1715 74.7453
    endloop
  endfacet
  facet normal -0.143642 -0.77643 -0.613615
    outer loop
      vertex 0 0 0
      vertex 21.3068 -62.9767 74.6991
      vertex 20.7782 -62.9886 74.8379
    endloop
  endfacet
  facet normal -0.238228 -0.774958 -0.585395
    outer loop
      vertex 0 0 0
      vertex 21.626 -62.9943 74.5925
      vertex 21.3068 -62.9767 74.6991
    endloop
  endfacet
  facet normal 0.398654 -0.64044 -0.656438
    outer loop
      vertex 0 0 0
      vertex 21.9662 -62.826 74.6349
      vertex 21.626 -62.9943 74.5925
    endloop
  endfacet
  facet normal 0.148971 -0.734462 -0.662098
    outer loop
      vertex 0 0 0
      vertex 22.4521 -62.6958 74.5998
      vertex 21.9662 -62.826 74.6349
    endloop
  endfacet
  facet normal -0.146198 -0.778551 -0.610316
    outer loop
      vertex 0 0 0
      vertex 22.5656 -62.6925 74.5684
      vertex 22.4521 -62.6958 74.5998
    endloop
  endfacet
  facet normal -0.727764 -0.617326 -0.298777
    outer loop
      vertex 0 0 0
      vertex 22.5979 -62.7162 74.5387
      vertex 22.5656 -62.6925 74.5684
    endloop
  endfacet
  facet normal -0.736365 -0.610915 -0.290775
    outer loop
      vertex 0 0 0
      vertex 22.7685 -62.8453 74.3779
      vertex 22.5979 -62.7162 74.5387
    endloop
  endfacet
  facet normal -0.450396 -0.745189 -0.491769
    outer loop
      vertex 0 0 0
      vertex 22.869 -62.8712 74.3251
      vertex 22.7685 -62.8453 74.3779
    endloop
  endfacet
  facet normal -0.387703 -0.759144 -0.522864
    outer loop
      vertex 0 0 0
      vertex 41.6956 -65.0312 63.5013
      vertex 22.869 -62.8712 74.3251
    endloop
  endfacet
  facet normal 0.104487 -0.659715 -0.744217
    outer loop
      vertex 0 0 0
      vertex 51.4882 -60.4337 60.8007
      vertex 41.6956 -65.0312 63.5013
    endloop
  endfacet
  facet normal -0.191704 -0.772452 -0.605448
    outer loop
      vertex 0 0 0
      vertex 58.2584 -58.6013 56.3192
      vertex 51.4882 -60.4337 60.8007
    endloop
  endfacet
  facet normal 0.0105788 -0.687402 -0.7262
    outer loop
      vertex 0 0 0
      vertex 71.0689 -50.5717 48.9052
      vertex 58.2584 -58.6013 56.3192
    endloop
  endfacet
  facet normal 0.0620528 -0.647392 -0.759627
    outer loop
      vertex 0 0 0
      vertex 79.401 -42.9124 43.0582
      vertex 71.0689 -50.5717 48.9052
    endloop
  endfacet
  facet normal 0.114295 -0.590291 -0.799057
    outer loop
      vertex 0 0 0
      vertex 88.4057 -30.6483 35.2863
      vertex 79.401 -42.9124 43.0582
    endloop
  endfacet
  facet normal 0.270152 -0.281001 -0.9209
    outer loop
      vertex 0 0 0
      vertex 89.9815 -26.662 34.5322
      vertex 88.4057 -30.6483 35.2863
    endloop
  endfacet
  facet normal 0.358751 0.00178228 -0.933432
    outer loop
      vertex 0 0 0
      vertex 92.1692 -15.8785 35.3936
      vertex 89.9815 -26.662 34.5322
    endloop
  endfacet
  facet normal -0.0720028 -0.966561 -0.246121
    outer loop
      vertex 0 0 0
      vertex 94.7294 -14.3502 28.6427
      vertex 92.1692 -15.8785 35.3936
    endloop
  endfacet
  facet normal -0.0652224 -0.96173 -0.266125
    outer loop
      vertex 0 0 0
      vertex 97.4517 -11.8749 19.0302
      vertex 94.7294 -14.3502 28.6427
    endloop
  endfacet
  facet normal -0.0867036 -0.98185 -0.168678
    outer loop
      vertex 0 0 0
      vertex 99.2301 -10.0144 7.28633
      vertex 97.4517 -11.8749 19.0302
    endloop
  endfacet
  facet normal -0.0211134 -0.716517 -0.697251
    outer loop
      vertex 0 0 0
      vertex 99.8791 -4.60797 1.71086
      vertex 99.2301 -10.0144 7.28633
    endloop
  endfacet
  facet normal -0.0423024 -0.983083 -0.178208
    outer loop
      vertex 0 0 0
      vertex 99.8667 -3.63242 -3.6678
      vertex 99.8791 -4.60797 1.71086
    endloop
  endfacet
  facet normal -0.0509241 -0.809599 -0.584771
    outer loop
      vertex 0 0 0
      vertex 99.7029 -0.733262 -7.66734
      vertex 99.8667 -3.63242 -3.6678
    endloop
  endfacet
  facet normal -0.0449068 -0.864101 -0.501311
    outer loop
      vertex 0 0 0
      vertex 97.4476 7.2598 -21.2428
      vertex 99.7029 -0.733262 -7.66734
    endloop
  endfacet
  facet normal -0.0603071 -0.826824 -0.559218
    outer loop
      vertex 0 0 0
      vertex 93.7327 14.5711 -31.6522
      vertex 97.4476 7.2598 -21.2428
    endloop
  endfacet
  facet normal 0.157638 -0.987421 0.01226
    outer loop
      vertex 0 0 0
      vertex 92.7697 14.3826 -34.4518
      vertex 93.7327 14.5711 -31.6522
    endloop
  endfacet
  facet normal 0.170677 -0.98412 0.0487475
    outer loop
      vertex 0 0 0
      vertex 90.9022 13.8177 -39.3175
      vertex 92.7697 14.3826 -34.4518
    endloop
  endfacet
  facet normal 0.147442 -0.989048 -0.00670308
    outer loop
      vertex 0 0 0
      vertex 90.3108 13.7388 -40.6842
      vertex 90.9022 13.8177 -39.3175
    endloop
  endfacet
  facet normal 0.027868 -0.964191 -0.26374
    outer loop
      vertex 0 0 0
      vertex 88.5767 14.6103 -44.0535
      vertex 90.3108 13.7388 -40.6842
    endloop
  endfacet
  facet normal 0.158411 -0.987333 -0.0089376
    outer loop
      vertex 0 0 0
      vertex 88.3414 14.5769 -44.5343
      vertex 88.5767 14.6103 -44.0535
    endloop
  endfacet
  facet normal -0.0238483 -0.935167 -0.353404
    outer loop
      vertex 0 0 0
      vertex 87.8626 14.9033 -45.3657
      vertex 88.3414 14.5769 -44.5343
    endloop
  endfacet
  facet normal -0.165869 -0.795634 -0.582627
    outer loop
      vertex 0 0 0
      vertex 87.2563 15.6867 -46.2629
      vertex 87.8626 14.9033 -45.3657
    endloop
  endfacet
  facet normal 0.0491141 -0.970411 -0.23641
    outer loop
      vertex 0 0 0
      vertex 86.1571 16.0899 -48.1463
      vertex 87.2563 15.6867 -46.2629
    endloop
  endfacet
  facet normal 0.0881857 -0.981458 -0.170184
    outer loop
      vertex 0 0 0
      vertex 84.3617 16.4433 -51.1147
      vertex 86.1571 16.0899 -48.1463
    endloop
  endfacet
  facet normal 0.100831 -0.983534 -0.149981
    outer loop
      vertex 0 0 0
      vertex 82.9637 16.6325 -53.2953
      vertex 84.3617 16.4433 -51.1147
    endloop
  endfacet
  facet normal 0.278691 -0.950532 0.137188
    outer loop
      vertex 0 0 0
      vertex 80.9818 15.58 -56.5616
      vertex 82.9637 16.6325 -53.2953
    endloop
  endfacet
  facet normal -0.0203796 -0.956042 -0.292522
    outer loop
      vertex 0 0 0
      vertex 79.4598 16.2086 -58.51
      vertex 80.9818 15.58 -56.5616
    endloop
  endfacet
  facet normal 0.260029 -0.961699 0.0867217
    outer loop
      vertex 0 0 0
      vertex 78.2304 15.7171 -60.2742
      vertex 79.4598 16.2086 -58.51
    endloop
  endfacet
  facet normal 0.47668 -0.773946 0.416873
    outer loop
      vertex 0 0 0
      vertex 77.2081 14.1853 -61.9491
      vertex 78.2304 15.7171 -60.2742
    endloop
  endfacet
  facet normal 0.332175 -0.921096 0.20308
    outer loop
      vertex 0 0 0
      vertex 76.5469 13.7456 -62.8619
      vertex 77.2081 14.1853 -61.9491
    endloop
  endfacet
  facet normal 0.42796 -0.838287 0.337824
    outer loop
      vertex 0 0 0
      vertex 75.3176 12.4179 -64.5992
      vertex 76.5469 13.7456 -62.8619
    endloop
  endfacet
  facet normal -0.655603 0.061167 -0.752624
    outer loop
      vertex 0 0 0
      vertex 75.2379 13.7538 -64.4212
      vertex 75.3176 12.4179 -64.5992
    endloop
  endfacet
  facet normal -0.64401 -0.0520082 -0.763247
    outer loop
      vertex 0 0 0
      vertex 74.9584 15.6489 -64.3145
      vertex 75.2379 13.7538 -64.4212
    endloop
  endfacet
  facet normal -0.657917 0.282709 -0.698012
    outer loop
      vertex 0 0 0
      vertex 75.0195 16.4834 -64.0341
      vertex 74.9584 15.6489 -64.3145
    endloop
  endfacet
  facet normal -0.627644 0.482182 -0.611199
    outer loop
      vertex 0 0 0
      vertex 75.1648 17.0916 -63.7035
      vertex 75.0195 16.4834 -64.0341
    endloop
  endfacet
  facet normal -0.606518 -0.200384 -0.769404
    outer loop
      vertex 0 0 0
      vertex 74.5346 19.3554 -63.7963
      vertex 75.1648 17.0916 -63.7035
    endloop
  endfacet
  facet normal -0.64868 0.4314 -0.626983
    outer loop
      vertex 0 0 0
      vertex 74.6851 20.2376 -63.345
      vertex 74.5346 19.3554 -63.7963
    endloop
  endfacet
  facet normal -0.52874 -0.396985 -0.750225
    outer loop
      vertex 0 0 0
      vertex 74.3788 20.9122 -63.4861
      vertex 74.6851 20.2376 -63.345
    endloop
  endfacet
  facet normal -0.295462 -0.749106 -0.59291
    outer loop
      vertex 0 0 0
      vertex 74.0716 21.2329 -63.7382
      vertex 74.3788 20.9122 -63.4861
    endloop
  endfacet
  facet normal -0.501881 -0.455806 -0.735089
    outer loop
      vertex 0 0 0
      vertex 73.0094 23.244 -64.26
      vertex 74.0716 21.2329 -63.7382
    endloop
  endfacet
  facet normal -0.57095 -0.309203 -0.760533
    outer loop
      vertex 0 0 0
      vertex 72.5011 24.4743 -64.3786
      vertex 73.0094 23.244 -64.26
    endloop
  endfacet
  facet normal -0.682216 0.126864 -0.720061
    outer loop
      vertex 0 0 0
      vertex 72.4182 25.2891 -64.1565
      vertex 72.5011 24.4743 -64.3786
    endloop
  endfacet
  facet normal -0.683142 0.135971 -0.717516
    outer loop
      vertex 0 0 0
      vertex 72.3172 26.2756 -63.8734
      vertex 72.4182 25.2891 -64.1565
    endloop
  endfacet
  facet normal -0.348292 -0.659867 -0.665784
    outer loop
      vertex 0 0 0
      vertex 70.7942 28.0379 -64.8233
      vertex 72.3172 26.2756 -63.8734
    endloop
  endfacet
  facet normal -0.494965 -0.457766 -0.738553
    outer loop
      vertex 0 0 0
      vertex 69.5263 30.1163 -65.2618
      vertex 70.7942 28.0379 -64.8233
    endloop
  endfacet
  facet normal -0.000842564 -0.907641 -0.419746
    outer loop
      vertex 0 0 0
      vertex 67.4503 30.9371 -67.0325
      vertex 69.5263 30.1163 -65.2618
    endloop
  endfacet
  facet normal -0.33875 -0.677052 -0.653337
    outer loop
      vertex 0 0 0
      vertex 65.1449 33.2245 -68.2076
      vertex 67.4503 30.9371 -67.0325
    endloop
  endfacet
  facet normal -0.673743 -0.160012 -0.721433
    outer loop
      vertex 0 0 0
      vertex 64.9959 33.6197 -68.1561
      vertex 65.1449 33.2245 -68.2076
    endloop
  endfacet
  facet normal -0.503045 -0.481908 -0.717433
    outer loop
      vertex 0 0 0
      vertex 64.5976 34.1824 -68.2548
      vertex 64.9959 33.6197 -68.1561
    endloop
  endfacet
  facet normal -0.534447 -0.435913 -0.724118
    outer loop
      vertex 0 0 0
      vertex 64.2694 34.6813 -68.3129
      vertex 64.5976 34.1824 -68.2548
    endloop
  endfacet
  facet normal -0.570659 -0.378224 -0.728899
    outer loop
      vertex 0 0 0
      vertex 63.9899 35.1485 -68.3365
      vertex 64.2694 34.6813 -68.3129
    endloop
  endfacet
  facet normal -0.345276 -0.662944 -0.664296
    outer loop
      vertex 0 0 0
      vertex 62.152 36.8843 -69.1135
      vertex 63.9899 35.1485 -68.3365
    endloop
  endfacet
  facet normal -0.0715085 -0.851833 -0.51891
    outer loop
      vertex 0 0 0
      vertex 60.885 37.4797 -69.9163
      vertex 62.152 36.8843 -69.1135
    endloop
  endfacet
  facet normal -0.219019 -0.767674 -0.602251
    outer loop
      vertex 0 0 0
      vertex 60.065 38.0342 -70.3249
      vertex 60.885 37.4797 -69.9163
    endloop
  endfacet
  facet normal -0.604381 -0.359822 -0.710811
    outer loop
      vertex 0 0 0
      vertex 59.4459 39.0326 -70.3039
      vertex 60.065 38.0342 -70.3249
    endloop
  endfacet
  facet normal -0.616869 -0.339492 -0.710083
    outer loop
      vertex 0 0 0
      vertex 58.7912 40.1078 -70.2492
      vertex 59.4459 39.0326 -70.3039
    endloop
  endfacet
  facet normal -0.597659 -0.369858 -0.711343
    outer loop
      vertex 0 0 0
      vertex 58.2253 40.9709 -70.2225
      vertex 58.7912 40.1078 -70.2492
    endloop
  endfacet
  facet normal -0.300532 -0.694093 -0.654152
    outer loop
      vertex 0 0 0
      vertex 57.9734 41.1678 -70.3157
      vertex 58.2253 40.9709 -70.2225
    endloop
  endfacet
  facet normal -0.272162 -0.715573 -0.643338
    outer loop
      vertex 0 0 0
      vertex 57.6263 41.422 -70.4516
      vertex 57.9734 41.1678 -70.3157
    endloop
  endfacet
  facet normal -0.627297 -0.32837 -0.706167
    outer loop
      vertex 0 0 0
      vertex 56.1775 43.7196 -70.233
      vertex 57.6263 41.422 -70.4516
    endloop
  endfacet
  facet normal -0.512632 -0.482361 -0.710307
    outer loop
      vertex 0 0 0
      vertex 54.6692 45.4539 -70.3222
      vertex 56.1775 43.7196 -70.233
    endloop
  endfacet
  facet normal -0.837323 0.300997 -0.456389
    outer loop
      vertex 0 0 0
      vertex 54.6661 47.1973 -69.1667
      vertex 54.6692 45.4539 -70.3222
    endloop
  endfacet
  facet normal -0.755807 -0.0774436 -0.650199
    outer loop
      vertex 0 0 0
      vertex 53.5362 49.8656 -68.1711
      vertex 54.6661 47.1973 -69.1667
    endloop
  endfacet
  facet normal -0.0244035 -0.79765 -0.602627
    outer loop
      vertex 0 0 0
      vertex 51.1366 50.8015 -69.3127
      vertex 53.5362 49.8656 -68.1711
    endloop
  endfacet
  facet normal 0.349298 -0.859799 -0.372474
    outer loop
      vertex 0 0 0
      vertex 49.9564 50.7186 -70.2281
      vertex 51.1366 50.8015 -69.3127
    endloop
  endfacet
  facet normal -0.284296 -0.669801 -0.685961
    outer loop
      vertex 0 0 0
      vertex 48.5387 51.6457 -70.5458
      vertex 49.9564 50.7186 -70.2281
    endloop
  endfacet
  facet normal -0.438927 -0.553888 -0.707496
    outer loop
      vertex 0 0 0
      vertex 46.2028 53.6194 -70.6418
      vertex 48.5387 51.6457 -70.5458
    endloop
  endfacet
  facet normal -0.227517 -0.698214 -0.678773
    outer loop
      vertex 0 0 0
      vertex 41.8867 55.91 -71.5513
      vertex 46.2028 53.6194 -70.6418
    endloop
  endfacet
  facet normal 0.0758555 -0.806758 -0.585992
    outer loop
      vertex 0 0 0
      vertex 39.2934 56.4316 -72.6051
      vertex 41.8867 55.91 -71.5513
    endloop
  endfacet
  facet normal 0.098904 -0.810913 -0.576748
    outer loop
      vertex 0 0 0
      vertex 38.0202 56.6411 -73.118
      vertex 39.2934 56.4316 -72.6051
    endloop
  endfacet
  facet normal 0.104636 -0.811814 -0.574465
    outer loop
      vertex 0 0 0
      vertex 36.6709 56.8428 -73.6488
      vertex 38.0202 56.6411 -73.118
    endloop
  endfacet
  facet normal -0.641978 -0.418347 -0.642535
    outer loop
      vertex 0 0 0
      vertex 35.6527 57.9032 -73.3219
      vertex 36.6709 56.8428 -73.6488
    endloop
  endfacet
  facet normal -0.418526 -0.602661 -0.679437
    outer loop
      vertex 0 0 0
      vertex 34.7475 58.4935 -73.2879
      vertex 35.6527 57.9032 -73.3219
    endloop
  endfacet
  facet normal -0.447142 -0.583633 -0.677817
    outer loop
      vertex 0 0 0
      vertex 33.6601 59.2295 -73.2043
      vertex 34.7475 58.4935 -73.2879
    endloop
  endfacet
  facet normal 0.0964123 -0.794998 -0.598901
    outer loop
      vertex 0 0 0
      vertex 32.1448 59.4331 -73.7185
      vertex 33.6601 59.2295 -73.2043
    endloop
  endfacet
  facet normal -0.700064 -0.375068 -0.607647
    outer loop
      vertex 0 0 0
      vertex 31.7928 59.8244 -73.5545
      vertex 32.1448 59.4331 -73.7185
    endloop
  endfacet
  facet normal -0.368335 -0.636926 -0.677241
    outer loop
      vertex 0 0 0
      vertex 30.9224 60.305 -73.5331
      vertex 31.7928 59.8244 -73.5545
    endloop
  endfacet
  facet normal -0.430633 -0.600615 -0.67366
    outer loop
      vertex 0 0 0
      vertex 28.8529 61.5628 -73.3316
      vertex 30.9224 60.305 -73.5331
    endloop
  endfacet
  facet normal -0.815422 -0.243428 -0.525195
    outer loop
      vertex 0 0 0
      vertex 28.1201 62.6462 -72.696
      vertex 28.8529 61.5628 -73.3316
    endloop
  endfacet
  facet normal -0.321088 -0.652446 -0.686452
    outer loop
      vertex 0 0 0
      vertex 26.8616 63.2324 -72.6645
      vertex 28.1201 62.6462 -72.696
    endloop
  endfacet
  facet normal -0.56586 -0.506895 -0.650277
    outer loop
      vertex 0 0 0
      vertex 25.9275 63.9284 -72.3942
      vertex 26.8616 63.2324 -72.6645
    endloop
  endfacet
  facet normal -0.0213986 -0.745589 -0.666063
    outer loop
      vertex 0 0 0
      vertex 22.3403 64.5804 -73.0088
      vertex 25.9275 63.9284 -72.3942
    endloop
  endfacet
  facet normal 0.125042 -0.761818 -0.635609
    outer loop
      vertex 0 0 0
      vertex 19.8772 64.6884 -73.6228
      vertex 22.3403 64.5804 -73.0088
    endloop
  endfacet
  facet normal 0.0334087 -0.755254 -0.654581
    outer loop
      vertex 0 0 0
      vertex 17.2721 64.9455 -74.0524
      vertex 19.8772 64.6884 -73.6228
    endloop
  endfacet
  facet normal -0.0487237 -0.745269 -0.664981
    outer loop
      vertex 0 0 0
      vertex 15.7 65.1781 -74.1979
      vertex 17.2721 64.9455 -74.0524
    endloop
  endfacet
endsolid OpenSCAD_Model
